G04 DipTrace 4.0.0.5*
G04 TopSilk.gbr*
%MOIN*%
G04 #@! TF.FileFunction,Legend,Top*
G04 #@! TF.Part,Single*
%ADD10C,0.009843*%
%ADD13C,0.004724*%
%ADD29C,0.003937*%
%ADD79C,0.00772*%
%ADD80C,0.013123*%
%FSLAX26Y26*%
G04*
G70*
G90*
G75*
G01*
G04 TopSilk*
%LPD*%
X2135827Y1025197D2*
D13*
X2051575D1*
X2135827Y962205D2*
X2051575D1*
X1997244Y1025591D2*
Y961811D1*
X1037539Y992175D2*
D29*
Y932707D1*
X1131437D1*
Y992175D1*
X1037539D1*
X1150020D2*
Y932707D1*
X1243917D1*
Y992175D1*
X1150020D1*
X1262539D2*
Y932707D1*
X1356437D1*
Y992175D1*
X1262539D1*
X1375020D2*
Y932707D1*
X1468917D1*
Y992175D1*
X1375020D1*
X1715492D2*
Y932707D1*
X1809390D1*
Y992175D1*
X1715492D1*
X1840492D2*
Y932707D1*
X1934390D1*
Y992175D1*
X1840492D1*
X2978012D2*
Y932707D1*
X3071909D1*
Y992175D1*
X2978012D1*
X3090501Y992185D2*
Y932718D1*
X3184399D1*
Y992185D1*
X3090501D1*
X3203001Y992184D2*
Y932717D1*
X3296899D1*
Y992184D1*
X3203001D1*
X3315503Y992185D2*
Y932718D1*
X3409400D1*
Y992185D1*
X3315503D1*
X3659253Y992184D2*
Y932717D1*
X3753151D1*
Y992184D1*
X3659253D1*
X3771752D2*
Y932717D1*
X3865650D1*
Y992184D1*
X3771752D1*
X2371909Y932707D2*
Y992175D1*
X2278012D1*
Y932707D1*
X2371909D1*
X2546909D2*
Y992175D1*
X2453012D1*
Y932707D1*
X2546909D1*
X2891270Y1971761D2*
D10*
X2362387Y2500644D1*
X1833633Y1971889D1*
X2362515Y1443007D1*
X2891270Y1971761D1*
G36*
X2913648Y2016294D2*
X2914418Y2016969D1*
X2915270Y2017539D1*
X2916189Y2017992D1*
X2917159Y2018321D1*
X2918164Y2018521D1*
X2919187Y2018588D1*
X2920209Y2018521D1*
X2921214Y2018321D1*
X2922184Y2017992D1*
X2923103Y2017539D1*
X2923955Y2016969D1*
X2924725Y2016294D1*
X2925401Y2015524D1*
X2925970Y2014672D1*
X2926423Y2013753D1*
X2926752Y2012783D1*
X2926952Y2011778D1*
X2927019Y2010755D1*
X2926952Y2009733D1*
X2926752Y2008728D1*
X2926423Y2007758D1*
X2925970Y2006839D1*
X2925401Y2005987D1*
X2924725Y2005217D1*
X2924661Y2005153D1*
X2923891Y2004477D1*
X2923039Y2003908D1*
X2922120Y2003455D1*
X2921150Y2003125D1*
X2920145Y2002926D1*
X2919123Y2002859D1*
X2918100Y2002926D1*
X2917095Y2003125D1*
X2916125Y2003455D1*
X2915206Y2003908D1*
X2914354Y2004477D1*
X2913584Y2005153D1*
X2912909Y2005923D1*
X2912339Y2006775D1*
X2911886Y2007694D1*
X2911557Y2008664D1*
X2911357Y2009669D1*
X2911290Y2010691D1*
X2911357Y2011714D1*
X2911557Y2012719D1*
X2911886Y2013689D1*
X2912339Y2014608D1*
X2912909Y2015459D1*
X2913584Y2016230D1*
X2913648Y2016294D1*
G37*
G36*
X2891270Y1971761D2*
X2855093Y2007938D1*
X2855157Y1935649D1*
X2891270Y1971761D1*
G37*
G36*
X478773Y1724320D2*
X478707Y1723315D1*
X478511Y1722327D1*
X478187Y1721373D1*
X477741Y1720469D1*
X477181Y1719631D1*
X476517Y1718874D1*
X475760Y1718210D1*
X474922Y1717650D1*
X474018Y1717204D1*
X473064Y1716881D1*
X472076Y1716684D1*
X471071Y1716618D1*
X470066Y1716684D1*
X469077Y1716881D1*
X468123Y1717204D1*
X467220Y1717650D1*
X466382Y1718210D1*
X465625Y1718874D1*
X464960Y1719631D1*
X464401Y1720469D1*
X463955Y1721373D1*
X463631Y1722327D1*
X463435Y1723315D1*
X463369Y1724320D1*
Y1724346D1*
X463435Y1725352D1*
X463631Y1726340D1*
X463955Y1727294D1*
X464401Y1728198D1*
X464960Y1729035D1*
X465625Y1729793D1*
X466382Y1730457D1*
X467220Y1731017D1*
X468123Y1731462D1*
X469077Y1731786D1*
X470066Y1731983D1*
X471071Y1732049D1*
X472076Y1731983D1*
X473064Y1731786D1*
X474018Y1731462D1*
X474922Y1731017D1*
X475760Y1730457D1*
X476517Y1729793D1*
X477181Y1729035D1*
X477741Y1728198D1*
X478187Y1727294D1*
X478511Y1726340D1*
X478707Y1725352D1*
X478773Y1724346D1*
Y1724320D1*
G37*
X470031Y1813583D2*
D10*
X729862D1*
X470031Y1923819D2*
X729862D1*
Y1813583D2*
Y1923819D1*
X470031Y1813583D2*
Y1923819D1*
X830596Y1663060D2*
X1381806D1*
Y2324341D1*
X830596D1*
Y2017299D1*
Y1663060D2*
Y1970102D1*
G03X830596Y2017299I49J23598D01*
G01*
X3698862Y1751238D2*
Y2085902D1*
X3701597Y2095753D2*
X3512562D1*
X3465407D2*
G03X3512562Y2095753I23577J-5634D01*
G01*
X3278360D2*
X3278277Y1743937D1*
X3278360Y1741386D2*
X3947650D1*
X3947899Y1744220D2*
X3947650Y2095753D1*
X3648475D1*
X3577535D2*
X3278360D1*
X3577535D2*
G03X3648475Y2095753I35470J33D01*
G01*
X1003912Y1156000D2*
X1499957D1*
Y1352832D1*
X1003912D1*
Y1274085D1*
Y1156000D2*
Y1234747D1*
G03X1003912Y1274085I24J19669D01*
G01*
X2945678Y1151535D2*
X3441723D1*
Y1348367D1*
X2945678D1*
Y1269621D1*
Y1151535D2*
Y1230282D1*
G03X2945678Y1269621I24J19669D01*
G01*
X1663239Y1198623D2*
X1970357D1*
X1663239Y1324594D2*
X1970357D1*
Y1198623D2*
Y1324594D1*
X1663239Y1198623D2*
Y1241920D1*
Y1281298D2*
Y1324594D1*
Y1241920D2*
G03X1663239Y1281298I-3J19689D01*
G01*
X3602642Y1193215D2*
X3909760D1*
X3602642Y1319186D2*
X3909760D1*
Y1193215D2*
Y1319186D1*
X3602642Y1193215D2*
Y1236512D1*
Y1275890D2*
Y1319186D1*
Y1236512D2*
G03X3602642Y1275890I-3J19689D01*
G01*
X887762Y758920D2*
D80*
Y698632D1*
X907858D1*
X916481Y701551D1*
X922251Y707254D1*
X925103Y713025D1*
X927954Y721580D1*
Y735973D1*
X925103Y744595D1*
X922251Y750298D1*
X916481Y756069D1*
X907858Y758920D1*
X887762D1*
X991475D2*
X954201D1*
Y698632D1*
X991475D1*
X954201Y730202D2*
X977149D1*
X1057914Y750298D2*
X1052210Y756069D1*
X1043588Y758920D1*
X1032114D1*
X1023492Y756069D1*
X1017722Y750298D1*
Y744595D1*
X1020640Y738824D1*
X1023492Y735973D1*
X1029196Y733121D1*
X1046440Y727350D1*
X1052210Y724499D1*
X1055062Y721580D1*
X1057914Y715877D1*
Y707254D1*
X1052210Y701551D1*
X1043588Y698632D1*
X1032114D1*
X1023492Y701551D1*
X1017722Y707254D1*
X1084160Y758920D2*
Y698632D1*
X1153451Y744595D2*
X1150599Y750298D1*
X1144829Y756069D1*
X1139125Y758920D1*
X1127651D1*
X1121881Y756069D1*
X1116177Y750298D1*
X1113259Y744595D1*
X1110407Y735973D1*
Y721580D1*
X1113259Y713025D1*
X1116177Y707254D1*
X1121881Y701551D1*
X1127651Y698632D1*
X1139125D1*
X1144829Y701551D1*
X1150599Y707254D1*
X1153451Y713025D1*
Y721580D1*
X1139125D1*
X1219890Y758920D2*
Y698632D1*
X1179698Y758920D1*
Y698632D1*
X1283410Y758920D2*
X1246136D1*
Y698632D1*
X1283410D1*
X1246136Y730202D2*
X1269084D1*
X1309657Y758920D2*
Y698632D1*
X1329753D1*
X1338375Y701551D1*
X1344145Y707254D1*
X1346997Y713025D1*
X1349849Y721580D1*
Y735973D1*
X1346997Y744595D1*
X1344145Y750298D1*
X1338375Y756069D1*
X1329753Y758920D1*
X1309657D1*
X1442136D2*
Y698632D1*
X1508575Y758920D2*
Y698632D1*
X1468383Y758920D1*
Y698632D1*
X1600863Y730202D2*
X1626663D1*
X1635285Y733121D1*
X1638203Y735973D1*
X1641055Y741676D1*
Y747446D1*
X1638203Y753150D1*
X1635285Y756069D1*
X1626663Y758920D1*
X1600863D1*
Y698632D1*
X1620959Y730202D2*
X1641055Y698632D1*
X1667301Y758920D2*
Y715877D1*
X1670153Y707254D1*
X1675923Y701551D1*
X1684546Y698632D1*
X1690249D1*
X1698871Y701551D1*
X1704642Y707254D1*
X1707493Y715877D1*
Y758920D1*
X1773932Y750298D2*
X1768228Y756069D1*
X1759606Y758920D1*
X1748132D1*
X1739510Y756069D1*
X1733740Y750298D1*
Y744595D1*
X1736658Y738824D1*
X1739510Y735973D1*
X1745214Y733121D1*
X1762458Y727350D1*
X1768228Y724499D1*
X1771080Y721580D1*
X1773932Y715877D1*
Y707254D1*
X1768228Y701551D1*
X1759606Y698632D1*
X1748132D1*
X1739510Y701551D1*
X1733740Y707254D1*
X1840371Y750298D2*
X1834667Y756069D1*
X1826045Y758920D1*
X1814571D1*
X1805949Y756069D1*
X1800179Y750298D1*
Y744595D1*
X1803097Y738824D1*
X1805949Y735973D1*
X1811653Y733121D1*
X1828897Y727350D1*
X1834667Y724499D1*
X1837519Y721580D1*
X1840371Y715877D1*
Y707254D1*
X1834667Y701551D1*
X1826045Y698632D1*
X1814571D1*
X1805949Y701551D1*
X1800179Y707254D1*
X1866618Y758920D2*
Y698632D1*
X1938826D2*
X1915812Y758920D1*
X1892864Y698632D1*
X1901486Y718728D2*
X1930204D1*
X3068308Y744596D2*
X3065456Y750300D1*
X3059686Y756070D1*
X3053982Y758922D1*
X3042508D1*
X3036738Y756070D1*
X3031034Y750300D1*
X3028116Y744596D1*
X3025264Y735974D1*
Y721582D1*
X3028116Y713026D1*
X3031034Y707256D1*
X3036738Y701552D1*
X3042508Y698634D1*
X3053982D1*
X3059686Y701552D1*
X3065456Y707256D1*
X3068308Y713026D1*
X3094554Y758922D2*
Y698634D1*
X3128976D1*
X3155223Y758922D2*
Y715878D1*
X3158075Y707256D1*
X3163845Y701552D1*
X3172467Y698634D1*
X3178171D1*
X3186793Y701552D1*
X3192563Y707256D1*
X3195415Y715878D1*
Y758922D1*
X3261854Y750300D2*
X3256150Y756070D1*
X3247528Y758922D1*
X3236054D1*
X3227432Y756070D1*
X3221662Y750300D1*
Y744596D1*
X3224580Y738826D1*
X3227432Y735974D1*
X3233136Y733122D1*
X3250380Y727352D1*
X3256150Y724500D1*
X3259002Y721582D1*
X3261854Y715878D1*
Y707256D1*
X3256150Y701552D1*
X3247528Y698634D1*
X3236054D1*
X3227432Y701552D1*
X3221662Y707256D1*
X3308196Y758922D2*
Y698634D1*
X3288100Y758922D2*
X3328292D1*
X3391813D2*
X3354539D1*
Y698634D1*
X3391813D1*
X3354539Y730204D2*
X3377487D1*
X3418060D2*
X3443859D1*
X3452482Y733122D1*
X3455400Y735974D1*
X3458252Y741678D1*
Y747448D1*
X3455400Y753152D1*
X3452482Y756070D1*
X3443859Y758922D1*
X3418060D1*
Y698634D1*
X3438156Y730204D2*
X3458252Y698634D1*
X3484498Y730204D2*
X3510298D1*
X3518920Y733122D1*
X3521838Y735974D1*
X3524690Y741678D1*
Y747448D1*
X3521838Y753152D1*
X3518920Y756070D1*
X3510298Y758922D1*
X3484498D1*
Y698634D1*
X3504594Y730204D2*
X3524690Y698634D1*
X3550937Y730204D2*
X3576737D1*
X3585359Y733122D1*
X3588277Y735974D1*
X3591129Y741678D1*
Y747448D1*
X3588277Y753152D1*
X3585359Y756070D1*
X3576737Y758922D1*
X3550937D1*
Y698634D1*
X3571033Y730204D2*
X3591129Y698634D1*
X3620228Y704404D2*
X3617376Y701486D1*
X3620228Y698634D1*
X3623146Y701486D1*
X3620228Y704404D1*
X3692437Y744596D2*
X3689585Y750300D1*
X3683815Y756070D1*
X3678111Y758922D1*
X3666637D1*
X3660867Y756070D1*
X3655163Y750300D1*
X3652245Y744596D1*
X3649393Y735974D1*
Y721582D1*
X3652245Y713026D1*
X3655163Y707256D1*
X3660867Y701552D1*
X3666637Y698634D1*
X3678111D1*
X3683815Y701552D1*
X3689585Y707256D1*
X3692437Y713026D1*
X3735927Y758922D2*
X3730157Y756070D1*
X3724453Y750300D1*
X3721535Y744596D1*
X3718683Y735974D1*
Y721582D1*
X3721535Y713026D1*
X3724453Y707256D1*
X3730157Y701552D1*
X3735927Y698634D1*
X3747401D1*
X3753105Y701552D1*
X3758875Y707256D1*
X3761727Y713026D1*
X3764579Y721582D1*
Y735974D1*
X3761727Y744596D1*
X3758875Y750300D1*
X3753105Y756070D1*
X3747401Y758922D1*
X3735927D1*
X3836722Y698634D2*
Y758922D1*
X3813774Y698634D1*
X3790826Y758922D1*
Y698634D1*
X3789386Y2549182D2*
D79*
X3787009Y2553935D1*
X3782201Y2558743D1*
X3777448Y2561120D1*
X3767886D1*
X3763078Y2558743D1*
X3758324Y2553935D1*
X3755893Y2549182D1*
X3753516Y2541997D1*
Y2530003D1*
X3755893Y2522874D1*
X3758324Y2518065D1*
X3763078Y2513312D1*
X3767886Y2510880D1*
X3777448D1*
X3782201Y2513312D1*
X3787009Y2518065D1*
X3789386Y2522874D1*
X3819195Y2561120D2*
X3814387Y2558743D1*
X3809634Y2553935D1*
X3807202Y2549182D1*
X3804825Y2541997D1*
Y2530003D1*
X3807202Y2522874D1*
X3809634Y2518065D1*
X3814387Y2513312D1*
X3819195Y2510880D1*
X3828757D1*
X3833510Y2513312D1*
X3838318Y2518065D1*
X3840695Y2522874D1*
X3843072Y2530003D1*
Y2541997D1*
X3840695Y2549182D1*
X3838318Y2553935D1*
X3833510Y2558743D1*
X3828757Y2561120D1*
X3819195D1*
X3872881D2*
X3868072Y2558743D1*
X3863319Y2553935D1*
X3860887Y2549182D1*
X3858511Y2541997D1*
Y2530003D1*
X3860887Y2522874D1*
X3863319Y2518065D1*
X3868072Y2513312D1*
X3872881Y2510880D1*
X3882443D1*
X3887196Y2513312D1*
X3892004Y2518065D1*
X3894381Y2522874D1*
X3896757Y2530003D1*
Y2541997D1*
X3894381Y2549182D1*
X3892004Y2553935D1*
X3887196Y2558743D1*
X3882443Y2561120D1*
X3872881D1*
X3912197D2*
Y2510880D1*
X3940882D1*
X3992191Y2549182D2*
X3989814Y2553935D1*
X3985006Y2558743D1*
X3980252Y2561120D1*
X3970691D1*
X3965882Y2558743D1*
X3961129Y2553935D1*
X3958697Y2549182D1*
X3956321Y2541997D1*
Y2530003D1*
X3958697Y2522874D1*
X3961129Y2518065D1*
X3965882Y2513312D1*
X3970691Y2510880D1*
X3980252D1*
X3985006Y2513312D1*
X3989814Y2518065D1*
X3992191Y2522874D1*
Y2530003D1*
X3980252D1*
X4007630Y2561120D2*
Y2510880D1*
X4023069Y2537188D2*
X4044569D1*
X4051754Y2539620D1*
X4054186Y2541997D1*
X4056563Y2546750D1*
Y2551558D1*
X4054186Y2556312D1*
X4051754Y2558743D1*
X4044569Y2561120D1*
X4023069D1*
Y2510880D1*
X4039816Y2537188D2*
X4056563Y2510880D1*
X4072002Y2561120D2*
Y2510880D1*
X4100687D1*
X3766053Y2428125D2*
Y2478365D1*
X3746929Y2428125D1*
X3727806Y2478365D1*
Y2428125D1*
X3781492Y2478365D2*
Y2442495D1*
X3783868Y2435310D1*
X3788677Y2430557D1*
X3795862Y2428125D1*
X3800615D1*
X3807800Y2430557D1*
X3812609Y2435310D1*
X3814985Y2442495D1*
Y2478365D1*
X3830424D2*
Y2428125D1*
X3859109D1*
X3891295Y2478365D2*
Y2428125D1*
X3874549Y2478365D2*
X3908042D1*
X3923481D2*
Y2428125D1*
X3974790Y2466427D2*
X3972414Y2471180D1*
X3967605Y2475988D1*
X3962852Y2478365D1*
X3953290D1*
X3948482Y2475988D1*
X3943729Y2471180D1*
X3941297Y2466427D1*
X3938920Y2459242D1*
Y2447248D1*
X3941297Y2440118D1*
X3943729Y2435310D1*
X3948482Y2430557D1*
X3953290Y2428125D1*
X3962852D1*
X3967605Y2430557D1*
X3972414Y2435310D1*
X3974790Y2440118D1*
X4028531Y2428125D2*
X4009353Y2478365D1*
X3990230Y2428125D1*
X3997415Y2444871D2*
X4021346D1*
X4043971Y2454433D2*
X4065470D1*
X4072655Y2456865D1*
X4075087Y2459242D1*
X4077464Y2463995D1*
Y2468803D1*
X4075087Y2473556D1*
X4072655Y2475988D1*
X4065470Y2478365D1*
X4043971D1*
Y2428125D1*
X4060717Y2454433D2*
X4077464Y2428125D1*
X4109650Y2478365D2*
Y2428125D1*
X4092903Y2478365D2*
X4126396D1*
X3777531Y2371678D2*
X3799030D1*
X3806215Y2374110D1*
X3808647Y2376486D1*
X3811024Y2381239D1*
Y2386048D1*
X3808647Y2390801D1*
X3806215Y2393233D1*
X3799030Y2395609D1*
X3777531D1*
Y2345369D1*
X3794277Y2371678D2*
X3811024Y2345369D1*
X3857525Y2395609D2*
X3826463D1*
Y2345369D1*
X3857525D1*
X3826463Y2371678D2*
X3845586D1*
X3872964Y2395609D2*
X3892087Y2345369D1*
X3911210Y2395609D1*
X3929026Y2350178D2*
X3926650Y2347746D1*
X3929026Y2345369D1*
X3931458Y2347746D1*
X3929026Y2350178D1*
X4024183Y2395554D2*
X4000307D1*
X3997930Y2374054D1*
X4000307Y2376431D1*
X4007492Y2378863D1*
X4014622D1*
X4021807Y2376431D1*
X4026615Y2371678D1*
X4028992Y2364493D1*
Y2359740D1*
X4026615Y2352555D1*
X4021807Y2347746D1*
X4014622Y2345369D1*
X4007492D1*
X4000307Y2347746D1*
X3997930Y2350178D1*
X3995498Y2354931D1*
X4046807Y2350178D2*
X4044431Y2347746D1*
X4046807Y2345369D1*
X4049239Y2347746D1*
X4046807Y2350178D1*
X4064679Y2385993D2*
X4069487Y2388424D1*
X4076672Y2395554D1*
Y2345369D1*
X3708433Y2300916D2*
X3706057Y2305669D1*
X3701248Y2310478D1*
X3696495Y2312854D1*
X3686933D1*
X3682125Y2310478D1*
X3677372Y2305669D1*
X3674940Y2300916D1*
X3672563Y2293731D1*
Y2281737D1*
X3674940Y2274608D1*
X3677372Y2269799D1*
X3682125Y2265046D1*
X3686933Y2262614D1*
X3696495D1*
X3701248Y2265046D1*
X3706057Y2269799D1*
X3708433Y2274608D1*
Y2281737D1*
X3696495D1*
X3738242Y2312854D2*
X3733434Y2310478D1*
X3728681Y2305669D1*
X3726249Y2300916D1*
X3723872Y2293731D1*
Y2281737D1*
X3726249Y2274608D1*
X3728681Y2269799D1*
X3733434Y2265046D1*
X3738242Y2262614D1*
X3747804D1*
X3752557Y2265046D1*
X3757366Y2269799D1*
X3759742Y2274608D1*
X3762119Y2281737D1*
Y2293731D1*
X3759742Y2300916D1*
X3757366Y2305669D1*
X3752557Y2310478D1*
X3747804Y2312854D1*
X3738242D1*
X3777558D2*
Y2262614D1*
X3806243D1*
X3821682Y2312854D2*
Y2262614D1*
X3838429D1*
X3845614Y2265046D1*
X3850422Y2269799D1*
X3852799Y2274608D1*
X3855176Y2281737D1*
Y2293731D1*
X3852799Y2300916D1*
X3850422Y2305669D1*
X3845614Y2310478D1*
X3838429Y2312854D1*
X3821682D1*
X3950277D2*
X3919216D1*
Y2262614D1*
X3950277D1*
X3919216Y2288922D2*
X3938339D1*
X3965717Y2312854D2*
Y2262614D1*
X3982463D1*
X3989648Y2265046D1*
X3994457Y2269799D1*
X3996833Y2274608D1*
X3999210Y2281737D1*
Y2293731D1*
X3996833Y2300916D1*
X3994457Y2305669D1*
X3989648Y2310478D1*
X3982463Y2312854D1*
X3965717D1*
X4014649D2*
Y2262614D1*
X4046835Y2312854D2*
Y2262614D1*
X4030088Y2312854D2*
X4063582D1*
X4079021D2*
Y2262614D1*
X4108830Y2312854D2*
X4104022Y2310478D1*
X4099269Y2305669D1*
X4096837Y2300916D1*
X4094460Y2293731D1*
Y2281737D1*
X4096837Y2274608D1*
X4099269Y2269799D1*
X4104022Y2265046D1*
X4108830Y2262614D1*
X4118392D1*
X4123145Y2265046D1*
X4127954Y2269799D1*
X4130330Y2274608D1*
X4132707Y2281737D1*
Y2293731D1*
X4130330Y2300916D1*
X4127954Y2305669D1*
X4123145Y2310478D1*
X4118392Y2312854D1*
X4108830D1*
X4181639D2*
Y2262614D1*
X4148146Y2312854D1*
Y2262614D1*
X691670Y1641550D2*
X689293Y1646303D1*
X684485Y1651112D1*
X679732Y1653488D1*
X670170D1*
X665362Y1651112D1*
X660609Y1646303D1*
X658177Y1641550D1*
X655800Y1634365D1*
Y1622371D1*
X658177Y1615242D1*
X660609Y1610433D1*
X665362Y1605680D1*
X670170Y1603248D1*
X679732D1*
X684485Y1605680D1*
X689293Y1610433D1*
X691670Y1615242D1*
X707109Y1643871D2*
X711918Y1646303D1*
X719103Y1653433D1*
Y1603248D1*
X505920Y1641550D2*
X503544Y1646303D1*
X498735Y1651112D1*
X493982Y1653488D1*
X484420D1*
X479612Y1651112D1*
X474859Y1646303D1*
X472427Y1641550D1*
X470050Y1634365D1*
Y1622371D1*
X472427Y1615242D1*
X474859Y1610433D1*
X479612Y1605680D1*
X484420Y1603248D1*
X493982D1*
X498735Y1605680D1*
X503544Y1610433D1*
X505920Y1615242D1*
X523791Y1641495D2*
Y1643871D1*
X526168Y1648680D1*
X528544Y1651056D1*
X533353Y1653433D1*
X542914D1*
X547668Y1651056D1*
X550044Y1648680D1*
X552476Y1643871D1*
Y1639118D1*
X550044Y1634310D1*
X545291Y1627180D1*
X521359Y1603248D1*
X554853D1*
X881136Y1096147D2*
X876383Y1093771D1*
X871575Y1088962D1*
X869198Y1084209D1*
Y1074647D1*
X871575Y1069839D1*
X876383Y1065086D1*
X881136Y1062654D1*
X888321Y1060277D1*
X900315D1*
X907445Y1062654D1*
X912253Y1065086D1*
X917006Y1069839D1*
X919438Y1074647D1*
Y1084209D1*
X917006Y1088962D1*
X912253Y1093771D1*
X907445Y1096147D1*
X869253Y1116395D2*
Y1142648D1*
X888377Y1128333D1*
Y1135518D1*
X890753Y1140271D1*
X893130Y1142648D1*
X900315Y1145080D1*
X905068D1*
X912253Y1142648D1*
X917062Y1137895D1*
X919438Y1130710D1*
Y1123525D1*
X917062Y1116395D1*
X914630Y1114018D1*
X909877Y1111586D1*
X883697Y1395752D2*
X878944Y1393375D1*
X874135Y1388566D1*
X871759Y1383813D1*
Y1374252D1*
X874135Y1369443D1*
X878944Y1364690D1*
X883697Y1362258D1*
X890882Y1359882D1*
X902875D1*
X910005Y1362258D1*
X914814Y1364690D1*
X919567Y1369443D1*
X921999Y1374252D1*
Y1383813D1*
X919567Y1388566D1*
X914814Y1393375D1*
X910005Y1395752D1*
X921999Y1435122D2*
X871814D1*
X905252Y1411191D1*
Y1447061D1*
X1531136Y1096941D2*
X1526383Y1094565D1*
X1521575Y1089756D1*
X1519198Y1085003D1*
Y1075441D1*
X1521575Y1070633D1*
X1526383Y1065880D1*
X1531136Y1063448D1*
X1538321Y1061071D1*
X1550315D1*
X1557445Y1063448D1*
X1562253Y1065880D1*
X1567006Y1070633D1*
X1569438Y1075441D1*
Y1085003D1*
X1567006Y1089756D1*
X1562253Y1094565D1*
X1557445Y1096941D1*
X1519253Y1141065D2*
Y1117189D1*
X1540753Y1114812D1*
X1538377Y1117189D1*
X1535945Y1124374D1*
Y1131504D1*
X1538377Y1138689D1*
X1543130Y1143497D1*
X1550315Y1145874D1*
X1555068D1*
X1562253Y1143497D1*
X1567062Y1138689D1*
X1569438Y1131504D1*
Y1124374D1*
X1567062Y1117189D1*
X1564630Y1114812D1*
X1559877Y1112380D1*
X1533697Y1394635D2*
X1528944Y1392258D1*
X1524135Y1387450D1*
X1521759Y1382697D1*
Y1373135D1*
X1524135Y1368326D1*
X1528944Y1363573D1*
X1533697Y1361141D1*
X1540882Y1358765D1*
X1552875D1*
X1560005Y1361141D1*
X1564814Y1363573D1*
X1569567Y1368326D1*
X1571999Y1373135D1*
Y1382697D1*
X1569567Y1387450D1*
X1564814Y1392258D1*
X1560005Y1394635D1*
X1528944Y1438759D2*
X1524190Y1436382D1*
X1521814Y1429197D1*
Y1424444D1*
X1524190Y1417259D1*
X1531375Y1412451D1*
X1543314Y1410074D1*
X1555252D1*
X1564814Y1412451D1*
X1569622Y1417259D1*
X1571999Y1424444D1*
Y1426821D1*
X1569622Y1433950D1*
X1564814Y1438759D1*
X1557628Y1441135D1*
X1555252D1*
X1548067Y1438759D1*
X1543314Y1433950D1*
X1540937Y1426821D1*
Y1424444D1*
X1543314Y1417259D1*
X1548067Y1412451D1*
X1555252Y1410074D1*
X2831135Y1097051D2*
X2826382Y1094675D1*
X2821573Y1089866D1*
X2819197Y1085113D1*
Y1075552D1*
X2821573Y1070743D1*
X2826382Y1065990D1*
X2831135Y1063558D1*
X2838320Y1061181D1*
X2850314D1*
X2857443Y1063558D1*
X2862252Y1065990D1*
X2867005Y1070743D1*
X2869437Y1075552D1*
Y1085113D1*
X2867005Y1089866D1*
X2862252Y1094675D1*
X2857443Y1097051D1*
X2869437Y1122052D2*
X2819252Y1145984D1*
Y1112491D1*
X2831135Y1392065D2*
X2826382Y1389688D1*
X2821573Y1384880D1*
X2819197Y1380126D1*
Y1370565D1*
X2821573Y1365756D1*
X2826382Y1361003D1*
X2831135Y1358571D1*
X2838320Y1356195D1*
X2850314D1*
X2857443Y1358571D1*
X2862252Y1361003D1*
X2867005Y1365756D1*
X2869437Y1370565D1*
Y1380126D1*
X2867005Y1384880D1*
X2862252Y1389688D1*
X2857443Y1392065D1*
X2819252Y1419442D2*
X2821629Y1412312D1*
X2826382Y1409880D1*
X2831190D1*
X2835944Y1412312D1*
X2838375Y1417065D1*
X2840752Y1426627D1*
X2843129Y1433812D1*
X2847937Y1438565D1*
X2852690Y1440942D1*
X2859875D1*
X2864628Y1438565D1*
X2867060Y1436189D1*
X2869437Y1429004D1*
Y1419442D1*
X2867060Y1412312D1*
X2864628Y1409880D1*
X2859875Y1407504D1*
X2852690D1*
X2847937Y1409880D1*
X2843129Y1414689D1*
X2840752Y1421819D1*
X2838375Y1431380D1*
X2835944Y1436189D1*
X2831190Y1438565D1*
X2826382D1*
X2821629Y1436189D1*
X2819252Y1429004D1*
Y1419442D1*
X3474884Y1097248D2*
X3470131Y1094871D1*
X3465323Y1090062D1*
X3462946Y1085309D1*
Y1075748D1*
X3465323Y1070939D1*
X3470131Y1066186D1*
X3474884Y1063754D1*
X3482069Y1061378D1*
X3494063D1*
X3501193Y1063754D1*
X3506001Y1066186D1*
X3510754Y1070939D1*
X3513186Y1075748D1*
Y1085309D1*
X3510754Y1090062D1*
X3506001Y1094871D1*
X3501193Y1097248D1*
X3479693Y1143804D2*
X3486878Y1141372D1*
X3491686Y1136618D1*
X3494063Y1129433D1*
Y1127057D1*
X3491686Y1119872D1*
X3486878Y1115119D1*
X3479693Y1112687D1*
X3477316D1*
X3470131Y1115119D1*
X3465378Y1119872D1*
X3463001Y1127057D1*
Y1129433D1*
X3465378Y1136618D1*
X3470131Y1141372D1*
X3479693Y1143804D1*
X3491686D1*
X3503625Y1141372D1*
X3510810Y1136618D1*
X3513186Y1129433D1*
Y1124680D1*
X3510810Y1117495D1*
X3506001Y1115119D1*
X3474884Y1385953D2*
X3470131Y1383577D1*
X3465323Y1378768D1*
X3462946Y1374015D1*
Y1364453D1*
X3465323Y1359645D1*
X3470131Y1354892D1*
X3474884Y1352460D1*
X3482069Y1350083D1*
X3494063D1*
X3501193Y1352460D1*
X3506001Y1354892D1*
X3510754Y1359645D1*
X3513186Y1364453D1*
Y1374015D1*
X3510754Y1378768D1*
X3506001Y1383577D1*
X3501193Y1385953D1*
X3472563Y1401392D2*
X3470131Y1406201D1*
X3463001Y1413386D1*
X3513186D1*
X3463001Y1443195D2*
X3465378Y1436010D1*
X3472563Y1431202D1*
X3484501Y1428825D1*
X3491686D1*
X3503625Y1431202D1*
X3510810Y1436010D1*
X3513186Y1443195D1*
Y1447948D1*
X3510810Y1455133D1*
X3503625Y1459887D1*
X3491686Y1462318D1*
X3484501D1*
X3472563Y1459887D1*
X3465378Y1455133D1*
X3463001Y1447948D1*
Y1443195D1*
X3472563Y1459887D2*
X3503625Y1431202D1*
X1106909Y2571087D2*
X1104532Y2575840D1*
X1099724Y2580648D1*
X1094971Y2583025D1*
X1085409D1*
X1080601Y2580648D1*
X1075848Y2575840D1*
X1073416Y2571087D1*
X1071039Y2563902D1*
Y2551908D1*
X1073416Y2544778D1*
X1075848Y2539970D1*
X1080601Y2535217D1*
X1085409Y2532785D1*
X1094971D1*
X1099724Y2535217D1*
X1104532Y2539970D1*
X1106909Y2544778D1*
X1122348Y2573408D2*
X1127157Y2575840D1*
X1134342Y2582970D1*
Y2532785D1*
X1149781Y2573408D2*
X1154589Y2575840D1*
X1161775Y2582970D1*
Y2532785D1*
X2142204Y1102530D2*
X2139827Y1107283D1*
X2135019Y1112092D1*
X2130266Y1114468D1*
X2120704D1*
X2115895Y1112092D1*
X2111142Y1107283D1*
X2108710Y1102530D1*
X2106334Y1095345D1*
Y1083352D1*
X2108710Y1076222D1*
X2111142Y1071414D1*
X2115895Y1066660D1*
X2120704Y1064228D1*
X2130266D1*
X2135019Y1066660D1*
X2139827Y1071414D1*
X2142204Y1076222D1*
X2157643Y1104852D2*
X2162451Y1107283D1*
X2169636Y1114413D1*
Y1064228D1*
X2187508Y1102475D2*
Y1104852D1*
X2189884Y1109660D1*
X2192261Y1112037D1*
X2197069Y1114413D1*
X2206631D1*
X2211384Y1112037D1*
X2213761Y1109660D1*
X2216192Y1104852D1*
Y1100098D1*
X2213761Y1095290D1*
X2209007Y1088160D1*
X2185076Y1064228D1*
X2218569D1*
X3510953Y916206D2*
X3508577Y920959D1*
X3503768Y925768D1*
X3499015Y928144D1*
X3489453D1*
X3484645Y925768D1*
X3479892Y920959D1*
X3477460Y916206D1*
X3475083Y909021D1*
Y897028D1*
X3477460Y889898D1*
X3479892Y885089D1*
X3484645Y880336D1*
X3489453Y877904D1*
X3499015D1*
X3503768Y880336D1*
X3508577Y885089D1*
X3510953Y889898D1*
X3526392Y918527D2*
X3531201Y920959D1*
X3538386Y928089D1*
Y877904D1*
X3558634Y928089D2*
X3584887D1*
X3570572Y908966D1*
X3577757D1*
X3582510Y906589D1*
X3584887Y904213D1*
X3587318Y897028D1*
Y892274D1*
X3584887Y885089D1*
X3580133Y880281D1*
X3572948Y877904D1*
X3565763D1*
X3558634Y880281D1*
X3556257Y882713D1*
X3553825Y887466D1*
X3479572Y2301951D2*
X3474819Y2299575D1*
X3470010Y2294766D1*
X3467634Y2290013D1*
Y2280451D1*
X3470010Y2275643D1*
X3474819Y2270890D1*
X3479572Y2268458D1*
X3486757Y2266081D1*
X3498751D1*
X3505880Y2268458D1*
X3510689Y2270890D1*
X3515442Y2275643D1*
X3517874Y2280451D1*
Y2290013D1*
X3515442Y2294766D1*
X3510689Y2299575D1*
X3505880Y2301951D1*
X3477251Y2317390D2*
X3474819Y2322199D1*
X3467689Y2329384D1*
X3517874D1*
Y2368755D2*
X3467689D1*
X3501127Y2344823D1*
Y2380693D1*
X3096195Y1910953D2*
X3091442Y1908577D1*
X3086634Y1903768D1*
X3084257Y1899015D1*
Y1889453D1*
X3086634Y1884645D1*
X3091442Y1879892D1*
X3096195Y1877460D1*
X3103380Y1875083D1*
X3115374D1*
X3122504Y1877460D1*
X3127312Y1879892D1*
X3132065Y1884645D1*
X3134497Y1889453D1*
Y1899015D1*
X3132065Y1903768D1*
X3127312Y1908577D1*
X3122504Y1910953D1*
X3093874Y1926392D2*
X3091442Y1931201D1*
X3084313Y1938386D1*
X3134497D1*
X3084313Y1982510D2*
Y1958634D1*
X3105812Y1956257D1*
X3103436Y1958634D1*
X3101004Y1965819D1*
Y1972948D1*
X3103436Y1980133D1*
X3108189Y1984942D1*
X3115374Y1987318D1*
X3120127D1*
X3127312Y1984942D1*
X3132121Y1980133D1*
X3134497Y1972948D1*
Y1965819D1*
X3132121Y1958634D1*
X3129689Y1956257D1*
X3124936Y1953825D1*
X1780918Y2278705D2*
X1778542Y2283458D1*
X1773733Y2288266D1*
X1768980Y2290643D1*
X1759419D1*
X1754610Y2288266D1*
X1749857Y2283458D1*
X1747425Y2278705D1*
X1745048Y2271520D1*
Y2259526D1*
X1747425Y2252397D1*
X1749857Y2247588D1*
X1754610Y2242835D1*
X1759419Y2240403D1*
X1768980D1*
X1773733Y2242835D1*
X1778542Y2247588D1*
X1780918Y2252397D1*
X1796358Y2281026D2*
X1801166Y2283458D1*
X1808351Y2290588D1*
Y2240403D1*
X1852475Y2283458D2*
X1850099Y2288211D1*
X1842914Y2290588D1*
X1838160D1*
X1830975Y2288211D1*
X1826167Y2281026D1*
X1823790Y2269088D1*
Y2257150D1*
X1826167Y2247588D1*
X1830975Y2242780D1*
X1838160Y2240403D1*
X1840537D1*
X1847667Y2242780D1*
X1852475Y2247588D1*
X1854852Y2254773D1*
Y2257150D1*
X1852475Y2264335D1*
X1847667Y2269088D1*
X1840537Y2271464D1*
X1838160D1*
X1830975Y2269088D1*
X1826167Y2264335D1*
X1823790Y2257150D1*
X1878248Y2416677D2*
X1875872Y2421430D1*
X1871063Y2426239D1*
X1866310Y2428615D1*
X1856749D1*
X1851940Y2426239D1*
X1847187Y2421430D1*
X1844755Y2416677D1*
X1842378Y2409492D1*
Y2397499D1*
X1844755Y2390369D1*
X1847187Y2385560D1*
X1851940Y2380807D1*
X1856749Y2378375D1*
X1866310D1*
X1871063Y2380807D1*
X1875872Y2385560D1*
X1878248Y2390369D1*
X1893688Y2418999D2*
X1898496Y2421430D1*
X1905681Y2428560D1*
Y2378375D1*
X1930682D2*
X1954614Y2428560D1*
X1921120D1*
X2128919Y2525238D2*
X2130599Y2530280D1*
Y2537080D1*
X2128919Y2542122D1*
X2122158Y2548883D1*
X2117077Y2550602D1*
X2110316Y2550563D1*
X2105235Y2548922D1*
X2098474Y2545522D1*
X2089994Y2537041D1*
X2086633Y2530319D1*
X2084952Y2525199D1*
Y2518477D1*
X2086633Y2513358D1*
X2093394Y2506597D1*
X2098474Y2504955D1*
X2105235Y2504916D1*
X2110316Y2506636D1*
X2141477Y2515963D2*
X2146597Y2514282D1*
X2156719Y2514243D1*
X2121233Y2478757D1*
X2176078Y2494884D2*
X2169356Y2498245D1*
X2164275Y2496604D1*
X2160875Y2493204D1*
X2159234Y2488123D1*
X2160875Y2483043D1*
X2165956Y2474601D1*
X2169356Y2467840D1*
X2169317Y2461079D1*
X2167636Y2456037D1*
X2162556Y2450957D1*
X2157514Y2449276D1*
X2154114Y2449237D1*
X2147353Y2452637D1*
X2140592Y2459398D1*
X2137231Y2466120D1*
Y2469559D1*
X2138911Y2474601D1*
X2143992Y2479682D1*
X2149033Y2481362D1*
X2155834D1*
X2162556Y2478001D1*
X2170997Y2472920D1*
X2176117Y2471240D1*
X2181158Y2472920D1*
X2184559Y2476321D1*
X2186239Y2481362D1*
X2182839Y2488123D1*
X2176078Y2494884D1*
X1802883Y1732565D2*
X1797842Y1734246D1*
X1791042D1*
X1786000Y1732565D1*
X1779239Y1725804D1*
X1777520Y1720724D1*
X1777559Y1713963D1*
X1779200Y1708882D1*
X1782600Y1702121D1*
X1791081Y1693640D1*
X1797803Y1690279D1*
X1802923Y1688599D1*
X1809645D1*
X1814764Y1690279D1*
X1821525Y1697040D1*
X1823167Y1702121D1*
X1823206Y1708882D1*
X1821486Y1713963D1*
X1812159Y1745124D2*
X1813840Y1750244D1*
X1813879Y1760366D1*
X1849365Y1724880D1*
X1858601Y1781483D2*
X1861962Y1774683D1*
X1862002Y1767922D1*
X1858601Y1761161D1*
X1856921Y1759480D1*
X1850160Y1756080D1*
X1843399Y1756119D1*
X1836599Y1759480D1*
X1834918Y1761161D1*
X1831557Y1767961D1*
Y1774683D1*
X1834957Y1781444D1*
X1836638Y1783125D1*
X1843399Y1786525D1*
X1850121D1*
X1858601Y1781483D1*
X1867082Y1773003D1*
X1873804Y1762841D1*
X1875524Y1754400D1*
X1872124Y1747639D1*
X1868763Y1744278D1*
X1862002Y1740878D1*
X1856921Y1742597D1*
X1946195Y1506453D2*
X1941442Y1504076D1*
X1936634Y1499267D1*
X1934257Y1494514D1*
Y1484953D1*
X1936634Y1480144D1*
X1941442Y1475391D1*
X1946195Y1472959D1*
X1953380Y1470583D1*
X1965374D1*
X1972504Y1472959D1*
X1977312Y1475391D1*
X1982065Y1480144D1*
X1984497Y1484953D1*
Y1494514D1*
X1982065Y1499267D1*
X1977312Y1504076D1*
X1972504Y1506453D1*
X1946251Y1524324D2*
X1943874D1*
X1939066Y1526700D1*
X1936689Y1529077D1*
X1934313Y1533885D1*
Y1543447D1*
X1936689Y1548200D1*
X1939066Y1550577D1*
X1943874Y1553009D1*
X1948627D1*
X1953436Y1550577D1*
X1960566Y1545823D1*
X1984497Y1521892D1*
Y1555385D1*
X1934313Y1585194D2*
X1936689Y1578009D1*
X1943874Y1573201D1*
X1955812Y1570824D1*
X1962997D1*
X1974936Y1573201D1*
X1982121Y1578009D1*
X1984497Y1585194D1*
Y1589948D1*
X1982121Y1597133D1*
X1974936Y1601886D1*
X1962997Y1604318D1*
X1955812D1*
X1943874Y1601886D1*
X1936689Y1597133D1*
X1934313Y1589948D1*
Y1585194D1*
X1943874Y1601886D2*
X1974936Y1573201D1*
X2048159Y1485608D2*
X2043118Y1487288D1*
X2036317D1*
X2031276Y1485608D1*
X2024515Y1478847D1*
X2022795Y1473766D1*
X2022834Y1467005D1*
X2024476Y1461925D1*
X2027876Y1455164D1*
X2036356Y1446683D1*
X2043078Y1443322D1*
X2048198Y1441641D1*
X2054920D1*
X2060040Y1443322D1*
X2066801Y1450083D1*
X2068442Y1455164D1*
X2068481Y1461925D1*
X2066762Y1467005D1*
X2060835Y1498206D2*
X2059154Y1499886D1*
X2057435Y1504967D1*
Y1508328D1*
X2059154Y1513408D1*
X2065915Y1520169D1*
X2070957Y1521850D1*
X2074318D1*
X2079438Y1520169D1*
X2082799Y1516808D1*
X2084479Y1511689D1*
X2086160Y1503286D1*
Y1469442D1*
X2109843Y1493125D1*
X2092035Y1532767D2*
X2093716Y1537887D1*
X2093755Y1548009D1*
X2129241Y1512523D1*
X2662703Y2456266D2*
X2660327Y2461020D1*
X2655518Y2465828D1*
X2650765Y2468205D1*
X2641203D1*
X2636395Y2465828D1*
X2631642Y2461020D1*
X2629210Y2456266D1*
X2626833Y2449081D1*
Y2437088D1*
X2629210Y2429958D1*
X2631642Y2425150D1*
X2636395Y2420397D1*
X2641203Y2417965D1*
X2650765D1*
X2655518Y2420397D1*
X2660327Y2425150D1*
X2662703Y2429958D1*
X2680574Y2456211D2*
Y2458588D1*
X2682951Y2463396D1*
X2685327Y2465773D1*
X2690136Y2468149D1*
X2699698D1*
X2704451Y2465773D1*
X2706827Y2463396D1*
X2709259Y2458588D1*
Y2453835D1*
X2706827Y2449026D1*
X2702074Y2441896D1*
X2678142Y2417965D1*
X2711636D1*
X2729507Y2456211D2*
Y2458588D1*
X2731883Y2463396D1*
X2734260Y2465773D1*
X2739068Y2468149D1*
X2748630D1*
X2753383Y2465773D1*
X2755760Y2463396D1*
X2758192Y2458588D1*
Y2453835D1*
X2755760Y2449026D1*
X2751007Y2441896D1*
X2727075Y2417965D1*
X2760568D1*
X2797078Y2390641D2*
X2794702Y2395394D1*
X2789893Y2400202D1*
X2785140Y2402579D1*
X2775579D1*
X2770770Y2400202D1*
X2766017Y2395394D1*
X2763585Y2390641D1*
X2761209Y2383455D1*
Y2371462D1*
X2763585Y2364332D1*
X2766017Y2359524D1*
X2770770Y2354771D1*
X2775579Y2352339D1*
X2785140D1*
X2789893Y2354771D1*
X2794702Y2359524D1*
X2797078Y2364332D1*
X2814950Y2390585D2*
Y2392962D1*
X2817326Y2397770D1*
X2819703Y2400147D1*
X2824511Y2402523D1*
X2834073D1*
X2838826Y2400147D1*
X2841203Y2397770D1*
X2843634Y2392962D1*
Y2388209D1*
X2841203Y2383400D1*
X2836449Y2376270D1*
X2812518Y2352339D1*
X2846011D1*
X2866259Y2402523D2*
X2892512D1*
X2878197Y2383400D1*
X2885382D1*
X2890135Y2381024D1*
X2892512Y2378647D1*
X2894944Y2371462D1*
Y2366709D1*
X2892512Y2359524D1*
X2887759Y2354715D1*
X2880574Y2352339D1*
X2873389D1*
X2866259Y2354715D1*
X2863882Y2357147D1*
X2861450Y2361900D1*
X2974015Y2259391D2*
X2971638Y2264144D1*
X2966830Y2268953D1*
X2962077Y2271329D1*
X2952515D1*
X2947707Y2268953D1*
X2942953Y2264144D1*
X2940522Y2259391D1*
X2938145Y2252206D1*
Y2240213D1*
X2940522Y2233083D1*
X2942953Y2228274D1*
X2947707Y2223521D1*
X2952515Y2221089D1*
X2962077D1*
X2966830Y2223521D1*
X2971638Y2228274D1*
X2974015Y2233083D1*
X2991886Y2259336D2*
Y2261712D1*
X2994263Y2266521D1*
X2996639Y2268898D1*
X3001448Y2271274D1*
X3011009D1*
X3015762Y2268898D1*
X3018139Y2266521D1*
X3020571Y2261712D1*
Y2256959D1*
X3018139Y2252151D1*
X3013386Y2245021D1*
X2989454Y2221089D1*
X3022947D1*
X3062318D2*
Y2271274D1*
X3038387Y2237836D1*
X3074257D1*
X2648669Y1487744D2*
X2650350Y1492786D1*
Y1499586D1*
X2648669Y1504628D1*
X2641908Y1511389D1*
X2636828Y1513108D1*
X2630067Y1513069D1*
X2624986Y1511428D1*
X2618225Y1508028D1*
X2609744Y1499547D1*
X2606383Y1492825D1*
X2604703Y1487705D1*
Y1480983D1*
X2606383Y1475864D1*
X2613144Y1469103D1*
X2618225Y1467461D1*
X2624986Y1467422D1*
X2630067Y1469142D1*
X2661267Y1475069D2*
X2662947Y1476749D1*
X2668028Y1478469D1*
X2671389D1*
X2676470Y1476749D1*
X2683231Y1469988D1*
X2684911Y1464946D1*
Y1461585D1*
X2683231Y1456466D1*
X2679870Y1453105D1*
X2674750Y1451424D1*
X2666348Y1449744D1*
X2632503D1*
X2656186Y1426060D1*
X2722873Y1430346D2*
X2705990Y1447229D1*
X2689106Y1433707D1*
X2692467D1*
X2699268Y1430346D1*
X2704309Y1425304D1*
X2707670Y1418504D1*
X2707709Y1411743D1*
X2704309Y1404982D1*
X2700948Y1401621D1*
X2694187Y1398221D1*
X2687387D1*
X2680626Y1401621D1*
X2675584Y1406663D1*
X2672184Y1413424D1*
X2672223Y1416824D1*
X2673865Y1421904D1*
X2786796Y1628913D2*
X2788476Y1633954D1*
Y1640754D1*
X2786796Y1645796D1*
X2780035Y1652557D1*
X2774954Y1654276D1*
X2768193Y1654237D1*
X2763112Y1652596D1*
X2756351Y1649196D1*
X2747871Y1640715D1*
X2744510Y1633993D1*
X2742829Y1628874D1*
Y1622152D1*
X2744510Y1617032D1*
X2751271Y1610271D1*
X2756351Y1608629D1*
X2763112Y1608590D1*
X2768193Y1610310D1*
X2799393Y1616237D2*
X2801074Y1617917D1*
X2806155Y1619637D1*
X2809516D1*
X2814596Y1617917D1*
X2821357Y1611156D1*
X2823038Y1606115D1*
Y1602754D1*
X2821357Y1597634D1*
X2817996Y1594273D1*
X2812877Y1592592D1*
X2804474Y1590912D1*
X2770629D1*
X2794313Y1567229D1*
X2855958Y1566473D2*
X2857638Y1571514D1*
X2854238Y1578275D1*
X2850877Y1581636D1*
X2844116Y1585036D1*
X2835635Y1583356D1*
X2825513Y1576595D1*
X2817072Y1568153D1*
X2811991Y1559711D1*
Y1552911D1*
X2815391Y1546150D1*
X2817072Y1544470D1*
X2823794Y1541109D1*
X2830594D1*
X2837355Y1544509D1*
X2839035Y1546189D1*
X2842436Y1552950D1*
X2842396Y1559711D1*
X2839035Y1566433D1*
X2837355Y1568114D1*
X2830594Y1571514D1*
X2823833Y1571553D1*
X2817072Y1568153D1*
X2918612Y1759323D2*
X2920293Y1764365D1*
Y1771165D1*
X2918612Y1776207D1*
X2911851Y1782968D1*
X2906770Y1784687D1*
X2900009Y1784648D1*
X2894929Y1783007D1*
X2888168Y1779607D1*
X2879687Y1771126D1*
X2876326Y1764404D1*
X2874646Y1759284D1*
Y1752562D1*
X2876326Y1747443D1*
X2883087Y1740681D1*
X2888168Y1739040D1*
X2894929Y1739001D1*
X2900009Y1740721D1*
X2931210Y1746647D2*
X2932890Y1748328D1*
X2937971Y1750048D1*
X2941332D1*
X2946413Y1748328D1*
X2953174Y1741567D1*
X2954854Y1736525D1*
Y1733164D1*
X2953174Y1728045D1*
X2949813Y1724684D1*
X2944693Y1723003D1*
X2936290Y1721323D1*
X2902446D1*
X2926129Y1697639D1*
X2943808Y1679961D2*
X2996216Y1698525D1*
X2972532Y1722208D1*
X4022761Y2188429D2*
X4020384Y2193182D1*
X4015576Y2197991D1*
X4010823Y2200367D1*
X4001261D1*
X3996453Y2197991D1*
X3991700Y2193182D1*
X3989268Y2188429D1*
X3986891Y2181244D1*
Y2169251D1*
X3989268Y2162121D1*
X3991700Y2157312D1*
X3996453Y2152559D1*
X4001261Y2150127D1*
X4010823D1*
X4015576Y2152559D1*
X4020384Y2157312D1*
X4022761Y2162121D1*
X4040632Y2188374D2*
Y2190751D1*
X4043009Y2195559D1*
X4045385Y2197936D1*
X4050194Y2200312D1*
X4059755D1*
X4064509Y2197936D1*
X4066885Y2195559D1*
X4069317Y2190751D1*
Y2185997D1*
X4066885Y2181189D1*
X4062132Y2174059D1*
X4038200Y2150127D1*
X4071694D1*
X4099071Y2200312D2*
X4091941Y2197936D1*
X4089509Y2193182D1*
Y2188374D1*
X4091941Y2183621D1*
X4096694Y2181189D1*
X4106256Y2178812D1*
X4113441Y2176436D1*
X4118194Y2171627D1*
X4120571Y2166874D1*
Y2159689D1*
X4118194Y2154936D1*
X4115818Y2152504D1*
X4108633Y2150127D1*
X4099071D1*
X4091941Y2152504D1*
X4089509Y2154936D1*
X4087133Y2159689D1*
Y2166874D1*
X4089509Y2171627D1*
X4094318Y2176436D1*
X4101448Y2178812D1*
X4111009Y2181189D1*
X4115818Y2183621D1*
X4118194Y2188374D1*
Y2193182D1*
X4115818Y2197936D1*
X4108633Y2200312D1*
X4099071D1*
X2056987Y952801D2*
Y902560D1*
X2073734D1*
X2080919Y904992D1*
X2085727Y909746D1*
X2088104Y914554D1*
X2090480Y921684D1*
Y933677D1*
X2088104Y940862D1*
X2085727Y945615D1*
X2080919Y950424D1*
X2073734Y952801D1*
X2056987D1*
X2105920Y943184D2*
X2110728Y945615D1*
X2117913Y952745D1*
Y902560D1*
X3356445Y2266229D2*
Y2287728D1*
X3354013Y2294913D1*
X3351636Y2297345D1*
X3346883Y2299722D1*
X3342075D1*
X3337322Y2297345D1*
X3334890Y2294913D1*
X3332513Y2287728D1*
Y2266229D1*
X3382753D1*
X3356445Y2282975D2*
X3382753Y2299722D1*
X3342130Y2315161D2*
X3339698Y2319970D1*
X3332568Y2327155D1*
X3382753D1*
X3425026Y2267115D2*
Y2288615D1*
X3422594Y2295800D1*
X3420218Y2298232D1*
X3415465Y2300608D1*
X3410656D1*
X3405903Y2298232D1*
X3403471Y2295800D1*
X3401095Y2288615D1*
Y2267115D1*
X3451335D1*
X3425026Y2283862D2*
X3451335Y2300608D1*
X3413088Y2318480D2*
X3410711D1*
X3405903Y2320856D1*
X3403526Y2323233D1*
X3401150Y2328041D1*
Y2337603D1*
X3403526Y2342356D1*
X3405903Y2344733D1*
X3410711Y2347164D1*
X3415465D1*
X3420273Y2344733D1*
X3427403Y2339979D1*
X3451335Y2316048D1*
Y2349541D1*
X2108738Y1165537D2*
X2130238D1*
X2137423Y1167969D1*
X2139855Y1170345D1*
X2142232Y1175098D1*
Y1179907D1*
X2139855Y1184660D1*
X2137423Y1187092D1*
X2130238Y1189468D1*
X2108738D1*
Y1139228D1*
X2125485Y1165537D2*
X2142232Y1139228D1*
X2162480Y1189413D2*
X2188733D1*
X2174418Y1170290D1*
X2181603D1*
X2186356Y1167913D1*
X2188733Y1165537D1*
X2191164Y1158352D1*
Y1153599D1*
X2188733Y1146414D1*
X2183979Y1141605D1*
X2176794Y1139228D1*
X2169609D1*
X2162480Y1141605D1*
X2160103Y1144037D1*
X2157671Y1148790D1*
X1048338Y886732D2*
X1069837D1*
X1077022Y889164D1*
X1079454Y891541D1*
X1081831Y896294D1*
Y901102D1*
X1079454Y905856D1*
X1077022Y908287D1*
X1069837Y910664D1*
X1048338D1*
Y860424D1*
X1065084Y886732D2*
X1081831Y860424D1*
X1121202D2*
Y910609D1*
X1097270Y877171D1*
X1133140D1*
X1162005Y886732D2*
X1183505D1*
X1190690Y889164D1*
X1193122Y891541D1*
X1195498Y896294D1*
Y901102D1*
X1193122Y905856D1*
X1190690Y908287D1*
X1183505Y910664D1*
X1162005D1*
Y860424D1*
X1178752Y886732D2*
X1195498Y860424D1*
X1239622Y910609D2*
X1215746D1*
X1213369Y889109D1*
X1215746Y891485D1*
X1222931Y893917D1*
X1230061D1*
X1237246Y891485D1*
X1242054Y886732D1*
X1244431Y879547D1*
Y874794D1*
X1242054Y867609D1*
X1237246Y862801D1*
X1230061Y860424D1*
X1222931D1*
X1215746Y862801D1*
X1213369Y865232D1*
X1210937Y869986D1*
X1269491Y886732D2*
X1290991D1*
X1298176Y889164D1*
X1300608Y891541D1*
X1302984Y896294D1*
Y901102D1*
X1300608Y905856D1*
X1298176Y908287D1*
X1290991Y910664D1*
X1269491D1*
Y860424D1*
X1286238Y886732D2*
X1302984Y860424D1*
X1347109Y903479D2*
X1344732Y908232D1*
X1337547Y910609D1*
X1332794D1*
X1325609Y908232D1*
X1320800Y901047D1*
X1318424Y889109D1*
Y877171D1*
X1320800Y867609D1*
X1325609Y862801D1*
X1332794Y860424D1*
X1335170D1*
X1342300Y862801D1*
X1347109Y867609D1*
X1349485Y874794D1*
Y877171D1*
X1347109Y884356D1*
X1342300Y889109D1*
X1335170Y891485D1*
X1332794D1*
X1325609Y889109D1*
X1320800Y884356D1*
X1318424Y877171D1*
X1380756Y886732D2*
X1402255D1*
X1409440Y889164D1*
X1411872Y891541D1*
X1414249Y896294D1*
Y901102D1*
X1411872Y905856D1*
X1409440Y908287D1*
X1402255Y910664D1*
X1380756D1*
Y860424D1*
X1397502Y886732D2*
X1414249Y860424D1*
X1439250D2*
X1463181Y910609D1*
X1429688D1*
X1721256Y886732D2*
X1742755D1*
X1749941Y889164D1*
X1752372Y891541D1*
X1754749Y896294D1*
Y901102D1*
X1752372Y905856D1*
X1749941Y908287D1*
X1742755Y910664D1*
X1721256D1*
Y860424D1*
X1738002Y886732D2*
X1754749Y860424D1*
X1782126Y910609D2*
X1774997Y908232D1*
X1772565Y903479D1*
Y898671D1*
X1774997Y893917D1*
X1779750Y891485D1*
X1789311Y889109D1*
X1796497Y886732D1*
X1801250Y881924D1*
X1803626Y877171D1*
Y869986D1*
X1801250Y865232D1*
X1798873Y862801D1*
X1791688Y860424D1*
X1782126D1*
X1774997Y862801D1*
X1772565Y865232D1*
X1770188Y869986D1*
Y877171D1*
X1772565Y881924D1*
X1777373Y886732D1*
X1784503Y889109D1*
X1794065Y891485D1*
X1798873Y893917D1*
X1801250Y898671D1*
Y903479D1*
X1798873Y908232D1*
X1791688Y910609D1*
X1782126D1*
X1847416Y886732D2*
X1868916D1*
X1876101Y889164D1*
X1878533Y891541D1*
X1880910Y896294D1*
Y901102D1*
X1878533Y905856D1*
X1876101Y908287D1*
X1868916Y910664D1*
X1847416D1*
Y860424D1*
X1864163Y886732D2*
X1880910Y860424D1*
X1927466Y893917D2*
X1925034Y886732D1*
X1920281Y881924D1*
X1913096Y879547D1*
X1910719D1*
X1903534Y881924D1*
X1898781Y886732D1*
X1896349Y893917D1*
Y896294D1*
X1898781Y903479D1*
X1903534Y908232D1*
X1910719Y910609D1*
X1913096D1*
X1920281Y908232D1*
X1925034Y903479D1*
X1927466Y893917D1*
Y881924D1*
X1925034Y869986D1*
X1920281Y862801D1*
X1913096Y860424D1*
X1908342D1*
X1901157Y862801D1*
X1898781Y867609D1*
X2963782Y886732D2*
X2985282D1*
X2992467Y889164D1*
X2994899Y891541D1*
X2997275Y896294D1*
Y901102D1*
X2994899Y905856D1*
X2992467Y908287D1*
X2985282Y910664D1*
X2963782D1*
Y860424D1*
X2980529Y886732D2*
X2997275Y860424D1*
X3012715Y901047D2*
X3017523Y903479D1*
X3024708Y910609D1*
Y860424D1*
X3054517Y910609D2*
X3047332Y908232D1*
X3042524Y901047D1*
X3040147Y889109D1*
Y881924D1*
X3042524Y869986D1*
X3047332Y862801D1*
X3054517Y860424D1*
X3059271D1*
X3066456Y862801D1*
X3071209Y869986D1*
X3073641Y881924D1*
Y889109D1*
X3071209Y901047D1*
X3066456Y908232D1*
X3059271Y910609D1*
X3054517D1*
X3071209Y901047D2*
X3042524Y869986D1*
X3093271Y886743D2*
X3114771D1*
X3121956Y889175D1*
X3124387Y891551D1*
X3126764Y896304D1*
Y901113D1*
X3124387Y905866D1*
X3121956Y908298D1*
X3114771Y910675D1*
X3093271D1*
Y860435D1*
X3110017Y886743D2*
X3126764Y860435D1*
X3142203Y901058D2*
X3147012Y903489D1*
X3154197Y910619D1*
Y860435D1*
X3169636Y901058D2*
X3174444Y903489D1*
X3181630Y910619D1*
Y860435D1*
X3201270Y886741D2*
X3222770D1*
X3229955Y889173D1*
X3232387Y891550D1*
X3234763Y896303D1*
Y901112D1*
X3232387Y905865D1*
X3229955Y908297D1*
X3222770Y910673D1*
X3201270D1*
Y860433D1*
X3218017Y886741D2*
X3234763Y860433D1*
X3250203Y901056D2*
X3255011Y903488D1*
X3262196Y910618D1*
Y860433D1*
X3280067Y898680D2*
Y901056D1*
X3282444Y905865D1*
X3284821Y908241D1*
X3289629Y910618D1*
X3299191D1*
X3303944Y908241D1*
X3306320Y905865D1*
X3308752Y901056D1*
Y896303D1*
X3306320Y891495D1*
X3301567Y884365D1*
X3277635Y860433D1*
X3311129D1*
X3326273Y886743D2*
X3347773D1*
X3354958Y889175D1*
X3357390Y891551D1*
X3359766Y896304D1*
Y901113D1*
X3357390Y905866D1*
X3354958Y908298D1*
X3347773Y910675D1*
X3326273D1*
Y860435D1*
X3343019Y886743D2*
X3359766Y860435D1*
X3375205Y901058D2*
X3380014Y903489D1*
X3387199Y910619D1*
Y860435D1*
X3407447Y910619D2*
X3433700D1*
X3419385Y891496D1*
X3426570D1*
X3431323Y889119D1*
X3433700Y886743D1*
X3436131Y879558D1*
Y874805D1*
X3433700Y867620D1*
X3428946Y862811D1*
X3421761Y860435D1*
X3414576D1*
X3407447Y862811D1*
X3405070Y865243D1*
X3402638Y869996D1*
X3643835Y886741D2*
X3665335D1*
X3672520Y889173D1*
X3674952Y891550D1*
X3677328Y896303D1*
Y901112D1*
X3674952Y905865D1*
X3672520Y908297D1*
X3665335Y910673D1*
X3643835D1*
Y860433D1*
X3660582Y886741D2*
X3677328Y860433D1*
X3692768Y901056D2*
X3697576Y903488D1*
X3704761Y910618D1*
Y860433D1*
X3744132D2*
Y910618D1*
X3720200Y877180D1*
X3756070D1*
X3776271Y886741D2*
X3797771D1*
X3804956Y889173D1*
X3807388Y891550D1*
X3809765Y896303D1*
Y901112D1*
X3807388Y905865D1*
X3804956Y908297D1*
X3797771Y910673D1*
X3776271D1*
Y860433D1*
X3793018Y886741D2*
X3809765Y860433D1*
X3825204Y901056D2*
X3830012Y903488D1*
X3837198Y910618D1*
Y860433D1*
X3881322Y910618D2*
X3857445D1*
X3855069Y889118D1*
X3857445Y891495D1*
X3864630Y893927D1*
X3871760D1*
X3878945Y891495D1*
X3883754Y886741D1*
X3886130Y879556D1*
Y874803D1*
X3883754Y867618D1*
X3878945Y862810D1*
X3871760Y860433D1*
X3864630D1*
X3857445Y862810D1*
X3855069Y865242D1*
X3852637Y869995D1*
X2274078Y885012D2*
X2295578D1*
X2302763Y887444D1*
X2305195Y889820D1*
X2307571Y894573D1*
Y899382D1*
X2305195Y904135D1*
X2302763Y906567D1*
X2295578Y908944D1*
X2274078D1*
Y858704D1*
X2290825Y885012D2*
X2307571Y858704D1*
X2323011Y899327D2*
X2327819Y901759D1*
X2335004Y908888D1*
Y858704D1*
X2379128Y901759D2*
X2376752Y906512D1*
X2369567Y908888D1*
X2364813D1*
X2357628Y906512D1*
X2352820Y899327D1*
X2350443Y887388D1*
Y875450D1*
X2352820Y865889D1*
X2357628Y861080D1*
X2364813Y858704D1*
X2367190D1*
X2374320Y861080D1*
X2379128Y865889D1*
X2381505Y873074D1*
Y875450D1*
X2379128Y882635D1*
X2374320Y887388D1*
X2367190Y889765D1*
X2364813D1*
X2357628Y887388D1*
X2352820Y882635D1*
X2350443Y875450D1*
X2451281Y886732D2*
X2472780D1*
X2479966Y889164D1*
X2482397Y891541D1*
X2484774Y896294D1*
Y901102D1*
X2482397Y905856D1*
X2479966Y908287D1*
X2472780Y910664D1*
X2451281D1*
Y860424D1*
X2468027Y886732D2*
X2484774Y860424D1*
X2500213Y901047D2*
X2505022Y903479D1*
X2512207Y910609D1*
Y860424D1*
X2537208D2*
X2561139Y910609D1*
X2527646D1*
X2333385Y2593651D2*
Y2557781D1*
X2335762Y2550596D1*
X2340570Y2545843D1*
X2347755Y2543411D1*
X2352508D1*
X2359693Y2545843D1*
X2364502Y2550596D1*
X2366878Y2557781D1*
Y2593651D1*
X2382318Y2584034D2*
X2387126Y2586466D1*
X2394311Y2593596D1*
Y2543411D1*
X559657Y2135673D2*
Y2099803D1*
X562034Y2092618D1*
X566842Y2087865D1*
X574027Y2085433D1*
X578780D1*
X585965Y2087865D1*
X590774Y2092618D1*
X593150Y2099803D1*
Y2135673D1*
X611022Y2123680D2*
Y2126056D1*
X613398Y2130865D1*
X615775Y2133241D1*
X620583Y2135618D1*
X630145D1*
X634898Y2133241D1*
X637275Y2130865D1*
X639706Y2126056D1*
Y2121303D1*
X637275Y2116495D1*
X632521Y2109365D1*
X608590Y2085433D1*
X642083D1*
X757373Y1952488D2*
X793243D1*
X800428Y1954864D1*
X805181Y1959673D1*
X807613Y1966858D1*
Y1971611D1*
X805181Y1978796D1*
X800428Y1983605D1*
X793243Y1985981D1*
X757373D1*
X757428Y2006229D2*
Y2032482D1*
X776551Y2018167D1*
Y2025352D1*
X778928Y2030105D1*
X781304Y2032482D1*
X788489Y2034914D1*
X793243D1*
X800428Y2032482D1*
X805236Y2027729D1*
X807613Y2020544D1*
Y2013359D1*
X805236Y2006229D1*
X802804Y2003852D1*
X798051Y2001420D1*
X3570798Y2168976D2*
Y2133106D1*
X3573174Y2125921D1*
X3577983Y2121168D1*
X3585168Y2118736D1*
X3589921D1*
X3597106Y2121168D1*
X3601914Y2125921D1*
X3604291Y2133106D1*
Y2168976D1*
X3648415Y2168921D2*
X3624539D1*
X3622162Y2147421D1*
X3624539Y2149798D1*
X3631724Y2152230D1*
X3638853D1*
X3646038Y2149798D1*
X3650847Y2145045D1*
X3653223Y2137860D1*
Y2133106D1*
X3650847Y2125921D1*
X3646038Y2121113D1*
X3638853Y2118736D1*
X3631724D1*
X3624539Y2121113D1*
X3622162Y2123545D1*
X3619730Y2128298D1*
X930689Y1214419D2*
X966559D1*
X973744Y1216796D1*
X978497Y1221604D1*
X980929Y1228789D1*
Y1233542D1*
X978497Y1240727D1*
X973744Y1245536D1*
X966559Y1247912D1*
X930689D1*
X937874Y1292036D2*
X933121Y1289660D1*
X930744Y1282475D1*
Y1277722D1*
X933121Y1270537D1*
X940306Y1265728D1*
X952244Y1263352D1*
X964182D1*
X973744Y1265728D1*
X978552Y1270537D1*
X980929Y1277722D1*
Y1280098D1*
X978552Y1287228D1*
X973744Y1292036D1*
X966559Y1294413D1*
X964182D1*
X956997Y1292036D1*
X952244Y1287228D1*
X949868Y1280098D1*
Y1277722D1*
X952244Y1270537D1*
X956997Y1265728D1*
X964182Y1263352D1*
X2872455Y1208738D2*
X2908325D1*
X2915510Y1211115D1*
X2920264Y1215924D1*
X2922695Y1223109D1*
Y1227862D1*
X2920264Y1235047D1*
X2915510Y1239855D1*
X2908325Y1242232D1*
X2872455D1*
X2922695Y1267233D2*
X2872511Y1291164D1*
Y1257671D1*
X1590016Y1220424D2*
X1625886D1*
X1633071Y1222800D1*
X1637824Y1227609D1*
X1640256Y1234794D1*
Y1239547D1*
X1637824Y1246732D1*
X1633071Y1251540D1*
X1625886Y1253917D1*
X1590016D1*
X1590071Y1281294D2*
X1592448Y1274165D1*
X1597201Y1271733D1*
X1602009D1*
X1606762Y1274165D1*
X1609194Y1278918D1*
X1611571Y1288479D1*
X1613947Y1295664D1*
X1618756Y1300418D1*
X1623509Y1302794D1*
X1630694D1*
X1635447Y1300418D1*
X1637879Y1298041D1*
X1640256Y1290856D1*
Y1281294D1*
X1637879Y1274165D1*
X1635447Y1271733D1*
X1630694Y1269356D1*
X1623509D1*
X1618756Y1271733D1*
X1613947Y1276541D1*
X1611571Y1283671D1*
X1609194Y1293233D1*
X1606762Y1298041D1*
X1602009Y1300418D1*
X1597201D1*
X1592448Y1298041D1*
X1590071Y1290856D1*
Y1281294D1*
X3529419Y1216176D2*
X3565289D1*
X3572474Y1218553D1*
X3577227Y1223361D1*
X3579659Y1230546D1*
Y1235299D1*
X3577227Y1242484D1*
X3572474Y1247293D1*
X3565289Y1249669D1*
X3529419D1*
X3546165Y1296225D2*
X3553350Y1293794D1*
X3558159Y1289040D1*
X3560535Y1281855D1*
Y1279479D1*
X3558159Y1272294D1*
X3553350Y1267541D1*
X3546165Y1265109D1*
X3543789D1*
X3536604Y1267541D1*
X3531851Y1272294D1*
X3529474Y1279479D1*
Y1281855D1*
X3531851Y1289040D1*
X3536604Y1293794D1*
X3546165Y1296225D1*
X3558159D1*
X3570097Y1293794D1*
X3577282Y1289040D1*
X3579659Y1281855D1*
Y1277102D1*
X3577282Y1269917D1*
X3572474Y1267541D1*
M02*
