G04 DipTrace 2.4.0.2*
%INBottomMask.gbr*%
%MOIN*%
%ADD46R,0.0315X0.126*%
%ADD54R,0.0709X0.0197*%
%ADD56R,0.0197X0.0709*%
%ADD58R,0.0787X0.2638*%
%ADD60R,0.0709X0.0787*%
%ADD62R,0.0354X0.0433*%
%ADD64C,0.0709*%
%ADD66R,0.0709X0.0709*%
%ADD68R,0.0433X0.0354*%
%ADD70R,0.0866X0.1654*%
%ADD72C,0.0748*%
%ADD74R,0.0827X0.0827*%
%FSLAX44Y44*%
G04*
G70*
G90*
G75*
G01*
%LNBotMask*%
%LPD*%
D74*
X41378Y13063D3*
D72*
X33308D3*
D70*
X39323Y12543D3*
X35393D3*
D66*
X8062Y9875D3*
D64*
X7062D3*
D68*
X8750Y12188D3*
X9262D3*
D62*
X17438Y10313D3*
Y10824D3*
Y9500D3*
Y8988D3*
X18751Y12688D3*
Y13200D3*
X31690Y9437D3*
Y8926D3*
Y10375D3*
Y10887D3*
D68*
X21001Y9250D3*
X21513D3*
X33282Y8698D3*
X32770D3*
D60*
X8750Y15626D3*
X7648D3*
X8750Y14563D3*
X7648D3*
D58*
X9186Y5399D3*
X10186D3*
X11186D3*
X12186D3*
X13186D3*
X14186D3*
X15186D3*
X16186D3*
X17186D3*
X18186D3*
X19186D3*
X20186D3*
X21186D3*
X22186D3*
X23186D3*
X24186D3*
X25186D3*
X26186D3*
X27186D3*
X28186D3*
X29186D3*
X30186D3*
X31186D3*
X32186D3*
X33186D3*
X34186D3*
X35186D3*
X36186D3*
X37186D3*
X38186D3*
G36*
X25628Y20813D2*
X26376D1*
Y20065D1*
X25628D1*
Y20813D1*
G37*
D72*
X27002Y20439D3*
X28002D3*
X29002D3*
X30002D3*
D68*
X8750Y13438D3*
X9262D3*
X8750Y12938D3*
X9262D3*
X21001Y9813D3*
X21513D3*
D62*
X22249Y9750D3*
Y9238D3*
X22875Y9750D3*
Y9238D3*
X23502Y9750D3*
Y9238D3*
X24127Y9750D3*
Y9238D3*
X24752Y9750D3*
Y9238D3*
X25377Y9750D3*
Y9238D3*
D56*
X21689Y19501D3*
X21886D3*
X22083D3*
X22279D3*
X22476D3*
X22673D3*
X22870D3*
X23067D3*
X23264D3*
X23461D3*
X23657D3*
X23854D3*
X24051D3*
X24248D3*
X24445D3*
X24642D3*
X24838D3*
X25035D3*
X25232D3*
X25429D3*
X25626D3*
X25823D3*
X26020D3*
X26216D3*
X26413D3*
X26610D3*
X26807D3*
X27004D3*
X27201D3*
X27398D3*
X27594D3*
X27791D3*
X27988D3*
X28185D3*
X28382D3*
X28579D3*
D54*
X29346Y18733D3*
Y18537D3*
Y18340D3*
Y18143D3*
Y17946D3*
Y17749D3*
Y17552D3*
Y17355D3*
Y17159D3*
Y16962D3*
Y16765D3*
Y16568D3*
Y16371D3*
Y16174D3*
Y15978D3*
Y15781D3*
Y15584D3*
Y15387D3*
Y15190D3*
Y14993D3*
Y14796D3*
Y14600D3*
Y14403D3*
Y14206D3*
Y14009D3*
Y13812D3*
Y13615D3*
Y13418D3*
Y13222D3*
Y13025D3*
Y12828D3*
Y12631D3*
Y12434D3*
Y12237D3*
Y12041D3*
Y11844D3*
D56*
X28579Y11076D3*
X28382D3*
X28185D3*
X27988D3*
X27791D3*
X27594D3*
X27398D3*
X27201D3*
X27004D3*
X26807D3*
X26610D3*
X26413D3*
X26216D3*
X26020D3*
X25823D3*
X25626D3*
X25429D3*
X25232D3*
X25035D3*
X24838D3*
X24642D3*
X24445D3*
X24248D3*
X24051D3*
X23854D3*
X23657D3*
X23461D3*
X23264D3*
X23067D3*
X22870D3*
X22673D3*
X22476D3*
X22279D3*
X22083D3*
X21886D3*
X21689D3*
D54*
X20921Y11844D3*
Y12041D3*
Y12237D3*
Y12434D3*
Y12631D3*
Y12828D3*
Y13025D3*
Y13222D3*
Y13418D3*
Y13615D3*
Y13812D3*
Y14009D3*
Y14206D3*
Y14403D3*
Y14600D3*
Y14796D3*
Y14993D3*
Y15190D3*
Y15387D3*
Y15584D3*
Y15781D3*
Y15978D3*
Y16174D3*
Y16371D3*
Y16568D3*
Y16765D3*
Y16962D3*
Y17159D3*
Y17355D3*
Y17552D3*
Y17749D3*
Y17946D3*
Y18143D3*
Y18340D3*
Y18537D3*
Y18733D3*
D46*
X10250Y15438D3*
X10750D3*
X11250D3*
X11750D3*
X12250D3*
X12750D3*
X13250D3*
X13750D3*
X14250D3*
X14750D3*
X15250D3*
X15750D3*
X16250D3*
X16750D3*
Y11737D3*
X16250D3*
X15750D3*
X15250D3*
X14750D3*
X14250D3*
X13750D3*
X13250D3*
X12750D3*
X12250D3*
X11750D3*
X11250D3*
X10750D3*
X10250D3*
M02*
