G04 DipTrace 2.4.0.2*
%INBottomSilk.gbr*%
%MOIN*%
%ADD10C,0.0098*%
%ADD14C,0.0157*%
%ADD18C,0.0237*%
%ADD76C,0.0077*%
%FSLAX44Y44*%
G04*
G70*
G90*
G75*
G01*
%LNBotSilk*%
%LPD*%
D18*
X41991Y12812D3*
X33347Y12505D2*
D10*
G03X41340Y12486I3998J552D01*
G01*
X8317Y15940D2*
X8081D1*
X8317Y15311D2*
X8081D1*
X8242D2*
Y15940D1*
X8317Y15311D2*
Y15940D1*
Y14878D2*
X8081D1*
X8317Y14248D2*
X8081D1*
X8242D2*
Y14878D1*
X8317Y14248D2*
Y14878D1*
X21394Y19027D2*
X28874D1*
Y11550D1*
X21394D1*
Y19027D1*
D14*
X21472Y19500D3*
G36*
X21394Y19027D2*
X21906D1*
X21394Y18517D1*
Y19027D1*
G37*
X9918Y14848D2*
D10*
X17083D1*
X9918Y12328D2*
X17083D1*
Y14848D2*
Y12328D1*
X9918Y14848D2*
Y13903D1*
Y13273D2*
Y12328D1*
Y13903D2*
G02X9918Y13273I0J-315D01*
G01*
X37721Y13310D2*
D76*
Y12807D1*
X37505D1*
X37433Y12832D1*
X37410Y12856D1*
X37386Y12903D1*
Y12975D1*
X37410Y13023D1*
X37433Y13047D1*
X37505Y13070D1*
X37433Y13095D1*
X37410Y13119D1*
X37386Y13166D1*
Y13214D1*
X37410Y13262D1*
X37433Y13286D1*
X37505Y13310D1*
X37721D1*
Y13070D2*
X37505D1*
X37231Y13214D2*
X37183Y13238D1*
X37111Y13309D1*
Y12807D1*
X9071Y11751D2*
X9095Y11798D1*
X9143Y11846D1*
X9190Y11870D1*
X9286D1*
X9334Y11846D1*
X9382Y11798D1*
X9406Y11751D1*
X9430Y11679D1*
Y11559D1*
X9406Y11488D1*
X9382Y11440D1*
X9334Y11392D1*
X9286Y11368D1*
X9190D1*
X9143Y11392D1*
X9095Y11440D1*
X9071Y11488D1*
X8869Y11870D2*
X8606D1*
X8749Y11678D1*
X8677D1*
X8630Y11655D1*
X8606Y11631D1*
X8582Y11559D1*
Y11511D1*
X8606Y11440D1*
X8654Y11392D1*
X8725Y11368D1*
X8797D1*
X8869Y11392D1*
X8892Y11416D1*
X8917Y11463D1*
X16688Y10646D2*
X16640Y10669D1*
X16592Y10718D1*
X16568Y10765D1*
Y10861D1*
X16592Y10909D1*
X16640Y10956D1*
X16688Y10981D1*
X16760Y11004D1*
X16880D1*
X16951Y10981D1*
X16999Y10956D1*
X17047Y10909D1*
X17071Y10861D1*
Y10765D1*
X17047Y10718D1*
X16999Y10669D1*
X16951Y10646D1*
X17071Y10252D2*
X16569D1*
X16903Y10491D1*
Y10133D1*
X16688Y9309D2*
X16640Y9333D1*
X16592Y9381D1*
X16568Y9429D1*
Y9524D1*
X16592Y9572D1*
X16640Y9620D1*
X16688Y9644D1*
X16760Y9668D1*
X16880D1*
X16951Y9644D1*
X16999Y9620D1*
X17047Y9572D1*
X17071Y9524D1*
Y9429D1*
X17047Y9381D1*
X16999Y9333D1*
X16951Y9309D1*
X16569Y8868D2*
Y9107D1*
X16784Y9131D1*
X16760Y9107D1*
X16736Y9035D1*
Y8964D1*
X16760Y8892D1*
X16808Y8844D1*
X16880Y8820D1*
X16927D1*
X16999Y8844D1*
X17047Y8892D1*
X17071Y8964D1*
Y9035D1*
X17047Y9107D1*
X17023Y9131D1*
X16975Y9155D1*
X18625Y12009D2*
X18578Y12033D1*
X18530Y12081D1*
X18506Y12128D1*
Y12224D1*
X18530Y12272D1*
X18578Y12320D1*
X18625Y12344D1*
X18697Y12368D1*
X18817D1*
X18889Y12344D1*
X18937Y12320D1*
X18984Y12272D1*
X19008Y12224D1*
Y12128D1*
X18984Y12081D1*
X18937Y12033D1*
X18889Y12009D1*
X19008Y11759D2*
X18507Y11520D1*
Y11855D1*
X32234Y9429D2*
X32187Y9452D1*
X32139Y9500D1*
X32115Y9548D1*
Y9644D1*
X32139Y9692D1*
X32187Y9739D1*
X32234Y9763D1*
X32306Y9787D1*
X32426D1*
X32497Y9763D1*
X32546Y9739D1*
X32593Y9692D1*
X32617Y9644D1*
Y9548D1*
X32593Y9500D1*
X32546Y9452D1*
X32497Y9429D1*
X32282Y8963D2*
X32354Y8987D1*
X32402Y9035D1*
X32426Y9107D1*
Y9130D1*
X32402Y9202D1*
X32354Y9250D1*
X32282Y9274D1*
X32259D1*
X32187Y9250D1*
X32139Y9202D1*
X32116Y9130D1*
Y9107D1*
X32139Y9035D1*
X32187Y8987D1*
X32282Y8963D1*
X32402D1*
X32522Y8987D1*
X32594Y9035D1*
X32617Y9107D1*
Y9154D1*
X32594Y9226D1*
X32546Y9250D1*
X32252Y10834D2*
X32204Y10857D1*
X32156Y10905D1*
X32132Y10953D1*
Y11049D1*
X32156Y11097D1*
X32204Y11144D1*
X32252Y11168D1*
X32324Y11192D1*
X32444D1*
X32515Y11168D1*
X32563Y11144D1*
X32611Y11097D1*
X32635Y11049D1*
Y10953D1*
X32611Y10905D1*
X32563Y10857D1*
X32515Y10834D1*
X32229Y10679D2*
X32204Y10631D1*
X32133Y10559D1*
X32635D1*
X32133Y10261D2*
X32157Y10333D1*
X32229Y10381D1*
X32348Y10405D1*
X32420D1*
X32539Y10381D1*
X32611Y10333D1*
X32635Y10261D1*
Y10214D1*
X32611Y10142D1*
X32539Y10094D1*
X32420Y10070D1*
X32348D1*
X32229Y10094D1*
X32157Y10142D1*
X32133Y10214D1*
Y10261D1*
X32229Y10094D2*
X32539Y10381D1*
X20335Y9188D2*
X20358Y9236D1*
X20407Y9284D1*
X20454Y9307D1*
X20550D1*
X20598Y9284D1*
X20645Y9236D1*
X20670Y9188D1*
X20693Y9116D1*
Y8996D1*
X20670Y8925D1*
X20645Y8877D1*
X20598Y8829D1*
X20550Y8805D1*
X20454D1*
X20407Y8829D1*
X20358Y8877D1*
X20335Y8925D1*
X20180Y9211D2*
X20132Y9236D1*
X20060Y9307D1*
Y8805D1*
X19882Y9188D2*
Y9211D1*
X19858Y9259D1*
X19834Y9283D1*
X19786Y9307D1*
X19690D1*
X19643Y9283D1*
X19619Y9259D1*
X19595Y9211D1*
Y9164D1*
X19619Y9116D1*
X19667Y9044D1*
X19906Y8805D1*
X19571D1*
X34446Y8841D2*
X34470Y8889D1*
X34518Y8937D1*
X34566Y8961D1*
X34661D1*
X34709Y8937D1*
X34757Y8889D1*
X34781Y8841D1*
X34805Y8770D1*
Y8650D1*
X34781Y8578D1*
X34757Y8530D1*
X34709Y8483D1*
X34661Y8458D1*
X34566D1*
X34518Y8483D1*
X34470Y8530D1*
X34446Y8578D1*
X34292Y8865D2*
X34244Y8889D1*
X34172Y8960D1*
Y8458D1*
X33969Y8960D2*
X33707D1*
X33850Y8769D1*
X33778D1*
X33731Y8745D1*
X33707Y8721D1*
X33682Y8650D1*
Y8602D1*
X33707Y8530D1*
X33754Y8482D1*
X33826Y8458D1*
X33898D1*
X33969Y8482D1*
X33993Y8506D1*
X34017Y8554D1*
X7192Y15881D2*
Y15379D1*
X7025D1*
X6953Y15403D1*
X6905Y15451D1*
X6881Y15499D1*
X6857Y15570D1*
Y15690D1*
X6881Y15762D1*
X6905Y15810D1*
X6953Y15858D1*
X7025Y15881D1*
X7192D1*
X6703Y15785D2*
X6655Y15810D1*
X6583Y15881D1*
Y15379D1*
X7235Y14832D2*
Y14329D1*
X7067D1*
X6996Y14354D1*
X6947Y14401D1*
X6924Y14449D1*
X6900Y14521D1*
Y14640D1*
X6924Y14712D1*
X6947Y14760D1*
X6996Y14808D1*
X7067Y14832D1*
X7235D1*
X6721Y14712D2*
Y14736D1*
X6697Y14784D1*
X6674Y14807D1*
X6626Y14831D1*
X6530D1*
X6482Y14807D1*
X6459Y14784D1*
X6434Y14736D1*
Y14688D1*
X6459Y14640D1*
X6506Y14569D1*
X6746Y14329D1*
X6411D1*
X8185Y13756D2*
X7970D1*
X7899Y13781D1*
X7874Y13805D1*
X7850Y13852D1*
Y13900D1*
X7874Y13948D1*
X7899Y13972D1*
X7970Y13996D1*
X8185D1*
Y13493D1*
X8018Y13756D2*
X7850Y13493D1*
X7696Y13900D2*
X7648Y13924D1*
X7576Y13995D1*
Y13493D1*
X8293Y13006D2*
X8078D1*
X8006Y13031D1*
X7982Y13054D1*
X7958Y13102D1*
Y13150D1*
X7982Y13198D1*
X8006Y13222D1*
X8078Y13246D1*
X8293D1*
Y12743D1*
X8125Y13006D2*
X7958Y12743D1*
X7779Y13126D2*
Y13150D1*
X7755Y13198D1*
X7732Y13221D1*
X7684Y13245D1*
X7588D1*
X7540Y13221D1*
X7517Y13198D1*
X7492Y13150D1*
Y13102D1*
X7517Y13054D1*
X7564Y12983D1*
X7804Y12743D1*
X7469D1*
X20619Y9818D2*
X20404D1*
X20332Y9843D1*
X20308Y9866D1*
X20284Y9914D1*
Y9962D1*
X20308Y10009D1*
X20332Y10034D1*
X20404Y10058D1*
X20619D1*
Y9555D1*
X20451Y9818D2*
X20284Y9555D1*
X19890D2*
Y10057D1*
X20129Y9723D1*
X19771D1*
X22244Y8983D2*
Y8768D1*
X22220Y8696D1*
X22196Y8672D1*
X22148Y8648D1*
X22100D1*
X22053Y8672D1*
X22028Y8696D1*
X22005Y8768D1*
Y8983D1*
X22507D1*
X22244Y8816D2*
X22507Y8648D1*
X22076Y8207D2*
X22029Y8231D1*
X22005Y8303D1*
Y8350D1*
X22029Y8422D1*
X22101Y8470D1*
X22220Y8494D1*
X22339D1*
X22435Y8470D1*
X22483Y8422D1*
X22507Y8350D1*
Y8326D1*
X22483Y8255D1*
X22435Y8207D1*
X22363Y8183D1*
X22339D1*
X22268Y8207D1*
X22220Y8255D1*
X22196Y8326D1*
Y8350D1*
X22220Y8422D1*
X22268Y8470D1*
X22339Y8494D1*
X22869Y8969D2*
Y8754D1*
X22845Y8682D1*
X22821Y8658D1*
X22773Y8634D1*
X22725D1*
X22678Y8658D1*
X22653Y8682D1*
X22630Y8754D1*
Y8969D1*
X23132D1*
X22869Y8801D2*
X23132Y8634D1*
Y8384D2*
X22630Y8144D1*
Y8479D1*
X23496Y8968D2*
Y8753D1*
X23472Y8682D1*
X23448Y8657D1*
X23400Y8634D1*
X23352D1*
X23305Y8657D1*
X23280Y8682D1*
X23257Y8753D1*
Y8968D1*
X23759D1*
X23496Y8801D2*
X23759Y8634D1*
X23257Y8360D2*
X23281Y8431D1*
X23328Y8455D1*
X23377D1*
X23424Y8431D1*
X23448Y8384D1*
X23472Y8288D1*
X23496Y8216D1*
X23544Y8169D1*
X23592Y8145D1*
X23663D1*
X23711Y8169D1*
X23735Y8192D1*
X23759Y8264D1*
Y8360D1*
X23735Y8431D1*
X23711Y8455D1*
X23663Y8479D1*
X23592D1*
X23544Y8455D1*
X23496Y8407D1*
X23472Y8336D1*
X23448Y8240D1*
X23424Y8192D1*
X23377Y8169D1*
X23328D1*
X23281Y8192D1*
X23257Y8264D1*
Y8360D1*
X24121Y8957D2*
Y8742D1*
X24097Y8670D1*
X24073Y8646D1*
X24025Y8622D1*
X23977D1*
X23930Y8646D1*
X23905Y8670D1*
X23882Y8742D1*
Y8957D1*
X24384D1*
X24121Y8789D2*
X24384Y8622D1*
X24049Y8156D2*
X24121Y8181D1*
X24169Y8228D1*
X24193Y8300D1*
Y8324D1*
X24169Y8396D1*
X24121Y8443D1*
X24049Y8468D1*
X24025D1*
X23954Y8443D1*
X23906Y8396D1*
X23882Y8324D1*
Y8300D1*
X23906Y8228D1*
X23954Y8181D1*
X24049Y8156D1*
X24169D1*
X24288Y8181D1*
X24360Y8228D1*
X24384Y8300D1*
Y8348D1*
X24360Y8419D1*
X24312Y8443D1*
X24753Y8958D2*
Y8743D1*
X24728Y8672D1*
X24705Y8647D1*
X24657Y8623D1*
X24609D1*
X24561Y8647D1*
X24537Y8672D1*
X24513Y8743D1*
Y8958D1*
X25016D1*
X24753Y8791D2*
X25016Y8623D1*
X24610Y8469D2*
X24585Y8421D1*
X24514Y8349D1*
X25016D1*
X24514Y8051D2*
X24538Y8123D1*
X24610Y8171D1*
X24729Y8195D1*
X24801D1*
X24920Y8171D1*
X24992Y8123D1*
X25016Y8051D1*
Y8003D1*
X24992Y7932D1*
X24920Y7884D1*
X24801Y7860D1*
X24729D1*
X24610Y7884D1*
X24538Y7932D1*
X24514Y8003D1*
Y8051D1*
X24610Y7884D2*
X24920Y8171D1*
X25371Y8956D2*
Y8741D1*
X25347Y8669D1*
X25323Y8645D1*
X25275Y8621D1*
X25227D1*
X25180Y8645D1*
X25156Y8669D1*
X25132Y8741D1*
Y8956D1*
X25634D1*
X25371Y8788D2*
X25634Y8621D1*
X25228Y8467D2*
X25204Y8418D1*
X25132Y8347D1*
X25634D1*
X25228Y8192D2*
X25204Y8144D1*
X25132Y8072D1*
X25634D1*
X25438Y20548D2*
Y20190D1*
X25415Y20118D1*
X25367Y20070D1*
X25295Y20046D1*
X25247D1*
X25175Y20070D1*
X25127Y20118D1*
X25103Y20190D1*
Y20548D1*
X24949Y20452D2*
X24901Y20476D1*
X24829Y20548D1*
Y20046D1*
X13924Y16761D2*
Y16402D1*
X13900Y16330D1*
X13852Y16283D1*
X13780Y16259D1*
X13733D1*
X13661Y16283D1*
X13613Y16330D1*
X13589Y16402D1*
Y16761D1*
X13196Y16259D2*
Y16760D1*
X13435Y16426D1*
X13076D1*
M02*
