G04 DipTrace 2.4.0.2*
%INTopMask.gbr*%
%MOIN*%
%ADD42R,0.0236X0.0787*%
%ADD44R,0.0197X0.0866*%
%ADD48R,0.126X0.0197*%
%ADD50R,0.1358X0.0925*%
%ADD52R,0.0453X0.0925*%
%ADD54R,0.0709X0.0197*%
%ADD58R,0.0787X0.2638*%
%ADD60R,0.0709X0.0787*%
%ADD62R,0.0354X0.0433*%
%ADD64C,0.0709*%
%ADD66R,0.0709X0.0709*%
%ADD68R,0.0433X0.0354*%
%ADD70R,0.0866X0.1654*%
%ADD72C,0.0748*%
%ADD74R,0.0827X0.0827*%
%FSLAX44Y44*%
G04*
G70*
G90*
G75*
G01*
%LNTopMask*%
%LPD*%
D74*
X41378Y13063D3*
D72*
X33308D3*
D70*
X37363Y12543D3*
D68*
X8000Y17313D3*
X7488D3*
D66*
X8062Y9875D3*
D64*
X7062D3*
D68*
X25689Y17939D3*
X26201D3*
D62*
X22126Y15251D3*
Y15763D3*
D68*
X24400Y9500D3*
X24911D3*
D60*
X25189Y12188D3*
X24087D3*
D58*
X9186Y5399D3*
X10186D3*
X11186D3*
X12186D3*
X13186D3*
X14186D3*
X15186D3*
X16186D3*
X17186D3*
X18186D3*
X19186D3*
X20186D3*
X21186D3*
X22186D3*
X23186D3*
X24186D3*
X25186D3*
X26186D3*
X27186D3*
X28186D3*
X29186D3*
X30186D3*
X31186D3*
X32186D3*
X33186D3*
X34186D3*
X35186D3*
X36186D3*
X37186D3*
X38186D3*
G36*
X25628Y20813D2*
X26376D1*
Y20065D1*
X25628D1*
Y20813D1*
G37*
D72*
X27002Y20439D3*
X28002D3*
X29002D3*
X30002D3*
D68*
X24400Y10063D3*
X24911D3*
X24400Y10688D3*
X24911D3*
D52*
X6875Y14126D3*
X7780D3*
X8686D3*
D50*
X7780Y16409D3*
D48*
X10000Y18000D3*
Y17803D3*
Y17606D3*
Y17409D3*
Y17212D3*
Y17015D3*
Y16818D3*
Y16622D3*
Y16425D3*
Y16228D3*
Y16031D3*
Y15834D3*
Y15637D3*
Y15440D3*
Y15244D3*
Y15047D3*
Y14850D3*
Y14653D3*
Y14456D3*
Y14259D3*
Y14063D3*
Y13866D3*
Y13669D3*
Y13472D3*
Y13275D3*
Y13078D3*
Y12881D3*
Y12685D3*
X17559D3*
Y12881D3*
Y13078D3*
Y13275D3*
Y13472D3*
Y13669D3*
Y13866D3*
Y14063D3*
Y14259D3*
Y14456D3*
Y14653D3*
Y14850D3*
Y15047D3*
Y15244D3*
Y15440D3*
Y15637D3*
Y15834D3*
Y16031D3*
Y16228D3*
Y16425D3*
Y16622D3*
Y16818D3*
Y17015D3*
Y17212D3*
Y17409D3*
Y17606D3*
Y17803D3*
Y18000D3*
D54*
X23377Y16563D3*
Y16366D3*
Y16170D3*
Y15973D3*
Y15776D3*
Y15579D3*
Y15382D3*
Y15185D3*
Y14989D3*
Y14792D3*
Y14595D3*
Y14398D3*
Y14201D3*
Y14004D3*
Y13807D3*
Y13611D3*
X28573D3*
Y13807D3*
Y14004D3*
Y14201D3*
Y14398D3*
Y14595D3*
Y14792D3*
Y14989D3*
Y15185D3*
Y15382D3*
Y15579D3*
Y15776D3*
Y15973D3*
Y16170D3*
Y16366D3*
Y16563D3*
X31034Y13611D3*
Y13807D3*
Y14004D3*
Y14201D3*
Y14398D3*
Y14595D3*
Y14792D3*
Y14989D3*
Y15185D3*
Y15382D3*
Y15579D3*
Y15776D3*
Y15973D3*
Y16170D3*
Y16366D3*
Y16563D3*
D44*
X11125Y8687D3*
X11322D3*
X11518D3*
X11715D3*
X11912D3*
X12109D3*
X12306D3*
X12503D3*
X12700D3*
X12896D3*
X13093D3*
X13290D3*
X13487D3*
X13684D3*
X13881D3*
X14077D3*
X14274D3*
X14471D3*
X14668D3*
X14865D3*
X15062D3*
X15259D3*
X15455D3*
X15652D3*
Y11640D3*
X15455D3*
X15259D3*
X15062D3*
X14865D3*
X14668D3*
X14471D3*
X14274D3*
X14077D3*
X13881D3*
X13684D3*
X13487D3*
X13290D3*
X13093D3*
X12896D3*
X12700D3*
X12503D3*
X12306D3*
X12109D3*
X11912D3*
X11715D3*
X11518D3*
X11322D3*
X11125D3*
X26564Y8813D3*
X26761D3*
X26958D3*
X27155D3*
X27352D3*
X27549D3*
X27745D3*
X27942D3*
X28139D3*
X28336D3*
X28533D3*
X28730D3*
X28927D3*
X29123D3*
X29320D3*
X29517D3*
X29714D3*
X29911D3*
X30108D3*
X30305D3*
X30501D3*
X30698D3*
X30895D3*
X31092D3*
Y11765D3*
X30895D3*
X30698D3*
X30501D3*
X30305D3*
X30108D3*
X29911D3*
X29714D3*
X29517D3*
X29320D3*
X29123D3*
X28927D3*
X28730D3*
X28533D3*
X28336D3*
X28139D3*
X27942D3*
X27745D3*
X27549D3*
X27352D3*
X27155D3*
X26958D3*
X26761D3*
X26564D3*
D42*
X20001Y9188D3*
X20257D3*
X20513D3*
X20769D3*
X21025D3*
X21281D3*
X21537D3*
X21793D3*
X22048D3*
X22304D3*
X22560D3*
X22816D3*
Y11471D3*
X22560D3*
X22304D3*
X22048D3*
X21793D3*
X21537D3*
X21281D3*
X21025D3*
X20769D3*
X20513D3*
X20257D3*
X20001D3*
X32252Y9125D3*
X32508D3*
X32764D3*
X33020D3*
X33276D3*
X33532D3*
X33788D3*
X34044D3*
X34300D3*
X34556D3*
X34812D3*
X35067D3*
Y11409D3*
X34812D3*
X34556D3*
X34300D3*
X34044D3*
X33788D3*
X33532D3*
X33276D3*
X33020D3*
X32764D3*
X32508D3*
X32252D3*
M02*
