G04 DipTrace 4.0.0.4*
G04 TopMask.gbr*
%MOIN*%
G04 #@! TF.FileFunction,Soldermask,Top*
G04 #@! TF.Part,Single*
%AMOUTLINE1*
4,1,4,
0.025055,-0.002784,
0.002784,-0.025055,
-0.025055,0.002784,
-0.002784,0.025055,
0.025055,-0.002784,
0*%
%AMOUTLINE4*
4,1,4,
0.002784,0.025055,
0.025055,0.002784,
-0.002784,-0.025055,
-0.025055,-0.002784,
0.002784,0.025055,
0*%
%AMOUTLINE7*
4,1,4,
-0.025055,0.002784,
-0.002784,0.025055,
0.025055,-0.002784,
0.002784,-0.025055,
-0.025055,0.002784,
0*%
%AMOUTLINE10*
4,1,28,
-0.010365,0.03622,
0.010365,0.03622,
0.013298,0.035834,
0.01615,0.034653,
0.0186,0.032773,
0.02048,0.030323,
0.021661,0.027471,
0.022047,0.024538,
0.022047,-0.024538,
0.021661,-0.027471,
0.02048,-0.030323,
0.0186,-0.032773,
0.01615,-0.034653,
0.013298,-0.035834,
0.010365,-0.03622,
-0.010365,-0.03622,
-0.013298,-0.035834,
-0.01615,-0.034653,
-0.0186,-0.032773,
-0.02048,-0.030323,
-0.021661,-0.027471,
-0.022047,-0.024538,
-0.022047,0.024538,
-0.021661,0.027471,
-0.02048,0.030323,
-0.0186,0.032773,
-0.01615,0.034653,
-0.013298,0.035834,
-0.010365,0.03622,
0*%
%AMOUTLINE13*
4,1,28,
0.010365,-0.03622,
-0.010365,-0.03622,
-0.013298,-0.035834,
-0.01615,-0.034653,
-0.0186,-0.032773,
-0.02048,-0.030323,
-0.021661,-0.027471,
-0.022047,-0.024538,
-0.022047,0.024538,
-0.021661,0.027471,
-0.02048,0.030323,
-0.0186,0.032773,
-0.01615,0.034653,
-0.013298,0.035834,
-0.010365,0.03622,
0.010365,0.03622,
0.013298,0.035834,
0.01615,0.034653,
0.0186,0.032773,
0.02048,0.030323,
0.021661,0.027471,
0.022047,0.024538,
0.022047,-0.024538,
0.021661,-0.027471,
0.02048,-0.030323,
0.0186,-0.032773,
0.01615,-0.034653,
0.013298,-0.035834,
0.010365,-0.03622,
0*%
%AMOUTLINE16*
4,1,4,
0.018095,0.029231,
0.029231,0.018095,
-0.018095,-0.029231,
-0.029231,-0.018095,
0.018095,0.029231,
0*%
%AMOUTLINE19*
4,1,4,
0.029231,-0.018095,
0.018095,-0.029231,
-0.029231,0.018095,
-0.018095,0.029231,
0.029231,-0.018095,
0*%
%ADD22C,0.045354*%
%ADD23C,0.061102*%
%ADD43R,0.019685X0.074803*%
%ADD45R,0.015748X0.066929*%
%ADD47R,0.066929X0.015748*%
%ADD51R,0.015748X0.122047*%
%ADD53R,0.13189X0.088583*%
%ADD55R,0.041339X0.088583*%
%ADD57R,0.015937X0.023937*%
%ADD59C,0.070866*%
%ADD63R,0.070866X0.070866*%
%ADD65R,0.074803X0.259843*%
%ADD69R,0.03937X0.031496*%
%ADD71R,0.031496X0.03937*%
%ADD73R,0.047244X0.043307*%
%ADD81OUTLINE1*%
%ADD84OUTLINE4*%
%ADD87OUTLINE7*%
%ADD90OUTLINE10*%
%ADD93OUTLINE13*%
%ADD96OUTLINE16*%
%ADD99OUTLINE19*%
%FSLAX26Y26*%
G04*
G70*
G90*
G75*
G01*
G04 TopMask*
%LPD*%
D73*
X727165Y1574950D3*
X660236D3*
X545916D3*
X478987D3*
D71*
X949951Y1077088D3*
Y1128269D3*
Y1422812D3*
Y1371631D3*
X1599951Y1077882D3*
Y1129063D3*
Y1425541D3*
Y1374360D3*
X2899950Y1077992D3*
Y1129173D3*
Y1372978D3*
Y1424159D3*
X3543699Y1074360D3*
Y1125541D3*
Y1374360D3*
Y1425541D3*
D69*
X1096318Y2512806D3*
X1147499D3*
X2113042Y1099951D3*
X2061861D3*
X3556791Y956201D3*
X3505610D3*
X605610Y1306202D3*
X656791D3*
X3119291Y1924951D3*
X3068110D3*
X1856791Y2174950D3*
X1805610D3*
X1963042Y2318701D3*
X1911861D3*
D81*
X2174296Y2406855D3*
X2138106Y2443045D3*
D84*
X1949296Y1705547D3*
X1913106Y1669356D3*
D71*
X2037451Y1563042D3*
Y1511861D3*
X2199950Y1450541D3*
Y1399360D3*
D69*
X2686860Y2368701D3*
X2738041D3*
X2774361Y2287451D3*
X2825542D3*
X2911861Y2181201D3*
X2963042D3*
D87*
X2619356Y1443045D3*
X2655547Y1406855D3*
X2756856Y1580545D3*
X2793047Y1544355D3*
X2888106Y1718045D3*
X2924296Y1681855D3*
D90*
X2062106Y993701D3*
D93*
X2200295D3*
D23*
X499951Y2515576D3*
D3*
D22*
D3*
D23*
X4221825D3*
D3*
D22*
D3*
D23*
X499950Y937451D3*
D3*
D22*
D3*
D65*
X912450Y549951D3*
X1012450D3*
X1112450D3*
X1212450D3*
X1312450D3*
X1412450D3*
X1512450D3*
X1612450D3*
X1712450D3*
X1812450D3*
X1912450D3*
X2012450D3*
X2112450D3*
X2212450D3*
X2312450D3*
X2412450D3*
X2512450D3*
X2612450D3*
X2712450D3*
X2812450D3*
X2912450D3*
X3012450D3*
X3112450D3*
X3212450D3*
X3312450D3*
X3412450D3*
X3512450D3*
X3612450D3*
X3712450D3*
X3812450D3*
D63*
X3187450Y2549950D3*
D59*
X3087450D3*
X2987450D3*
X2887450D3*
X2787450D3*
X2687450D3*
D69*
X656791Y1374951D3*
X605610D3*
Y1243701D3*
X656791D3*
X2113042Y1174951D3*
X2061861D3*
D57*
X1049972Y939307D3*
Y974307D3*
X1072972Y939307D3*
Y974307D3*
X1095972Y939307D3*
Y974307D3*
X1118972Y939307D3*
Y974307D3*
X1162472Y939307D3*
Y974307D3*
X1185472Y939307D3*
Y974307D3*
X1208472Y939307D3*
Y974307D3*
X1231472Y939307D3*
Y974307D3*
X1274971Y939307D3*
Y974307D3*
X1297971Y939307D3*
Y974307D3*
X1320971Y939307D3*
Y974307D3*
X1343971Y939307D3*
Y974307D3*
X1387472Y939307D3*
Y974307D3*
X1410472Y939307D3*
Y974307D3*
X1433472Y939307D3*
Y974307D3*
X1456472Y939307D3*
Y974307D3*
X1727951Y938701D3*
Y973701D3*
X1750951Y938701D3*
Y973701D3*
X1773951Y938701D3*
Y973701D3*
X1796951Y938701D3*
Y973701D3*
X1852951Y938701D3*
Y973701D3*
X1875951Y938701D3*
Y973701D3*
X1898951Y938701D3*
Y973701D3*
X1921951Y938701D3*
Y973701D3*
X2990451Y944951D3*
Y979951D3*
X3013451Y944951D3*
Y979951D3*
X3036451Y944951D3*
Y979951D3*
X3059451Y944951D3*
Y979951D3*
X3102950Y944951D3*
Y979951D3*
X3125950Y944951D3*
Y979951D3*
X3148950Y944951D3*
Y979951D3*
X3171950Y944951D3*
Y979951D3*
X3215450Y944950D3*
Y979950D3*
X3238450Y944950D3*
Y979950D3*
X3261450Y944950D3*
Y979950D3*
X3284450Y944950D3*
Y979950D3*
X3327951Y944951D3*
Y979951D3*
X3350951Y944951D3*
Y979951D3*
X3373951Y944951D3*
Y979951D3*
X3396951Y944951D3*
Y979951D3*
X3671702Y944950D3*
Y979950D3*
X3694702Y944950D3*
Y979950D3*
X3717702Y944950D3*
Y979950D3*
X3740702Y944950D3*
Y979950D3*
X3784201Y944950D3*
Y979950D3*
X3807201Y944950D3*
Y979950D3*
X3830201Y944950D3*
Y979950D3*
X3853201Y944950D3*
Y979950D3*
X2359450Y973701D3*
Y938701D3*
X2336450Y973701D3*
Y938701D3*
X2313450Y973701D3*
Y938701D3*
X2290450Y973701D3*
Y938701D3*
X2534451Y973699D3*
Y938699D3*
X2511451Y973699D3*
Y938699D3*
X2488451Y973699D3*
Y938699D3*
X2465451Y973699D3*
Y938699D3*
D96*
X2953917Y1997987D3*
X2939998Y2011906D3*
X2926078Y2025825D3*
X2912159Y2039745D3*
X2898239Y2053664D3*
X2884320Y2067584D3*
X2870401Y2081503D3*
X2856481Y2095423D3*
X2842562Y2109342D3*
X2828642Y2123261D3*
X2814723Y2137181D3*
X2800803Y2151100D3*
X2786884Y2165020D3*
X2772965Y2178939D3*
X2759045Y2192858D3*
X2745126Y2206778D3*
X2731206Y2220697D3*
X2717287Y2234617D3*
X2703367Y2248536D3*
X2689448Y2262456D3*
X2675529Y2276375D3*
X2661609Y2290294D3*
X2647690Y2304214D3*
X2633770Y2318133D3*
X2619851Y2332053D3*
X2605931Y2345972D3*
X2592012Y2359892D3*
X2578093Y2373811D3*
X2564173Y2387730D3*
X2550254Y2401650D3*
X2536334Y2415569D3*
X2522415Y2429489D3*
X2508495Y2443408D3*
X2494576Y2457328D3*
X2480657Y2471247D3*
X2466737Y2485166D3*
D99*
X2358166D3*
X2344246Y2471247D3*
X2330327Y2457328D3*
X2316407Y2443408D3*
X2302488Y2429489D3*
X2288569Y2415569D3*
X2274649Y2401650D3*
X2260730Y2387730D3*
X2246810Y2373811D3*
X2232891Y2359892D3*
X2218971Y2345972D3*
X2205052Y2332053D3*
X2191133Y2318133D3*
X2177213Y2304214D3*
X2163294Y2290294D3*
X2149374Y2276375D3*
X2135455Y2262456D3*
X2121535Y2248536D3*
X2107616Y2234617D3*
X2093697Y2220697D3*
X2079777Y2206778D3*
X2065858Y2192858D3*
X2051938Y2178939D3*
X2038019Y2165020D3*
X2024099Y2151100D3*
X2010180Y2137181D3*
X1996261Y2123261D3*
X1982341Y2109342D3*
X1968422Y2095423D3*
X1954502Y2081503D3*
X1940583Y2067584D3*
X1926664Y2053664D3*
X1912744Y2039745D3*
X1898825Y2025825D3*
X1884905Y2011906D3*
X1870986Y1997987D3*
D96*
Y1889415D3*
X1884905Y1875496D3*
X1898825Y1861576D3*
X1912744Y1847657D3*
X1926664Y1833737D3*
X1940583Y1819818D3*
X1954502Y1805898D3*
X1968422Y1791979D3*
X1982341Y1778060D3*
X1996261Y1764140D3*
X2010180Y1750221D3*
X2024099Y1736301D3*
X2038019Y1722382D3*
X2051938Y1708463D3*
X2065858Y1694543D3*
X2079777Y1680624D3*
X2093697Y1666704D3*
X2107616Y1652785D3*
X2121535Y1638865D3*
X2135455Y1624946D3*
X2149374Y1611027D3*
X2163294Y1597107D3*
X2177213Y1583188D3*
X2191133Y1569268D3*
X2205052Y1555349D3*
X2218971Y1541429D3*
X2232891Y1527510D3*
X2246810Y1513591D3*
X2260730Y1499671D3*
X2274649Y1485752D3*
X2288569Y1471832D3*
X2302488Y1457913D3*
X2316407Y1443993D3*
X2330327Y1430074D3*
X2344246Y1416155D3*
X2358166Y1402235D3*
D99*
X2466737D3*
X2480657Y1416155D3*
X2494576Y1430074D3*
X2508495Y1443993D3*
X2522415Y1457913D3*
X2536334Y1471832D3*
X2550254Y1485752D3*
X2564173Y1499671D3*
X2578093Y1513591D3*
X2592012Y1527510D3*
X2605931Y1541429D3*
X2619851Y1555349D3*
X2633770Y1569268D3*
X2647690Y1583188D3*
X2661609Y1597107D3*
X2675529Y1611027D3*
X2689448Y1624946D3*
X2703367Y1638865D3*
X2717287Y1652785D3*
X2731206Y1666704D3*
X2745126Y1680624D3*
X2759045Y1694543D3*
X2772965Y1708463D3*
X2786884Y1722382D3*
X2800803Y1736301D3*
X2814723Y1750221D3*
X2828642Y1764140D3*
X2842562Y1778060D3*
X2856481Y1791979D3*
X2870401Y1805898D3*
X2884320Y1819818D3*
X2898239Y1833737D3*
X2912159Y1847657D3*
X2926078Y1861576D3*
X2939998Y1875496D3*
X2953917Y1889415D3*
D55*
X509400Y1754528D3*
X599951D3*
X690503D3*
D53*
X599951Y1982874D3*
D51*
X840453Y1615748D3*
X860138D3*
X879823D3*
X899508D3*
X919193D3*
X938878D3*
X958563D3*
X978248D3*
X997933D3*
X1017618D3*
X1037303D3*
X1056988D3*
X1076673D3*
X1096358D3*
X1116043D3*
X1135728D3*
X1155413D3*
X1175098D3*
X1194783D3*
X1214469D3*
X1234154D3*
X1253839D3*
X1273524D3*
X1293209D3*
X1312894D3*
X1332579D3*
X1352264D3*
X1371949D3*
Y2371654D3*
X1352264D3*
X1332579D3*
X1312894D3*
X1293209D3*
X1273524D3*
X1253839D3*
X1234154D3*
X1214469D3*
X1194783D3*
X1175098D3*
X1155413D3*
X1135728D3*
X1116043D3*
X1096358D3*
X1076673D3*
X1056988D3*
X1037303D3*
X1017618D3*
X997933D3*
X978248D3*
X958563D3*
X938878D3*
X919193D3*
X899508D3*
X879823D3*
X860138D3*
X840453D3*
D47*
X3229136Y2066211D3*
Y2046526D3*
Y2026841D3*
Y2007156D3*
Y1987471D3*
Y1967786D3*
Y1948101D3*
Y1928416D3*
Y1908731D3*
Y1889046D3*
Y1869361D3*
Y1849676D3*
Y1829991D3*
Y1810306D3*
Y1790621D3*
Y1770936D3*
X3748822D3*
Y1790621D3*
Y1810306D3*
Y1829991D3*
Y1849676D3*
Y1869361D3*
Y1889046D3*
Y1908731D3*
Y1928416D3*
Y1948101D3*
Y1967786D3*
Y1987471D3*
Y2007156D3*
Y2026841D3*
Y2046526D3*
Y2066211D3*
X3994885Y1770936D3*
Y1790621D3*
Y1810306D3*
Y1829991D3*
Y1849676D3*
Y1869361D3*
Y1889046D3*
Y1908731D3*
Y1928416D3*
Y1948101D3*
Y1967786D3*
Y1987471D3*
Y2007156D3*
Y2026841D3*
Y2046526D3*
Y2066211D3*
D45*
X1025556Y1106778D3*
X1045241D3*
X1064927D3*
X1084612D3*
X1104297D3*
X1123982D3*
X1143667D3*
X1163352D3*
X1183037D3*
X1202722D3*
X1222407D3*
X1242092D3*
X1261777D3*
X1281462D3*
X1301147D3*
X1320832D3*
X1340517D3*
X1360202D3*
X1379887D3*
X1399572D3*
X1419257D3*
X1438942D3*
X1458627D3*
X1478312D3*
Y1402054D3*
X1458627D3*
X1438942D3*
X1419257D3*
X1399572D3*
X1379887D3*
X1360202D3*
X1340517D3*
X1320832D3*
X1301147D3*
X1281462D3*
X1261777D3*
X1242092D3*
X1222407D3*
X1202722D3*
X1183037D3*
X1163352D3*
X1143667D3*
X1123982D3*
X1104297D3*
X1084612D3*
X1064927D3*
X1045241D3*
X1025556D3*
X2967323Y1102314D3*
X2987008D3*
X3006693D3*
X3026378D3*
X3046063D3*
X3065748D3*
X3085433D3*
X3105118D3*
X3124803D3*
X3144488D3*
X3164173D3*
X3183858D3*
X3203543D3*
X3223228D3*
X3242913D3*
X3262598D3*
X3282283D3*
X3301969D3*
X3321654D3*
X3341339D3*
X3361024D3*
X3380709D3*
X3400394D3*
X3420079D3*
Y1397589D3*
X3400394D3*
X3380709D3*
X3361024D3*
X3341339D3*
X3321654D3*
X3301969D3*
X3282283D3*
X3262598D3*
X3242913D3*
X3223228D3*
X3203543D3*
X3183858D3*
X3164173D3*
X3144488D3*
X3124803D3*
X3105118D3*
X3085433D3*
X3065748D3*
X3046063D3*
X3026378D3*
X3006693D3*
X2987008D3*
X2967323D3*
D43*
X1676050Y1147432D3*
X1701640D3*
X1727231D3*
X1752822D3*
X1778412D3*
X1804003D3*
X1829593D3*
X1855184D3*
X1880774D3*
X1906365D3*
X1931955D3*
X1957546D3*
Y1375786D3*
X1931955Y1375778D3*
X1906365D3*
X1880774D3*
X1855184D3*
X1829593D3*
X1804003D3*
X1778412D3*
X1752822D3*
X1727231D3*
X1701640D3*
X1676050D3*
X3615453Y1142024D3*
X3641043D3*
X3666634D3*
X3692224D3*
X3717815D3*
X3743406D3*
X3768996D3*
X3794587D3*
X3820177D3*
X3845768D3*
X3871358D3*
X3896949D3*
Y1370378D3*
X3871358Y1370370D3*
X3845768D3*
X3820177D3*
X3794587D3*
X3768996D3*
X3743406D3*
X3717815D3*
X3692224D3*
X3666634D3*
X3641043D3*
X3615453D3*
M02*
