G04 DipTrace 4.0.0.4*
G04 TopPaste.gbr*
%MOIN*%
G04 #@! TF.FileFunction,Paste,Top*
G04 #@! TF.Part,Single*
%AMOUTLINE2*
4,1,28,
-0.010107,0.032283,
0.010107,0.032283,
0.01227,0.031999,
0.014165,0.031214,
0.015792,0.029965,
0.017041,0.028338,
0.017826,0.026443,
0.01811,0.02428,
0.01811,-0.02428,
0.017826,-0.026443,
0.017041,-0.028338,
0.015792,-0.029965,
0.014165,-0.031214,
0.01227,-0.031999,
0.010107,-0.032283,
-0.010107,-0.032283,
-0.01227,-0.031999,
-0.014165,-0.031214,
-0.015792,-0.029965,
-0.017041,-0.028338,
-0.017826,-0.026443,
-0.01811,-0.02428,
-0.01811,0.02428,
-0.017826,0.026443,
-0.017041,0.028338,
-0.015792,0.029965,
-0.014165,0.031214,
-0.01227,0.031999,
-0.010107,0.032283,
0*%
%AMOUTLINE5*
4,1,28,
0.010107,-0.032283,
-0.010107,-0.032283,
-0.01227,-0.031999,
-0.014165,-0.031214,
-0.015792,-0.029965,
-0.017041,-0.028338,
-0.017826,-0.026443,
-0.01811,-0.02428,
-0.01811,0.02428,
-0.017826,0.026443,
-0.017041,0.028338,
-0.015792,0.029965,
-0.014165,0.031214,
-0.01227,0.031999,
-0.010107,0.032283,
0.010107,0.032283,
0.01227,0.031999,
0.014165,0.031214,
0.015792,0.029965,
0.017041,0.028338,
0.017826,0.026443,
0.01811,0.02428,
0.01811,-0.02428,
0.017826,-0.026443,
0.017041,-0.028338,
0.015792,-0.029965,
0.014165,-0.031214,
0.01227,-0.031999,
0.010107,-0.032283,
0*%
%ADD24C,0.029606*%
%ADD46R,0.124016X0.080709*%
%ADD48R,0.033465X0.080709*%
%ADD52R,0.059055X0.007874*%
%ADD54R,0.007874X0.059055*%
%ADD56R,0.007874X0.015748*%
%ADD58R,0.011811X0.015748*%
%ADD70R,0.023622X0.031496*%
%ADD72R,0.031496X0.023622*%
%ADD74R,0.03937X0.035433*%
%ADD82OUTLINE2*%
%ADD85OUTLINE5*%
%FSLAX26Y26*%
G04*
G70*
G90*
G75*
G01*
G04 TopPaste*
%LPD*%
D74*
X545916Y1303076D3*
X478987D3*
X727165D3*
X660236D3*
D72*
X2213041Y1081201D3*
X2161860D3*
X3556791Y956201D3*
X3505610D3*
D70*
X3493701Y2196235D3*
Y2247416D3*
D72*
X2316167Y2353076D3*
X2264986D3*
X2427484D3*
X2478665D3*
X2644291D3*
X2593110D3*
X3896235Y2178075D3*
X3947416D3*
X2989984Y2043701D3*
X3041165D3*
X1906791Y2037451D3*
X1855610D3*
X1746235Y1987451D3*
X1797416D3*
D70*
X3053076Y1941167D3*
Y1889986D3*
X2934325Y1849360D3*
Y1900541D3*
D72*
X1953667Y1843701D3*
X1902486D3*
X1746235Y1728076D3*
X1797416D3*
X1934916Y1665576D3*
X1883735D3*
D70*
X3040576Y1647416D3*
Y1596235D3*
X949951Y1377881D3*
Y1429062D3*
X2899950Y1372978D3*
Y1424159D3*
D72*
X2286861Y1353076D3*
X2338042D3*
D70*
X2418701Y1306791D3*
Y1255610D3*
X2618701Y1281791D3*
Y1230610D3*
X949951Y1165769D3*
Y1114588D3*
X2899950Y1157298D3*
Y1106117D3*
D82*
X2077731Y996825D3*
D85*
X2215920D3*
D24*
X499951Y2415577D3*
X4221825D3*
X499950Y931201D3*
D70*
X3368701Y2196235D3*
Y2247416D3*
X3431189Y2196238D3*
Y2247419D3*
D72*
X2213041Y1137451D3*
X2161860D3*
D58*
X1052976Y970587D3*
D56*
X1074630D3*
X1094315D3*
D58*
X1115969D3*
X1052976Y943028D3*
D56*
X1074630D3*
X1094315D3*
D58*
X1115969D3*
X1165476Y970587D3*
D56*
X1187130D3*
X1206815D3*
D58*
X1228469D3*
X1165476Y943028D3*
D56*
X1187130D3*
X1206815D3*
D58*
X1228469D3*
X1277975Y970587D3*
D56*
X1299629D3*
X1319314D3*
D58*
X1340967D3*
X1277975Y943028D3*
D56*
X1299629D3*
X1319314D3*
D58*
X1340967D3*
X1390476Y970587D3*
D56*
X1412130D3*
X1431815D3*
D58*
X1453469D3*
X1390476Y943028D3*
D56*
X1412130D3*
X1431815D3*
D58*
X1453469D3*
X1730945Y970591D3*
D56*
X1752598D3*
X1772283D3*
D58*
X1793937D3*
X1730945Y943031D3*
D56*
X1752598D3*
X1772283D3*
D58*
X1793937D3*
X1855945Y970591D3*
D56*
X1877598D3*
X1897283D3*
D58*
X1918937D3*
X1855945Y943031D3*
D56*
X1877598D3*
X1897283D3*
D58*
X1918937D3*
X2293465Y970591D3*
D56*
X2315118D3*
X2334803D3*
D58*
X2356457D3*
X2293465Y943031D3*
D56*
X2315118D3*
X2334803D3*
D58*
X2356457D3*
X2468465Y970591D3*
D56*
X2490118D3*
X2509803D3*
D58*
X2531457D3*
X2468465Y943031D3*
D56*
X2490118D3*
X2509803D3*
D58*
X2531457D3*
X2993465Y970591D3*
D56*
X3015118D3*
X3034803D3*
D58*
X3056457D3*
X2993465Y943031D3*
D56*
X3015118D3*
X3034803D3*
D58*
X3056457D3*
X3105945Y970591D3*
D56*
X3127598D3*
X3147283D3*
D58*
X3168937D3*
X3105945Y943031D3*
D56*
X3127598D3*
X3147283D3*
D58*
X3168937D3*
X3218465Y970591D3*
D56*
X3240118D3*
X3259803D3*
D58*
X3281457D3*
X3218465Y943031D3*
D56*
X3240118D3*
X3259803D3*
D58*
X3281457D3*
X3330945Y970591D3*
D56*
X3352598D3*
X3372283D3*
D58*
X3393937D3*
X3330945Y943031D3*
D56*
X3352598D3*
X3372283D3*
D58*
X3393937D3*
X3674724Y970591D3*
D56*
X3696378D3*
X3716063D3*
D58*
X3737717D3*
X3674724Y943031D3*
D56*
X3696378D3*
X3716063D3*
D58*
X3737717D3*
X3787205Y970591D3*
D56*
X3808858D3*
X3828543D3*
D58*
X3850197D3*
X3787205Y943031D3*
D56*
X3808858D3*
X3828543D3*
D58*
X3850197D3*
D54*
X2785064Y2286836D3*
X2765379D3*
X2745694D3*
X2726009D3*
X2706324D3*
X2686639D3*
X2666954D3*
X2647269D3*
X2627584D3*
X2607899D3*
X2588214D3*
X2568529D3*
X2548844D3*
X2529159D3*
X2509474D3*
X2489789D3*
X2470104D3*
X2450419D3*
X2430734D3*
X2411049D3*
X2391364D3*
X2371678D3*
X2351993D3*
X2332308D3*
X2312623D3*
X2292938D3*
X2273253D3*
X2253568D3*
X2233883D3*
X2214198D3*
X2194513D3*
X2174828D3*
X2155143D3*
X2135458D3*
X2115773D3*
X2096088D3*
D52*
X2019316Y2210064D3*
Y2190379D3*
Y2170694D3*
Y2151009D3*
Y2131324D3*
Y2111639D3*
Y2091954D3*
Y2072269D3*
Y2052584D3*
Y2032899D3*
Y2013214D3*
Y1993529D3*
Y1973844D3*
Y1954159D3*
Y1934474D3*
Y1914789D3*
Y1895104D3*
Y1875419D3*
Y1855734D3*
Y1836049D3*
Y1816364D3*
Y1796678D3*
Y1776993D3*
Y1757308D3*
Y1737623D3*
Y1717938D3*
Y1698253D3*
Y1678568D3*
Y1658883D3*
Y1639198D3*
Y1619513D3*
Y1599828D3*
Y1580143D3*
Y1560458D3*
Y1540773D3*
Y1521088D3*
D54*
X2096088Y1444316D3*
X2115773D3*
X2135458D3*
X2155143D3*
X2174828D3*
X2194513D3*
X2214198D3*
X2233883D3*
X2253568D3*
X2273253D3*
X2292938D3*
X2312623D3*
X2332308D3*
X2351993D3*
X2371678D3*
X2391364D3*
X2411049D3*
X2430734D3*
X2450419D3*
X2470104D3*
X2489789D3*
X2509474D3*
X2529159D3*
X2548844D3*
X2568529D3*
X2588214D3*
X2607899D3*
X2627584D3*
X2647269D3*
X2666954D3*
X2686639D3*
X2706324D3*
X2726009D3*
X2745694D3*
X2765379D3*
X2785064D3*
D52*
X2861836Y1521088D3*
Y1540773D3*
Y1560458D3*
Y1580143D3*
Y1599828D3*
Y1619513D3*
Y1639198D3*
Y1658883D3*
Y1678568D3*
Y1698253D3*
Y1717938D3*
Y1737623D3*
Y1757308D3*
Y1776993D3*
Y1796678D3*
Y1816364D3*
Y1836049D3*
Y1855734D3*
Y1875419D3*
Y1895104D3*
Y1914789D3*
Y1934474D3*
Y1954159D3*
Y1973844D3*
Y1993529D3*
Y2013214D3*
Y2032899D3*
Y2052584D3*
Y2072269D3*
Y2091954D3*
Y2111639D3*
Y2131324D3*
Y2151009D3*
Y2170694D3*
Y2190379D3*
Y2210064D3*
X3229136Y2066211D3*
Y2046526D3*
Y2026841D3*
Y2007156D3*
Y1987471D3*
Y1967786D3*
Y1948101D3*
Y1928416D3*
Y1908731D3*
Y1889046D3*
Y1869361D3*
Y1849676D3*
Y1829991D3*
Y1810306D3*
Y1790621D3*
Y1770936D3*
X3994885D3*
Y1790621D3*
Y1810306D3*
Y1829991D3*
Y1849676D3*
Y1869361D3*
Y1889046D3*
Y1908731D3*
Y1928416D3*
Y1948101D3*
Y1967786D3*
Y1987471D3*
Y2007156D3*
Y2026841D3*
Y2046526D3*
Y2066211D3*
D48*
X509400Y1467980D3*
X599951D3*
X690503D3*
D46*
X599951Y1696327D3*
D54*
X1025556Y1106778D3*
X1045241D3*
X1064927D3*
X1084612D3*
X1104297D3*
X1123982D3*
X1143667D3*
X1163352D3*
X1183037D3*
X1202722D3*
X1222407D3*
X1242092D3*
X1261777D3*
X1281462D3*
X1301147D3*
X1320832D3*
X1340517D3*
X1360202D3*
X1379887D3*
X1399572D3*
X1419257D3*
X1438942D3*
X1458627D3*
X1478312D3*
Y1402054D3*
X1458627D3*
X1438942D3*
X1419257D3*
X1399572D3*
X1379887D3*
X1360202D3*
X1340517D3*
X1320832D3*
X1301147D3*
X1281462D3*
X1261777D3*
X1242092D3*
X1222407D3*
X1202722D3*
X1183037D3*
X1163352D3*
X1143667D3*
X1123982D3*
X1104297D3*
X1084612D3*
X1064927D3*
X1045241D3*
X1025556D3*
X2967323Y1106772D3*
X2987008D3*
X3006693D3*
X3026378D3*
X3046063D3*
X3065748D3*
X3085433D3*
X3105118D3*
X3124803D3*
X3144488D3*
X3164173D3*
X3183858D3*
X3203543D3*
X3223228D3*
X3242913D3*
X3262598D3*
X3282283D3*
X3301969D3*
X3321654D3*
X3341339D3*
X3361024D3*
X3380709D3*
X3400394D3*
X3420079D3*
Y1402047D3*
X3400394D3*
X3380709D3*
X3361024D3*
X3341339D3*
X3321654D3*
X3301969D3*
X3282283D3*
X3262598D3*
X3242913D3*
X3223228D3*
X3203543D3*
X3183858D3*
X3164173D3*
X3144488D3*
X3124803D3*
X3105118D3*
X3085433D3*
X3065748D3*
X3046063D3*
X3026378D3*
X3006693D3*
X2987008D3*
X2967323D3*
M02*
