G04 DipTrace 4.0.0.4*
G04 TopSilk.gbr*
%MOIN*%
G04 #@! TF.FileFunction,Legend,Top*
G04 #@! TF.Part,Single*
%ADD10C,0.009843*%
%ADD13C,0.004724*%
%ADD29C,0.003937*%
%ADD75C,0.00772*%
%ADD76C,0.009264*%
%ADD78C,0.010936*%
%FSLAX26Y26*%
G04*
G70*
G90*
G75*
G01*
G04 TopSilk*
%LPD*%
X2188951Y1028322D2*
D13*
X2104699D1*
X2188951Y965329D2*
X2104699D1*
X2050369Y1028715D2*
Y964936D1*
X1037524Y986541D2*
D29*
Y927073D1*
X1131421D1*
Y986541D1*
X1037524D1*
X1150024D2*
Y927073D1*
X1243921D1*
Y986541D1*
X1150024D1*
X1262522D2*
Y927073D1*
X1356420D1*
Y986541D1*
X1262522D1*
X1375024D2*
Y927073D1*
X1468921D1*
Y986541D1*
X1375024D1*
X1715492Y986545D2*
Y927077D1*
X1809390D1*
Y986545D1*
X1715492D1*
X1840492D2*
Y927077D1*
X1934390D1*
Y986545D1*
X1840492D1*
X2278012D2*
Y927077D1*
X2371909D1*
Y986545D1*
X2278012D1*
X2453012D2*
Y927077D1*
X2546909D1*
Y986545D1*
X2453012D1*
X2978012D2*
Y927077D1*
X3071909D1*
Y986545D1*
X2978012D1*
X3090492D2*
Y927077D1*
X3184390D1*
Y986545D1*
X3090492D1*
X3203012D2*
Y927077D1*
X3296909D1*
Y986545D1*
X3203012D1*
X3315492D2*
Y927077D1*
X3409390D1*
Y986545D1*
X3315492D1*
X3659272D2*
Y927077D1*
X3753169D1*
Y986545D1*
X3659272D1*
X3771752D2*
Y927077D1*
X3865650D1*
Y986545D1*
X3771752D1*
X2814552Y2239462D2*
D10*
X2066600D1*
Y1491690D1*
X2814552D1*
Y2239462D1*
G36*
X2798887Y2286775D2*
X2798954Y2287797D1*
X2799154Y2288802D1*
X2799483Y2289772D1*
X2799937Y2290691D1*
X2800506Y2291543D1*
X2801181Y2292313D1*
X2801952Y2292989D1*
X2802803Y2293558D1*
X2803722Y2294011D1*
X2804693Y2294341D1*
X2805697Y2294541D1*
X2806720Y2294608D1*
X2807742Y2294541D1*
X2808747Y2294341D1*
X2809717Y2294011D1*
X2810636Y2293558D1*
X2811488Y2292989D1*
X2812258Y2292313D1*
X2812934Y2291543D1*
X2813503Y2290691D1*
X2813956Y2289772D1*
X2814286Y2288802D1*
X2814485Y2287797D1*
X2814552Y2286775D1*
Y2286684D1*
X2814485Y2285662D1*
X2814286Y2284657D1*
X2813956Y2283687D1*
X2813503Y2282768D1*
X2812934Y2281916D1*
X2812258Y2281146D1*
X2811488Y2280470D1*
X2810636Y2279901D1*
X2809717Y2279448D1*
X2808747Y2279119D1*
X2807742Y2278919D1*
X2806720Y2278852D1*
X2805697Y2278919D1*
X2804693Y2279119D1*
X2803722Y2279448D1*
X2802803Y2279901D1*
X2801952Y2280470D1*
X2801181Y2281146D1*
X2800506Y2281916D1*
X2799937Y2282768D1*
X2799483Y2283687D1*
X2799154Y2284657D1*
X2798954Y2285662D1*
X2798887Y2286684D1*
Y2286775D1*
G37*
G36*
X2814552Y2239462D2*
X2763391D1*
X2814552Y2188391D1*
Y2239462D1*
G37*
X916186Y2259930D2*
D10*
Y1708720D1*
X1577467D1*
Y2259930D1*
X1270425D1*
X916186D2*
X1223228D1*
G03X1270425Y2259930I23598J-49D01*
G01*
X3698862Y1751238D2*
Y2085902D1*
X3701597Y2095753D2*
X3512562D1*
X3465407D2*
G03X3512562Y2095753I23577J-5634D01*
G01*
X3278360D2*
X3278277Y1743937D1*
X3278360Y1741386D2*
X3947650D1*
X3947899Y1744220D2*
X3947650Y2095753D1*
X3648475D1*
X3577535D2*
X3278360D1*
X3577535D2*
G03X3648475Y2095753I35470J33D01*
G01*
G36*
X478773Y1437773D2*
X478707Y1436768D1*
X478511Y1435780D1*
X478187Y1434825D1*
X477741Y1433922D1*
X477181Y1433084D1*
X476517Y1432327D1*
X475760Y1431662D1*
X474922Y1431103D1*
X474018Y1430657D1*
X473064Y1430333D1*
X472076Y1430137D1*
X471071Y1430071D1*
X470066Y1430137D1*
X469077Y1430333D1*
X468123Y1430657D1*
X467220Y1431103D1*
X466382Y1431662D1*
X465625Y1432327D1*
X464960Y1433084D1*
X464401Y1433922D1*
X463955Y1434826D1*
X463631Y1435780D1*
X463435Y1436768D1*
X463369Y1437773D1*
Y1437799D1*
X463435Y1438805D1*
X463631Y1439793D1*
X463955Y1440747D1*
X464401Y1441650D1*
X464960Y1442488D1*
X465625Y1443245D1*
X466382Y1443910D1*
X467220Y1444469D1*
X468123Y1444915D1*
X469077Y1445239D1*
X470066Y1445435D1*
X471071Y1445501D1*
X472076Y1445435D1*
X473064Y1445239D1*
X474018Y1444915D1*
X474922Y1444469D1*
X475760Y1443910D1*
X476517Y1443245D1*
X477181Y1442488D1*
X477741Y1441650D1*
X478187Y1440747D1*
X478511Y1439793D1*
X478707Y1438805D1*
X478773Y1437799D1*
Y1437773D1*
G37*
X470031Y1527035D2*
D10*
X729862D1*
X470031Y1637272D2*
X729862D1*
Y1527035D2*
Y1637272D1*
X470031Y1527035D2*
Y1637272D1*
X1003912Y1156000D2*
X1499957D1*
Y1352832D1*
X1003912D1*
Y1274085D1*
Y1156000D2*
Y1234747D1*
G03X1003912Y1274085I24J19669D01*
G01*
X2945678Y1155993D2*
X3441723D1*
Y1352825D1*
X2945678D1*
Y1274079D1*
Y1155993D2*
Y1234740D1*
G03X2945678Y1274079I24J19669D01*
G01*
X885833Y760850D2*
D76*
Y700562D1*
X905929D1*
X914551Y703481D1*
X920321Y709184D1*
X923173Y714955D1*
X926025Y723510D1*
Y737902D1*
X923173Y746524D1*
X920321Y752228D1*
X914551Y757998D1*
X905929Y760850D1*
X885833D1*
X981825D2*
X944552D1*
Y700562D1*
X981825D1*
X944552Y732132D2*
X967500D1*
X1040545Y752228D2*
X1034841Y757998D1*
X1026219Y760850D1*
X1014745D1*
X1006123Y757998D1*
X1000353Y752228D1*
Y746524D1*
X1003271Y740754D1*
X1006123Y737902D1*
X1011826Y735051D1*
X1029071Y729280D1*
X1034841Y726428D1*
X1037693Y723510D1*
X1040545Y717806D1*
Y709184D1*
X1034841Y703481D1*
X1026219Y700562D1*
X1014745D1*
X1006123Y703481D1*
X1000353Y709184D1*
X1059072Y760850D2*
Y700562D1*
X1120643Y746524D2*
X1117791Y752228D1*
X1112021Y757998D1*
X1106317Y760850D1*
X1094843D1*
X1089073Y757998D1*
X1083369Y752228D1*
X1080451Y746524D1*
X1077599Y737902D1*
Y723510D1*
X1080451Y714955D1*
X1083369Y709184D1*
X1089073Y703481D1*
X1094843Y700562D1*
X1106317D1*
X1112021Y703481D1*
X1117791Y709184D1*
X1120643Y714955D1*
Y723510D1*
X1106317D1*
X1179362Y760850D2*
Y700562D1*
X1139170Y760850D1*
Y700562D1*
X1235163Y760850D2*
X1197889D1*
Y700562D1*
X1235163D1*
X1197889Y732132D2*
X1220837D1*
X1253690Y760850D2*
Y700562D1*
X1273786D1*
X1282408Y703481D1*
X1288178Y709184D1*
X1291030Y714955D1*
X1293882Y723510D1*
Y737902D1*
X1291030Y746524D1*
X1288178Y752228D1*
X1282408Y757998D1*
X1273786Y760850D1*
X1253690D1*
X1370730D2*
Y700562D1*
X1429449Y760850D2*
Y700562D1*
X1389257Y760850D1*
Y700562D1*
X1506297Y732132D2*
X1532097D1*
X1540719Y735051D1*
X1543637Y737902D1*
X1546489Y743606D1*
Y749376D1*
X1543637Y755080D1*
X1540719Y757998D1*
X1532097Y760850D1*
X1506297D1*
Y700562D1*
X1526393Y732132D2*
X1546489Y700562D1*
X1565016Y760850D2*
Y717806D1*
X1567868Y709184D1*
X1573638Y703481D1*
X1582261Y700562D1*
X1587964D1*
X1596586Y703481D1*
X1602357Y709184D1*
X1605208Y717806D1*
Y760850D1*
X1663928Y752228D2*
X1658224Y757998D1*
X1649602Y760850D1*
X1638128D1*
X1629506Y757998D1*
X1623736Y752228D1*
Y746524D1*
X1626654Y740754D1*
X1629506Y737902D1*
X1635209Y735051D1*
X1652454Y729280D1*
X1658224Y726428D1*
X1661076Y723510D1*
X1663928Y717806D1*
Y709184D1*
X1658224Y703481D1*
X1649602Y700562D1*
X1638128D1*
X1629506Y703481D1*
X1623736Y709184D1*
X1722647Y752228D2*
X1716943Y757998D1*
X1708321Y760850D1*
X1696847D1*
X1688225Y757998D1*
X1682455Y752228D1*
Y746524D1*
X1685373Y740754D1*
X1688225Y737902D1*
X1693929Y735051D1*
X1711173Y729280D1*
X1716943Y726428D1*
X1719795Y723510D1*
X1722647Y717806D1*
Y709184D1*
X1716943Y703481D1*
X1708321Y700562D1*
X1696847D1*
X1688225Y703481D1*
X1682455Y709184D1*
X1741174Y760850D2*
Y700562D1*
X1805663D2*
X1782649Y760850D1*
X1759701Y700562D1*
X1768323Y720658D2*
X1797041D1*
X3166378Y746526D2*
X3163526Y752230D1*
X3157756Y758000D1*
X3152052Y760852D1*
X3140578D1*
X3134808Y758000D1*
X3129104Y752230D1*
X3126186Y746526D1*
X3123334Y737904D1*
Y723512D1*
X3126186Y714956D1*
X3129104Y709186D1*
X3134808Y703482D1*
X3140578Y700564D1*
X3152052D1*
X3157756Y703482D1*
X3163526Y709186D1*
X3166378Y714956D1*
X3184905Y760852D2*
Y700564D1*
X3219327D1*
X3237854Y760852D2*
Y717808D1*
X3240706Y709186D1*
X3246476Y703482D1*
X3255098Y700564D1*
X3260802D1*
X3269424Y703482D1*
X3275194Y709186D1*
X3278046Y717808D1*
Y760852D1*
X3336765Y752230D2*
X3331061Y758000D1*
X3322439Y760852D1*
X3310965D1*
X3302343Y758000D1*
X3296573Y752230D1*
Y746526D1*
X3299491Y740756D1*
X3302343Y737904D1*
X3308047Y735052D1*
X3325291Y729282D1*
X3331061Y726430D1*
X3333913Y723512D1*
X3336765Y717808D1*
Y709186D1*
X3331061Y703482D1*
X3322439Y700564D1*
X3310965D1*
X3302343Y703482D1*
X3296573Y709186D1*
X3375388Y760852D2*
Y700564D1*
X3355292Y760852D2*
X3395484D1*
X3451285D2*
X3414011D1*
Y700564D1*
X3451285D1*
X3414011Y732134D2*
X3436959D1*
X3469812D2*
X3495612D1*
X3504234Y735052D1*
X3507152Y737904D1*
X3510004Y743608D1*
Y749378D1*
X3507152Y755082D1*
X3504234Y758000D1*
X3495612Y760852D1*
X3469812D1*
Y700564D1*
X3489908Y732134D2*
X3510004Y700564D1*
X3528531Y732134D2*
X3554331D1*
X3562953Y735052D1*
X3565871Y737904D1*
X3568723Y743608D1*
Y749378D1*
X3565871Y755082D1*
X3562953Y758000D1*
X3554331Y760852D1*
X3528531D1*
Y700564D1*
X3548627Y732134D2*
X3568723Y700564D1*
X3587250Y732134D2*
X3613050D1*
X3621672Y735052D1*
X3624590Y737904D1*
X3627442Y743608D1*
Y749378D1*
X3624590Y755082D1*
X3621672Y758000D1*
X3613050Y760852D1*
X3587250D1*
Y700564D1*
X3607346Y732134D2*
X3627442Y700564D1*
X3648821Y706334D2*
X3645969Y703416D1*
X3648821Y700564D1*
X3651739Y703416D1*
X3648821Y706334D1*
X3713310Y746526D2*
X3710459Y752230D1*
X3704688Y758000D1*
X3698985Y760852D1*
X3687511D1*
X3681741Y758000D1*
X3676037Y752230D1*
X3673118Y746526D1*
X3670267Y737904D1*
Y723512D1*
X3673118Y714956D1*
X3676037Y709186D1*
X3681741Y703482D1*
X3687511Y700564D1*
X3698985D1*
X3704688Y703482D1*
X3710459Y709186D1*
X3713310Y714956D1*
X3749082Y760852D2*
X3743312Y758000D1*
X3737608Y752230D1*
X3734689Y746526D1*
X3731838Y737904D1*
Y723512D1*
X3734689Y714956D1*
X3737608Y709186D1*
X3743312Y703482D1*
X3749082Y700564D1*
X3760556D1*
X3766259Y703482D1*
X3772030Y709186D1*
X3774881Y714956D1*
X3777733Y723512D1*
Y737904D1*
X3774881Y746526D1*
X3772030Y752230D1*
X3766259Y758000D1*
X3760556Y760852D1*
X3749082D1*
X3842156Y700564D2*
Y760852D1*
X3819208Y700564D1*
X3796260Y760852D1*
Y700564D1*
X639682Y2446056D2*
D75*
X637306Y2450809D1*
X632497Y2455617D1*
X627744Y2457994D1*
X618183D1*
X613374Y2455617D1*
X608621Y2450809D1*
X606189Y2446056D1*
X603813Y2438871D1*
Y2426877D1*
X606189Y2419748D1*
X608621Y2414939D1*
X613374Y2410186D1*
X618183Y2407754D1*
X627744D1*
X632497Y2410186D1*
X637306Y2414939D1*
X639682Y2419748D1*
X669492Y2457994D2*
X664683Y2455617D1*
X659930Y2450809D1*
X657498Y2446056D1*
X655122Y2438871D1*
Y2426877D1*
X657498Y2419748D1*
X659930Y2414939D1*
X664683Y2410186D1*
X669492Y2407754D1*
X679053D1*
X683807Y2410186D1*
X688615Y2414939D1*
X690992Y2419748D1*
X693368Y2426877D1*
Y2438871D1*
X690992Y2446056D1*
X688615Y2450809D1*
X683807Y2455617D1*
X679053Y2457994D1*
X669492D1*
X723178D2*
X718369Y2455617D1*
X713616Y2450809D1*
X711184Y2446056D1*
X708808Y2438871D1*
Y2426877D1*
X711184Y2419748D1*
X713616Y2414939D1*
X718369Y2410186D1*
X723178Y2407754D1*
X732739D1*
X737492Y2410186D1*
X742301Y2414939D1*
X744677Y2419748D1*
X747054Y2426877D1*
Y2438871D1*
X744677Y2446056D1*
X742301Y2450809D1*
X737492Y2455617D1*
X732739Y2457994D1*
X723178D1*
X762493D2*
Y2407754D1*
X791178D1*
X842487Y2446056D2*
X840111Y2450809D1*
X835302Y2455617D1*
X830549Y2457994D1*
X820987D1*
X816179Y2455617D1*
X811426Y2450809D1*
X808994Y2446056D1*
X806617Y2438871D1*
Y2426877D1*
X808994Y2419748D1*
X811426Y2414939D1*
X816179Y2410186D1*
X820987Y2407754D1*
X830549D1*
X835302Y2410186D1*
X840111Y2414939D1*
X842487Y2419748D1*
Y2426877D1*
X830549D1*
X857927Y2457994D2*
Y2407754D1*
X873366Y2434062D2*
X894866D1*
X902051Y2436494D1*
X904483Y2438871D1*
X906859Y2443624D1*
Y2448432D1*
X904483Y2453186D1*
X902051Y2455617D1*
X894866Y2457994D1*
X873366D1*
Y2407754D1*
X890112Y2434062D2*
X906859Y2407754D1*
X922298Y2457994D2*
Y2407754D1*
X950983D1*
X1053270D2*
Y2457994D1*
X1034147Y2407754D1*
X1015024Y2457994D1*
Y2407754D1*
X1068709Y2457994D2*
Y2422124D1*
X1071086Y2414939D1*
X1075894Y2410186D1*
X1083079Y2407754D1*
X1087833D1*
X1095018Y2410186D1*
X1099826Y2414939D1*
X1102203Y2422124D1*
Y2457994D1*
X1117642D2*
Y2407754D1*
X1146327D1*
X1178513Y2457994D2*
Y2407754D1*
X1161766Y2457994D2*
X1195259D1*
X1210699D2*
Y2407754D1*
X1262008Y2446056D2*
X1259631Y2450809D1*
X1254823Y2455617D1*
X1250070Y2457994D1*
X1240508D1*
X1235699Y2455617D1*
X1230946Y2450809D1*
X1228514Y2446056D1*
X1226138Y2438871D1*
Y2426877D1*
X1228514Y2419748D1*
X1230946Y2414939D1*
X1235699Y2410186D1*
X1240508Y2407754D1*
X1250070D1*
X1254823Y2410186D1*
X1259631Y2414939D1*
X1262008Y2419748D1*
X1315749Y2407754D2*
X1296570Y2457994D1*
X1277447Y2407754D1*
X1284632Y2424501D2*
X1308564D1*
X1331188Y2434062D2*
X1352688D1*
X1359873Y2436494D1*
X1362305Y2438871D1*
X1364681Y2443624D1*
Y2448432D1*
X1362305Y2453186D1*
X1359873Y2455617D1*
X1352688Y2457994D1*
X1331188D1*
Y2407754D1*
X1347935Y2434062D2*
X1364681Y2407754D1*
X1396867Y2457994D2*
Y2407754D1*
X1380121Y2457994D2*
X1413614D1*
X847204Y2343032D2*
X868704D1*
X875889Y2345463D1*
X878321Y2347840D1*
X880698Y2352593D1*
Y2357402D1*
X878321Y2362155D1*
X875889Y2364587D1*
X868704Y2366963D1*
X847204D1*
Y2316723D1*
X863951Y2343032D2*
X880698Y2316723D1*
X927198Y2366963D2*
X896137D1*
Y2316723D1*
X927198D1*
X896137Y2343032D2*
X915260D1*
X942638Y2366963D2*
X961761Y2316723D1*
X980884Y2366963D1*
X998700Y2321532D2*
X996323Y2319100D1*
X998700Y2316723D1*
X1001132Y2319100D1*
X998700Y2321532D1*
X1089104Y2316723D2*
Y2366908D1*
X1065172Y2333470D1*
X1101042D1*
X1118858Y2321532D2*
X1116481Y2319100D1*
X1118858Y2316723D1*
X1121290Y2319100D1*
X1118858Y2321532D1*
X1151099Y2366908D2*
X1143914Y2364531D1*
X1139105Y2357346D1*
X1136729Y2345408D1*
Y2338223D1*
X1139105Y2326285D1*
X1143914Y2319100D1*
X1151099Y2316723D1*
X1155852D1*
X1163037Y2319100D1*
X1167790Y2326285D1*
X1170222Y2338223D1*
Y2345408D1*
X1167790Y2357346D1*
X1163037Y2364531D1*
X1155852Y2366908D1*
X1151099D1*
X1167790Y2357346D2*
X1139105Y2326285D1*
X2267493Y755211D2*
D78*
X2236376D1*
Y704971D1*
Y731280D2*
X2255499D1*
X2289365D2*
X2310865D1*
X2318050Y733711D1*
X2320482Y736088D1*
X2322859Y740841D1*
Y745650D1*
X2320482Y750403D1*
X2318050Y752835D1*
X2310865Y755211D1*
X2289365D1*
Y704971D1*
X2306112Y731280D2*
X2322859Y704971D1*
X2359101Y755211D2*
X2354292Y752835D1*
X2349539Y748026D1*
X2347107Y743273D1*
X2344731Y736088D1*
Y724095D1*
X2347107Y716965D1*
X2349539Y712156D1*
X2354292Y707403D1*
X2359101Y704971D1*
X2368663D1*
X2373416Y707403D1*
X2378224Y712156D1*
X2380601Y716965D1*
X2382977Y724095D1*
Y736088D1*
X2380601Y743273D1*
X2378224Y748026D1*
X2373416Y752835D1*
X2368663Y755211D1*
X2359101D1*
X2438343D2*
Y704971D1*
X2404850Y755211D1*
Y704971D1*
X2476962Y755211D2*
Y704971D1*
X2460215Y755211D2*
X2493709D1*
X504170Y1375925D2*
D75*
X501793Y1380678D1*
X496985Y1385487D1*
X492232Y1387863D1*
X482670D1*
X477862Y1385487D1*
X473109Y1380678D1*
X470677Y1375925D1*
X468300Y1368740D1*
Y1356747D1*
X470677Y1349617D1*
X473109Y1344809D1*
X477862Y1340055D1*
X482670Y1337623D1*
X492232D1*
X496985Y1340055D1*
X501793Y1344809D1*
X504170Y1349617D1*
X519609Y1378247D2*
X524418Y1380678D1*
X531603Y1387808D1*
Y1337623D1*
X680920Y1375925D2*
X678544Y1380678D1*
X673735Y1385487D1*
X668982Y1387863D1*
X659420D1*
X654612Y1385487D1*
X649859Y1380678D1*
X647427Y1375925D1*
X645050Y1368740D1*
Y1356747D1*
X647427Y1349617D1*
X649859Y1344809D1*
X654612Y1340055D1*
X659420Y1337623D1*
X668982D1*
X673735Y1340055D1*
X678544Y1344809D1*
X680920Y1349617D1*
X698791Y1375870D2*
Y1378247D1*
X701168Y1383055D1*
X703544Y1385432D1*
X708353Y1387808D1*
X717914D1*
X722668Y1385432D1*
X725044Y1383055D1*
X727476Y1378247D1*
Y1373493D1*
X725044Y1368685D1*
X720291Y1361555D1*
X696359Y1337623D1*
X729853D1*
X2074310Y1094428D2*
X2071933Y1099181D1*
X2067125Y1103990D1*
X2062372Y1106366D1*
X2052810D1*
X2048002Y1103990D1*
X2043248Y1099181D1*
X2040817Y1094428D1*
X2038440Y1087243D1*
Y1075249D1*
X2040817Y1068120D1*
X2043248Y1063311D1*
X2048002Y1058558D1*
X2052810Y1056126D1*
X2062372D1*
X2067125Y1058558D1*
X2071933Y1063311D1*
X2074310Y1068120D1*
X2094558Y1106311D2*
X2120811D1*
X2106496Y1087188D1*
X2113681D1*
X2118434Y1084811D1*
X2120811Y1082434D1*
X2123242Y1075249D1*
Y1070496D1*
X2120811Y1063311D1*
X2116057Y1058503D1*
X2108872Y1056126D1*
X2101687D1*
X2094558Y1058503D1*
X2092181Y1060935D1*
X2089749Y1065688D1*
X3523481Y903706D2*
X3521105Y908459D1*
X3516296Y913268D1*
X3511543Y915644D1*
X3501981D1*
X3497173Y913268D1*
X3492420Y908459D1*
X3489988Y903706D1*
X3487611Y896521D1*
Y884528D1*
X3489988Y877398D1*
X3492420Y872589D1*
X3497173Y867836D1*
X3501981Y865404D1*
X3511543D1*
X3516296Y867836D1*
X3521105Y872589D1*
X3523481Y877398D1*
X3562852Y865404D2*
Y915589D1*
X3538920Y882151D1*
X3574790D1*
X3478010Y2324668D2*
X3473257Y2322292D1*
X3468449Y2317483D1*
X3466072Y2312730D1*
Y2303168D1*
X3468449Y2298360D1*
X3473257Y2293607D1*
X3478010Y2291175D1*
X3485195Y2288798D1*
X3497189D1*
X3504319Y2291175D1*
X3509127Y2293607D1*
X3513880Y2298360D1*
X3516312Y2303168D1*
Y2312730D1*
X3513880Y2317483D1*
X3509127Y2322292D1*
X3504319Y2324668D1*
X3466127Y2368792D2*
Y2344916D1*
X3487627Y2342539D1*
X3485251Y2344916D1*
X3482819Y2352101D1*
Y2359231D1*
X3485251Y2366416D1*
X3490004Y2371224D1*
X3497189Y2373601D1*
X3501942D1*
X3509127Y2371224D1*
X3513936Y2366416D1*
X3516312Y2359231D1*
Y2352101D1*
X3513936Y2344916D1*
X3511504Y2342539D1*
X3506751Y2340107D1*
X2282136Y2425581D2*
X2279759Y2430335D1*
X2274951Y2435143D1*
X2270198Y2437520D1*
X2260636D1*
X2255828Y2435143D1*
X2251075Y2430335D1*
X2248643Y2425581D1*
X2246266Y2418396D1*
Y2406403D1*
X2248643Y2399273D1*
X2251075Y2394465D1*
X2255828Y2389712D1*
X2260636Y2387280D1*
X2270198D1*
X2274951Y2389712D1*
X2279759Y2394465D1*
X2282136Y2399273D1*
X2326260Y2430335D2*
X2323884Y2435088D1*
X2316699Y2437464D1*
X2311945D1*
X2304760Y2435088D1*
X2299952Y2427903D1*
X2297575Y2415965D1*
Y2404026D1*
X2299952Y2394465D1*
X2304760Y2389656D1*
X2311945Y2387280D1*
X2314322D1*
X2321452Y2389656D1*
X2326260Y2394465D1*
X2328637Y2401650D1*
Y2404026D1*
X2326260Y2411211D1*
X2321452Y2415965D1*
X2314322Y2418341D1*
X2311945D1*
X2304760Y2415965D1*
X2299952Y2411211D1*
X2297575Y2404026D1*
X2443420Y2425016D2*
X2441044Y2429769D1*
X2436235Y2434577D1*
X2431482Y2436954D1*
X2421920D1*
X2417112Y2434577D1*
X2412359Y2429769D1*
X2409927Y2425016D1*
X2407550Y2417831D1*
Y2405837D1*
X2409927Y2398708D1*
X2412359Y2393899D1*
X2417112Y2389146D1*
X2421920Y2386714D1*
X2431482D1*
X2436235Y2389146D1*
X2441044Y2393899D1*
X2443420Y2398708D1*
X2468421Y2386714D2*
X2492353Y2436899D1*
X2458859D1*
X2609072Y2425581D2*
X2606696Y2430335D1*
X2601887Y2435143D1*
X2597134Y2437520D1*
X2587573D1*
X2582764Y2435143D1*
X2578011Y2430335D1*
X2575579Y2425581D1*
X2573202Y2418396D1*
Y2406403D1*
X2575579Y2399273D1*
X2578011Y2394465D1*
X2582764Y2389712D1*
X2587573Y2387280D1*
X2597134D1*
X2601887Y2389712D1*
X2606696Y2394465D1*
X2609072Y2399273D1*
X2636450Y2437464D2*
X2629320Y2435088D1*
X2626888Y2430335D1*
Y2425526D1*
X2629320Y2420773D1*
X2634073Y2418341D1*
X2643635Y2415965D1*
X2650820Y2413588D1*
X2655573Y2408780D1*
X2657950Y2404026D1*
Y2396841D1*
X2655573Y2392088D1*
X2653197Y2389656D1*
X2646012Y2387280D1*
X2636450D1*
X2629320Y2389656D1*
X2626888Y2392088D1*
X2624512Y2396841D1*
Y2404026D1*
X2626888Y2408780D1*
X2631697Y2413588D1*
X2638826Y2415965D1*
X2648388Y2418341D1*
X2653197Y2420773D1*
X2655573Y2425526D1*
Y2430335D1*
X2653197Y2435088D1*
X2646012Y2437464D1*
X2636450D1*
X4016484Y2190639D2*
X4014107Y2195392D1*
X4009299Y2200201D1*
X4004546Y2202577D1*
X3994984D1*
X3990175Y2200201D1*
X3985422Y2195392D1*
X3982990Y2190639D1*
X3980614Y2183454D1*
Y2171461D1*
X3982990Y2164331D1*
X3985422Y2159522D1*
X3990175Y2154769D1*
X3994984Y2152337D1*
X4004546D1*
X4009299Y2154769D1*
X4014107Y2159522D1*
X4016484Y2164331D1*
X4063040Y2185831D2*
X4060608Y2178646D1*
X4055855Y2173837D1*
X4048670Y2171461D1*
X4046293D1*
X4039108Y2173837D1*
X4034355Y2178646D1*
X4031923Y2185831D1*
Y2188207D1*
X4034355Y2195392D1*
X4039108Y2200146D1*
X4046293Y2202522D1*
X4048670D1*
X4055855Y2200146D1*
X4060608Y2195392D1*
X4063040Y2185831D1*
Y2173837D1*
X4060608Y2161899D1*
X4055855Y2154714D1*
X4048670Y2152337D1*
X4043916D1*
X4036731Y2154714D1*
X4034355Y2159522D1*
X2999495Y2105511D2*
X2994741Y2103134D1*
X2989933Y2098326D1*
X2987556Y2093573D1*
Y2084011D1*
X2989933Y2079203D1*
X2994741Y2074449D1*
X2999495Y2072017D1*
X3006680Y2069641D1*
X3018673D1*
X3025803Y2072017D1*
X3030611Y2074449D1*
X3035365Y2079203D1*
X3037796Y2084011D1*
Y2093573D1*
X3035365Y2098326D1*
X3030611Y2103134D1*
X3025803Y2105511D1*
X2997173Y2120950D2*
X2994741Y2125759D1*
X2987612Y2132944D1*
X3037796D1*
X2987612Y2162753D2*
X2989988Y2155568D1*
X2997173Y2150759D1*
X3009112Y2148383D1*
X3016297D1*
X3028235Y2150759D1*
X3035420Y2155568D1*
X3037796Y2162753D1*
Y2167506D1*
X3035420Y2174691D1*
X3028235Y2179444D1*
X3016297Y2181876D1*
X3009112D1*
X2997173Y2179444D1*
X2989988Y2174691D1*
X2987612Y2167506D1*
Y2162753D1*
X2997173Y2179444D2*
X3028235Y2150759D1*
X1870954Y2104865D2*
X1868577Y2109618D1*
X1863769Y2114427D1*
X1859015Y2116803D1*
X1849454D1*
X1844645Y2114427D1*
X1839892Y2109618D1*
X1837460Y2104865D1*
X1835084Y2097680D1*
Y2085686D1*
X1837460Y2078557D1*
X1839892Y2073748D1*
X1844645Y2068995D1*
X1849454Y2066563D1*
X1859015D1*
X1863769Y2068995D1*
X1868577Y2073748D1*
X1870954Y2078557D1*
X1886393Y2107186D2*
X1891201Y2109618D1*
X1898386Y2116748D1*
Y2066563D1*
X1913826Y2107186D2*
X1918634Y2109618D1*
X1925819Y2116748D1*
Y2066563D1*
X1760326Y1953400D2*
X1757949Y1958154D1*
X1753141Y1962962D1*
X1748388Y1965339D1*
X1738826D1*
X1734017Y1962962D1*
X1729264Y1958154D1*
X1726832Y1953400D1*
X1724456Y1946215D1*
Y1934222D1*
X1726832Y1927092D1*
X1729264Y1922284D1*
X1734017Y1917530D1*
X1738826Y1915099D1*
X1748388D1*
X1753141Y1917530D1*
X1757949Y1922284D1*
X1760326Y1927092D1*
X1775765Y1955722D2*
X1780573Y1958154D1*
X1787759Y1965283D1*
Y1915099D1*
X1805630Y1953345D2*
Y1955722D1*
X1808006Y1960530D1*
X1810383Y1962907D1*
X1815191Y1965283D1*
X1824753D1*
X1829506Y1962907D1*
X1831883Y1960530D1*
X1834315Y1955722D1*
Y1950968D1*
X1831883Y1946160D1*
X1827129Y1939030D1*
X1803198Y1915099D1*
X1836691D1*
X3096195Y1898454D2*
X3091442Y1896078D1*
X3086634Y1891269D1*
X3084257Y1886516D1*
Y1876955D1*
X3086634Y1872146D1*
X3091442Y1867393D1*
X3096195Y1864961D1*
X3103380Y1862584D1*
X3115374D1*
X3122504Y1864961D1*
X3127312Y1867393D1*
X3132065Y1872146D1*
X3134497Y1876955D1*
Y1886516D1*
X3132065Y1891269D1*
X3127312Y1896078D1*
X3122504Y1898454D1*
X3093874Y1913894D2*
X3091442Y1918702D1*
X3084313Y1925887D1*
X3134497D1*
X3084313Y1946135D2*
Y1972388D1*
X3103436Y1958073D1*
Y1965258D1*
X3105812Y1970011D1*
X3108189Y1972388D1*
X3115374Y1974820D1*
X3120127D1*
X3127312Y1972388D1*
X3132121Y1967635D1*
X3134497Y1960450D1*
Y1953265D1*
X3132121Y1946135D1*
X3129689Y1943758D1*
X3124936Y1941326D1*
X2979174Y1799225D2*
X2974421Y1796849D1*
X2969613Y1792040D1*
X2967236Y1787287D1*
Y1777726D1*
X2969613Y1772917D1*
X2974421Y1768164D1*
X2979174Y1765732D1*
X2986359Y1763355D1*
X2998353D1*
X3005483Y1765732D1*
X3010291Y1768164D1*
X3015044Y1772917D1*
X3017476Y1777726D1*
Y1787287D1*
X3015044Y1792040D1*
X3010291Y1796849D1*
X3005483Y1799225D1*
X2976853Y1814665D2*
X2974421Y1819473D1*
X2967292Y1826658D1*
X3017476D1*
Y1866029D2*
X2967292D1*
X3000730Y1842097D1*
Y1877967D1*
X1889079Y1806831D2*
X1886702Y1811584D1*
X1881894Y1816392D1*
X1877141Y1818769D1*
X1867579D1*
X1862771Y1816392D1*
X1858018Y1811584D1*
X1855586Y1806831D1*
X1853209Y1799646D1*
Y1787652D1*
X1855586Y1780522D1*
X1858018Y1775714D1*
X1862771Y1770961D1*
X1867579Y1768529D1*
X1877141D1*
X1881894Y1770961D1*
X1886702Y1775714D1*
X1889079Y1780522D1*
X1904518Y1809152D2*
X1909327Y1811584D1*
X1916512Y1818714D1*
Y1768529D1*
X1960636Y1818714D2*
X1936760D1*
X1934383Y1797214D1*
X1936760Y1799590D1*
X1943945Y1802022D1*
X1951074D1*
X1958259Y1799590D1*
X1963068Y1794837D1*
X1965444Y1787652D1*
Y1782899D1*
X1963068Y1775714D1*
X1958259Y1770906D1*
X1951074Y1768529D1*
X1943945D1*
X1936760Y1770906D1*
X1934383Y1773337D1*
X1931951Y1778091D1*
X1752794Y1690642D2*
X1750417Y1695395D1*
X1745609Y1700203D1*
X1740855Y1702580D1*
X1731294D1*
X1726485Y1700203D1*
X1721732Y1695395D1*
X1719300Y1690642D1*
X1716924Y1683457D1*
Y1671463D1*
X1719300Y1664334D1*
X1721732Y1659525D1*
X1726485Y1654772D1*
X1731294Y1652340D1*
X1740855D1*
X1745609Y1654772D1*
X1750417Y1659525D1*
X1752794Y1664334D1*
X1768233Y1692963D2*
X1773041Y1695395D1*
X1780226Y1702525D1*
Y1652340D1*
X1824351Y1695395D2*
X1821974Y1700148D1*
X1814789Y1702525D1*
X1810036D1*
X1802851Y1700148D1*
X1798042Y1692963D1*
X1795666Y1681025D1*
Y1669087D1*
X1798042Y1659525D1*
X1802851Y1654717D1*
X1810036Y1652340D1*
X1812412D1*
X1819542Y1654717D1*
X1824351Y1659525D1*
X1826727Y1666710D1*
Y1669087D1*
X1824351Y1676272D1*
X1819542Y1681025D1*
X1812412Y1683402D1*
X1810036D1*
X1802851Y1681025D1*
X1798042Y1676272D1*
X1795666Y1669087D1*
X1889078Y1619331D2*
X1886701Y1624084D1*
X1881893Y1628892D1*
X1877140Y1631269D1*
X1867578D1*
X1862769Y1628892D1*
X1858016Y1624084D1*
X1855584Y1619331D1*
X1853208Y1612146D1*
Y1600152D1*
X1855584Y1593022D1*
X1858016Y1588214D1*
X1862769Y1583461D1*
X1867578Y1581029D1*
X1877140D1*
X1881893Y1583461D1*
X1886701Y1588214D1*
X1889078Y1593022D1*
X1904517Y1621652D2*
X1909325Y1624084D1*
X1916510Y1631214D1*
Y1581029D1*
X1941511D2*
X1965443Y1631214D1*
X1931950D1*
X3080829Y1620447D2*
X3076076Y1618070D1*
X3071268Y1613262D1*
X3068891Y1608508D1*
Y1598947D1*
X3071268Y1594138D1*
X3076076Y1589385D1*
X3080829Y1586953D1*
X3088014Y1584577D1*
X3100008D1*
X3107138Y1586953D1*
X3111946Y1589385D1*
X3116699Y1594138D1*
X3119131Y1598947D1*
Y1608508D1*
X3116699Y1613262D1*
X3111946Y1618070D1*
X3107138Y1620447D1*
X3078508Y1635886D2*
X3076076Y1640694D1*
X3068946Y1647879D1*
X3119131D1*
X3068946Y1675257D2*
X3071323Y1668127D1*
X3076076Y1665695D1*
X3080885D1*
X3085638Y1668127D1*
X3088070Y1672880D1*
X3090446Y1682442D1*
X3092823Y1689627D1*
X3097631Y1694380D1*
X3102384Y1696757D1*
X3109569D1*
X3114323Y1694380D1*
X3116755Y1692003D1*
X3119131Y1684818D1*
Y1675257D1*
X3116755Y1668127D1*
X3114323Y1665695D1*
X3109569Y1663319D1*
X3102384D1*
X3097631Y1665695D1*
X3092823Y1670504D1*
X3090446Y1677633D1*
X3088070Y1687195D1*
X3085638Y1692003D1*
X3080885Y1694380D1*
X3076076D1*
X3071323Y1692003D1*
X3068946Y1684818D1*
Y1675257D1*
X887387Y1384412D2*
X882634Y1382035D1*
X877825Y1377227D1*
X875449Y1372474D1*
Y1362912D1*
X877825Y1358103D1*
X882634Y1353350D1*
X887387Y1350918D1*
X894572Y1348542D1*
X906566D1*
X913695Y1350918D1*
X918504Y1353350D1*
X923257Y1358103D1*
X925689Y1362912D1*
Y1372474D1*
X923257Y1377227D1*
X918504Y1382035D1*
X913695Y1384412D1*
X885066Y1399851D2*
X882634Y1404659D1*
X875504Y1411844D1*
X925689D1*
X892196Y1458400D2*
X899381Y1455969D1*
X904189Y1451215D1*
X906566Y1444030D1*
Y1441654D1*
X904189Y1434469D1*
X899381Y1429716D1*
X892196Y1427284D1*
X889819D1*
X882634Y1429716D1*
X877881Y1434469D1*
X875504Y1441654D1*
Y1444030D1*
X877881Y1451215D1*
X882634Y1455969D1*
X892196Y1458400D1*
X904189D1*
X916127Y1455969D1*
X923312Y1451215D1*
X925689Y1444030D1*
Y1439277D1*
X923312Y1432092D1*
X918504Y1429716D1*
X2831135Y1367571D2*
X2826382Y1365194D1*
X2821573Y1360386D1*
X2819197Y1355632D1*
Y1346071D1*
X2821573Y1341262D1*
X2826382Y1336509D1*
X2831135Y1334077D1*
X2838320Y1331701D1*
X2850314D1*
X2857443Y1334077D1*
X2862252Y1336509D1*
X2867005Y1341262D1*
X2869437Y1346071D1*
Y1355632D1*
X2867005Y1360386D1*
X2862252Y1365194D1*
X2857443Y1367571D1*
X2831190Y1385442D2*
X2828814D1*
X2824005Y1387818D1*
X2821629Y1390195D1*
X2819252Y1395003D1*
Y1404565D1*
X2821629Y1409318D1*
X2824005Y1411695D1*
X2828814Y1414127D1*
X2833567D1*
X2838375Y1411695D1*
X2845505Y1406942D1*
X2869437Y1383010D1*
Y1416503D1*
X2819252Y1446313D2*
X2821629Y1439127D1*
X2828814Y1434319D1*
X2840752Y1431942D1*
X2847937D1*
X2859875Y1434319D1*
X2867060Y1439127D1*
X2869437Y1446313D1*
Y1451066D1*
X2867060Y1458251D1*
X2859875Y1463004D1*
X2847937Y1465436D1*
X2840752D1*
X2828814Y1463004D1*
X2821629Y1458251D1*
X2819252Y1451066D1*
Y1446313D1*
X2828814Y1463004D2*
X2859875Y1434319D1*
X2182828Y1363588D2*
X2180452Y1368341D1*
X2175643Y1373150D1*
X2170890Y1375526D1*
X2161329D1*
X2156520Y1373150D1*
X2151767Y1368341D1*
X2149335Y1363588D1*
X2146958Y1356403D1*
Y1344409D1*
X2149335Y1337280D1*
X2151767Y1332471D1*
X2156520Y1327718D1*
X2161329Y1325286D1*
X2170890D1*
X2175643Y1327718D1*
X2180452Y1332471D1*
X2182828Y1337280D1*
X2200700Y1363533D2*
Y1365909D1*
X2203076Y1370718D1*
X2205453Y1373094D1*
X2210261Y1375471D1*
X2219823D1*
X2224576Y1373094D1*
X2226953Y1370718D1*
X2229384Y1365909D1*
Y1361156D1*
X2226953Y1356348D1*
X2222199Y1349218D1*
X2198268Y1325286D1*
X2231761D1*
X2247200Y1365909D2*
X2252009Y1368341D1*
X2259194Y1375471D1*
Y1325286D1*
X2485009Y1294945D2*
X2482632Y1299698D1*
X2477824Y1304507D1*
X2473071Y1306883D1*
X2463509D1*
X2458701Y1304507D1*
X2453947Y1299698D1*
X2451516Y1294945D1*
X2449139Y1287760D1*
Y1275766D1*
X2451516Y1268637D1*
X2453947Y1263828D1*
X2458701Y1259075D1*
X2463509Y1256643D1*
X2473071D1*
X2477824Y1259075D1*
X2482632Y1263828D1*
X2485009Y1268637D1*
X2502880Y1294890D2*
Y1297266D1*
X2505257Y1302075D1*
X2507633Y1304451D1*
X2512442Y1306828D1*
X2522003D1*
X2526756Y1304451D1*
X2529133Y1302075D1*
X2531565Y1297266D1*
Y1292513D1*
X2529133Y1287705D1*
X2524380Y1280575D1*
X2500448Y1256643D1*
X2533942D1*
X2551813Y1294890D2*
Y1297266D1*
X2554189Y1302075D1*
X2556566Y1304451D1*
X2561374Y1306828D1*
X2570936D1*
X2575689Y1304451D1*
X2578066Y1302075D1*
X2580498Y1297266D1*
Y1292513D1*
X2578066Y1287705D1*
X2573312Y1280575D1*
X2549381Y1256643D1*
X2582874D1*
X2685009Y1269945D2*
X2682632Y1274698D1*
X2677824Y1279507D1*
X2673071Y1281883D1*
X2663509D1*
X2658701Y1279507D1*
X2653947Y1274698D1*
X2651516Y1269945D1*
X2649139Y1262760D1*
Y1250766D1*
X2651516Y1243637D1*
X2653947Y1238828D1*
X2658701Y1234075D1*
X2663509Y1231643D1*
X2673071D1*
X2677824Y1234075D1*
X2682632Y1238828D1*
X2685009Y1243637D1*
X2702880Y1269890D2*
Y1272266D1*
X2705257Y1277075D1*
X2707633Y1279451D1*
X2712442Y1281828D1*
X2722003D1*
X2726756Y1279451D1*
X2729133Y1277075D1*
X2731565Y1272266D1*
Y1267513D1*
X2729133Y1262705D1*
X2724380Y1255575D1*
X2700448Y1231643D1*
X2733942D1*
X2754189Y1281828D2*
X2780442D1*
X2766127Y1262705D1*
X2773312D1*
X2778066Y1260328D1*
X2780442Y1257951D1*
X2782874Y1250766D1*
Y1246013D1*
X2780442Y1238828D1*
X2775689Y1234020D1*
X2768504Y1231643D1*
X2761319D1*
X2754189Y1234020D1*
X2751813Y1236452D1*
X2749381Y1241205D1*
X883697Y1107993D2*
X878944Y1105616D1*
X874135Y1100808D1*
X871759Y1096054D1*
Y1086493D1*
X874135Y1081684D1*
X878944Y1076931D1*
X883697Y1074499D1*
X890882Y1072123D1*
X902875D1*
X910005Y1074499D1*
X914814Y1076931D1*
X919567Y1081684D1*
X921999Y1086493D1*
Y1096054D1*
X919567Y1100808D1*
X914814Y1105616D1*
X910005Y1107993D1*
X883752Y1125864D2*
X881375D1*
X876567Y1128240D1*
X874190Y1130617D1*
X871814Y1135425D1*
Y1144987D1*
X874190Y1149740D1*
X876567Y1152117D1*
X881375Y1154549D1*
X886129D1*
X890937Y1152117D1*
X898067Y1147364D1*
X921999Y1123432D1*
Y1156925D1*
Y1196296D2*
X871814D1*
X905252Y1172364D1*
Y1208234D1*
X2833695Y1103834D2*
X2828942Y1101458D1*
X2824134Y1096649D1*
X2821757Y1091896D1*
Y1082335D1*
X2824134Y1077526D1*
X2828942Y1072773D1*
X2833695Y1070341D1*
X2840880Y1067964D1*
X2852874D1*
X2860004Y1070341D1*
X2864812Y1072773D1*
X2869565Y1077526D1*
X2871997Y1082335D1*
Y1091896D1*
X2869565Y1096649D1*
X2864812Y1101458D1*
X2860004Y1103834D1*
X2833751Y1121706D2*
X2831374D1*
X2826566Y1124082D1*
X2824189Y1126459D1*
X2821813Y1131267D1*
Y1140829D1*
X2824189Y1145582D1*
X2826566Y1147959D1*
X2831374Y1150390D1*
X2836127D1*
X2840936Y1147959D1*
X2848066Y1143205D1*
X2871997Y1119274D1*
Y1152767D1*
X2821813Y1196891D2*
Y1173015D1*
X2843312Y1170638D1*
X2840936Y1173015D1*
X2838504Y1180200D1*
Y1187329D1*
X2840936Y1194515D1*
X2845689Y1199323D1*
X2852874Y1201700D1*
X2857627D1*
X2864812Y1199323D1*
X2869621Y1194515D1*
X2871997Y1187329D1*
Y1180200D1*
X2869621Y1173015D1*
X2867189Y1170638D1*
X2862436Y1168206D1*
X2110112Y940301D2*
Y890060D1*
X2126858D1*
X2134043Y892492D1*
X2138852Y897246D1*
X2141229Y902054D1*
X2143605Y909184D1*
Y921177D1*
X2141229Y928362D1*
X2138852Y933115D1*
X2134043Y937924D1*
X2126858Y940301D1*
X2110112D1*
X2159044Y930684D2*
X2163853Y933115D1*
X2171038Y940245D1*
Y890060D1*
X3365004Y2288236D2*
Y2309736D1*
X3362572Y2316921D1*
X3360195Y2319353D1*
X3355442Y2321730D1*
X3350634D1*
X3345881Y2319353D1*
X3343449Y2316921D1*
X3341072Y2309736D1*
Y2288236D1*
X3391312D1*
X3365004Y2304983D2*
X3391312Y2321730D1*
X3350689Y2337169D2*
X3348257Y2341977D1*
X3341127Y2349163D1*
X3391312D1*
X3427493Y2286864D2*
Y2308364D1*
X3425062Y2315549D1*
X3422685Y2317981D1*
X3417932Y2320358D1*
X3413123D1*
X3408370Y2317981D1*
X3405938Y2315549D1*
X3403562Y2308364D1*
Y2286864D1*
X3453802D1*
X3427493Y2303611D2*
X3453802Y2320358D1*
X3415555Y2338229D2*
X3413179D1*
X3408370Y2340606D1*
X3405994Y2342982D1*
X3403617Y2347791D1*
Y2357352D1*
X3405994Y2362105D1*
X3408370Y2364482D1*
X3413179Y2366914D1*
X3417932D1*
X3422740Y2364482D1*
X3429870Y2359729D1*
X3453802Y2335797D1*
Y2369290D1*
X2039332Y1145911D2*
X2060832D1*
X2068017Y1148343D1*
X2070448Y1150719D1*
X2072825Y1155472D1*
Y1160281D1*
X2070448Y1165034D1*
X2068017Y1167466D1*
X2060832Y1169842D1*
X2039332D1*
Y1119602D1*
X2056078Y1145911D2*
X2072825Y1119602D1*
X2093073Y1169787D2*
X2119326D1*
X2105011Y1150664D1*
X2112196D1*
X2116949Y1148287D1*
X2119326Y1145911D1*
X2121758Y1138726D1*
Y1133973D1*
X2119326Y1126788D1*
X2114573Y1121979D1*
X2107388Y1119602D1*
X2100202D1*
X2093073Y1121979D1*
X2090696Y1124411D1*
X2088264Y1129164D1*
X1045197Y881098D2*
X1066697D1*
X1073882Y883530D1*
X1076314Y885907D1*
X1078691Y890660D1*
Y895469D1*
X1076314Y900222D1*
X1073882Y902654D1*
X1066697Y905030D1*
X1045197D1*
Y854790D1*
X1061944Y881098D2*
X1078691Y854790D1*
X1118061D2*
Y904975D1*
X1094130Y871537D1*
X1130000D1*
X1158244Y881098D2*
X1179744D1*
X1186929Y883530D1*
X1189360Y885907D1*
X1191737Y890660D1*
Y895469D1*
X1189360Y900222D1*
X1186929Y902654D1*
X1179744Y905030D1*
X1158244D1*
Y854790D1*
X1174990Y881098D2*
X1191737Y854790D1*
X1235861Y904975D2*
X1211985D1*
X1209608Y883475D1*
X1211985Y885852D1*
X1219170Y888283D1*
X1226300D1*
X1233485Y885852D1*
X1238293Y881098D1*
X1240670Y873913D1*
Y869160D1*
X1238293Y861975D1*
X1233485Y857167D1*
X1226300Y854790D1*
X1219170D1*
X1211985Y857167D1*
X1209608Y859599D1*
X1207176Y864352D1*
X1269474Y881098D2*
X1290974D1*
X1298159Y883530D1*
X1300591Y885907D1*
X1302967Y890660D1*
Y895469D1*
X1300591Y900222D1*
X1298159Y902654D1*
X1290974Y905030D1*
X1269474D1*
Y854790D1*
X1286221Y881098D2*
X1302967Y854790D1*
X1347092Y897845D2*
X1344715Y902598D1*
X1337530Y904975D1*
X1332777D1*
X1325592Y902598D1*
X1320783Y895413D1*
X1318407Y883475D1*
Y871537D1*
X1320783Y861975D1*
X1325592Y857167D1*
X1332777Y854790D1*
X1335153D1*
X1342283Y857167D1*
X1347092Y861975D1*
X1349468Y869160D1*
Y871537D1*
X1347092Y878722D1*
X1342283Y883475D1*
X1335153Y885852D1*
X1332777D1*
X1325592Y883475D1*
X1320783Y878722D1*
X1318407Y871537D1*
X1383124Y880508D2*
X1404624D1*
X1411809Y882940D1*
X1414241Y885316D1*
X1416618Y890070D1*
Y894878D1*
X1414241Y899631D1*
X1411809Y902063D1*
X1404624Y904440D1*
X1383124D1*
Y854200D1*
X1399871Y880508D2*
X1416618Y854200D1*
X1441619D2*
X1465550Y904384D1*
X1432057D1*
X1721256Y881102D2*
X1742755D1*
X1749941Y883534D1*
X1752372Y885911D1*
X1754749Y890664D1*
Y895472D1*
X1752372Y900226D1*
X1749941Y902658D1*
X1742755Y905034D1*
X1721256D1*
Y854794D1*
X1738002Y881102D2*
X1754749Y854794D1*
X1782126Y904979D2*
X1774997Y902602D1*
X1772565Y897849D1*
Y893041D1*
X1774997Y888287D1*
X1779750Y885856D1*
X1789311Y883479D1*
X1796497Y881102D1*
X1801250Y876294D1*
X1803626Y871541D1*
Y864356D1*
X1801250Y859603D1*
X1798873Y857171D1*
X1791688Y854794D1*
X1782126D1*
X1774997Y857171D1*
X1772565Y859603D1*
X1770188Y864356D1*
Y871541D1*
X1772565Y876294D1*
X1777373Y881102D1*
X1784503Y883479D1*
X1794065Y885856D1*
X1798873Y888287D1*
X1801250Y893041D1*
Y897849D1*
X1798873Y902602D1*
X1791688Y904979D1*
X1782126D1*
X1853638Y881102D2*
X1875138D1*
X1882323Y883534D1*
X1884755Y885911D1*
X1887131Y890664D1*
Y895472D1*
X1884755Y900226D1*
X1882323Y902658D1*
X1875138Y905034D1*
X1853638D1*
Y854794D1*
X1870385Y881102D2*
X1887131Y854794D1*
X1933687Y888287D2*
X1931256Y881102D1*
X1926502Y876294D1*
X1919317Y873917D1*
X1916941D1*
X1909756Y876294D1*
X1905003Y881102D1*
X1902571Y888287D1*
Y890664D1*
X1905003Y897849D1*
X1909756Y902602D1*
X1916941Y904979D1*
X1919317D1*
X1926502Y902602D1*
X1931256Y897849D1*
X1933687Y888287D1*
Y876294D1*
X1931256Y864356D1*
X1926502Y857171D1*
X1919317Y854794D1*
X1914564D1*
X1907379Y857171D1*
X1905003Y861979D1*
X2271363Y879795D2*
X2292863D1*
X2300048Y882227D1*
X2302480Y884604D1*
X2304857Y889357D1*
Y894165D1*
X2302480Y898919D1*
X2300048Y901350D1*
X2292863Y903727D1*
X2271363D1*
Y853487D1*
X2288110Y879795D2*
X2304857Y853487D1*
X2320296Y894110D2*
X2325104Y896542D1*
X2332289Y903672D1*
Y853487D1*
X2362099Y903672D2*
X2354914Y901295D1*
X2350105Y894110D1*
X2347729Y882172D1*
Y874987D1*
X2350105Y863049D1*
X2354914Y855864D1*
X2362099Y853487D1*
X2366852D1*
X2374037Y855864D1*
X2378790Y863049D1*
X2381222Y874987D1*
Y882172D1*
X2378790Y894110D1*
X2374037Y901295D1*
X2366852Y903672D1*
X2362099D1*
X2378790Y894110D2*
X2350105Y863049D1*
X2456868Y878972D2*
X2478368D1*
X2485553Y881404D1*
X2487985Y883781D1*
X2490361Y888534D1*
Y893343D1*
X2487985Y898096D1*
X2485553Y900528D1*
X2478368Y902904D1*
X2456868D1*
Y852664D1*
X2473615Y878972D2*
X2490361Y852664D1*
X2505800Y893287D2*
X2510609Y895719D1*
X2517794Y902849D1*
Y852664D1*
X2533233Y893287D2*
X2538042Y895719D1*
X2545227Y902849D1*
Y852664D1*
X2951119Y883156D2*
X2972619D1*
X2979804Y885588D1*
X2982236Y887965D1*
X2984613Y892718D1*
Y897526D1*
X2982236Y902279D1*
X2979804Y904711D1*
X2972619Y907088D1*
X2951119D1*
Y856848D1*
X2967866Y883156D2*
X2984613Y856848D1*
X3000052Y897471D2*
X3004860Y899903D1*
X3012045Y907033D1*
Y856848D1*
X3029916Y895094D2*
Y897471D1*
X3032293Y902279D1*
X3034670Y904656D1*
X3039478Y907033D1*
X3049040D1*
X3053793Y904656D1*
X3056169Y902279D1*
X3058601Y897471D1*
Y892718D1*
X3056169Y887909D1*
X3051416Y880780D1*
X3027485Y856848D1*
X3060978D1*
X3076009Y881102D2*
X3097509D1*
X3104694Y883534D1*
X3107126Y885911D1*
X3109502Y890664D1*
Y895472D1*
X3107126Y900226D1*
X3104694Y902658D1*
X3097509Y905034D1*
X3076009D1*
Y854794D1*
X3092756Y881102D2*
X3109502Y854794D1*
X3124942Y895417D2*
X3129750Y897849D1*
X3136935Y904979D1*
Y854794D1*
X3157183Y904979D2*
X3183436D1*
X3169121Y885856D1*
X3176306D1*
X3181059Y883479D1*
X3183436Y881102D1*
X3185868Y873917D1*
Y869164D1*
X3183436Y861979D1*
X3178683Y857171D1*
X3171498Y854794D1*
X3164313D1*
X3157183Y857171D1*
X3154806Y859603D1*
X3152374Y864356D1*
X3203515Y881102D2*
X3225015D1*
X3232200Y883534D1*
X3234632Y885911D1*
X3237008Y890664D1*
Y895472D1*
X3234632Y900226D1*
X3232200Y902658D1*
X3225015Y905034D1*
X3203515D1*
Y854794D1*
X3220262Y881102D2*
X3237008Y854794D1*
X3252448Y895417D2*
X3257256Y897849D1*
X3264441Y904979D1*
Y854794D1*
X3303812D2*
Y904979D1*
X3279880Y871541D1*
X3315750D1*
X3326947Y881102D2*
X3348447D1*
X3355632Y883534D1*
X3358064Y885911D1*
X3360441Y890664D1*
Y895472D1*
X3358064Y900226D1*
X3355632Y902658D1*
X3348447Y905034D1*
X3326947D1*
Y854794D1*
X3343694Y881102D2*
X3360441Y854794D1*
X3375880Y895417D2*
X3380688Y897849D1*
X3387873Y904979D1*
Y854794D1*
X3431998Y904979D2*
X3408121D1*
X3405744Y883479D1*
X3408121Y885856D1*
X3415306Y888287D1*
X3422436D1*
X3429621Y885856D1*
X3434429Y881102D1*
X3436806Y873917D1*
Y869164D1*
X3434429Y861979D1*
X3429621Y857171D1*
X3422436Y854794D1*
X3415306D1*
X3408121Y857171D1*
X3405744Y859603D1*
X3403313Y864356D1*
X3646258Y881102D2*
X3667758D1*
X3674943Y883534D1*
X3677374Y885911D1*
X3679751Y890664D1*
Y895472D1*
X3677374Y900226D1*
X3674943Y902658D1*
X3667758Y905034D1*
X3646258D1*
Y854794D1*
X3663004Y881102D2*
X3679751Y854794D1*
X3695190Y895417D2*
X3699999Y897849D1*
X3707184Y904979D1*
Y854794D1*
X3751308Y897849D2*
X3748931Y902602D1*
X3741746Y904979D1*
X3736993D1*
X3729808Y902602D1*
X3725000Y895417D1*
X3722623Y883479D1*
Y871541D1*
X3725000Y861979D1*
X3729808Y857171D1*
X3736993Y854794D1*
X3739370D1*
X3746499Y857171D1*
X3751308Y861979D1*
X3753685Y869164D1*
Y871541D1*
X3751308Y878726D1*
X3746499Y883479D1*
X3739370Y885856D1*
X3736993D1*
X3729808Y883479D1*
X3725000Y878726D1*
X3722623Y871541D1*
X3776271Y881102D2*
X3797771D1*
X3804956Y883534D1*
X3807388Y885911D1*
X3809765Y890664D1*
Y895472D1*
X3807388Y900226D1*
X3804956Y902658D1*
X3797771Y905034D1*
X3776271D1*
Y854794D1*
X3793018Y881102D2*
X3809765Y854794D1*
X3825204Y895417D2*
X3830012Y897849D1*
X3837198Y904979D1*
Y854794D1*
X3862198D2*
X3886130Y904979D1*
X3852637D1*
X1976305Y2299583D2*
Y2263713D1*
X1978681Y2256528D1*
X1983490Y2251775D1*
X1990675Y2249343D1*
X1995428D1*
X2002613Y2251775D1*
X2007421Y2256528D1*
X2009798Y2263713D1*
Y2299583D1*
X2025237Y2289966D2*
X2030046Y2292398D1*
X2037231Y2299527D1*
Y2249343D1*
X1205614Y2333154D2*
Y2297284D1*
X1207990Y2290099D1*
X1212799Y2285345D1*
X1219984Y2282914D1*
X1224737D1*
X1231922Y2285345D1*
X1236731Y2290099D1*
X1239107Y2297284D1*
Y2333154D1*
X1256978Y2321160D2*
Y2323537D1*
X1259355Y2328345D1*
X1261731Y2330722D1*
X1266540Y2333098D1*
X1276102D1*
X1280855Y2330722D1*
X1283231Y2328345D1*
X1285663Y2323537D1*
Y2318783D1*
X1283231Y2313975D1*
X1278478Y2306845D1*
X1254546Y2282914D1*
X1288040D1*
X3570798Y2168976D2*
Y2133106D1*
X3573174Y2125921D1*
X3577983Y2121168D1*
X3585168Y2118736D1*
X3589921D1*
X3597106Y2121168D1*
X3601914Y2125921D1*
X3604291Y2133106D1*
Y2168976D1*
X3624539Y2168921D2*
X3650792D1*
X3636477Y2149798D1*
X3643662D1*
X3648415Y2147421D1*
X3650792Y2145045D1*
X3653223Y2137860D1*
Y2133106D1*
X3650792Y2125921D1*
X3646038Y2121113D1*
X3638853Y2118736D1*
X3631668D1*
X3624539Y2121113D1*
X3622162Y2123545D1*
X3619730Y2128298D1*
X742844Y1605375D2*
Y1569505D1*
X745221Y1562320D1*
X750029Y1557567D1*
X757214Y1555135D1*
X761967D1*
X769152Y1557567D1*
X773961Y1562320D1*
X776337Y1569505D1*
Y1605375D1*
X815708Y1555135D2*
Y1605320D1*
X791777Y1571882D1*
X827647D1*
X930689Y1213203D2*
X966559D1*
X973744Y1215580D1*
X978497Y1220388D1*
X980929Y1227573D1*
Y1232326D1*
X978497Y1239511D1*
X973744Y1244320D1*
X966559Y1246696D1*
X930689D1*
X930744Y1290821D2*
Y1266944D1*
X952244Y1264567D1*
X949868Y1266944D1*
X947436Y1274129D1*
Y1281259D1*
X949868Y1288444D1*
X954621Y1293252D1*
X961806Y1295629D1*
X966559D1*
X973744Y1293252D1*
X978552Y1288444D1*
X980929Y1281259D1*
Y1274129D1*
X978552Y1266944D1*
X976121Y1264567D1*
X971367Y1262136D1*
X2872455Y1214412D2*
X2908325D1*
X2915510Y1216789D1*
X2920264Y1221597D1*
X2922695Y1228782D1*
Y1233536D1*
X2920264Y1240721D1*
X2915510Y1245529D1*
X2908325Y1247906D1*
X2872455D1*
X2879640Y1292030D2*
X2874887Y1289653D1*
X2872511Y1282468D1*
Y1277715D1*
X2874887Y1270530D1*
X2882072Y1265722D1*
X2894011Y1263345D1*
X2905949D1*
X2915510Y1265722D1*
X2920319Y1270530D1*
X2922695Y1277715D1*
Y1280092D1*
X2920319Y1287221D1*
X2915510Y1292030D1*
X2908325Y1294406D1*
X2905949D1*
X2898764Y1292030D1*
X2894011Y1287221D1*
X2891634Y1280092D1*
Y1277715D1*
X2894011Y1270530D1*
X2898764Y1265722D1*
X2905949Y1263345D1*
M02*
