G04 DipTrace 4.0.0.5*
G04 2 - Inner 1.gbr*
%MOIN*%
G04 #@! TF.FileFunction,Copper,L2,Inr*
G04 #@! TF.Part,Single*
%ADD22C,0.045354*%
%ADD27C,0.066929*%
G04 #@! TA.AperFunction,CopperBalancing*
%ADD15C,0.007874*%
%ADD16C,0.011811*%
G04 #@! TA.AperFunction,ViaPad*
%ADD39C,0.017717*%
%FSLAX26Y26*%
G04*
G70*
G90*
G75*
G01*
G04 Inner1_Plane*
%LPD*%
D39*
X2274950Y893701D3*
X724950Y1107175D3*
X2490900Y959650D3*
X2612451Y915576D3*
X959325Y2278076D3*
X1406201Y1543701D3*
D3*
X1996825Y1959325D3*
X2137450Y2178076D3*
X2228077Y2199950D3*
X1052992Y819462D3*
X1353076Y2343701D3*
X1788761Y1879638D3*
D3*
X1418701Y949951D3*
X1487451Y949950D3*
X1946825Y1990576D3*
X2024950Y2056201D3*
X1984327Y2087450D3*
X1253839Y2290024D3*
X1981201Y965576D3*
X1212451Y2346825D3*
X1940576Y924951D3*
X1175098Y2309327D3*
X1887450Y924951D3*
X1134325Y2346825D3*
X1849950Y962449D3*
X1076673Y2310486D3*
X1812450Y924950D3*
X1037303Y2346825D3*
X1772370Y959870D3*
X997933Y2309867D3*
X1706201Y931201D3*
X958563Y2346825D3*
X1656201Y962451D3*
X2043699Y1349950D3*
X2087450Y1568701D3*
X2012450Y1393701D3*
X2062450Y1618701D3*
X3821825Y2221825D3*
X3768890Y2290766D3*
X2256201Y943701D3*
X2543699Y934327D3*
X2743701Y1731201D3*
X2643701Y1796825D3*
X2462450Y899951D3*
X3218454Y943701D3*
X3174950Y1374951D3*
X2759325Y1356201D3*
X3259983Y900050D3*
X3118701Y1356201D3*
X3333524Y941378D3*
X3456201Y1006201D3*
X2665576Y1818701D3*
X3393701Y924951D3*
X3534325Y1906201D3*
X3590576Y1881201D3*
X2924951Y918702D3*
X3105954Y943455D3*
X3147088Y899790D3*
X3850197Y809325D3*
X3737450Y856201D3*
X3737451Y887451D3*
Y918701D3*
X2043701Y1284327D3*
X2181201Y1968701D3*
X3846825Y2162451D3*
X949950Y1381201D3*
X1931201Y1599950D3*
X1906365Y1484400D3*
X1881201Y1581201D3*
X1855184Y1484400D3*
X1828076Y1559325D3*
X1804003Y1484400D3*
X1778076Y1537451D3*
X1752822Y1484400D3*
X1112451Y1381201D3*
X1437450Y1287451D3*
X1743701Y1268701D3*
X1881201D3*
X3599951Y2512450D3*
X3499950Y2618701D3*
X3699951D3*
X3799950Y2512451D3*
X3899950Y2618701D3*
X3999950Y2512451D3*
X962451Y2506201D3*
X431201Y1781201D3*
X3949950Y1343701D3*
X1396825Y1637450D3*
X1199950Y2568701D3*
X1312451D3*
X1543701Y1315576D3*
Y1387450D3*
X1709325Y2262450D3*
X1831201Y2396825D3*
X1812450D3*
X949951Y1509325D3*
X1568701Y1506201D3*
X1112451Y1574951D3*
X599950Y1699951D3*
X2037451Y2540576D3*
X1690576Y2262450D3*
X2137451Y1762451D3*
X2387451Y2581201D3*
X2846825Y1334325D3*
X2156201Y1762451D3*
X1793701Y2396825D3*
X2231201Y2387451D3*
X2243701Y1965576D3*
X2893701Y2274951D3*
X2912451D3*
X2306201Y1940576D3*
X2243701Y1915576D3*
X2956201Y2059325D3*
X2306201Y1890576D3*
X2243701Y1865576D3*
X2306201Y1840576D3*
X2243701Y1815576D3*
X2615576Y1537450D3*
X2628075Y1524950D3*
X2306201Y1790576D3*
X1999950Y1890576D3*
X2018701D3*
X2931201Y2274951D3*
X2118701Y1762451D3*
X3099951Y2299951D3*
X1987451Y1878076D3*
X2121825Y1415576D3*
X2243701Y2374950D3*
X2899950Y1381201D3*
X3518701Y1368701D3*
X2256201Y2362451D3*
X2093701Y2249950D3*
X2106201Y2237449D3*
X2118701Y2224950D3*
X1974950Y2153076D3*
X1993701D3*
X2012451D3*
Y1518701D3*
X1824951Y1699951D3*
X2241852Y1636042D3*
X2254352Y1648542D3*
X2266852Y1661042D3*
X1925633Y1792978D3*
X2640576Y1512450D3*
X1890576Y2009325D3*
X1724951Y2131201D3*
X3456201Y874950D3*
X2362451Y849950D3*
X762453Y962451D3*
X2412451Y849950D3*
Y1024951D3*
X3668701Y1343701D3*
X799951Y924951D3*
X2462451Y849950D3*
X906202Y974951D3*
X2840429Y1106883D3*
X2412451Y999951D3*
X724951D3*
X2412451Y974950D3*
X593701Y1162451D3*
X2412451Y949950D3*
X943701Y1012451D3*
X2412451Y924950D3*
X1765576Y2168701D3*
X2412451Y899950D3*
X1831201Y2178076D3*
X2412451Y874950D3*
X2893701Y2299951D3*
X599950Y1674951D3*
X2746825Y2131201D3*
X943701Y937451D3*
X599950Y1649951D3*
X443701Y2043701D3*
X906202Y1049951D3*
X599950Y1624951D3*
X443701Y2243701D3*
X599950Y1599951D3*
X981201Y1049951D3*
X599950Y1574951D3*
X443701Y2443701D3*
X599950Y1549950D3*
X981201Y974951D3*
X599950Y1724950D3*
X443701Y2630001D3*
X2662451Y2221825D3*
X981201Y899950D3*
X2262451Y2218701D3*
X643701Y2630001D3*
X1963979Y2322589D3*
X843701Y2630001D3*
X868701Y1012451D3*
X1949950Y2421825D3*
X643701Y2443701D3*
X2703076Y1624950D3*
X643701Y2243701D3*
X831201Y1049951D3*
X3496316Y2153076D3*
X3593701D3*
X3896825Y2193701D3*
Y2174951D3*
Y2156201D3*
X3337451Y2393701D3*
X3374950Y1890576D3*
X3646825Y1996825D3*
Y1921825D3*
X3393701Y1818701D3*
X3343701Y2162451D3*
X3546825Y1996825D3*
X3631201Y2349951D3*
X3803076Y2178076D3*
X2715576Y1612451D3*
X2728076Y1599951D3*
X1396825Y1809325D3*
X1037450Y2506201D3*
X1187451D3*
X1062451Y2549950D3*
X2837451Y1753076D3*
X2849950Y1740576D3*
X1249951Y2506201D3*
X1374951Y2493701D3*
X1387451Y2506201D3*
X1399951Y2518701D3*
X1043701Y2549950D3*
X1024950D3*
X1728076Y2262450D3*
X2862451Y1728076D3*
X2796825Y1774950D3*
X1396825Y1740576D3*
X943701Y2143701D3*
X2018701Y2540576D3*
X1999950D3*
X4199951Y1684325D3*
X2749951Y1243701D3*
X1743701Y1328076D3*
X1881201D3*
X1528076Y1956201D3*
X1603076Y2031201D3*
X1649951Y1834325D3*
X1724950Y1909325D3*
X1640576Y2068701D3*
X1768701Y2096825D3*
X1818701Y2034325D3*
X1759325Y1943701D3*
X849950Y1849950D3*
X943701Y1943701D3*
X1043701Y2043701D3*
X443701Y1293701D3*
X2362451Y2218701D3*
X2462451D3*
X2096825Y1965576D3*
X2153076D3*
X443701Y1493701D3*
X543701Y1393701D3*
X643701Y1493701D3*
Y1293701D3*
X2037451Y2131201D3*
X2128076Y2271825D3*
X2049950Y2196825D3*
X2115576Y2131201D3*
X781201Y1493701D3*
Y1249950D3*
X893701Y1393701D3*
X1365251Y1046951D3*
X1254064Y1046828D3*
X1140150Y1046757D3*
X862451Y1106201D3*
X3456201D3*
X4046825Y2078076D3*
X881201Y1106201D3*
X899950D3*
X4046825Y1959325D3*
X3474950Y1106201D3*
X3493701D3*
X3781201Y837451D3*
Y818701D3*
Y799950D3*
Y781201D3*
X1681201Y831201D3*
X1756201Y837451D3*
X1862451Y749950D3*
X1762450D3*
X1662450D3*
X1562451Y818701D3*
X1462451Y749950D3*
X1524950Y793701D3*
X1843701Y856201D3*
X1962450Y749950D3*
X2062450D3*
X1937451Y868701D3*
X1356201Y749950D3*
X2612451Y1015576D3*
X3337450Y874951D3*
X3493701Y1368701D3*
X3468701D3*
X2874950Y1381201D3*
X2849950D3*
X1256201Y749950D3*
X1140660Y854096D3*
X1549950Y924950D3*
X1599950Y993701D3*
X1699951D3*
X2274950Y2631201D3*
X2215576Y2131201D3*
X2443701Y2631201D3*
X2212451Y2259325D3*
X2718701Y1699951D3*
X2315576Y2131201D3*
X2415575D3*
X2499950Y2631201D3*
X2556201D3*
X2612451D3*
X2215576Y2362451D3*
X1018701Y937451D3*
X2515577Y2131201D3*
X2331201Y2581201D3*
X981201Y837451D3*
X3024950Y2006201D3*
X2956201Y1968701D3*
X2362451Y2518701D3*
X2081201Y818701D3*
X2162450Y2309325D3*
X1518701Y993701D3*
X2262450Y2309325D3*
X1993701Y912451D3*
X2031201Y981201D3*
X1474950Y1062450D3*
X1581201Y1062451D3*
X1406201Y1381201D3*
X1687451Y1062451D3*
X2106201Y893701D3*
X1156201Y749950D3*
X1562451Y1187451D3*
X2362450Y2309325D3*
X4143701Y1143701D3*
X4293701Y1981201D3*
X3471825Y1618701D3*
X3578076D3*
X1956201Y1143701D3*
X3684325Y1618701D3*
X2918701Y1628076D3*
X3087451Y1637451D3*
X3031201Y1718701D3*
X3168701D3*
X3468701Y1937451D3*
X3990576Y1790576D3*
X1262450Y1381201D3*
X2012451Y1499951D3*
X1956201Y1049951D3*
X3468701Y1853076D3*
X2199951Y912451D3*
X2462449Y2309325D3*
X1962451Y1481201D3*
X2562451Y2309325D3*
X931201Y1509325D3*
X2312451Y2259325D3*
X2412451D3*
X2512450D3*
X2199951Y981201D3*
X2249951Y1015576D3*
X2584325Y1303076D3*
X2137451Y793701D3*
X2199951Y849950D3*
X2187451Y793701D3*
X2249951Y1068701D3*
X2362451Y749950D3*
X2462451D3*
X2574951Y978076D3*
X2537450Y824950D3*
X3624950Y1056201D3*
X2574950Y1053076D3*
X1634325Y1603076D3*
X1628076Y1243701D3*
X1278076Y2343701D3*
X2265577Y2412451D3*
X1309325Y2299951D3*
X3024950Y1393701D3*
X2968701D3*
X3143701D3*
X3237451D3*
X3356201D3*
X3418701D3*
X2315576Y2462450D3*
X3024950Y1243699D3*
X3143701D3*
X3243701D3*
X3356201D3*
X2415576Y2462450D3*
X3896825Y1559325D3*
X3881201Y1262451D3*
X434138Y915575D3*
X434325Y1084325D3*
X687451Y1037451D3*
X593699Y1237450D3*
X687453Y962451D3*
X543701Y2143701D3*
Y2343701D3*
Y2543701D3*
X743701D3*
X2312451Y2359325D3*
X2365577Y2412451D3*
X4293701Y2618701D3*
X1824950Y1062451D3*
X4099950Y2193701D3*
X2465577Y2412451D3*
X4293701Y1793701D3*
Y1581201D3*
Y1368701D3*
X2918701Y2018701D3*
X4043701Y1243701D3*
Y1043701D3*
X4243701D3*
X4143701Y943701D3*
X3943701Y1143701D3*
X4143701Y1343701D3*
X2412451Y2359325D3*
X4043701Y1628076D3*
X2568701Y2221825D3*
X3965576Y1624951D3*
X3793701Y1343701D3*
X3493701Y1293701D3*
X3393701D3*
X2574950Y2131201D3*
X2659325D3*
X2893701Y1243701D3*
X2574950Y1965576D3*
X2799950D3*
X2343701D3*
X2431201D3*
X2518701D3*
X2693701Y1043701D3*
X2893701D3*
X2509327Y1674951D3*
X2459328Y1624951D3*
X2359328D3*
X2559324Y1724950D3*
X2409327Y1674951D3*
X2309327D3*
X2209328D3*
X2362451Y1524950D3*
X2409327Y1574951D3*
X2309327D3*
X2459324Y1724950D3*
X2359323D3*
X3043701Y2431201D3*
X2259325Y1724950D3*
X2687451Y1965576D3*
X2609324Y1771825D3*
X2509323D3*
X2409325D3*
X2093701Y1328076D3*
Y1268701D3*
X2703076Y1393701D3*
X2559323Y1815576D3*
X2459325D3*
X2481201Y1393701D3*
X2324950Y1196825D3*
X2584325D3*
X2899951Y1518701D3*
X2999951Y1553076D3*
X743701Y2343701D3*
Y2143701D3*
X843701Y2243701D3*
Y2043701D3*
X3643701Y1487451D3*
X3362451Y831201D3*
X3393701Y874951D3*
X1618701Y924951D3*
X487450Y1918701D3*
X599950D3*
X712451D3*
X781202Y1687451D3*
X3699950Y1262451D3*
X2749951Y1149950D3*
X3581201Y1162451D3*
X3012451Y818701D3*
X1293701Y856201D3*
X781201Y1362451D3*
Y1149950D3*
X724951Y924951D3*
X649951Y999951D3*
X612451Y1037451D3*
X612453Y962451D3*
X649951Y924951D3*
X574951Y999951D3*
X537451Y1037451D3*
X674953Y1162451D3*
X574951Y924951D3*
X674951Y1237451D3*
X474951Y1037451D3*
X593701Y1087450D3*
X674950D3*
X1087451Y1287451D3*
X1262450D3*
X2421825Y1146827D3*
X2524950D3*
X2462451Y1234325D3*
X1574950Y1537451D3*
X3174950Y2431201D3*
X3306201D3*
X3368701Y2437451D3*
X3506201D3*
X3562451Y2387451D3*
X3432196Y2387828D3*
X3412451Y2162451D3*
X4099951Y2618701D3*
X3699951Y2406199D3*
X3899950Y2406202D3*
X4099950D3*
X1406201Y2478076D3*
X1399951Y2393701D3*
X1449951Y2549951D3*
X1474951Y2474951D3*
X868701Y899950D3*
X1553076Y2549951D3*
X724950Y1131201D3*
Y1156201D3*
Y1181201D3*
Y1206201D3*
Y1231201D3*
X1143701Y1104575D3*
X1359941Y1104248D3*
X1563022Y1105806D3*
X3085707Y1105339D3*
X3302337Y1105136D3*
X3818701Y2293701D3*
X3999950Y2299953D3*
X3943701Y943701D3*
X4043701Y1443701D3*
X4199949Y2299953D3*
X4199950Y2087451D3*
X1699950Y1537451D3*
X2218701Y2631201D3*
X4293701Y2406201D3*
X1959325Y1646825D3*
X4199950Y2512451D3*
X4293701Y2193701D3*
X4199951Y1471825D3*
X2981201Y2243701D3*
X1124950Y2506201D3*
X874951Y1249950D3*
X968701D3*
X3081201Y1056201D3*
Y968701D3*
X3193701Y1056201D3*
Y968701D3*
X3306201Y1056201D3*
X3034325Y2243701D3*
X2756201Y2324951D3*
X3306201Y968701D3*
X2912451Y2431201D3*
X3049951Y2059325D3*
X843701Y1568701D3*
X924950D3*
X3006201Y2006201D3*
X2987451D3*
X3212451Y2162451D3*
X3015576Y1968701D3*
X3146825Y1499950D3*
X3259325D3*
X3574950Y1818702D3*
X3596825Y1953076D3*
X981201Y774950D3*
X1018701Y1012451D3*
X1253076Y943701D3*
X1140276Y947896D3*
X1365576Y943701D3*
X868701Y749950D3*
Y824951D3*
X912451Y1509325D3*
X1640576Y1443701D3*
X2243701Y1393701D3*
X2362451Y1471825D3*
X2665576Y2399951D3*
X2684325D3*
X2703076D3*
X2262451Y749950D3*
X2562451D3*
X2662451D3*
X2762451D3*
X2862451D3*
X2962451D3*
X3062451D3*
X3162451D3*
X3262451D3*
X3362451D3*
X3462451D3*
X3562451D3*
X3662451D3*
X3899951Y1478076D3*
X2162451Y749950D3*
X3968701Y1556201D3*
X4106201Y1581201D3*
X4199951Y1259325D3*
X3549951Y2215576D3*
X1506201Y1637451D3*
X1590576Y1893701D3*
X1665576Y1968701D3*
X2346825Y893701D3*
X2284325Y834325D3*
X2587451Y796825D3*
X2774951Y934325D3*
X2706201D3*
X2653076Y881201D3*
X2687450Y828075D3*
X2831201Y924950D3*
X2743701Y831201D3*
X2874951Y865576D3*
X2884325Y924950D3*
X2912451Y831201D3*
X2787451Y881201D3*
X2962450D3*
X3040576D3*
X1699951Y2003076D3*
X3562451Y965576D3*
X3474950Y1174950D3*
X3587451Y1293701D3*
X3418701Y1056201D3*
X3571825Y878076D3*
X1615576Y2540576D3*
X3690576Y818701D3*
X3781201Y856201D3*
X2590576D3*
X1818701Y2540576D3*
X1643701Y2396825D3*
X2412451Y1049951D3*
X2387451Y849951D3*
X2437451D3*
X1990576Y1449951D3*
X1553076Y1684325D3*
X1474950Y1506201D3*
X2181201Y1524951D3*
X1459257Y1398831D3*
X2112451Y1593701D3*
X1062451Y1396825D3*
X1131201Y1556201D3*
X1396825Y1565576D3*
X1381201Y1549950D3*
X1549950Y1506201D3*
X1531201D3*
X2534325Y1512451D3*
X2621825Y1603076D3*
X3299951Y2618701D3*
X574950Y1724950D3*
X624950D3*
X574950Y1699951D3*
X624950D3*
Y1674951D3*
X574950D3*
Y1574951D3*
X624950D3*
Y1549950D3*
X574950D3*
Y1524950D3*
X599950D3*
X624950D3*
X3399951Y2546825D3*
X3018701Y2387450D3*
X3149950D3*
X3281201D3*
X2887451D3*
X3362451Y1506201D3*
X2356201Y1049951D3*
X499951Y2062451D3*
Y2043701D3*
Y2024951D3*
Y2006201D3*
X699951Y2062451D3*
Y2043701D3*
Y2024951D3*
Y2006201D3*
X571825Y2099951D3*
X590576D3*
X609325D3*
X628076D3*
X553076D3*
X646825D3*
X665576D3*
X534325D3*
X518701Y2081201D3*
X681201D3*
X3828076Y906201D3*
Y837451D3*
X1544272Y1105806D3*
X2822042Y1106720D3*
X2803293D3*
X1525522Y1105806D3*
X3187451Y824950D3*
X3265576Y831201D3*
X2824951Y815576D3*
X3634325Y837451D3*
X3740576Y824951D3*
Y762451D3*
X3690576Y893701D3*
X1034325Y796825D3*
X1068701Y749950D3*
X1562451D3*
X3318701Y1496825D3*
X3868701Y709325D3*
X424413Y2630446D2*
D15*
X2649024D1*
X2738374D2*
X2749026D1*
X2838375D2*
X2849028D1*
X2938378D2*
X2949021D1*
X3038379D2*
X3049022D1*
X3138381D2*
X3149024D1*
X3238374D2*
X4299999D1*
X424413Y2622703D2*
X2647655D1*
X2739743D2*
X2747657D1*
X2839744D2*
X2847659D1*
X2939747D2*
X2947660D1*
X3039748D2*
X3047654D1*
X3139741D2*
X3147655D1*
X3239743D2*
X4299999D1*
X424413Y2614961D2*
X2647633D1*
X2739766D2*
X2747634D1*
X2839768D2*
X2847635D1*
X2939769D2*
X2947636D1*
X3039770D2*
X3047631D1*
X3139765D2*
X3147633D1*
X3239766D2*
X4299999D1*
X424413Y2607218D2*
X457925D1*
X504476D2*
X2648955D1*
X2738444D2*
X2748957D1*
X2838445D2*
X2848958D1*
X2938446D2*
X2948951D1*
X3038448D2*
X3048954D1*
X3138450D2*
X3148955D1*
X3238444D2*
X4211047D1*
X4257606D2*
X4299999D1*
X424413Y2599475D2*
X450459D1*
X511942D2*
X2651747D1*
X2735652D2*
X2751748D1*
X2835654D2*
X2851749D1*
X2935655D2*
X2951751D1*
X3035650D2*
X3051752D1*
X3135651D2*
X3151747D1*
X3235652D2*
X4203589D1*
X4265064D2*
X4299999D1*
X424413Y2591732D2*
X446230D1*
X516172D2*
X2656352D1*
X2731054D2*
X2756354D1*
X2831047D2*
X2856348D1*
X2931050D2*
X2956349D1*
X3031051D2*
X3056350D1*
X3131052D2*
X3156352D1*
X3231054D2*
X4199352D1*
X4269294D2*
X4299999D1*
X424413Y2583990D2*
X444084D1*
X518324D2*
X2663604D1*
X2723803D2*
X2763597D1*
X2823804D2*
X2863598D1*
X2923798D2*
X2963600D1*
X3023799D2*
X3063602D1*
X3123802D2*
X3163604D1*
X3223803D2*
X4197206D1*
X4271446D2*
X4299999D1*
X424413Y2576247D2*
X443646D1*
X518756D2*
X2676730D1*
X2710669D2*
X2776731D1*
X2810671D2*
X2876732D1*
X2910672D2*
X2976734D1*
X3010667D2*
X3076735D1*
X3110668D2*
X3176730D1*
X3210669D2*
X4196776D1*
X4271878D2*
X4299999D1*
X424413Y2568504D2*
X444869D1*
X517533D2*
X1014705D1*
X1072697D2*
X4197991D1*
X4270655D2*
X4299999D1*
X424413Y2560761D2*
X447929D1*
X514472D2*
X1006361D1*
X1081041D2*
X4201051D1*
X4267594D2*
X4299999D1*
X424413Y2553018D2*
X453450D1*
X508959D2*
X1003563D1*
X1083839D2*
X4206572D1*
X4262081D2*
X4299999D1*
X424413Y2545276D2*
X463709D1*
X498701D2*
X1003870D1*
X1083531D2*
X4216829D1*
X4251823D2*
X4299999D1*
X424413Y2537533D2*
X1007446D1*
X1079955D2*
X1390266D1*
X1409634D2*
X4299999D1*
X424413Y2529790D2*
X1018934D1*
X1030966D2*
X1037689D1*
X1049713D2*
X1056436D1*
X1068467D2*
X1381538D1*
X1418369D2*
X4299999D1*
X424413Y2522047D2*
X1373150D1*
X1421291D2*
X4299999D1*
X424413Y2514304D2*
X1367482D1*
X1421100D2*
X4299999D1*
X424413Y2506562D2*
X1357786D1*
X1417661D2*
X4299999D1*
X424413Y2498819D2*
X1353979D1*
X1407711D2*
X4299999D1*
X424413Y2491076D2*
X1353503D1*
X1402560D2*
X4299999D1*
X424413Y2483333D2*
X1356101D1*
X1393802D2*
X4299999D1*
X424413Y2475591D2*
X1363875D1*
X1386020D2*
X4299999D1*
X424413Y2467848D2*
X4299999D1*
X424413Y2460105D2*
X4299999D1*
X424413Y2452362D2*
X4299999D1*
X424413Y2444619D2*
X4299999D1*
X424413Y2436877D2*
X1934765D1*
X1965129D2*
X4299999D1*
X424413Y2429134D2*
X1929659D1*
X1970243D2*
X4299999D1*
X424413Y2421391D2*
X1928344D1*
X1971558D2*
X4299999D1*
X424413Y2413648D2*
X1930005D1*
X1969888D2*
X2649101D1*
X2719550D2*
X3330680D1*
X3344227D2*
X4299999D1*
X424413Y2405906D2*
X1935734D1*
X1964168D2*
X2220760D1*
X2241642D2*
X2644833D1*
X2723818D2*
X3319785D1*
X3355115D2*
X4299999D1*
X424413Y2398163D2*
X2212555D1*
X2249846D2*
X2644042D1*
X2724610D2*
X3316324D1*
X3358584D2*
X4299999D1*
X424413Y2390420D2*
X2209802D1*
X2258436D2*
X2646272D1*
X2722381D2*
X3316101D1*
X3358807D2*
X4299999D1*
X424413Y2382677D2*
X2210140D1*
X2263827D2*
X2653154D1*
X2715499D2*
X3318992D1*
X3355908D2*
X4299999D1*
X424413Y2374934D2*
X2213769D1*
X2273661D2*
X3327635D1*
X3347273D2*
X4299999D1*
X424413Y2367192D2*
X953420D1*
X963706D2*
X1032160D1*
X1042446D2*
X1129185D1*
X1139472D2*
X1207311D1*
X1217597D2*
X2223589D1*
X2277268D2*
X4299999D1*
X424413Y2359449D2*
X941209D1*
X975917D2*
X1019949D1*
X1054657D2*
X1116975D1*
X1151676D2*
X1195100D1*
X1229801D2*
X1338661D1*
X1367496D2*
X2229003D1*
X2277598D2*
X4299999D1*
X424413Y2351706D2*
X937525D1*
X979601D2*
X1016265D1*
X1058341D2*
X1113291D1*
X1155358D2*
X1191416D1*
X1233484D2*
X1333064D1*
X1373093D2*
X2237576D1*
X2274831D2*
X4299999D1*
X424413Y2343963D2*
X937148D1*
X979978D2*
X1015888D1*
X1058718D2*
X1112907D1*
X1155743D2*
X1191031D1*
X1233869D2*
X1331465D1*
X1374685D2*
X2245827D1*
X2266579D2*
X4299999D1*
X424413Y2336220D2*
X939848D1*
X977278D2*
X1018588D1*
X1056018D2*
X1115613D1*
X1153037D2*
X1193739D1*
X1231161D2*
X1332849D1*
X1373302D2*
X1947445D1*
X1980516D2*
X4299999D1*
X424413Y2328478D2*
X947921D1*
X969205D2*
X987799D1*
X1008067D2*
X1026661D1*
X1047945D2*
X1065394D1*
X1087953D2*
X1123680D1*
X1144970D2*
X1166126D1*
X1184071D2*
X1201812D1*
X1223096D2*
X1338077D1*
X1368080D2*
X1943215D1*
X1984745D2*
X4299999D1*
X424413Y2320735D2*
X979379D1*
X1016487D2*
X1057759D1*
X1095588D2*
X1156883D1*
X1193314D2*
X1942446D1*
X1985514D2*
X4299999D1*
X424413Y2312992D2*
X976558D1*
X1019308D2*
X1055213D1*
X1098134D2*
X1153807D1*
X1196390D2*
X1944707D1*
X1983253D2*
X4299999D1*
X424413Y2305249D2*
X976833D1*
X1019033D2*
X1055728D1*
X1097618D2*
X1153885D1*
X1196312D2*
X1238837D1*
X1268840D2*
X1951659D1*
X1976302D2*
X3753139D1*
X3784642D2*
X4299999D1*
X424413Y2297507D2*
X951043D1*
X967613D2*
X980386D1*
X1015480D2*
X1059596D1*
X1093751D2*
X1157168D1*
X1193029D2*
X1233615D1*
X1274062D2*
X3748395D1*
X3789386D2*
X4299999D1*
X424413Y2289764D2*
X941301D1*
X977348D2*
X991705D1*
X1004161D2*
X1073798D1*
X1079549D2*
X1167164D1*
X1183033D2*
X1232224D1*
X1275453D2*
X2878270D1*
X2946629D2*
X3747303D1*
X3790478D2*
X4299999D1*
X424413Y2282021D2*
X938087D1*
X980562D2*
X1233824D1*
X1273853D2*
X2873325D1*
X2951580D2*
X3749202D1*
X3788579D2*
X4299999D1*
X424413Y2274278D2*
X938063D1*
X980593D2*
X1239421D1*
X1268256D2*
X2872096D1*
X2952803D2*
X3755377D1*
X3782404D2*
X4299999D1*
X424413Y2266535D2*
X941201D1*
X977448D2*
X2080319D1*
X2107084D2*
X2873865D1*
X2951042D2*
X4299999D1*
X424413Y2258793D2*
X950667D1*
X967982D2*
X2074059D1*
X2113344D2*
X2879777D1*
X2945129D2*
X4299999D1*
X424413Y2251050D2*
X2072114D1*
X2122764D2*
X4299999D1*
X424413Y2243307D2*
X2073176D1*
X2129323D2*
X4299999D1*
X424413Y2235564D2*
X2077850D1*
X2137404D2*
X3805382D1*
X3838268D2*
X4299999D1*
X424413Y2227822D2*
X2086948D1*
X2140118D2*
X3801091D1*
X3842559D2*
X4299999D1*
X424413Y2220079D2*
X2093921D1*
X2139734D2*
X2221944D1*
X2234214D2*
X3800283D1*
X3843366D2*
X4299999D1*
X424413Y2212336D2*
X2101341D1*
X2136058D2*
X2210547D1*
X2245610D2*
X3802499D1*
X3841152D2*
X3886736D1*
X3906912D2*
X4299999D1*
X424413Y2204593D2*
X2113514D1*
X2123886D2*
X2206987D1*
X2249171D2*
X3809343D1*
X3834308D2*
X3878286D1*
X3915362D2*
X4299999D1*
X424413Y2196850D2*
X1821399D1*
X1841005D2*
X2127647D1*
X2147255D2*
X2206696D1*
X2249462D2*
X3875449D1*
X3918201D2*
X4299999D1*
X424413Y2189108D2*
X1760629D1*
X1770524D2*
X1812748D1*
X1849656D2*
X2118997D1*
X2155904D2*
X2209509D1*
X2246648D2*
X3875726D1*
X3917924D2*
X4299999D1*
X424413Y2181365D2*
X1748257D1*
X1782896D2*
X1809849D1*
X1852555D2*
X2116098D1*
X2158803D2*
X2217891D1*
X2238266D2*
X3837316D1*
X3856331D2*
X3876224D1*
X3917432D2*
X4299999D1*
X424413Y2173622D2*
X1744550D1*
X1786602D2*
X1810064D1*
X1852332D2*
X1970752D1*
X1979147D2*
X1989507D1*
X1997894D2*
X2008253D1*
X2016648D2*
X2116322D1*
X2158580D2*
X3492121D1*
X3500516D2*
X3589508D1*
X3597895D2*
X3828458D1*
X3865189D2*
X3875256D1*
X3918400D2*
X4299999D1*
X424413Y2165879D2*
X1744151D1*
X1786995D2*
X1813533D1*
X1848871D2*
X1957734D1*
X2029667D2*
X2119781D1*
X2155121D2*
X3479102D1*
X3513526D2*
X3576490D1*
X3610913D2*
X3825497D1*
X3868157D2*
X3877294D1*
X3916362D2*
X4299999D1*
X424413Y2158136D2*
X1746843D1*
X1784311D2*
X1824398D1*
X1837999D2*
X1953958D1*
X2033442D2*
X2130647D1*
X2144248D2*
X3475327D1*
X3517310D2*
X3572714D1*
X3614689D2*
X3825667D1*
X3867988D2*
X3875302D1*
X3918346D2*
X4299999D1*
X424413Y2150394D2*
X1716076D1*
X1733822D2*
X1754862D1*
X1776291D2*
X1953512D1*
X2033896D2*
X3474873D1*
X3517756D2*
X3572260D1*
X3615143D2*
X3829058D1*
X3864597D2*
X3876041D1*
X3917615D2*
X4299999D1*
X424413Y2142651D2*
X1706764D1*
X1743134D2*
X1956134D1*
X2031266D2*
X3477503D1*
X3515134D2*
X3574882D1*
X3612521D2*
X3839584D1*
X3854070D2*
X3880223D1*
X3913433D2*
X4299999D1*
X424413Y2134908D2*
X1703673D1*
X1746232D2*
X1963978D1*
X2023423D2*
X3485346D1*
X3507282D2*
X3582734D1*
X3604669D2*
X4299999D1*
X424413Y2127165D2*
X1703735D1*
X1746172D2*
X4299999D1*
X424413Y2119423D2*
X526147D1*
X673752D2*
X1706987D1*
X1742919D2*
X4299999D1*
X424413Y2111680D2*
X516327D1*
X683571D2*
X1716907D1*
X1733000D2*
X4299999D1*
X424413Y2103937D2*
X513097D1*
X686808D2*
X1970814D1*
X1997840D2*
X4299999D1*
X424413Y2096194D2*
X503455D1*
X696444D2*
X1964638D1*
X2004014D2*
X4299999D1*
X424413Y2088451D2*
X498387D1*
X701510D2*
X1962739D1*
X2005913D2*
X4299999D1*
X424413Y2080709D2*
X489144D1*
X710761D2*
X1963831D1*
X2004822D2*
X4299999D1*
X424413Y2072966D2*
X481186D1*
X538617D2*
X661281D1*
X718720D2*
X1968575D1*
X2000077D2*
X2011806D1*
X2038094D2*
X4299999D1*
X424413Y2065223D2*
X478526D1*
X532850D2*
X667056D1*
X721381D2*
X2005392D1*
X2044508D2*
X4299999D1*
X424413Y2057480D2*
X478941D1*
X520962D2*
X678936D1*
X720966D2*
X2003378D1*
X2046522D2*
X4299999D1*
X424413Y2049738D2*
X479234D1*
X520671D2*
X679228D1*
X720673D2*
X2004362D1*
X2045538D2*
X4299999D1*
X424413Y2041995D2*
X478411D1*
X521493D2*
X678406D1*
X721496D2*
X2008929D1*
X2040970D2*
X4299999D1*
X424413Y2034252D2*
X480533D1*
X519370D2*
X680528D1*
X719374D2*
X4299999D1*
X424413Y2026509D2*
X478395D1*
X521508D2*
X678398D1*
X721504D2*
X1878024D1*
X1903129D2*
X2982047D1*
X2992857D2*
X3000794D1*
X3011604D2*
X3019541D1*
X3030358D2*
X4299999D1*
X424413Y2018766D2*
X479280D1*
X520623D2*
X679274D1*
X720627D2*
X1871227D1*
X1909927D2*
X2970051D1*
X3042346D2*
X4299999D1*
X424413Y2011024D2*
X478903D1*
X521001D2*
X678906D1*
X720996D2*
X1869028D1*
X1912118D2*
X1942085D1*
X1951572D2*
X2966407D1*
X3045999D2*
X4299999D1*
X424413Y2003281D2*
X478541D1*
X521362D2*
X678545D1*
X721357D2*
X1869858D1*
X1911295D2*
X1929535D1*
X1964114D2*
X2966046D1*
X3046361D2*
X4299999D1*
X424413Y1995538D2*
X481270D1*
X518633D2*
X681274D1*
X718627D2*
X1874180D1*
X1906974D2*
X1925815D1*
X1967844D2*
X2968776D1*
X3043631D2*
X4299999D1*
X424413Y1987795D2*
X489413D1*
X510482D2*
X689417D1*
X710484D2*
X1925399D1*
X1968251D2*
X2172100D1*
X2190307D2*
X2976919D1*
X3035488D2*
X4299999D1*
X424413Y1980052D2*
X1928067D1*
X1965583D2*
X1994004D1*
X1999647D2*
X2162950D1*
X2199450D2*
X2227941D1*
X2259459D2*
X4299999D1*
X424413Y1972310D2*
X1936034D1*
X1957617D2*
X1979756D1*
X2013895D2*
X2159904D1*
X2202503D2*
X2223205D1*
X2264196D2*
X4299999D1*
X424413Y1964567D2*
X1975881D1*
X2017772D2*
X2160005D1*
X2202403D2*
X2222113D1*
X2265287D2*
X4299999D1*
X424413Y1956824D2*
X1975365D1*
X2018286D2*
X2163303D1*
X2199097D2*
X2224012D1*
X2263388D2*
X2292387D1*
X2320021D2*
X4299999D1*
X424413Y1949081D2*
X1977903D1*
X2015749D2*
X2173423D1*
X2188978D2*
X2230202D1*
X2257206D2*
X2286404D1*
X2325996D2*
X4299999D1*
X424413Y1941339D2*
X1985538D1*
X2008113D2*
X2284597D1*
X2327803D2*
X4299999D1*
X424413Y1933596D2*
X2232470D1*
X2254929D2*
X2285789D1*
X2326612D2*
X4299999D1*
X424413Y1925853D2*
X2224797D1*
X2262604D2*
X2290680D1*
X2321720D2*
X3526646D1*
X3542008D2*
X4299999D1*
X424413Y1918110D2*
X2222243D1*
X2265156D2*
X3516450D1*
X3552197D2*
X4299999D1*
X424413Y1910367D2*
X1992675D1*
X2007222D2*
X2011429D1*
X2025976D2*
X2222751D1*
X2264657D2*
X2298930D1*
X2313470D2*
X3513136D1*
X3555518D2*
X4299999D1*
X424413Y1902625D2*
X1982178D1*
X2036479D2*
X2226604D1*
X2260797D2*
X2288427D1*
X2323974D2*
X3513021D1*
X3555634D2*
X4299999D1*
X424413Y1894882D2*
X1773786D1*
X1803743D2*
X1974366D1*
X2039864D2*
X2240567D1*
X2246833D2*
X2285035D1*
X2327365D2*
X3516058D1*
X3552597D2*
X3574083D1*
X3607070D2*
X4299999D1*
X424413Y1887139D2*
X1768542D1*
X1808979D2*
X1967915D1*
X2040031D2*
X2284874D1*
X2327526D2*
X3525147D1*
X3543500D2*
X3569823D1*
X3611329D2*
X4299999D1*
X424413Y1879396D2*
X1767150D1*
X1810371D2*
X1965877D1*
X2037056D2*
X2227333D1*
X2260067D2*
X2287843D1*
X2324558D2*
X3569038D1*
X3612113D2*
X4299999D1*
X424413Y1871654D2*
X1768741D1*
X1808787D2*
X1966853D1*
X2028190D2*
X2222997D1*
X2264411D2*
X2296715D1*
X2315692D2*
X3571276D1*
X3609875D2*
X4299999D1*
X424413Y1863911D2*
X1774324D1*
X1803205D2*
X1971398D1*
X2003507D2*
X2222151D1*
X2265249D2*
X3578181D1*
X3602970D2*
X4299999D1*
X424413Y1856168D2*
X2224335D1*
X2263066D2*
X2291602D1*
X2320798D2*
X4299999D1*
X424413Y1848425D2*
X2231101D1*
X2256306D2*
X2286119D1*
X2326281D2*
X4299999D1*
X424413Y1840682D2*
X2284589D1*
X2327818D2*
X4299999D1*
X424413Y1832940D2*
X2231409D1*
X2255991D2*
X2286035D1*
X2326365D2*
X2649593D1*
X2681564D2*
X4299999D1*
X424413Y1825197D2*
X2224442D1*
X2262958D2*
X2291371D1*
X2321029D2*
X2645003D1*
X2686155D2*
X4299999D1*
X424413Y1817454D2*
X2222175D1*
X2265234D2*
X2640051D1*
X2687155D2*
X4299999D1*
X424413Y1809711D2*
X2222928D1*
X2264472D2*
X2297193D1*
X2315207D2*
X2626547D1*
X2685148D2*
X4299999D1*
X424413Y1801969D2*
X2227150D1*
X2260259D2*
X2287980D1*
X2324420D2*
X2622734D1*
X2678765D2*
X4299999D1*
X424413Y1794226D2*
X2284912D1*
X2327495D2*
X2622249D1*
X2665155D2*
X4299999D1*
X424413Y1786483D2*
X2284990D1*
X2327411D2*
X2624833D1*
X2662564D2*
X4299999D1*
X424413Y1778740D2*
X2104933D1*
X2169969D2*
X2288281D1*
X2324127D2*
X2632584D1*
X2654812D2*
X4299999D1*
X424413Y1770997D2*
X2098920D1*
X2175982D2*
X2298315D1*
X2314092D2*
X2826051D1*
X2848849D2*
X4299999D1*
X424413Y1763255D2*
X2097105D1*
X2177797D2*
X2818492D1*
X2856408D2*
X4299999D1*
X424413Y1755512D2*
X2098274D1*
X2176627D2*
X2815978D1*
X2865251D2*
X4299999D1*
X424413Y1747769D2*
X2103142D1*
X2171760D2*
X2730294D1*
X2757106D2*
X2816524D1*
X2870280D2*
X4299999D1*
X424413Y1740026D2*
X559795D1*
X640102D2*
X2724050D1*
X2763349D2*
X2820430D1*
X2880299D2*
X4299999D1*
X424413Y1732283D2*
X554667D1*
X645232D2*
X2722113D1*
X2765287D2*
X2830058D1*
X2883636D2*
X4299999D1*
X424413Y1724541D2*
X553336D1*
X646562D2*
X2723181D1*
X2764219D2*
X2835870D1*
X2883766D2*
X4299999D1*
X424413Y1716798D2*
X554997D1*
X644902D2*
X2727871D1*
X2759528D2*
X2844152D1*
X2880745D2*
X4299999D1*
X424413Y1709055D2*
X555428D1*
X644471D2*
X2853180D1*
X2871724D2*
X4299999D1*
X424413Y1701312D2*
X553383D1*
X646524D2*
X4299999D1*
X424413Y1693570D2*
X554336D1*
X645563D2*
X4299999D1*
X424413Y1685827D2*
X556404D1*
X643501D2*
X4299999D1*
X424413Y1678084D2*
X553575D1*
X646324D2*
X2254093D1*
X2279613D2*
X4299999D1*
X424413Y1670341D2*
X553852D1*
X646047D2*
X2247427D1*
X2286272D2*
X4299999D1*
X424413Y1662598D2*
X557396D1*
X642503D2*
X2238199D1*
X2288409D2*
X4299999D1*
X424413Y1654856D2*
X568693D1*
X631206D2*
X2232133D1*
X2287525D2*
X4299999D1*
X424413Y1647113D2*
X578528D1*
X621371D2*
X2223428D1*
X2283119D2*
X4299999D1*
X424413Y1639370D2*
X581226D1*
X618672D2*
X2059104D1*
X2065791D2*
X2220505D1*
X2273839D2*
X2687264D1*
X2718890D2*
X4299999D1*
X424413Y1631627D2*
X579434D1*
X620465D2*
X2045332D1*
X2079564D2*
X2220713D1*
X2267286D2*
X2682558D1*
X2724487D2*
X4299999D1*
X424413Y1623885D2*
X578366D1*
X621541D2*
X2041495D1*
X2083408D2*
X2224157D1*
X2259551D2*
X2681490D1*
X2733768D2*
X4299999D1*
X424413Y1616142D2*
X580287D1*
X619610D2*
X1917318D1*
X1945091D2*
X2040995D1*
X2083908D2*
X2234924D1*
X2248778D2*
X2683419D1*
X2741966D2*
X4299999D1*
X424413Y1608399D2*
X580126D1*
X619772D2*
X1911374D1*
X1951026D2*
X2043563D1*
X2081340D2*
X2689648D1*
X2747902D2*
X4299999D1*
X424413Y1600656D2*
X578350D1*
X621556D2*
X1872980D1*
X1889419D2*
X1909597D1*
X1952803D2*
X2051260D1*
X2073635D2*
X2697622D1*
X2749677D2*
X4299999D1*
X424413Y1592913D2*
X563625D1*
X636281D2*
X1101119D1*
X1123778D2*
X1863192D1*
X1899207D2*
X1910812D1*
X1951588D2*
X2707580D1*
X2748463D2*
X4299999D1*
X424413Y1585171D2*
X556012D1*
X643886D2*
X1093514D1*
X1131383D2*
X1388982D1*
X1404667D2*
X1859970D1*
X1902437D2*
X1915741D1*
X1946659D2*
X2073913D1*
X2100987D2*
X2712615D1*
X2743534D2*
X4299999D1*
X424413Y1577428D2*
X553483D1*
X646416D2*
X1090984D1*
X1133920D2*
X1378908D1*
X1414740D2*
X1816993D1*
X1839160D2*
X1859930D1*
X1902467D2*
X2067755D1*
X2107146D2*
X4299999D1*
X424413Y1569685D2*
X554013D1*
X645886D2*
X1091514D1*
X1147862D2*
X1373757D1*
X1418031D2*
X1809219D1*
X1846934D2*
X1863060D1*
X1899339D2*
X2065862D1*
X2109038D2*
X4299999D1*
X424413Y1561942D2*
X557135D1*
X642764D2*
X1095398D1*
X1152007D2*
X1363383D1*
X1418123D2*
X1806627D1*
X1849525D2*
X1872488D1*
X1889919D2*
X2066962D1*
X2107938D2*
X4299999D1*
X424413Y1554199D2*
X553774D1*
X646123D2*
X1109685D1*
X1152722D2*
X1360024D1*
X1424975D2*
X1764912D1*
X1791247D2*
X1807104D1*
X1849049D2*
X2071714D1*
X2103186D2*
X2602411D1*
X2628738D2*
X4299999D1*
X424413Y1546457D2*
X553629D1*
X646270D2*
X1112007D1*
X1150391D2*
X1359885D1*
X1427635D2*
X1758507D1*
X1797644D2*
X1810911D1*
X1845243D2*
X2596013D1*
X2635143D2*
X4299999D1*
X424413Y1538714D2*
X556627D1*
X643270D2*
X1119105D1*
X1143302D2*
X1362877D1*
X1427213D2*
X1756500D1*
X1799652D2*
X1824306D1*
X1831848D2*
X2593999D1*
X2644493D2*
X4299999D1*
X424413Y1530971D2*
X554228D1*
X645677D2*
X1371835D1*
X1423475D2*
X1757500D1*
X1798660D2*
X2594997D1*
X2650891D2*
X4299999D1*
X424413Y1523228D2*
X553406D1*
X646493D2*
X896156D1*
X966244D2*
X1401585D1*
X1410811D2*
X1518419D1*
X1581479D2*
X1762075D1*
X1794077D2*
X2599573D1*
X2659188D2*
X4299999D1*
X424413Y1515486D2*
X555613D1*
X644286D2*
X891765D1*
X970635D2*
X1511768D1*
X1588130D2*
X2608739D1*
X2661971D2*
X3308665D1*
X3328741D2*
X4299999D1*
X424413Y1507743D2*
X562433D1*
X637472D2*
X890896D1*
X971504D2*
X1509644D1*
X1590260D2*
X2615552D1*
X2661648D2*
X3300176D1*
X3337222D2*
X4299999D1*
X424413Y1500000D2*
X893042D1*
X969358D2*
X1510529D1*
X1589367D2*
X1738238D1*
X1767409D2*
X1789419D1*
X1818591D2*
X1840600D1*
X1869772D2*
X1891781D1*
X1920953D2*
X2623096D1*
X2658058D2*
X3297331D1*
X3340075D2*
X4299999D1*
X424413Y1492257D2*
X899732D1*
X962676D2*
X1514944D1*
X1584962D2*
X1732747D1*
X1772900D2*
X1783928D1*
X1824081D2*
X1835109D1*
X1875262D2*
X1886290D1*
X1926444D2*
X2634692D1*
X2646462D2*
X3297592D1*
X3339806D2*
X4299999D1*
X424413Y1484514D2*
X1731209D1*
X1774438D2*
X1782390D1*
X1825619D2*
X1833571D1*
X1876801D2*
X1884752D1*
X1927982D2*
X3301114D1*
X3336285D2*
X4299999D1*
X424413Y1476772D2*
X1732655D1*
X1772984D2*
X1783836D1*
X1824165D2*
X1835017D1*
X1875346D2*
X1886198D1*
X1926528D2*
X3312295D1*
X3325112D2*
X4299999D1*
X424413Y1469029D2*
X1737984D1*
X1767664D2*
X1789165D1*
X1818845D2*
X1840346D1*
X1870026D2*
X1891528D1*
X1921207D2*
X4299999D1*
X424413Y1461286D2*
X4299999D1*
X424413Y1453543D2*
X2345167D1*
X2379238D2*
X4299999D1*
X424413Y1445801D2*
X2315770D1*
X2408634D2*
X4299999D1*
X424413Y1438058D2*
X2299915D1*
X2424497D2*
X4299999D1*
X424413Y1430315D2*
X2288188D1*
X2436217D2*
X4299999D1*
X424413Y1422572D2*
X2278823D1*
X2445591D2*
X4299999D1*
X424413Y1414829D2*
X2271071D1*
X2453333D2*
X4299999D1*
X424413Y1407087D2*
X1995703D1*
X2029190D2*
X2264559D1*
X2459854D2*
X4299999D1*
X424413Y1399344D2*
X1991613D1*
X2033289D2*
X2259038D1*
X2465367D2*
X2838938D1*
X2910965D2*
X4299999D1*
X424413Y1391601D2*
X1990944D1*
X2033958D2*
X2254362D1*
X2470050D2*
X2831118D1*
X2918785D2*
X3161651D1*
X3188247D2*
X4299999D1*
X424413Y1383858D2*
X1993304D1*
X2031589D2*
X2250417D1*
X2473995D2*
X2828504D1*
X2921391D2*
X3155337D1*
X3194567D2*
X3453627D1*
X3533773D2*
X4299999D1*
X424413Y1376115D2*
X2000503D1*
X2024399D2*
X2247126D1*
X2477278D2*
X2752440D1*
X2766210D2*
X2828966D1*
X2920937D2*
X3111815D1*
X3125585D2*
X3153369D1*
X3196528D2*
X3448453D1*
X3538948D2*
X4299999D1*
X424413Y1368373D2*
X2033198D1*
X2054203D2*
X2244442D1*
X2479962D2*
X2741636D1*
X2777014D2*
X2832756D1*
X2917147D2*
X3101012D1*
X3136388D2*
X3154399D1*
X3195497D2*
X3447091D1*
X3540308D2*
X4299999D1*
X424413Y1360630D2*
X2025031D1*
X2062370D2*
X2242328D1*
X2482084D2*
X2738192D1*
X2780466D2*
X2845906D1*
X2853993D2*
X2870912D1*
X2878992D2*
X2895909D1*
X2903990D2*
X3097567D1*
X3139841D2*
X3159043D1*
X3190861D2*
X3448714D1*
X3538686D2*
X4299999D1*
X424413Y1352887D2*
X2022294D1*
X2065108D2*
X2240736D1*
X2483668D2*
X2737976D1*
X2780675D2*
X2836593D1*
X2857062D2*
X3097350D1*
X3140049D2*
X3454358D1*
X3533042D2*
X4299999D1*
X424413Y1345144D2*
X2022648D1*
X2064753D2*
X2239668D1*
X2484745D2*
X2740890D1*
X2777760D2*
X2828243D1*
X2865412D2*
X3100265D1*
X3137135D2*
X4299999D1*
X424413Y1337402D2*
X2026293D1*
X2061109D2*
X2239091D1*
X2485322D2*
X2749572D1*
X2769079D2*
X2825436D1*
X2868211D2*
X3108946D1*
X3128453D2*
X4299999D1*
X424413Y1329659D2*
X2038219D1*
X2049182D2*
X2238999D1*
X2485406D2*
X2825744D1*
X2867911D2*
X4299999D1*
X424413Y1321916D2*
X2239407D1*
X2484999D2*
X2829311D1*
X2864336D2*
X4299999D1*
X424413Y1314173D2*
X2240306D1*
X2484098D2*
X2840785D1*
X2852870D2*
X4299999D1*
X424413Y1306430D2*
X2241713D1*
X2482692D2*
X4299999D1*
X424413Y1298688D2*
X2027831D1*
X2059571D2*
X2243651D1*
X2480761D2*
X4299999D1*
X424413Y1290945D2*
X2023163D1*
X2064239D2*
X2246127D1*
X2478278D2*
X4299999D1*
X424413Y1283202D2*
X2022117D1*
X2065285D2*
X2249202D1*
X2475210D2*
X4299999D1*
X424413Y1275459D2*
X2024071D1*
X2063331D2*
X2252909D1*
X2471504D2*
X4299999D1*
X424413Y1267717D2*
X2030353D1*
X2057049D2*
X2257323D1*
X2467089D2*
X4299999D1*
X424413Y1259974D2*
X2262537D1*
X2461869D2*
X4299999D1*
X424413Y1252231D2*
X2268688D1*
X2455724D2*
X4299999D1*
X424413Y1244488D2*
X708126D1*
X741773D2*
X2275970D1*
X2448436D2*
X4299999D1*
X424413Y1236745D2*
X704088D1*
X745810D2*
X2284713D1*
X2439693D2*
X4299999D1*
X562201Y1229003D2*
X703450D1*
X746449D2*
X2295501D1*
X2428912D2*
X4162203D1*
X562209Y1221260D2*
X705865D1*
X744042D2*
X2309580D1*
X2414832D2*
X4162203D1*
X562209Y1213517D2*
X704665D1*
X745234D2*
X2331257D1*
X2393156D2*
X4162203D1*
X562209Y1205774D2*
X703343D1*
X746563D2*
X4162203D1*
X562209Y1198031D2*
X705004D1*
X744895D2*
X4162203D1*
X562209Y1190289D2*
X705427D1*
X744480D2*
X4162203D1*
X562209Y1182546D2*
X703381D1*
X746517D2*
X4162203D1*
X562209Y1174803D2*
X704343D1*
X745556D2*
X4162203D1*
X562209Y1167060D2*
X706387D1*
X743510D2*
X4162203D1*
X562209Y1159318D2*
X703573D1*
X746333D2*
X4162203D1*
X562209Y1151575D2*
X703858D1*
X746041D2*
X4162203D1*
X562209Y1143832D2*
X707411D1*
X742496D2*
X4162203D1*
X562209Y1136089D2*
X703920D1*
X745979D2*
X4162203D1*
X562209Y1128346D2*
X703535D1*
X746371D2*
X4162203D1*
X562209Y1120604D2*
X706234D1*
X743664D2*
X846621D1*
X915778D2*
X1129615D1*
X1157789D2*
X1346259D1*
X1373625D2*
X1510083D1*
X1578465D2*
X2786980D1*
X2856885D2*
X3070753D1*
X3100664D2*
X3287604D1*
X3317068D2*
X3440370D1*
X3509528D2*
X4162203D1*
X562209Y1112861D2*
X704127D1*
X745772D2*
X841930D1*
X920469D2*
X1123803D1*
X1163594D2*
X1340192D1*
X1379692D2*
X1505139D1*
X1583408D2*
X2782606D1*
X2861168D2*
X3065501D1*
X3105916D2*
X3282206D1*
X3322466D2*
X3435680D1*
X3514219D2*
X4162203D1*
X562209Y1105118D2*
X703434D1*
X746463D2*
X840869D1*
X921538D2*
X1122096D1*
X1165308D2*
X1338346D1*
X1381537D2*
X1503916D1*
X1584623D2*
X2781736D1*
X2861967D2*
X3064094D1*
X3107323D2*
X3280722D1*
X3323950D2*
X3434612D1*
X3515287D2*
X4162203D1*
X562209Y1097375D2*
X705787D1*
X744118D2*
X842799D1*
X919600D2*
X1123373D1*
X1164033D2*
X1339492D1*
X1380391D2*
X1505693D1*
X1582854D2*
X2783890D1*
X2859745D2*
X3065678D1*
X3105739D2*
X3282222D1*
X3322451D2*
X3436549D1*
X3513349D2*
X4162203D1*
X424413Y1089633D2*
X712940D1*
X736967D2*
X849043D1*
X913356D2*
X1128408D1*
X1158996D2*
X1344314D1*
X1375562D2*
X1511613D1*
X1576934D2*
X2790602D1*
X2852886D2*
X3071245D1*
X3100172D2*
X3287642D1*
X3317030D2*
X3442793D1*
X3507106D2*
X4299999D1*
X424413Y1081890D2*
X4299999D1*
X424413Y1074147D2*
X4299999D1*
X424413Y1066404D2*
X4299999D1*
X424413Y1058661D2*
X4299999D1*
X424413Y1050919D2*
X4299999D1*
X424413Y1043176D2*
X4299999D1*
X424413Y1035433D2*
X2605386D1*
X2619518D2*
X4299999D1*
X424413Y1027690D2*
X2594722D1*
X2630184D2*
X4299999D1*
X424413Y1019948D2*
X2591299D1*
X2633605D2*
X3439770D1*
X3472634D2*
X4299999D1*
X424413Y1012205D2*
X2591114D1*
X2633790D2*
X3435472D1*
X3476932D2*
X4299999D1*
X424413Y1004462D2*
X471682D1*
X490711D2*
X2594052D1*
X2630853D2*
X3434657D1*
X3477740D2*
X4299999D1*
X424413Y996719D2*
X456534D1*
X505860D2*
X2602825D1*
X2622079D2*
X3436871D1*
X3475533D2*
X4299999D1*
X424413Y988976D2*
X449690D1*
X512711D2*
X3443707D1*
X3468697D2*
X4299999D1*
X424413Y981234D2*
X445799D1*
X516602D2*
X1646417D1*
X1665986D2*
X1840169D1*
X1859730D2*
X1966684D1*
X1995718D2*
X4299999D1*
X424413Y973491D2*
X443915D1*
X518487D2*
X1637752D1*
X1674652D2*
X1755831D1*
X1788909D2*
X1831503D1*
X1868395D2*
X1961147D1*
X2001255D2*
X2474550D1*
X2507252D2*
X4299999D1*
X424413Y965748D2*
X443723D1*
X518678D2*
X1404337D1*
X1433064D2*
X1473089D1*
X1501808D2*
X1634853D1*
X1677551D2*
X1751602D1*
X1793139D2*
X1828596D1*
X1871302D2*
X1959587D1*
X2002815D2*
X2470198D1*
X2511604D2*
X4299999D1*
X424413Y958005D2*
X445192D1*
X517210D2*
X1398709D1*
X1438693D2*
X1467461D1*
X1507444D2*
X1635068D1*
X1677335D2*
X1750840D1*
X1793900D2*
X1828819D1*
X1871087D2*
X1961009D1*
X2001392D2*
X2240276D1*
X2272123D2*
X2469352D1*
X2512450D2*
X3090269D1*
X3121640D2*
X3202528D1*
X3234375D2*
X3320192D1*
X3346849D2*
X4299999D1*
X424413Y950262D2*
X448552D1*
X513849D2*
X1397087D1*
X1440315D2*
X1465839D1*
X1509067D2*
X1638528D1*
X1673875D2*
X1697022D1*
X1715383D2*
X1753101D1*
X1791639D2*
X1832272D1*
X1867626D2*
X1966299D1*
X1996102D2*
X2235646D1*
X2276752D2*
X2471521D1*
X2510282D2*
X2529499D1*
X2557895D2*
X3085486D1*
X3126424D2*
X3197899D1*
X3239005D2*
X3313902D1*
X3353147D2*
X4299999D1*
X424413Y942520D2*
X454534D1*
X507867D2*
X1398455D1*
X1438946D2*
X1467207D1*
X1507698D2*
X1649370D1*
X1663025D2*
X1687933D1*
X1724471D2*
X1760060D1*
X1784680D2*
X1800476D1*
X1824420D2*
X1843114D1*
X1856785D2*
X1875479D1*
X1899423D2*
X1928605D1*
X1952549D2*
X2234623D1*
X2277783D2*
X2478264D1*
X2503530D2*
X2523762D1*
X2563631D2*
X3084364D1*
X3127546D2*
X3196875D1*
X3240035D2*
X3311941D1*
X3355108D2*
X3381731D1*
X3405675D2*
X4299999D1*
X424413Y934777D2*
X466122D1*
X496280D2*
X1403646D1*
X1433756D2*
X1472398D1*
X1502508D2*
X1684895D1*
X1727509D2*
X1793302D1*
X1831601D2*
X1868297D1*
X1906605D2*
X1921424D1*
X1959723D2*
X2236592D1*
X2275807D2*
X2522087D1*
X2565307D2*
X2603594D1*
X2621310D2*
X2910920D1*
X2938984D2*
X3086232D1*
X3125677D2*
X3198852D1*
X3238059D2*
X3312987D1*
X3354063D2*
X3374549D1*
X3412848D2*
X3723420D1*
X3751478D2*
X4299999D1*
X424413Y927034D2*
X1685010D1*
X1727394D2*
X1790941D1*
X1833962D2*
X1865944D1*
X1908958D2*
X1919063D1*
X1962084D2*
X2242928D1*
X2269478D2*
X2523402D1*
X2563992D2*
X2594276D1*
X2630630D2*
X2905076D1*
X2944829D2*
X3092353D1*
X3119549D2*
X3205180D1*
X3231731D2*
X3317639D1*
X3349411D2*
X3372188D1*
X3415209D2*
X3717576D1*
X3757329D2*
X4299999D1*
X424413Y919291D2*
X1688325D1*
X1724072D2*
X1791618D1*
X1833278D2*
X1866621D1*
X1908281D2*
X1919747D1*
X1961407D2*
X2453934D1*
X2470966D2*
X2528500D1*
X2558902D2*
X2591169D1*
X2633728D2*
X2903345D1*
X2946559D2*
X3138990D1*
X3155189D2*
X3251224D1*
X3268740D2*
X3372873D1*
X3414533D2*
X3715845D1*
X3759059D2*
X4299999D1*
X424413Y911549D2*
X1698521D1*
X1713883D2*
X1795724D1*
X1829180D2*
X1870719D1*
X1904182D2*
X1923846D1*
X1957301D2*
X2263428D1*
X2286472D2*
X2444361D1*
X2480539D2*
X2591230D1*
X2633675D2*
X2904606D1*
X2945298D2*
X3129109D1*
X3165063D2*
X3241828D1*
X3278136D2*
X3376971D1*
X3410427D2*
X3717106D1*
X3757798D2*
X4299999D1*
X847634Y903806D2*
X2255954D1*
X2293946D2*
X2441193D1*
X2483707D2*
X2594483D1*
X2630421D2*
X2909613D1*
X2940293D2*
X3125864D1*
X3168308D2*
X3238706D1*
X3281259D2*
X3722105D1*
X3752793D2*
X3876770D1*
X847642Y896063D2*
X2253470D1*
X2296429D2*
X2441201D1*
X2483699D2*
X2604387D1*
X2620518D2*
X3125810D1*
X3168369D2*
X3238752D1*
X3281213D2*
X3717699D1*
X3757198D2*
X3876770D1*
X847642Y888320D2*
X2254039D1*
X2295861D2*
X2444385D1*
X2480516D2*
X3128916D1*
X3165262D2*
X3241982D1*
X3277983D2*
X3715853D1*
X3759051D2*
X3876770D1*
X847642Y880577D2*
X2257992D1*
X2291908D2*
X2454020D1*
X2470881D2*
X3138259D1*
X3155912D2*
X3251810D1*
X3268156D2*
X3717007D1*
X3757898D2*
X3876770D1*
X847642Y872835D2*
X3721828D1*
X3753076D2*
X3767881D1*
X3794522D2*
X3876770D1*
X847642Y865092D2*
X3717829D1*
X3757067D2*
X3761583D1*
X3800820D2*
X3876770D1*
X847642Y857349D2*
X3715869D1*
X3802781D2*
X3876770D1*
X847642Y849606D2*
X3716907D1*
X3801743D2*
X3876770D1*
X847642Y841864D2*
X3721559D1*
X3753345D2*
X3760060D1*
X3802343D2*
X3876770D1*
X847642Y834121D2*
X1037412D1*
X1068575D2*
X3759853D1*
X3802551D2*
X3876770D1*
X847642Y826378D2*
X1032559D1*
X1073428D2*
X3761052D1*
X3801350D2*
X3837454D1*
X3862944D2*
X3876770D1*
X847642Y818635D2*
X1031391D1*
X1074589D2*
X3759584D1*
X3802812D2*
X3830780D1*
X3869618D2*
X3876770D1*
X847642Y810892D2*
X1033220D1*
X1072759D2*
X3761106D1*
X3801297D2*
X3828643D1*
X3871756D2*
X3876770D1*
X847642Y803150D2*
X1039257D1*
X1066730D2*
X3759837D1*
X3802566D2*
X3829520D1*
X3870871D2*
X3876770D1*
X847642Y795407D2*
X3760091D1*
X3802312D2*
X3833917D1*
X3866480D2*
X3876770D1*
X847642Y787664D2*
X3760614D1*
X3801789D2*
X3876770D1*
X847642Y779921D2*
X3759630D1*
X3802773D2*
X3876770D1*
X847642Y772178D2*
X3761644D1*
X3800759D2*
X3876770D1*
X847642Y764436D2*
X3768058D1*
X3794346D2*
X3876770D1*
X847642Y756693D2*
X3876770D1*
X847642Y748950D2*
X3876770D1*
X847642Y741207D2*
X3876770D1*
X847642Y733465D2*
X3876770D1*
X847642Y725722D2*
X3876770D1*
X847642Y717979D2*
X3876770D1*
X847642Y710236D2*
X3876770D1*
X847642Y702493D2*
X3876770D1*
X847642Y694751D2*
X3876770D1*
X847642Y687008D2*
X3876770D1*
X847642Y679265D2*
X3876770D1*
X847642Y671522D2*
X3876770D1*
X847642Y663780D2*
X3876770D1*
X847642Y656037D2*
X3876770D1*
X847642Y648294D2*
X3876770D1*
X847642Y640551D2*
X3876770D1*
X847642Y632808D2*
X3876770D1*
X847642Y625066D2*
X3876770D1*
X847642Y617323D2*
X3876770D1*
X847642Y609580D2*
X3876770D1*
X847642Y601837D2*
X3876770D1*
X847642Y594094D2*
X3876770D1*
X847642Y586352D2*
X3876770D1*
X847642Y578609D2*
X3876770D1*
X847642Y570866D2*
X3876770D1*
X847642Y563123D2*
X3876770D1*
X847642Y555381D2*
X3876770D1*
X847642Y547638D2*
X3876770D1*
X847642Y539895D2*
X3876770D1*
X847642Y532152D2*
X3876770D1*
X847642Y524409D2*
X3876770D1*
X847642Y516667D2*
X3876770D1*
X847642Y508924D2*
X3876770D1*
X847642Y501181D2*
X3876770D1*
X847642Y493438D2*
X3876770D1*
X847642Y485696D2*
X3876770D1*
X847642Y477953D2*
X3876770D1*
X847642Y470210D2*
X3876770D1*
X847642Y462467D2*
X3876770D1*
X847642Y454724D2*
X3876770D1*
X847642Y446982D2*
X3876770D1*
X847642Y439239D2*
X3876770D1*
X847642Y431496D2*
X3876770D1*
X847642Y423753D2*
X3876770D1*
X517803Y2574147D2*
X517177Y2570278D1*
X516146Y2566499D1*
X514717Y2562850D1*
X512908Y2559374D1*
X510740Y2556110D1*
X508239Y2553094D1*
X505430Y2550362D1*
X502346Y2547944D1*
X499024Y2545867D1*
X495500Y2544155D1*
X491814Y2542828D1*
X488007Y2541899D1*
X484122Y2541381D1*
X480205Y2541278D1*
X476299Y2541593D1*
X472450Y2542320D1*
X468698Y2543454D1*
X465089Y2544979D1*
X461663Y2546879D1*
X458457Y2549133D1*
X455509Y2551714D1*
X452853Y2554594D1*
X450517Y2557741D1*
X448530Y2561118D1*
X446912Y2564686D1*
X445684Y2568407D1*
X444857Y2572238D1*
X444442Y2576134D1*
X444444Y2580052D1*
X444862Y2583948D1*
X445693Y2587777D1*
X446925Y2591497D1*
X448546Y2595064D1*
X450537Y2598440D1*
X452874Y2601584D1*
X455534Y2604462D1*
X458484Y2607041D1*
X461692Y2609291D1*
X465119Y2611188D1*
X468730Y2612710D1*
X472482Y2613840D1*
X476333Y2614564D1*
X480239Y2614874D1*
X484156Y2614769D1*
X488039Y2614247D1*
X491845Y2613315D1*
X495530Y2611984D1*
X499054Y2610269D1*
X502374Y2608189D1*
X505455Y2605768D1*
X508261Y2603033D1*
X510761Y2600016D1*
X512925Y2596749D1*
X514731Y2593272D1*
X516156Y2589622D1*
X517185Y2585841D1*
X517806Y2581972D1*
X518013Y2578076D1*
X517803Y2574147D1*
X4270927D2*
X4270301Y2570278D1*
X4269269Y2566499D1*
X4267840Y2562850D1*
X4266031Y2559374D1*
X4263864Y2556110D1*
X4261362Y2553094D1*
X4258554Y2550362D1*
X4255470Y2547944D1*
X4252147Y2545867D1*
X4248623Y2544155D1*
X4244937Y2542828D1*
X4241130Y2541899D1*
X4237245Y2541381D1*
X4233328Y2541278D1*
X4229423Y2541593D1*
X4225573Y2542320D1*
X4221822Y2543454D1*
X4218213Y2544979D1*
X4214786Y2546879D1*
X4211580Y2549133D1*
X4208633Y2551714D1*
X4205976Y2554594D1*
X4203640Y2557741D1*
X4201654Y2561118D1*
X4200035Y2564686D1*
X4198807Y2568407D1*
X4197980Y2572238D1*
X4197566Y2576134D1*
X4197567Y2580052D1*
X4197986Y2583948D1*
X4198816Y2587777D1*
X4200049Y2591497D1*
X4201669Y2595064D1*
X4203660Y2598440D1*
X4205997Y2601584D1*
X4208657Y2604462D1*
X4211608Y2607041D1*
X4214815Y2609291D1*
X4218243Y2611188D1*
X4221853Y2612710D1*
X4225605Y2613840D1*
X4229457Y2614564D1*
X4233362Y2614874D1*
X4237280Y2614769D1*
X4241163Y2614247D1*
X4244969Y2613315D1*
X4248654Y2611984D1*
X4252177Y2610269D1*
X4255497Y2608189D1*
X4258579Y2605768D1*
X4261385Y2603033D1*
X4263885Y2600016D1*
X4266049Y2596749D1*
X4267854Y2593272D1*
X4269280Y2589622D1*
X4270308Y2585841D1*
X4270929Y2581972D1*
X4271136Y2578076D1*
X4270927Y2574147D1*
X517801Y964772D2*
X517175Y960903D1*
X516143Y957123D1*
X514714Y953475D1*
X512906Y949999D1*
X510738Y946735D1*
X508236Y943719D1*
X505428Y940987D1*
X502344Y938568D1*
X499021Y936492D1*
X495497Y934780D1*
X491811Y933453D1*
X488004Y932524D1*
X484119Y932005D1*
X480202Y931903D1*
X476297Y932218D1*
X472448Y932945D1*
X468696Y934079D1*
X465087Y935604D1*
X461660Y937504D1*
X458454Y939757D1*
X455507Y942339D1*
X452850Y945219D1*
X450514Y948366D1*
X448528Y951743D1*
X446909Y955311D1*
X445681Y959031D1*
X444854Y962862D1*
X444440Y966759D1*
X444441Y970677D1*
X444860Y974572D1*
X445690Y978402D1*
X446923Y982122D1*
X448543Y985689D1*
X450534Y989064D1*
X452871Y992209D1*
X455531Y995087D1*
X458482Y997665D1*
X461689Y999916D1*
X465117Y1001812D1*
X468727Y1003335D1*
X472479Y1004465D1*
X476331Y1005189D1*
X480236Y1005499D1*
X484154Y1005394D1*
X488037Y1004871D1*
X491843Y1003940D1*
X495528Y1002609D1*
X499051Y1000894D1*
X502371Y998814D1*
X505453Y996392D1*
X508259Y993657D1*
X510759Y990640D1*
X512923Y987374D1*
X514728Y983896D1*
X516154Y980247D1*
X517182Y976466D1*
X517803Y972597D1*
X518010Y968701D1*
X517801Y964772D1*
X2484583Y1328249D2*
X2484392Y1324308D1*
X2484075Y1320375D1*
X2483631Y1316455D1*
X2483062Y1312552D1*
X2482366Y1308669D1*
X2481546Y1304810D1*
X2480602Y1300979D1*
X2479535Y1297181D1*
X2478346Y1293420D1*
X2477038Y1289698D1*
X2475609Y1286021D1*
X2474063Y1282391D1*
X2472402Y1278814D1*
X2470625Y1275291D1*
X2468735Y1271828D1*
X2466736Y1268428D1*
X2464627Y1265093D1*
X2462413Y1261828D1*
X2460094Y1258636D1*
X2457675Y1255521D1*
X2455155Y1252486D1*
X2452539Y1249531D1*
X2449829Y1246664D1*
X2447029Y1243886D1*
X2444140Y1241199D1*
X2441167Y1238606D1*
X2438110Y1236112D1*
X2434976Y1233717D1*
X2431766Y1231423D1*
X2428484Y1229234D1*
X2425133Y1227152D1*
X2421717Y1225180D1*
X2418238Y1223318D1*
X2414702Y1221570D1*
X2411110Y1219936D1*
X2407470Y1218419D1*
X2403781Y1217018D1*
X2400049Y1215739D1*
X2396278Y1214580D1*
X2392471Y1213543D1*
X2388634Y1212630D1*
X2384768Y1211841D1*
X2380879Y1211177D1*
X2376971Y1210638D1*
X2373049Y1210226D1*
X2369113Y1209940D1*
X2365172Y1209780D1*
X2361227Y1209748D1*
X2357282Y1209843D1*
X2353344Y1210066D1*
X2349415Y1210413D1*
X2345497Y1210890D1*
X2341598Y1211491D1*
X2337722Y1212217D1*
X2333869Y1213068D1*
X2330046Y1214042D1*
X2326257Y1215140D1*
X2322505Y1216358D1*
X2318794Y1217698D1*
X2315129Y1219156D1*
X2311512Y1220731D1*
X2307948Y1222423D1*
X2304440Y1224227D1*
X2300991Y1226144D1*
X2297606Y1228171D1*
X2294290Y1230306D1*
X2291043Y1232547D1*
X2287870Y1234891D1*
X2284774Y1237336D1*
X2281759Y1239881D1*
X2278827Y1242520D1*
X2275982Y1245252D1*
X2273226Y1248075D1*
X2270562Y1250986D1*
X2267993Y1253980D1*
X2265522Y1257055D1*
X2263152Y1260210D1*
X2260886Y1263438D1*
X2258723Y1266738D1*
X2256668Y1270105D1*
X2254723Y1273538D1*
X2252890Y1277030D1*
X2251169Y1280581D1*
X2249564Y1284185D1*
X2248077Y1287839D1*
X2246707Y1291538D1*
X2245458Y1295280D1*
X2244329Y1299060D1*
X2243324Y1302875D1*
X2242441Y1306720D1*
X2241682Y1310592D1*
X2241050Y1314486D1*
X2240542Y1318398D1*
X2240161Y1322324D1*
X2239907Y1326261D1*
X2239780Y1330205D1*
Y1334150D1*
X2239907Y1338092D1*
X2240160Y1342029D1*
X2240541Y1345955D1*
X2241047Y1349869D1*
X2241680Y1353762D1*
X2242438Y1357634D1*
X2243320Y1361479D1*
X2244325Y1365294D1*
X2245453Y1369075D1*
X2246702Y1372816D1*
X2248071Y1376516D1*
X2249558Y1380171D1*
X2251163Y1383774D1*
X2252882Y1387325D1*
X2254715Y1390818D1*
X2256660Y1394251D1*
X2258714Y1397618D1*
X2260877Y1400919D1*
X2263143Y1404147D1*
X2265513Y1407302D1*
X2267983Y1410378D1*
X2270551Y1413373D1*
X2273214Y1416283D1*
X2275970Y1419106D1*
X2278815Y1421839D1*
X2281745Y1424479D1*
X2284761Y1427024D1*
X2287857Y1429469D1*
X2291029Y1431814D1*
X2294276Y1434055D1*
X2297593Y1436190D1*
X2300978Y1438218D1*
X2304425Y1440135D1*
X2307933Y1441941D1*
X2311496Y1443633D1*
X2315113Y1445207D1*
X2318780Y1446667D1*
X2322490Y1448007D1*
X2326241Y1449226D1*
X2330030Y1450323D1*
X2333853Y1451298D1*
X2337705Y1452150D1*
X2341583Y1452877D1*
X2345482Y1453479D1*
X2349398Y1453954D1*
X2353328Y1454303D1*
X2357266Y1454526D1*
X2361210Y1454622D1*
X2365155Y1454591D1*
X2369097Y1454432D1*
X2373031Y1454147D1*
X2376955Y1453734D1*
X2380864Y1453196D1*
X2384752Y1452531D1*
X2388618Y1451743D1*
X2392455Y1450831D1*
X2396262Y1449794D1*
X2400033Y1448636D1*
X2403765Y1447357D1*
X2407454Y1445958D1*
X2411096Y1444441D1*
X2414686Y1442808D1*
X2418223Y1441059D1*
X2421702Y1439198D1*
X2425118Y1437226D1*
X2428470Y1435144D1*
X2431752Y1432957D1*
X2434963Y1430664D1*
X2438097Y1428269D1*
X2441154Y1425774D1*
X2444127Y1423182D1*
X2447017Y1420496D1*
X2449818Y1417718D1*
X2452528Y1414850D1*
X2455144Y1411898D1*
X2457664Y1408862D1*
X2460084Y1405747D1*
X2462403Y1402555D1*
X2464618Y1399291D1*
X2466727Y1395957D1*
X2468727Y1392556D1*
X2470617Y1389093D1*
X2472394Y1385571D1*
X2474056Y1381993D1*
X2475604Y1378365D1*
X2477033Y1374688D1*
X2478341Y1370966D1*
X2479531Y1367205D1*
X2480598Y1363407D1*
X2481542Y1359576D1*
X2482364Y1355718D1*
X2483059Y1351835D1*
X2483629Y1347930D1*
X2484073Y1344010D1*
X2484391Y1340079D1*
X2484581Y1336138D1*
X2484646Y1332185D1*
X2484583Y1328249D1*
X1951656Y1596037D2*
X1950546Y1592236D1*
X1948736Y1588714D1*
X1946294Y1585598D1*
X1943304Y1583001D1*
X1939878Y1581017D1*
X1936139Y1579717D1*
X1932220Y1579148D1*
X1928265Y1579331D1*
X1924416Y1580260D1*
X1920812Y1581899D1*
X1917584Y1584192D1*
X1914848Y1587054D1*
X1912702Y1590382D1*
X1911226Y1594055D1*
X1910471Y1597942D1*
X1910466Y1601902D1*
X1911210Y1605790D1*
X1912676Y1609469D1*
X1914812Y1612802D1*
X1917541Y1615672D1*
X1920762Y1617972D1*
X1924362Y1619622D1*
X1928209Y1620560D1*
X1932164Y1620755D1*
X1936083Y1620197D1*
X1939827Y1618907D1*
X1943259Y1616932D1*
X1946255Y1614343D1*
X1948706Y1611234D1*
X1950525Y1607717D1*
X1951646Y1603920D1*
X1952028Y1599950D1*
X1951656Y1596037D1*
X1926820Y1480487D2*
X1925710Y1476686D1*
X1923900Y1473164D1*
X1921458Y1470049D1*
X1918469Y1467451D1*
X1915042Y1465467D1*
X1911303Y1464167D1*
X1907385Y1463598D1*
X1903429Y1463781D1*
X1899580Y1464710D1*
X1895976Y1466349D1*
X1892748Y1468642D1*
X1890012Y1471504D1*
X1887866Y1474832D1*
X1886390Y1478505D1*
X1885635Y1482392D1*
X1885630Y1486352D1*
X1886374Y1490240D1*
X1887840Y1493919D1*
X1889976Y1497252D1*
X1892705Y1500122D1*
X1895927Y1502423D1*
X1899526Y1504072D1*
X1903373Y1505010D1*
X1907328Y1505205D1*
X1911247Y1504647D1*
X1914991Y1503357D1*
X1918423Y1501382D1*
X1921419Y1498793D1*
X1923870Y1495684D1*
X1925689Y1492167D1*
X1926810Y1488370D1*
X1927192Y1484400D1*
X1926820Y1480487D1*
X1901656Y1577287D2*
X1900546Y1573487D1*
X1898736Y1569965D1*
X1896294Y1566849D1*
X1893304Y1564252D1*
X1889878Y1562268D1*
X1886139Y1560967D1*
X1882220Y1560399D1*
X1878265Y1560581D1*
X1874416Y1561510D1*
X1870812Y1563150D1*
X1867584Y1565442D1*
X1864848Y1568304D1*
X1862702Y1571633D1*
X1861226Y1575306D1*
X1860471Y1579193D1*
X1860466Y1583152D1*
X1861210Y1587041D1*
X1862676Y1590719D1*
X1864812Y1594052D1*
X1867541Y1596923D1*
X1870762Y1599223D1*
X1874362Y1600873D1*
X1878209Y1601811D1*
X1882164Y1602005D1*
X1886083Y1601448D1*
X1889827Y1600157D1*
X1893259Y1598182D1*
X1896255Y1595593D1*
X1898706Y1592484D1*
X1900525Y1588967D1*
X1901646Y1585171D1*
X1902028Y1581201D1*
X1901656Y1577287D1*
X1875639Y1480487D2*
X1874529Y1476686D1*
X1872719Y1473164D1*
X1870277Y1470049D1*
X1867287Y1467451D1*
X1863861Y1465467D1*
X1860122Y1464167D1*
X1856203Y1463598D1*
X1852248Y1463781D1*
X1848399Y1464710D1*
X1844795Y1466349D1*
X1841567Y1468642D1*
X1838831Y1471504D1*
X1836685Y1474832D1*
X1835209Y1478505D1*
X1834454Y1482392D1*
X1834449Y1486352D1*
X1835193Y1490240D1*
X1836659Y1493919D1*
X1838795Y1497252D1*
X1841524Y1500122D1*
X1844745Y1502423D1*
X1848345Y1504072D1*
X1852192Y1505010D1*
X1856147Y1505205D1*
X1860066Y1504647D1*
X1863810Y1503357D1*
X1867241Y1501382D1*
X1870238Y1498793D1*
X1872689Y1495684D1*
X1874508Y1492167D1*
X1875629Y1488370D1*
X1876010Y1484400D1*
X1875639Y1480487D1*
X1848531Y1555412D2*
X1847421Y1551612D1*
X1845612Y1548089D1*
X1843169Y1544974D1*
X1840180Y1542377D1*
X1836753Y1540392D1*
X1833014Y1539092D1*
X1829096Y1538524D1*
X1825140Y1538706D1*
X1821291Y1539635D1*
X1817688Y1541274D1*
X1814459Y1543567D1*
X1811723Y1546429D1*
X1809577Y1549757D1*
X1808101Y1553430D1*
X1807346Y1557318D1*
X1807341Y1561277D1*
X1808085Y1565165D1*
X1809551Y1568844D1*
X1811688Y1572177D1*
X1814416Y1575047D1*
X1817638Y1577348D1*
X1821238Y1578997D1*
X1825084Y1579936D1*
X1829039Y1580130D1*
X1832958Y1579572D1*
X1836702Y1578282D1*
X1840134Y1576307D1*
X1843130Y1573718D1*
X1845581Y1570609D1*
X1847400Y1567092D1*
X1848521Y1563295D1*
X1848903Y1559325D1*
X1848531Y1555412D1*
X1824458Y1480487D2*
X1823348Y1476686D1*
X1821538Y1473164D1*
X1819096Y1470049D1*
X1816106Y1467451D1*
X1812680Y1465467D1*
X1808941Y1464167D1*
X1805022Y1463598D1*
X1801067Y1463781D1*
X1797218Y1464710D1*
X1793614Y1466349D1*
X1790386Y1468642D1*
X1787650Y1471504D1*
X1785504Y1474832D1*
X1784028Y1478505D1*
X1783273Y1482392D1*
X1783268Y1486352D1*
X1784012Y1490240D1*
X1785478Y1493919D1*
X1787614Y1497252D1*
X1790343Y1500122D1*
X1793564Y1502423D1*
X1797164Y1504072D1*
X1801010Y1505010D1*
X1804966Y1505205D1*
X1808885Y1504647D1*
X1812629Y1503357D1*
X1816060Y1501382D1*
X1819056Y1498793D1*
X1821508Y1495684D1*
X1823327Y1492167D1*
X1824448Y1488370D1*
X1824829Y1484400D1*
X1824458Y1480487D1*
X1798531Y1533538D2*
X1797421Y1529738D1*
X1795612Y1526215D1*
X1793169Y1523100D1*
X1790180Y1520503D1*
X1786753Y1518518D1*
X1783014Y1517218D1*
X1779096Y1516650D1*
X1775140Y1516832D1*
X1771291Y1517761D1*
X1767688Y1519400D1*
X1764459Y1521693D1*
X1761723Y1524555D1*
X1759577Y1527883D1*
X1758101Y1531556D1*
X1757346Y1535444D1*
X1757341Y1539403D1*
X1758085Y1543291D1*
X1759551Y1546970D1*
X1761688Y1550303D1*
X1764416Y1553173D1*
X1767638Y1555474D1*
X1771238Y1557123D1*
X1775084Y1558062D1*
X1779039Y1558256D1*
X1782958Y1557698D1*
X1786702Y1556408D1*
X1790134Y1554433D1*
X1793130Y1551844D1*
X1795581Y1548735D1*
X1797400Y1545218D1*
X1798521Y1541421D1*
X1798903Y1537451D1*
X1798531Y1533538D1*
X1773277Y1480487D2*
X1772167Y1476686D1*
X1770357Y1473164D1*
X1767915Y1470049D1*
X1764925Y1467451D1*
X1761499Y1465467D1*
X1757760Y1464167D1*
X1753841Y1463598D1*
X1749886Y1463781D1*
X1746037Y1464710D1*
X1742433Y1466349D1*
X1739205Y1468642D1*
X1736469Y1471504D1*
X1734323Y1474832D1*
X1732846Y1478505D1*
X1732092Y1482392D1*
X1732087Y1486352D1*
X1732831Y1490240D1*
X1734297Y1493919D1*
X1736433Y1497252D1*
X1739161Y1500122D1*
X1742383Y1502423D1*
X1745983Y1504072D1*
X1749829Y1505010D1*
X1753785Y1505205D1*
X1757703Y1504647D1*
X1761448Y1503357D1*
X1764879Y1501382D1*
X1767875Y1498793D1*
X1770327Y1495684D1*
X1772146Y1492167D1*
X1773266Y1488370D1*
X1773648Y1484400D1*
X1773277Y1480487D1*
X970407Y1505412D2*
X969297Y1501612D1*
X967487Y1498089D1*
X965045Y1494974D1*
X962055Y1492377D1*
X958629Y1490392D1*
X954890Y1489092D1*
X950971Y1488524D1*
X947016Y1488706D1*
X943167Y1489635D1*
X940664Y1490773D1*
X939878Y1490392D1*
X936139Y1489092D1*
X932220Y1488524D1*
X928265Y1488706D1*
X924416Y1489635D1*
X921913Y1490773D1*
X921129Y1490392D1*
X917390Y1489092D1*
X913471Y1488524D1*
X909516Y1488706D1*
X905667Y1489635D1*
X902063Y1491274D1*
X898835Y1493567D1*
X896098Y1496429D1*
X893953Y1499757D1*
X892476Y1503430D1*
X891722Y1507318D1*
X891717Y1511277D1*
X892461Y1515165D1*
X893927Y1518844D1*
X896063Y1522177D1*
X898791Y1525047D1*
X902013Y1527348D1*
X905613Y1528997D1*
X909459Y1529936D1*
X913415Y1530130D1*
X917333Y1529572D1*
X921077Y1528282D1*
X921757Y1527890D1*
X924362Y1528997D1*
X928209Y1529936D1*
X932164Y1530130D1*
X936083Y1529572D1*
X939827Y1528282D1*
X940507Y1527890D1*
X943113Y1528997D1*
X946959Y1529936D1*
X950915Y1530130D1*
X954833Y1529572D1*
X958577Y1528282D1*
X962009Y1526307D1*
X965005Y1523718D1*
X967457Y1520609D1*
X969276Y1517092D1*
X970396Y1513295D1*
X970778Y1509325D1*
X970407Y1505412D1*
X1589156Y1502287D2*
X1588046Y1498487D1*
X1586236Y1494965D1*
X1583794Y1491849D1*
X1580804Y1489252D1*
X1577378Y1487268D1*
X1573639Y1485967D1*
X1569720Y1485399D1*
X1565765Y1485581D1*
X1561916Y1486510D1*
X1559413Y1487648D1*
X1558627Y1487268D1*
X1554888Y1485967D1*
X1550970Y1485399D1*
X1547014Y1485581D1*
X1543165Y1486510D1*
X1540663Y1487648D1*
X1539878Y1487268D1*
X1536139Y1485967D1*
X1532220Y1485399D1*
X1528265Y1485581D1*
X1524416Y1486510D1*
X1520812Y1488150D1*
X1517584Y1490442D1*
X1514848Y1493304D1*
X1512702Y1496633D1*
X1511226Y1500306D1*
X1510471Y1504193D1*
X1510466Y1508152D1*
X1511210Y1512041D1*
X1512676Y1515719D1*
X1514812Y1519052D1*
X1517541Y1521923D1*
X1520762Y1524223D1*
X1524362Y1525873D1*
X1528209Y1526811D1*
X1532164Y1527005D1*
X1536083Y1526448D1*
X1539827Y1525157D1*
X1540507Y1524765D1*
X1543112Y1525873D1*
X1546958Y1526811D1*
X1550913Y1527005D1*
X1554832Y1526448D1*
X1558576Y1525157D1*
X1559256Y1524765D1*
X1561862Y1525873D1*
X1565709Y1526811D1*
X1569664Y1527005D1*
X1573583Y1526448D1*
X1577327Y1525157D1*
X1580759Y1523182D1*
X1583755Y1520593D1*
X1586206Y1517484D1*
X1588025Y1513967D1*
X1589146Y1510171D1*
X1589528Y1506201D1*
X1589156Y1502287D1*
X1110462Y1554289D2*
X1109516Y1554332D1*
X1105667Y1555261D1*
X1102063Y1556900D1*
X1098835Y1559193D1*
X1096098Y1562055D1*
X1093953Y1565383D1*
X1092476Y1569056D1*
X1091722Y1572944D1*
X1091717Y1576903D1*
X1092461Y1580791D1*
X1093927Y1584470D1*
X1096063Y1587803D1*
X1098791Y1590673D1*
X1102013Y1592974D1*
X1105613Y1594623D1*
X1109459Y1595562D1*
X1113415Y1595756D1*
X1117333Y1595198D1*
X1121077Y1593908D1*
X1124509Y1591933D1*
X1127505Y1589344D1*
X1129957Y1586235D1*
X1131776Y1582718D1*
X1132896Y1578921D1*
X1133088Y1576938D1*
X1136083Y1576448D1*
X1139827Y1575157D1*
X1143259Y1573182D1*
X1146255Y1570593D1*
X1148706Y1567484D1*
X1150525Y1563967D1*
X1151646Y1560171D1*
X1152028Y1556201D1*
X1151656Y1552287D1*
X1150546Y1548487D1*
X1148736Y1544965D1*
X1146294Y1541849D1*
X1143304Y1539252D1*
X1139878Y1537268D1*
X1136139Y1535967D1*
X1132220Y1535399D1*
X1128265Y1535581D1*
X1124416Y1536510D1*
X1120812Y1538150D1*
X1117584Y1540442D1*
X1114848Y1543304D1*
X1112702Y1546633D1*
X1111226Y1550306D1*
X1110471Y1554220D1*
X2146761Y1743885D2*
X2146129Y1743518D1*
X2142390Y1742218D1*
X2138471Y1741650D1*
X2134516Y1741832D1*
X2130667Y1742761D1*
X2128164Y1743899D1*
X2127378Y1743518D1*
X2123639Y1742218D1*
X2119720Y1741650D1*
X2115765Y1741832D1*
X2111916Y1742761D1*
X2108312Y1744400D1*
X2105084Y1746693D1*
X2102348Y1749555D1*
X2100202Y1752883D1*
X2098726Y1756556D1*
X2097971Y1760444D1*
X2097966Y1764403D1*
X2098710Y1768291D1*
X2100176Y1771970D1*
X2102312Y1775303D1*
X2105041Y1778173D1*
X2108262Y1780474D1*
X2111862Y1782123D1*
X2115709Y1783062D1*
X2119664Y1783256D1*
X2123583Y1782698D1*
X2127327Y1781408D1*
X2128007Y1781016D1*
X2130613Y1782123D1*
X2134459Y1783062D1*
X2138415Y1783256D1*
X2142333Y1782698D1*
X2146077Y1781408D1*
X2146757Y1781016D1*
X2149362Y1782123D1*
X2153209Y1783062D1*
X2157164Y1783256D1*
X2161083Y1782698D1*
X2164827Y1781408D1*
X2168259Y1779433D1*
X2171255Y1776844D1*
X2173706Y1773735D1*
X2175525Y1770218D1*
X2176646Y1766421D1*
X2177028Y1762451D1*
X2176656Y1758538D1*
X2175546Y1754738D1*
X2173736Y1751215D1*
X2171294Y1748100D1*
X2168304Y1745503D1*
X2164878Y1743518D1*
X2161139Y1742218D1*
X2157220Y1741650D1*
X2153265Y1741832D1*
X2149416Y1742761D1*
X2146913Y1743899D1*
X2867281Y1330412D2*
X2866171Y1326612D1*
X2864361Y1323089D1*
X2861919Y1319974D1*
X2858929Y1317377D1*
X2855503Y1315392D1*
X2851764Y1314092D1*
X2847845Y1313524D1*
X2843890Y1313706D1*
X2840041Y1314635D1*
X2836437Y1316274D1*
X2833209Y1318567D1*
X2830472Y1321429D1*
X2828327Y1324757D1*
X2826850Y1328430D1*
X2826096Y1332318D1*
X2826091Y1336277D1*
X2826835Y1340165D1*
X2828301Y1343844D1*
X2830437Y1347177D1*
X2833165Y1350047D1*
X2836387Y1352348D1*
X2839987Y1353997D1*
X2843833Y1354936D1*
X2847789Y1355130D1*
X2851707Y1354572D1*
X2855451Y1353282D1*
X2858883Y1351307D1*
X2861879Y1348718D1*
X2864331Y1345609D1*
X2866150Y1342092D1*
X2867270Y1338295D1*
X2867652Y1334325D1*
X2867281Y1330412D1*
X2224102Y2367903D2*
X2220812Y2369400D1*
X2217584Y2371693D1*
X2214848Y2374555D1*
X2212702Y2377883D1*
X2211226Y2381556D1*
X2210471Y2385444D1*
X2210466Y2389403D1*
X2211210Y2393291D1*
X2212676Y2396970D1*
X2214812Y2400303D1*
X2217541Y2403173D1*
X2220762Y2405474D1*
X2224362Y2407123D1*
X2228209Y2408062D1*
X2232164Y2408256D1*
X2236083Y2407698D1*
X2239827Y2406408D1*
X2243259Y2404433D1*
X2246255Y2401844D1*
X2248706Y2398735D1*
X2250525Y2395218D1*
X2250719Y2394562D1*
X2252327Y2393907D1*
X2255759Y2391932D1*
X2258755Y2389343D1*
X2261206Y2386234D1*
X2263025Y2382717D1*
X2263219Y2382060D1*
X2264827Y2381408D1*
X2268259Y2379433D1*
X2271255Y2376844D1*
X2273706Y2373735D1*
X2275525Y2370218D1*
X2276646Y2366421D1*
X2277028Y2362451D1*
X2276656Y2358538D1*
X2275546Y2354738D1*
X2273736Y2351215D1*
X2271294Y2348100D1*
X2268304Y2345503D1*
X2264878Y2343518D1*
X2261139Y2342218D1*
X2257220Y2341650D1*
X2253265Y2341832D1*
X2249416Y2342761D1*
X2245812Y2344400D1*
X2242584Y2346693D1*
X2239848Y2349555D1*
X2237702Y2352883D1*
X2236720Y2355325D1*
X2233312Y2356899D1*
X2230084Y2359192D1*
X2227348Y2362054D1*
X2225202Y2365382D1*
X2224218Y2367832D1*
X2264156Y1961663D2*
X2263046Y1957862D1*
X2261236Y1954340D1*
X2258794Y1951224D1*
X2255804Y1948627D1*
X2252378Y1946643D1*
X2248639Y1945343D1*
X2244720Y1944774D1*
X2240765Y1944957D1*
X2236916Y1945886D1*
X2233312Y1947525D1*
X2230084Y1949818D1*
X2227348Y1952680D1*
X2225202Y1956008D1*
X2223726Y1959681D1*
X2222971Y1963568D1*
X2222966Y1967528D1*
X2223710Y1971416D1*
X2225176Y1975094D1*
X2227312Y1978428D1*
X2230041Y1981298D1*
X2233262Y1983598D1*
X2236862Y1985248D1*
X2240709Y1986186D1*
X2244664Y1986381D1*
X2248583Y1985823D1*
X2252327Y1984533D1*
X2255759Y1982558D1*
X2258755Y1979969D1*
X2261206Y1976860D1*
X2263025Y1973343D1*
X2264146Y1969546D1*
X2264528Y1965576D1*
X2264156Y1961663D1*
X2903010Y2256385D2*
X2902378Y2256018D1*
X2898639Y2254718D1*
X2894720Y2254150D1*
X2890765Y2254332D1*
X2886916Y2255261D1*
X2883312Y2256900D1*
X2880084Y2259193D1*
X2877348Y2262055D1*
X2875202Y2265383D1*
X2873726Y2269056D1*
X2872971Y2272944D1*
X2872966Y2276903D1*
X2873710Y2280791D1*
X2875176Y2284470D1*
X2877312Y2287803D1*
X2880041Y2290673D1*
X2883262Y2292974D1*
X2886862Y2294623D1*
X2890709Y2295562D1*
X2894664Y2295756D1*
X2898583Y2295198D1*
X2902327Y2293908D1*
X2903007Y2293516D1*
X2905613Y2294623D1*
X2909459Y2295562D1*
X2913415Y2295756D1*
X2917333Y2295198D1*
X2921077Y2293908D1*
X2921757Y2293516D1*
X2924362Y2294623D1*
X2928209Y2295562D1*
X2932164Y2295756D1*
X2936083Y2295198D1*
X2939827Y2293908D1*
X2943259Y2291933D1*
X2946255Y2289344D1*
X2948706Y2286235D1*
X2950525Y2282718D1*
X2951646Y2278921D1*
X2952028Y2274951D1*
X2951656Y2271038D1*
X2950546Y2267238D1*
X2948736Y2263715D1*
X2946294Y2260600D1*
X2943304Y2258003D1*
X2939878Y2256018D1*
X2936139Y2254718D1*
X2932220Y2254150D1*
X2928265Y2254332D1*
X2924416Y2255261D1*
X2921913Y2256399D1*
X2921129Y2256018D1*
X2917390Y2254718D1*
X2913471Y2254150D1*
X2909516Y2254332D1*
X2905667Y2255261D1*
X2903164Y2256399D1*
X2326656Y1936663D2*
X2325546Y1932862D1*
X2323736Y1929340D1*
X2321294Y1926224D1*
X2318304Y1923627D1*
X2314878Y1921643D1*
X2311139Y1920343D1*
X2307220Y1919774D1*
X2303265Y1919957D1*
X2299416Y1920886D1*
X2295812Y1922525D1*
X2292584Y1924818D1*
X2289848Y1927680D1*
X2287702Y1931008D1*
X2286226Y1934681D1*
X2285471Y1938568D1*
X2285466Y1942528D1*
X2286210Y1946416D1*
X2287676Y1950094D1*
X2289812Y1953428D1*
X2292541Y1956298D1*
X2295762Y1958598D1*
X2299362Y1960248D1*
X2303209Y1961186D1*
X2307164Y1961381D1*
X2311083Y1960823D1*
X2314827Y1959533D1*
X2318259Y1957558D1*
X2321255Y1954969D1*
X2323706Y1951860D1*
X2325525Y1948343D1*
X2326646Y1944546D1*
X2327028Y1940576D1*
X2326656Y1936663D1*
X2264156Y1911663D2*
X2263046Y1907862D1*
X2261236Y1904340D1*
X2258794Y1901224D1*
X2255804Y1898627D1*
X2252378Y1896643D1*
X2248639Y1895343D1*
X2244720Y1894774D1*
X2240765Y1894957D1*
X2236916Y1895886D1*
X2233312Y1897525D1*
X2230084Y1899818D1*
X2227348Y1902680D1*
X2225202Y1906008D1*
X2223726Y1909681D1*
X2222971Y1913568D1*
X2222966Y1917528D1*
X2223710Y1921416D1*
X2225176Y1925094D1*
X2227312Y1928428D1*
X2230041Y1931298D1*
X2233262Y1933598D1*
X2236862Y1935248D1*
X2240709Y1936186D1*
X2244664Y1936381D1*
X2248583Y1935823D1*
X2252327Y1934533D1*
X2255759Y1932558D1*
X2258755Y1929969D1*
X2261206Y1926860D1*
X2263025Y1923343D1*
X2264146Y1919546D1*
X2264528Y1915576D1*
X2264156Y1911663D1*
X2326656Y1886663D2*
X2325546Y1882862D1*
X2323736Y1879340D1*
X2321294Y1876224D1*
X2318304Y1873627D1*
X2314878Y1871643D1*
X2311139Y1870343D1*
X2307220Y1869774D1*
X2303265Y1869957D1*
X2299416Y1870886D1*
X2295812Y1872525D1*
X2292584Y1874818D1*
X2289848Y1877680D1*
X2287702Y1881008D1*
X2286226Y1884681D1*
X2285471Y1888568D1*
X2285466Y1892528D1*
X2286210Y1896416D1*
X2287676Y1900094D1*
X2289812Y1903428D1*
X2292541Y1906298D1*
X2295762Y1908598D1*
X2299362Y1910248D1*
X2303209Y1911186D1*
X2307164Y1911381D1*
X2311083Y1910823D1*
X2314827Y1909533D1*
X2318259Y1907558D1*
X2321255Y1904969D1*
X2323706Y1901860D1*
X2325525Y1898343D1*
X2326646Y1894546D1*
X2327028Y1890576D1*
X2326656Y1886663D1*
X2264156Y1861663D2*
X2263046Y1857862D1*
X2261236Y1854340D1*
X2258794Y1851224D1*
X2255804Y1848627D1*
X2252378Y1846643D1*
X2248639Y1845343D1*
X2244720Y1844774D1*
X2240765Y1844957D1*
X2236916Y1845886D1*
X2233312Y1847525D1*
X2230084Y1849818D1*
X2227348Y1852680D1*
X2225202Y1856008D1*
X2223726Y1859681D1*
X2222971Y1863568D1*
X2222966Y1867528D1*
X2223710Y1871416D1*
X2225176Y1875094D1*
X2227312Y1878428D1*
X2230041Y1881298D1*
X2233262Y1883598D1*
X2236862Y1885248D1*
X2240709Y1886186D1*
X2244664Y1886381D1*
X2248583Y1885823D1*
X2252327Y1884533D1*
X2255759Y1882558D1*
X2258755Y1879969D1*
X2261206Y1876860D1*
X2263025Y1873343D1*
X2264146Y1869546D1*
X2264528Y1865576D1*
X2264156Y1861663D1*
X2326656Y1836663D2*
X2325546Y1832862D1*
X2323736Y1829340D1*
X2321294Y1826224D1*
X2318304Y1823627D1*
X2314878Y1821643D1*
X2311139Y1820343D1*
X2307220Y1819774D1*
X2303265Y1819957D1*
X2299416Y1820886D1*
X2295812Y1822525D1*
X2292584Y1824818D1*
X2289848Y1827680D1*
X2287702Y1831008D1*
X2286226Y1834681D1*
X2285471Y1838568D1*
X2285466Y1842528D1*
X2286210Y1846416D1*
X2287676Y1850094D1*
X2289812Y1853428D1*
X2292541Y1856298D1*
X2295762Y1858598D1*
X2299362Y1860248D1*
X2303209Y1861186D1*
X2307164Y1861381D1*
X2311083Y1860823D1*
X2314827Y1859533D1*
X2318259Y1857558D1*
X2321255Y1854969D1*
X2323706Y1851860D1*
X2325525Y1848343D1*
X2326646Y1844546D1*
X2327028Y1840576D1*
X2326656Y1836663D1*
X2264156Y1811663D2*
X2263046Y1807862D1*
X2261236Y1804340D1*
X2258794Y1801224D1*
X2255804Y1798627D1*
X2252378Y1796643D1*
X2248639Y1795343D1*
X2244720Y1794774D1*
X2240765Y1794957D1*
X2236916Y1795886D1*
X2233312Y1797525D1*
X2230084Y1799818D1*
X2227348Y1802680D1*
X2225202Y1806008D1*
X2223726Y1809681D1*
X2222971Y1813568D1*
X2222966Y1817528D1*
X2223710Y1821416D1*
X2225176Y1825094D1*
X2227312Y1828428D1*
X2230041Y1831298D1*
X2233262Y1833598D1*
X2236862Y1835248D1*
X2240709Y1836186D1*
X2244664Y1836381D1*
X2248583Y1835823D1*
X2252327Y1834533D1*
X2255759Y1832558D1*
X2258755Y1829969D1*
X2261206Y1826860D1*
X2263025Y1823343D1*
X2264146Y1819546D1*
X2264528Y1815576D1*
X2264156Y1811663D1*
X2608478Y1517902D2*
X2605188Y1519399D1*
X2601959Y1521692D1*
X2599223Y1524554D1*
X2597077Y1527882D1*
X2595601Y1531555D1*
X2594846Y1535442D1*
X2594841Y1539402D1*
X2595585Y1543290D1*
X2597051Y1546969D1*
X2599188Y1550302D1*
X2601916Y1553172D1*
X2605138Y1555472D1*
X2608738Y1557122D1*
X2612584Y1558060D1*
X2616539Y1558255D1*
X2620458Y1557697D1*
X2624202Y1556407D1*
X2627634Y1554432D1*
X2630630Y1551843D1*
X2633081Y1548734D1*
X2634900Y1545217D1*
X2635094Y1544560D1*
X2636701Y1543907D1*
X2640133Y1541932D1*
X2643129Y1539343D1*
X2645580Y1536234D1*
X2647399Y1532717D1*
X2647593Y1532060D1*
X2649202Y1531407D1*
X2652634Y1529432D1*
X2655630Y1526843D1*
X2658081Y1523734D1*
X2659900Y1520217D1*
X2661021Y1516420D1*
X2661403Y1512450D1*
X2661031Y1508537D1*
X2659921Y1504736D1*
X2658112Y1501214D1*
X2655669Y1498098D1*
X2652680Y1495501D1*
X2649253Y1493517D1*
X2645514Y1492217D1*
X2641596Y1491648D1*
X2637640Y1491831D1*
X2633791Y1492760D1*
X2630188Y1494399D1*
X2626959Y1496692D1*
X2624223Y1499554D1*
X2622077Y1502882D1*
X2621096Y1505324D1*
X2617686Y1506899D1*
X2614458Y1509192D1*
X2611722Y1512054D1*
X2609576Y1515382D1*
X2608592Y1517832D1*
X2326656Y1786663D2*
X2325546Y1782862D1*
X2323736Y1779340D1*
X2321294Y1776224D1*
X2318304Y1773627D1*
X2314878Y1771643D1*
X2311139Y1770343D1*
X2307220Y1769774D1*
X2303265Y1769957D1*
X2299416Y1770886D1*
X2295812Y1772525D1*
X2292584Y1774818D1*
X2289848Y1777680D1*
X2287702Y1781008D1*
X2286226Y1784681D1*
X2285471Y1788568D1*
X2285466Y1792528D1*
X2286210Y1796416D1*
X2287676Y1800094D1*
X2289812Y1803428D1*
X2292541Y1806298D1*
X2295762Y1808598D1*
X2299362Y1810248D1*
X2303209Y1811186D1*
X2307164Y1811381D1*
X2311083Y1810823D1*
X2314827Y1809533D1*
X2318259Y1807558D1*
X2321255Y1804969D1*
X2323706Y1801860D1*
X2325525Y1798343D1*
X2326646Y1794546D1*
X2327028Y1790576D1*
X2326656Y1786663D1*
X2009260Y1872009D2*
X2008627Y1871643D1*
X2007076Y1871104D1*
X2006797Y1870362D1*
X2004987Y1866840D1*
X2002545Y1863724D1*
X1999555Y1861127D1*
X1996129Y1859143D1*
X1992390Y1857843D1*
X1988471Y1857274D1*
X1984516Y1857457D1*
X1980667Y1858386D1*
X1977063Y1860025D1*
X1973835Y1862318D1*
X1971098Y1865180D1*
X1968953Y1868508D1*
X1967476Y1872181D1*
X1966722Y1876068D1*
X1966717Y1880028D1*
X1967461Y1883916D1*
X1968927Y1887594D1*
X1971063Y1890928D1*
X1973791Y1893798D1*
X1977013Y1896098D1*
X1980356Y1897630D1*
X1981425Y1900094D1*
X1983562Y1903428D1*
X1986290Y1906298D1*
X1989512Y1908598D1*
X1993112Y1910248D1*
X1996958Y1911186D1*
X2000913Y1911381D1*
X2004832Y1910823D1*
X2008576Y1909533D1*
X2009256Y1909140D1*
X2011862Y1910248D1*
X2015709Y1911186D1*
X2019664Y1911381D1*
X2023583Y1910823D1*
X2027327Y1909533D1*
X2030759Y1907558D1*
X2033755Y1904969D1*
X2036206Y1901860D1*
X2038025Y1898343D1*
X2039146Y1894546D1*
X2039528Y1890576D1*
X2039156Y1886663D1*
X2038046Y1882862D1*
X2036236Y1879340D1*
X2033794Y1876224D1*
X2030804Y1873627D1*
X2027378Y1871643D1*
X2023639Y1870343D1*
X2019720Y1869774D1*
X2015765Y1869957D1*
X2011916Y1870886D1*
X2009413Y1872024D1*
X2920406Y1377287D2*
X2919295Y1373487D1*
X2917486Y1369965D1*
X2915043Y1366849D1*
X2912054Y1364252D1*
X2908627Y1362268D1*
X2904888Y1360967D1*
X2900970Y1360399D1*
X2897014Y1360581D1*
X2893165Y1361510D1*
X2889562Y1363150D1*
X2887521Y1364598D1*
X2887054Y1364252D1*
X2883627Y1362268D1*
X2879888Y1360967D1*
X2875970Y1360399D1*
X2872014Y1360581D1*
X2868165Y1361510D1*
X2864562Y1363150D1*
X2862521Y1364598D1*
X2862054Y1364252D1*
X2858627Y1362268D1*
X2854888Y1360967D1*
X2850970Y1360399D1*
X2847014Y1360581D1*
X2843165Y1361510D1*
X2839562Y1363150D1*
X2836333Y1365442D1*
X2833597Y1368304D1*
X2831451Y1371633D1*
X2829975Y1375306D1*
X2829220Y1379193D1*
X2829215Y1383152D1*
X2829959Y1387041D1*
X2831425Y1390719D1*
X2833562Y1394052D1*
X2836290Y1396923D1*
X2839512Y1399223D1*
X2843112Y1400873D1*
X2846958Y1401811D1*
X2850913Y1402005D1*
X2854832Y1401448D1*
X2858576Y1400157D1*
X2862008Y1398182D1*
X2862415Y1397831D1*
X2864512Y1399223D1*
X2868112Y1400873D1*
X2871958Y1401811D1*
X2875913Y1402005D1*
X2879832Y1401448D1*
X2883576Y1400157D1*
X2887008Y1398182D1*
X2887415Y1397831D1*
X2889512Y1399223D1*
X2893112Y1400873D1*
X2896958Y1401811D1*
X2900913Y1402005D1*
X2904832Y1401448D1*
X2908576Y1400157D1*
X2912008Y1398182D1*
X2915004Y1395593D1*
X2917455Y1392484D1*
X2919274Y1388967D1*
X2920395Y1385171D1*
X2920777Y1381201D1*
X2920406Y1377287D1*
X3539156Y1364787D2*
X3538046Y1360987D1*
X3536236Y1357465D1*
X3533794Y1354349D1*
X3530804Y1351752D1*
X3527378Y1349768D1*
X3523639Y1348467D1*
X3519720Y1347899D1*
X3515765Y1348081D1*
X3511916Y1349010D1*
X3508312Y1350650D1*
X3506272Y1352098D1*
X3505804Y1351752D1*
X3502378Y1349768D1*
X3498639Y1348467D1*
X3494720Y1347899D1*
X3490765Y1348081D1*
X3486916Y1349010D1*
X3483312Y1350650D1*
X3481272Y1352098D1*
X3480804Y1351752D1*
X3477378Y1349768D1*
X3473639Y1348467D1*
X3469720Y1347899D1*
X3465765Y1348081D1*
X3461916Y1349010D1*
X3458312Y1350650D1*
X3455084Y1352942D1*
X3452348Y1355804D1*
X3450202Y1359133D1*
X3448726Y1362806D1*
X3447971Y1366693D1*
X3447966Y1370652D1*
X3448710Y1374541D1*
X3450176Y1378219D1*
X3452312Y1381552D1*
X3455041Y1384423D1*
X3458262Y1386723D1*
X3461862Y1388373D1*
X3465709Y1389311D1*
X3469664Y1389505D1*
X3473583Y1388948D1*
X3477327Y1387657D1*
X3480759Y1385682D1*
X3481165Y1385331D1*
X3483262Y1386723D1*
X3486862Y1388373D1*
X3490709Y1389311D1*
X3494664Y1389505D1*
X3498583Y1388948D1*
X3502327Y1387657D1*
X3505759Y1385682D1*
X3506165Y1385331D1*
X3508262Y1386723D1*
X3511862Y1388373D1*
X3515709Y1389311D1*
X3519664Y1389505D1*
X3523583Y1388948D1*
X3527327Y1387657D1*
X3530759Y1385682D1*
X3533755Y1383093D1*
X3536206Y1379984D1*
X3538025Y1376467D1*
X3539146Y1372671D1*
X3539528Y1368701D1*
X3539156Y1364787D1*
X2086602Y2230402D2*
X2083312Y2231899D1*
X2080084Y2234192D1*
X2077348Y2237054D1*
X2075202Y2240382D1*
X2073726Y2244055D1*
X2072971Y2247942D1*
X2072966Y2251902D1*
X2073710Y2255790D1*
X2075176Y2259469D1*
X2077312Y2262802D1*
X2080041Y2265672D1*
X2083262Y2267972D1*
X2086862Y2269622D1*
X2090709Y2270560D1*
X2094664Y2270755D1*
X2098583Y2270197D1*
X2102327Y2268907D1*
X2105759Y2266932D1*
X2108755Y2264343D1*
X2111206Y2261234D1*
X2113025Y2257717D1*
X2113219Y2257060D1*
X2114827Y2256406D1*
X2118259Y2254430D1*
X2121255Y2251841D1*
X2123706Y2248732D1*
X2125525Y2245215D1*
X2125719Y2244559D1*
X2127327Y2243907D1*
X2130759Y2241932D1*
X2133755Y2239343D1*
X2136206Y2236234D1*
X2138025Y2232717D1*
X2139146Y2228920D1*
X2139528Y2224950D1*
X2139156Y2221037D1*
X2138046Y2217236D1*
X2136236Y2213714D1*
X2133794Y2210598D1*
X2130804Y2208001D1*
X2127378Y2206017D1*
X2123639Y2204717D1*
X2119720Y2204148D1*
X2115765Y2204331D1*
X2111916Y2205260D1*
X2108312Y2206899D1*
X2105084Y2209192D1*
X2102348Y2212054D1*
X2100202Y2215382D1*
X2099220Y2217824D1*
X2095812Y2219398D1*
X2092584Y2221690D1*
X2089848Y2224552D1*
X2087702Y2227881D1*
X2086718Y2230331D1*
X1984260Y2134509D2*
X1983627Y2134143D1*
X1979888Y2132843D1*
X1975970Y2132274D1*
X1972014Y2132457D1*
X1968165Y2133386D1*
X1964562Y2135025D1*
X1961333Y2137318D1*
X1958597Y2140180D1*
X1956451Y2143508D1*
X1954975Y2147181D1*
X1954220Y2151068D1*
X1954215Y2155028D1*
X1954959Y2158916D1*
X1956425Y2162594D1*
X1958562Y2165928D1*
X1961290Y2168798D1*
X1964512Y2171098D1*
X1968112Y2172748D1*
X1971958Y2173686D1*
X1975913Y2173881D1*
X1979832Y2173323D1*
X1983576Y2172033D1*
X1984256Y2171640D1*
X1986862Y2172748D1*
X1990709Y2173686D1*
X1994664Y2173881D1*
X1998583Y2173323D1*
X2002327Y2172033D1*
X2003007Y2171640D1*
X2005613Y2172748D1*
X2009459Y2173686D1*
X2013415Y2173881D1*
X2017333Y2173323D1*
X2021077Y2172033D1*
X2024509Y2170058D1*
X2027505Y2167469D1*
X2029957Y2164360D1*
X2031776Y2160843D1*
X2032896Y2157046D1*
X2033278Y2153076D1*
X2032907Y2149163D1*
X2031797Y2145362D1*
X2029987Y2141840D1*
X2027545Y2138724D1*
X2024555Y2136127D1*
X2021129Y2134143D1*
X2017390Y2132843D1*
X2013471Y2132274D1*
X2009516Y2132457D1*
X2005667Y2133386D1*
X2003164Y2134524D1*
X2002378Y2134143D1*
X1998639Y2132843D1*
X1994720Y2132274D1*
X1990765Y2132457D1*
X1986916Y2133386D1*
X1984413Y2134524D1*
X2261374Y1628933D2*
X2261197Y1628328D1*
X2259387Y1624806D1*
X2256945Y1621690D1*
X2253955Y1619093D1*
X2250529Y1617109D1*
X2246790Y1615808D1*
X2242871Y1615240D1*
X2238916Y1615423D1*
X2235067Y1616352D1*
X2231463Y1617991D1*
X2228235Y1620283D1*
X2225499Y1623146D1*
X2223353Y1626474D1*
X2221877Y1630147D1*
X2221122Y1634034D1*
X2221117Y1637993D1*
X2221861Y1641882D1*
X2223327Y1645560D1*
X2225463Y1648894D1*
X2228192Y1651764D1*
X2231413Y1654064D1*
X2234756Y1655596D1*
X2235827Y1658060D1*
X2237963Y1661394D1*
X2240692Y1664264D1*
X2243913Y1666564D1*
X2247256Y1668096D1*
X2248327Y1670560D1*
X2250463Y1673894D1*
X2253192Y1676764D1*
X2256413Y1679064D1*
X2260013Y1680714D1*
X2263860Y1681652D1*
X2267815Y1681846D1*
X2271734Y1681289D1*
X2275478Y1679999D1*
X2278909Y1678024D1*
X2281906Y1675434D1*
X2284357Y1672325D1*
X2286176Y1668808D1*
X2287297Y1665012D1*
X2287678Y1661042D1*
X2287307Y1657129D1*
X2286197Y1653328D1*
X2284387Y1649806D1*
X2281945Y1646690D1*
X2278955Y1644093D1*
X2275529Y1642109D1*
X2273978Y1641570D1*
X2273697Y1640828D1*
X2271887Y1637306D1*
X2269445Y1634190D1*
X2266455Y1631593D1*
X2263029Y1629609D1*
X2261478Y1629070D1*
X2261374Y1628933D1*
X1911031Y2005412D2*
X1909921Y2001612D1*
X1908112Y1998089D1*
X1905669Y1994974D1*
X1902680Y1992377D1*
X1899253Y1990392D1*
X1895514Y1989092D1*
X1891596Y1988524D1*
X1887640Y1988706D1*
X1883791Y1989635D1*
X1880188Y1991274D1*
X1876959Y1993567D1*
X1874223Y1996429D1*
X1872077Y1999757D1*
X1870601Y2003430D1*
X1869846Y2007318D1*
X1869841Y2011277D1*
X1870585Y2015165D1*
X1872051Y2018844D1*
X1874188Y2022177D1*
X1876916Y2025047D1*
X1880138Y2027348D1*
X1883738Y2028997D1*
X1887584Y2029936D1*
X1891539Y2030130D1*
X1895458Y2029572D1*
X1899202Y2028282D1*
X1902634Y2026307D1*
X1905630Y2023718D1*
X1908081Y2020609D1*
X1909900Y2017092D1*
X1911021Y2013295D1*
X1911403Y2009325D1*
X1911031Y2005412D1*
X1745407Y2127287D2*
X1744297Y2123487D1*
X1742487Y2119965D1*
X1740045Y2116849D1*
X1737055Y2114252D1*
X1733629Y2112268D1*
X1729890Y2110967D1*
X1725971Y2110399D1*
X1722016Y2110581D1*
X1718167Y2111510D1*
X1714563Y2113150D1*
X1711335Y2115442D1*
X1708598Y2118304D1*
X1706453Y2121633D1*
X1704976Y2125306D1*
X1704222Y2129193D1*
X1704217Y2133152D1*
X1704961Y2137041D1*
X1706427Y2140719D1*
X1708563Y2144052D1*
X1711291Y2146923D1*
X1714513Y2149223D1*
X1718113Y2150873D1*
X1721959Y2151811D1*
X1725915Y2152005D1*
X1729833Y2151448D1*
X1733577Y2150157D1*
X1737009Y2148182D1*
X1740005Y2145593D1*
X1742457Y2142484D1*
X1744276Y2138967D1*
X1745396Y2135171D1*
X1745778Y2131201D1*
X1745407Y2127287D1*
X2860885Y1102970D2*
X2859774Y1099169D1*
X2857965Y1095647D1*
X2855522Y1092531D1*
X2852533Y1089934D1*
X2849106Y1087950D1*
X2845367Y1086650D1*
X2841449Y1086081D1*
X2837493Y1086264D1*
X2833644Y1087193D1*
X2831501Y1088168D1*
X2830719Y1087787D1*
X2826980Y1086487D1*
X2823062Y1085919D1*
X2819106Y1086101D1*
X2815257Y1087030D1*
X2812755Y1088168D1*
X2811970Y1087787D1*
X2808231Y1086487D1*
X2804312Y1085919D1*
X2800357Y1086101D1*
X2796508Y1087030D1*
X2792904Y1088669D1*
X2789676Y1090962D1*
X2786940Y1093824D1*
X2784794Y1097152D1*
X2783318Y1100825D1*
X2782563Y1104713D1*
X2782558Y1108672D1*
X2783302Y1112560D1*
X2784768Y1116239D1*
X2786904Y1119572D1*
X2789633Y1122442D1*
X2792854Y1124743D1*
X2796454Y1126392D1*
X2800301Y1127331D1*
X2804256Y1127525D1*
X2808175Y1126967D1*
X2811919Y1125677D1*
X2812598Y1125285D1*
X2815203Y1126392D1*
X2819050Y1127331D1*
X2823005Y1127525D1*
X2826924Y1126967D1*
X2830668Y1125677D1*
X2831033Y1125467D1*
X2833591Y1126555D1*
X2837437Y1127493D1*
X2841392Y1127688D1*
X2845311Y1127130D1*
X2849055Y1125840D1*
X2852487Y1123865D1*
X2855483Y1121276D1*
X2857934Y1118167D1*
X2859753Y1114650D1*
X2860874Y1110853D1*
X2861256Y1106883D1*
X2860885Y1102970D1*
X1786031Y2164787D2*
X1784921Y2160987D1*
X1783112Y2157465D1*
X1780669Y2154349D1*
X1777680Y2151752D1*
X1774253Y2149768D1*
X1770514Y2148467D1*
X1766596Y2147899D1*
X1762640Y2148081D1*
X1758791Y2149010D1*
X1755188Y2150650D1*
X1751959Y2152942D1*
X1749223Y2155804D1*
X1747077Y2159133D1*
X1745601Y2162806D1*
X1744846Y2166693D1*
X1744841Y2170652D1*
X1745585Y2174541D1*
X1747051Y2178219D1*
X1749188Y2181552D1*
X1751916Y2184423D1*
X1755138Y2186723D1*
X1758738Y2188373D1*
X1762584Y2189311D1*
X1766539Y2189505D1*
X1770458Y2188948D1*
X1774202Y2187657D1*
X1777634Y2185682D1*
X1780630Y2183093D1*
X1783081Y2179984D1*
X1784900Y2176467D1*
X1786021Y2172671D1*
X1786403Y2168701D1*
X1786031Y2164787D1*
X1851656Y2174163D2*
X1850546Y2170362D1*
X1848736Y2166840D1*
X1846294Y2163724D1*
X1843304Y2161127D1*
X1839878Y2159143D1*
X1836139Y2157843D1*
X1832220Y2157274D1*
X1828265Y2157457D1*
X1824416Y2158386D1*
X1820812Y2160025D1*
X1817584Y2162318D1*
X1814848Y2165180D1*
X1812702Y2168508D1*
X1811226Y2172181D1*
X1810471Y2176068D1*
X1810466Y2180028D1*
X1811210Y2183916D1*
X1812676Y2187594D1*
X1814812Y2190928D1*
X1817541Y2193798D1*
X1820762Y2196098D1*
X1824362Y2197748D1*
X1828209Y2198686D1*
X1832164Y2198881D1*
X1836083Y2198323D1*
X1839827Y2197033D1*
X1843259Y2195058D1*
X1846255Y2192469D1*
X1848706Y2189360D1*
X1850525Y2185843D1*
X1851646Y2182046D1*
X1852028Y2178076D1*
X1851656Y2174163D1*
X620406Y1646038D2*
X619295Y1642238D1*
X617486Y1638715D1*
X616552Y1637526D1*
X617455Y1636235D1*
X619274Y1632718D1*
X620395Y1628921D1*
X620777Y1624951D1*
X620406Y1621038D1*
X619295Y1617238D1*
X617486Y1613715D1*
X616552Y1612526D1*
X617455Y1611235D1*
X619274Y1607718D1*
X620395Y1603921D1*
X620777Y1599951D1*
X620406Y1596038D1*
X620168Y1595224D1*
X621958Y1595562D1*
X625913Y1595756D1*
X629832Y1595198D1*
X633576Y1593908D1*
X637008Y1591933D1*
X640004Y1589344D1*
X642455Y1586235D1*
X644274Y1582718D1*
X645395Y1578921D1*
X645777Y1574951D1*
X645406Y1571038D1*
X644295Y1567238D1*
X642486Y1563715D1*
X641552Y1562526D1*
X642455Y1561234D1*
X644274Y1557717D1*
X645395Y1553920D1*
X645777Y1549950D1*
X645406Y1546037D1*
X644295Y1542236D1*
X642486Y1538714D1*
X641552Y1537525D1*
X642455Y1536234D1*
X644274Y1532717D1*
X645395Y1528920D1*
X645777Y1524950D1*
X645406Y1521037D1*
X644295Y1517236D1*
X642486Y1513714D1*
X640043Y1510598D1*
X637054Y1508001D1*
X633627Y1506017D1*
X629888Y1504717D1*
X625970Y1504148D1*
X622014Y1504331D1*
X618165Y1505260D1*
X614562Y1506899D1*
X612521Y1508348D1*
X612054Y1508001D1*
X608627Y1506017D1*
X604888Y1504717D1*
X600970Y1504148D1*
X597014Y1504331D1*
X593165Y1505260D1*
X589562Y1506899D1*
X587521Y1508348D1*
X587054Y1508001D1*
X583627Y1506017D1*
X579888Y1504717D1*
X575970Y1504148D1*
X572014Y1504331D1*
X568165Y1505260D1*
X564562Y1506899D1*
X561333Y1509192D1*
X558597Y1512054D1*
X556451Y1515382D1*
X554975Y1519055D1*
X554220Y1522942D1*
X554215Y1526902D1*
X554959Y1530790D1*
X556425Y1534469D1*
X558318Y1537421D1*
X556451Y1540382D1*
X554975Y1544055D1*
X554220Y1547942D1*
X554215Y1551902D1*
X554959Y1555790D1*
X556425Y1559469D1*
X558318Y1562421D1*
X556451Y1565383D1*
X554975Y1569056D1*
X554220Y1572944D1*
X554215Y1576903D1*
X554959Y1580791D1*
X556425Y1584470D1*
X558562Y1587803D1*
X561290Y1590673D1*
X564512Y1592974D1*
X568112Y1594623D1*
X571958Y1595562D1*
X575913Y1595756D1*
X579668Y1595222D1*
X579220Y1597944D1*
X579215Y1601903D1*
X579959Y1605791D1*
X581425Y1609470D1*
X583318Y1612423D1*
X581451Y1615383D1*
X579975Y1619056D1*
X579220Y1622944D1*
X579215Y1626903D1*
X579959Y1630791D1*
X581425Y1634470D1*
X583318Y1637423D1*
X581451Y1640383D1*
X579975Y1644056D1*
X579220Y1647944D1*
X579215Y1651903D1*
X579748Y1654686D1*
X575970Y1654150D1*
X572014Y1654332D1*
X568165Y1655261D1*
X564562Y1656900D1*
X561333Y1659193D1*
X558597Y1662055D1*
X556451Y1665383D1*
X554975Y1669056D1*
X554220Y1672944D1*
X554215Y1676903D1*
X554959Y1680791D1*
X556425Y1684470D1*
X558318Y1687423D1*
X556451Y1690383D1*
X554975Y1694056D1*
X554220Y1697944D1*
X554215Y1701903D1*
X554959Y1705791D1*
X556425Y1709470D1*
X558314Y1712416D1*
X556451Y1715382D1*
X554975Y1719055D1*
X554220Y1722942D1*
X554215Y1726902D1*
X554959Y1730790D1*
X556425Y1734469D1*
X558562Y1737802D1*
X561290Y1740672D1*
X564512Y1742972D1*
X568112Y1744622D1*
X571958Y1745560D1*
X575913Y1745755D1*
X579832Y1745197D1*
X583576Y1743907D1*
X587008Y1741932D1*
X587415Y1741580D1*
X589512Y1742972D1*
X593112Y1744622D1*
X596958Y1745560D1*
X600913Y1745755D1*
X604832Y1745197D1*
X608576Y1743907D1*
X612008Y1741932D1*
X612415Y1741580D1*
X614512Y1742972D1*
X618112Y1744622D1*
X621958Y1745560D1*
X625913Y1745755D1*
X629832Y1745197D1*
X633576Y1743907D1*
X637008Y1741932D1*
X640004Y1739343D1*
X642455Y1736234D1*
X644274Y1732717D1*
X645395Y1728920D1*
X645777Y1724950D1*
X645406Y1721037D1*
X644295Y1717236D1*
X642486Y1713714D1*
X641552Y1712525D1*
X642455Y1711235D1*
X644274Y1707718D1*
X645395Y1703921D1*
X645777Y1699951D1*
X645406Y1696038D1*
X644295Y1692238D1*
X642486Y1688715D1*
X641552Y1687526D1*
X642455Y1686235D1*
X644274Y1682718D1*
X645395Y1678921D1*
X645777Y1674951D1*
X645406Y1671038D1*
X644295Y1667238D1*
X642486Y1663715D1*
X640043Y1660600D1*
X637054Y1658003D1*
X633627Y1656018D1*
X629888Y1654718D1*
X625970Y1654150D1*
X622014Y1654332D1*
X620214Y1654766D1*
X620395Y1653921D1*
X620777Y1649951D1*
X620406Y1646038D1*
X1984434Y2318676D2*
X1983324Y2314875D1*
X1981514Y2311353D1*
X1979072Y2308238D1*
X1976083Y2305640D1*
X1972656Y2303656D1*
X1968917Y2302356D1*
X1964999Y2301787D1*
X1961043Y2301970D1*
X1957194Y2302899D1*
X1953591Y2304538D1*
X1950362Y2306831D1*
X1947626Y2309693D1*
X1945480Y2313021D1*
X1944004Y2316694D1*
X1943249Y2320581D1*
X1943244Y2324541D1*
X1943988Y2328429D1*
X1945454Y2332108D1*
X1947591Y2335441D1*
X1950319Y2338311D1*
X1953541Y2340612D1*
X1957140Y2342261D1*
X1960987Y2343199D1*
X1964942Y2343394D1*
X1968861Y2342836D1*
X1972605Y2341546D1*
X1976037Y2339571D1*
X1979033Y2336982D1*
X1981484Y2333873D1*
X1983303Y2330356D1*
X1984424Y2326559D1*
X1984806Y2322589D1*
X1984434Y2318676D1*
X1970406Y2417912D2*
X1969295Y2414112D1*
X1967486Y2410589D1*
X1965043Y2407474D1*
X1962054Y2404877D1*
X1958627Y2402892D1*
X1954888Y2401592D1*
X1950970Y2401024D1*
X1947014Y2401206D1*
X1943165Y2402135D1*
X1939562Y2403774D1*
X1936333Y2406067D1*
X1933597Y2408929D1*
X1931451Y2412257D1*
X1929975Y2415930D1*
X1929220Y2419818D1*
X1929215Y2423777D1*
X1929959Y2427665D1*
X1931425Y2431344D1*
X1933562Y2434677D1*
X1936290Y2437547D1*
X1939512Y2439848D1*
X1943112Y2441497D1*
X1946958Y2442436D1*
X1950913Y2442630D1*
X1954832Y2442072D1*
X1958576Y2440782D1*
X1962008Y2438807D1*
X1965004Y2436218D1*
X1967455Y2433109D1*
X1969274Y2429592D1*
X1970395Y2425795D1*
X1970777Y2421825D1*
X1970406Y2417912D1*
X2695978Y1605402D2*
X2692688Y1606899D1*
X2689459Y1609192D1*
X2686723Y1612054D1*
X2684577Y1615382D1*
X2683101Y1619055D1*
X2682346Y1622942D1*
X2682341Y1626902D1*
X2683085Y1630790D1*
X2684551Y1634469D1*
X2686688Y1637802D1*
X2689416Y1640672D1*
X2692638Y1642972D1*
X2696238Y1644622D1*
X2700084Y1645560D1*
X2704039Y1645755D1*
X2707958Y1645197D1*
X2711702Y1643907D1*
X2715134Y1641932D1*
X2718130Y1639343D1*
X2720581Y1636234D1*
X2722400Y1632717D1*
X2722594Y1632060D1*
X2724202Y1631408D1*
X2727634Y1629433D1*
X2730630Y1626844D1*
X2733081Y1623735D1*
X2734900Y1620218D1*
X2735094Y1619562D1*
X2736702Y1618908D1*
X2740134Y1616933D1*
X2743130Y1614344D1*
X2745581Y1611235D1*
X2747400Y1607718D1*
X2748521Y1603921D1*
X2748903Y1599951D1*
X2748531Y1596038D1*
X2747421Y1592238D1*
X2745612Y1588715D1*
X2743169Y1585600D1*
X2740180Y1583003D1*
X2736753Y1581018D1*
X2733014Y1579718D1*
X2729096Y1579150D1*
X2725140Y1579332D1*
X2721291Y1580261D1*
X2717688Y1581900D1*
X2714459Y1584193D1*
X2711723Y1587055D1*
X2709577Y1590383D1*
X2708593Y1592833D1*
X2705188Y1594400D1*
X2701959Y1596693D1*
X2699223Y1599555D1*
X2697077Y1602883D1*
X2696096Y1605325D1*
X3516772Y2149163D2*
X3515661Y2145362D1*
X3513852Y2141840D1*
X3511409Y2138724D1*
X3508420Y2136127D1*
X3504993Y2134143D1*
X3501255Y2132843D1*
X3497336Y2132274D1*
X3493381Y2132457D1*
X3489531Y2133386D1*
X3485928Y2135025D1*
X3482699Y2137318D1*
X3479963Y2140180D1*
X3477818Y2143508D1*
X3476341Y2147181D1*
X3475587Y2151068D1*
X3475581Y2155028D1*
X3476325Y2158916D1*
X3477791Y2162594D1*
X3479928Y2165928D1*
X3482656Y2168798D1*
X3485878Y2171098D1*
X3489478Y2172748D1*
X3493324Y2173686D1*
X3497280Y2173881D1*
X3501198Y2173323D1*
X3504942Y2172033D1*
X3508374Y2170058D1*
X3511370Y2167469D1*
X3513822Y2164360D1*
X3515640Y2160843D1*
X3516761Y2157046D1*
X3517143Y2153076D1*
X3516772Y2149163D1*
X3614156D2*
X3613046Y2145362D1*
X3611236Y2141840D1*
X3608794Y2138724D1*
X3605804Y2136127D1*
X3602378Y2134143D1*
X3598639Y2132843D1*
X3594720Y2132274D1*
X3590765Y2132457D1*
X3586916Y2133386D1*
X3583312Y2135025D1*
X3580084Y2137318D1*
X3577348Y2140180D1*
X3575202Y2143508D1*
X3573726Y2147181D1*
X3572971Y2151068D1*
X3572966Y2155028D1*
X3573710Y2158916D1*
X3575176Y2162594D1*
X3577312Y2165928D1*
X3580041Y2168798D1*
X3583262Y2171098D1*
X3586862Y2172748D1*
X3590709Y2173686D1*
X3594664Y2173881D1*
X3598583Y2173323D1*
X3602327Y2172033D1*
X3605759Y2170058D1*
X3608755Y2167469D1*
X3611206Y2164360D1*
X3613025Y2160843D1*
X3614146Y2157046D1*
X3614528Y2153076D1*
X3614156Y2149163D1*
X3917281Y2189787D2*
X3916171Y2185987D1*
X3915370Y2184429D1*
X3916150Y2182718D1*
X3917270Y2178921D1*
X3917652Y2174951D1*
X3917281Y2171038D1*
X3916171Y2167238D1*
X3915370Y2165680D1*
X3916150Y2163967D1*
X3917270Y2160171D1*
X3917652Y2156201D1*
X3917281Y2152287D1*
X3916171Y2148487D1*
X3914361Y2144965D1*
X3911919Y2141849D1*
X3908929Y2139252D1*
X3905503Y2137268D1*
X3901764Y2135967D1*
X3897845Y2135399D1*
X3893890Y2135581D1*
X3890041Y2136510D1*
X3886437Y2138150D1*
X3883209Y2140442D1*
X3880472Y2143304D1*
X3878327Y2146633D1*
X3876850Y2150306D1*
X3876096Y2154193D1*
X3876091Y2158152D1*
X3876835Y2162041D1*
X3878236Y2165558D1*
X3876850Y2169056D1*
X3876096Y2172944D1*
X3876091Y2176903D1*
X3876835Y2180791D1*
X3878236Y2184308D1*
X3876850Y2187806D1*
X3876096Y2191693D1*
X3876091Y2195652D1*
X3876835Y2199541D1*
X3878301Y2203219D1*
X3880437Y2206552D1*
X3883165Y2209423D1*
X3886387Y2211723D1*
X3889987Y2213373D1*
X3893833Y2214311D1*
X3897789Y2214505D1*
X3901707Y2213948D1*
X3905451Y2212657D1*
X3908883Y2210682D1*
X3911879Y2208093D1*
X3914331Y2204984D1*
X3916150Y2201467D1*
X3917270Y2197671D1*
X3917652Y2193701D1*
X3917281Y2189787D1*
X3357907Y2389787D2*
X3356797Y2385987D1*
X3354987Y2382465D1*
X3352545Y2379349D1*
X3349555Y2376752D1*
X3346129Y2374768D1*
X3342390Y2373467D1*
X3338471Y2372899D1*
X3334516Y2373081D1*
X3330667Y2374010D1*
X3327063Y2375650D1*
X3323835Y2377942D1*
X3321098Y2380804D1*
X3318953Y2384133D1*
X3317476Y2387806D1*
X3316722Y2391693D1*
X3316717Y2395652D1*
X3317461Y2399541D1*
X3318927Y2403219D1*
X3321063Y2406552D1*
X3323791Y2409423D1*
X3327013Y2411723D1*
X3330613Y2413373D1*
X3334459Y2414311D1*
X3338415Y2414505D1*
X3342333Y2413948D1*
X3346077Y2412657D1*
X3349509Y2410682D1*
X3352505Y2408093D1*
X3354957Y2404984D1*
X3356776Y2401467D1*
X3357896Y2397671D1*
X3358278Y2393701D1*
X3357907Y2389787D1*
X1082907Y2546037D2*
X1081797Y2542236D1*
X1079987Y2538714D1*
X1077545Y2535598D1*
X1074555Y2533001D1*
X1071129Y2531017D1*
X1067390Y2529717D1*
X1063471Y2529148D1*
X1059516Y2529331D1*
X1055667Y2530260D1*
X1053164Y2531398D1*
X1052378Y2531017D1*
X1048639Y2529717D1*
X1044720Y2529148D1*
X1040765Y2529331D1*
X1036916Y2530260D1*
X1034413Y2531398D1*
X1033627Y2531017D1*
X1029888Y2529717D1*
X1025970Y2529148D1*
X1022014Y2529331D1*
X1018165Y2530260D1*
X1014562Y2531899D1*
X1011333Y2534192D1*
X1008597Y2537054D1*
X1006451Y2540382D1*
X1004975Y2544055D1*
X1004220Y2547942D1*
X1004215Y2551902D1*
X1004959Y2555790D1*
X1006425Y2559469D1*
X1008562Y2562802D1*
X1011290Y2565672D1*
X1014512Y2567972D1*
X1018112Y2569622D1*
X1021958Y2570560D1*
X1025913Y2570755D1*
X1029832Y2570197D1*
X1033576Y2568907D1*
X1034256Y2568514D1*
X1036862Y2569622D1*
X1040709Y2570560D1*
X1044664Y2570755D1*
X1048583Y2570197D1*
X1052327Y2568907D1*
X1053007Y2568514D1*
X1055613Y2569622D1*
X1059459Y2570560D1*
X1063415Y2570755D1*
X1067333Y2570197D1*
X1071077Y2568907D1*
X1074509Y2566932D1*
X1077505Y2564343D1*
X1079957Y2561234D1*
X1081776Y2557717D1*
X1082896Y2553920D1*
X1083278Y2549950D1*
X1082907Y2546037D1*
X2830353Y1733528D2*
X2827063Y1735025D1*
X2823835Y1737318D1*
X2821098Y1740180D1*
X2818953Y1743508D1*
X2817476Y1747181D1*
X2816722Y1751068D1*
X2816717Y1755028D1*
X2817461Y1758916D1*
X2818927Y1762594D1*
X2821063Y1765928D1*
X2823791Y1768798D1*
X2827013Y1771098D1*
X2830613Y1772748D1*
X2834459Y1773686D1*
X2838415Y1773881D1*
X2842333Y1773323D1*
X2846077Y1772033D1*
X2849509Y1770058D1*
X2852505Y1767469D1*
X2854957Y1764360D1*
X2856776Y1760843D1*
X2856970Y1760186D1*
X2858576Y1759533D1*
X2862008Y1757558D1*
X2865004Y1754969D1*
X2867455Y1751860D1*
X2869274Y1748343D1*
X2869469Y1747686D1*
X2871077Y1747033D1*
X2874509Y1745058D1*
X2877505Y1742469D1*
X2879957Y1739360D1*
X2881776Y1735843D1*
X2882896Y1732046D1*
X2883278Y1728076D1*
X2882907Y1724163D1*
X2881797Y1720362D1*
X2879987Y1716840D1*
X2877545Y1713724D1*
X2874555Y1711127D1*
X2871129Y1709143D1*
X2867390Y1707843D1*
X2863471Y1707274D1*
X2859516Y1707457D1*
X2855667Y1708386D1*
X2852063Y1710025D1*
X2848835Y1712318D1*
X2846098Y1715180D1*
X2843953Y1718508D1*
X2842971Y1720950D1*
X2839562Y1722525D1*
X2836333Y1724818D1*
X2833597Y1727680D1*
X2831451Y1731008D1*
X2830467Y1733458D1*
X1394474Y2486592D2*
X1394297Y2485987D1*
X1392487Y2482465D1*
X1390045Y2479349D1*
X1387055Y2476752D1*
X1383629Y2474768D1*
X1379890Y2473467D1*
X1375971Y2472899D1*
X1372016Y2473081D1*
X1368167Y2474010D1*
X1364563Y2475650D1*
X1361335Y2477942D1*
X1358598Y2480804D1*
X1356453Y2484133D1*
X1354976Y2487806D1*
X1354222Y2491693D1*
X1354217Y2495652D1*
X1354961Y2499541D1*
X1356427Y2503219D1*
X1358563Y2506552D1*
X1361291Y2509423D1*
X1364513Y2511723D1*
X1367856Y2513255D1*
X1368927Y2515719D1*
X1371063Y2519052D1*
X1373791Y2521923D1*
X1377013Y2524223D1*
X1380356Y2525755D1*
X1381427Y2528219D1*
X1383563Y2531552D1*
X1386291Y2534423D1*
X1389513Y2536723D1*
X1393113Y2538373D1*
X1396959Y2539311D1*
X1400915Y2539505D1*
X1404833Y2538948D1*
X1408577Y2537657D1*
X1412009Y2535682D1*
X1415005Y2533093D1*
X1417457Y2529984D1*
X1419276Y2526467D1*
X1420396Y2522671D1*
X1420778Y2518701D1*
X1420407Y2514787D1*
X1419297Y2510987D1*
X1417487Y2507465D1*
X1415045Y2504349D1*
X1412055Y2501752D1*
X1408629Y2499768D1*
X1407077Y2499228D1*
X1406797Y2498487D1*
X1404987Y2494965D1*
X1402545Y2491849D1*
X1399555Y2489252D1*
X1396129Y2487268D1*
X1394577Y2486728D1*
X1394474Y2486592D1*
X871761Y1087634D2*
X871129Y1087268D1*
X867390Y1085967D1*
X863471Y1085399D1*
X859516Y1085581D1*
X855667Y1086510D1*
X852063Y1088150D1*
X848835Y1090442D1*
X846098Y1093304D1*
X843953Y1096633D1*
X842476Y1100306D1*
X841722Y1104193D1*
X841717Y1108152D1*
X842461Y1112041D1*
X843927Y1115719D1*
X846063Y1119052D1*
X848791Y1121923D1*
X852013Y1124223D1*
X855613Y1125873D1*
X859459Y1126811D1*
X863415Y1127005D1*
X867333Y1126448D1*
X871077Y1125157D1*
X871757Y1124765D1*
X874362Y1125873D1*
X878209Y1126811D1*
X882164Y1127005D1*
X886083Y1126448D1*
X889827Y1125157D1*
X890507Y1124765D1*
X893112Y1125873D1*
X896958Y1126811D1*
X900913Y1127005D1*
X904832Y1126448D1*
X908576Y1125157D1*
X912008Y1123182D1*
X915004Y1120593D1*
X917455Y1117484D1*
X919274Y1113967D1*
X920395Y1110171D1*
X920777Y1106201D1*
X920406Y1102287D1*
X919295Y1098487D1*
X917486Y1094965D1*
X915043Y1091849D1*
X912054Y1089252D1*
X908627Y1087268D1*
X904888Y1085967D1*
X900970Y1085399D1*
X897014Y1085581D1*
X893165Y1086510D1*
X890663Y1087648D1*
X889878Y1087268D1*
X886139Y1085967D1*
X882220Y1085399D1*
X878265Y1085581D1*
X874416Y1086510D1*
X871913Y1087648D1*
X3465510Y1087634D2*
X3464878Y1087268D1*
X3461139Y1085967D1*
X3457220Y1085399D1*
X3453265Y1085581D1*
X3449416Y1086510D1*
X3445812Y1088150D1*
X3442584Y1090442D1*
X3439848Y1093304D1*
X3437702Y1096633D1*
X3436226Y1100306D1*
X3435471Y1104193D1*
X3435466Y1108152D1*
X3436210Y1112041D1*
X3437676Y1115719D1*
X3439812Y1119052D1*
X3442541Y1121923D1*
X3445762Y1124223D1*
X3449362Y1125873D1*
X3453209Y1126811D1*
X3457164Y1127005D1*
X3461083Y1126448D1*
X3464827Y1125157D1*
X3465507Y1124765D1*
X3468112Y1125873D1*
X3471958Y1126811D1*
X3475913Y1127005D1*
X3479832Y1126448D1*
X3483576Y1125157D1*
X3484256Y1124765D1*
X3486862Y1125873D1*
X3490709Y1126811D1*
X3494664Y1127005D1*
X3498583Y1126448D1*
X3502327Y1125157D1*
X3505759Y1123182D1*
X3508755Y1120593D1*
X3511206Y1117484D1*
X3513025Y1113967D1*
X3514146Y1110171D1*
X3514528Y1106201D1*
X3514156Y1102287D1*
X3513046Y1098487D1*
X3511236Y1094965D1*
X3508794Y1091849D1*
X3505804Y1089252D1*
X3502378Y1087268D1*
X3498639Y1085967D1*
X3494720Y1085399D1*
X3490765Y1085581D1*
X3486916Y1086510D1*
X3484413Y1087648D1*
X3483627Y1087268D1*
X3479888Y1085967D1*
X3475970Y1085399D1*
X3472014Y1085581D1*
X3468165Y1086510D1*
X3465663Y1087648D1*
X3801656Y833538D2*
X3800546Y829738D1*
X3799745Y828180D1*
X3800525Y826467D1*
X3801646Y822671D1*
X3802028Y818701D1*
X3801656Y814787D1*
X3800546Y810987D1*
X3799745Y809429D1*
X3800525Y807717D1*
X3801646Y803920D1*
X3802028Y799950D1*
X3801656Y796037D1*
X3800546Y792236D1*
X3799745Y790678D1*
X3800525Y788967D1*
X3801646Y785171D1*
X3802028Y781201D1*
X3801656Y777287D1*
X3800546Y773487D1*
X3798736Y769965D1*
X3796294Y766849D1*
X3793304Y764252D1*
X3789878Y762268D1*
X3786139Y760967D1*
X3782220Y760399D1*
X3778265Y760581D1*
X3774416Y761510D1*
X3770812Y763150D1*
X3767584Y765442D1*
X3764848Y768304D1*
X3762702Y771633D1*
X3761226Y775306D1*
X3760471Y779193D1*
X3760466Y783152D1*
X3761210Y787041D1*
X3762612Y790558D1*
X3761226Y794055D1*
X3760471Y797942D1*
X3760466Y801902D1*
X3761210Y805790D1*
X3762612Y809307D1*
X3761226Y812806D1*
X3760471Y816693D1*
X3760466Y820652D1*
X3761210Y824541D1*
X3762612Y828058D1*
X3761226Y831556D1*
X3760471Y835444D1*
X3760466Y839403D1*
X3761210Y843291D1*
X3762612Y846808D1*
X3761226Y850306D1*
X3760471Y854193D1*
X3760466Y858152D1*
X3761210Y862041D1*
X3762676Y865719D1*
X3764812Y869052D1*
X3767541Y871923D1*
X3770762Y874223D1*
X3774362Y875873D1*
X3778209Y876811D1*
X3782164Y877005D1*
X3786083Y876448D1*
X3789827Y875157D1*
X3793259Y873182D1*
X3796255Y870593D1*
X3798706Y867484D1*
X3800525Y863967D1*
X3801646Y860171D1*
X3802028Y856201D1*
X3801656Y852287D1*
X3800546Y848487D1*
X3799745Y846929D1*
X3800525Y845218D1*
X3801646Y841421D1*
X3802028Y837451D1*
X3801656Y833538D1*
X2632907Y1011663D2*
X2631797Y1007862D1*
X2629987Y1004340D1*
X2627545Y1001224D1*
X2624555Y998627D1*
X2621129Y996643D1*
X2617390Y995343D1*
X2613471Y994774D1*
X2609516Y994957D1*
X2605667Y995886D1*
X2602063Y997525D1*
X2598835Y999818D1*
X2596098Y1002680D1*
X2593953Y1006008D1*
X2592476Y1009681D1*
X2591722Y1013568D1*
X2591717Y1017528D1*
X2592461Y1021416D1*
X2593927Y1025094D1*
X2596063Y1028428D1*
X2598791Y1031298D1*
X2602013Y1033598D1*
X2605613Y1035248D1*
X2609459Y1036186D1*
X2613415Y1036381D1*
X2617333Y1035823D1*
X2621077Y1034533D1*
X2624509Y1032558D1*
X2627505Y1029969D1*
X2629957Y1026860D1*
X2631776Y1023343D1*
X2632896Y1019546D1*
X2633278Y1015576D1*
X2632907Y1011663D1*
X3045406Y2002287D2*
X3044295Y1998487D1*
X3042486Y1994965D1*
X3040043Y1991849D1*
X3037054Y1989252D1*
X3033627Y1987268D1*
X3029888Y1985967D1*
X3025970Y1985399D1*
X3022014Y1985581D1*
X3018165Y1986510D1*
X3015663Y1987648D1*
X3014878Y1987268D1*
X3011139Y1985967D1*
X3007220Y1985399D1*
X3003265Y1985581D1*
X2999416Y1986510D1*
X2996913Y1987648D1*
X2996129Y1987268D1*
X2992390Y1985967D1*
X2988471Y1985399D1*
X2984516Y1985581D1*
X2980667Y1986510D1*
X2977063Y1988150D1*
X2973835Y1990442D1*
X2971098Y1993304D1*
X2968953Y1996633D1*
X2967476Y2000306D1*
X2966722Y2004193D1*
X2966717Y2008152D1*
X2967461Y2012041D1*
X2968927Y2015719D1*
X2971063Y2019052D1*
X2973791Y2021923D1*
X2977013Y2024223D1*
X2980613Y2025873D1*
X2984459Y2026811D1*
X2988415Y2027005D1*
X2992333Y2026448D1*
X2996077Y2025157D1*
X2996757Y2024765D1*
X2999362Y2025873D1*
X3003209Y2026811D1*
X3007164Y2027005D1*
X3011083Y2026448D1*
X3014827Y2025157D1*
X3015507Y2024765D1*
X3018112Y2025873D1*
X3021958Y2026811D1*
X3025913Y2027005D1*
X3029832Y2026448D1*
X3033576Y2025157D1*
X3037008Y2023182D1*
X3040004Y2020593D1*
X3042455Y2017484D1*
X3044274Y2013967D1*
X3045395Y2010171D1*
X3045777Y2006201D1*
X3045406Y2002287D1*
X745406Y1127287D2*
X744295Y1123487D1*
X742486Y1119965D1*
X741920Y1119244D1*
X742455Y1118458D1*
X744274Y1114941D1*
X745395Y1111144D1*
X745777Y1107175D1*
X745406Y1103261D1*
X744295Y1099461D1*
X742486Y1095938D1*
X740043Y1092823D1*
X737054Y1090226D1*
X733627Y1088241D1*
X729888Y1086941D1*
X725970Y1086373D1*
X722014Y1086555D1*
X718165Y1087484D1*
X714562Y1089123D1*
X711333Y1091416D1*
X708597Y1094278D1*
X706451Y1097606D1*
X704975Y1101280D1*
X704220Y1105167D1*
X704215Y1109126D1*
X704959Y1113014D1*
X706425Y1116693D1*
X707984Y1119125D1*
X706451Y1121633D1*
X704975Y1125306D1*
X704220Y1129193D1*
X704215Y1133152D1*
X704959Y1137041D1*
X706425Y1140719D1*
X708318Y1143672D1*
X706451Y1146633D1*
X704975Y1150306D1*
X704220Y1154193D1*
X704215Y1158152D1*
X704959Y1162041D1*
X706425Y1165719D1*
X708318Y1168672D1*
X706451Y1171633D1*
X704975Y1175306D1*
X704220Y1179193D1*
X704215Y1183152D1*
X704959Y1187041D1*
X706425Y1190719D1*
X708318Y1193672D1*
X706451Y1196633D1*
X704975Y1200306D1*
X704220Y1204193D1*
X704215Y1208152D1*
X704959Y1212041D1*
X706425Y1215719D1*
X708318Y1218672D1*
X706451Y1221633D1*
X704975Y1225306D1*
X704220Y1229193D1*
X704215Y1233152D1*
X704959Y1237041D1*
X706425Y1240719D1*
X708562Y1244052D1*
X711290Y1246923D1*
X714512Y1249223D1*
X718112Y1250873D1*
X721958Y1251811D1*
X725913Y1252005D1*
X729832Y1251448D1*
X733576Y1250157D1*
X737008Y1248182D1*
X740004Y1245593D1*
X742455Y1242484D1*
X744274Y1238967D1*
X745395Y1235171D1*
X745777Y1231201D1*
X745406Y1227287D1*
X744295Y1223487D1*
X742486Y1219965D1*
X741552Y1218776D1*
X742455Y1217484D1*
X744274Y1213967D1*
X745395Y1210171D1*
X745777Y1206201D1*
X745406Y1202287D1*
X744295Y1198487D1*
X742486Y1194965D1*
X741552Y1193776D1*
X742455Y1192484D1*
X744274Y1188967D1*
X745395Y1185171D1*
X745777Y1181201D1*
X745406Y1177287D1*
X744295Y1173487D1*
X742486Y1169965D1*
X741552Y1168776D1*
X742455Y1167484D1*
X744274Y1163967D1*
X745395Y1160171D1*
X745777Y1156201D1*
X745406Y1152287D1*
X744295Y1148487D1*
X742486Y1144965D1*
X741552Y1143776D1*
X742455Y1142484D1*
X744274Y1138967D1*
X745395Y1135171D1*
X745777Y1131201D1*
X745406Y1127287D1*
X1164156Y1100661D2*
X1163046Y1096861D1*
X1161236Y1093339D1*
X1158794Y1090223D1*
X1155804Y1087626D1*
X1152378Y1085642D1*
X1148639Y1084341D1*
X1144720Y1083773D1*
X1140765Y1083955D1*
X1136916Y1084885D1*
X1133312Y1086524D1*
X1130084Y1088816D1*
X1127348Y1091678D1*
X1125202Y1095007D1*
X1123726Y1098680D1*
X1122971Y1102567D1*
X1122966Y1106526D1*
X1123710Y1110415D1*
X1125176Y1114093D1*
X1127312Y1117427D1*
X1130041Y1120297D1*
X1133262Y1122597D1*
X1136862Y1124247D1*
X1140709Y1125185D1*
X1144664Y1125379D1*
X1148583Y1124822D1*
X1152327Y1123531D1*
X1155759Y1121556D1*
X1158755Y1118967D1*
X1161206Y1115858D1*
X1163025Y1112341D1*
X1164146Y1108545D1*
X1164528Y1104575D1*
X1164156Y1100661D1*
X1380396Y1100335D2*
X1379286Y1096534D1*
X1377476Y1093012D1*
X1375034Y1089896D1*
X1372045Y1087299D1*
X1368618Y1085315D1*
X1364879Y1084014D1*
X1360961Y1083446D1*
X1357005Y1083629D1*
X1353156Y1084558D1*
X1349552Y1086197D1*
X1346324Y1088490D1*
X1343588Y1091352D1*
X1341442Y1094680D1*
X1339966Y1098353D1*
X1339211Y1102240D1*
X1339206Y1106199D1*
X1339950Y1110088D1*
X1341416Y1113766D1*
X1343552Y1117100D1*
X1346281Y1119970D1*
X1349503Y1122270D1*
X1353102Y1123920D1*
X1356949Y1124858D1*
X1360904Y1125052D1*
X1364823Y1124495D1*
X1368567Y1123205D1*
X1371999Y1121230D1*
X1374995Y1118640D1*
X1377446Y1115531D1*
X1379265Y1112014D1*
X1380386Y1108218D1*
X1380768Y1104248D1*
X1380396Y1100335D1*
X1583478Y1101892D2*
X1582367Y1098092D1*
X1580558Y1094570D1*
X1578115Y1091454D1*
X1575126Y1088857D1*
X1571699Y1086873D1*
X1567961Y1085572D1*
X1564042Y1085004D1*
X1560087Y1085186D1*
X1556238Y1086115D1*
X1553735Y1087253D1*
X1552949Y1086873D1*
X1549210Y1085572D1*
X1545291Y1085004D1*
X1541336Y1085186D1*
X1537487Y1086115D1*
X1534984Y1087253D1*
X1534199Y1086873D1*
X1530461Y1085572D1*
X1526542Y1085004D1*
X1522587Y1085186D1*
X1518738Y1086115D1*
X1515134Y1087755D1*
X1511906Y1090047D1*
X1509169Y1092909D1*
X1507024Y1096238D1*
X1505547Y1099911D1*
X1504793Y1103798D1*
X1504787Y1107757D1*
X1505531Y1111646D1*
X1506997Y1115324D1*
X1509134Y1118657D1*
X1511862Y1121528D1*
X1515084Y1123828D1*
X1518684Y1125478D1*
X1522530Y1126416D1*
X1526486Y1126610D1*
X1530404Y1126052D1*
X1534148Y1124762D1*
X1534828Y1124370D1*
X1537433Y1125478D1*
X1541280Y1126416D1*
X1545235Y1126610D1*
X1549154Y1126052D1*
X1552898Y1124762D1*
X1553577Y1124370D1*
X1556184Y1125478D1*
X1560030Y1126416D1*
X1563986Y1126610D1*
X1567904Y1126052D1*
X1571648Y1124762D1*
X1575080Y1122787D1*
X1578076Y1120198D1*
X1580528Y1117089D1*
X1582346Y1113572D1*
X1583467Y1109776D1*
X1583849Y1105806D1*
X1583478Y1101892D1*
X3106163Y1101425D2*
X3105052Y1097625D1*
X3103243Y1094102D1*
X3100801Y1090987D1*
X3097811Y1088390D1*
X3094385Y1086406D1*
X3090646Y1085105D1*
X3086727Y1084537D1*
X3082772Y1084719D1*
X3078923Y1085648D1*
X3075319Y1087287D1*
X3072091Y1089580D1*
X3069354Y1092442D1*
X3067209Y1095770D1*
X3065732Y1099444D1*
X3064978Y1103331D1*
X3064972Y1107290D1*
X3065717Y1111178D1*
X3067182Y1114857D1*
X3069319Y1118190D1*
X3072047Y1121060D1*
X3075269Y1123361D1*
X3078869Y1125010D1*
X3082715Y1125949D1*
X3086671Y1126143D1*
X3090589Y1125585D1*
X3094333Y1124295D1*
X3097765Y1122320D1*
X3100761Y1119731D1*
X3103213Y1116622D1*
X3105031Y1113105D1*
X3106152Y1109308D1*
X3106534Y1105339D1*
X3106163Y1101425D1*
X3322793Y1101223D2*
X3321682Y1097423D1*
X3319873Y1093900D1*
X3317430Y1090785D1*
X3314441Y1088188D1*
X3311014Y1086203D1*
X3307276Y1084903D1*
X3303357Y1084335D1*
X3299402Y1084517D1*
X3295552Y1085446D1*
X3291949Y1087085D1*
X3288720Y1089378D1*
X3285984Y1092240D1*
X3283839Y1095568D1*
X3282362Y1099241D1*
X3281608Y1103129D1*
X3281602Y1107088D1*
X3282346Y1110976D1*
X3283812Y1114655D1*
X3285949Y1117988D1*
X3288677Y1120858D1*
X3291899Y1123159D1*
X3295499Y1124808D1*
X3299345Y1125747D1*
X3303301Y1125941D1*
X3307219Y1125383D1*
X3310963Y1124093D1*
X3314395Y1122118D1*
X3317391Y1119529D1*
X3319843Y1116420D1*
X3321661Y1112903D1*
X3322782Y1109106D1*
X3323164Y1105136D1*
X3322793Y1101223D1*
X2674886Y2381385D2*
X2674253Y2381018D1*
X2670514Y2379718D1*
X2666596Y2379150D1*
X2662640Y2379332D1*
X2658791Y2380261D1*
X2655188Y2381900D1*
X2651959Y2384193D1*
X2649223Y2387055D1*
X2647077Y2390383D1*
X2645601Y2394056D1*
X2644846Y2397944D1*
X2644841Y2401903D1*
X2645585Y2405791D1*
X2647051Y2409470D1*
X2649188Y2412803D1*
X2651916Y2415673D1*
X2655138Y2417974D1*
X2658738Y2419623D1*
X2662584Y2420562D1*
X2666539Y2420756D1*
X2670458Y2420198D1*
X2674202Y2418908D1*
X2674882Y2418516D1*
X2677487Y2419623D1*
X2681333Y2420562D1*
X2685289Y2420756D1*
X2689207Y2420198D1*
X2692951Y2418908D1*
X2693631Y2418516D1*
X2696238Y2419623D1*
X2700084Y2420562D1*
X2704039Y2420756D1*
X2707958Y2420198D1*
X2711702Y2418908D1*
X2715134Y2416933D1*
X2718130Y2414344D1*
X2720581Y2411235D1*
X2722400Y2407718D1*
X2723521Y2403921D1*
X2723903Y2399951D1*
X2723531Y2396038D1*
X2722421Y2392238D1*
X2720612Y2388715D1*
X2718169Y2385600D1*
X2715180Y2383003D1*
X2711753Y2381018D1*
X2708014Y2379718D1*
X2704096Y2379150D1*
X2700140Y2379332D1*
X2696291Y2380261D1*
X2693789Y2381399D1*
X2693003Y2381018D1*
X2689264Y2379718D1*
X2685345Y2379150D1*
X2681390Y2379332D1*
X2677541Y2380261D1*
X2675038Y2381399D1*
X520589Y2060461D2*
X520407Y2058538D1*
X519297Y2054738D1*
X518496Y2053180D1*
X519276Y2051467D1*
X520396Y2047671D1*
X520778Y2043701D1*
X520407Y2039787D1*
X519297Y2035987D1*
X518496Y2034429D1*
X519276Y2032718D1*
X520396Y2028921D1*
X520778Y2024951D1*
X520407Y2021038D1*
X519297Y2017238D1*
X518496Y2015680D1*
X519276Y2013967D1*
X520396Y2010171D1*
X520778Y2006201D1*
X520407Y2002287D1*
X519297Y1998487D1*
X517487Y1994965D1*
X515045Y1991849D1*
X512055Y1989252D1*
X508629Y1987268D1*
X504890Y1985967D1*
X500971Y1985399D1*
X497016Y1985581D1*
X493167Y1986510D1*
X489563Y1988150D1*
X486335Y1990442D1*
X483598Y1993304D1*
X481453Y1996633D1*
X479976Y2000306D1*
X479222Y2004193D1*
X479217Y2008152D1*
X479961Y2012041D1*
X481362Y2015558D1*
X479976Y2019056D1*
X479222Y2022944D1*
X479217Y2026903D1*
X479961Y2030791D1*
X481362Y2034308D1*
X479976Y2037806D1*
X479222Y2041693D1*
X479217Y2045652D1*
X479961Y2049541D1*
X481362Y2053058D1*
X479976Y2056556D1*
X479222Y2060444D1*
X479217Y2064403D1*
X479961Y2068291D1*
X481427Y2071970D1*
X483563Y2075303D1*
X486291Y2078173D1*
X489513Y2080474D1*
X493113Y2082123D1*
X496959Y2083062D1*
X497959Y2083112D1*
X498710Y2087041D1*
X500176Y2090719D1*
X502312Y2094052D1*
X505041Y2096923D1*
X508262Y2099223D1*
X511862Y2100873D1*
X513541Y2101282D1*
X513591Y2101903D1*
X514335Y2105791D1*
X515801Y2109470D1*
X517937Y2112803D1*
X520665Y2115673D1*
X523887Y2117974D1*
X527487Y2119623D1*
X531333Y2120562D1*
X535289Y2120756D1*
X539207Y2120198D1*
X542951Y2118908D1*
X543631Y2118516D1*
X546238Y2119623D1*
X550084Y2120562D1*
X554039Y2120756D1*
X557958Y2120198D1*
X561702Y2118908D1*
X562382Y2118516D1*
X564987Y2119623D1*
X568833Y2120562D1*
X572789Y2120756D1*
X576707Y2120198D1*
X580451Y2118908D1*
X581131Y2118516D1*
X583738Y2119623D1*
X587584Y2120562D1*
X591539Y2120756D1*
X595458Y2120198D1*
X599202Y2118908D1*
X599882Y2118516D1*
X602487Y2119623D1*
X606333Y2120562D1*
X610289Y2120756D1*
X614207Y2120198D1*
X617951Y2118908D1*
X618631Y2118516D1*
X621238Y2119623D1*
X625084Y2120562D1*
X629039Y2120756D1*
X632958Y2120198D1*
X636702Y2118908D1*
X637382Y2118516D1*
X639987Y2119623D1*
X643833Y2120562D1*
X647789Y2120756D1*
X651707Y2120198D1*
X655451Y2118908D1*
X656131Y2118516D1*
X658738Y2119623D1*
X662584Y2120562D1*
X666539Y2120756D1*
X670458Y2120198D1*
X674202Y2118908D1*
X677634Y2116933D1*
X680630Y2114344D1*
X683081Y2111235D1*
X684900Y2107718D1*
X686021Y2103921D1*
X686265Y2101400D1*
X689827Y2100157D1*
X693259Y2098182D1*
X696255Y2095593D1*
X698706Y2092484D1*
X700525Y2088967D1*
X701646Y2085171D1*
X701837Y2083196D1*
X704833Y2082698D1*
X708577Y2081408D1*
X712009Y2079433D1*
X715005Y2076844D1*
X717457Y2073735D1*
X719276Y2070218D1*
X720396Y2066421D1*
X720778Y2062451D1*
X720407Y2058538D1*
X719297Y2054738D1*
X718496Y2053180D1*
X719276Y2051467D1*
X720396Y2047671D1*
X720778Y2043701D1*
X720407Y2039787D1*
X719297Y2035987D1*
X718496Y2034429D1*
X719276Y2032718D1*
X720396Y2028921D1*
X720778Y2024951D1*
X720407Y2021038D1*
X719297Y2017238D1*
X718496Y2015680D1*
X719276Y2013967D1*
X720396Y2010171D1*
X720778Y2006201D1*
X720407Y2002287D1*
X719297Y1998487D1*
X717487Y1994965D1*
X715045Y1991849D1*
X712055Y1989252D1*
X708629Y1987268D1*
X704890Y1985967D1*
X700971Y1985399D1*
X697016Y1985581D1*
X693167Y1986510D1*
X689563Y1988150D1*
X686335Y1990442D1*
X683598Y1993304D1*
X681453Y1996633D1*
X679976Y2000306D1*
X679222Y2004193D1*
X679217Y2008152D1*
X679961Y2012041D1*
X681362Y2015558D1*
X679976Y2019056D1*
X679222Y2022944D1*
X679217Y2026903D1*
X679961Y2030791D1*
X681362Y2034308D1*
X679976Y2037806D1*
X679222Y2041693D1*
X679217Y2045652D1*
X679961Y2049541D1*
X681362Y2053058D1*
X679976Y2056556D1*
X679222Y2060471D1*
X678265Y2060581D1*
X674416Y2061510D1*
X670812Y2063150D1*
X667584Y2065442D1*
X664848Y2068304D1*
X662702Y2071633D1*
X661226Y2075306D1*
X660471Y2079193D1*
X660470Y2079761D1*
X658791Y2080261D1*
X656289Y2081399D1*
X655503Y2081018D1*
X651764Y2079718D1*
X647845Y2079150D1*
X643890Y2079332D1*
X640041Y2080261D1*
X637538Y2081399D1*
X636753Y2081018D1*
X633014Y2079718D1*
X629096Y2079150D1*
X625140Y2079332D1*
X621291Y2080261D1*
X618789Y2081399D1*
X618003Y2081018D1*
X614264Y2079718D1*
X610345Y2079150D1*
X606390Y2079332D1*
X602541Y2080261D1*
X600038Y2081399D1*
X599253Y2081018D1*
X595514Y2079718D1*
X591596Y2079150D1*
X587640Y2079332D1*
X583791Y2080261D1*
X581289Y2081399D1*
X580503Y2081018D1*
X576764Y2079718D1*
X572845Y2079150D1*
X568890Y2079332D1*
X565041Y2080261D1*
X562538Y2081399D1*
X561753Y2081018D1*
X558014Y2079718D1*
X554096Y2079150D1*
X550140Y2079332D1*
X546291Y2080261D1*
X543789Y2081399D1*
X543003Y2081018D1*
X539479Y2079794D1*
X539156Y2077287D1*
X538046Y2073487D1*
X536236Y2069965D1*
X533794Y2066849D1*
X530804Y2064252D1*
X527378Y2062268D1*
X523639Y2060967D1*
X520688Y2060539D1*
X3339156Y1492912D2*
X3338046Y1489112D1*
X3336236Y1485589D1*
X3333794Y1482474D1*
X3330804Y1479877D1*
X3327378Y1477892D1*
X3323639Y1476592D1*
X3319720Y1476024D1*
X3315765Y1476206D1*
X3311916Y1477135D1*
X3308312Y1478774D1*
X3305084Y1481067D1*
X3302348Y1483929D1*
X3300202Y1487257D1*
X3298726Y1490930D1*
X3297971Y1494818D1*
X3297966Y1498777D1*
X3298710Y1502665D1*
X3300176Y1506344D1*
X3302312Y1509677D1*
X3305041Y1512547D1*
X3308262Y1514848D1*
X3311862Y1516497D1*
X3315709Y1517436D1*
X3319664Y1517630D1*
X3323583Y1517072D1*
X3327327Y1515782D1*
X3330759Y1513807D1*
X3333755Y1511218D1*
X3336206Y1508109D1*
X3338025Y1504592D1*
X3339146Y1500795D1*
X3339528Y1496825D1*
X3339156Y1492912D1*
X2295406Y889787D2*
X2294295Y885987D1*
X2292486Y882465D1*
X2290043Y879349D1*
X2287054Y876752D1*
X2283627Y874768D1*
X2279888Y873467D1*
X2275970Y872899D1*
X2272014Y873081D1*
X2268165Y874010D1*
X2264562Y875650D1*
X2261333Y877942D1*
X2258597Y880804D1*
X2256451Y884133D1*
X2254975Y887806D1*
X2254220Y891693D1*
X2254215Y895652D1*
X2254959Y899541D1*
X2256425Y903219D1*
X2258562Y906552D1*
X2261290Y909423D1*
X2264512Y911723D1*
X2268112Y913373D1*
X2271958Y914311D1*
X2275913Y914505D1*
X2279832Y913948D1*
X2283576Y912657D1*
X2287008Y910682D1*
X2290004Y908093D1*
X2292455Y904984D1*
X2294274Y901467D1*
X2295395Y897671D1*
X2295777Y893701D1*
X2295406Y889787D1*
X2511356Y955736D2*
X2510245Y951936D1*
X2508436Y948413D1*
X2505993Y945298D1*
X2503004Y942701D1*
X2499577Y940717D1*
X2495839Y939416D1*
X2491920Y938848D1*
X2487965Y939030D1*
X2484115Y939959D1*
X2480512Y941598D1*
X2477283Y943891D1*
X2474547Y946753D1*
X2472402Y950081D1*
X2470925Y953755D1*
X2470171Y957642D1*
X2470165Y961601D1*
X2470909Y965490D1*
X2472375Y969168D1*
X2474512Y972501D1*
X2477240Y975371D1*
X2480462Y977672D1*
X2484062Y979322D1*
X2487908Y980260D1*
X2491864Y980454D1*
X2495782Y979896D1*
X2499526Y978606D1*
X2502958Y976631D1*
X2505954Y974042D1*
X2508406Y970933D1*
X2510224Y967416D1*
X2511345Y963619D1*
X2511727Y959650D1*
X2511356Y955736D1*
X2632907Y911663D2*
X2631797Y907862D1*
X2629987Y904340D1*
X2627545Y901224D1*
X2624555Y898627D1*
X2621129Y896643D1*
X2617390Y895343D1*
X2613471Y894774D1*
X2609516Y894957D1*
X2605667Y895886D1*
X2602063Y897525D1*
X2598835Y899818D1*
X2596098Y902680D1*
X2593953Y906008D1*
X2592476Y909681D1*
X2591722Y913568D1*
X2591717Y917528D1*
X2592461Y921416D1*
X2593927Y925094D1*
X2596063Y928428D1*
X2598791Y931298D1*
X2602013Y933598D1*
X2605613Y935248D1*
X2609459Y936186D1*
X2613415Y936381D1*
X2617333Y935823D1*
X2621077Y934533D1*
X2624509Y932558D1*
X2627505Y929969D1*
X2629957Y926860D1*
X2631776Y923343D1*
X2632896Y919546D1*
X2633278Y915576D1*
X2632907Y911663D1*
X979781Y2274163D2*
X978671Y2270362D1*
X976861Y2266840D1*
X974419Y2263724D1*
X971429Y2261127D1*
X968003Y2259143D1*
X964264Y2257843D1*
X960345Y2257274D1*
X956390Y2257457D1*
X952541Y2258386D1*
X948937Y2260025D1*
X945709Y2262318D1*
X942972Y2265180D1*
X940827Y2268508D1*
X939350Y2272181D1*
X938596Y2276068D1*
X938591Y2280028D1*
X939335Y2283916D1*
X940801Y2287594D1*
X942937Y2290928D1*
X945665Y2293798D1*
X948887Y2296098D1*
X952487Y2297748D1*
X956333Y2298686D1*
X960289Y2298881D1*
X964207Y2298323D1*
X967951Y2297033D1*
X971383Y2295058D1*
X974379Y2292469D1*
X976831Y2289360D1*
X978650Y2285843D1*
X979770Y2282046D1*
X980152Y2278076D1*
X979781Y2274163D1*
X1389749Y1530957D2*
X1389848Y1530804D1*
X1392584Y1527942D1*
X1395812Y1525650D1*
X1399416Y1524010D1*
X1403265Y1523081D1*
X1407220Y1522899D1*
X1411139Y1523467D1*
X1414878Y1524768D1*
X1418304Y1526752D1*
X1421294Y1529349D1*
X1423736Y1532465D1*
X1425546Y1535987D1*
X1426656Y1539787D1*
X1427028Y1543730D1*
X1426646Y1547671D1*
X1425525Y1551467D1*
X1423706Y1554984D1*
X1421255Y1558093D1*
X1418259Y1560682D1*
X1417202Y1561290D1*
X1417281Y1561663D1*
X1417199Y1561385D1*
X1418259Y1560682D1*
X1421255Y1558093D1*
X1423706Y1554984D1*
X1425525Y1551467D1*
X1426646Y1547671D1*
X1427028Y1543701D1*
X1426656Y1539787D1*
X1425546Y1535987D1*
X1423736Y1532465D1*
X1421294Y1529349D1*
X1418304Y1526752D1*
X1414878Y1524768D1*
X1411139Y1523467D1*
X1407220Y1522899D1*
X1403265Y1523081D1*
X1399416Y1524010D1*
X1395812Y1525650D1*
X1392584Y1527942D1*
X1389848Y1530804D1*
X1389749Y1530957D1*
X1386139Y1529717D1*
X1382220Y1529148D1*
X1378265Y1529331D1*
X1374416Y1530260D1*
X1370812Y1531899D1*
X1367584Y1534192D1*
X1364848Y1537054D1*
X1362702Y1540382D1*
X1361226Y1544055D1*
X1360471Y1547942D1*
X1360466Y1551902D1*
X1361210Y1555790D1*
X1362676Y1559469D1*
X1364812Y1562802D1*
X1367541Y1565672D1*
X1370762Y1567972D1*
X1374362Y1569622D1*
X1376507Y1570146D1*
X1376835Y1571416D1*
X1378301Y1575094D1*
X1380437Y1578428D1*
X1383165Y1581298D1*
X1386387Y1583598D1*
X1389987Y1585248D1*
X1393833Y1586186D1*
X1397789Y1586381D1*
X1401707Y1585823D1*
X1405451Y1584533D1*
X1408883Y1582558D1*
X1411879Y1579969D1*
X1414331Y1576860D1*
X1416150Y1573343D1*
X1417270Y1569546D1*
X1417652Y1565576D1*
X1417281Y1561663D1*
X2017281Y1955412D2*
X2016171Y1951612D1*
X2014361Y1948089D1*
X2011919Y1944974D1*
X2008929Y1942377D1*
X2005503Y1940392D1*
X2001764Y1939092D1*
X1997845Y1938524D1*
X1993890Y1938706D1*
X1990041Y1939635D1*
X1986437Y1941274D1*
X1983209Y1943567D1*
X1980472Y1946429D1*
X1978327Y1949757D1*
X1976850Y1953430D1*
X1976096Y1957318D1*
X1976091Y1961277D1*
X1976835Y1965165D1*
X1978301Y1968844D1*
X1980437Y1972177D1*
X1983165Y1975047D1*
X1986387Y1977348D1*
X1989987Y1978997D1*
X1993833Y1979936D1*
X1997789Y1980130D1*
X2001707Y1979572D1*
X2005451Y1978282D1*
X2008883Y1976307D1*
X2011879Y1973718D1*
X2014331Y1970609D1*
X2016150Y1967092D1*
X2017270Y1963295D1*
X2017652Y1959325D1*
X2017281Y1955412D1*
X2157906Y2174163D2*
X2156795Y2170362D1*
X2154986Y2166840D1*
X2152543Y2163724D1*
X2149554Y2161127D1*
X2146127Y2159143D1*
X2142388Y2157843D1*
X2138470Y2157274D1*
X2134514Y2157457D1*
X2130665Y2158386D1*
X2127062Y2160025D1*
X2123833Y2162318D1*
X2121097Y2165180D1*
X2118951Y2168508D1*
X2117475Y2172181D1*
X2116720Y2176068D1*
X2116715Y2180028D1*
X2117459Y2183916D1*
X2118925Y2187594D1*
X2121062Y2190928D1*
X2123790Y2193798D1*
X2127012Y2196098D1*
X2130612Y2197748D1*
X2134458Y2198686D1*
X2138413Y2198881D1*
X2142332Y2198323D1*
X2146076Y2197033D1*
X2149508Y2195058D1*
X2152504Y2192469D1*
X2154955Y2189360D1*
X2156774Y2185843D1*
X2157895Y2182046D1*
X2158277Y2178076D1*
X2157906Y2174163D1*
X2248533Y2196037D2*
X2247423Y2192236D1*
X2245613Y2188714D1*
X2243171Y2185598D1*
X2240181Y2183001D1*
X2236755Y2181017D1*
X2233016Y2179717D1*
X2229097Y2179148D1*
X2225142Y2179331D1*
X2221293Y2180260D1*
X2217689Y2181899D1*
X2214461Y2184192D1*
X2211724Y2187054D1*
X2209579Y2190382D1*
X2208102Y2194055D1*
X2207348Y2197942D1*
X2207343Y2201902D1*
X2208087Y2205790D1*
X2209552Y2209469D1*
X2211689Y2212802D1*
X2214417Y2215672D1*
X2217639Y2217972D1*
X2221239Y2219622D1*
X2225085Y2220560D1*
X2229041Y2220755D1*
X2232959Y2220197D1*
X2236703Y2218907D1*
X2240135Y2216932D1*
X2243131Y2214343D1*
X2245583Y2211234D1*
X2247402Y2207717D1*
X2248522Y2203920D1*
X2248904Y2199950D1*
X2248533Y2196037D1*
X1073448Y815549D2*
X1072337Y811748D1*
X1070528Y808226D1*
X1068085Y805110D1*
X1065096Y802513D1*
X1061669Y800529D1*
X1057930Y799228D1*
X1054012Y798660D1*
X1050056Y798843D1*
X1046207Y799772D1*
X1042604Y801411D1*
X1039375Y803703D1*
X1036639Y806566D1*
X1034493Y809894D1*
X1033017Y813567D1*
X1032262Y817454D1*
X1032257Y821413D1*
X1033001Y825302D1*
X1034467Y828980D1*
X1036604Y832314D1*
X1039332Y835184D1*
X1042554Y837484D1*
X1046154Y839134D1*
X1050000Y840072D1*
X1053955Y840266D1*
X1057874Y839709D1*
X1061618Y838419D1*
X1065050Y836444D1*
X1068046Y833854D1*
X1070497Y830745D1*
X1072316Y827228D1*
X1073437Y823432D1*
X1073819Y819462D1*
X1073448Y815549D1*
X1373531Y2339787D2*
X1372421Y2335987D1*
X1370612Y2332465D1*
X1368169Y2329349D1*
X1365180Y2326752D1*
X1361753Y2324768D1*
X1358014Y2323467D1*
X1354096Y2322899D1*
X1350140Y2323081D1*
X1346291Y2324010D1*
X1342688Y2325650D1*
X1339459Y2327942D1*
X1336723Y2330804D1*
X1334577Y2334133D1*
X1333101Y2337806D1*
X1332346Y2341693D1*
X1332341Y2345652D1*
X1333085Y2349541D1*
X1334551Y2353219D1*
X1336688Y2356552D1*
X1339416Y2359423D1*
X1342638Y2361723D1*
X1346238Y2363373D1*
X1350084Y2364311D1*
X1354039Y2364505D1*
X1357958Y2363948D1*
X1361702Y2362657D1*
X1365134Y2360682D1*
X1368130Y2358093D1*
X1370581Y2354984D1*
X1372400Y2351467D1*
X1373521Y2347671D1*
X1373903Y2343701D1*
X1373531Y2339787D1*
X1809217Y1875724D2*
X1808106Y1871924D1*
X1806297Y1868402D1*
X1803854Y1865286D1*
X1800865Y1862689D1*
X1797438Y1860705D1*
X1793699Y1859404D1*
X1789781Y1858836D1*
X1785825Y1859018D1*
X1781976Y1859948D1*
X1778373Y1861587D1*
X1775144Y1863879D1*
X1772408Y1866741D1*
X1770262Y1870070D1*
X1768786Y1873743D1*
X1768031Y1877630D1*
X1768026Y1881589D1*
X1768770Y1885478D1*
X1770236Y1889156D1*
X1772373Y1892490D1*
X1775101Y1895360D1*
X1778323Y1897660D1*
X1781923Y1899310D1*
X1785769Y1900248D1*
X1789724Y1900442D1*
X1793643Y1899885D1*
X1797387Y1898594D1*
X1800819Y1896619D1*
X1803815Y1894030D1*
X1806266Y1890921D1*
X1808085Y1887404D1*
X1809206Y1883608D1*
X1809588Y1879638D1*
X1809217Y1875724D1*
X1808106Y1871924D1*
X1806297Y1868402D1*
X1803854Y1865286D1*
X1800865Y1862689D1*
X1797438Y1860705D1*
X1793699Y1859404D1*
X1789781Y1858836D1*
X1785825Y1859018D1*
X1781976Y1859948D1*
X1778373Y1861587D1*
X1775144Y1863879D1*
X1772408Y1866741D1*
X1770262Y1870070D1*
X1768786Y1873743D1*
X1768031Y1877630D1*
X1768026Y1881589D1*
X1768770Y1885478D1*
X1770236Y1889156D1*
X1772373Y1892490D1*
X1775101Y1895360D1*
X1778323Y1897660D1*
X1781923Y1899310D1*
X1785769Y1900248D1*
X1789724Y1900442D1*
X1793643Y1899885D1*
X1797387Y1898594D1*
X1800819Y1896619D1*
X1803815Y1894030D1*
X1806266Y1890921D1*
X1808085Y1887404D1*
X1809206Y1883608D1*
X1809588Y1879638D1*
X1809217Y1875724D1*
X1439156Y946038D2*
X1438046Y942238D1*
X1436236Y938715D1*
X1433794Y935600D1*
X1430804Y933003D1*
X1427378Y931018D1*
X1423639Y929718D1*
X1419720Y929150D1*
X1415765Y929332D1*
X1411916Y930261D1*
X1408312Y931900D1*
X1405084Y934193D1*
X1402348Y937055D1*
X1400202Y940383D1*
X1398726Y944056D1*
X1397971Y947944D1*
X1397966Y951903D1*
X1398710Y955791D1*
X1400176Y959470D1*
X1402312Y962803D1*
X1405041Y965673D1*
X1408262Y967974D1*
X1411862Y969623D1*
X1415709Y970562D1*
X1419664Y970756D1*
X1423583Y970198D1*
X1427327Y968908D1*
X1430759Y966933D1*
X1433755Y964344D1*
X1436206Y961235D1*
X1438025Y957718D1*
X1439146Y953921D1*
X1439528Y949951D1*
X1439156Y946038D1*
X1507907Y946037D2*
X1506797Y942236D1*
X1504987Y938714D1*
X1502545Y935598D1*
X1499555Y933001D1*
X1496129Y931017D1*
X1492390Y929717D1*
X1488471Y929148D1*
X1484516Y929331D1*
X1480667Y930260D1*
X1477063Y931899D1*
X1473835Y934192D1*
X1471098Y937054D1*
X1468953Y940382D1*
X1467476Y944055D1*
X1466722Y947942D1*
X1466717Y951902D1*
X1467461Y955790D1*
X1468927Y959469D1*
X1471063Y962802D1*
X1473791Y965672D1*
X1477013Y967972D1*
X1480613Y969622D1*
X1484459Y970560D1*
X1488415Y970755D1*
X1492333Y970197D1*
X1496077Y968907D1*
X1499509Y966932D1*
X1502505Y964343D1*
X1504957Y961234D1*
X1506776Y957717D1*
X1507896Y953920D1*
X1508278Y949950D1*
X1507907Y946037D1*
X1967281Y1986663D2*
X1966171Y1982862D1*
X1964361Y1979340D1*
X1961919Y1976224D1*
X1958929Y1973627D1*
X1955503Y1971643D1*
X1951764Y1970343D1*
X1947845Y1969774D1*
X1943890Y1969957D1*
X1940041Y1970886D1*
X1936437Y1972525D1*
X1933209Y1974818D1*
X1930472Y1977680D1*
X1928327Y1981008D1*
X1926850Y1984681D1*
X1926096Y1988568D1*
X1926091Y1992528D1*
X1926835Y1996416D1*
X1928301Y2000094D1*
X1930437Y2003428D1*
X1933165Y2006298D1*
X1936387Y2008598D1*
X1939987Y2010248D1*
X1943833Y2011186D1*
X1947789Y2011381D1*
X1951707Y2010823D1*
X1955451Y2009533D1*
X1958883Y2007558D1*
X1961879Y2004969D1*
X1964331Y2001860D1*
X1966150Y1998343D1*
X1967270Y1994546D1*
X1967652Y1990576D1*
X1967281Y1986663D1*
X2045406Y2052287D2*
X2044295Y2048487D1*
X2042486Y2044965D1*
X2040043Y2041849D1*
X2037054Y2039252D1*
X2033627Y2037268D1*
X2029888Y2035967D1*
X2025970Y2035399D1*
X2022014Y2035581D1*
X2018165Y2036510D1*
X2014562Y2038150D1*
X2011333Y2040442D1*
X2008597Y2043304D1*
X2006451Y2046633D1*
X2004975Y2050306D1*
X2004220Y2054193D1*
X2004215Y2058152D1*
X2004959Y2062041D1*
X2006425Y2065719D1*
X2008562Y2069052D1*
X2011290Y2071923D1*
X2014512Y2074223D1*
X2018112Y2075873D1*
X2021958Y2076811D1*
X2025913Y2077005D1*
X2029832Y2076448D1*
X2033576Y2075157D1*
X2037008Y2073182D1*
X2040004Y2070593D1*
X2042455Y2067484D1*
X2044274Y2063967D1*
X2045395Y2060171D1*
X2045777Y2056201D1*
X2045406Y2052287D1*
X2004782Y2083537D2*
X2003672Y2079736D1*
X2001862Y2076214D1*
X1999420Y2073098D1*
X1996430Y2070501D1*
X1993004Y2068517D1*
X1989265Y2067217D1*
X1985346Y2066648D1*
X1981391Y2066831D1*
X1977542Y2067760D1*
X1973938Y2069399D1*
X1970710Y2071692D1*
X1967974Y2074554D1*
X1965828Y2077882D1*
X1964352Y2081555D1*
X1963597Y2085442D1*
X1963592Y2089402D1*
X1964336Y2093290D1*
X1965802Y2096969D1*
X1967938Y2100302D1*
X1970667Y2103172D1*
X1973888Y2105472D1*
X1977488Y2107122D1*
X1981335Y2108060D1*
X1985290Y2108255D1*
X1989209Y2107697D1*
X1992953Y2106407D1*
X1996385Y2104432D1*
X1999381Y2101843D1*
X2001832Y2098734D1*
X2003651Y2095217D1*
X2004772Y2091420D1*
X2005154Y2087450D1*
X2004782Y2083537D1*
X1274294Y2286110D2*
X1273184Y2282310D1*
X1271374Y2278787D1*
X1268932Y2275672D1*
X1265942Y2273075D1*
X1262516Y2271091D1*
X1258777Y2269790D1*
X1254858Y2269222D1*
X1250903Y2269404D1*
X1247054Y2270333D1*
X1243450Y2271972D1*
X1240222Y2274265D1*
X1237486Y2277127D1*
X1235340Y2280455D1*
X1233864Y2284129D1*
X1233109Y2288016D1*
X1233104Y2291975D1*
X1233848Y2295864D1*
X1235314Y2299542D1*
X1237450Y2302875D1*
X1240178Y2305745D1*
X1243400Y2308046D1*
X1247000Y2309696D1*
X1250846Y2310634D1*
X1254802Y2310828D1*
X1258720Y2310270D1*
X1262465Y2308980D1*
X1265896Y2307005D1*
X1268892Y2304416D1*
X1271344Y2301307D1*
X1273163Y2297790D1*
X1274283Y2293993D1*
X1274665Y2290024D1*
X1274294Y2286110D1*
X2001656Y961663D2*
X2000546Y957862D1*
X1998736Y954340D1*
X1996294Y951224D1*
X1993304Y948627D1*
X1989878Y946643D1*
X1986139Y945343D1*
X1982220Y944774D1*
X1978265Y944957D1*
X1974416Y945886D1*
X1970812Y947525D1*
X1967584Y949818D1*
X1964848Y952680D1*
X1962702Y956008D1*
X1961226Y959681D1*
X1960471Y963568D1*
X1960466Y967528D1*
X1961210Y971416D1*
X1962676Y975094D1*
X1964812Y978428D1*
X1967541Y981298D1*
X1970762Y983598D1*
X1974362Y985248D1*
X1978209Y986186D1*
X1982164Y986381D1*
X1986083Y985823D1*
X1989827Y984533D1*
X1993259Y982558D1*
X1996255Y979969D1*
X1998706Y976860D1*
X2000525Y973343D1*
X2001646Y969546D1*
X2002028Y965576D1*
X2001656Y961663D1*
X1232907Y2342912D2*
X1231797Y2339112D1*
X1229987Y2335589D1*
X1227545Y2332474D1*
X1224555Y2329877D1*
X1221129Y2327892D1*
X1217390Y2326592D1*
X1213471Y2326024D1*
X1209516Y2326206D1*
X1205667Y2327135D1*
X1202063Y2328774D1*
X1198835Y2331067D1*
X1196098Y2333929D1*
X1193953Y2337257D1*
X1192476Y2340930D1*
X1191722Y2344818D1*
X1191717Y2348777D1*
X1192461Y2352665D1*
X1193927Y2356344D1*
X1196063Y2359677D1*
X1198791Y2362547D1*
X1202013Y2364848D1*
X1205613Y2366497D1*
X1209459Y2367436D1*
X1213415Y2367630D1*
X1217333Y2367072D1*
X1221077Y2365782D1*
X1224509Y2363807D1*
X1227505Y2361218D1*
X1229957Y2358109D1*
X1231776Y2354592D1*
X1232896Y2350795D1*
X1233278Y2346825D1*
X1232907Y2342912D1*
X1961031Y921038D2*
X1959921Y917238D1*
X1958112Y913715D1*
X1955669Y910600D1*
X1952680Y908003D1*
X1949253Y906018D1*
X1945514Y904718D1*
X1941596Y904150D1*
X1937640Y904332D1*
X1933791Y905261D1*
X1930188Y906900D1*
X1926959Y909193D1*
X1924223Y912055D1*
X1922077Y915383D1*
X1920601Y919056D1*
X1919846Y922944D1*
X1919841Y926903D1*
X1920585Y930791D1*
X1922051Y934470D1*
X1924188Y937803D1*
X1926916Y940673D1*
X1930138Y942974D1*
X1933738Y944623D1*
X1937584Y945562D1*
X1941539Y945756D1*
X1945458Y945198D1*
X1949202Y943908D1*
X1952634Y941933D1*
X1955630Y939344D1*
X1958081Y936235D1*
X1959900Y932718D1*
X1961021Y928921D1*
X1961403Y924951D1*
X1961031Y921038D1*
X1195554Y2305413D2*
X1194444Y2301613D1*
X1192634Y2298091D1*
X1190192Y2294975D1*
X1187202Y2292378D1*
X1183776Y2290394D1*
X1180037Y2289093D1*
X1176118Y2288525D1*
X1172163Y2288707D1*
X1168314Y2289636D1*
X1164710Y2291276D1*
X1161482Y2293568D1*
X1158745Y2296430D1*
X1156600Y2299759D1*
X1155123Y2303432D1*
X1154369Y2307319D1*
X1154364Y2311278D1*
X1155108Y2315167D1*
X1156573Y2318845D1*
X1158710Y2322178D1*
X1161438Y2325049D1*
X1164660Y2327349D1*
X1168260Y2328999D1*
X1172106Y2329937D1*
X1176062Y2330131D1*
X1179980Y2329573D1*
X1183724Y2328283D1*
X1187156Y2326308D1*
X1190152Y2323719D1*
X1192604Y2320610D1*
X1194423Y2317093D1*
X1195543Y2313297D1*
X1195925Y2309327D1*
X1195554Y2305413D1*
X1907906Y921038D2*
X1906795Y917238D1*
X1904986Y913715D1*
X1902543Y910600D1*
X1899554Y908003D1*
X1896127Y906018D1*
X1892388Y904718D1*
X1888470Y904150D1*
X1884514Y904332D1*
X1880665Y905261D1*
X1877062Y906900D1*
X1873833Y909193D1*
X1871097Y912055D1*
X1868951Y915383D1*
X1867475Y919056D1*
X1866720Y922944D1*
X1866715Y926903D1*
X1867459Y930791D1*
X1868925Y934470D1*
X1871062Y937803D1*
X1873790Y940673D1*
X1877012Y942974D1*
X1880612Y944623D1*
X1884458Y945562D1*
X1888413Y945756D1*
X1892332Y945198D1*
X1896076Y943908D1*
X1899508Y941933D1*
X1902504Y939344D1*
X1904955Y936235D1*
X1906774Y932718D1*
X1907895Y928921D1*
X1908277Y924951D1*
X1907906Y921038D1*
X1154781Y2342912D2*
X1153671Y2339112D1*
X1151861Y2335589D1*
X1149419Y2332474D1*
X1146429Y2329877D1*
X1143003Y2327892D1*
X1139264Y2326592D1*
X1135345Y2326024D1*
X1131390Y2326206D1*
X1127541Y2327135D1*
X1123937Y2328774D1*
X1120709Y2331067D1*
X1117972Y2333929D1*
X1115827Y2337257D1*
X1114350Y2340930D1*
X1113596Y2344818D1*
X1113591Y2348777D1*
X1114335Y2352665D1*
X1115801Y2356344D1*
X1117937Y2359677D1*
X1120665Y2362547D1*
X1123887Y2364848D1*
X1127487Y2366497D1*
X1131333Y2367436D1*
X1135289Y2367630D1*
X1139207Y2367072D1*
X1142951Y2365782D1*
X1146383Y2363807D1*
X1149379Y2361218D1*
X1151831Y2358109D1*
X1153650Y2354592D1*
X1154770Y2350795D1*
X1155152Y2346825D1*
X1154781Y2342912D1*
X1870406Y958535D2*
X1869295Y954735D1*
X1867486Y951213D1*
X1865043Y948097D1*
X1862054Y945500D1*
X1858627Y943516D1*
X1854888Y942215D1*
X1850970Y941647D1*
X1847014Y941829D1*
X1843165Y942759D1*
X1839562Y944398D1*
X1836333Y946690D1*
X1833597Y949552D1*
X1831451Y952881D1*
X1829975Y956554D1*
X1829220Y960441D1*
X1829215Y964400D1*
X1829959Y968289D1*
X1831425Y971967D1*
X1833562Y975301D1*
X1836290Y978171D1*
X1839512Y980471D1*
X1843112Y982121D1*
X1846958Y983059D1*
X1850913Y983253D1*
X1854832Y982696D1*
X1858576Y981406D1*
X1862008Y979430D1*
X1865004Y976841D1*
X1867455Y973732D1*
X1869274Y970215D1*
X1870395Y966419D1*
X1870777Y962449D1*
X1870406Y958535D1*
X1097129Y2306572D2*
X1096018Y2302772D1*
X1094209Y2299249D1*
X1091766Y2296134D1*
X1088777Y2293537D1*
X1085350Y2291552D1*
X1081612Y2290252D1*
X1077693Y2289684D1*
X1073738Y2289866D1*
X1069888Y2290795D1*
X1066285Y2292434D1*
X1063056Y2294727D1*
X1060320Y2297589D1*
X1058175Y2300917D1*
X1056698Y2304591D1*
X1055944Y2308478D1*
X1055938Y2312437D1*
X1056682Y2316325D1*
X1058148Y2320004D1*
X1060285Y2323337D1*
X1063013Y2326207D1*
X1066235Y2328508D1*
X1069835Y2330157D1*
X1073681Y2331096D1*
X1077636Y2331290D1*
X1081555Y2330732D1*
X1085299Y2329442D1*
X1088731Y2327467D1*
X1091727Y2324878D1*
X1094178Y2321769D1*
X1095997Y2318252D1*
X1097118Y2314455D1*
X1097500Y2310486D1*
X1097129Y2306572D1*
X1832906Y921037D2*
X1831795Y917236D1*
X1829986Y913714D1*
X1827543Y910598D1*
X1824554Y908001D1*
X1821127Y906017D1*
X1817388Y904717D1*
X1813470Y904148D1*
X1809514Y904331D1*
X1805665Y905260D1*
X1802062Y906899D1*
X1798833Y909192D1*
X1796097Y912054D1*
X1793951Y915382D1*
X1792475Y919055D1*
X1791720Y922942D1*
X1791715Y926902D1*
X1792459Y930790D1*
X1793925Y934469D1*
X1796062Y937802D1*
X1798790Y940672D1*
X1802012Y942972D1*
X1805612Y944622D1*
X1809458Y945560D1*
X1813413Y945755D1*
X1817332Y945197D1*
X1821076Y943907D1*
X1824508Y941932D1*
X1827504Y939343D1*
X1829955Y936234D1*
X1831774Y932717D1*
X1832895Y928920D1*
X1833277Y924950D1*
X1832906Y921037D1*
X1057759Y2342912D2*
X1056648Y2339112D1*
X1054839Y2335589D1*
X1052396Y2332474D1*
X1049407Y2329877D1*
X1045980Y2327892D1*
X1042241Y2326592D1*
X1038323Y2326024D1*
X1034367Y2326206D1*
X1030518Y2327135D1*
X1026915Y2328774D1*
X1023686Y2331067D1*
X1020950Y2333929D1*
X1018804Y2337257D1*
X1017328Y2340930D1*
X1016573Y2344818D1*
X1016568Y2348777D1*
X1017312Y2352665D1*
X1018778Y2356344D1*
X1020915Y2359677D1*
X1023643Y2362547D1*
X1026865Y2364848D1*
X1030465Y2366497D1*
X1034311Y2367436D1*
X1038266Y2367630D1*
X1042185Y2367072D1*
X1045929Y2365782D1*
X1049361Y2363807D1*
X1052357Y2361218D1*
X1054808Y2358109D1*
X1056627Y2354592D1*
X1057748Y2350795D1*
X1058130Y2346825D1*
X1057759Y2342912D1*
X1792825Y955957D2*
X1791715Y952156D1*
X1789906Y948634D1*
X1787463Y945518D1*
X1784474Y942921D1*
X1781047Y940937D1*
X1777308Y939636D1*
X1773390Y939068D1*
X1769434Y939251D1*
X1765585Y940180D1*
X1761982Y941819D1*
X1758753Y944112D1*
X1756017Y946974D1*
X1753871Y950302D1*
X1752395Y953975D1*
X1751640Y957862D1*
X1751635Y961822D1*
X1752379Y965710D1*
X1753845Y969388D1*
X1755982Y972722D1*
X1758710Y975592D1*
X1761932Y977892D1*
X1765531Y979542D1*
X1769378Y980480D1*
X1773333Y980675D1*
X1777252Y980117D1*
X1780996Y978827D1*
X1784428Y976852D1*
X1787424Y974262D1*
X1789875Y971154D1*
X1791694Y967636D1*
X1792815Y963840D1*
X1793197Y959870D1*
X1792825Y955957D1*
X1018388Y2305954D2*
X1017278Y2302154D1*
X1015469Y2298631D1*
X1013026Y2295516D1*
X1010037Y2292919D1*
X1006610Y2290934D1*
X1002871Y2289634D1*
X998953Y2289066D1*
X994997Y2289248D1*
X991148Y2290177D1*
X987545Y2291816D1*
X984316Y2294109D1*
X981580Y2296971D1*
X979434Y2300299D1*
X977958Y2303972D1*
X977203Y2307860D1*
X977198Y2311819D1*
X977942Y2315707D1*
X979408Y2319386D1*
X981545Y2322719D1*
X984273Y2325589D1*
X987495Y2327890D1*
X991094Y2329539D1*
X994941Y2330478D1*
X998896Y2330672D1*
X1002815Y2330114D1*
X1006559Y2328824D1*
X1009991Y2326849D1*
X1012987Y2324260D1*
X1015438Y2321151D1*
X1017257Y2317634D1*
X1018378Y2313837D1*
X1018760Y2309867D1*
X1018388Y2305954D1*
X1726656Y927287D2*
X1725546Y923487D1*
X1723736Y919965D1*
X1721294Y916849D1*
X1718304Y914252D1*
X1714878Y912268D1*
X1711139Y910967D1*
X1707220Y910399D1*
X1703265Y910581D1*
X1699416Y911510D1*
X1695812Y913150D1*
X1692584Y915442D1*
X1689848Y918304D1*
X1687702Y921633D1*
X1686226Y925306D1*
X1685471Y929193D1*
X1685466Y933152D1*
X1686210Y937041D1*
X1687676Y940719D1*
X1689812Y944052D1*
X1692541Y946923D1*
X1695762Y949223D1*
X1699362Y950873D1*
X1703209Y951811D1*
X1707164Y952005D1*
X1711083Y951448D1*
X1714827Y950157D1*
X1718259Y948182D1*
X1721255Y945593D1*
X1723706Y942484D1*
X1725525Y938967D1*
X1726646Y935171D1*
X1727028Y931201D1*
X1726656Y927287D1*
X979018Y2342912D2*
X977908Y2339112D1*
X976098Y2335589D1*
X973656Y2332474D1*
X970667Y2329877D1*
X967240Y2327892D1*
X963501Y2326592D1*
X959583Y2326024D1*
X955627Y2326206D1*
X951778Y2327135D1*
X948175Y2328774D1*
X944946Y2331067D1*
X942210Y2333929D1*
X940064Y2337257D1*
X938588Y2340930D1*
X937833Y2344818D1*
X937828Y2348777D1*
X938572Y2352665D1*
X940038Y2356344D1*
X942175Y2359677D1*
X944903Y2362547D1*
X948125Y2364848D1*
X951724Y2366497D1*
X955571Y2367436D1*
X959526Y2367630D1*
X963445Y2367072D1*
X967189Y2365782D1*
X970621Y2363807D1*
X973617Y2361218D1*
X976068Y2358109D1*
X977887Y2354592D1*
X979008Y2350795D1*
X979390Y2346825D1*
X979018Y2342912D1*
X1676656Y958538D2*
X1675546Y954738D1*
X1673736Y951215D1*
X1671294Y948100D1*
X1668304Y945503D1*
X1664878Y943518D1*
X1661139Y942218D1*
X1657220Y941650D1*
X1653265Y941832D1*
X1649416Y942761D1*
X1645812Y944400D1*
X1642584Y946693D1*
X1639848Y949555D1*
X1637702Y952883D1*
X1636226Y956556D1*
X1635471Y960444D1*
X1635466Y964403D1*
X1636210Y968291D1*
X1637676Y971970D1*
X1639812Y975303D1*
X1642541Y978173D1*
X1645762Y980474D1*
X1649362Y982123D1*
X1653209Y983062D1*
X1657164Y983256D1*
X1661083Y982698D1*
X1664827Y981408D1*
X1668259Y979433D1*
X1671255Y976844D1*
X1673706Y973735D1*
X1675525Y970218D1*
X1676646Y966421D1*
X1677028Y962451D1*
X1676656Y958538D1*
X2064155Y1346037D2*
X2063045Y1342236D1*
X2061235Y1338714D1*
X2058793Y1335598D1*
X2055803Y1333001D1*
X2052377Y1331017D1*
X2048638Y1329717D1*
X2044719Y1329148D1*
X2040764Y1329331D1*
X2036915Y1330260D1*
X2033311Y1331899D1*
X2030083Y1334192D1*
X2027346Y1337054D1*
X2025201Y1340382D1*
X2023724Y1344055D1*
X2022970Y1347942D1*
X2022965Y1351902D1*
X2023709Y1355790D1*
X2025175Y1359469D1*
X2027311Y1362802D1*
X2030039Y1365672D1*
X2033261Y1367972D1*
X2036861Y1369622D1*
X2040707Y1370560D1*
X2044663Y1370755D1*
X2048581Y1370197D1*
X2052325Y1368907D1*
X2055757Y1366932D1*
X2058753Y1364343D1*
X2061205Y1361234D1*
X2063024Y1357717D1*
X2064144Y1353920D1*
X2064526Y1349950D1*
X2064155Y1346037D1*
X2107906Y1564787D2*
X2106795Y1560987D1*
X2104986Y1557465D1*
X2102543Y1554349D1*
X2099554Y1551752D1*
X2096127Y1549768D1*
X2092388Y1548467D1*
X2088470Y1547899D1*
X2084514Y1548081D1*
X2080665Y1549010D1*
X2077062Y1550650D1*
X2073833Y1552942D1*
X2071097Y1555804D1*
X2068951Y1559133D1*
X2067475Y1562806D1*
X2066720Y1566693D1*
X2066715Y1570652D1*
X2067459Y1574541D1*
X2068925Y1578219D1*
X2071062Y1581552D1*
X2073790Y1584423D1*
X2077012Y1586723D1*
X2080612Y1588373D1*
X2084458Y1589311D1*
X2088413Y1589505D1*
X2092332Y1588948D1*
X2096076Y1587657D1*
X2099508Y1585682D1*
X2102504Y1583093D1*
X2104955Y1579984D1*
X2106774Y1576467D1*
X2107895Y1572671D1*
X2108277Y1568701D1*
X2107906Y1564787D1*
X2032906Y1389787D2*
X2031795Y1385987D1*
X2029986Y1382465D1*
X2027543Y1379349D1*
X2024554Y1376752D1*
X2021127Y1374768D1*
X2017388Y1373467D1*
X2013470Y1372899D1*
X2009514Y1373081D1*
X2005665Y1374010D1*
X2002062Y1375650D1*
X1998833Y1377942D1*
X1996097Y1380804D1*
X1993951Y1384133D1*
X1992475Y1387806D1*
X1991720Y1391693D1*
X1991715Y1395652D1*
X1992459Y1399541D1*
X1993925Y1403219D1*
X1996062Y1406552D1*
X1998790Y1409423D1*
X2002012Y1411723D1*
X2005612Y1413373D1*
X2009458Y1414311D1*
X2013413Y1414505D1*
X2017332Y1413948D1*
X2021076Y1412657D1*
X2024508Y1410682D1*
X2027504Y1408093D1*
X2029955Y1404984D1*
X2031774Y1401467D1*
X2032895Y1397671D1*
X2033277Y1393701D1*
X2032906Y1389787D1*
X2082906Y1614787D2*
X2081795Y1610987D1*
X2079986Y1607465D1*
X2077543Y1604349D1*
X2074554Y1601752D1*
X2071127Y1599768D1*
X2067388Y1598467D1*
X2063470Y1597899D1*
X2059514Y1598081D1*
X2055665Y1599010D1*
X2052062Y1600650D1*
X2048833Y1602942D1*
X2046097Y1605804D1*
X2043951Y1609133D1*
X2042475Y1612806D1*
X2041720Y1616693D1*
X2041715Y1620652D1*
X2042459Y1624541D1*
X2043925Y1628219D1*
X2046062Y1631552D1*
X2048790Y1634423D1*
X2052012Y1636723D1*
X2055612Y1638373D1*
X2059458Y1639311D1*
X2063413Y1639505D1*
X2067332Y1638948D1*
X2071076Y1637657D1*
X2074508Y1635682D1*
X2077504Y1633093D1*
X2079955Y1629984D1*
X2081774Y1626467D1*
X2082895Y1622671D1*
X2083277Y1618701D1*
X2082906Y1614787D1*
X3842281Y2217912D2*
X3841171Y2214112D1*
X3839361Y2210589D1*
X3836919Y2207474D1*
X3833929Y2204877D1*
X3830503Y2202892D1*
X3826764Y2201592D1*
X3822845Y2201024D1*
X3818890Y2201206D1*
X3815041Y2202135D1*
X3811437Y2203774D1*
X3808209Y2206067D1*
X3805472Y2208929D1*
X3803327Y2212257D1*
X3801850Y2215930D1*
X3801096Y2219818D1*
X3801091Y2223777D1*
X3801835Y2227665D1*
X3803301Y2231344D1*
X3805437Y2234677D1*
X3808165Y2237547D1*
X3811387Y2239848D1*
X3814987Y2241497D1*
X3818833Y2242436D1*
X3822789Y2242630D1*
X3826707Y2242072D1*
X3830451Y2240782D1*
X3833883Y2238807D1*
X3836879Y2236218D1*
X3839331Y2233109D1*
X3841150Y2229592D1*
X3842270Y2225795D1*
X3842652Y2221825D1*
X3842281Y2217912D1*
X3789345Y2286853D2*
X3788235Y2283052D1*
X3786425Y2279530D1*
X3783983Y2276415D1*
X3780993Y2273818D1*
X3777567Y2271833D1*
X3773828Y2270533D1*
X3769909Y2269965D1*
X3765954Y2270147D1*
X3762105Y2271076D1*
X3758501Y2272715D1*
X3755273Y2275008D1*
X3752537Y2277870D1*
X3750391Y2281198D1*
X3748915Y2284871D1*
X3748160Y2288759D1*
X3748155Y2292718D1*
X3748899Y2296606D1*
X3750365Y2300285D1*
X3752501Y2303618D1*
X3755230Y2306488D1*
X3758451Y2308789D1*
X3762051Y2310438D1*
X3765898Y2311377D1*
X3769853Y2311571D1*
X3773772Y2311013D1*
X3777516Y2309723D1*
X3780948Y2307748D1*
X3783944Y2305159D1*
X3786395Y2302050D1*
X3788214Y2298533D1*
X3789335Y2294736D1*
X3789717Y2290766D1*
X3789345Y2286853D1*
X2276656Y939787D2*
X2275546Y935987D1*
X2273736Y932465D1*
X2271294Y929349D1*
X2268304Y926752D1*
X2264878Y924768D1*
X2261139Y923467D1*
X2257220Y922899D1*
X2253265Y923081D1*
X2249416Y924010D1*
X2245812Y925650D1*
X2242584Y927942D1*
X2239848Y930804D1*
X2237702Y934133D1*
X2236226Y937806D1*
X2235471Y941693D1*
X2235466Y945652D1*
X2236210Y949541D1*
X2237676Y953219D1*
X2239812Y956552D1*
X2242541Y959423D1*
X2245762Y961723D1*
X2249362Y963373D1*
X2253209Y964311D1*
X2257164Y964505D1*
X2261083Y963948D1*
X2264827Y962657D1*
X2268259Y960682D1*
X2271255Y958093D1*
X2273706Y954984D1*
X2275525Y951467D1*
X2276646Y947671D1*
X2277028Y943701D1*
X2276656Y939787D1*
X2564155Y930413D2*
X2563045Y926613D1*
X2561235Y923091D1*
X2558793Y919975D1*
X2555803Y917378D1*
X2552377Y915394D1*
X2548638Y914093D1*
X2544719Y913525D1*
X2540764Y913707D1*
X2536915Y914636D1*
X2533311Y916276D1*
X2530083Y918568D1*
X2527346Y921430D1*
X2525201Y924759D1*
X2523724Y928432D1*
X2522970Y932319D1*
X2522965Y936278D1*
X2523709Y940167D1*
X2525175Y943845D1*
X2527311Y947178D1*
X2530039Y950049D1*
X2533261Y952349D1*
X2536861Y953999D1*
X2540707Y954937D1*
X2544663Y955131D1*
X2548581Y954573D1*
X2552325Y953283D1*
X2555757Y951308D1*
X2558753Y948719D1*
X2561205Y945610D1*
X2563024Y942093D1*
X2564144Y938297D1*
X2564526Y934327D1*
X2564155Y930413D1*
X2764156Y1727287D2*
X2763046Y1723487D1*
X2761236Y1719965D1*
X2758794Y1716849D1*
X2755804Y1714252D1*
X2752378Y1712268D1*
X2748639Y1710967D1*
X2744720Y1710399D1*
X2740765Y1710581D1*
X2736916Y1711510D1*
X2733312Y1713150D1*
X2730084Y1715442D1*
X2727348Y1718304D1*
X2725202Y1721633D1*
X2723726Y1725306D1*
X2722971Y1729193D1*
X2722966Y1733152D1*
X2723710Y1737041D1*
X2725176Y1740719D1*
X2727312Y1744052D1*
X2730041Y1746923D1*
X2733262Y1749223D1*
X2736862Y1750873D1*
X2740709Y1751811D1*
X2744664Y1752005D1*
X2748583Y1751448D1*
X2752327Y1750157D1*
X2755759Y1748182D1*
X2758755Y1745593D1*
X2761206Y1742484D1*
X2763025Y1738967D1*
X2764146Y1735171D1*
X2764528Y1731201D1*
X2764156Y1727287D1*
X2664156Y1792912D2*
X2663046Y1789112D1*
X2661236Y1785589D1*
X2658794Y1782474D1*
X2655804Y1779877D1*
X2652378Y1777892D1*
X2648639Y1776592D1*
X2644720Y1776024D1*
X2640765Y1776206D1*
X2636916Y1777135D1*
X2633312Y1778774D1*
X2630084Y1781067D1*
X2627348Y1783929D1*
X2625202Y1787257D1*
X2623726Y1790930D1*
X2622971Y1794818D1*
X2622966Y1798777D1*
X2623710Y1802665D1*
X2625176Y1806344D1*
X2627312Y1809677D1*
X2630041Y1812547D1*
X2633262Y1814848D1*
X2636862Y1816497D1*
X2640709Y1817436D1*
X2644664Y1817630D1*
X2644774Y1817614D1*
X2644841Y1820652D1*
X2645585Y1824541D1*
X2647051Y1828219D1*
X2649188Y1831552D1*
X2651916Y1834423D1*
X2655138Y1836723D1*
X2658738Y1838373D1*
X2662584Y1839311D1*
X2666539Y1839505D1*
X2670458Y1838948D1*
X2674202Y1837657D1*
X2677634Y1835682D1*
X2680630Y1833093D1*
X2683081Y1829984D1*
X2684900Y1826467D1*
X2686021Y1822671D1*
X2686403Y1818701D1*
X2686031Y1814787D1*
X2684921Y1810987D1*
X2683112Y1807465D1*
X2680669Y1804349D1*
X2677680Y1801752D1*
X2674253Y1799768D1*
X2670514Y1798467D1*
X2666596Y1797899D1*
X2664499Y1797996D1*
X2664528Y1796825D1*
X2664156Y1792912D1*
X2482906Y896038D2*
X2481795Y892238D1*
X2479986Y888715D1*
X2477543Y885600D1*
X2474554Y883003D1*
X2471127Y881018D1*
X2467388Y879718D1*
X2463470Y879150D1*
X2459514Y879332D1*
X2455665Y880261D1*
X2452062Y881900D1*
X2448833Y884193D1*
X2446097Y887055D1*
X2443951Y890383D1*
X2442475Y894056D1*
X2441720Y897944D1*
X2441715Y901903D1*
X2442459Y905791D1*
X2443925Y909470D1*
X2446062Y912803D1*
X2448790Y915673D1*
X2452012Y917974D1*
X2455612Y919623D1*
X2459458Y920562D1*
X2463413Y920756D1*
X2467332Y920198D1*
X2471076Y918908D1*
X2474508Y916933D1*
X2477504Y914344D1*
X2479955Y911235D1*
X2481774Y907718D1*
X2482895Y903921D1*
X2483277Y899951D1*
X2482906Y896038D1*
X3238909Y939787D2*
X3237799Y935987D1*
X3235990Y932465D1*
X3233547Y929349D1*
X3230558Y926752D1*
X3227131Y924768D1*
X3223392Y923467D1*
X3219474Y922899D1*
X3215518Y923081D1*
X3211669Y924010D1*
X3208066Y925650D1*
X3204837Y927942D1*
X3202101Y930804D1*
X3199955Y934133D1*
X3198479Y937806D1*
X3197724Y941693D1*
X3197719Y945652D1*
X3198463Y949541D1*
X3199929Y953219D1*
X3202066Y956552D1*
X3204794Y959423D1*
X3208016Y961723D1*
X3211615Y963373D1*
X3215462Y964311D1*
X3219417Y964505D1*
X3223336Y963948D1*
X3227080Y962657D1*
X3230512Y960682D1*
X3233508Y958093D1*
X3235959Y954984D1*
X3237778Y951467D1*
X3238899Y947671D1*
X3239281Y943701D1*
X3238909Y939787D1*
X3195406Y1371038D2*
X3194295Y1367238D1*
X3192486Y1363715D1*
X3190043Y1360600D1*
X3187054Y1358003D1*
X3183627Y1356018D1*
X3179888Y1354718D1*
X3175970Y1354150D1*
X3172014Y1354332D1*
X3168165Y1355261D1*
X3164562Y1356900D1*
X3161333Y1359193D1*
X3158597Y1362055D1*
X3156451Y1365383D1*
X3154975Y1369056D1*
X3154220Y1372944D1*
X3154215Y1376903D1*
X3154959Y1380791D1*
X3156425Y1384470D1*
X3158562Y1387803D1*
X3161290Y1390673D1*
X3164512Y1392974D1*
X3168112Y1394623D1*
X3171958Y1395562D1*
X3175913Y1395756D1*
X3179832Y1395198D1*
X3183576Y1393908D1*
X3187008Y1391933D1*
X3190004Y1389344D1*
X3192455Y1386235D1*
X3194274Y1382718D1*
X3195395Y1378921D1*
X3195777Y1374951D1*
X3195406Y1371038D1*
X2779781Y1352287D2*
X2778671Y1348487D1*
X2776861Y1344965D1*
X2774419Y1341849D1*
X2771429Y1339252D1*
X2768003Y1337268D1*
X2764264Y1335967D1*
X2760345Y1335399D1*
X2756390Y1335581D1*
X2752541Y1336510D1*
X2748937Y1338150D1*
X2745709Y1340442D1*
X2742972Y1343304D1*
X2740827Y1346633D1*
X2739350Y1350306D1*
X2738596Y1354193D1*
X2738591Y1358152D1*
X2739335Y1362041D1*
X2740801Y1365719D1*
X2742937Y1369052D1*
X2745665Y1371923D1*
X2748887Y1374223D1*
X2752487Y1375873D1*
X2756333Y1376811D1*
X2760289Y1377005D1*
X2764207Y1376448D1*
X2767951Y1375157D1*
X2771383Y1373182D1*
X2774379Y1370593D1*
X2776831Y1367484D1*
X2778650Y1363967D1*
X2779770Y1360171D1*
X2780152Y1356201D1*
X2779781Y1352287D1*
X3280438Y896136D2*
X3279328Y892336D1*
X3277518Y888814D1*
X3275076Y885698D1*
X3272087Y883101D1*
X3268660Y881117D1*
X3264921Y879816D1*
X3261003Y879248D1*
X3257047Y879430D1*
X3253198Y880360D1*
X3249594Y881999D1*
X3246366Y884291D1*
X3243630Y887154D1*
X3241484Y890482D1*
X3240008Y894155D1*
X3239253Y898042D1*
X3239248Y902001D1*
X3239992Y905890D1*
X3241458Y909568D1*
X3243594Y912902D1*
X3246323Y915772D1*
X3249545Y918072D1*
X3253144Y919722D1*
X3256991Y920660D1*
X3260946Y920854D1*
X3264865Y920297D1*
X3268609Y919007D1*
X3272041Y917031D1*
X3275037Y914442D1*
X3277488Y911333D1*
X3279307Y907816D1*
X3280428Y904020D1*
X3280810Y900050D1*
X3280438Y896136D1*
X3139156Y1352287D2*
X3138046Y1348487D1*
X3136236Y1344965D1*
X3133794Y1341849D1*
X3130804Y1339252D1*
X3127378Y1337268D1*
X3123639Y1335967D1*
X3119720Y1335399D1*
X3115765Y1335581D1*
X3111916Y1336510D1*
X3108312Y1338150D1*
X3105084Y1340442D1*
X3102348Y1343304D1*
X3100202Y1346633D1*
X3098726Y1350306D1*
X3097971Y1354193D1*
X3097966Y1358152D1*
X3098710Y1362041D1*
X3100176Y1365719D1*
X3102312Y1369052D1*
X3105041Y1371923D1*
X3108262Y1374223D1*
X3111862Y1375873D1*
X3115709Y1376811D1*
X3119664Y1377005D1*
X3123583Y1376448D1*
X3127327Y1375157D1*
X3130759Y1373182D1*
X3133755Y1370593D1*
X3136206Y1367484D1*
X3138025Y1363967D1*
X3139146Y1360171D1*
X3139528Y1356201D1*
X3139156Y1352287D1*
X3353979Y937465D2*
X3352869Y933664D1*
X3351059Y930142D1*
X3348617Y927026D1*
X3345627Y924429D1*
X3342201Y922445D1*
X3338462Y921144D1*
X3334543Y920576D1*
X3330588Y920759D1*
X3326739Y921688D1*
X3323135Y923327D1*
X3319907Y925619D1*
X3317171Y928482D1*
X3315025Y931810D1*
X3313549Y935483D1*
X3312794Y939370D1*
X3312789Y943329D1*
X3313533Y947218D1*
X3314999Y950896D1*
X3317135Y954230D1*
X3319864Y957100D1*
X3323085Y959400D1*
X3326685Y961050D1*
X3330531Y961988D1*
X3334487Y962182D1*
X3338406Y961625D1*
X3342150Y960335D1*
X3345581Y958360D1*
X3348577Y955770D1*
X3351029Y952661D1*
X3352848Y949144D1*
X3353969Y945348D1*
X3354350Y941378D1*
X3353979Y937465D1*
X3476656Y1002287D2*
X3475546Y998487D1*
X3473736Y994965D1*
X3471294Y991849D1*
X3468304Y989252D1*
X3464878Y987268D1*
X3461139Y985967D1*
X3457220Y985399D1*
X3453265Y985581D1*
X3449416Y986510D1*
X3445812Y988150D1*
X3442584Y990442D1*
X3439848Y993304D1*
X3437702Y996633D1*
X3436226Y1000306D1*
X3435471Y1004193D1*
X3435466Y1008152D1*
X3436210Y1012041D1*
X3437676Y1015719D1*
X3439812Y1019052D1*
X3442541Y1021923D1*
X3445762Y1024223D1*
X3449362Y1025873D1*
X3453209Y1026811D1*
X3457164Y1027005D1*
X3461083Y1026448D1*
X3464827Y1025157D1*
X3468259Y1023182D1*
X3471255Y1020593D1*
X3473706Y1017484D1*
X3475525Y1013967D1*
X3476646Y1010171D1*
X3477028Y1006201D1*
X3476656Y1002287D1*
X3414156Y921038D2*
X3413046Y917238D1*
X3411236Y913715D1*
X3408794Y910600D1*
X3405804Y908003D1*
X3402378Y906018D1*
X3398639Y904718D1*
X3394720Y904150D1*
X3390765Y904332D1*
X3386916Y905261D1*
X3383312Y906900D1*
X3380084Y909193D1*
X3377348Y912055D1*
X3375202Y915383D1*
X3373726Y919056D1*
X3372971Y922944D1*
X3372966Y926903D1*
X3373710Y930791D1*
X3375176Y934470D1*
X3377312Y937803D1*
X3380041Y940673D1*
X3383262Y942974D1*
X3386862Y944623D1*
X3390709Y945562D1*
X3394664Y945756D1*
X3398583Y945198D1*
X3402327Y943908D1*
X3405759Y941933D1*
X3408755Y939344D1*
X3411206Y936235D1*
X3413025Y932718D1*
X3414146Y928921D1*
X3414528Y924951D1*
X3414156Y921038D1*
X3554781Y1902287D2*
X3553671Y1898487D1*
X3551861Y1894965D1*
X3549419Y1891849D1*
X3546429Y1889252D1*
X3543003Y1887268D1*
X3539264Y1885967D1*
X3535345Y1885399D1*
X3531390Y1885581D1*
X3527541Y1886510D1*
X3523937Y1888150D1*
X3520709Y1890442D1*
X3517972Y1893304D1*
X3515827Y1896633D1*
X3514350Y1900306D1*
X3513596Y1904193D1*
X3513591Y1908152D1*
X3514335Y1912041D1*
X3515801Y1915719D1*
X3517937Y1919052D1*
X3520665Y1921923D1*
X3523887Y1924223D1*
X3527487Y1925873D1*
X3531333Y1926811D1*
X3535289Y1927005D1*
X3539207Y1926448D1*
X3542951Y1925157D1*
X3546383Y1923182D1*
X3549379Y1920593D1*
X3551831Y1917484D1*
X3553650Y1913967D1*
X3554770Y1910171D1*
X3555152Y1906201D1*
X3554781Y1902287D1*
X3611031Y1877287D2*
X3609921Y1873487D1*
X3608112Y1869965D1*
X3605669Y1866849D1*
X3602680Y1864252D1*
X3599253Y1862268D1*
X3595514Y1860967D1*
X3591596Y1860399D1*
X3587640Y1860581D1*
X3583791Y1861510D1*
X3580188Y1863150D1*
X3576959Y1865442D1*
X3574223Y1868304D1*
X3572077Y1871633D1*
X3570601Y1875306D1*
X3569846Y1879193D1*
X3569841Y1883152D1*
X3570585Y1887041D1*
X3572051Y1890719D1*
X3574188Y1894052D1*
X3576916Y1896923D1*
X3580138Y1899223D1*
X3583738Y1900873D1*
X3587584Y1901811D1*
X3591539Y1902005D1*
X3595458Y1901448D1*
X3599202Y1900157D1*
X3602634Y1898182D1*
X3605630Y1895593D1*
X3608081Y1892484D1*
X3609900Y1888967D1*
X3611021Y1885171D1*
X3611403Y1881201D1*
X3611031Y1877287D1*
X2945407Y914789D2*
X2944297Y910988D1*
X2942487Y907466D1*
X2940045Y904350D1*
X2937055Y901753D1*
X2933629Y899769D1*
X2929890Y898469D1*
X2925971Y897900D1*
X2922016Y898083D1*
X2918167Y899012D1*
X2914563Y900651D1*
X2911335Y902944D1*
X2908598Y905806D1*
X2906453Y909134D1*
X2904976Y912807D1*
X2904222Y916694D1*
X2904217Y920654D1*
X2904961Y924542D1*
X2906427Y928220D1*
X2908563Y931554D1*
X2911291Y934424D1*
X2914513Y936724D1*
X2918113Y938374D1*
X2921959Y939312D1*
X2925915Y939507D1*
X2929833Y938949D1*
X2933577Y937659D1*
X2937009Y935684D1*
X2940005Y933094D1*
X2942457Y929986D1*
X2944276Y926469D1*
X2945396Y922672D1*
X2945778Y918702D1*
X2945407Y914789D1*
X3126409Y939542D2*
X3125299Y935741D1*
X3123490Y932219D1*
X3121047Y929104D1*
X3118058Y926507D1*
X3114631Y924522D1*
X3110892Y923222D1*
X3106974Y922654D1*
X3103018Y922836D1*
X3099169Y923765D1*
X3095566Y925404D1*
X3092337Y927697D1*
X3089601Y930559D1*
X3087455Y933887D1*
X3085979Y937560D1*
X3085224Y941448D1*
X3085219Y945407D1*
X3085963Y949295D1*
X3087429Y952974D1*
X3089566Y956307D1*
X3092294Y959177D1*
X3095516Y961478D1*
X3099115Y963127D1*
X3102962Y964066D1*
X3106917Y964260D1*
X3110836Y963702D1*
X3114580Y962412D1*
X3118012Y960437D1*
X3121008Y957848D1*
X3123459Y954739D1*
X3125278Y951222D1*
X3126399Y947425D1*
X3126781Y943455D1*
X3126409Y939542D1*
X3167543Y895877D2*
X3166433Y892076D1*
X3164623Y888554D1*
X3162181Y885438D1*
X3159192Y882841D1*
X3155765Y880857D1*
X3152026Y879556D1*
X3148108Y878988D1*
X3144152Y879171D1*
X3140303Y880100D1*
X3136699Y881739D1*
X3133471Y884031D1*
X3130735Y886894D1*
X3128589Y890222D1*
X3127113Y893895D1*
X3126358Y897782D1*
X3126353Y901741D1*
X3127097Y905630D1*
X3128563Y909308D1*
X3130699Y912642D1*
X3133428Y915512D1*
X3136650Y917812D1*
X3140249Y919462D1*
X3144096Y920400D1*
X3148051Y920594D1*
X3151970Y920037D1*
X3155714Y918747D1*
X3159146Y916772D1*
X3162142Y914182D1*
X3164593Y911073D1*
X3166412Y907556D1*
X3167533Y903760D1*
X3167915Y899790D1*
X3167543Y895877D1*
X3870652Y805412D2*
X3869542Y801612D1*
X3867732Y798089D1*
X3865290Y794974D1*
X3862301Y792377D1*
X3858874Y790392D1*
X3855135Y789092D1*
X3851217Y788524D1*
X3847261Y788706D1*
X3843412Y789635D1*
X3839808Y791274D1*
X3836580Y793567D1*
X3833844Y796429D1*
X3831698Y799757D1*
X3830222Y803430D1*
X3829467Y807318D1*
X3829462Y811277D1*
X3830206Y815165D1*
X3831672Y818844D1*
X3833808Y822177D1*
X3836537Y825047D1*
X3839759Y827348D1*
X3843358Y828997D1*
X3847205Y829936D1*
X3851160Y830130D1*
X3855079Y829572D1*
X3858823Y828282D1*
X3862255Y826307D1*
X3865251Y823718D1*
X3867702Y820609D1*
X3869521Y817092D1*
X3870642Y813295D1*
X3871024Y809325D1*
X3870652Y805412D1*
X3757906Y852287D2*
X3756795Y848487D1*
X3754986Y844965D1*
X3752543Y841849D1*
X3749554Y839252D1*
X3746127Y837268D1*
X3742388Y835967D1*
X3738470Y835399D1*
X3734514Y835581D1*
X3730665Y836510D1*
X3727062Y838150D1*
X3723833Y840442D1*
X3721097Y843304D1*
X3718951Y846633D1*
X3717475Y850306D1*
X3716720Y854193D1*
X3716715Y858152D1*
X3717459Y862041D1*
X3718925Y865719D1*
X3721062Y869052D1*
X3723692Y871819D1*
X3721098Y874555D1*
X3718953Y877883D1*
X3717476Y881556D1*
X3716722Y885444D1*
X3716717Y889403D1*
X3717461Y893291D1*
X3718927Y896970D1*
X3721063Y900303D1*
X3723693Y903070D1*
X3721098Y905804D1*
X3718953Y909133D1*
X3717476Y912806D1*
X3716722Y916693D1*
X3716717Y920652D1*
X3717461Y924541D1*
X3718927Y928219D1*
X3721063Y931552D1*
X3723791Y934423D1*
X3727013Y936723D1*
X3730613Y938373D1*
X3734459Y939311D1*
X3738415Y939505D1*
X3742333Y938948D1*
X3746077Y937657D1*
X3749509Y935682D1*
X3752505Y933093D1*
X3754957Y929984D1*
X3756776Y926467D1*
X3757896Y922671D1*
X3758278Y918701D1*
X3757907Y914787D1*
X3756797Y910987D1*
X3754987Y907465D1*
X3752545Y904349D1*
X3751152Y903139D1*
X3752505Y901844D1*
X3754957Y898735D1*
X3756776Y895218D1*
X3757896Y891421D1*
X3758278Y887451D1*
X3757907Y883538D1*
X3756797Y879738D1*
X3754987Y876215D1*
X3752545Y873100D1*
X3751152Y871890D1*
X3752504Y870593D1*
X3754955Y867484D1*
X3756774Y863967D1*
X3757895Y860171D1*
X3758277Y856201D1*
X3757906Y852287D1*
X2064156Y1280413D2*
X2063046Y1276613D1*
X2061236Y1273091D1*
X2058794Y1269975D1*
X2055804Y1267378D1*
X2052378Y1265394D1*
X2048639Y1264093D1*
X2044720Y1263525D1*
X2040765Y1263707D1*
X2036916Y1264636D1*
X2033312Y1266276D1*
X2030084Y1268568D1*
X2027348Y1271430D1*
X2025202Y1274759D1*
X2023726Y1278432D1*
X2022971Y1282319D1*
X2022966Y1286278D1*
X2023710Y1290167D1*
X2025176Y1293845D1*
X2027312Y1297178D1*
X2030041Y1300049D1*
X2033262Y1302349D1*
X2036862Y1303999D1*
X2040709Y1304937D1*
X2044664Y1305131D1*
X2048583Y1304573D1*
X2052327Y1303283D1*
X2055759Y1301308D1*
X2058755Y1298719D1*
X2061206Y1295610D1*
X2063025Y1292093D1*
X2064146Y1288297D1*
X2064528Y1284327D1*
X2064156Y1280413D1*
X2201656Y1964787D2*
X2200546Y1960987D1*
X2198736Y1957465D1*
X2196294Y1954349D1*
X2193304Y1951752D1*
X2189878Y1949768D1*
X2186139Y1948467D1*
X2182220Y1947899D1*
X2178265Y1948081D1*
X2174416Y1949010D1*
X2170812Y1950650D1*
X2167584Y1952942D1*
X2164848Y1955804D1*
X2162702Y1959133D1*
X2161226Y1962806D1*
X2160471Y1966693D1*
X2160466Y1970652D1*
X2161210Y1974541D1*
X2162676Y1978219D1*
X2164812Y1981552D1*
X2167541Y1984423D1*
X2170762Y1986723D1*
X2174362Y1988373D1*
X2178209Y1989311D1*
X2182164Y1989505D1*
X2186083Y1988948D1*
X2189827Y1987657D1*
X2193259Y1985682D1*
X2196255Y1983093D1*
X2198706Y1979984D1*
X2200525Y1976467D1*
X2201646Y1972671D1*
X2202028Y1968701D1*
X2201656Y1964787D1*
X3867281Y2158538D2*
X3866171Y2154738D1*
X3864361Y2151215D1*
X3861919Y2148100D1*
X3858929Y2145503D1*
X3855503Y2143518D1*
X3851764Y2142218D1*
X3847845Y2141650D1*
X3843890Y2141832D1*
X3840041Y2142761D1*
X3836437Y2144400D1*
X3833209Y2146693D1*
X3830472Y2149555D1*
X3828327Y2152883D1*
X3826850Y2156556D1*
X3826096Y2160444D1*
X3826091Y2164403D1*
X3826835Y2168291D1*
X3828301Y2171970D1*
X3830437Y2175303D1*
X3833165Y2178173D1*
X3836387Y2180474D1*
X3839987Y2182123D1*
X3843833Y2183062D1*
X3847789Y2183256D1*
X3851707Y2182698D1*
X3855451Y2181408D1*
X3858883Y2179433D1*
X3861879Y2176844D1*
X3864331Y2173735D1*
X3866150Y2170218D1*
X3867270Y2166421D1*
X3867652Y2162451D1*
X3867281Y2158538D1*
X3878042Y904643D2*
X3879430Y906108D1*
X3881360Y906690D1*
X3944470Y906693D1*
X4300789D1*
X4300787Y1092911D1*
X4166936Y1092913D1*
X4165039Y1093396D1*
X4163577Y1094785D1*
X4162995Y1096714D1*
X4162992Y1159749D1*
Y1227551D1*
X4163475Y1229449D1*
X4164864Y1230911D1*
X4166793Y1231493D1*
X4229812Y1231496D1*
X4300790D1*
X4300787Y1440150D1*
Y2638188D1*
X3234715Y2638192D1*
X3235003Y2637631D1*
X3236476Y2634010D1*
X3237634Y2630277D1*
X3238467Y2626457D1*
X3238969Y2622580D1*
X3239134Y2618701D1*
X3238963Y2614769D1*
X3238458Y2610892D1*
X3237621Y2607073D1*
X3236459Y2603341D1*
X3234980Y2599722D1*
X3233196Y2596244D1*
X3231119Y2592932D1*
X3228765Y2589811D1*
X3226152Y2586903D1*
X3223298Y2584231D1*
X3220226Y2581815D1*
X3216957Y2579671D1*
X3213516Y2577816D1*
X3209928Y2576264D1*
X3206219Y2575026D1*
X3202419Y2574112D1*
X3198552Y2573528D1*
X3194652Y2573278D1*
X3190744Y2573364D1*
X3186857Y2573786D1*
X3183021Y2574541D1*
X3179265Y2575622D1*
X3175615Y2577022D1*
X3172098Y2578732D1*
X3168743Y2580736D1*
X3165572Y2583022D1*
X3162609Y2585573D1*
X3159877Y2588369D1*
X3157394Y2591388D1*
X3155180Y2594610D1*
X3153252Y2598012D1*
X3151623Y2601564D1*
X3150306Y2605245D1*
X3149310Y2609026D1*
X3148643Y2612878D1*
X3148308Y2616773D1*
X3148311Y2620682D1*
X3148650Y2624576D1*
X3149322Y2628428D1*
X3150322Y2632207D1*
X3151643Y2635886D1*
X3152701Y2638185D1*
X3134741Y2638189D1*
X3135487Y2636537D1*
X3135983Y2635325D1*
X3136445Y2634100D1*
X3136870Y2632862D1*
X3137261Y2631612D1*
X3137614Y2630352D1*
X3137932Y2629081D1*
X3138213Y2627802D1*
X3138457Y2626516D1*
X3138663Y2625223D1*
X3138832Y2623924D1*
X3138965Y2622622D1*
X3139059Y2621315D1*
X3139115Y2620007D1*
X3139134Y2618701D1*
X3139115Y2617388D1*
X3139058Y2616080D1*
X3138963Y2614774D1*
X3138832Y2613471D1*
X3138663Y2612173D1*
X3138455Y2610881D1*
X3138211Y2609593D1*
X3137930Y2608315D1*
X3137613Y2607045D1*
X3137259Y2605783D1*
X3136869Y2604534D1*
X3136442Y2603295D1*
X3135980Y2602071D1*
X3135484Y2600860D1*
X3134953Y2599663D1*
X3134387Y2598482D1*
X3133787Y2597318D1*
X3133155Y2596171D1*
X3132488Y2595043D1*
X3131791Y2593936D1*
X3131062Y2592848D1*
X3130301Y2591782D1*
X3129509Y2590739D1*
X3128689Y2589718D1*
X3127840Y2588722D1*
X3126961Y2587751D1*
X3126055Y2586804D1*
X3125123Y2585886D1*
X3124164Y2584993D1*
X3123180Y2584130D1*
X3122172Y2583295D1*
X3121139Y2582490D1*
X3120084Y2581714D1*
X3119008Y2580969D1*
X3117909Y2580255D1*
X3116791Y2579573D1*
X3115655Y2578924D1*
X3114499Y2578308D1*
X3113327Y2577726D1*
X3112138Y2577177D1*
X3110933Y2576663D1*
X3109715Y2576184D1*
X3108483Y2575740D1*
X3107239Y2575332D1*
X3105983Y2574959D1*
X3104718Y2574623D1*
X3103442Y2574324D1*
X3102160Y2574062D1*
X3100870Y2573837D1*
X3099573Y2573648D1*
X3098273Y2573499D1*
X3096969Y2573386D1*
X3095661Y2573310D1*
X3094353Y2573273D1*
X3093043D1*
X3091735Y2573310D1*
X3090427Y2573386D1*
X3089122Y2573499D1*
X3087822Y2573650D1*
X3086526Y2573837D1*
X3085236Y2574063D1*
X3083953Y2574325D1*
X3082678Y2574625D1*
X3081413Y2574961D1*
X3080157Y2575333D1*
X3078913Y2575741D1*
X3077681Y2576185D1*
X3076463Y2576665D1*
X3075259Y2577178D1*
X3074070Y2577728D1*
X3072898Y2578311D1*
X3071741Y2578927D1*
X3070605Y2579576D1*
X3069487Y2580259D1*
X3068390Y2580971D1*
X3067312Y2581717D1*
X3066257Y2582492D1*
X3065226Y2583298D1*
X3064217Y2584134D1*
X3063234Y2584997D1*
X3062274Y2585890D1*
X3061343Y2586810D1*
X3060437Y2587755D1*
X3059559Y2588726D1*
X3058709Y2589723D1*
X3057888Y2590743D1*
X3057097Y2591787D1*
X3056337Y2592853D1*
X3055608Y2593940D1*
X3054909Y2595049D1*
X3054244Y2596176D1*
X3053612Y2597323D1*
X3053012Y2598487D1*
X3052446Y2599668D1*
X3051915Y2600865D1*
X3051419Y2602076D1*
X3050957Y2603302D1*
X3050531Y2604539D1*
X3050140Y2605790D1*
X3049787Y2607050D1*
X3049470Y2608320D1*
X3049189Y2609600D1*
X3048945Y2610886D1*
X3048739Y2612178D1*
X3048570Y2613478D1*
X3048437Y2614780D1*
X3048343Y2616087D1*
X3048286Y2617395D1*
X3048268Y2618703D1*
X3048286Y2620013D1*
X3048344Y2621322D1*
X3048438Y2622627D1*
X3048570Y2623930D1*
X3048739Y2625228D1*
X3048946Y2626521D1*
X3049190Y2627808D1*
X3049471Y2629087D1*
X3049789Y2630357D1*
X3050143Y2631618D1*
X3050533Y2632867D1*
X3050959Y2634106D1*
X3051421Y2635331D1*
X3051917Y2636542D1*
X3052449Y2637739D1*
X3052664Y2638188D1*
X3034740Y2638189D1*
X3035003Y2637631D1*
X3036476Y2634010D1*
X3037634Y2630277D1*
X3038467Y2626457D1*
X3038969Y2622580D1*
X3039134Y2618701D1*
X3038963Y2614769D1*
X3038458Y2610892D1*
X3037621Y2607073D1*
X3036459Y2603341D1*
X3034980Y2599722D1*
X3033196Y2596244D1*
X3031119Y2592932D1*
X3028765Y2589811D1*
X3026152Y2586903D1*
X3023298Y2584231D1*
X3020226Y2581815D1*
X3016957Y2579671D1*
X3013516Y2577816D1*
X3009928Y2576264D1*
X3006219Y2575026D1*
X3002419Y2574112D1*
X2998552Y2573528D1*
X2994652Y2573278D1*
X2990744Y2573364D1*
X2986857Y2573786D1*
X2983021Y2574541D1*
X2979265Y2575622D1*
X2975615Y2577022D1*
X2972098Y2578732D1*
X2968743Y2580736D1*
X2965572Y2583022D1*
X2962609Y2585573D1*
X2959877Y2588369D1*
X2957394Y2591388D1*
X2955180Y2594610D1*
X2953252Y2598012D1*
X2951623Y2601564D1*
X2950306Y2605245D1*
X2949310Y2609026D1*
X2948643Y2612878D1*
X2948308Y2616773D1*
X2948311Y2620682D1*
X2948650Y2624576D1*
X2949322Y2628428D1*
X2950322Y2632207D1*
X2951643Y2635886D1*
X2952701Y2638185D1*
X2934739Y2638189D1*
X2935003Y2637631D1*
X2936476Y2634010D1*
X2937634Y2630277D1*
X2938467Y2626457D1*
X2938969Y2622580D1*
X2939134Y2618701D1*
X2938963Y2614769D1*
X2938458Y2610892D1*
X2937621Y2607073D1*
X2936459Y2603341D1*
X2934980Y2599722D1*
X2933196Y2596244D1*
X2931119Y2592932D1*
X2928765Y2589811D1*
X2926152Y2586903D1*
X2923298Y2584231D1*
X2920226Y2581815D1*
X2916957Y2579671D1*
X2913516Y2577816D1*
X2909928Y2576264D1*
X2906219Y2575026D1*
X2902419Y2574112D1*
X2898552Y2573528D1*
X2894652Y2573278D1*
X2890744Y2573364D1*
X2886857Y2573786D1*
X2883021Y2574541D1*
X2879265Y2575622D1*
X2875615Y2577022D1*
X2872098Y2578732D1*
X2868743Y2580736D1*
X2865572Y2583022D1*
X2862609Y2585573D1*
X2859877Y2588369D1*
X2857394Y2591388D1*
X2855180Y2594610D1*
X2853252Y2598012D1*
X2851623Y2601564D1*
X2850306Y2605245D1*
X2849310Y2609026D1*
X2848643Y2612878D1*
X2848308Y2616773D1*
X2848311Y2620682D1*
X2848650Y2624576D1*
X2849322Y2628428D1*
X2850322Y2632207D1*
X2851643Y2635886D1*
X2852701Y2638185D1*
X2834745Y2638189D1*
X2835003Y2637631D1*
X2836476Y2634010D1*
X2837634Y2630277D1*
X2838467Y2626457D1*
X2838969Y2622580D1*
X2839134Y2618701D1*
X2838963Y2614769D1*
X2838458Y2610892D1*
X2837621Y2607073D1*
X2836459Y2603341D1*
X2834980Y2599722D1*
X2833196Y2596244D1*
X2831119Y2592932D1*
X2828765Y2589811D1*
X2826152Y2586903D1*
X2823298Y2584231D1*
X2820226Y2581815D1*
X2816957Y2579671D1*
X2813516Y2577816D1*
X2809928Y2576264D1*
X2806219Y2575026D1*
X2802419Y2574112D1*
X2798552Y2573528D1*
X2794652Y2573278D1*
X2790744Y2573364D1*
X2786857Y2573786D1*
X2783021Y2574541D1*
X2779265Y2575622D1*
X2775615Y2577022D1*
X2772098Y2578732D1*
X2768743Y2580736D1*
X2765572Y2583022D1*
X2762609Y2585573D1*
X2759877Y2588369D1*
X2757394Y2591388D1*
X2755180Y2594610D1*
X2753252Y2598012D1*
X2751623Y2601564D1*
X2750306Y2605245D1*
X2749310Y2609026D1*
X2748643Y2612878D1*
X2748308Y2616773D1*
X2748311Y2620682D1*
X2748650Y2624576D1*
X2749322Y2628428D1*
X2750322Y2632207D1*
X2751643Y2635886D1*
X2752701Y2638185D1*
X2734744Y2638189D1*
X2735003Y2637631D1*
X2736476Y2634010D1*
X2737634Y2630277D1*
X2738467Y2626457D1*
X2738969Y2622580D1*
X2739134Y2618701D1*
X2738963Y2614769D1*
X2738458Y2610892D1*
X2737621Y2607073D1*
X2736459Y2603341D1*
X2734980Y2599722D1*
X2733196Y2596244D1*
X2731119Y2592932D1*
X2728765Y2589811D1*
X2726152Y2586903D1*
X2723298Y2584231D1*
X2720226Y2581815D1*
X2716957Y2579671D1*
X2713516Y2577816D1*
X2709928Y2576264D1*
X2706219Y2575026D1*
X2702419Y2574112D1*
X2698552Y2573528D1*
X2694652Y2573278D1*
X2690744Y2573364D1*
X2686857Y2573786D1*
X2683021Y2574541D1*
X2679265Y2575622D1*
X2675615Y2577022D1*
X2672098Y2578732D1*
X2668743Y2580736D1*
X2665572Y2583022D1*
X2662609Y2585573D1*
X2659877Y2588369D1*
X2657394Y2591388D1*
X2655180Y2594610D1*
X2653252Y2598012D1*
X2651623Y2601564D1*
X2650306Y2605245D1*
X2649310Y2609026D1*
X2648643Y2612878D1*
X2648308Y2616773D1*
X2648311Y2620682D1*
X2648650Y2624576D1*
X2649322Y2628428D1*
X2650322Y2632207D1*
X2651643Y2635886D1*
X2652701Y2638185D1*
X2619690Y2638189D1*
X423619D1*
X423622Y2437409D1*
Y1231497D1*
X557474Y1231496D1*
X559370Y1231013D1*
X560832Y1229625D1*
X561415Y1227696D1*
X561417Y1164660D1*
Y1096858D1*
X560934Y1094961D1*
X559546Y1093499D1*
X557617Y1092916D1*
X494597Y1092913D1*
X423619D1*
X423622Y906696D1*
X770060Y906693D1*
X842913D1*
X844862Y906177D1*
X846301Y904764D1*
X846849Y902822D1*
X846850Y423625D1*
X1126377Y423622D1*
X3877558D1*
X3877559Y902748D1*
X3878042Y904643D1*
X3093701Y2618701D2*
D16*
Y2573283D1*
X3048283Y2618701D2*
X3139118D1*
D22*
X481202Y2578076D3*
D3*
X4234325D3*
D3*
X481199Y968701D3*
D3*
D27*
X3193701Y2618701D3*
X3093701D3*
X2993701D3*
X2893701D3*
X2793701D3*
X2693701D3*
M02*
