G04 DipTrace 4.0.0.5*
G04 2 - Inner 1.gbr*
%MOIN*%
G04 #@! TF.FileFunction,Copper,L2,Inr*
G04 #@! TF.Part,Single*
%ADD22C,0.045354*%
%ADD27C,0.066929*%
G04 #@! TA.AperFunction,CopperBalancing*
%ADD15C,0.007874*%
%ADD16C,0.011811*%
G04 #@! TA.AperFunction,ViaPad*
%ADD39C,0.017717*%
%FSLAX26Y26*%
G04*
G70*
G90*
G75*
G01*
G04 Inner1_Plane*
%LPD*%
D39*
X2274950Y921825D3*
X724950Y1135299D3*
X2490900Y987774D3*
X2612451Y943701D3*
X959325Y2306201D3*
X1406201Y1571825D3*
D3*
X1996825Y1987450D3*
X2137450Y2206201D3*
X2228077Y2228075D3*
X1052992Y847587D3*
X1353076Y2371825D3*
X1788761Y1907762D3*
D3*
X1418701Y978076D3*
X1487451Y978075D3*
X1946825Y2018701D3*
X2024950Y2084325D3*
X1984327Y2115575D3*
X1253839Y2318148D3*
X1981201Y993701D3*
X1212451Y2374950D3*
X1940576Y953076D3*
X1175098Y2337451D3*
X1887450Y953076D3*
X1134325Y2374950D3*
X1849950Y990573D3*
X1076673Y2338610D3*
X1812450Y953075D3*
X1037303Y2374950D3*
X1772370Y987995D3*
X997933Y2337992D3*
X1706201Y959325D3*
X958563Y2374950D3*
X1656201Y990576D3*
X2043699Y1378075D3*
X2087450Y1596825D3*
X2012450Y1421825D3*
X2062450Y1646825D3*
X3821825Y2249950D3*
X3768890Y2318891D3*
X2256201Y971825D3*
X2543699Y962451D3*
X2743701Y1759325D3*
X2643701Y1824950D3*
X2462450Y928075D3*
X3218454Y971825D3*
X3174950Y1403076D3*
X2759325Y1384325D3*
X3259983Y928175D3*
X3118701Y1384325D3*
X3333524Y969503D3*
X3456201Y1034325D3*
X2665576Y1846825D3*
X3393701Y953076D3*
X3534325Y1934325D3*
X3590576Y1909325D3*
X2924951Y946827D3*
X3105954Y971580D3*
X3147088Y927915D3*
X3850197Y837450D3*
X3737450Y884325D3*
X3737451Y915576D3*
Y946825D3*
X2043701Y1312451D3*
X2181201Y1996825D3*
X3846825Y2190576D3*
X949950Y1409325D3*
X1931201Y1628075D3*
X1906365Y1512525D3*
X1881201Y1609325D3*
X1855184Y1512525D3*
X1828076Y1587450D3*
X1804003Y1512525D3*
X1778076Y1565576D3*
X1752822Y1512525D3*
X1112451Y1409325D3*
X1437450Y1315576D3*
X1743701Y1296825D3*
X1881201D3*
X3599951Y2540575D3*
X3499950Y2646825D3*
X3699951D3*
X3799950Y2540576D3*
X3899950Y2646825D3*
X3999950Y2540576D3*
X962451Y2534325D3*
X431201Y1809325D3*
X3949950Y1371825D3*
X1396825Y1665575D3*
X1199950Y2596825D3*
X1312451D3*
X1543701Y1343701D3*
Y1415575D3*
X1709325Y2290575D3*
X1831201Y2424950D3*
X1812450D3*
X949951Y1537450D3*
X1568701Y1534325D3*
X1112451Y1603076D3*
X599950Y1728076D3*
X2037451Y2568701D3*
X1690576Y2290575D3*
X2137451Y1790576D3*
X2387451Y2609325D3*
X2846825Y1362450D3*
X2156201Y1790576D3*
X1793701Y2424950D3*
X2231201Y2415576D3*
X2243701Y1993701D3*
X2893701Y2303076D3*
X2912451D3*
X2306201Y1968701D3*
X2243701Y1943701D3*
X2956201Y2087450D3*
X2306201Y1918701D3*
X2243701Y1893701D3*
X2306201Y1868701D3*
X2243701Y1843701D3*
X2615576Y1565575D3*
X2628075Y1553075D3*
X2306201Y1818701D3*
X1999950Y1918701D3*
X2018701D3*
X2931201Y2303076D3*
X2118701Y1790576D3*
X3099951Y2328076D3*
X1987451Y1906201D3*
X2121825Y1443701D3*
X2243701Y2403075D3*
X2899950Y1409325D3*
X3518701Y1396825D3*
X2256201Y2390576D3*
X2093701Y2278075D3*
X2106201Y2265573D3*
X2118701Y2253075D3*
X1974950Y2181201D3*
X1993701D3*
X2012451D3*
Y1546825D3*
X1824951Y1728076D3*
X2241852Y1664167D3*
X2254352Y1676667D3*
X2266852Y1689167D3*
X1925633Y1821102D3*
X2640576Y1540575D3*
X1890576Y2037450D3*
X1724951Y2159325D3*
X3456201Y903075D3*
X2362451Y878075D3*
X762453Y990576D3*
X2412451Y878075D3*
Y1053076D3*
X3668701Y1371825D3*
X799951Y953076D3*
X2462451Y878075D3*
X906202Y1003076D3*
X2840429Y1135008D3*
X2412451Y1028076D3*
X724951D3*
X2412451Y1003075D3*
X593701Y1190576D3*
X2412451Y978075D3*
X943701Y1040576D3*
X2412451Y953075D3*
X1765576Y2196825D3*
X2412451Y928075D3*
X1831201Y2206201D3*
X2412451Y903075D3*
X2893701Y2328076D3*
X599950Y1703076D3*
X2746825Y2159325D3*
X943701Y965576D3*
X599950Y1678076D3*
X443701Y2071825D3*
X906202Y1078076D3*
X599950Y1653076D3*
X443701Y2271825D3*
X599950Y1628076D3*
X981201Y1078076D3*
X599950Y1603076D3*
X443701Y2471825D3*
X599950Y1578075D3*
X981201Y1003076D3*
X599950Y1753075D3*
X443701Y2658126D3*
X2662451Y2249950D3*
X981201Y928075D3*
X2262451Y2246825D3*
X643701Y2658126D3*
X1963979Y2350714D3*
X843701Y2658126D3*
X868701Y1040576D3*
X1949950Y2449950D3*
X643701Y2471825D3*
X2703076Y1653075D3*
X643701Y2271825D3*
X831201Y1078076D3*
X3496316Y2181201D3*
X3593701D3*
X3896825Y2221825D3*
Y2203076D3*
Y2184325D3*
X3337451Y2421825D3*
X3374950Y1918701D3*
X3646825Y2024950D3*
Y1949950D3*
X3393701Y1846825D3*
X3343701Y2190576D3*
X3546825Y2024950D3*
X3631201Y2378076D3*
X3803076Y2206201D3*
X2715576Y1640576D3*
X2728076Y1628076D3*
X1396825Y1837450D3*
X1037450Y2534325D3*
X1187451D3*
X1062451Y2578075D3*
X2837451Y1781201D3*
X2849950Y1768701D3*
X1249951Y2534325D3*
X1374951Y2521825D3*
X1387451Y2534325D3*
X1399951Y2546825D3*
X1043701Y2578075D3*
X1024950D3*
X1728076Y2290575D3*
X2862451Y1756201D3*
X2796825Y1803075D3*
X1396825Y1768701D3*
X943701Y2171825D3*
X2018701Y2568701D3*
X1999950D3*
X4199951Y1712450D3*
X2749951Y1271825D3*
X1743701Y1356201D3*
X1881201D3*
X1528076Y1984325D3*
X1603076Y2059325D3*
X1649951Y1862450D3*
X1724950Y1937450D3*
X1640576Y2096825D3*
X1768701Y2124950D3*
X1818701Y2062450D3*
X1759325Y1971825D3*
X849950Y1878075D3*
X943701Y1971825D3*
X1043701Y2071825D3*
X443701Y1321825D3*
X2362451Y2246825D3*
X2462451D3*
X2096825Y1993701D3*
X2153076D3*
X443701Y1521825D3*
X543701Y1421825D3*
X643701Y1521825D3*
Y1321825D3*
X2037451Y2159325D3*
X2128076Y2299950D3*
X2049950Y2224950D3*
X2115576Y2159325D3*
X781201Y1521825D3*
Y1278075D3*
X893701Y1421825D3*
X1365251Y1075076D3*
X1254064Y1074953D3*
X1140150Y1074882D3*
X862451Y1134325D3*
X3456201D3*
X4046825Y2106201D3*
X881201Y1134325D3*
X899950D3*
X4046825Y1987450D3*
X3474950Y1134325D3*
X3493701D3*
X3781201Y865576D3*
Y846825D3*
Y828075D3*
Y809325D3*
X1681201Y859325D3*
X1756201Y865576D3*
X1862451Y778075D3*
X1762450D3*
X1662450D3*
X1562451Y846825D3*
X1462451Y778075D3*
X1524950Y821825D3*
X1843701Y884325D3*
X1962450Y778075D3*
X2062450D3*
X1937451Y896825D3*
X1356201Y778075D3*
X2612451Y1043701D3*
X3337450Y903076D3*
X3493701Y1396825D3*
X3468701D3*
X2874950Y1409325D3*
X2849950D3*
X1256201Y778075D3*
X1140660Y882220D3*
X1549950Y953075D3*
X1599950Y1021825D3*
X1699951D3*
X2274950Y2659325D3*
X2215576Y2159325D3*
X2443701Y2659325D3*
X2212451Y2287450D3*
X2718701Y1728076D3*
X2315576Y2159325D3*
X2415575D3*
X2499950Y2659325D3*
X2556201D3*
X2612451D3*
X2215576Y2390576D3*
X1018701Y965576D3*
X2515577Y2159325D3*
X2331201Y2609325D3*
X981201Y865576D3*
X3024950Y2034325D3*
X2956201Y1996825D3*
X2362451Y2546825D3*
X2081201Y846825D3*
X2162450Y2337450D3*
X1518701Y1021825D3*
X2262450Y2337450D3*
X1993701Y940576D3*
X2031201Y1009325D3*
X1474950Y1090575D3*
X1581201Y1090576D3*
X1406201Y1409325D3*
X1687451Y1090576D3*
X2106201Y921825D3*
X1156201Y778075D3*
X1562451Y1215576D3*
X2362450Y2337450D3*
X4143701Y1171825D3*
X4293701Y2009325D3*
X3471825Y1646825D3*
X3578076D3*
X1956201Y1171825D3*
X3684325Y1646825D3*
X2918701Y1656201D3*
X3087451Y1665576D3*
X3031201Y1746825D3*
X3168701D3*
X3468701Y1965576D3*
X3990576Y1818701D3*
X1262450Y1409325D3*
X2012451Y1528076D3*
X1956201Y1078076D3*
X3468701Y1881201D3*
X2199951Y940576D3*
X2462449Y2337450D3*
X1962451Y1509325D3*
X2562451Y2337450D3*
X931201Y1537450D3*
X2312451Y2287450D3*
X2412451D3*
X2512450D3*
X2199951Y1009325D3*
X2249951Y1043701D3*
X2584325Y1331201D3*
X2137451Y821825D3*
X2199951Y878075D3*
X2187451Y821825D3*
X2249951Y1096825D3*
X2362451Y778075D3*
X2462451D3*
X2574951Y1006201D3*
X2537450Y853075D3*
X3624950Y1084325D3*
X2574950Y1081201D3*
X1634325Y1631201D3*
X1628076Y1271825D3*
X1278076Y2371825D3*
X2265577Y2440576D3*
X1309325Y2328076D3*
X3024950Y1421825D3*
X2968701D3*
X3143701D3*
X3237451D3*
X3356201D3*
X3418701D3*
X2315576Y2490575D3*
X3024950Y1271824D3*
X3143701D3*
X3243701D3*
X3356201D3*
X2415576Y2490575D3*
X3896825Y1587450D3*
X3881201Y1290576D3*
X434138Y943699D3*
X434325Y1112450D3*
X687451Y1065576D3*
X593699Y1265575D3*
X687453Y990576D3*
X543701Y2171825D3*
Y2371825D3*
Y2571825D3*
X743701D3*
X2312451Y2387450D3*
X2365577Y2440576D3*
X4293701Y2646825D3*
X1824950Y1090576D3*
X4099950Y2221825D3*
X2465577Y2440576D3*
X4293701Y1821825D3*
Y1609325D3*
Y1396825D3*
X2918701Y2046825D3*
X4043701Y1271825D3*
Y1071825D3*
X4243701D3*
X4143701Y971825D3*
X3943701Y1171825D3*
X4143701Y1371825D3*
X2412451Y2387450D3*
X4043701Y1656201D3*
X2568701Y2249950D3*
X3965576Y1653076D3*
X3793701Y1371825D3*
X3493701Y1321825D3*
X3393701D3*
X2574950Y2159325D3*
X2659325D3*
X2893701Y1271825D3*
X2574950Y1993701D3*
X2799950D3*
X2343701D3*
X2431201D3*
X2518701D3*
X2693701Y1071825D3*
X2893701D3*
X2509327Y1703076D3*
X2459328Y1653076D3*
X2359328D3*
X2559324Y1753075D3*
X2409327Y1703076D3*
X2309327D3*
X2209328D3*
X2362451Y1553075D3*
X2409327Y1603076D3*
X2309327D3*
X2459324Y1753075D3*
X2359323D3*
X3043701Y2459325D3*
X2259325Y1753075D3*
X2687451Y1993701D3*
X2609324Y1799950D3*
X2509323D3*
X2409325D3*
X2093701Y1356201D3*
Y1296825D3*
X2703076Y1421825D3*
X2559323Y1843701D3*
X2459325D3*
X2481201Y1421825D3*
X2324950Y1224950D3*
X2584325D3*
X2899951Y1546825D3*
X2999951Y1581201D3*
X743701Y2371825D3*
Y2171825D3*
X843701Y2271825D3*
Y2071825D3*
X3643701Y1515576D3*
X3362451Y859325D3*
X3393701Y903076D3*
X1618701Y953076D3*
X487450Y1946825D3*
X599950D3*
X712451D3*
X781202Y1715576D3*
X3699950Y1290576D3*
X2749951Y1178075D3*
X3581201Y1190576D3*
X3012451Y846825D3*
X1293701Y884325D3*
X781201Y1390576D3*
Y1178075D3*
X724951Y953076D3*
X649951Y1028076D3*
X612451Y1065576D3*
X612453Y990576D3*
X649951Y953076D3*
X574951Y1028076D3*
X537451Y1065576D3*
X674953Y1190576D3*
X574951Y953076D3*
X674951Y1265576D3*
X474951Y1065576D3*
X593701Y1115575D3*
X674950D3*
X1087451Y1315576D3*
X1262450D3*
X2421825Y1174951D3*
X2524950D3*
X2462451Y1262450D3*
X1574950Y1565576D3*
X3174950Y2459325D3*
X3306201D3*
X3368701Y2465576D3*
X3506201D3*
X3562451Y2415576D3*
X3432196Y2415953D3*
X3412451Y2190576D3*
X4099951Y2646825D3*
X3699951Y2434324D3*
X3899950Y2434327D3*
X4099950D3*
X1406201Y2506201D3*
X1399951Y2421825D3*
X1449951Y2578076D3*
X1474951Y2503076D3*
X868701Y928075D3*
X1553076Y2578076D3*
X724950Y1159325D3*
Y1184325D3*
Y1209325D3*
Y1234325D3*
Y1259325D3*
X1143701Y1132699D3*
X1359941Y1132373D3*
X1563022Y1133930D3*
X3085707Y1133463D3*
X3302337Y1133261D3*
X3818701Y2321825D3*
X3999950Y2328077D3*
X3943701Y971825D3*
X4043701Y1471825D3*
X4199949Y2328077D3*
X4199950Y2115576D3*
X1699950Y1565576D3*
X2218701Y2659325D3*
X4293701Y2434325D3*
X1959325Y1674950D3*
X4199950Y2540576D3*
X4293701Y2221825D3*
X4199951Y1499950D3*
X2981201Y2271825D3*
X1124950Y2534325D3*
X874951Y1278075D3*
X968701D3*
X3081201Y1084325D3*
Y996825D3*
X3193701Y1084325D3*
Y996825D3*
X3306201Y1084325D3*
X3034325Y2271825D3*
X2756201Y2353076D3*
X3306201Y996825D3*
X2912451Y2459325D3*
X3049951Y2087450D3*
X843701Y1596825D3*
X924950D3*
X3006201Y2034325D3*
X2987451D3*
X3212451Y2190576D3*
X3015576Y1996825D3*
X3146825Y1528075D3*
X3259325D3*
X3574950Y1846827D3*
X3596825Y1981201D3*
X981201Y803075D3*
X1018701Y1040576D3*
X1253076Y971825D3*
X1140276Y976021D3*
X1365576Y971825D3*
X868701Y778075D3*
Y853076D3*
X912451Y1537450D3*
X1640576Y1471825D3*
X2243701Y1421825D3*
X2362451Y1499950D3*
X2665576Y2428076D3*
X2684325D3*
X2703076D3*
X2262451Y778075D3*
X2562451D3*
X2662451D3*
X2762451D3*
X2862451D3*
X2962451D3*
X3062451D3*
X3162451D3*
X3262451D3*
X3362451D3*
X3462451D3*
X3562451D3*
X3662451D3*
X3899951Y1506201D3*
X2162451Y778075D3*
X3968701Y1584325D3*
X4106201Y1609325D3*
X4199951Y1287450D3*
X3549951Y2243701D3*
X1506201Y1665576D3*
X1590576Y1921825D3*
X1665576Y1996825D3*
X2346825Y921825D3*
X2284325Y862450D3*
X2587451Y824950D3*
X2774951Y962450D3*
X2706201D3*
X2653076Y909325D3*
X2687450Y856199D3*
X2831201Y953075D3*
X2743701Y859325D3*
X2874951Y893701D3*
X2884325Y953075D3*
X2912451Y859325D3*
X2787451Y909325D3*
X2962450D3*
X3040576D3*
X1699951Y2031201D3*
X3562451Y993701D3*
X3474950Y1203075D3*
X3587451Y1321825D3*
X3418701Y1084325D3*
X3571825Y906201D3*
X1615576Y2568701D3*
X3690576Y846825D3*
X3781201Y884325D3*
X2590576D3*
X1818701Y2568701D3*
X1643701Y2424950D3*
X2412451Y1078076D3*
X2387451Y878076D3*
X2437451D3*
X1990576Y1478076D3*
X1553076Y1712450D3*
X1474950Y1534325D3*
X2181201Y1553076D3*
X1459257Y1426955D3*
X2112451Y1621825D3*
X1062451Y1424950D3*
X1131201Y1584325D3*
X1396825Y1593701D3*
X1381201Y1578075D3*
X1549950Y1534325D3*
X1531201D3*
X2534325Y1540576D3*
X2621825Y1631201D3*
X3299951Y2646825D3*
X574950Y1753075D3*
X624950D3*
X574950Y1728076D3*
X624950D3*
Y1703076D3*
X574950D3*
Y1603076D3*
X624950D3*
Y1578075D3*
X574950D3*
Y1553075D3*
X599950D3*
X624950D3*
X3399951Y2574950D3*
X3018701Y2415575D3*
X3149950D3*
X3281201D3*
X2887451D3*
X3362451Y1534325D3*
X2356201Y1078076D3*
X499951Y2090576D3*
Y2071825D3*
Y2053076D3*
Y2034325D3*
X699951Y2090576D3*
Y2071825D3*
Y2053076D3*
Y2034325D3*
X571825Y2128076D3*
X590576D3*
X609325D3*
X628076D3*
X553076D3*
X646825D3*
X665576D3*
X534325D3*
X518701Y2109325D3*
X681201D3*
X3828076Y934325D3*
Y865576D3*
X1544272Y1133930D3*
X2822042Y1134845D3*
X2803293D3*
X1525522Y1133930D3*
X3187451Y853075D3*
X3265576Y859325D3*
X2824951Y843701D3*
X3634325Y865576D3*
X3740576Y853076D3*
Y790576D3*
X3690576Y921825D3*
X1034325Y824950D3*
X1068701Y778075D3*
X1562451D3*
X3318701Y1524950D3*
X3868701Y737450D3*
X423429Y2660146D2*
D15*
X2649478D1*
X2737928D2*
X2749479D1*
X2837922D2*
X2849473D1*
X2937924D2*
X2949475D1*
X3037925D2*
X3049476D1*
X3137927D2*
X3149478D1*
X3237928D2*
X4301476D1*
X423429Y2652403D2*
X2647825D1*
X2739574D2*
X2747826D1*
X2839575D2*
X2847828D1*
X2939577D2*
X2947822D1*
X3039578D2*
X3047823D1*
X3139580D2*
X3147825D1*
X3239574D2*
X4301476D1*
X423429Y2644660D2*
X2647532D1*
X2739866D2*
X2747534D1*
X2839868D2*
X2847536D1*
X2939869D2*
X2947529D1*
X3039871D2*
X3047531D1*
X3139872D2*
X3147532D1*
X3239866D2*
X4301476D1*
X423429Y2636917D2*
X460125D1*
X502277D2*
X2648571D1*
X2738828D2*
X2748572D1*
X2838830D2*
X2848574D1*
X2938831D2*
X2948575D1*
X3038825D2*
X3048577D1*
X3138826D2*
X3148571D1*
X3238828D2*
X4213254D1*
X4255399D2*
X4301476D1*
X423429Y2629175D2*
X451651D1*
X510751D2*
X2651047D1*
X2736352D2*
X2751048D1*
X2836354D2*
X2851050D1*
X2936355D2*
X2951051D1*
X3036349D2*
X3051053D1*
X3136350D2*
X3151047D1*
X3236352D2*
X4204773D1*
X4263873D2*
X4301476D1*
X423429Y2621432D2*
X446899D1*
X515503D2*
X2655237D1*
X2732161D2*
X2755239D1*
X2832163D2*
X2855240D1*
X2932164D2*
X2955242D1*
X3032166D2*
X3055236D1*
X3132160D2*
X3155237D1*
X3232161D2*
X4200028D1*
X4268625D2*
X4301476D1*
X423429Y2613689D2*
X444377D1*
X518033D2*
X2661827D1*
X2725571D2*
X2761829D1*
X2825573D2*
X2861830D1*
X2925574D2*
X2961832D1*
X3025568D2*
X3061833D1*
X3125570D2*
X3161827D1*
X3225571D2*
X4197499D1*
X4271154D2*
X4301476D1*
X423429Y2605946D2*
X443608D1*
X518802D2*
X2673085D1*
X2714314D2*
X2773086D1*
X2814315D2*
X2873088D1*
X2914317D2*
X2973089D1*
X3014311D2*
X3073091D1*
X3114312D2*
X3173085D1*
X3214314D2*
X4196730D1*
X4271923D2*
X4301476D1*
X423429Y2598203D2*
X444484D1*
X517925D2*
X1018818D1*
X1031082D2*
X1037565D1*
X1049836D2*
X1056320D1*
X1068583D2*
X4197606D1*
X4271047D2*
X4301476D1*
X423429Y2590461D2*
X447137D1*
X515264D2*
X1007423D1*
X1079979D2*
X4200259D1*
X4268386D2*
X4301476D1*
X423429Y2582718D2*
X452066D1*
X510335D2*
X1003862D1*
X1083539D2*
X4205188D1*
X4263457D2*
X4301476D1*
X423429Y2574975D2*
X460924D1*
X501485D2*
X1003570D1*
X1083831D2*
X4214046D1*
X4254607D2*
X4301476D1*
X423429Y2567232D2*
X1006385D1*
X1081017D2*
X1395003D1*
X1404897D2*
X4301476D1*
X423429Y2559490D2*
X1014766D1*
X1072635D2*
X1382630D1*
X1417270D2*
X4301476D1*
X423429Y2551747D2*
X1375248D1*
X1420976D2*
X4301476D1*
X423429Y2544004D2*
X1368220D1*
X1421376D2*
X4301476D1*
X423429Y2536261D2*
X1359154D1*
X1418685D2*
X4301476D1*
X423429Y2528518D2*
X1354441D1*
X1410672D2*
X4301476D1*
X423429Y2520776D2*
X1353364D1*
X1404052D2*
X4301476D1*
X423429Y2513033D2*
X1355287D1*
X1394617D2*
X4301476D1*
X423429Y2505290D2*
X1361500D1*
X1388404D2*
X4301476D1*
X423429Y2497547D2*
X4301476D1*
X423429Y2489804D2*
X4301476D1*
X423429Y2482062D2*
X4301476D1*
X423429Y2474319D2*
X4301476D1*
X423429Y2466576D2*
X1936618D1*
X1963284D2*
X4301476D1*
X423429Y2458833D2*
X1930328D1*
X1969574D2*
X4301476D1*
X423429Y2451091D2*
X1928367D1*
X1971534D2*
X4301476D1*
X423429Y2443348D2*
X1929413D1*
X1970489D2*
X2650631D1*
X2718028D2*
X4301476D1*
X423429Y2435605D2*
X1934065D1*
X1965836D2*
X2224704D1*
X2237698D2*
X2645372D1*
X2723280D2*
X3321045D1*
X3353855D2*
X4301476D1*
X423429Y2427862D2*
X2213600D1*
X2248801D2*
X2643965D1*
X2724687D2*
X3316732D1*
X3358169D2*
X4301476D1*
X423429Y2420119D2*
X2210086D1*
X2256460D2*
X2645541D1*
X2723111D2*
X3315909D1*
X3358999D2*
X4301476D1*
X423429Y2412377D2*
X2209833D1*
X2263119D2*
X2651100D1*
X2717551D2*
X3318100D1*
X3356800D2*
X4301476D1*
X423429Y2404634D2*
X2212693D1*
X2272354D2*
X3324905D1*
X3349995D2*
X4301476D1*
X423429Y2396891D2*
X2221213D1*
X2276837D2*
X4301476D1*
X423429Y2389148D2*
X942539D1*
X974587D2*
X1021279D1*
X1053327D2*
X1118305D1*
X1150353D2*
X1196430D1*
X1228478D2*
X1340730D1*
X1365427D2*
X2227426D1*
X2277767D2*
X4301476D1*
X423429Y2381406D2*
X937971D1*
X979155D2*
X1016712D1*
X1057895D2*
X1113737D1*
X1154913D2*
X1191862D1*
X1233038D2*
X1333794D1*
X1372356D2*
X2236715D1*
X2275684D2*
X4301476D1*
X423429Y2373663D2*
X936987D1*
X980139D2*
X1015727D1*
X1058879D2*
X1112753D1*
X1155897D2*
X1190878D1*
X1234022D2*
X1331541D1*
X1374609D2*
X2243259D1*
X2269140D2*
X4301476D1*
X423429Y2365920D2*
X939009D1*
X978117D2*
X1017750D1*
X1056857D2*
X1114768D1*
X1153882D2*
X1192900D1*
X1232007D2*
X1332318D1*
X1373832D2*
X1948960D1*
X1979001D2*
X4301476D1*
X423429Y2358177D2*
X945430D1*
X971696D2*
X992013D1*
X1003853D2*
X1024170D1*
X1050436D2*
X1068754D1*
X1084593D2*
X1121188D1*
X1147462D2*
X1172262D1*
X1177935D2*
X1199321D1*
X1225587D2*
X1336555D1*
X1369595D2*
X1943746D1*
X1984207D2*
X4301476D1*
X423429Y2350434D2*
X980440D1*
X1015426D2*
X1058742D1*
X1094604D2*
X1158029D1*
X1192168D2*
X1942370D1*
X1985591D2*
X4301476D1*
X423429Y2342692D2*
X976857D1*
X1019009D2*
X1055466D1*
X1097880D2*
X1154153D1*
X1196044D2*
X1943969D1*
X1983984D2*
X4301476D1*
X423429Y2334949D2*
X976542D1*
X1019324D2*
X1055382D1*
X1097965D2*
X1153638D1*
X1196559D2*
X1240744D1*
X1266933D2*
X1949582D1*
X1978378D2*
X3754839D1*
X3782942D2*
X4301476D1*
X423429Y2327206D2*
X979333D1*
X1016533D2*
X1058458D1*
X1094889D2*
X1156175D1*
X1194021D2*
X1234300D1*
X1273377D2*
X3749010D1*
X3788771D2*
X4301476D1*
X423429Y2319463D2*
X942477D1*
X976171D2*
X987638D1*
X1008229D2*
X1067693D1*
X1085654D2*
X1163811D1*
X1186386D2*
X1232263D1*
X1275414D2*
X2880062D1*
X2944844D2*
X3747280D1*
X3790494D2*
X4301476D1*
X423429Y2311720D2*
X938456D1*
X980193D2*
X1233239D1*
X1274438D2*
X2873964D1*
X2950934D2*
X3748549D1*
X3789232D2*
X4301476D1*
X423429Y2303978D2*
X937833D1*
X980823D2*
X1237791D1*
X1269886D2*
X2872103D1*
X2952795D2*
X3753563D1*
X3784211D2*
X4301476D1*
X423429Y2296235D2*
X940247D1*
X978401D2*
X2082718D1*
X2104685D2*
X2873241D1*
X2951657D2*
X4301476D1*
X423429Y2288492D2*
X947576D1*
X971073D2*
X2074882D1*
X2112521D2*
X2878047D1*
X2946859D2*
X4301476D1*
X423429Y2280749D2*
X2072260D1*
X2121248D2*
X4301476D1*
X423429Y2273007D2*
X2072714D1*
X2126446D2*
X4301476D1*
X423429Y2265264D2*
X2076489D1*
X2136373D2*
X3806920D1*
X3836730D2*
X4301476D1*
X423429Y2257521D2*
X2086209D1*
X2139834D2*
X3801637D1*
X3842013D2*
X4301476D1*
X423429Y2249778D2*
X2091838D1*
X2140049D2*
X3800215D1*
X3843436D2*
X4301476D1*
X423429Y2242035D2*
X2100250D1*
X2137150D2*
X2211832D1*
X2244318D2*
X3801775D1*
X3841875D2*
X3891004D1*
X3902644D2*
X4301476D1*
X423429Y2234293D2*
X2108916D1*
X2128484D2*
X2207410D1*
X2248740D2*
X3807304D1*
X3836346D2*
X3879355D1*
X3914294D2*
X4301476D1*
X423429Y2226550D2*
X1825982D1*
X1836423D2*
X2132230D1*
X2142671D2*
X2206518D1*
X2249639D2*
X3875756D1*
X3917900D2*
X4301476D1*
X423429Y2218807D2*
X1813833D1*
X1848564D2*
X2120081D1*
X2154813D2*
X2208641D1*
X2247517D2*
X3875433D1*
X3918223D2*
X4301476D1*
X423429Y2211064D2*
X1749587D1*
X1781566D2*
X1810165D1*
X1852240D2*
X2116413D1*
X2158488D2*
X2215277D1*
X2240881D2*
X3842299D1*
X3851356D2*
X3876802D1*
X3916847D2*
X4301476D1*
X423429Y2203322D2*
X1745004D1*
X1786149D2*
X1809788D1*
X1852617D2*
X2116036D1*
X2158865D2*
X3829565D1*
X3864082D2*
X3875210D1*
X3918439D2*
X4301476D1*
X423429Y2195579D2*
X1743997D1*
X1787156D2*
X1812502D1*
X1849902D2*
X1959094D1*
X2028306D2*
X2118751D1*
X2156151D2*
X3480463D1*
X3512173D2*
X3577843D1*
X3609553D2*
X3825820D1*
X3867826D2*
X3876609D1*
X3917047D2*
X4301476D1*
X423429Y2187836D2*
X1746004D1*
X1785149D2*
X1820592D1*
X1841813D2*
X1954419D1*
X2032981D2*
X2126840D1*
X2148061D2*
X3475788D1*
X3516848D2*
X3573175D1*
X3614228D2*
X3825390D1*
X3868257D2*
X3875510D1*
X3918139D2*
X4301476D1*
X423429Y2180093D2*
X1722597D1*
X1727309D2*
X1752386D1*
X1778767D2*
X1953366D1*
X2034034D2*
X3474735D1*
X3517902D2*
X3572114D1*
X3615289D2*
X3828043D1*
X3865612D2*
X3875648D1*
X3918008D2*
X4301476D1*
X423429Y2172350D2*
X1707910D1*
X1741988D2*
X1955311D1*
X2032089D2*
X3476672D1*
X3515956D2*
X3574060D1*
X3613344D2*
X3835963D1*
X3857692D2*
X3879001D1*
X3914655D2*
X4301476D1*
X423429Y2164608D2*
X1704019D1*
X1745887D2*
X1961578D1*
X2025822D2*
X3482939D1*
X3509689D2*
X3580326D1*
X3607077D2*
X3889335D1*
X3904321D2*
X4301476D1*
X423429Y2156865D2*
X1703481D1*
X1746417D2*
X4301476D1*
X423429Y2149122D2*
X1706011D1*
X1743895D2*
X4301476D1*
X423429Y2141379D2*
X517511D1*
X682387D2*
X1713593D1*
X1736306D2*
X4301476D1*
X423429Y2133636D2*
X513467D1*
X686432D2*
X1973166D1*
X1995487D2*
X4301476D1*
X423429Y2125894D2*
X505293D1*
X694606D2*
X1965446D1*
X2003207D2*
X4301476D1*
X423429Y2118151D2*
X499049D1*
X700850D2*
X1962870D1*
X2005783D2*
X4301476D1*
X423429Y2110408D2*
X492805D1*
X707101D2*
X1963362D1*
X2005291D2*
X4301476D1*
X423429Y2102665D2*
X482209D1*
X539225D2*
X660681D1*
X717697D2*
X1967199D1*
X2001454D2*
X2014297D1*
X2035603D2*
X4301476D1*
X423429Y2094923D2*
X478795D1*
X534534D2*
X665372D1*
X721104D2*
X1980848D1*
X1987805D2*
X2006231D1*
X2043669D2*
X4301476D1*
X423429Y2087180D2*
X478618D1*
X521285D2*
X678613D1*
X721288D2*
X2003532D1*
X2046368D2*
X4301476D1*
X423429Y2079437D2*
X479779D1*
X520124D2*
X679774D1*
X720127D2*
X2003916D1*
X2045984D2*
X4301476D1*
X423429Y2071694D2*
X478341D1*
X521562D2*
X678336D1*
X721565D2*
X2007607D1*
X2042301D2*
X4301476D1*
X423429Y2063951D2*
X479887D1*
X520016D2*
X679882D1*
X720020D2*
X2019841D1*
X2030059D2*
X4301476D1*
X423429Y2056209D2*
X478572D1*
X521331D2*
X678575D1*
X721327D2*
X1880739D1*
X1900414D2*
X4301476D1*
X423429Y2048466D2*
X478856D1*
X521047D2*
X678852D1*
X721050D2*
X1872111D1*
X1909042D2*
X2971374D1*
X3041032D2*
X4301476D1*
X423429Y2040723D2*
X479341D1*
X520562D2*
X679344D1*
X720558D2*
X1869220D1*
X1911933D2*
X2966845D1*
X3045561D2*
X4301476D1*
X423429Y2032980D2*
X478380D1*
X521524D2*
X678383D1*
X721519D2*
X1869451D1*
X1911703D2*
X1930874D1*
X1962776D2*
X2965884D1*
X3046522D2*
X4301476D1*
X423429Y2025238D2*
X480425D1*
X519478D2*
X680428D1*
X719481D2*
X1872918D1*
X1908235D2*
X1926260D1*
X1967390D2*
X2967922D1*
X3044477D2*
X4301476D1*
X423429Y2017495D2*
X486899D1*
X513004D2*
X686895D1*
X713007D2*
X1883830D1*
X1897323D2*
X1925245D1*
X1968405D2*
X2177860D1*
X2184548D2*
X2974396D1*
X3038002D2*
X4301476D1*
X423429Y2009752D2*
X1927229D1*
X1966421D2*
X2164080D1*
X2198320D2*
X2229641D1*
X2257759D2*
X4301476D1*
X423429Y2002009D2*
X1933581D1*
X1960069D2*
X1981148D1*
X2012504D2*
X2160243D1*
X2202157D2*
X2223812D1*
X2263588D2*
X4301476D1*
X423429Y1994266D2*
X1976357D1*
X2017294D2*
X2159743D1*
X2202657D2*
X2222097D1*
X2265311D2*
X4301476D1*
X423429Y1986524D2*
X1975235D1*
X2018417D2*
X2162312D1*
X2200088D2*
X2223366D1*
X2264042D2*
X2294640D1*
X2317760D2*
X4301476D1*
X423429Y1978781D2*
X1977103D1*
X2016549D2*
X2170016D1*
X2192391D2*
X2228380D1*
X2259021D2*
X2287189D1*
X2325211D2*
X4301476D1*
X423429Y1971038D2*
X1983216D1*
X2010435D2*
X2284720D1*
X2327680D2*
X4301476D1*
X423429Y1963295D2*
X2235854D1*
X2251546D2*
X2285297D1*
X2327103D2*
X4301476D1*
X423429Y1955552D2*
X2225788D1*
X2261612D2*
X2289265D1*
X2323143D2*
X4301476D1*
X423429Y1947810D2*
X2222497D1*
X2264903D2*
X3517665D1*
X3550982D2*
X4301476D1*
X423429Y1940067D2*
X2222405D1*
X2264995D2*
X3513520D1*
X3555134D2*
X4301476D1*
X423429Y1932324D2*
X1983408D1*
X2035242D2*
X2225465D1*
X2261935D2*
X2289657D1*
X2322743D2*
X3512805D1*
X3555842D2*
X4301476D1*
X423429Y1924581D2*
X1775693D1*
X1801835D2*
X1976872D1*
X2039471D2*
X2234654D1*
X2252746D2*
X2285435D1*
X2326965D2*
X3515135D1*
X3553519D2*
X3575613D1*
X3605539D2*
X4301476D1*
X423429Y1916839D2*
X1769226D1*
X1808295D2*
X1968760D1*
X2040232D2*
X2284666D1*
X2327734D2*
X3522225D1*
X3546422D2*
X3570361D1*
X3610791D2*
X4301476D1*
X423429Y1909096D2*
X1767188D1*
X1810332D2*
X1966038D1*
X2037971D2*
X2228887D1*
X2258513D2*
X2286935D1*
X2325465D2*
X3568961D1*
X3612190D2*
X4301476D1*
X423429Y1901353D2*
X1768157D1*
X1809363D2*
X1966407D1*
X2031012D2*
X2223543D1*
X2263857D2*
X2293886D1*
X2318514D2*
X3570545D1*
X3610606D2*
X4301476D1*
X423429Y1893610D2*
X1772694D1*
X1804827D2*
X1970075D1*
X2004830D2*
X2222090D1*
X2265318D2*
X3576120D1*
X3605031D2*
X4301476D1*
X423429Y1885867D2*
X1982155D1*
X1992742D2*
X2223612D1*
X2263788D2*
X2293625D1*
X2318783D2*
X4301476D1*
X423429Y1878125D2*
X2229087D1*
X2258313D2*
X2286843D1*
X2325557D2*
X4301476D1*
X423429Y1870382D2*
X2284651D1*
X2327749D2*
X4301476D1*
X423429Y1862639D2*
X2234247D1*
X2253153D2*
X2285489D1*
X2326911D2*
X2651239D1*
X2679919D2*
X4301476D1*
X423429Y1854896D2*
X2225350D1*
X2262050D2*
X2289818D1*
X2322582D2*
X2645587D1*
X2685563D2*
X4301476D1*
X423429Y1847154D2*
X2222374D1*
X2265026D2*
X2643965D1*
X2687186D2*
X4301476D1*
X423429Y1839411D2*
X2222536D1*
X2264865D2*
X2303213D1*
X2309194D2*
X2627924D1*
X2685824D2*
X4301476D1*
X423429Y1831668D2*
X2225911D1*
X2261489D2*
X2289119D1*
X2323289D2*
X2623203D1*
X2680649D2*
X4301476D1*
X423429Y1823925D2*
X2236377D1*
X2251023D2*
X2285251D1*
X2327149D2*
X2622111D1*
X2665286D2*
X4301476D1*
X423429Y1816182D2*
X2284736D1*
X2327664D2*
X2624026D1*
X2663379D2*
X4301476D1*
X423429Y1808440D2*
X2107209D1*
X2167693D2*
X2287289D1*
X2325111D2*
X2630216D1*
X2657181D2*
X4301476D1*
X423429Y1800697D2*
X2099712D1*
X2175190D2*
X2294947D1*
X2317460D2*
X2829342D1*
X2845565D2*
X4301476D1*
X423429Y1792954D2*
X2097220D1*
X2177681D2*
X2819469D1*
X2855431D2*
X4301476D1*
X423429Y1785211D2*
X2097789D1*
X2177112D2*
X2816224D1*
X2863436D2*
X4301476D1*
X423429Y1777469D2*
X2101726D1*
X2173175D2*
X2732686D1*
X2754714D2*
X2816178D1*
X2869626D2*
X4301476D1*
X423429Y1769726D2*
X561656D1*
X638250D2*
X2724873D1*
X2762535D2*
X2819284D1*
X2879076D2*
X4301476D1*
X423429Y1761983D2*
X555336D1*
X644563D2*
X2722259D1*
X2765141D2*
X2828635D1*
X2883244D2*
X4301476D1*
X423429Y1754240D2*
X553367D1*
X646531D2*
X2722720D1*
X2764688D2*
X2834171D1*
X2883974D2*
X4301476D1*
X423429Y1746497D2*
X554405D1*
X645501D2*
X2726503D1*
X2760897D2*
X2843237D1*
X2881668D2*
X4301476D1*
X423429Y1738755D2*
X556282D1*
X643617D2*
X2739660D1*
X2747740D2*
X2850288D1*
X2874616D2*
X4301476D1*
X423429Y1731012D2*
X553544D1*
X646354D2*
X4301476D1*
X423429Y1723269D2*
X553898D1*
X646001D2*
X4301476D1*
X423429Y1715526D2*
X557466D1*
X642433D2*
X4301476D1*
X423429Y1707783D2*
X553875D1*
X646024D2*
X2256731D1*
X2276975D2*
X4301476D1*
X423429Y1700041D2*
X553559D1*
X646339D2*
X2248303D1*
X2285403D2*
X4301476D1*
X423429Y1692298D2*
X556343D1*
X643555D2*
X2239798D1*
X2288233D2*
X4301476D1*
X423429Y1684555D2*
X564640D1*
X635266D2*
X2234293D1*
X2287948D2*
X4301476D1*
X423429Y1676812D2*
X578373D1*
X621525D2*
X2224519D1*
X2284403D2*
X4301476D1*
X423429Y1669070D2*
X580380D1*
X619518D2*
X2220821D1*
X2274530D2*
X2688948D1*
X2717205D2*
X4301476D1*
X423429Y1661327D2*
X580042D1*
X619857D2*
X2046716D1*
X2078187D2*
X2220429D1*
X2269224D2*
X2683165D1*
X2722988D2*
X4301476D1*
X423429Y1653584D2*
X578343D1*
X621556D2*
X2041964D1*
X2082939D2*
X2223128D1*
X2260574D2*
X2681466D1*
X2732630D2*
X4301476D1*
X423429Y1645841D2*
X579634D1*
X620264D2*
X1919547D1*
X1942853D2*
X2040856D1*
X2084039D2*
X2231171D1*
X2252538D2*
X2682758D1*
X2739735D2*
X4301476D1*
X423429Y1638098D2*
X580903D1*
X618995D2*
X1912158D1*
X1950242D2*
X2042756D1*
X2082147D2*
X2687818D1*
X2747117D2*
X4301476D1*
X423429Y1630356D2*
X578458D1*
X621441D2*
X1909713D1*
X1952687D2*
X2048915D1*
X2075988D2*
X2696645D1*
X2749562D2*
X4301476D1*
X423429Y1622613D2*
X566947D1*
X632952D2*
X1104448D1*
X1120456D2*
X1864375D1*
X1898023D2*
X1910312D1*
X1952088D2*
X2704250D1*
X2748963D2*
X4301476D1*
X423429Y1614870D2*
X556997D1*
X642902D2*
X1094498D1*
X1130406D2*
X1860338D1*
X1902060D2*
X1914311D1*
X1948097D2*
X2076266D1*
X2098634D2*
X2711186D1*
X2744972D2*
X4301476D1*
X423429Y1607127D2*
X553736D1*
X646170D2*
X1091238D1*
X1133667D2*
X1380116D1*
X1413533D2*
X1820469D1*
X1835685D2*
X1859700D1*
X1902698D2*
X2068562D1*
X2106338D2*
X4301476D1*
X423429Y1599385D2*
X553667D1*
X646231D2*
X1091169D1*
X1146377D2*
X1376002D1*
X1417647D2*
X1810219D1*
X1845935D2*
X1862115D1*
X1900291D2*
X2065993D1*
X2108907D2*
X4301476D1*
X423429Y1591642D2*
X556758D1*
X643148D2*
X1094260D1*
X1151491D2*
X1364614D1*
X1418339D2*
X1806889D1*
X1849264D2*
X1869412D1*
X1892986D2*
X2066493D1*
X2108407D2*
X4301476D1*
X423429Y1583899D2*
X554167D1*
X645732D2*
X1103541D1*
X1152814D2*
X1360415D1*
X1423960D2*
X1767388D1*
X1788763D2*
X1806766D1*
X1849387D2*
X2070330D1*
X2104570D2*
X2604887D1*
X2626262D2*
X4301476D1*
X423429Y1576156D2*
X553421D1*
X646477D2*
X1111254D1*
X1151145D2*
X1359677D1*
X1427358D2*
X1759353D1*
X1796807D2*
X1809788D1*
X1846365D2*
X2084110D1*
X2090790D2*
X2596851D1*
X2634305D2*
X4301476D1*
X423429Y1568413D2*
X555713D1*
X644186D2*
X1116975D1*
X1145424D2*
X1361961D1*
X1427535D2*
X1756654D1*
X1799498D2*
X1818838D1*
X1837307D2*
X2594160D1*
X2642948D2*
X4301476D1*
X423429Y1560671D2*
X554767D1*
X645132D2*
X1368974D1*
X1424575D2*
X1757046D1*
X1799106D2*
X2594544D1*
X2648254D2*
X4301476D1*
X423429Y1552928D2*
X553336D1*
X646562D2*
X897732D1*
X964675D2*
X1396656D1*
X1415740D2*
X1521048D1*
X1578856D2*
X1760744D1*
X1795407D2*
X2598243D1*
X2658135D2*
X4301476D1*
X423429Y1545185D2*
X554890D1*
X645009D2*
X892327D1*
X970073D2*
X1512644D1*
X1587261D2*
X1773048D1*
X1783104D2*
X2608016D1*
X2661672D2*
X3312987D1*
X3324419D2*
X4301476D1*
X423429Y1537442D2*
X560403D1*
X639495D2*
X890835D1*
X971565D2*
X1509822D1*
X1590083D2*
X2613530D1*
X2661956D2*
X3301253D1*
X3336154D2*
X4301476D1*
X423429Y1529699D2*
X892334D1*
X970073D2*
X1510106D1*
X1589798D2*
X1740252D1*
X1765387D2*
X1791433D1*
X1816568D2*
X1842614D1*
X1867750D2*
X1893795D1*
X1918931D2*
X2622026D1*
X2659127D2*
X3297639D1*
X3339768D2*
X4301476D1*
X423429Y1521957D2*
X897748D1*
X964660D2*
X1513659D1*
X1586246D2*
X1733462D1*
X1772177D2*
X1784643D1*
X1823358D2*
X1835824D1*
X1874539D2*
X1887006D1*
X1925721D2*
X2630454D1*
X2650699D2*
X3297300D1*
X3340098D2*
X4301476D1*
X423429Y1514214D2*
X1525001D1*
X1537402D2*
X1543755D1*
X1556149D2*
X1562502D1*
X1574896D2*
X1731278D1*
X1774369D2*
X1782460D1*
X1825550D2*
X1833641D1*
X1876731D2*
X1884822D1*
X1927912D2*
X3300068D1*
X3337338D2*
X4301476D1*
X423429Y1506471D2*
X1732109D1*
X1773538D2*
X1783290D1*
X1824719D2*
X1834471D1*
X1875900D2*
X1885652D1*
X1927082D2*
X3308304D1*
X3329095D2*
X4301476D1*
X423429Y1498728D2*
X1736430D1*
X1769209D2*
X1787611D1*
X1820390D2*
X1838793D1*
X1871571D2*
X1889974D1*
X1922752D2*
X4301476D1*
X423429Y1490986D2*
X2342430D1*
X2381983D2*
X4301476D1*
X423429Y1483243D2*
X2316478D1*
X2407927D2*
X4301476D1*
X423429Y1475500D2*
X2301768D1*
X2422645D2*
X4301476D1*
X423429Y1467757D2*
X2290872D1*
X2433541D2*
X4301476D1*
X423429Y1460014D2*
X2282198D1*
X2442214D2*
X4301476D1*
X423429Y1452272D2*
X2275070D1*
X2449335D2*
X4301476D1*
X423429Y1444529D2*
X2269141D1*
X2455263D2*
X4301476D1*
X423429Y1436786D2*
X1997173D1*
X2027729D2*
X2264189D1*
X2460223D2*
X4301476D1*
X423429Y1429043D2*
X1992128D1*
X2032773D2*
X2260060D1*
X2464352D2*
X2842460D1*
X2857446D2*
X2867459D1*
X2882444D2*
X2892457D1*
X2907443D2*
X4301476D1*
X423429Y1421301D2*
X1990844D1*
X2034057D2*
X2256669D1*
X2467743D2*
X2832126D1*
X2917777D2*
X3164080D1*
X3185817D2*
X4301476D1*
X423429Y1413558D2*
X1992544D1*
X2032350D2*
X2253939D1*
X2470473D2*
X2828773D1*
X2921130D2*
X3156168D1*
X3193737D2*
X3455511D1*
X3531889D2*
X4301476D1*
X423429Y1405815D2*
X1998341D1*
X2026560D2*
X2251817D1*
X2472588D2*
X2828635D1*
X2921268D2*
X3153515D1*
X3196382D2*
X3449129D1*
X3538271D2*
X4301476D1*
X423429Y1398072D2*
X2037096D1*
X2050305D2*
X2250279D1*
X2474133D2*
X2742890D1*
X2775760D2*
X2831641D1*
X2918262D2*
X3102265D1*
X3135135D2*
X3153945D1*
X3195951D2*
X3447122D1*
X3540278D2*
X4301476D1*
X423429Y1390329D2*
X2026070D1*
X2061324D2*
X2249295D1*
X2475118D2*
X2738599D1*
X2780059D2*
X2840623D1*
X2859276D2*
X2865621D1*
X2884274D2*
X2890627D1*
X2909273D2*
X3097974D1*
X3139434D2*
X3157690D1*
X3192207D2*
X3448129D1*
X3539279D2*
X4301476D1*
X423429Y1382587D2*
X2022579D1*
X2064815D2*
X2248849D1*
X2475564D2*
X2737784D1*
X2780866D2*
X2840723D1*
X2852932D2*
X3097159D1*
X3140241D2*
X3170432D1*
X3179473D2*
X3452712D1*
X3534688D2*
X4301476D1*
X423429Y1374844D2*
X2022340D1*
X2065061D2*
X2248933D1*
X2475471D2*
X2739998D1*
X2778659D2*
X2829304D1*
X2864351D2*
X3099373D1*
X3138034D2*
X4301476D1*
X423429Y1367101D2*
X2025208D1*
X2062186D2*
X2249564D1*
X2474849D2*
X2746827D1*
X2771823D2*
X2825736D1*
X2867911D2*
X3106209D1*
X3131198D2*
X4301476D1*
X423429Y1359358D2*
X2033774D1*
X2053619D2*
X2250725D1*
X2473680D2*
X2825444D1*
X2868211D2*
X4301476D1*
X423429Y1351615D2*
X2252455D1*
X2471957D2*
X2828250D1*
X2865397D2*
X4301476D1*
X423429Y1343873D2*
X2254770D1*
X2469635D2*
X2836624D1*
X2857030D2*
X4301476D1*
X423429Y1336130D2*
X2257715D1*
X2466690D2*
X4301476D1*
X423429Y1328387D2*
X2029507D1*
X2057895D2*
X2261344D1*
X2463068D2*
X4301476D1*
X423429Y1320644D2*
X2023763D1*
X2063639D2*
X2265735D1*
X2458678D2*
X4301476D1*
X423429Y1312902D2*
X2022094D1*
X2065307D2*
X2270995D1*
X2453418D2*
X4301476D1*
X423429Y1305159D2*
X2023401D1*
X2064000D2*
X2277292D1*
X2447120D2*
X4301476D1*
X423429Y1297416D2*
X2028499D1*
X2058902D2*
X2284874D1*
X2439531D2*
X4301476D1*
X423429Y1289673D2*
X2294194D1*
X2430219D2*
X4301476D1*
X423429Y1281930D2*
X2306089D1*
X2418316D2*
X4301476D1*
X423429Y1274188D2*
X709571D1*
X740327D2*
X2322922D1*
X2401491D2*
X4301476D1*
X423429Y1266445D2*
X704588D1*
X745310D2*
X4301476D1*
X560924Y1258702D2*
X703343D1*
X746556D2*
X4301476D1*
X560924Y1250959D2*
X705088D1*
X744810D2*
X4163973D1*
X560924Y1243217D2*
X705326D1*
X744572D2*
X4163973D1*
X560924Y1235474D2*
X703366D1*
X746533D2*
X4163973D1*
X560924Y1227731D2*
X704404D1*
X745495D2*
X4163973D1*
X560924Y1219988D2*
X706272D1*
X743626D2*
X4163973D1*
X560924Y1212245D2*
X703543D1*
X746356D2*
X4163973D1*
X560924Y1204503D2*
X703904D1*
X745995D2*
X4163973D1*
X560924Y1196760D2*
X707456D1*
X742442D2*
X4163973D1*
X560924Y1189017D2*
X703873D1*
X746025D2*
X4163973D1*
X560924Y1181274D2*
X703558D1*
X746341D2*
X4163973D1*
X560924Y1173531D2*
X706349D1*
X743549D2*
X4163973D1*
X560924Y1165789D2*
X704365D1*
X745533D2*
X4163973D1*
X560924Y1158046D2*
X703373D1*
X746525D2*
X4163973D1*
X560924Y1150303D2*
X705388D1*
X744510D2*
X848304D1*
X914094D2*
X1131784D1*
X1155620D2*
X1348558D1*
X1371325D2*
X1511859D1*
X1576680D2*
X2788550D1*
X2855354D2*
X3072668D1*
X3098749D2*
X3289580D1*
X3315100D2*
X3442054D1*
X3507844D2*
X4163973D1*
X560924Y1142560D2*
X704642D1*
X745256D2*
X842537D1*
X919869D2*
X1124572D1*
X1162833D2*
X1340992D1*
X1378892D2*
X1505777D1*
X1582763D2*
X2783159D1*
X2860629D2*
X3066186D1*
X3105231D2*
X3282913D1*
X3321759D2*
X3436287D1*
X3513619D2*
X4163973D1*
X560924Y1134818D2*
X703343D1*
X746556D2*
X840846D1*
X921561D2*
X1122196D1*
X1165209D2*
X1338470D1*
X1381414D2*
X1503924D1*
X1584616D2*
X2781675D1*
X2862044D2*
X3064140D1*
X3107277D2*
X3280783D1*
X3323897D2*
X3434596D1*
X3515311D2*
X4163973D1*
X560924Y1127075D2*
X705027D1*
X744872D2*
X842138D1*
X920261D2*
X1122857D1*
X1164540D2*
X1339016D1*
X1380868D2*
X1505070D1*
X1583478D2*
X2783182D1*
X2860475D2*
X3065094D1*
X3106315D2*
X3281660D1*
X3323012D2*
X3435888D1*
X3514011D2*
X4163973D1*
X423429Y1119332D2*
X710794D1*
X739112D2*
X847213D1*
X915194D2*
X1126940D1*
X1160457D2*
X1342914D1*
X1376969D2*
X1509883D1*
X1578664D2*
X2788611D1*
X2854931D2*
X3069623D1*
X3101794D2*
X3286066D1*
X3318606D2*
X3440955D1*
X3508944D2*
X4301476D1*
X423429Y1111589D2*
X1357809D1*
X1362066D2*
X4301476D1*
X423429Y1103846D2*
X4301476D1*
X423429Y1096104D2*
X4301476D1*
X423429Y1088361D2*
X4301476D1*
X423429Y1080618D2*
X4301476D1*
X423429Y1072875D2*
X4301476D1*
X423429Y1065133D2*
X4301476D1*
X423429Y1057390D2*
X2595967D1*
X2628938D2*
X4301476D1*
X423429Y1049647D2*
X2591707D1*
X2633198D2*
X3441309D1*
X3471096D2*
X4301476D1*
X423429Y1041904D2*
X2590915D1*
X2633990D2*
X3436018D1*
X3476386D2*
X4301476D1*
X423429Y1034161D2*
X2593153D1*
X2631752D2*
X3434588D1*
X3477817D2*
X4301476D1*
X423429Y1026419D2*
X458518D1*
X503876D2*
X2600042D1*
X2624862D2*
X3436149D1*
X3476256D2*
X4301476D1*
X423429Y1018676D2*
X450790D1*
X511612D2*
X3441670D1*
X3470727D2*
X4301476D1*
X423429Y1010933D2*
X446414D1*
X515987D2*
X1651016D1*
X1661387D2*
X1844775D1*
X1855123D2*
X1968714D1*
X1993688D2*
X4301476D1*
X423429Y1003190D2*
X444154D1*
X518240D2*
X1638843D1*
X1673560D2*
X1757338D1*
X1787402D2*
X1832595D1*
X1867311D2*
X1961878D1*
X2000524D2*
X2476111D1*
X2505691D2*
X4301476D1*
X423429Y995448D2*
X443623D1*
X518771D2*
X1406421D1*
X1430980D2*
X1475181D1*
X1499724D2*
X1635168D1*
X1677235D2*
X1752132D1*
X1792608D2*
X1828912D1*
X1870987D2*
X1959663D1*
X2002738D2*
X2470752D1*
X2511051D2*
X4301476D1*
X423429Y987705D2*
X444746D1*
X517648D2*
X1399447D1*
X1437954D2*
X1468199D1*
X1506706D2*
X1634783D1*
X1677620D2*
X1750756D1*
X1793985D2*
X1828535D1*
X1871364D2*
X1960471D1*
X2001931D2*
X2241936D1*
X2270462D2*
X2469283D1*
X2512512D2*
X3091984D1*
X3119926D2*
X3204188D1*
X3232715D2*
X3322614D1*
X3344435D2*
X4301476D1*
X423429Y979962D2*
X447691D1*
X514711D2*
X1397171D1*
X1440231D2*
X1465923D1*
X1508982D2*
X1637498D1*
X1674905D2*
X1702604D1*
X1709800D2*
X1752371D1*
X1792370D2*
X1831242D1*
X1868657D2*
X1964761D1*
X1997640D2*
X2236238D1*
X2276160D2*
X2470805D1*
X2510997D2*
X2531637D1*
X2555765D2*
X3086101D1*
X3125808D2*
X3198498D1*
X3238413D2*
X3314725D1*
X3352325D2*
X4301476D1*
X423429Y972219D2*
X453035D1*
X509367D2*
X1397925D1*
X1439477D2*
X1466676D1*
X1508229D2*
X1645579D1*
X1666824D2*
X1689056D1*
X1723341D2*
X1757984D1*
X1786756D2*
X1803459D1*
X1821436D2*
X1839323D1*
X1860583D2*
X1878463D1*
X1896439D2*
X1931581D1*
X1949566D2*
X2234593D1*
X2277814D2*
X2476265D1*
X2505537D2*
X2524516D1*
X2562878D2*
X3084348D1*
X3127561D2*
X3196845D1*
X3240066D2*
X3312087D1*
X3354962D2*
X3384706D1*
X3402691D2*
X4301476D1*
X423429Y964476D2*
X462847D1*
X499555D2*
X1402138D1*
X1435263D2*
X1470890D1*
X1504015D2*
X1685234D1*
X1727171D2*
X1794232D1*
X1830663D2*
X1869235D1*
X1905666D2*
X1922362D1*
X1958793D2*
X2235923D1*
X2276476D2*
X2522186D1*
X2565215D2*
X2610208D1*
X2614697D2*
X2913111D1*
X2936793D2*
X3085586D1*
X3126316D2*
X3198183D1*
X3238728D2*
X3312525D1*
X3354524D2*
X3375487D1*
X3411918D2*
X3725611D1*
X3749293D2*
X4301476D1*
X423429Y956734D2*
X1684749D1*
X1727655D2*
X1791156D1*
X1833739D2*
X1866159D1*
X1908742D2*
X1919286D1*
X1961869D2*
X2241059D1*
X2271339D2*
X2522886D1*
X2564515D2*
X2595421D1*
X2629484D2*
X2905845D1*
X2944060D2*
X3090561D1*
X3121348D2*
X3203312D1*
X3233591D2*
X3316286D1*
X3350764D2*
X3372411D1*
X3414994D2*
X3718345D1*
X3756560D2*
X4301476D1*
X423429Y948991D2*
X1687333D1*
X1725072D2*
X1791241D1*
X1833662D2*
X1866244D1*
X1908658D2*
X1919363D1*
X1961784D2*
X2527023D1*
X2560378D2*
X2591522D1*
X2633382D2*
X2903453D1*
X2946451D2*
X3329127D1*
X3337922D2*
X3372488D1*
X3414909D2*
X3715953D1*
X3758951D2*
X4301476D1*
X423429Y941248D2*
X1695069D1*
X1717328D2*
X1794517D1*
X1830379D2*
X1869520D1*
X1905382D2*
X1922646D1*
X1958508D2*
X2266642D1*
X2283258D2*
X2445530D1*
X2479370D2*
X2590984D1*
X2633921D2*
X2904099D1*
X2945805D2*
X3130300D1*
X3163871D2*
X3242982D1*
X3276983D2*
X3375771D1*
X3411633D2*
X3716599D1*
X3758305D2*
X4301476D1*
X848426Y933505D2*
X1804536D1*
X1820367D2*
X1879539D1*
X1895362D2*
X1932666D1*
X1948489D2*
X2256923D1*
X2292977D2*
X2441555D1*
X2483345D2*
X2593506D1*
X2631398D2*
X2908152D1*
X2941745D2*
X3126240D1*
X3167939D2*
X3239060D1*
X3280905D2*
X3385791D1*
X3401614D2*
X3720652D1*
X3754245D2*
X3876479D1*
X848426Y925762D2*
X2253709D1*
X2296191D2*
X2440963D1*
X2483937D2*
X2601080D1*
X2623824D2*
X3125587D1*
X3168592D2*
X3238507D1*
X3281458D2*
X3718499D1*
X3756406D2*
X3876479D1*
X848426Y918020D2*
X2253686D1*
X2296214D2*
X2443423D1*
X2481477D2*
X3127978D1*
X3166201D2*
X3241013D1*
X3278952D2*
X3715984D1*
X3758921D2*
X3876479D1*
X848426Y910277D2*
X2256831D1*
X2293069D2*
X2450844D1*
X2474057D2*
X3135222D1*
X3158950D2*
X3248549D1*
X3271424D2*
X3716522D1*
X3758382D2*
X3876479D1*
X848426Y902534D2*
X2266312D1*
X2283588D2*
X3720429D1*
X3754476D2*
X3770303D1*
X3792101D2*
X3876479D1*
X848426Y894791D2*
X3718660D1*
X3756245D2*
X3762405D1*
X3799998D2*
X3876479D1*
X848426Y887049D2*
X3716015D1*
X3802635D2*
X3876479D1*
X848426Y879306D2*
X3716453D1*
X3802205D2*
X3876479D1*
X848426Y871563D2*
X3720206D1*
X3754699D2*
X3760468D1*
X3801935D2*
X3876479D1*
X848426Y863820D2*
X1039157D1*
X1066830D2*
X3733016D1*
X3741881D2*
X3759660D1*
X3802743D2*
X3876479D1*
X848426Y856077D2*
X1033190D1*
X1072797D2*
X3761752D1*
X3800644D2*
X3840092D1*
X3860299D2*
X3876479D1*
X848426Y848335D2*
X1031391D1*
X1074596D2*
X3759645D1*
X3802758D2*
X3831657D1*
X3868742D2*
X3876479D1*
X848426Y840592D2*
X1032590D1*
X1073397D2*
X3760545D1*
X3801859D2*
X3828819D1*
X3871571D2*
X3876479D1*
X848426Y832849D2*
X1037488D1*
X1068499D2*
X3760145D1*
X3802258D2*
X3829096D1*
X3871294D2*
X3876479D1*
X848426Y825106D2*
X3759799D1*
X3802604D2*
X3832633D1*
X3867757D2*
X3876479D1*
X848426Y817364D2*
X3761198D1*
X3801205D2*
X3843906D1*
X3856485D2*
X3876479D1*
X848426Y809621D2*
X3759591D1*
X3802812D2*
X3876479D1*
X848426Y801878D2*
X3760967D1*
X3801436D2*
X3876479D1*
X848426Y794135D2*
X3766166D1*
X3796238D2*
X3876479D1*
X848426Y786392D2*
X3876479D1*
X848426Y778650D2*
X3876479D1*
X848426Y770907D2*
X3876479D1*
X848426Y763164D2*
X3876479D1*
X848426Y755421D2*
X3876479D1*
X848426Y747678D2*
X3876479D1*
X848426Y739936D2*
X3876479D1*
X848426Y732193D2*
X3876479D1*
X517803Y2602271D2*
X517178Y2598403D1*
X516145Y2594623D1*
X514717Y2590975D1*
X512908Y2587499D1*
X510741Y2584234D1*
X508238Y2581219D1*
X505430Y2578487D1*
X502347Y2576069D1*
X499024Y2573992D1*
X495500Y2572280D1*
X491813Y2570952D1*
X488006Y2570024D1*
X484122Y2569506D1*
X480205Y2569403D1*
X476300Y2569718D1*
X472450Y2570445D1*
X468699Y2571578D1*
X465089Y2573104D1*
X461662Y2575004D1*
X458457Y2577257D1*
X455510Y2579839D1*
X452853Y2582719D1*
X450518Y2585866D1*
X448530Y2589242D1*
X446913Y2592811D1*
X445684Y2596532D1*
X444857Y2600362D1*
X444442Y2604258D1*
X444444Y2608177D1*
X444862Y2612073D1*
X445692Y2615902D1*
X446925Y2619622D1*
X448546Y2623189D1*
X450536Y2626564D1*
X452874Y2629708D1*
X455534Y2632586D1*
X458484Y2635165D1*
X461691Y2637416D1*
X465120Y2639313D1*
X468730Y2640835D1*
X472482Y2641964D1*
X476333Y2642688D1*
X480239Y2642999D1*
X484156Y2642893D1*
X488039Y2642371D1*
X491845Y2641440D1*
X495531Y2640109D1*
X499054Y2638394D1*
X502374Y2636314D1*
X505455Y2633893D1*
X508261Y2631158D1*
X510761Y2628140D1*
X512925Y2624874D1*
X514730Y2621396D1*
X516156Y2617746D1*
X517185Y2613966D1*
X517806Y2610097D1*
X518013Y2606201D1*
X517803Y2602271D1*
X4270926D2*
X4270301Y2598403D1*
X4269268Y2594623D1*
X4267840Y2590975D1*
X4266032Y2587499D1*
X4263864Y2584234D1*
X4261362Y2581219D1*
X4258553Y2578487D1*
X4255470Y2576069D1*
X4252148Y2573992D1*
X4248623Y2572280D1*
X4244936Y2570952D1*
X4241130Y2570024D1*
X4237246Y2569506D1*
X4233329Y2569403D1*
X4229423Y2569718D1*
X4225573Y2570445D1*
X4221822Y2571578D1*
X4218213Y2573104D1*
X4214786Y2575004D1*
X4211581Y2577257D1*
X4208633Y2579839D1*
X4205976Y2582719D1*
X4203641Y2585866D1*
X4201653Y2589242D1*
X4200036Y2592811D1*
X4198807Y2596532D1*
X4197980Y2600362D1*
X4197566Y2604258D1*
X4197568Y2608177D1*
X4197986Y2612073D1*
X4198816Y2615902D1*
X4200048Y2619622D1*
X4201669Y2623189D1*
X4203660Y2626564D1*
X4205998Y2629708D1*
X4208657Y2632586D1*
X4211607Y2635165D1*
X4214814Y2637416D1*
X4218243Y2639313D1*
X4221854Y2640835D1*
X4225606Y2641964D1*
X4229456Y2642688D1*
X4233362Y2642999D1*
X4237279Y2642893D1*
X4241163Y2642371D1*
X4244969Y2641440D1*
X4248654Y2640109D1*
X4252177Y2638394D1*
X4255498Y2636314D1*
X4258579Y2633893D1*
X4261385Y2631158D1*
X4263884Y2628140D1*
X4266049Y2624874D1*
X4267854Y2621396D1*
X4269279Y2617746D1*
X4270308Y2613966D1*
X4270930Y2610097D1*
X4271136Y2606201D1*
X4270926Y2602271D1*
X517800Y992896D2*
X517175Y989028D1*
X516142Y985248D1*
X514714Y981599D1*
X512906Y978123D1*
X510738Y974859D1*
X508236Y971844D1*
X505427Y969111D1*
X502344Y966693D1*
X499022Y964616D1*
X495497Y962904D1*
X491810Y961577D1*
X488004Y960649D1*
X484120Y960130D1*
X480203Y960028D1*
X476297Y960342D1*
X472447Y961070D1*
X468696Y962203D1*
X465087Y963728D1*
X461660Y965628D1*
X458455Y967882D1*
X455507Y970464D1*
X452850Y973344D1*
X450515Y976490D1*
X448527Y979867D1*
X446910Y983436D1*
X445681Y987157D1*
X444854Y990987D1*
X444440Y994883D1*
X444442Y998801D1*
X444860Y1002697D1*
X445690Y1006527D1*
X446922Y1010246D1*
X448543Y1013814D1*
X450534Y1017189D1*
X452872Y1020333D1*
X455531Y1023211D1*
X458481Y1025790D1*
X461688Y1028040D1*
X465117Y1029937D1*
X468728Y1031459D1*
X472480Y1032589D1*
X476330Y1033313D1*
X480236Y1033624D1*
X484153Y1033518D1*
X488037Y1032996D1*
X491843Y1032064D1*
X495528Y1030733D1*
X499051Y1029018D1*
X502372Y1026938D1*
X505453Y1024517D1*
X508259Y1021782D1*
X510758Y1018765D1*
X512923Y1015499D1*
X514728Y1012021D1*
X516153Y1008371D1*
X517182Y1004590D1*
X517804Y1000721D1*
X518010Y996825D1*
X517800Y992896D1*
X2474734Y1376064D2*
X2474528Y1372139D1*
X2474186Y1368224D1*
X2473706Y1364323D1*
X2473091Y1360441D1*
X2472341Y1356583D1*
X2471457Y1352754D1*
X2470439Y1348957D1*
X2469290Y1345199D1*
X2468010Y1341483D1*
X2466602Y1337814D1*
X2465066Y1334196D1*
X2463405Y1330634D1*
X2461620Y1327132D1*
X2459715Y1323695D1*
X2457690Y1320326D1*
X2455549Y1317030D1*
X2453295Y1313811D1*
X2450929Y1310672D1*
X2448456Y1307618D1*
X2445877Y1304652D1*
X2443197Y1301778D1*
X2440417Y1298999D1*
X2437543Y1296319D1*
X2434577Y1293740D1*
X2431522Y1291267D1*
X2428383Y1288902D1*
X2425164Y1286648D1*
X2421867Y1284508D1*
X2418498Y1282484D1*
X2415061Y1280578D1*
X2411559Y1278794D1*
X2407997Y1277134D1*
X2404379Y1275598D1*
X2400709Y1274190D1*
X2396993Y1272911D1*
X2393235Y1271762D1*
X2389438Y1270745D1*
X2385609Y1269861D1*
X2381751Y1269111D1*
X2377869Y1268496D1*
X2373968Y1268018D1*
X2370053Y1267675D1*
X2366128Y1267470D1*
X2362198Y1267402D1*
X2358269Y1267470D1*
X2354344Y1267676D1*
X2350428Y1268019D1*
X2346528Y1268498D1*
X2342646Y1269113D1*
X2338788Y1269863D1*
X2334958Y1270748D1*
X2331162Y1271765D1*
X2327404Y1272915D1*
X2323688Y1274194D1*
X2320019Y1275603D1*
X2316401Y1277139D1*
X2312839Y1278800D1*
X2309337Y1280585D1*
X2305900Y1282490D1*
X2302531Y1284515D1*
X2299235Y1286655D1*
X2296016Y1288910D1*
X2292877Y1291275D1*
X2289823Y1293749D1*
X2286857Y1296327D1*
X2283983Y1299008D1*
X2281204Y1301787D1*
X2278523Y1304662D1*
X2275945Y1307628D1*
X2273472Y1310683D1*
X2271107Y1313822D1*
X2268853Y1317041D1*
X2266712Y1320338D1*
X2264688Y1323706D1*
X2262783Y1327144D1*
X2260999Y1330646D1*
X2259338Y1334208D1*
X2257803Y1337826D1*
X2256395Y1341495D1*
X2255115Y1345211D1*
X2253966Y1348970D1*
X2252949Y1352766D1*
X2252065Y1356596D1*
X2251316Y1360454D1*
X2250701Y1364336D1*
X2250222Y1368237D1*
X2249880Y1372152D1*
X2249675Y1376077D1*
X2249606Y1380007D1*
X2249675Y1383936D1*
X2249881Y1387861D1*
X2250224Y1391776D1*
X2250703Y1395677D1*
X2251318Y1399559D1*
X2252068Y1403417D1*
X2252953Y1407246D1*
X2253970Y1411043D1*
X2255119Y1414801D1*
X2256399Y1418517D1*
X2257808Y1422186D1*
X2259344Y1425804D1*
X2261005Y1429366D1*
X2262789Y1432868D1*
X2264695Y1436305D1*
X2266719Y1439674D1*
X2268860Y1442970D1*
X2271115Y1446189D1*
X2273480Y1449328D1*
X2275954Y1452382D1*
X2278532Y1455348D1*
X2281213Y1458222D1*
X2283992Y1461001D1*
X2286867Y1463681D1*
X2289833Y1466260D1*
X2292887Y1468733D1*
X2296026Y1471098D1*
X2299246Y1473352D1*
X2302542Y1475492D1*
X2305911Y1477516D1*
X2309349Y1479422D1*
X2312851Y1481206D1*
X2316413Y1482866D1*
X2320031Y1484402D1*
X2323700Y1485810D1*
X2327416Y1487089D1*
X2331175Y1488238D1*
X2334971Y1489255D1*
X2338801Y1490139D1*
X2342659Y1490889D1*
X2346541Y1491504D1*
X2350442Y1491982D1*
X2354357Y1492325D1*
X2358282Y1492530D1*
X2362211Y1492598D1*
X2366141Y1492530D1*
X2370066Y1492324D1*
X2373981Y1491981D1*
X2377882Y1491502D1*
X2381764Y1490887D1*
X2385622Y1490137D1*
X2389451Y1489252D1*
X2393247Y1488235D1*
X2397006Y1487085D1*
X2400722Y1485806D1*
X2404391Y1484397D1*
X2408009Y1482861D1*
X2411571Y1481200D1*
X2415072Y1479415D1*
X2418510Y1477510D1*
X2421878Y1475485D1*
X2425174Y1473345D1*
X2428394Y1471090D1*
X2431532Y1468725D1*
X2434587Y1466251D1*
X2437553Y1463673D1*
X2440427Y1460992D1*
X2443206Y1458213D1*
X2445886Y1455338D1*
X2448464Y1452372D1*
X2450938Y1449317D1*
X2453303Y1446178D1*
X2455557Y1442959D1*
X2457697Y1439662D1*
X2459721Y1436294D1*
X2461626Y1432856D1*
X2463410Y1429354D1*
X2465071Y1425792D1*
X2466607Y1422174D1*
X2468015Y1418505D1*
X2469294Y1414789D1*
X2470443Y1411030D1*
X2471460Y1407234D1*
X2472344Y1403404D1*
X2473094Y1399546D1*
X2473708Y1395664D1*
X2474187Y1391763D1*
X2474529Y1387848D1*
X2474735Y1383923D1*
X2474803Y1380000D1*
X2474734Y1376064D1*
X1951657Y1624161D2*
X1950546Y1620361D1*
X1948737Y1616839D1*
X1946293Y1613723D1*
X1943305Y1611126D1*
X1939878Y1609142D1*
X1936138Y1607842D1*
X1932220Y1607273D1*
X1928265Y1607456D1*
X1924416Y1608384D1*
X1920812Y1610024D1*
X1917584Y1612316D1*
X1914847Y1615178D1*
X1912702Y1618506D1*
X1911226Y1622180D1*
X1910471Y1626067D1*
X1910466Y1630026D1*
X1911210Y1633915D1*
X1912676Y1637593D1*
X1914812Y1640927D1*
X1917541Y1643796D1*
X1920763Y1646097D1*
X1924362Y1647747D1*
X1928209Y1648686D1*
X1932163Y1648879D1*
X1936083Y1648321D1*
X1939827Y1647031D1*
X1943258Y1645056D1*
X1946254Y1642467D1*
X1948706Y1639358D1*
X1950525Y1635842D1*
X1951646Y1632044D1*
X1952028Y1628075D1*
X1951657Y1624161D1*
X1926821Y1508611D2*
X1925710Y1504811D1*
X1923901Y1501289D1*
X1921457Y1498173D1*
X1918469Y1495576D1*
X1915042Y1493592D1*
X1911303Y1492292D1*
X1907384Y1491723D1*
X1903429Y1491906D1*
X1899580Y1492834D1*
X1895976Y1494474D1*
X1892748Y1496767D1*
X1890011Y1499628D1*
X1887866Y1502956D1*
X1886390Y1506630D1*
X1885635Y1510517D1*
X1885630Y1514476D1*
X1886374Y1518365D1*
X1887840Y1522043D1*
X1889976Y1525377D1*
X1892705Y1528246D1*
X1895927Y1530547D1*
X1899526Y1532197D1*
X1903373Y1533136D1*
X1907327Y1533329D1*
X1911247Y1532771D1*
X1914991Y1531481D1*
X1918422Y1529506D1*
X1921418Y1526918D1*
X1923870Y1523809D1*
X1925689Y1520292D1*
X1926810Y1516494D1*
X1927192Y1512525D1*
X1926821Y1508611D1*
X1901657Y1605412D2*
X1900546Y1601611D1*
X1898737Y1598090D1*
X1896293Y1594974D1*
X1893305Y1592377D1*
X1889878Y1590393D1*
X1886138Y1589092D1*
X1882220Y1588524D1*
X1878265Y1588707D1*
X1874416Y1589635D1*
X1870812Y1591275D1*
X1867584Y1593567D1*
X1864847Y1596429D1*
X1862702Y1599757D1*
X1861226Y1603431D1*
X1860471Y1607317D1*
X1860466Y1611277D1*
X1861210Y1615166D1*
X1862676Y1618844D1*
X1864812Y1622177D1*
X1867541Y1625047D1*
X1870763Y1627348D1*
X1874362Y1628997D1*
X1878209Y1629936D1*
X1882163Y1630130D1*
X1886083Y1629572D1*
X1889827Y1628282D1*
X1893258Y1626307D1*
X1896254Y1623718D1*
X1898706Y1620609D1*
X1900525Y1617092D1*
X1901646Y1613295D1*
X1902028Y1609325D1*
X1901657Y1605412D1*
X1875639Y1508611D2*
X1874529Y1504811D1*
X1872720Y1501289D1*
X1870276Y1498173D1*
X1867288Y1495576D1*
X1863861Y1493592D1*
X1860121Y1492292D1*
X1856203Y1491723D1*
X1852248Y1491906D1*
X1848399Y1492834D1*
X1844795Y1494474D1*
X1841567Y1496767D1*
X1838830Y1499628D1*
X1836685Y1502956D1*
X1835209Y1506630D1*
X1834454Y1510517D1*
X1834449Y1514476D1*
X1835193Y1518365D1*
X1836659Y1522043D1*
X1838795Y1525377D1*
X1841524Y1528246D1*
X1844746Y1530547D1*
X1848345Y1532197D1*
X1852192Y1533136D1*
X1856146Y1533329D1*
X1860066Y1532771D1*
X1863810Y1531481D1*
X1867241Y1529506D1*
X1870237Y1526918D1*
X1872689Y1523809D1*
X1874508Y1520292D1*
X1875629Y1516494D1*
X1876010Y1512525D1*
X1875639Y1508611D1*
X1848532Y1583537D2*
X1847422Y1579736D1*
X1845612Y1576214D1*
X1843169Y1573099D1*
X1840180Y1570502D1*
X1836754Y1568517D1*
X1833014Y1567217D1*
X1829095Y1566648D1*
X1825140Y1566831D1*
X1821291Y1567760D1*
X1817687Y1569399D1*
X1814459Y1571692D1*
X1811723Y1574554D1*
X1809578Y1577882D1*
X1808101Y1581555D1*
X1807346Y1585442D1*
X1807341Y1589402D1*
X1808085Y1593290D1*
X1809552Y1596968D1*
X1811688Y1600302D1*
X1814416Y1603171D1*
X1817638Y1605472D1*
X1821238Y1607122D1*
X1825084Y1608061D1*
X1829039Y1608255D1*
X1832959Y1607697D1*
X1836702Y1606407D1*
X1840134Y1604432D1*
X1843130Y1601843D1*
X1845581Y1598734D1*
X1847400Y1595217D1*
X1848521Y1591420D1*
X1848903Y1587450D1*
X1848532Y1583537D1*
X1824458Y1508611D2*
X1823348Y1504811D1*
X1821539Y1501289D1*
X1819095Y1498173D1*
X1816106Y1495576D1*
X1812680Y1493592D1*
X1808940Y1492292D1*
X1805022Y1491723D1*
X1801067Y1491906D1*
X1797218Y1492834D1*
X1793614Y1494474D1*
X1790385Y1496767D1*
X1787649Y1499628D1*
X1785504Y1502956D1*
X1784028Y1506630D1*
X1783273Y1510517D1*
X1783267Y1514476D1*
X1784012Y1518365D1*
X1785478Y1522043D1*
X1787614Y1525377D1*
X1790343Y1528246D1*
X1793565Y1530547D1*
X1797164Y1532197D1*
X1801011Y1533136D1*
X1804965Y1533329D1*
X1808885Y1532771D1*
X1812629Y1531481D1*
X1816060Y1529506D1*
X1819056Y1526918D1*
X1821508Y1523809D1*
X1823327Y1520292D1*
X1824448Y1516494D1*
X1824829Y1512525D1*
X1824458Y1508611D1*
X1798532Y1561663D2*
X1797422Y1557862D1*
X1795612Y1554340D1*
X1793169Y1551225D1*
X1790180Y1548628D1*
X1786754Y1546643D1*
X1783014Y1545343D1*
X1779095Y1544774D1*
X1775140Y1544957D1*
X1771291Y1545886D1*
X1767687Y1547525D1*
X1764459Y1549818D1*
X1761723Y1552680D1*
X1759578Y1556008D1*
X1758101Y1559681D1*
X1757346Y1563568D1*
X1757341Y1567528D1*
X1758085Y1571416D1*
X1759552Y1575094D1*
X1761688Y1578428D1*
X1764416Y1581297D1*
X1767638Y1583598D1*
X1771238Y1585248D1*
X1775084Y1586187D1*
X1779039Y1586381D1*
X1782959Y1585822D1*
X1786702Y1584533D1*
X1790134Y1582558D1*
X1793130Y1579969D1*
X1795581Y1576860D1*
X1797400Y1573343D1*
X1798521Y1569545D1*
X1798903Y1565576D1*
X1798532Y1561663D1*
X1773277Y1508611D2*
X1772167Y1504811D1*
X1770357Y1501289D1*
X1767914Y1498173D1*
X1764925Y1495576D1*
X1761499Y1493592D1*
X1757759Y1492292D1*
X1753841Y1491723D1*
X1749886Y1491906D1*
X1746037Y1492834D1*
X1742433Y1494474D1*
X1739204Y1496767D1*
X1736468Y1499628D1*
X1734323Y1502956D1*
X1732846Y1506630D1*
X1732092Y1510517D1*
X1732086Y1514476D1*
X1732830Y1518365D1*
X1734297Y1522043D1*
X1736433Y1525377D1*
X1739161Y1528246D1*
X1742384Y1530547D1*
X1745983Y1532197D1*
X1749829Y1533136D1*
X1753784Y1533329D1*
X1757704Y1532771D1*
X1761447Y1531481D1*
X1764879Y1529506D1*
X1767875Y1526918D1*
X1770327Y1523809D1*
X1772146Y1520292D1*
X1773267Y1516494D1*
X1773648Y1512525D1*
X1773277Y1508611D1*
X970407Y1533537D2*
X969297Y1529736D1*
X967487Y1526214D1*
X965044Y1523099D1*
X962055Y1520502D1*
X958629Y1518517D1*
X954889Y1517217D1*
X950971Y1516648D1*
X947016Y1516831D1*
X943167Y1517760D1*
X940664Y1518898D1*
X939878Y1518517D1*
X936138Y1517217D1*
X932220Y1516648D1*
X928265Y1516831D1*
X924416Y1517760D1*
X921914Y1518898D1*
X921129Y1518517D1*
X917389Y1517217D1*
X913471Y1516648D1*
X909516Y1516831D1*
X905667Y1517760D1*
X902063Y1519399D1*
X898834Y1521692D1*
X896098Y1524554D1*
X893953Y1527882D1*
X892476Y1531555D1*
X891722Y1535442D1*
X891716Y1539402D1*
X892460Y1543290D1*
X893927Y1546968D1*
X896063Y1550302D1*
X898791Y1553171D1*
X902013Y1555472D1*
X905613Y1557122D1*
X909459Y1558061D1*
X913414Y1558255D1*
X917334Y1557697D1*
X921077Y1556407D1*
X921758Y1556015D1*
X924362Y1557122D1*
X928209Y1558061D1*
X932163Y1558255D1*
X936083Y1557697D1*
X939827Y1556407D1*
X940507Y1556015D1*
X943113Y1557122D1*
X946959Y1558061D1*
X950914Y1558255D1*
X954834Y1557697D1*
X958577Y1556407D1*
X962009Y1554432D1*
X965005Y1551843D1*
X967457Y1548734D1*
X969276Y1545217D1*
X970396Y1541420D1*
X970778Y1537450D1*
X970407Y1533537D1*
X1589157Y1530412D2*
X1588046Y1526611D1*
X1586237Y1523090D1*
X1583793Y1519974D1*
X1580805Y1517377D1*
X1577378Y1515393D1*
X1573638Y1514092D1*
X1569720Y1513524D1*
X1565765Y1513707D1*
X1561916Y1514635D1*
X1559414Y1515774D1*
X1558628Y1515393D1*
X1554888Y1514092D1*
X1550969Y1513524D1*
X1547014Y1513707D1*
X1543165Y1514635D1*
X1540663Y1515774D1*
X1539878Y1515393D1*
X1536138Y1514092D1*
X1532220Y1513524D1*
X1528265Y1513707D1*
X1524416Y1514635D1*
X1520812Y1516275D1*
X1517584Y1518567D1*
X1514847Y1521429D1*
X1512702Y1524757D1*
X1511226Y1528431D1*
X1510471Y1532317D1*
X1510466Y1536277D1*
X1511210Y1540166D1*
X1512676Y1543844D1*
X1514812Y1547177D1*
X1517541Y1550047D1*
X1520763Y1552348D1*
X1524362Y1553997D1*
X1528209Y1554936D1*
X1532163Y1555130D1*
X1536083Y1554572D1*
X1539827Y1553282D1*
X1540507Y1552890D1*
X1543112Y1553997D1*
X1546958Y1554936D1*
X1550913Y1555130D1*
X1554833Y1554572D1*
X1558576Y1553282D1*
X1559256Y1552890D1*
X1561862Y1553997D1*
X1565709Y1554936D1*
X1569663Y1555130D1*
X1573583Y1554572D1*
X1577327Y1553282D1*
X1580758Y1551307D1*
X1583754Y1548718D1*
X1586206Y1545609D1*
X1588025Y1542092D1*
X1589146Y1538295D1*
X1589528Y1534325D1*
X1589157Y1530412D1*
X1110462Y1582414D2*
X1109516Y1582457D1*
X1105667Y1583386D1*
X1102063Y1585025D1*
X1098834Y1587318D1*
X1096098Y1590180D1*
X1093953Y1593508D1*
X1092476Y1597181D1*
X1091722Y1601068D1*
X1091716Y1605028D1*
X1092460Y1608916D1*
X1093927Y1612594D1*
X1096063Y1615928D1*
X1098791Y1618797D1*
X1102013Y1621098D1*
X1105613Y1622748D1*
X1109459Y1623687D1*
X1113414Y1623881D1*
X1117334Y1623322D1*
X1121077Y1622033D1*
X1124509Y1620058D1*
X1127505Y1617469D1*
X1129957Y1614360D1*
X1131776Y1610843D1*
X1132896Y1607045D1*
X1133088Y1605063D1*
X1136083Y1604572D1*
X1139827Y1603282D1*
X1143258Y1601307D1*
X1146254Y1598718D1*
X1148706Y1595609D1*
X1150525Y1592092D1*
X1151646Y1588295D1*
X1152028Y1584325D1*
X1151657Y1580412D1*
X1150546Y1576611D1*
X1148737Y1573090D1*
X1146293Y1569974D1*
X1143305Y1567377D1*
X1139878Y1565393D1*
X1136138Y1564092D1*
X1132220Y1563524D1*
X1128265Y1563707D1*
X1124416Y1564635D1*
X1120812Y1566275D1*
X1117584Y1568567D1*
X1114847Y1571429D1*
X1112702Y1574757D1*
X1111226Y1578431D1*
X1110471Y1582345D1*
X2146761Y1772009D2*
X2146129Y1771643D1*
X2142389Y1770343D1*
X2138471Y1769774D1*
X2134516Y1769957D1*
X2130667Y1770886D1*
X2128164Y1772024D1*
X2127378Y1771643D1*
X2123638Y1770343D1*
X2119720Y1769774D1*
X2115765Y1769957D1*
X2111916Y1770886D1*
X2108312Y1772525D1*
X2105084Y1774818D1*
X2102347Y1777680D1*
X2100202Y1781008D1*
X2098726Y1784681D1*
X2097971Y1788568D1*
X2097966Y1792528D1*
X2098710Y1796416D1*
X2100176Y1800094D1*
X2102312Y1803428D1*
X2105041Y1806297D1*
X2108263Y1808598D1*
X2111862Y1810248D1*
X2115709Y1811187D1*
X2119663Y1811381D1*
X2123583Y1810822D1*
X2127327Y1809533D1*
X2128007Y1809141D1*
X2130613Y1810248D1*
X2134459Y1811187D1*
X2138414Y1811381D1*
X2142334Y1810822D1*
X2146077Y1809533D1*
X2146758Y1809141D1*
X2149362Y1810248D1*
X2153209Y1811187D1*
X2157163Y1811381D1*
X2161083Y1810822D1*
X2164827Y1809533D1*
X2168258Y1807558D1*
X2171254Y1804969D1*
X2173706Y1801860D1*
X2175525Y1798343D1*
X2176646Y1794545D1*
X2177028Y1790576D1*
X2176657Y1786663D1*
X2175546Y1782862D1*
X2173737Y1779340D1*
X2171293Y1776225D1*
X2168305Y1773628D1*
X2164878Y1771643D1*
X2161138Y1770343D1*
X2157220Y1769774D1*
X2153265Y1769957D1*
X2149416Y1770886D1*
X2146914Y1772024D1*
X2867281Y1358537D2*
X2866171Y1354736D1*
X2864361Y1351214D1*
X2861918Y1348099D1*
X2858929Y1345502D1*
X2855503Y1343517D1*
X2851763Y1342217D1*
X2847845Y1341648D1*
X2843890Y1341831D1*
X2840041Y1342760D1*
X2836437Y1344399D1*
X2833208Y1346692D1*
X2830472Y1349554D1*
X2828327Y1352882D1*
X2826850Y1356555D1*
X2826096Y1360442D1*
X2826090Y1364402D1*
X2826834Y1368290D1*
X2828301Y1371968D1*
X2830437Y1375302D1*
X2833165Y1378171D1*
X2836387Y1380472D1*
X2839987Y1382122D1*
X2843833Y1383061D1*
X2847788Y1383255D1*
X2851708Y1382697D1*
X2855451Y1381407D1*
X2858883Y1379432D1*
X2861879Y1376843D1*
X2864331Y1373734D1*
X2866150Y1370217D1*
X2867270Y1366420D1*
X2867652Y1362450D1*
X2867281Y1358537D1*
X2224103Y2396028D2*
X2220812Y2397525D1*
X2217584Y2399818D1*
X2214847Y2402680D1*
X2212702Y2406008D1*
X2211226Y2409681D1*
X2210471Y2413568D1*
X2210466Y2417528D1*
X2211210Y2421416D1*
X2212676Y2425094D1*
X2214812Y2428428D1*
X2217541Y2431297D1*
X2220763Y2433598D1*
X2224362Y2435248D1*
X2228209Y2436187D1*
X2232163Y2436381D1*
X2236083Y2435822D1*
X2239827Y2434533D1*
X2243258Y2432558D1*
X2246254Y2429969D1*
X2248706Y2426860D1*
X2250525Y2423343D1*
X2250719Y2422687D1*
X2252327Y2422031D1*
X2255758Y2420056D1*
X2258754Y2417467D1*
X2261206Y2414358D1*
X2263025Y2410842D1*
X2263219Y2410185D1*
X2264827Y2409533D1*
X2268258Y2407558D1*
X2271254Y2404969D1*
X2273706Y2401860D1*
X2275525Y2398343D1*
X2276646Y2394545D1*
X2277028Y2390576D1*
X2276657Y2386663D1*
X2275546Y2382862D1*
X2273737Y2379340D1*
X2271293Y2376225D1*
X2268305Y2373628D1*
X2264878Y2371643D1*
X2261138Y2370343D1*
X2257220Y2369774D1*
X2253265Y2369957D1*
X2249416Y2370886D1*
X2245812Y2372525D1*
X2242584Y2374818D1*
X2239847Y2377680D1*
X2237702Y2381008D1*
X2236720Y2383451D1*
X2233312Y2385024D1*
X2230084Y2387316D1*
X2227347Y2390178D1*
X2225202Y2393506D1*
X2224217Y2395957D1*
X2264157Y1989787D2*
X2263046Y1985987D1*
X2261237Y1982465D1*
X2258793Y1979349D1*
X2255805Y1976752D1*
X2252378Y1974768D1*
X2248638Y1973468D1*
X2244720Y1972899D1*
X2240765Y1973082D1*
X2236916Y1974010D1*
X2233312Y1975650D1*
X2230084Y1977942D1*
X2227347Y1980804D1*
X2225202Y1984132D1*
X2223726Y1987806D1*
X2222971Y1991693D1*
X2222966Y1995652D1*
X2223710Y1999541D1*
X2225176Y2003219D1*
X2227312Y2006553D1*
X2230041Y2009422D1*
X2233263Y2011723D1*
X2236862Y2013373D1*
X2240709Y2014312D1*
X2244663Y2014505D1*
X2248583Y2013947D1*
X2252327Y2012657D1*
X2255758Y2010682D1*
X2258754Y2008093D1*
X2261206Y2004984D1*
X2263025Y2001468D1*
X2264146Y1997670D1*
X2264528Y1993701D1*
X2264157Y1989787D1*
X2903011Y2284509D2*
X2902378Y2284143D1*
X2898638Y2282843D1*
X2894720Y2282274D1*
X2890765Y2282457D1*
X2886916Y2283386D1*
X2883312Y2285025D1*
X2880084Y2287318D1*
X2877347Y2290180D1*
X2875202Y2293508D1*
X2873726Y2297181D1*
X2872971Y2301068D1*
X2872966Y2305028D1*
X2873710Y2308916D1*
X2875176Y2312594D1*
X2877312Y2315928D1*
X2880041Y2318797D1*
X2883263Y2321098D1*
X2886862Y2322748D1*
X2890709Y2323687D1*
X2894663Y2323881D1*
X2898583Y2323322D1*
X2902327Y2322033D1*
X2903007Y2321641D1*
X2905613Y2322748D1*
X2909459Y2323687D1*
X2913414Y2323881D1*
X2917334Y2323322D1*
X2921077Y2322033D1*
X2921758Y2321641D1*
X2924362Y2322748D1*
X2928209Y2323687D1*
X2932163Y2323881D1*
X2936083Y2323322D1*
X2939827Y2322033D1*
X2943258Y2320058D1*
X2946254Y2317469D1*
X2948706Y2314360D1*
X2950525Y2310843D1*
X2951646Y2307045D1*
X2952028Y2303076D1*
X2951657Y2299163D1*
X2950546Y2295362D1*
X2948737Y2291840D1*
X2946293Y2288725D1*
X2943305Y2286128D1*
X2939878Y2284143D1*
X2936138Y2282843D1*
X2932220Y2282274D1*
X2928265Y2282457D1*
X2924416Y2283386D1*
X2921914Y2284524D1*
X2921129Y2284143D1*
X2917389Y2282843D1*
X2913471Y2282274D1*
X2909516Y2282457D1*
X2905667Y2283386D1*
X2903164Y2284524D1*
X2326657Y1964787D2*
X2325546Y1960987D1*
X2323737Y1957465D1*
X2321293Y1954349D1*
X2318305Y1951752D1*
X2314878Y1949768D1*
X2311138Y1948468D1*
X2307220Y1947899D1*
X2303265Y1948082D1*
X2299416Y1949010D1*
X2295812Y1950650D1*
X2292584Y1952942D1*
X2289847Y1955804D1*
X2287702Y1959132D1*
X2286226Y1962806D1*
X2285471Y1966693D1*
X2285466Y1970652D1*
X2286210Y1974541D1*
X2287676Y1978219D1*
X2289812Y1981553D1*
X2292541Y1984422D1*
X2295763Y1986723D1*
X2299362Y1988373D1*
X2303209Y1989312D1*
X2307163Y1989505D1*
X2311083Y1988947D1*
X2314827Y1987657D1*
X2318258Y1985682D1*
X2321254Y1983093D1*
X2323706Y1979984D1*
X2325525Y1976468D1*
X2326646Y1972670D1*
X2327028Y1968701D1*
X2326657Y1964787D1*
X2264157Y1939787D2*
X2263046Y1935987D1*
X2261237Y1932465D1*
X2258793Y1929349D1*
X2255805Y1926752D1*
X2252378Y1924768D1*
X2248638Y1923468D1*
X2244720Y1922899D1*
X2240765Y1923082D1*
X2236916Y1924010D1*
X2233312Y1925650D1*
X2230084Y1927942D1*
X2227347Y1930804D1*
X2225202Y1934132D1*
X2223726Y1937806D1*
X2222971Y1941693D1*
X2222966Y1945652D1*
X2223710Y1949541D1*
X2225176Y1953219D1*
X2227312Y1956553D1*
X2230041Y1959422D1*
X2233263Y1961723D1*
X2236862Y1963373D1*
X2240709Y1964312D1*
X2244663Y1964505D1*
X2248583Y1963947D1*
X2252327Y1962657D1*
X2255758Y1960682D1*
X2258754Y1958093D1*
X2261206Y1954984D1*
X2263025Y1951468D1*
X2264146Y1947670D1*
X2264528Y1943701D1*
X2264157Y1939787D1*
X2326657Y1914787D2*
X2325546Y1910987D1*
X2323737Y1907465D1*
X2321293Y1904349D1*
X2318305Y1901752D1*
X2314878Y1899768D1*
X2311138Y1898468D1*
X2307220Y1897899D1*
X2303265Y1898082D1*
X2299416Y1899010D1*
X2295812Y1900650D1*
X2292584Y1902942D1*
X2289847Y1905804D1*
X2287702Y1909132D1*
X2286226Y1912806D1*
X2285471Y1916693D1*
X2285466Y1920652D1*
X2286210Y1924541D1*
X2287676Y1928219D1*
X2289812Y1931553D1*
X2292541Y1934422D1*
X2295763Y1936723D1*
X2299362Y1938373D1*
X2303209Y1939312D1*
X2307163Y1939505D1*
X2311083Y1938947D1*
X2314827Y1937657D1*
X2318258Y1935682D1*
X2321254Y1933093D1*
X2323706Y1929984D1*
X2325525Y1926468D1*
X2326646Y1922670D1*
X2327028Y1918701D1*
X2326657Y1914787D1*
X2264157Y1889787D2*
X2263046Y1885987D1*
X2261237Y1882465D1*
X2258793Y1879349D1*
X2255805Y1876752D1*
X2252378Y1874768D1*
X2248638Y1873468D1*
X2244720Y1872899D1*
X2240765Y1873082D1*
X2236916Y1874010D1*
X2233312Y1875650D1*
X2230084Y1877942D1*
X2227347Y1880804D1*
X2225202Y1884132D1*
X2223726Y1887806D1*
X2222971Y1891693D1*
X2222966Y1895652D1*
X2223710Y1899541D1*
X2225176Y1903219D1*
X2227312Y1906553D1*
X2230041Y1909422D1*
X2233263Y1911723D1*
X2236862Y1913373D1*
X2240709Y1914312D1*
X2244663Y1914505D1*
X2248583Y1913947D1*
X2252327Y1912657D1*
X2255758Y1910682D1*
X2258754Y1908093D1*
X2261206Y1904984D1*
X2263025Y1901468D1*
X2264146Y1897670D1*
X2264528Y1893701D1*
X2264157Y1889787D1*
X2326657Y1864787D2*
X2325546Y1860987D1*
X2323737Y1857465D1*
X2321293Y1854349D1*
X2318305Y1851752D1*
X2314878Y1849768D1*
X2311138Y1848468D1*
X2307220Y1847899D1*
X2303265Y1848082D1*
X2299416Y1849010D1*
X2295812Y1850650D1*
X2292584Y1852942D1*
X2289847Y1855804D1*
X2287702Y1859132D1*
X2286226Y1862806D1*
X2285471Y1866693D1*
X2285466Y1870652D1*
X2286210Y1874541D1*
X2287676Y1878219D1*
X2289812Y1881553D1*
X2292541Y1884422D1*
X2295763Y1886723D1*
X2299362Y1888373D1*
X2303209Y1889312D1*
X2307163Y1889505D1*
X2311083Y1888947D1*
X2314827Y1887657D1*
X2318258Y1885682D1*
X2321254Y1883093D1*
X2323706Y1879984D1*
X2325525Y1876468D1*
X2326646Y1872670D1*
X2327028Y1868701D1*
X2326657Y1864787D1*
X2264157Y1839787D2*
X2263046Y1835987D1*
X2261237Y1832465D1*
X2258793Y1829349D1*
X2255805Y1826752D1*
X2252378Y1824768D1*
X2248638Y1823468D1*
X2244720Y1822899D1*
X2240765Y1823082D1*
X2236916Y1824010D1*
X2233312Y1825650D1*
X2230084Y1827942D1*
X2227347Y1830804D1*
X2225202Y1834132D1*
X2223726Y1837806D1*
X2222971Y1841693D1*
X2222966Y1845652D1*
X2223710Y1849541D1*
X2225176Y1853219D1*
X2227312Y1856553D1*
X2230041Y1859422D1*
X2233263Y1861723D1*
X2236862Y1863373D1*
X2240709Y1864312D1*
X2244663Y1864505D1*
X2248583Y1863947D1*
X2252327Y1862657D1*
X2255758Y1860682D1*
X2258754Y1858093D1*
X2261206Y1854984D1*
X2263025Y1851468D1*
X2264146Y1847670D1*
X2264528Y1843701D1*
X2264157Y1839787D1*
X2608478Y1546027D2*
X2605187Y1547524D1*
X2601959Y1549816D1*
X2599223Y1552678D1*
X2597078Y1556006D1*
X2595601Y1559680D1*
X2594846Y1563567D1*
X2594841Y1567526D1*
X2595585Y1571415D1*
X2597052Y1575093D1*
X2599188Y1578427D1*
X2601916Y1581296D1*
X2605138Y1583597D1*
X2608738Y1585247D1*
X2612584Y1586186D1*
X2616539Y1586379D1*
X2620459Y1585821D1*
X2624202Y1584531D1*
X2627634Y1582556D1*
X2630630Y1579967D1*
X2633081Y1576858D1*
X2634900Y1573342D1*
X2635094Y1572685D1*
X2636701Y1572031D1*
X2640132Y1570056D1*
X2643128Y1567467D1*
X2645580Y1564358D1*
X2647399Y1560842D1*
X2647593Y1560185D1*
X2649202Y1559531D1*
X2652634Y1557556D1*
X2655630Y1554967D1*
X2658081Y1551858D1*
X2659900Y1548342D1*
X2661021Y1544544D1*
X2661403Y1540575D1*
X2661032Y1536661D1*
X2659922Y1532861D1*
X2658112Y1529339D1*
X2655669Y1526223D1*
X2652680Y1523626D1*
X2649254Y1521642D1*
X2645514Y1520342D1*
X2641595Y1519773D1*
X2637640Y1519956D1*
X2633791Y1520884D1*
X2630187Y1522524D1*
X2626959Y1524816D1*
X2624223Y1527678D1*
X2622078Y1531006D1*
X2621096Y1533449D1*
X2617686Y1535024D1*
X2614458Y1537316D1*
X2611721Y1540178D1*
X2609576Y1543506D1*
X2608591Y1545957D1*
X2326657Y1814787D2*
X2325546Y1810987D1*
X2323737Y1807465D1*
X2321293Y1804349D1*
X2318305Y1801752D1*
X2314878Y1799768D1*
X2311138Y1798468D1*
X2307220Y1797899D1*
X2303265Y1798082D1*
X2299416Y1799010D1*
X2295812Y1800650D1*
X2292584Y1802942D1*
X2289847Y1805804D1*
X2287702Y1809132D1*
X2286226Y1812806D1*
X2285471Y1816693D1*
X2285466Y1820652D1*
X2286210Y1824541D1*
X2287676Y1828219D1*
X2289812Y1831553D1*
X2292541Y1834422D1*
X2295763Y1836723D1*
X2299362Y1838373D1*
X2303209Y1839312D1*
X2307163Y1839505D1*
X2311083Y1838947D1*
X2314827Y1837657D1*
X2318258Y1835682D1*
X2321254Y1833093D1*
X2323706Y1829984D1*
X2325525Y1826468D1*
X2326646Y1822670D1*
X2327028Y1818701D1*
X2326657Y1814787D1*
X2009260Y1900134D2*
X2008628Y1899768D1*
X2007076Y1899228D1*
X2006797Y1898487D1*
X2004987Y1894965D1*
X2002544Y1891849D1*
X1999555Y1889252D1*
X1996129Y1887268D1*
X1992389Y1885968D1*
X1988471Y1885399D1*
X1984516Y1885582D1*
X1980667Y1886510D1*
X1977063Y1888150D1*
X1973834Y1890442D1*
X1971098Y1893304D1*
X1968953Y1896632D1*
X1967476Y1900306D1*
X1966722Y1904193D1*
X1966716Y1908152D1*
X1967460Y1912041D1*
X1968927Y1915719D1*
X1971063Y1919053D1*
X1973791Y1921922D1*
X1977013Y1924223D1*
X1980356Y1925755D1*
X1981426Y1928219D1*
X1983562Y1931553D1*
X1986290Y1934422D1*
X1989512Y1936723D1*
X1993112Y1938373D1*
X1996958Y1939312D1*
X2000913Y1939505D1*
X2004833Y1938947D1*
X2008576Y1937657D1*
X2009256Y1937266D1*
X2011862Y1938373D1*
X2015709Y1939312D1*
X2019663Y1939505D1*
X2023583Y1938947D1*
X2027327Y1937657D1*
X2030758Y1935682D1*
X2033754Y1933093D1*
X2036206Y1929984D1*
X2038025Y1926468D1*
X2039146Y1922670D1*
X2039528Y1918701D1*
X2039157Y1914787D1*
X2038046Y1910987D1*
X2036237Y1907465D1*
X2033793Y1904349D1*
X2030805Y1901752D1*
X2027378Y1899768D1*
X2023638Y1898468D1*
X2019720Y1897899D1*
X2015765Y1898082D1*
X2011916Y1899010D1*
X2009414Y1900149D1*
X2920406Y1405412D2*
X2919296Y1401611D1*
X2917486Y1398090D1*
X2915043Y1394974D1*
X2912054Y1392377D1*
X2908628Y1390393D1*
X2904888Y1389092D1*
X2900969Y1388524D1*
X2897014Y1388707D1*
X2893165Y1389635D1*
X2889561Y1391275D1*
X2887522Y1392723D1*
X2887054Y1392377D1*
X2883628Y1390393D1*
X2879888Y1389092D1*
X2875969Y1388524D1*
X2872014Y1388707D1*
X2868165Y1389635D1*
X2864561Y1391275D1*
X2862522Y1392723D1*
X2862054Y1392377D1*
X2858628Y1390393D1*
X2854888Y1389092D1*
X2850969Y1388524D1*
X2847014Y1388707D1*
X2843165Y1389635D1*
X2839561Y1391275D1*
X2836333Y1393567D1*
X2833597Y1396429D1*
X2831452Y1399757D1*
X2829975Y1403431D1*
X2829220Y1407317D1*
X2829215Y1411277D1*
X2829959Y1415166D1*
X2831426Y1418844D1*
X2833562Y1422177D1*
X2836290Y1425047D1*
X2839512Y1427348D1*
X2843112Y1428997D1*
X2846958Y1429936D1*
X2850913Y1430130D1*
X2854833Y1429572D1*
X2858576Y1428282D1*
X2862008Y1426307D1*
X2862414Y1425955D1*
X2864512Y1427348D1*
X2868112Y1428997D1*
X2871958Y1429936D1*
X2875913Y1430130D1*
X2879833Y1429572D1*
X2883576Y1428282D1*
X2887008Y1426307D1*
X2887414Y1425955D1*
X2889512Y1427348D1*
X2893112Y1428997D1*
X2896958Y1429936D1*
X2900913Y1430130D1*
X2904833Y1429572D1*
X2908576Y1428282D1*
X2912008Y1426307D1*
X2915004Y1423718D1*
X2917455Y1420609D1*
X2919274Y1417092D1*
X2920395Y1413295D1*
X2920777Y1409325D1*
X2920406Y1405412D1*
X3539157Y1392912D2*
X3538046Y1389111D1*
X3536237Y1385590D1*
X3533793Y1382474D1*
X3530805Y1379877D1*
X3527378Y1377893D1*
X3523638Y1376592D1*
X3519720Y1376024D1*
X3515765Y1376207D1*
X3511916Y1377135D1*
X3508312Y1378775D1*
X3506272Y1380223D1*
X3505805Y1379877D1*
X3502378Y1377893D1*
X3498638Y1376592D1*
X3494720Y1376024D1*
X3490765Y1376207D1*
X3486916Y1377135D1*
X3483312Y1378775D1*
X3481272Y1380223D1*
X3480805Y1379877D1*
X3477378Y1377893D1*
X3473638Y1376592D1*
X3469720Y1376024D1*
X3465765Y1376207D1*
X3461916Y1377135D1*
X3458312Y1378775D1*
X3455084Y1381067D1*
X3452347Y1383929D1*
X3450202Y1387257D1*
X3448726Y1390931D1*
X3447971Y1394817D1*
X3447966Y1398777D1*
X3448710Y1402666D1*
X3450176Y1406344D1*
X3452312Y1409677D1*
X3455041Y1412547D1*
X3458263Y1414848D1*
X3461862Y1416497D1*
X3465709Y1417436D1*
X3469663Y1417630D1*
X3473583Y1417072D1*
X3477327Y1415782D1*
X3480758Y1413807D1*
X3481165Y1413455D1*
X3483263Y1414848D1*
X3486862Y1416497D1*
X3490709Y1417436D1*
X3494663Y1417630D1*
X3498583Y1417072D1*
X3502327Y1415782D1*
X3505758Y1413807D1*
X3506165Y1413455D1*
X3508263Y1414848D1*
X3511862Y1416497D1*
X3515709Y1417436D1*
X3519663Y1417630D1*
X3523583Y1417072D1*
X3527327Y1415782D1*
X3530758Y1413807D1*
X3533754Y1411218D1*
X3536206Y1408109D1*
X3538025Y1404592D1*
X3539146Y1400795D1*
X3539528Y1396825D1*
X3539157Y1392912D1*
X2086603Y2258527D2*
X2083312Y2260024D1*
X2080084Y2262316D1*
X2077347Y2265178D1*
X2075202Y2268506D1*
X2073726Y2272180D1*
X2072971Y2276067D1*
X2072966Y2280026D1*
X2073710Y2283915D1*
X2075176Y2287593D1*
X2077312Y2290927D1*
X2080041Y2293796D1*
X2083263Y2296097D1*
X2086862Y2297747D1*
X2090709Y2298686D1*
X2094663Y2298879D1*
X2098583Y2298321D1*
X2102327Y2297031D1*
X2105758Y2295056D1*
X2108754Y2292467D1*
X2111206Y2289358D1*
X2113025Y2285842D1*
X2113219Y2285185D1*
X2114827Y2284530D1*
X2118258Y2282555D1*
X2121254Y2279966D1*
X2123706Y2276857D1*
X2125525Y2273340D1*
X2125719Y2272684D1*
X2127327Y2272031D1*
X2130758Y2270056D1*
X2133754Y2267467D1*
X2136206Y2264358D1*
X2138025Y2260842D1*
X2139146Y2257044D1*
X2139528Y2253075D1*
X2139157Y2249161D1*
X2138046Y2245361D1*
X2136237Y2241839D1*
X2133793Y2238723D1*
X2130805Y2236126D1*
X2127378Y2234142D1*
X2123638Y2232842D1*
X2119720Y2232273D1*
X2115765Y2232456D1*
X2111916Y2233384D1*
X2108312Y2235024D1*
X2105084Y2237316D1*
X2102347Y2240178D1*
X2100202Y2243506D1*
X2099220Y2245949D1*
X2095812Y2247523D1*
X2092584Y2249815D1*
X2089847Y2252677D1*
X2087702Y2256005D1*
X2086717Y2258455D1*
X1984260Y2162634D2*
X1983628Y2162268D1*
X1979888Y2160968D1*
X1975969Y2160399D1*
X1972014Y2160582D1*
X1968165Y2161510D1*
X1964561Y2163150D1*
X1961333Y2165442D1*
X1958597Y2168304D1*
X1956452Y2171632D1*
X1954975Y2175306D1*
X1954220Y2179193D1*
X1954215Y2183152D1*
X1954959Y2187041D1*
X1956426Y2190719D1*
X1958562Y2194053D1*
X1961290Y2196922D1*
X1964512Y2199223D1*
X1968112Y2200873D1*
X1971958Y2201812D1*
X1975913Y2202005D1*
X1979833Y2201447D1*
X1983576Y2200157D1*
X1984256Y2199766D1*
X1986862Y2200873D1*
X1990709Y2201812D1*
X1994663Y2202005D1*
X1998583Y2201447D1*
X2002327Y2200157D1*
X2003007Y2199766D1*
X2005613Y2200873D1*
X2009459Y2201812D1*
X2013414Y2202005D1*
X2017334Y2201447D1*
X2021077Y2200157D1*
X2024509Y2198182D1*
X2027505Y2195593D1*
X2029957Y2192484D1*
X2031776Y2188968D1*
X2032896Y2185170D1*
X2033278Y2181201D1*
X2032907Y2177287D1*
X2031797Y2173487D1*
X2029987Y2169965D1*
X2027544Y2166849D1*
X2024555Y2164252D1*
X2021129Y2162268D1*
X2017389Y2160968D1*
X2013471Y2160399D1*
X2009516Y2160582D1*
X2005667Y2161510D1*
X2003164Y2162649D1*
X2002378Y2162268D1*
X1998638Y2160968D1*
X1994720Y2160399D1*
X1990765Y2160582D1*
X1986916Y2161510D1*
X1984414Y2162649D1*
X2261374Y1657057D2*
X2261197Y1656453D1*
X2259388Y1652931D1*
X2256944Y1649815D1*
X2253956Y1647218D1*
X2250529Y1645234D1*
X2246789Y1643934D1*
X2242871Y1643365D1*
X2238916Y1643548D1*
X2235067Y1644476D1*
X2231463Y1646116D1*
X2228235Y1648408D1*
X2225498Y1651270D1*
X2223353Y1654598D1*
X2221877Y1658272D1*
X2221122Y1662159D1*
X2221117Y1666118D1*
X2221861Y1670007D1*
X2223327Y1673685D1*
X2225463Y1677019D1*
X2228192Y1679888D1*
X2231414Y1682189D1*
X2234757Y1683721D1*
X2235827Y1686185D1*
X2237963Y1689519D1*
X2240692Y1692388D1*
X2243914Y1694689D1*
X2247257Y1696221D1*
X2248327Y1698685D1*
X2250463Y1702019D1*
X2253192Y1704888D1*
X2256414Y1707189D1*
X2260013Y1708839D1*
X2263860Y1709777D1*
X2267814Y1709971D1*
X2271734Y1709413D1*
X2275478Y1708123D1*
X2278909Y1706148D1*
X2281905Y1703559D1*
X2284357Y1700450D1*
X2286176Y1696934D1*
X2287297Y1693136D1*
X2287678Y1689167D1*
X2287307Y1685253D1*
X2286197Y1681453D1*
X2284388Y1677931D1*
X2281944Y1674815D1*
X2278956Y1672218D1*
X2275529Y1670234D1*
X2273977Y1669694D1*
X2273697Y1668953D1*
X2271888Y1665431D1*
X2269444Y1662315D1*
X2266456Y1659718D1*
X2263029Y1657734D1*
X2261477Y1657194D1*
X2261374Y1657057D1*
X1911032Y2033537D2*
X1909922Y2029736D1*
X1908112Y2026214D1*
X1905669Y2023099D1*
X1902680Y2020502D1*
X1899254Y2018517D1*
X1895514Y2017217D1*
X1891595Y2016648D1*
X1887640Y2016831D1*
X1883791Y2017760D1*
X1880187Y2019399D1*
X1876959Y2021692D1*
X1874223Y2024554D1*
X1872078Y2027882D1*
X1870601Y2031555D1*
X1869846Y2035442D1*
X1869841Y2039402D1*
X1870585Y2043290D1*
X1872052Y2046968D1*
X1874188Y2050302D1*
X1876916Y2053171D1*
X1880138Y2055472D1*
X1883738Y2057122D1*
X1887584Y2058061D1*
X1891539Y2058255D1*
X1895459Y2057697D1*
X1899202Y2056407D1*
X1902634Y2054432D1*
X1905630Y2051843D1*
X1908081Y2048734D1*
X1909900Y2045217D1*
X1911021Y2041420D1*
X1911403Y2037450D1*
X1911032Y2033537D1*
X1745407Y2155412D2*
X1744297Y2151611D1*
X1742487Y2148090D1*
X1740044Y2144974D1*
X1737055Y2142377D1*
X1733629Y2140393D1*
X1729889Y2139092D1*
X1725971Y2138524D1*
X1722016Y2138707D1*
X1718167Y2139635D1*
X1714563Y2141275D1*
X1711334Y2143567D1*
X1708598Y2146429D1*
X1706453Y2149757D1*
X1704976Y2153431D1*
X1704222Y2157317D1*
X1704216Y2161277D1*
X1704960Y2165166D1*
X1706427Y2168844D1*
X1708563Y2172177D1*
X1711291Y2175047D1*
X1714513Y2177348D1*
X1718113Y2178997D1*
X1721959Y2179936D1*
X1725914Y2180130D1*
X1729834Y2179572D1*
X1733577Y2178282D1*
X1737009Y2176307D1*
X1740005Y2173718D1*
X1742457Y2170609D1*
X1744276Y2167092D1*
X1745396Y2163295D1*
X1745778Y2159325D1*
X1745407Y2155412D1*
X2860885Y1131094D2*
X2859775Y1127294D1*
X2857965Y1123772D1*
X2855522Y1120656D1*
X2852533Y1118059D1*
X2849107Y1116075D1*
X2845367Y1114775D1*
X2841448Y1114206D1*
X2837493Y1114389D1*
X2833644Y1115317D1*
X2831501Y1116293D1*
X2830720Y1115912D1*
X2826980Y1114612D1*
X2823061Y1114043D1*
X2819106Y1114226D1*
X2815257Y1115155D1*
X2812755Y1116293D1*
X2811970Y1115912D1*
X2808230Y1114612D1*
X2804312Y1114043D1*
X2800357Y1114226D1*
X2796508Y1115155D1*
X2792904Y1116794D1*
X2789675Y1119087D1*
X2786939Y1121949D1*
X2784794Y1125277D1*
X2783318Y1128950D1*
X2782563Y1132837D1*
X2782558Y1136797D1*
X2783302Y1140685D1*
X2784768Y1144363D1*
X2786904Y1147697D1*
X2789633Y1150566D1*
X2792855Y1152867D1*
X2796454Y1154517D1*
X2800301Y1155456D1*
X2804255Y1155650D1*
X2808175Y1155092D1*
X2811919Y1153802D1*
X2812599Y1153410D1*
X2815203Y1154517D1*
X2819050Y1155456D1*
X2823005Y1155650D1*
X2826924Y1155092D1*
X2830668Y1153802D1*
X2831033Y1153591D1*
X2833591Y1154680D1*
X2837437Y1155619D1*
X2841392Y1155812D1*
X2845312Y1155254D1*
X2849055Y1153964D1*
X2852487Y1151989D1*
X2855483Y1149401D1*
X2857934Y1146292D1*
X2859753Y1142775D1*
X2860874Y1138977D1*
X2861256Y1135008D1*
X2860885Y1131094D1*
X1786032Y2192912D2*
X1784922Y2189111D1*
X1783112Y2185590D1*
X1780669Y2182474D1*
X1777680Y2179877D1*
X1774254Y2177893D1*
X1770514Y2176592D1*
X1766595Y2176024D1*
X1762640Y2176207D1*
X1758791Y2177135D1*
X1755187Y2178775D1*
X1751959Y2181067D1*
X1749223Y2183929D1*
X1747078Y2187257D1*
X1745601Y2190931D1*
X1744846Y2194817D1*
X1744841Y2198777D1*
X1745585Y2202666D1*
X1747052Y2206344D1*
X1749188Y2209677D1*
X1751916Y2212547D1*
X1755138Y2214848D1*
X1758738Y2216497D1*
X1762584Y2217436D1*
X1766539Y2217630D1*
X1770459Y2217072D1*
X1774202Y2215782D1*
X1777634Y2213807D1*
X1780630Y2211218D1*
X1783081Y2208109D1*
X1784900Y2204592D1*
X1786021Y2200795D1*
X1786403Y2196825D1*
X1786032Y2192912D1*
X1851657Y2202287D2*
X1850546Y2198487D1*
X1848737Y2194965D1*
X1846293Y2191849D1*
X1843305Y2189252D1*
X1839878Y2187268D1*
X1836138Y2185968D1*
X1832220Y2185399D1*
X1828265Y2185582D1*
X1824416Y2186510D1*
X1820812Y2188150D1*
X1817584Y2190442D1*
X1814847Y2193304D1*
X1812702Y2196632D1*
X1811226Y2200306D1*
X1810471Y2204193D1*
X1810466Y2208152D1*
X1811210Y2212041D1*
X1812676Y2215719D1*
X1814812Y2219053D1*
X1817541Y2221922D1*
X1820763Y2224223D1*
X1824362Y2225873D1*
X1828209Y2226812D1*
X1832163Y2227005D1*
X1836083Y2226447D1*
X1839827Y2225157D1*
X1843258Y2223182D1*
X1846254Y2220593D1*
X1848706Y2217484D1*
X1850525Y2213968D1*
X1851646Y2210170D1*
X1852028Y2206201D1*
X1851657Y2202287D1*
X620406Y1674163D2*
X619296Y1670362D1*
X617486Y1666840D1*
X616553Y1665651D1*
X617455Y1664360D1*
X619274Y1660843D1*
X620395Y1657045D1*
X620777Y1653076D1*
X620406Y1649163D1*
X619296Y1645362D1*
X617486Y1641840D1*
X616553Y1640651D1*
X617455Y1639360D1*
X619274Y1635843D1*
X620395Y1632045D1*
X620777Y1628076D1*
X620406Y1624163D1*
X620168Y1623350D1*
X621958Y1623687D1*
X625913Y1623881D1*
X629833Y1623322D1*
X633576Y1622033D1*
X637008Y1620058D1*
X640004Y1617469D1*
X642455Y1614360D1*
X644274Y1610843D1*
X645395Y1607045D1*
X645777Y1603076D1*
X645406Y1599163D1*
X644296Y1595362D1*
X642486Y1591840D1*
X641553Y1590651D1*
X642455Y1589358D1*
X644274Y1585842D1*
X645395Y1582044D1*
X645777Y1578075D1*
X645406Y1574161D1*
X644296Y1570361D1*
X642486Y1566839D1*
X641553Y1565649D1*
X642455Y1564358D1*
X644274Y1560842D1*
X645395Y1557044D1*
X645777Y1553075D1*
X645406Y1549161D1*
X644296Y1545361D1*
X642486Y1541839D1*
X640043Y1538723D1*
X637054Y1536126D1*
X633628Y1534142D1*
X629888Y1532842D1*
X625969Y1532273D1*
X622014Y1532456D1*
X618165Y1533384D1*
X614561Y1535024D1*
X612522Y1536472D1*
X612054Y1536126D1*
X608628Y1534142D1*
X604888Y1532842D1*
X600969Y1532273D1*
X597014Y1532456D1*
X593165Y1533384D1*
X589561Y1535024D1*
X587522Y1536472D1*
X587054Y1536126D1*
X583628Y1534142D1*
X579888Y1532842D1*
X575969Y1532273D1*
X572014Y1532456D1*
X568165Y1533384D1*
X564561Y1535024D1*
X561333Y1537316D1*
X558597Y1540178D1*
X556452Y1543506D1*
X554975Y1547180D1*
X554220Y1551067D1*
X554215Y1555026D1*
X554959Y1558915D1*
X556426Y1562593D1*
X558318Y1565546D1*
X556452Y1568506D1*
X554975Y1572180D1*
X554220Y1576067D1*
X554215Y1580026D1*
X554959Y1583915D1*
X556426Y1587593D1*
X558318Y1590546D1*
X556452Y1593508D1*
X554975Y1597181D1*
X554220Y1601068D1*
X554215Y1605028D1*
X554959Y1608916D1*
X556426Y1612594D1*
X558562Y1615928D1*
X561290Y1618797D1*
X564512Y1621098D1*
X568112Y1622748D1*
X571958Y1623687D1*
X575913Y1623881D1*
X579668Y1623346D1*
X579220Y1626068D1*
X579215Y1630028D1*
X579959Y1633916D1*
X581426Y1637594D1*
X583318Y1640547D1*
X581452Y1643508D1*
X579975Y1647181D1*
X579220Y1651068D1*
X579215Y1655028D1*
X579959Y1658916D1*
X581426Y1662594D1*
X583318Y1665547D1*
X581452Y1668508D1*
X579975Y1672181D1*
X579220Y1676068D1*
X579215Y1680028D1*
X579748Y1682811D1*
X575969Y1682274D1*
X572014Y1682457D1*
X568165Y1683386D1*
X564561Y1685025D1*
X561333Y1687318D1*
X558597Y1690180D1*
X556452Y1693508D1*
X554975Y1697181D1*
X554220Y1701068D1*
X554215Y1705028D1*
X554959Y1708916D1*
X556426Y1712594D1*
X558318Y1715547D1*
X556452Y1718508D1*
X554975Y1722181D1*
X554220Y1726068D1*
X554215Y1730028D1*
X554959Y1733916D1*
X556426Y1737594D1*
X558313Y1740541D1*
X556452Y1743506D1*
X554975Y1747180D1*
X554220Y1751067D1*
X554215Y1755026D1*
X554959Y1758915D1*
X556426Y1762593D1*
X558562Y1765927D1*
X561290Y1768796D1*
X564512Y1771097D1*
X568112Y1772747D1*
X571958Y1773686D1*
X575913Y1773879D1*
X579833Y1773321D1*
X583576Y1772031D1*
X587008Y1770056D1*
X587414Y1769705D1*
X589512Y1771097D1*
X593112Y1772747D1*
X596958Y1773686D1*
X600913Y1773879D1*
X604833Y1773321D1*
X608576Y1772031D1*
X612008Y1770056D1*
X612414Y1769705D1*
X614512Y1771097D1*
X618112Y1772747D1*
X621958Y1773686D1*
X625913Y1773879D1*
X629833Y1773321D1*
X633576Y1772031D1*
X637008Y1770056D1*
X640004Y1767467D1*
X642455Y1764358D1*
X644274Y1760842D1*
X645395Y1757044D1*
X645777Y1753075D1*
X645406Y1749161D1*
X644296Y1745361D1*
X642486Y1741839D1*
X641553Y1740649D1*
X642455Y1739360D1*
X644274Y1735843D1*
X645395Y1732045D1*
X645777Y1728076D1*
X645406Y1724163D1*
X644296Y1720362D1*
X642486Y1716840D1*
X641553Y1715651D1*
X642455Y1714360D1*
X644274Y1710843D1*
X645395Y1707045D1*
X645777Y1703076D1*
X645406Y1699163D1*
X644296Y1695362D1*
X642486Y1691840D1*
X640043Y1688725D1*
X637054Y1686128D1*
X633628Y1684143D1*
X629888Y1682843D1*
X625969Y1682274D1*
X622014Y1682457D1*
X620214Y1682892D1*
X620395Y1682045D1*
X620777Y1678076D1*
X620406Y1674163D1*
X1984435Y2346800D2*
X1983324Y2343000D1*
X1981515Y2339478D1*
X1979072Y2336362D1*
X1976083Y2333765D1*
X1972657Y2331781D1*
X1968917Y2330481D1*
X1964998Y2329912D1*
X1961043Y2330095D1*
X1957194Y2331023D1*
X1953590Y2332663D1*
X1950362Y2334956D1*
X1947626Y2337817D1*
X1945480Y2341145D1*
X1944004Y2344819D1*
X1943249Y2348706D1*
X1943244Y2352665D1*
X1943988Y2356554D1*
X1945454Y2360232D1*
X1947591Y2363566D1*
X1950319Y2366435D1*
X1953541Y2368736D1*
X1957140Y2370386D1*
X1960987Y2371325D1*
X1964942Y2371518D1*
X1968861Y2370960D1*
X1972605Y2369670D1*
X1976037Y2367695D1*
X1979032Y2365107D1*
X1981484Y2361998D1*
X1983303Y2358481D1*
X1984424Y2354683D1*
X1984806Y2350714D1*
X1984435Y2346800D1*
X1970406Y2446037D2*
X1969296Y2442236D1*
X1967486Y2438714D1*
X1965043Y2435599D1*
X1962054Y2433002D1*
X1958628Y2431017D1*
X1954888Y2429717D1*
X1950969Y2429148D1*
X1947014Y2429331D1*
X1943165Y2430260D1*
X1939561Y2431899D1*
X1936333Y2434192D1*
X1933597Y2437054D1*
X1931452Y2440382D1*
X1929975Y2444055D1*
X1929220Y2447942D1*
X1929215Y2451902D1*
X1929959Y2455790D1*
X1931426Y2459468D1*
X1933562Y2462802D1*
X1936290Y2465671D1*
X1939512Y2467972D1*
X1943112Y2469622D1*
X1946958Y2470561D1*
X1950913Y2470755D1*
X1954833Y2470197D1*
X1958576Y2468907D1*
X1962008Y2466932D1*
X1965004Y2464343D1*
X1967455Y2461234D1*
X1969274Y2457717D1*
X1970395Y2453920D1*
X1970777Y2449950D1*
X1970406Y2446037D1*
X2695978Y1633527D2*
X2692687Y1635024D1*
X2689459Y1637316D1*
X2686723Y1640178D1*
X2684578Y1643506D1*
X2683101Y1647180D1*
X2682346Y1651067D1*
X2682341Y1655026D1*
X2683085Y1658915D1*
X2684552Y1662593D1*
X2686688Y1665927D1*
X2689416Y1668796D1*
X2692638Y1671097D1*
X2696238Y1672747D1*
X2700084Y1673686D1*
X2704039Y1673879D1*
X2707959Y1673321D1*
X2711702Y1672031D1*
X2715134Y1670056D1*
X2718130Y1667467D1*
X2720581Y1664358D1*
X2722400Y1660842D1*
X2722594Y1660185D1*
X2724202Y1659533D1*
X2727634Y1657558D1*
X2730630Y1654969D1*
X2733081Y1651860D1*
X2734900Y1648343D1*
X2735094Y1647687D1*
X2736702Y1647033D1*
X2740134Y1645058D1*
X2743130Y1642469D1*
X2745581Y1639360D1*
X2747400Y1635843D1*
X2748521Y1632045D1*
X2748903Y1628076D1*
X2748532Y1624163D1*
X2747422Y1620362D1*
X2745612Y1616840D1*
X2743169Y1613725D1*
X2740180Y1611128D1*
X2736754Y1609143D1*
X2733014Y1607843D1*
X2729095Y1607274D1*
X2725140Y1607457D1*
X2721291Y1608386D1*
X2717687Y1610025D1*
X2714459Y1612318D1*
X2711723Y1615180D1*
X2709578Y1618508D1*
X2708593Y1620958D1*
X2705187Y1622525D1*
X2701959Y1624818D1*
X2699223Y1627680D1*
X2697078Y1631008D1*
X2696096Y1633451D1*
X3516772Y2177287D2*
X3515662Y2173487D1*
X3513852Y2169965D1*
X3511409Y2166849D1*
X3508420Y2164252D1*
X3504994Y2162268D1*
X3501254Y2160968D1*
X3497336Y2160399D1*
X3493380Y2160582D1*
X3489531Y2161510D1*
X3485927Y2163150D1*
X3482699Y2165442D1*
X3479963Y2168304D1*
X3477818Y2171632D1*
X3476341Y2175306D1*
X3475587Y2179193D1*
X3475581Y2183152D1*
X3476325Y2187041D1*
X3477792Y2190719D1*
X3479928Y2194053D1*
X3482656Y2196922D1*
X3485878Y2199223D1*
X3489478Y2200873D1*
X3493324Y2201812D1*
X3497279Y2202005D1*
X3501199Y2201447D1*
X3504942Y2200157D1*
X3508374Y2198182D1*
X3511370Y2195593D1*
X3513821Y2192484D1*
X3515641Y2188968D1*
X3516761Y2185170D1*
X3517143Y2181201D1*
X3516772Y2177287D1*
X3614157D2*
X3613046Y2173487D1*
X3611237Y2169965D1*
X3608793Y2166849D1*
X3605805Y2164252D1*
X3602378Y2162268D1*
X3598638Y2160968D1*
X3594720Y2160399D1*
X3590765Y2160582D1*
X3586916Y2161510D1*
X3583312Y2163150D1*
X3580084Y2165442D1*
X3577347Y2168304D1*
X3575202Y2171632D1*
X3573726Y2175306D1*
X3572971Y2179193D1*
X3572966Y2183152D1*
X3573710Y2187041D1*
X3575176Y2190719D1*
X3577312Y2194053D1*
X3580041Y2196922D1*
X3583263Y2199223D1*
X3586862Y2200873D1*
X3590709Y2201812D1*
X3594663Y2202005D1*
X3598583Y2201447D1*
X3602327Y2200157D1*
X3605758Y2198182D1*
X3608754Y2195593D1*
X3611206Y2192484D1*
X3613025Y2188968D1*
X3614146Y2185170D1*
X3614528Y2181201D1*
X3614157Y2177287D1*
X3917281Y2217912D2*
X3916171Y2214111D1*
X3915370Y2212553D1*
X3916150Y2210843D1*
X3917270Y2207045D1*
X3917652Y2203076D1*
X3917281Y2199163D1*
X3916171Y2195362D1*
X3915370Y2193804D1*
X3916150Y2192092D1*
X3917270Y2188295D1*
X3917652Y2184325D1*
X3917281Y2180412D1*
X3916171Y2176611D1*
X3914361Y2173090D1*
X3911918Y2169974D1*
X3908929Y2167377D1*
X3905503Y2165393D1*
X3901763Y2164092D1*
X3897845Y2163524D1*
X3893890Y2163707D1*
X3890041Y2164635D1*
X3886437Y2166275D1*
X3883208Y2168567D1*
X3880472Y2171429D1*
X3878327Y2174757D1*
X3876850Y2178431D1*
X3876096Y2182317D1*
X3876090Y2186277D1*
X3876834Y2190166D1*
X3878236Y2193682D1*
X3876850Y2197181D1*
X3876096Y2201068D1*
X3876090Y2205028D1*
X3876834Y2208916D1*
X3878236Y2212433D1*
X3876850Y2215931D1*
X3876096Y2219817D1*
X3876090Y2223777D1*
X3876834Y2227666D1*
X3878301Y2231344D1*
X3880437Y2234677D1*
X3883165Y2237547D1*
X3886387Y2239848D1*
X3889987Y2241497D1*
X3893833Y2242436D1*
X3897788Y2242630D1*
X3901708Y2242072D1*
X3905451Y2240782D1*
X3908883Y2238807D1*
X3911879Y2236218D1*
X3914331Y2233109D1*
X3916150Y2229592D1*
X3917270Y2225795D1*
X3917652Y2221825D1*
X3917281Y2217912D1*
X3357907Y2417912D2*
X3356797Y2414111D1*
X3354987Y2410590D1*
X3352544Y2407474D1*
X3349555Y2404877D1*
X3346129Y2402893D1*
X3342389Y2401592D1*
X3338471Y2401024D1*
X3334516Y2401207D1*
X3330667Y2402135D1*
X3327063Y2403775D1*
X3323834Y2406067D1*
X3321098Y2408929D1*
X3318953Y2412257D1*
X3317476Y2415931D1*
X3316722Y2419817D1*
X3316716Y2423777D1*
X3317460Y2427666D1*
X3318927Y2431344D1*
X3321063Y2434677D1*
X3323791Y2437547D1*
X3327013Y2439848D1*
X3330613Y2441497D1*
X3334459Y2442436D1*
X3338414Y2442630D1*
X3342334Y2442072D1*
X3346077Y2440782D1*
X3349509Y2438807D1*
X3352505Y2436218D1*
X3354957Y2433109D1*
X3356776Y2429592D1*
X3357896Y2425795D1*
X3358278Y2421825D1*
X3357907Y2417912D1*
X1082907Y2574161D2*
X1081797Y2570361D1*
X1079987Y2566839D1*
X1077544Y2563723D1*
X1074555Y2561126D1*
X1071129Y2559142D1*
X1067389Y2557842D1*
X1063471Y2557273D1*
X1059516Y2557456D1*
X1055667Y2558384D1*
X1053164Y2559523D1*
X1052378Y2559142D1*
X1048638Y2557842D1*
X1044720Y2557273D1*
X1040765Y2557456D1*
X1036916Y2558384D1*
X1034414Y2559523D1*
X1033628Y2559142D1*
X1029888Y2557842D1*
X1025969Y2557273D1*
X1022014Y2557456D1*
X1018165Y2558384D1*
X1014561Y2560024D1*
X1011333Y2562316D1*
X1008597Y2565178D1*
X1006452Y2568506D1*
X1004975Y2572180D1*
X1004220Y2576067D1*
X1004215Y2580026D1*
X1004959Y2583915D1*
X1006426Y2587593D1*
X1008562Y2590927D1*
X1011290Y2593796D1*
X1014512Y2596097D1*
X1018112Y2597747D1*
X1021958Y2598686D1*
X1025913Y2598879D1*
X1029833Y2598321D1*
X1033576Y2597031D1*
X1034256Y2596640D1*
X1036862Y2597747D1*
X1040709Y2598686D1*
X1044663Y2598879D1*
X1048583Y2598321D1*
X1052327Y2597031D1*
X1053007Y2596640D1*
X1055613Y2597747D1*
X1059459Y2598686D1*
X1063414Y2598879D1*
X1067334Y2598321D1*
X1071077Y2597031D1*
X1074509Y2595056D1*
X1077505Y2592467D1*
X1079957Y2589358D1*
X1081776Y2585842D1*
X1082896Y2582044D1*
X1083278Y2578075D1*
X1082907Y2574161D1*
X2830353Y1761653D2*
X2827063Y1763150D1*
X2823834Y1765442D1*
X2821098Y1768304D1*
X2818953Y1771632D1*
X2817476Y1775306D1*
X2816722Y1779193D1*
X2816716Y1783152D1*
X2817460Y1787041D1*
X2818927Y1790719D1*
X2821063Y1794053D1*
X2823791Y1796922D1*
X2827013Y1799223D1*
X2830613Y1800873D1*
X2834459Y1801812D1*
X2838414Y1802005D1*
X2842334Y1801447D1*
X2846077Y1800157D1*
X2849509Y1798182D1*
X2852505Y1795593D1*
X2854957Y1792484D1*
X2856776Y1788968D1*
X2856969Y1788311D1*
X2858576Y1787657D1*
X2862008Y1785682D1*
X2865004Y1783093D1*
X2867455Y1779984D1*
X2869274Y1776468D1*
X2869468Y1775811D1*
X2871077Y1775157D1*
X2874509Y1773182D1*
X2877505Y1770593D1*
X2879957Y1767484D1*
X2881776Y1763968D1*
X2882896Y1760170D1*
X2883278Y1756201D1*
X2882907Y1752287D1*
X2881797Y1748487D1*
X2879987Y1744965D1*
X2877544Y1741849D1*
X2874555Y1739252D1*
X2871129Y1737268D1*
X2867389Y1735968D1*
X2863471Y1735399D1*
X2859516Y1735582D1*
X2855667Y1736510D1*
X2852063Y1738150D1*
X2848834Y1740442D1*
X2846098Y1743304D1*
X2843953Y1746632D1*
X2842971Y1749075D1*
X2839561Y1750650D1*
X2836333Y1752942D1*
X2833597Y1755804D1*
X2831452Y1759132D1*
X2830467Y1761583D1*
X1394474Y2514716D2*
X1394297Y2514111D1*
X1392487Y2510590D1*
X1390044Y2507474D1*
X1387055Y2504877D1*
X1383629Y2502893D1*
X1379889Y2501592D1*
X1375971Y2501024D1*
X1372016Y2501207D1*
X1368167Y2502135D1*
X1364563Y2503775D1*
X1361334Y2506067D1*
X1358598Y2508929D1*
X1356453Y2512257D1*
X1354976Y2515931D1*
X1354222Y2519817D1*
X1354216Y2523777D1*
X1354960Y2527666D1*
X1356427Y2531344D1*
X1358563Y2534677D1*
X1361291Y2537547D1*
X1364513Y2539848D1*
X1367856Y2541380D1*
X1368927Y2543844D1*
X1371063Y2547177D1*
X1373791Y2550047D1*
X1377013Y2552348D1*
X1380356Y2553880D1*
X1381427Y2556344D1*
X1383563Y2559677D1*
X1386291Y2562547D1*
X1389513Y2564848D1*
X1393113Y2566497D1*
X1396959Y2567436D1*
X1400914Y2567630D1*
X1404834Y2567072D1*
X1408577Y2565782D1*
X1412009Y2563807D1*
X1415005Y2561218D1*
X1417457Y2558109D1*
X1419276Y2554592D1*
X1420396Y2550795D1*
X1420778Y2546825D1*
X1420407Y2542912D1*
X1419297Y2539111D1*
X1417487Y2535590D1*
X1415044Y2532474D1*
X1412055Y2529877D1*
X1408629Y2527893D1*
X1407077Y2527353D1*
X1406797Y2526611D1*
X1404987Y2523090D1*
X1402544Y2519974D1*
X1399555Y2517377D1*
X1396129Y2515393D1*
X1394577Y2514853D1*
X1394474Y2514716D1*
X871761Y1115759D2*
X871129Y1115393D1*
X867389Y1114092D1*
X863471Y1113524D1*
X859516Y1113707D1*
X855667Y1114635D1*
X852063Y1116275D1*
X848834Y1118567D1*
X846098Y1121429D1*
X843953Y1124757D1*
X842476Y1128431D1*
X841722Y1132317D1*
X841716Y1136277D1*
X842460Y1140166D1*
X843927Y1143844D1*
X846063Y1147177D1*
X848791Y1150047D1*
X852013Y1152348D1*
X855613Y1153997D1*
X859459Y1154936D1*
X863414Y1155130D1*
X867334Y1154572D1*
X871077Y1153282D1*
X871758Y1152890D1*
X874362Y1153997D1*
X878209Y1154936D1*
X882163Y1155130D1*
X886083Y1154572D1*
X889827Y1153282D1*
X890507Y1152890D1*
X893112Y1153997D1*
X896958Y1154936D1*
X900913Y1155130D1*
X904833Y1154572D1*
X908576Y1153282D1*
X912008Y1151307D1*
X915004Y1148718D1*
X917455Y1145609D1*
X919274Y1142092D1*
X920395Y1138295D1*
X920777Y1134325D1*
X920406Y1130412D1*
X919296Y1126611D1*
X917486Y1123090D1*
X915043Y1119974D1*
X912054Y1117377D1*
X908628Y1115393D1*
X904888Y1114092D1*
X900969Y1113524D1*
X897014Y1113707D1*
X893165Y1114635D1*
X890663Y1115774D1*
X889878Y1115393D1*
X886138Y1114092D1*
X882220Y1113524D1*
X878265Y1113707D1*
X874416Y1114635D1*
X871914Y1115774D1*
X3465511Y1115759D2*
X3464878Y1115393D1*
X3461138Y1114092D1*
X3457220Y1113524D1*
X3453265Y1113707D1*
X3449416Y1114635D1*
X3445812Y1116275D1*
X3442584Y1118567D1*
X3439847Y1121429D1*
X3437702Y1124757D1*
X3436226Y1128431D1*
X3435471Y1132317D1*
X3435466Y1136277D1*
X3436210Y1140166D1*
X3437676Y1143844D1*
X3439812Y1147177D1*
X3442541Y1150047D1*
X3445763Y1152348D1*
X3449362Y1153997D1*
X3453209Y1154936D1*
X3457163Y1155130D1*
X3461083Y1154572D1*
X3464827Y1153282D1*
X3465507Y1152890D1*
X3468112Y1153997D1*
X3471958Y1154936D1*
X3475913Y1155130D1*
X3479833Y1154572D1*
X3483576Y1153282D1*
X3484256Y1152890D1*
X3486862Y1153997D1*
X3490709Y1154936D1*
X3494663Y1155130D1*
X3498583Y1154572D1*
X3502327Y1153282D1*
X3505758Y1151307D1*
X3508754Y1148718D1*
X3511206Y1145609D1*
X3513025Y1142092D1*
X3514146Y1138295D1*
X3514528Y1134325D1*
X3514157Y1130412D1*
X3513046Y1126611D1*
X3511237Y1123090D1*
X3508793Y1119974D1*
X3505805Y1117377D1*
X3502378Y1115393D1*
X3498638Y1114092D1*
X3494720Y1113524D1*
X3490765Y1113707D1*
X3486916Y1114635D1*
X3484414Y1115774D1*
X3483628Y1115393D1*
X3479888Y1114092D1*
X3475969Y1113524D1*
X3472014Y1113707D1*
X3468165Y1114635D1*
X3465663Y1115774D1*
X3801657Y861663D2*
X3800546Y857862D1*
X3799746Y856304D1*
X3800525Y854592D1*
X3801646Y850795D1*
X3802028Y846825D1*
X3801657Y842912D1*
X3800546Y839111D1*
X3799746Y837553D1*
X3800525Y835842D1*
X3801646Y832044D1*
X3802028Y828075D1*
X3801657Y824161D1*
X3800546Y820361D1*
X3799746Y818803D1*
X3800525Y817092D1*
X3801646Y813295D1*
X3802028Y809325D1*
X3801657Y805412D1*
X3800546Y801611D1*
X3798737Y798090D1*
X3796293Y794974D1*
X3793305Y792377D1*
X3789878Y790393D1*
X3786138Y789092D1*
X3782220Y788524D1*
X3778265Y788707D1*
X3774416Y789635D1*
X3770812Y791275D1*
X3767584Y793567D1*
X3764847Y796429D1*
X3762702Y799757D1*
X3761226Y803431D1*
X3760471Y807317D1*
X3760466Y811277D1*
X3761210Y815166D1*
X3762612Y818682D1*
X3761226Y822180D1*
X3760471Y826067D1*
X3760466Y830026D1*
X3761210Y833915D1*
X3762612Y837431D1*
X3761226Y840931D1*
X3760471Y844817D1*
X3760466Y848777D1*
X3761210Y852666D1*
X3762612Y856182D1*
X3761226Y859681D1*
X3760471Y863568D1*
X3760466Y867528D1*
X3761210Y871416D1*
X3762612Y874933D1*
X3761226Y878431D1*
X3760471Y882317D1*
X3760466Y886277D1*
X3761210Y890166D1*
X3762676Y893844D1*
X3764812Y897177D1*
X3767541Y900047D1*
X3770763Y902348D1*
X3774362Y903997D1*
X3778209Y904936D1*
X3782163Y905130D1*
X3786083Y904572D1*
X3789827Y903282D1*
X3793258Y901307D1*
X3796254Y898718D1*
X3798706Y895609D1*
X3800525Y892092D1*
X3801646Y888295D1*
X3802028Y884325D1*
X3801657Y880412D1*
X3800546Y876611D1*
X3799746Y875053D1*
X3800525Y873343D1*
X3801646Y869545D1*
X3802028Y865576D1*
X3801657Y861663D1*
X2632907Y1039787D2*
X2631797Y1035987D1*
X2629987Y1032465D1*
X2627544Y1029349D1*
X2624555Y1026752D1*
X2621129Y1024768D1*
X2617389Y1023468D1*
X2613471Y1022899D1*
X2609516Y1023082D1*
X2605667Y1024010D1*
X2602063Y1025650D1*
X2598834Y1027942D1*
X2596098Y1030804D1*
X2593953Y1034132D1*
X2592476Y1037806D1*
X2591722Y1041693D1*
X2591716Y1045652D1*
X2592460Y1049541D1*
X2593927Y1053219D1*
X2596063Y1056553D1*
X2598791Y1059422D1*
X2602013Y1061723D1*
X2605613Y1063373D1*
X2609459Y1064312D1*
X2613414Y1064505D1*
X2617334Y1063947D1*
X2621077Y1062657D1*
X2624509Y1060682D1*
X2627505Y1058093D1*
X2629957Y1054984D1*
X2631776Y1051468D1*
X2632896Y1047670D1*
X2633278Y1043701D1*
X2632907Y1039787D1*
X3045406Y2030412D2*
X3044296Y2026611D1*
X3042486Y2023090D1*
X3040043Y2019974D1*
X3037054Y2017377D1*
X3033628Y2015393D1*
X3029888Y2014092D1*
X3025969Y2013524D1*
X3022014Y2013707D1*
X3018165Y2014635D1*
X3015663Y2015774D1*
X3014878Y2015393D1*
X3011138Y2014092D1*
X3007220Y2013524D1*
X3003265Y2013707D1*
X2999416Y2014635D1*
X2996914Y2015774D1*
X2996129Y2015393D1*
X2992389Y2014092D1*
X2988471Y2013524D1*
X2984516Y2013707D1*
X2980667Y2014635D1*
X2977063Y2016275D1*
X2973834Y2018567D1*
X2971098Y2021429D1*
X2968953Y2024757D1*
X2967476Y2028431D1*
X2966722Y2032317D1*
X2966716Y2036277D1*
X2967460Y2040166D1*
X2968927Y2043844D1*
X2971063Y2047177D1*
X2973791Y2050047D1*
X2977013Y2052348D1*
X2980613Y2053997D1*
X2984459Y2054936D1*
X2988414Y2055130D1*
X2992334Y2054572D1*
X2996077Y2053282D1*
X2996758Y2052890D1*
X2999362Y2053997D1*
X3003209Y2054936D1*
X3007163Y2055130D1*
X3011083Y2054572D1*
X3014827Y2053282D1*
X3015507Y2052890D1*
X3018112Y2053997D1*
X3021958Y2054936D1*
X3025913Y2055130D1*
X3029833Y2054572D1*
X3033576Y2053282D1*
X3037008Y2051307D1*
X3040004Y2048718D1*
X3042455Y2045609D1*
X3044274Y2042092D1*
X3045395Y2038295D1*
X3045777Y2034325D1*
X3045406Y2030412D1*
X745406Y1155412D2*
X744296Y1151611D1*
X742486Y1148090D1*
X741921Y1147368D1*
X742455Y1146583D1*
X744274Y1143066D1*
X745395Y1139269D1*
X745777Y1135299D1*
X745406Y1131386D1*
X744296Y1127585D1*
X742486Y1124063D1*
X740043Y1120948D1*
X737054Y1118351D1*
X733628Y1116366D1*
X729888Y1115066D1*
X725969Y1114497D1*
X722014Y1114680D1*
X718165Y1115609D1*
X714561Y1117249D1*
X711333Y1119541D1*
X708597Y1122403D1*
X706452Y1125731D1*
X704975Y1129404D1*
X704220Y1133291D1*
X704215Y1137251D1*
X704959Y1141140D1*
X706426Y1144817D1*
X707984Y1147249D1*
X706452Y1149757D1*
X704975Y1153431D1*
X704220Y1157317D1*
X704215Y1161277D1*
X704959Y1165166D1*
X706426Y1168844D1*
X708318Y1171796D1*
X706452Y1174757D1*
X704975Y1178431D1*
X704220Y1182317D1*
X704215Y1186277D1*
X704959Y1190166D1*
X706426Y1193844D1*
X708318Y1196796D1*
X706452Y1199757D1*
X704975Y1203431D1*
X704220Y1207317D1*
X704215Y1211277D1*
X704959Y1215166D1*
X706426Y1218844D1*
X708318Y1221796D1*
X706452Y1224757D1*
X704975Y1228431D1*
X704220Y1232317D1*
X704215Y1236277D1*
X704959Y1240166D1*
X706426Y1243844D1*
X708318Y1246796D1*
X706452Y1249757D1*
X704975Y1253431D1*
X704220Y1257317D1*
X704215Y1261277D1*
X704959Y1265166D1*
X706426Y1268844D1*
X708562Y1272177D1*
X711290Y1275047D1*
X714512Y1277348D1*
X718112Y1278997D1*
X721958Y1279936D1*
X725913Y1280130D1*
X729833Y1279572D1*
X733576Y1278282D1*
X737008Y1276307D1*
X740004Y1273718D1*
X742455Y1270609D1*
X744274Y1267092D1*
X745395Y1263295D1*
X745777Y1259325D1*
X745406Y1255412D1*
X744296Y1251611D1*
X742486Y1248090D1*
X741553Y1246900D1*
X742455Y1245609D1*
X744274Y1242092D1*
X745395Y1238295D1*
X745777Y1234325D1*
X745406Y1230412D1*
X744296Y1226611D1*
X742486Y1223090D1*
X741553Y1221900D1*
X742455Y1220609D1*
X744274Y1217092D1*
X745395Y1213295D1*
X745777Y1209325D1*
X745406Y1205412D1*
X744296Y1201611D1*
X742486Y1198090D1*
X741553Y1196900D1*
X742455Y1195609D1*
X744274Y1192092D1*
X745395Y1188295D1*
X745777Y1184325D1*
X745406Y1180412D1*
X744296Y1176611D1*
X742486Y1173090D1*
X741553Y1171900D1*
X742455Y1170609D1*
X744274Y1167092D1*
X745395Y1163295D1*
X745777Y1159325D1*
X745406Y1155412D1*
X1164157Y1128786D2*
X1163046Y1124985D1*
X1161237Y1121464D1*
X1158793Y1118348D1*
X1155805Y1115751D1*
X1152378Y1113767D1*
X1148638Y1112466D1*
X1144720Y1111898D1*
X1140765Y1112081D1*
X1136916Y1113009D1*
X1133312Y1114649D1*
X1130084Y1116941D1*
X1127347Y1119803D1*
X1125202Y1123131D1*
X1123726Y1126805D1*
X1122971Y1130691D1*
X1122966Y1134651D1*
X1123710Y1138540D1*
X1125176Y1142218D1*
X1127312Y1145551D1*
X1130041Y1148421D1*
X1133263Y1150722D1*
X1136862Y1152371D1*
X1140709Y1153310D1*
X1144663Y1153504D1*
X1148583Y1152946D1*
X1152327Y1151656D1*
X1155758Y1149681D1*
X1158754Y1147092D1*
X1161206Y1143983D1*
X1163025Y1140466D1*
X1164146Y1136669D1*
X1164528Y1132699D1*
X1164157Y1128786D1*
X1380397Y1128459D2*
X1379286Y1124659D1*
X1377477Y1121137D1*
X1375034Y1118021D1*
X1372045Y1115424D1*
X1368619Y1113440D1*
X1364879Y1112140D1*
X1360960Y1111571D1*
X1357005Y1111754D1*
X1353156Y1112682D1*
X1349552Y1114322D1*
X1346324Y1116614D1*
X1343588Y1119476D1*
X1341442Y1122804D1*
X1339966Y1126478D1*
X1339211Y1130365D1*
X1339206Y1134324D1*
X1339950Y1138213D1*
X1341416Y1141891D1*
X1343552Y1145225D1*
X1346281Y1148094D1*
X1349503Y1150395D1*
X1353102Y1152045D1*
X1356949Y1152983D1*
X1360904Y1153177D1*
X1364823Y1152619D1*
X1368567Y1151329D1*
X1371999Y1149354D1*
X1374994Y1146765D1*
X1377446Y1143656D1*
X1379265Y1140140D1*
X1380386Y1136342D1*
X1380768Y1132373D1*
X1380397Y1128459D1*
X1583478Y1130017D2*
X1582368Y1126216D1*
X1580558Y1122695D1*
X1578115Y1119579D1*
X1575126Y1116982D1*
X1571700Y1114998D1*
X1567960Y1113697D1*
X1564042Y1113129D1*
X1560086Y1113312D1*
X1556237Y1114240D1*
X1553735Y1115378D1*
X1552949Y1114998D1*
X1549209Y1113697D1*
X1545291Y1113129D1*
X1541336Y1113312D1*
X1537487Y1114240D1*
X1534984Y1115378D1*
X1534200Y1114998D1*
X1530460Y1113697D1*
X1526542Y1113129D1*
X1522586Y1113312D1*
X1518737Y1114240D1*
X1515134Y1115880D1*
X1511905Y1118172D1*
X1509169Y1121034D1*
X1507024Y1124362D1*
X1505547Y1128036D1*
X1504793Y1131922D1*
X1504787Y1135882D1*
X1505531Y1139771D1*
X1506998Y1143449D1*
X1509134Y1146782D1*
X1511862Y1149652D1*
X1515084Y1151953D1*
X1518684Y1153602D1*
X1522530Y1154541D1*
X1526485Y1154735D1*
X1530405Y1154177D1*
X1534148Y1152887D1*
X1534829Y1152495D1*
X1537433Y1153602D1*
X1541280Y1154541D1*
X1545234Y1154735D1*
X1549154Y1154177D1*
X1552898Y1152887D1*
X1553578Y1152495D1*
X1556184Y1153602D1*
X1560030Y1154541D1*
X1563985Y1154735D1*
X1567905Y1154177D1*
X1571648Y1152887D1*
X1575080Y1150912D1*
X1578076Y1148323D1*
X1580528Y1145214D1*
X1582347Y1141697D1*
X1583467Y1137900D1*
X1583849Y1133930D1*
X1583478Y1130017D1*
X3106163Y1129550D2*
X3105053Y1125749D1*
X3103243Y1122227D1*
X3100800Y1119112D1*
X3097811Y1116515D1*
X3094385Y1114530D1*
X3090645Y1113230D1*
X3086727Y1112661D1*
X3082772Y1112844D1*
X3078922Y1113773D1*
X3075319Y1115413D1*
X3072090Y1117705D1*
X3069354Y1120567D1*
X3067209Y1123895D1*
X3065732Y1127568D1*
X3064978Y1131455D1*
X3064972Y1135415D1*
X3065716Y1139304D1*
X3067183Y1142981D1*
X3069319Y1146315D1*
X3072047Y1149184D1*
X3075269Y1151486D1*
X3078869Y1153135D1*
X3082715Y1154074D1*
X3086670Y1154268D1*
X3090590Y1153710D1*
X3094333Y1152420D1*
X3097765Y1150445D1*
X3100761Y1147856D1*
X3103213Y1144747D1*
X3105032Y1141230D1*
X3106152Y1137433D1*
X3106534Y1133463D1*
X3106163Y1129550D1*
X3322793Y1129348D2*
X3321683Y1125547D1*
X3319873Y1122025D1*
X3317430Y1118910D1*
X3314441Y1116313D1*
X3311015Y1114328D1*
X3307275Y1113028D1*
X3303357Y1112459D1*
X3299401Y1112642D1*
X3295552Y1113571D1*
X3291948Y1115210D1*
X3288720Y1117503D1*
X3285984Y1120365D1*
X3283839Y1123693D1*
X3282362Y1127366D1*
X3281608Y1131253D1*
X3281602Y1135213D1*
X3282346Y1139101D1*
X3283813Y1142779D1*
X3285949Y1146113D1*
X3288677Y1148982D1*
X3291899Y1151283D1*
X3295499Y1152933D1*
X3299345Y1153872D1*
X3303300Y1154066D1*
X3307220Y1153508D1*
X3310963Y1152218D1*
X3314395Y1150243D1*
X3317391Y1147654D1*
X3319842Y1144545D1*
X3321662Y1141028D1*
X3322782Y1137231D1*
X3323164Y1133261D1*
X3322793Y1129348D1*
X2674886Y2409509D2*
X2674254Y2409143D1*
X2670514Y2407843D1*
X2666595Y2407274D1*
X2662640Y2407457D1*
X2658791Y2408386D1*
X2655187Y2410025D1*
X2651959Y2412318D1*
X2649223Y2415180D1*
X2647078Y2418508D1*
X2645601Y2422181D1*
X2644846Y2426068D1*
X2644841Y2430028D1*
X2645585Y2433916D1*
X2647052Y2437594D1*
X2649188Y2440928D1*
X2651916Y2443797D1*
X2655138Y2446098D1*
X2658738Y2447748D1*
X2662584Y2448687D1*
X2666539Y2448881D1*
X2670459Y2448322D1*
X2674202Y2447033D1*
X2674882Y2446641D1*
X2677487Y2447748D1*
X2681333Y2448687D1*
X2685288Y2448881D1*
X2689208Y2448322D1*
X2692951Y2447033D1*
X2693632Y2446641D1*
X2696238Y2447748D1*
X2700084Y2448687D1*
X2704039Y2448881D1*
X2707959Y2448322D1*
X2711702Y2447033D1*
X2715134Y2445058D1*
X2718130Y2442469D1*
X2720581Y2439360D1*
X2722400Y2435843D1*
X2723521Y2432045D1*
X2723903Y2428076D1*
X2723532Y2424163D1*
X2722422Y2420362D1*
X2720612Y2416840D1*
X2718169Y2413725D1*
X2715180Y2411128D1*
X2711754Y2409143D1*
X2708014Y2407843D1*
X2704095Y2407274D1*
X2700140Y2407457D1*
X2696291Y2408386D1*
X2693789Y2409524D1*
X2693003Y2409143D1*
X2689263Y2407843D1*
X2685345Y2407274D1*
X2681390Y2407457D1*
X2677541Y2408386D1*
X2675038Y2409524D1*
X520589Y2088585D2*
X520407Y2086663D1*
X519297Y2082862D1*
X518496Y2081304D1*
X519276Y2079592D1*
X520396Y2075795D1*
X520778Y2071825D1*
X520407Y2067912D1*
X519297Y2064111D1*
X518496Y2062553D1*
X519276Y2060843D1*
X520396Y2057045D1*
X520778Y2053076D1*
X520407Y2049163D1*
X519297Y2045362D1*
X518496Y2043804D1*
X519276Y2042092D1*
X520396Y2038295D1*
X520778Y2034325D1*
X520407Y2030412D1*
X519297Y2026611D1*
X517487Y2023090D1*
X515044Y2019974D1*
X512055Y2017377D1*
X508629Y2015393D1*
X504889Y2014092D1*
X500971Y2013524D1*
X497016Y2013707D1*
X493167Y2014635D1*
X489563Y2016275D1*
X486334Y2018567D1*
X483598Y2021429D1*
X481453Y2024757D1*
X479976Y2028431D1*
X479222Y2032317D1*
X479216Y2036277D1*
X479960Y2040166D1*
X481362Y2043682D1*
X479976Y2047181D1*
X479222Y2051068D1*
X479216Y2055028D1*
X479960Y2058916D1*
X481362Y2062433D1*
X479976Y2065931D1*
X479222Y2069817D1*
X479216Y2073777D1*
X479960Y2077666D1*
X481362Y2081182D1*
X479976Y2084681D1*
X479222Y2088568D1*
X479216Y2092528D1*
X479960Y2096416D1*
X481427Y2100094D1*
X483563Y2103428D1*
X486291Y2106297D1*
X489513Y2108598D1*
X493113Y2110248D1*
X496959Y2111187D1*
X497960Y2111236D1*
X498710Y2115166D1*
X500176Y2118844D1*
X502312Y2122177D1*
X505041Y2125047D1*
X508263Y2127348D1*
X511862Y2128997D1*
X513541Y2129407D1*
X513590Y2130028D1*
X514334Y2133916D1*
X515801Y2137594D1*
X517937Y2140928D1*
X520665Y2143797D1*
X523887Y2146098D1*
X527487Y2147748D1*
X531333Y2148687D1*
X535288Y2148881D1*
X539208Y2148322D1*
X542951Y2147033D1*
X543632Y2146641D1*
X546238Y2147748D1*
X550084Y2148687D1*
X554039Y2148881D1*
X557959Y2148322D1*
X561702Y2147033D1*
X562382Y2146641D1*
X564987Y2147748D1*
X568833Y2148687D1*
X572788Y2148881D1*
X576708Y2148322D1*
X580451Y2147033D1*
X581132Y2146641D1*
X583738Y2147748D1*
X587584Y2148687D1*
X591539Y2148881D1*
X595459Y2148322D1*
X599202Y2147033D1*
X599882Y2146641D1*
X602487Y2147748D1*
X606333Y2148687D1*
X610288Y2148881D1*
X614208Y2148322D1*
X617951Y2147033D1*
X618632Y2146641D1*
X621238Y2147748D1*
X625084Y2148687D1*
X629039Y2148881D1*
X632959Y2148322D1*
X636702Y2147033D1*
X637382Y2146641D1*
X639987Y2147748D1*
X643833Y2148687D1*
X647788Y2148881D1*
X651708Y2148322D1*
X655451Y2147033D1*
X656132Y2146641D1*
X658738Y2147748D1*
X662584Y2148687D1*
X666539Y2148881D1*
X670459Y2148322D1*
X674202Y2147033D1*
X677634Y2145058D1*
X680630Y2142469D1*
X683081Y2139360D1*
X684900Y2135843D1*
X686021Y2132045D1*
X686265Y2129525D1*
X689827Y2128282D1*
X693258Y2126307D1*
X696254Y2123718D1*
X698706Y2120609D1*
X700525Y2117092D1*
X701646Y2113295D1*
X701837Y2111320D1*
X704834Y2110822D1*
X708577Y2109533D1*
X712009Y2107558D1*
X715005Y2104969D1*
X717457Y2101860D1*
X719276Y2098343D1*
X720396Y2094545D1*
X720778Y2090576D1*
X720407Y2086663D1*
X719297Y2082862D1*
X718496Y2081304D1*
X719276Y2079592D1*
X720396Y2075795D1*
X720778Y2071825D1*
X720407Y2067912D1*
X719297Y2064111D1*
X718496Y2062553D1*
X719276Y2060843D1*
X720396Y2057045D1*
X720778Y2053076D1*
X720407Y2049163D1*
X719297Y2045362D1*
X718496Y2043804D1*
X719276Y2042092D1*
X720396Y2038295D1*
X720778Y2034325D1*
X720407Y2030412D1*
X719297Y2026611D1*
X717487Y2023090D1*
X715044Y2019974D1*
X712055Y2017377D1*
X708629Y2015393D1*
X704889Y2014092D1*
X700971Y2013524D1*
X697016Y2013707D1*
X693167Y2014635D1*
X689563Y2016275D1*
X686334Y2018567D1*
X683598Y2021429D1*
X681453Y2024757D1*
X679976Y2028431D1*
X679222Y2032317D1*
X679216Y2036277D1*
X679960Y2040166D1*
X681362Y2043682D1*
X679976Y2047181D1*
X679222Y2051068D1*
X679216Y2055028D1*
X679960Y2058916D1*
X681362Y2062433D1*
X679976Y2065931D1*
X679222Y2069817D1*
X679216Y2073777D1*
X679960Y2077666D1*
X681362Y2081182D1*
X679976Y2084681D1*
X679222Y2088595D1*
X678265Y2088707D1*
X674416Y2089635D1*
X670812Y2091275D1*
X667584Y2093567D1*
X664847Y2096429D1*
X662702Y2099757D1*
X661226Y2103431D1*
X660471Y2107317D1*
X660470Y2107886D1*
X658791Y2108386D1*
X656289Y2109524D1*
X655503Y2109143D1*
X651763Y2107843D1*
X647845Y2107274D1*
X643890Y2107457D1*
X640041Y2108386D1*
X637538Y2109524D1*
X636754Y2109143D1*
X633014Y2107843D1*
X629095Y2107274D1*
X625140Y2107457D1*
X621291Y2108386D1*
X618789Y2109524D1*
X618003Y2109143D1*
X614263Y2107843D1*
X610345Y2107274D1*
X606390Y2107457D1*
X602541Y2108386D1*
X600038Y2109524D1*
X599254Y2109143D1*
X595514Y2107843D1*
X591595Y2107274D1*
X587640Y2107457D1*
X583791Y2108386D1*
X581289Y2109524D1*
X580503Y2109143D1*
X576763Y2107843D1*
X572845Y2107274D1*
X568890Y2107457D1*
X565041Y2108386D1*
X562538Y2109524D1*
X561754Y2109143D1*
X558014Y2107843D1*
X554095Y2107274D1*
X550140Y2107457D1*
X546291Y2108386D1*
X543789Y2109524D1*
X543003Y2109143D1*
X539479Y2107918D1*
X539157Y2105412D1*
X538046Y2101611D1*
X536237Y2098090D1*
X533793Y2094974D1*
X530805Y2092377D1*
X527378Y2090393D1*
X523638Y2089092D1*
X520688Y2088664D1*
X3339157Y1521037D2*
X3338046Y1517236D1*
X3336237Y1513714D1*
X3333793Y1510599D1*
X3330805Y1508002D1*
X3327378Y1506017D1*
X3323638Y1504717D1*
X3319720Y1504148D1*
X3315765Y1504331D1*
X3311916Y1505260D1*
X3308312Y1506899D1*
X3305084Y1509192D1*
X3302347Y1512054D1*
X3300202Y1515382D1*
X3298726Y1519055D1*
X3297971Y1522942D1*
X3297966Y1526902D1*
X3298710Y1530790D1*
X3300176Y1534468D1*
X3302312Y1537802D1*
X3305041Y1540671D1*
X3308263Y1542972D1*
X3311862Y1544622D1*
X3315709Y1545561D1*
X3319663Y1545755D1*
X3323583Y1545197D1*
X3327327Y1543907D1*
X3330758Y1541932D1*
X3333754Y1539343D1*
X3336206Y1536234D1*
X3338025Y1532717D1*
X3339146Y1528920D1*
X3339528Y1524950D1*
X3339157Y1521037D1*
X2295406Y917912D2*
X2294296Y914111D1*
X2292486Y910590D1*
X2290043Y907474D1*
X2287054Y904877D1*
X2283628Y902893D1*
X2279888Y901592D1*
X2275969Y901024D1*
X2272014Y901207D1*
X2268165Y902135D1*
X2264561Y903775D1*
X2261333Y906067D1*
X2258597Y908929D1*
X2256452Y912257D1*
X2254975Y915931D1*
X2254220Y919817D1*
X2254215Y923777D1*
X2254959Y927666D1*
X2256426Y931344D1*
X2258562Y934677D1*
X2261290Y937547D1*
X2264512Y939848D1*
X2268112Y941497D1*
X2271958Y942436D1*
X2275913Y942630D1*
X2279833Y942072D1*
X2283576Y940782D1*
X2287008Y938807D1*
X2290004Y936218D1*
X2292455Y933109D1*
X2294274Y929592D1*
X2295395Y925795D1*
X2295777Y921825D1*
X2295406Y917912D1*
X2511356Y983861D2*
X2510246Y980060D1*
X2508436Y976538D1*
X2505993Y973423D1*
X2503004Y970826D1*
X2499578Y968841D1*
X2495838Y967541D1*
X2491920Y966972D1*
X2487964Y967155D1*
X2484115Y968084D1*
X2480511Y969724D1*
X2477283Y972016D1*
X2474547Y974878D1*
X2472402Y978206D1*
X2470925Y981879D1*
X2470171Y985766D1*
X2470165Y989726D1*
X2470909Y993615D1*
X2472376Y997292D1*
X2474512Y1000626D1*
X2477240Y1003495D1*
X2480462Y1005797D1*
X2484062Y1007446D1*
X2487908Y1008385D1*
X2491863Y1008579D1*
X2495783Y1008021D1*
X2499526Y1006731D1*
X2502958Y1004756D1*
X2505954Y1002167D1*
X2508405Y999058D1*
X2510225Y995541D1*
X2511345Y991744D1*
X2511727Y987774D1*
X2511356Y983861D1*
X2632907Y939787D2*
X2631797Y935987D1*
X2629987Y932465D1*
X2627544Y929349D1*
X2624555Y926752D1*
X2621129Y924768D1*
X2617389Y923468D1*
X2613471Y922899D1*
X2609516Y923082D1*
X2605667Y924010D1*
X2602063Y925650D1*
X2598834Y927942D1*
X2596098Y930804D1*
X2593953Y934132D1*
X2592476Y937806D1*
X2591722Y941693D1*
X2591716Y945652D1*
X2592460Y949541D1*
X2593927Y953219D1*
X2596063Y956553D1*
X2598791Y959422D1*
X2602013Y961723D1*
X2605613Y963373D1*
X2609459Y964312D1*
X2613414Y964505D1*
X2617334Y963947D1*
X2621077Y962657D1*
X2624509Y960682D1*
X2627505Y958093D1*
X2629957Y954984D1*
X2631776Y951468D1*
X2632896Y947670D1*
X2633278Y943701D1*
X2632907Y939787D1*
X979781Y2302287D2*
X978671Y2298487D1*
X976861Y2294965D1*
X974418Y2291849D1*
X971429Y2289252D1*
X968003Y2287268D1*
X964263Y2285968D1*
X960345Y2285399D1*
X956390Y2285582D1*
X952541Y2286510D1*
X948937Y2288150D1*
X945708Y2290442D1*
X942972Y2293304D1*
X940827Y2296632D1*
X939350Y2300306D1*
X938596Y2304193D1*
X938590Y2308152D1*
X939334Y2312041D1*
X940801Y2315719D1*
X942937Y2319053D1*
X945665Y2321922D1*
X948887Y2324223D1*
X952487Y2325873D1*
X956333Y2326812D1*
X960288Y2327005D1*
X964208Y2326447D1*
X967951Y2325157D1*
X971383Y2323182D1*
X974379Y2320593D1*
X976831Y2317484D1*
X978650Y2313968D1*
X979770Y2310170D1*
X980152Y2306201D1*
X979781Y2302287D1*
X1389749Y1559082D2*
X1389847Y1558929D1*
X1392584Y1556067D1*
X1395812Y1553775D1*
X1399416Y1552135D1*
X1403265Y1551207D1*
X1407220Y1551024D1*
X1411138Y1551592D1*
X1414878Y1552893D1*
X1418305Y1554877D1*
X1421293Y1557474D1*
X1423737Y1560590D1*
X1425546Y1564111D1*
X1426657Y1567912D1*
X1427028Y1571854D1*
X1426646Y1575795D1*
X1425525Y1579592D1*
X1423706Y1583109D1*
X1421254Y1586218D1*
X1418258Y1588807D1*
X1417203Y1589414D1*
X1417281Y1589787D1*
X1417200Y1589509D1*
X1418258Y1588807D1*
X1421254Y1586218D1*
X1423706Y1583109D1*
X1425525Y1579592D1*
X1426646Y1575795D1*
X1427028Y1571825D1*
X1426657Y1567912D1*
X1425546Y1564111D1*
X1423737Y1560590D1*
X1421293Y1557474D1*
X1418305Y1554877D1*
X1414878Y1552893D1*
X1411138Y1551592D1*
X1407220Y1551024D1*
X1403265Y1551207D1*
X1399416Y1552135D1*
X1395812Y1553775D1*
X1392584Y1556067D1*
X1389847Y1558929D1*
X1389749Y1559082D1*
X1386138Y1557842D1*
X1382220Y1557273D1*
X1378265Y1557456D1*
X1374416Y1558384D1*
X1370812Y1560024D1*
X1367584Y1562316D1*
X1364847Y1565178D1*
X1362702Y1568506D1*
X1361226Y1572180D1*
X1360471Y1576067D1*
X1360466Y1580026D1*
X1361210Y1583915D1*
X1362676Y1587593D1*
X1364812Y1590927D1*
X1367541Y1593796D1*
X1370763Y1596097D1*
X1374362Y1597747D1*
X1376507Y1598270D1*
X1376834Y1599541D1*
X1378301Y1603219D1*
X1380437Y1606553D1*
X1383165Y1609422D1*
X1386387Y1611723D1*
X1389987Y1613373D1*
X1393833Y1614312D1*
X1397788Y1614505D1*
X1401708Y1613947D1*
X1405451Y1612657D1*
X1408883Y1610682D1*
X1411879Y1608093D1*
X1414331Y1604984D1*
X1416150Y1601468D1*
X1417270Y1597670D1*
X1417652Y1593701D1*
X1417281Y1589787D1*
X2017281Y1983537D2*
X2016171Y1979736D1*
X2014361Y1976214D1*
X2011918Y1973099D1*
X2008929Y1970502D1*
X2005503Y1968517D1*
X2001763Y1967217D1*
X1997845Y1966648D1*
X1993890Y1966831D1*
X1990041Y1967760D1*
X1986437Y1969399D1*
X1983208Y1971692D1*
X1980472Y1974554D1*
X1978327Y1977882D1*
X1976850Y1981555D1*
X1976096Y1985442D1*
X1976090Y1989402D1*
X1976834Y1993290D1*
X1978301Y1996968D1*
X1980437Y2000302D1*
X1983165Y2003171D1*
X1986387Y2005472D1*
X1989987Y2007122D1*
X1993833Y2008061D1*
X1997788Y2008255D1*
X2001708Y2007697D1*
X2005451Y2006407D1*
X2008883Y2004432D1*
X2011879Y2001843D1*
X2014331Y1998734D1*
X2016150Y1995217D1*
X2017270Y1991420D1*
X2017652Y1987450D1*
X2017281Y1983537D1*
X2157906Y2202287D2*
X2156796Y2198487D1*
X2154986Y2194965D1*
X2152543Y2191849D1*
X2149554Y2189252D1*
X2146128Y2187268D1*
X2142388Y2185968D1*
X2138469Y2185399D1*
X2134514Y2185582D1*
X2130665Y2186510D1*
X2127061Y2188150D1*
X2123833Y2190442D1*
X2121097Y2193304D1*
X2118952Y2196632D1*
X2117475Y2200306D1*
X2116720Y2204193D1*
X2116715Y2208152D1*
X2117459Y2212041D1*
X2118926Y2215719D1*
X2121062Y2219053D1*
X2123790Y2221922D1*
X2127012Y2224223D1*
X2130612Y2225873D1*
X2134458Y2226812D1*
X2138413Y2227005D1*
X2142333Y2226447D1*
X2146076Y2225157D1*
X2149508Y2223182D1*
X2152504Y2220593D1*
X2154955Y2217484D1*
X2156774Y2213968D1*
X2157895Y2210170D1*
X2158277Y2206201D1*
X2157906Y2202287D1*
X2248533Y2224161D2*
X2247423Y2220361D1*
X2245613Y2216839D1*
X2243170Y2213723D1*
X2240181Y2211126D1*
X2236755Y2209142D1*
X2233015Y2207842D1*
X2229097Y2207273D1*
X2225142Y2207456D1*
X2221293Y2208384D1*
X2217689Y2210024D1*
X2214460Y2212316D1*
X2211724Y2215178D1*
X2209579Y2218506D1*
X2208102Y2222180D1*
X2207348Y2226067D1*
X2207342Y2230026D1*
X2208086Y2233915D1*
X2209553Y2237593D1*
X2211689Y2240927D1*
X2214417Y2243796D1*
X2217639Y2246097D1*
X2221239Y2247747D1*
X2225085Y2248686D1*
X2229040Y2248879D1*
X2232960Y2248321D1*
X2236703Y2247031D1*
X2240135Y2245056D1*
X2243131Y2242467D1*
X2245583Y2239358D1*
X2247402Y2235842D1*
X2248522Y2232044D1*
X2248904Y2228075D1*
X2248533Y2224161D1*
X1073448Y843673D2*
X1072338Y839872D1*
X1070528Y836351D1*
X1068085Y833235D1*
X1065096Y830638D1*
X1061670Y828654D1*
X1057930Y827354D1*
X1054011Y826785D1*
X1050056Y826968D1*
X1046207Y827896D1*
X1042603Y829536D1*
X1039375Y831828D1*
X1036639Y834690D1*
X1034494Y838018D1*
X1033017Y841692D1*
X1032262Y845579D1*
X1032257Y849538D1*
X1033001Y853427D1*
X1034468Y857105D1*
X1036604Y860439D1*
X1039332Y863308D1*
X1042554Y865609D1*
X1046154Y867259D1*
X1050000Y868197D1*
X1053955Y868391D1*
X1057875Y867833D1*
X1061618Y866543D1*
X1065050Y864568D1*
X1068046Y861979D1*
X1070497Y858870D1*
X1072316Y855354D1*
X1073437Y851556D1*
X1073819Y847587D1*
X1073448Y843673D1*
X1373532Y2367912D2*
X1372422Y2364111D1*
X1370612Y2360590D1*
X1368169Y2357474D1*
X1365180Y2354877D1*
X1361754Y2352893D1*
X1358014Y2351592D1*
X1354095Y2351024D1*
X1350140Y2351207D1*
X1346291Y2352135D1*
X1342687Y2353775D1*
X1339459Y2356067D1*
X1336723Y2358929D1*
X1334578Y2362257D1*
X1333101Y2365931D1*
X1332346Y2369817D1*
X1332341Y2373777D1*
X1333085Y2377666D1*
X1334552Y2381344D1*
X1336688Y2384677D1*
X1339416Y2387547D1*
X1342638Y2389848D1*
X1346238Y2391497D1*
X1350084Y2392436D1*
X1354039Y2392630D1*
X1357959Y2392072D1*
X1361702Y2390782D1*
X1365134Y2388807D1*
X1368130Y2386218D1*
X1370581Y2383109D1*
X1372400Y2379592D1*
X1373521Y2375795D1*
X1373903Y2371825D1*
X1373532Y2367912D1*
X1809217Y1903849D2*
X1808107Y1900048D1*
X1806297Y1896527D1*
X1803854Y1893411D1*
X1800865Y1890814D1*
X1797439Y1888830D1*
X1793699Y1887529D1*
X1789780Y1886961D1*
X1785825Y1887144D1*
X1781976Y1888072D1*
X1778372Y1889712D1*
X1775144Y1892004D1*
X1772408Y1894866D1*
X1770263Y1898194D1*
X1768786Y1901868D1*
X1768031Y1905754D1*
X1768026Y1909714D1*
X1768770Y1913603D1*
X1770237Y1917281D1*
X1772373Y1920614D1*
X1775101Y1923484D1*
X1778323Y1925785D1*
X1781923Y1927434D1*
X1785769Y1928373D1*
X1789724Y1928567D1*
X1793644Y1928009D1*
X1797387Y1926719D1*
X1800819Y1924744D1*
X1803815Y1922155D1*
X1806266Y1919046D1*
X1808085Y1915529D1*
X1809206Y1911732D1*
X1809588Y1907762D1*
X1809217Y1903849D1*
X1808107Y1900048D1*
X1806297Y1896527D1*
X1803854Y1893411D1*
X1800865Y1890814D1*
X1797439Y1888830D1*
X1793699Y1887529D1*
X1789780Y1886961D1*
X1785825Y1887144D1*
X1781976Y1888072D1*
X1778372Y1889712D1*
X1775144Y1892004D1*
X1772408Y1894866D1*
X1770263Y1898194D1*
X1768786Y1901868D1*
X1768031Y1905754D1*
X1768026Y1909714D1*
X1768770Y1913603D1*
X1770237Y1917281D1*
X1772373Y1920614D1*
X1775101Y1923484D1*
X1778323Y1925785D1*
X1781923Y1927434D1*
X1785769Y1928373D1*
X1789724Y1928567D1*
X1793644Y1928009D1*
X1797387Y1926719D1*
X1800819Y1924744D1*
X1803815Y1922155D1*
X1806266Y1919046D1*
X1808085Y1915529D1*
X1809206Y1911732D1*
X1809588Y1907762D1*
X1809217Y1903849D1*
X1439157Y974163D2*
X1438046Y970362D1*
X1436237Y966840D1*
X1433793Y963725D1*
X1430805Y961128D1*
X1427378Y959143D1*
X1423638Y957843D1*
X1419720Y957274D1*
X1415765Y957457D1*
X1411916Y958386D1*
X1408312Y960025D1*
X1405084Y962318D1*
X1402347Y965180D1*
X1400202Y968508D1*
X1398726Y972181D1*
X1397971Y976068D1*
X1397966Y980028D1*
X1398710Y983916D1*
X1400176Y987594D1*
X1402312Y990928D1*
X1405041Y993797D1*
X1408263Y996098D1*
X1411862Y997748D1*
X1415709Y998687D1*
X1419663Y998881D1*
X1423583Y998322D1*
X1427327Y997033D1*
X1430758Y995058D1*
X1433754Y992469D1*
X1436206Y989360D1*
X1438025Y985843D1*
X1439146Y982045D1*
X1439528Y978076D1*
X1439157Y974163D1*
X1507907Y974161D2*
X1506797Y970361D1*
X1504987Y966839D1*
X1502544Y963723D1*
X1499555Y961126D1*
X1496129Y959142D1*
X1492389Y957842D1*
X1488471Y957273D1*
X1484516Y957456D1*
X1480667Y958384D1*
X1477063Y960024D1*
X1473834Y962316D1*
X1471098Y965178D1*
X1468953Y968506D1*
X1467476Y972180D1*
X1466722Y976067D1*
X1466716Y980026D1*
X1467460Y983915D1*
X1468927Y987593D1*
X1471063Y990927D1*
X1473791Y993796D1*
X1477013Y996097D1*
X1480613Y997747D1*
X1484459Y998686D1*
X1488414Y998879D1*
X1492334Y998321D1*
X1496077Y997031D1*
X1499509Y995056D1*
X1502505Y992467D1*
X1504957Y989358D1*
X1506776Y985842D1*
X1507896Y982044D1*
X1508278Y978075D1*
X1507907Y974161D1*
X1967281Y2014787D2*
X1966171Y2010987D1*
X1964361Y2007465D1*
X1961918Y2004349D1*
X1958929Y2001752D1*
X1955503Y1999768D1*
X1951763Y1998468D1*
X1947845Y1997899D1*
X1943890Y1998082D1*
X1940041Y1999010D1*
X1936437Y2000650D1*
X1933208Y2002942D1*
X1930472Y2005804D1*
X1928327Y2009132D1*
X1926850Y2012806D1*
X1926096Y2016693D1*
X1926090Y2020652D1*
X1926834Y2024541D1*
X1928301Y2028219D1*
X1930437Y2031553D1*
X1933165Y2034422D1*
X1936387Y2036723D1*
X1939987Y2038373D1*
X1943833Y2039312D1*
X1947788Y2039505D1*
X1951708Y2038947D1*
X1955451Y2037657D1*
X1958883Y2035682D1*
X1961879Y2033093D1*
X1964331Y2029984D1*
X1966150Y2026468D1*
X1967270Y2022670D1*
X1967652Y2018701D1*
X1967281Y2014787D1*
X2045406Y2080412D2*
X2044296Y2076611D1*
X2042486Y2073090D1*
X2040043Y2069974D1*
X2037054Y2067377D1*
X2033628Y2065393D1*
X2029888Y2064092D1*
X2025969Y2063524D1*
X2022014Y2063707D1*
X2018165Y2064635D1*
X2014561Y2066275D1*
X2011333Y2068567D1*
X2008597Y2071429D1*
X2006452Y2074757D1*
X2004975Y2078431D1*
X2004220Y2082317D1*
X2004215Y2086277D1*
X2004959Y2090166D1*
X2006426Y2093844D1*
X2008562Y2097177D1*
X2011290Y2100047D1*
X2014512Y2102348D1*
X2018112Y2103997D1*
X2021958Y2104936D1*
X2025913Y2105130D1*
X2029833Y2104572D1*
X2033576Y2103282D1*
X2037008Y2101307D1*
X2040004Y2098718D1*
X2042455Y2095609D1*
X2044274Y2092092D1*
X2045395Y2088295D1*
X2045777Y2084325D1*
X2045406Y2080412D1*
X2004783Y2111661D2*
X2003672Y2107861D1*
X2001863Y2104339D1*
X1999419Y2101223D1*
X1996431Y2098626D1*
X1993004Y2096642D1*
X1989264Y2095342D1*
X1985346Y2094773D1*
X1981391Y2094956D1*
X1977542Y2095884D1*
X1973938Y2097524D1*
X1970710Y2099816D1*
X1967973Y2102678D1*
X1965828Y2106006D1*
X1964352Y2109680D1*
X1963597Y2113567D1*
X1963592Y2117526D1*
X1964336Y2121415D1*
X1965802Y2125093D1*
X1967938Y2128427D1*
X1970667Y2131296D1*
X1973889Y2133597D1*
X1977488Y2135247D1*
X1981335Y2136186D1*
X1985289Y2136379D1*
X1989209Y2135821D1*
X1992953Y2134531D1*
X1996384Y2132556D1*
X1999380Y2129967D1*
X2001832Y2126858D1*
X2003651Y2123342D1*
X2004772Y2119544D1*
X2005154Y2115575D1*
X2004783Y2111661D1*
X1274294Y2314235D2*
X1273184Y2310434D1*
X1271375Y2306912D1*
X1268931Y2303797D1*
X1265942Y2301200D1*
X1262516Y2299215D1*
X1258776Y2297915D1*
X1254858Y2297346D1*
X1250903Y2297529D1*
X1247054Y2298458D1*
X1243450Y2300098D1*
X1240221Y2302390D1*
X1237485Y2305252D1*
X1235340Y2308580D1*
X1233863Y2312253D1*
X1233109Y2316140D1*
X1233103Y2320100D1*
X1233847Y2323989D1*
X1235314Y2327666D1*
X1237450Y2331000D1*
X1240178Y2333870D1*
X1243401Y2336171D1*
X1247000Y2337820D1*
X1250847Y2338759D1*
X1254801Y2338953D1*
X1258721Y2338395D1*
X1262464Y2337105D1*
X1265896Y2335130D1*
X1268892Y2332541D1*
X1271344Y2329432D1*
X1273163Y2325915D1*
X1274284Y2322118D1*
X1274665Y2318148D1*
X1274294Y2314235D1*
X2001657Y989787D2*
X2000546Y985987D1*
X1998737Y982465D1*
X1996293Y979349D1*
X1993305Y976752D1*
X1989878Y974768D1*
X1986138Y973468D1*
X1982220Y972899D1*
X1978265Y973082D1*
X1974416Y974010D1*
X1970812Y975650D1*
X1967584Y977942D1*
X1964847Y980804D1*
X1962702Y984132D1*
X1961226Y987806D1*
X1960471Y991693D1*
X1960466Y995652D1*
X1961210Y999541D1*
X1962676Y1003219D1*
X1964812Y1006553D1*
X1967541Y1009422D1*
X1970763Y1011723D1*
X1974362Y1013373D1*
X1978209Y1014312D1*
X1982163Y1014505D1*
X1986083Y1013947D1*
X1989827Y1012657D1*
X1993258Y1010682D1*
X1996254Y1008093D1*
X1998706Y1004984D1*
X2000525Y1001468D1*
X2001646Y997670D1*
X2002028Y993701D1*
X2001657Y989787D1*
X1232907Y2371037D2*
X1231797Y2367236D1*
X1229987Y2363714D1*
X1227544Y2360599D1*
X1224555Y2358002D1*
X1221129Y2356017D1*
X1217389Y2354717D1*
X1213471Y2354148D1*
X1209516Y2354331D1*
X1205667Y2355260D1*
X1202063Y2356899D1*
X1198834Y2359192D1*
X1196098Y2362054D1*
X1193953Y2365382D1*
X1192476Y2369055D1*
X1191722Y2372942D1*
X1191716Y2376902D1*
X1192460Y2380790D1*
X1193927Y2384468D1*
X1196063Y2387802D1*
X1198791Y2390671D1*
X1202013Y2392972D1*
X1205613Y2394622D1*
X1209459Y2395561D1*
X1213414Y2395755D1*
X1217334Y2395197D1*
X1221077Y2393907D1*
X1224509Y2391932D1*
X1227505Y2389343D1*
X1229957Y2386234D1*
X1231776Y2382717D1*
X1232896Y2378920D1*
X1233278Y2374950D1*
X1232907Y2371037D1*
X1961032Y949163D2*
X1959922Y945362D1*
X1958112Y941840D1*
X1955669Y938725D1*
X1952680Y936128D1*
X1949254Y934143D1*
X1945514Y932843D1*
X1941595Y932274D1*
X1937640Y932457D1*
X1933791Y933386D1*
X1930187Y935025D1*
X1926959Y937318D1*
X1924223Y940180D1*
X1922078Y943508D1*
X1920601Y947181D1*
X1919846Y951068D1*
X1919841Y955028D1*
X1920585Y958916D1*
X1922052Y962594D1*
X1924188Y965928D1*
X1926916Y968797D1*
X1930138Y971098D1*
X1933738Y972748D1*
X1937584Y973687D1*
X1941539Y973881D1*
X1945459Y973322D1*
X1949202Y972033D1*
X1952634Y970058D1*
X1955630Y967469D1*
X1958081Y964360D1*
X1959900Y960843D1*
X1961021Y957045D1*
X1961403Y953076D1*
X1961032Y949163D1*
X1195554Y2333538D2*
X1194444Y2329737D1*
X1192634Y2326216D1*
X1190191Y2323100D1*
X1187202Y2320503D1*
X1183776Y2318519D1*
X1180036Y2317218D1*
X1176118Y2316650D1*
X1172163Y2316833D1*
X1168313Y2317761D1*
X1164710Y2319401D1*
X1161481Y2321693D1*
X1158745Y2324555D1*
X1156600Y2327883D1*
X1155123Y2331557D1*
X1154369Y2335443D1*
X1154363Y2339403D1*
X1155107Y2343292D1*
X1156574Y2346970D1*
X1158710Y2350303D1*
X1161438Y2353173D1*
X1164660Y2355474D1*
X1168260Y2357123D1*
X1172106Y2358062D1*
X1176061Y2358256D1*
X1179981Y2357698D1*
X1183724Y2356408D1*
X1187156Y2354433D1*
X1190152Y2351844D1*
X1192604Y2348735D1*
X1194423Y2345218D1*
X1195543Y2341421D1*
X1195925Y2337451D1*
X1195554Y2333538D1*
X1907906Y949163D2*
X1906796Y945362D1*
X1904986Y941840D1*
X1902543Y938725D1*
X1899554Y936128D1*
X1896128Y934143D1*
X1892388Y932843D1*
X1888469Y932274D1*
X1884514Y932457D1*
X1880665Y933386D1*
X1877061Y935025D1*
X1873833Y937318D1*
X1871097Y940180D1*
X1868952Y943508D1*
X1867475Y947181D1*
X1866720Y951068D1*
X1866715Y955028D1*
X1867459Y958916D1*
X1868926Y962594D1*
X1871062Y965928D1*
X1873790Y968797D1*
X1877012Y971098D1*
X1880612Y972748D1*
X1884458Y973687D1*
X1888413Y973881D1*
X1892333Y973322D1*
X1896076Y972033D1*
X1899508Y970058D1*
X1902504Y967469D1*
X1904955Y964360D1*
X1906774Y960843D1*
X1907895Y957045D1*
X1908277Y953076D1*
X1907906Y949163D1*
X1154781Y2371037D2*
X1153671Y2367236D1*
X1151861Y2363714D1*
X1149418Y2360599D1*
X1146429Y2358002D1*
X1143003Y2356017D1*
X1139263Y2354717D1*
X1135345Y2354148D1*
X1131390Y2354331D1*
X1127541Y2355260D1*
X1123937Y2356899D1*
X1120708Y2359192D1*
X1117972Y2362054D1*
X1115827Y2365382D1*
X1114350Y2369055D1*
X1113596Y2372942D1*
X1113590Y2376902D1*
X1114334Y2380790D1*
X1115801Y2384468D1*
X1117937Y2387802D1*
X1120665Y2390671D1*
X1123887Y2392972D1*
X1127487Y2394622D1*
X1131333Y2395561D1*
X1135288Y2395755D1*
X1139208Y2395197D1*
X1142951Y2393907D1*
X1146383Y2391932D1*
X1149379Y2389343D1*
X1151831Y2386234D1*
X1153650Y2382717D1*
X1154770Y2378920D1*
X1155152Y2374950D1*
X1154781Y2371037D1*
X1870406Y986660D2*
X1869296Y982859D1*
X1867486Y979338D1*
X1865043Y976222D1*
X1862054Y973625D1*
X1858628Y971641D1*
X1854888Y970341D1*
X1850969Y969772D1*
X1847014Y969955D1*
X1843165Y970883D1*
X1839561Y972523D1*
X1836333Y974815D1*
X1833597Y977677D1*
X1831452Y981005D1*
X1829975Y984679D1*
X1829220Y988566D1*
X1829215Y992525D1*
X1829959Y996414D1*
X1831426Y1000092D1*
X1833562Y1003425D1*
X1836290Y1006295D1*
X1839512Y1008596D1*
X1843112Y1010245D1*
X1846958Y1011184D1*
X1850913Y1011378D1*
X1854833Y1010820D1*
X1858576Y1009530D1*
X1862008Y1007555D1*
X1865004Y1004966D1*
X1867455Y1001857D1*
X1869274Y998340D1*
X1870395Y994543D1*
X1870777Y990573D1*
X1870406Y986660D1*
X1097129Y2334697D2*
X1096019Y2330896D1*
X1094209Y2327374D1*
X1091766Y2324259D1*
X1088777Y2321662D1*
X1085351Y2319677D1*
X1081611Y2318377D1*
X1077693Y2317808D1*
X1073737Y2317991D1*
X1069888Y2318920D1*
X1066284Y2320560D1*
X1063056Y2322852D1*
X1060320Y2325714D1*
X1058175Y2329042D1*
X1056698Y2332715D1*
X1055943Y2336602D1*
X1055938Y2340562D1*
X1056682Y2344451D1*
X1058149Y2348128D1*
X1060285Y2351462D1*
X1063013Y2354331D1*
X1066235Y2356633D1*
X1069835Y2358282D1*
X1073681Y2359221D1*
X1077636Y2359415D1*
X1081556Y2358857D1*
X1085299Y2357567D1*
X1088731Y2355592D1*
X1091727Y2353003D1*
X1094178Y2349894D1*
X1095998Y2346377D1*
X1097118Y2342580D1*
X1097500Y2338610D1*
X1097129Y2334697D1*
X1832906Y949161D2*
X1831796Y945361D1*
X1829986Y941839D1*
X1827543Y938723D1*
X1824554Y936126D1*
X1821128Y934142D1*
X1817388Y932842D1*
X1813469Y932273D1*
X1809514Y932456D1*
X1805665Y933384D1*
X1802061Y935024D1*
X1798833Y937316D1*
X1796097Y940178D1*
X1793952Y943506D1*
X1792475Y947180D1*
X1791720Y951067D1*
X1791715Y955026D1*
X1792459Y958915D1*
X1793926Y962593D1*
X1796062Y965927D1*
X1798790Y968796D1*
X1802012Y971097D1*
X1805612Y972747D1*
X1809458Y973686D1*
X1813413Y973879D1*
X1817333Y973321D1*
X1821076Y972031D1*
X1824508Y970056D1*
X1827504Y967467D1*
X1829955Y964358D1*
X1831774Y960842D1*
X1832895Y957044D1*
X1833277Y953075D1*
X1832906Y949161D1*
X1057759Y2371037D2*
X1056649Y2367236D1*
X1054839Y2363714D1*
X1052396Y2360599D1*
X1049407Y2358002D1*
X1045981Y2356017D1*
X1042241Y2354717D1*
X1038322Y2354148D1*
X1034367Y2354331D1*
X1030518Y2355260D1*
X1026914Y2356899D1*
X1023686Y2359192D1*
X1020950Y2362054D1*
X1018805Y2365382D1*
X1017328Y2369055D1*
X1016573Y2372942D1*
X1016568Y2376902D1*
X1017312Y2380790D1*
X1018779Y2384468D1*
X1020915Y2387802D1*
X1023643Y2390671D1*
X1026865Y2392972D1*
X1030465Y2394622D1*
X1034311Y2395561D1*
X1038266Y2395755D1*
X1042186Y2395197D1*
X1045929Y2393907D1*
X1049361Y2391932D1*
X1052357Y2389343D1*
X1054808Y2386234D1*
X1056627Y2382717D1*
X1057748Y2378920D1*
X1058130Y2374950D1*
X1057759Y2371037D1*
X1792826Y984081D2*
X1791716Y980281D1*
X1789906Y976759D1*
X1787463Y973643D1*
X1784474Y971046D1*
X1781048Y969062D1*
X1777308Y967762D1*
X1773389Y967193D1*
X1769434Y967376D1*
X1765585Y968304D1*
X1761981Y969944D1*
X1758753Y972236D1*
X1756017Y975098D1*
X1753872Y978426D1*
X1752395Y982100D1*
X1751640Y985987D1*
X1751635Y989946D1*
X1752379Y993835D1*
X1753846Y997513D1*
X1755982Y1000847D1*
X1758710Y1003716D1*
X1761932Y1006017D1*
X1765531Y1007667D1*
X1769378Y1008605D1*
X1773333Y1008799D1*
X1777253Y1008241D1*
X1780996Y1006951D1*
X1784428Y1004976D1*
X1787424Y1002387D1*
X1789875Y999278D1*
X1791694Y995762D1*
X1792815Y991964D1*
X1793197Y987995D1*
X1792826Y984081D1*
X1018389Y2334079D2*
X1017279Y2330278D1*
X1015469Y2326756D1*
X1013026Y2323641D1*
X1010037Y2321044D1*
X1006611Y2319059D1*
X1002871Y2317759D1*
X998952Y2317190D1*
X994997Y2317373D1*
X991148Y2318302D1*
X987544Y2319941D1*
X984316Y2322234D1*
X981580Y2325096D1*
X979435Y2328424D1*
X977958Y2332097D1*
X977203Y2335984D1*
X977198Y2339944D1*
X977942Y2343832D1*
X979409Y2347510D1*
X981545Y2350844D1*
X984273Y2353713D1*
X987495Y2356014D1*
X991094Y2357664D1*
X994941Y2358603D1*
X998896Y2358797D1*
X1002816Y2358239D1*
X1006559Y2356949D1*
X1009991Y2354974D1*
X1012987Y2352385D1*
X1015438Y2349276D1*
X1017257Y2345759D1*
X1018378Y2341962D1*
X1018760Y2337992D1*
X1018389Y2334079D1*
X1726657Y955412D2*
X1725546Y951611D1*
X1723737Y948090D1*
X1721293Y944974D1*
X1718305Y942377D1*
X1714878Y940393D1*
X1711138Y939092D1*
X1707220Y938524D1*
X1703265Y938707D1*
X1699416Y939635D1*
X1695812Y941275D1*
X1692584Y943567D1*
X1689847Y946429D1*
X1687702Y949757D1*
X1686226Y953431D1*
X1685471Y957317D1*
X1685466Y961277D1*
X1686210Y965166D1*
X1687676Y968844D1*
X1689812Y972177D1*
X1692541Y975047D1*
X1695763Y977348D1*
X1699362Y978997D1*
X1703209Y979936D1*
X1707163Y980130D1*
X1711083Y979572D1*
X1714827Y978282D1*
X1718258Y976307D1*
X1721254Y973718D1*
X1723706Y970609D1*
X1725525Y967092D1*
X1726646Y963295D1*
X1727028Y959325D1*
X1726657Y955412D1*
X979019Y2371037D2*
X977908Y2367236D1*
X976099Y2363714D1*
X973656Y2360599D1*
X970667Y2358002D1*
X967241Y2356017D1*
X963501Y2354717D1*
X959582Y2354148D1*
X955627Y2354331D1*
X951778Y2355260D1*
X948174Y2356899D1*
X944946Y2359192D1*
X942210Y2362054D1*
X940064Y2365382D1*
X938588Y2369055D1*
X937833Y2372942D1*
X937828Y2376902D1*
X938572Y2380790D1*
X940038Y2384468D1*
X942175Y2387802D1*
X944903Y2390671D1*
X948125Y2392972D1*
X951724Y2394622D1*
X955571Y2395561D1*
X959526Y2395755D1*
X963445Y2395197D1*
X967189Y2393907D1*
X970621Y2391932D1*
X973616Y2389343D1*
X976068Y2386234D1*
X977887Y2382717D1*
X979008Y2378920D1*
X979390Y2374950D1*
X979019Y2371037D1*
X1676657Y986663D2*
X1675546Y982862D1*
X1673737Y979340D1*
X1671293Y976225D1*
X1668305Y973628D1*
X1664878Y971643D1*
X1661138Y970343D1*
X1657220Y969774D1*
X1653265Y969957D1*
X1649416Y970886D1*
X1645812Y972525D1*
X1642584Y974818D1*
X1639847Y977680D1*
X1637702Y981008D1*
X1636226Y984681D1*
X1635471Y988568D1*
X1635466Y992528D1*
X1636210Y996416D1*
X1637676Y1000094D1*
X1639812Y1003428D1*
X1642541Y1006297D1*
X1645763Y1008598D1*
X1649362Y1010248D1*
X1653209Y1011187D1*
X1657163Y1011381D1*
X1661083Y1010822D1*
X1664827Y1009533D1*
X1668258Y1007558D1*
X1671254Y1004969D1*
X1673706Y1001860D1*
X1675525Y998343D1*
X1676646Y994545D1*
X1677028Y990576D1*
X1676657Y986663D1*
X2064155Y1374161D2*
X2063045Y1370361D1*
X2061235Y1366839D1*
X2058792Y1363723D1*
X2055803Y1361126D1*
X2052377Y1359142D1*
X2048637Y1357842D1*
X2044719Y1357273D1*
X2040764Y1357456D1*
X2036915Y1358384D1*
X2033311Y1360024D1*
X2030082Y1362316D1*
X2027346Y1365178D1*
X2025201Y1368506D1*
X2023724Y1372180D1*
X2022970Y1376067D1*
X2022964Y1380026D1*
X2023708Y1383915D1*
X2025175Y1387593D1*
X2027311Y1390927D1*
X2030039Y1393796D1*
X2033262Y1396097D1*
X2036861Y1397747D1*
X2040707Y1398686D1*
X2044662Y1398879D1*
X2048582Y1398321D1*
X2052325Y1397031D1*
X2055757Y1395056D1*
X2058753Y1392467D1*
X2061205Y1389358D1*
X2063024Y1385842D1*
X2064144Y1382044D1*
X2064526Y1378075D1*
X2064155Y1374161D1*
X2107906Y1592912D2*
X2106796Y1589111D1*
X2104986Y1585590D1*
X2102543Y1582474D1*
X2099554Y1579877D1*
X2096128Y1577893D1*
X2092388Y1576592D1*
X2088469Y1576024D1*
X2084514Y1576207D1*
X2080665Y1577135D1*
X2077061Y1578775D1*
X2073833Y1581067D1*
X2071097Y1583929D1*
X2068952Y1587257D1*
X2067475Y1590931D1*
X2066720Y1594817D1*
X2066715Y1598777D1*
X2067459Y1602666D1*
X2068926Y1606344D1*
X2071062Y1609677D1*
X2073790Y1612547D1*
X2077012Y1614848D1*
X2080612Y1616497D1*
X2084458Y1617436D1*
X2088413Y1617630D1*
X2092333Y1617072D1*
X2096076Y1615782D1*
X2099508Y1613807D1*
X2102504Y1611218D1*
X2104955Y1608109D1*
X2106774Y1604592D1*
X2107895Y1600795D1*
X2108277Y1596825D1*
X2107906Y1592912D1*
X2032906Y1417912D2*
X2031796Y1414111D1*
X2029986Y1410590D1*
X2027543Y1407474D1*
X2024554Y1404877D1*
X2021128Y1402893D1*
X2017388Y1401592D1*
X2013469Y1401024D1*
X2009514Y1401207D1*
X2005665Y1402135D1*
X2002061Y1403775D1*
X1998833Y1406067D1*
X1996097Y1408929D1*
X1993952Y1412257D1*
X1992475Y1415931D1*
X1991720Y1419817D1*
X1991715Y1423777D1*
X1992459Y1427666D1*
X1993926Y1431344D1*
X1996062Y1434677D1*
X1998790Y1437547D1*
X2002012Y1439848D1*
X2005612Y1441497D1*
X2009458Y1442436D1*
X2013413Y1442630D1*
X2017333Y1442072D1*
X2021076Y1440782D1*
X2024508Y1438807D1*
X2027504Y1436218D1*
X2029955Y1433109D1*
X2031774Y1429592D1*
X2032895Y1425795D1*
X2033277Y1421825D1*
X2032906Y1417912D1*
X2082906Y1642912D2*
X2081796Y1639111D1*
X2079986Y1635590D1*
X2077543Y1632474D1*
X2074554Y1629877D1*
X2071128Y1627893D1*
X2067388Y1626592D1*
X2063469Y1626024D1*
X2059514Y1626207D1*
X2055665Y1627135D1*
X2052061Y1628775D1*
X2048833Y1631067D1*
X2046097Y1633929D1*
X2043952Y1637257D1*
X2042475Y1640931D1*
X2041720Y1644817D1*
X2041715Y1648777D1*
X2042459Y1652666D1*
X2043926Y1656344D1*
X2046062Y1659677D1*
X2048790Y1662547D1*
X2052012Y1664848D1*
X2055612Y1666497D1*
X2059458Y1667436D1*
X2063413Y1667630D1*
X2067333Y1667072D1*
X2071076Y1665782D1*
X2074508Y1663807D1*
X2077504Y1661218D1*
X2079955Y1658109D1*
X2081774Y1654592D1*
X2082895Y1650795D1*
X2083277Y1646825D1*
X2082906Y1642912D1*
X3842281Y2246037D2*
X3841171Y2242236D1*
X3839361Y2238714D1*
X3836918Y2235599D1*
X3833929Y2233002D1*
X3830503Y2231017D1*
X3826763Y2229717D1*
X3822845Y2229148D1*
X3818890Y2229331D1*
X3815041Y2230260D1*
X3811437Y2231899D1*
X3808208Y2234192D1*
X3805472Y2237054D1*
X3803327Y2240382D1*
X3801850Y2244055D1*
X3801096Y2247942D1*
X3801090Y2251902D1*
X3801834Y2255790D1*
X3803301Y2259468D1*
X3805437Y2262802D1*
X3808165Y2265671D1*
X3811387Y2267972D1*
X3814987Y2269622D1*
X3818833Y2270561D1*
X3822788Y2270755D1*
X3826708Y2270197D1*
X3830451Y2268907D1*
X3833883Y2266932D1*
X3836879Y2264343D1*
X3839331Y2261234D1*
X3841150Y2257717D1*
X3842270Y2253920D1*
X3842652Y2249950D1*
X3842281Y2246037D1*
X3789346Y2314977D2*
X3788235Y2311177D1*
X3786426Y2307655D1*
X3783982Y2304540D1*
X3780994Y2301943D1*
X3777567Y2299958D1*
X3773827Y2298658D1*
X3769909Y2298089D1*
X3765954Y2298272D1*
X3762105Y2299200D1*
X3758501Y2300840D1*
X3755273Y2303133D1*
X3752536Y2305995D1*
X3750391Y2309322D1*
X3748915Y2312996D1*
X3748160Y2316883D1*
X3748155Y2320843D1*
X3748899Y2324731D1*
X3750365Y2328409D1*
X3752501Y2331743D1*
X3755230Y2334612D1*
X3758452Y2336913D1*
X3762051Y2338563D1*
X3765898Y2339502D1*
X3769852Y2339696D1*
X3773772Y2339137D1*
X3777516Y2337848D1*
X3780947Y2335873D1*
X3783943Y2333284D1*
X3786395Y2330175D1*
X3788214Y2326658D1*
X3789335Y2322860D1*
X3789717Y2318891D1*
X3789346Y2314977D1*
X2276657Y967912D2*
X2275546Y964111D1*
X2273737Y960590D1*
X2271293Y957474D1*
X2268305Y954877D1*
X2264878Y952893D1*
X2261138Y951592D1*
X2257220Y951024D1*
X2253265Y951207D1*
X2249416Y952135D1*
X2245812Y953775D1*
X2242584Y956067D1*
X2239847Y958929D1*
X2237702Y962257D1*
X2236226Y965931D1*
X2235471Y969817D1*
X2235466Y973777D1*
X2236210Y977666D1*
X2237676Y981344D1*
X2239812Y984677D1*
X2242541Y987547D1*
X2245763Y989848D1*
X2249362Y991497D1*
X2253209Y992436D1*
X2257163Y992630D1*
X2261083Y992072D1*
X2264827Y990782D1*
X2268258Y988807D1*
X2271254Y986218D1*
X2273706Y983109D1*
X2275525Y979592D1*
X2276646Y975795D1*
X2277028Y971825D1*
X2276657Y967912D1*
X2564155Y958538D2*
X2563045Y954737D1*
X2561235Y951216D1*
X2558792Y948100D1*
X2555803Y945503D1*
X2552377Y943519D1*
X2548637Y942218D1*
X2544719Y941650D1*
X2540764Y941833D1*
X2536915Y942761D1*
X2533311Y944401D1*
X2530082Y946693D1*
X2527346Y949555D1*
X2525201Y952883D1*
X2523724Y956557D1*
X2522970Y960443D1*
X2522964Y964403D1*
X2523708Y968292D1*
X2525175Y971970D1*
X2527311Y975303D1*
X2530039Y978173D1*
X2533262Y980474D1*
X2536861Y982123D1*
X2540707Y983062D1*
X2544662Y983256D1*
X2548582Y982698D1*
X2552325Y981408D1*
X2555757Y979433D1*
X2558753Y976844D1*
X2561205Y973735D1*
X2563024Y970218D1*
X2564144Y966421D1*
X2564526Y962451D1*
X2564155Y958538D1*
X2764157Y1755412D2*
X2763046Y1751611D1*
X2761237Y1748090D1*
X2758793Y1744974D1*
X2755805Y1742377D1*
X2752378Y1740393D1*
X2748638Y1739092D1*
X2744720Y1738524D1*
X2740765Y1738707D1*
X2736916Y1739635D1*
X2733312Y1741275D1*
X2730084Y1743567D1*
X2727347Y1746429D1*
X2725202Y1749757D1*
X2723726Y1753431D1*
X2722971Y1757317D1*
X2722966Y1761277D1*
X2723710Y1765166D1*
X2725176Y1768844D1*
X2727312Y1772177D1*
X2730041Y1775047D1*
X2733263Y1777348D1*
X2736862Y1778997D1*
X2740709Y1779936D1*
X2744663Y1780130D1*
X2748583Y1779572D1*
X2752327Y1778282D1*
X2755758Y1776307D1*
X2758754Y1773718D1*
X2761206Y1770609D1*
X2763025Y1767092D1*
X2764146Y1763295D1*
X2764528Y1759325D1*
X2764157Y1755412D1*
X2664157Y1821037D2*
X2663046Y1817236D1*
X2661237Y1813714D1*
X2658793Y1810599D1*
X2655805Y1808002D1*
X2652378Y1806017D1*
X2648638Y1804717D1*
X2644720Y1804148D1*
X2640765Y1804331D1*
X2636916Y1805260D1*
X2633312Y1806899D1*
X2630084Y1809192D1*
X2627347Y1812054D1*
X2625202Y1815382D1*
X2623726Y1819055D1*
X2622971Y1822942D1*
X2622966Y1826902D1*
X2623710Y1830790D1*
X2625176Y1834468D1*
X2627312Y1837802D1*
X2630041Y1840671D1*
X2633263Y1842972D1*
X2636862Y1844622D1*
X2640709Y1845561D1*
X2644663Y1845755D1*
X2644774Y1845739D1*
X2644841Y1848777D1*
X2645585Y1852666D1*
X2647052Y1856344D1*
X2649188Y1859677D1*
X2651916Y1862547D1*
X2655138Y1864848D1*
X2658738Y1866497D1*
X2662584Y1867436D1*
X2666539Y1867630D1*
X2670459Y1867072D1*
X2674202Y1865782D1*
X2677634Y1863807D1*
X2680630Y1861218D1*
X2683081Y1858109D1*
X2684900Y1854592D1*
X2686021Y1850795D1*
X2686403Y1846825D1*
X2686032Y1842912D1*
X2684922Y1839111D1*
X2683112Y1835590D1*
X2680669Y1832474D1*
X2677680Y1829877D1*
X2674254Y1827893D1*
X2670514Y1826592D1*
X2666595Y1826024D1*
X2664498Y1826121D1*
X2664528Y1824950D1*
X2664157Y1821037D1*
X2482906Y924161D2*
X2481796Y920361D1*
X2479986Y916839D1*
X2477543Y913723D1*
X2474554Y911126D1*
X2471128Y909142D1*
X2467388Y907842D1*
X2463469Y907273D1*
X2459514Y907456D1*
X2455665Y908384D1*
X2452061Y910024D1*
X2448833Y912316D1*
X2446097Y915178D1*
X2443952Y918506D1*
X2442475Y922180D1*
X2441720Y926067D1*
X2441715Y930026D1*
X2442459Y933915D1*
X2443926Y937593D1*
X2446062Y940927D1*
X2448790Y943796D1*
X2452012Y946097D1*
X2455612Y947747D1*
X2459458Y948686D1*
X2463413Y948879D1*
X2467333Y948321D1*
X2471076Y947031D1*
X2474508Y945056D1*
X2477504Y942467D1*
X2479955Y939358D1*
X2481774Y935842D1*
X2482895Y932044D1*
X2483277Y928075D1*
X2482906Y924161D1*
X3238910Y967912D2*
X3237800Y964111D1*
X3235990Y960590D1*
X3233547Y957474D1*
X3230558Y954877D1*
X3227132Y952893D1*
X3223392Y951592D1*
X3219473Y951024D1*
X3215518Y951207D1*
X3211669Y952135D1*
X3208065Y953775D1*
X3204837Y956067D1*
X3202101Y958929D1*
X3199956Y962257D1*
X3198479Y965931D1*
X3197724Y969817D1*
X3197719Y973777D1*
X3198463Y977666D1*
X3199929Y981344D1*
X3202066Y984677D1*
X3204794Y987547D1*
X3208016Y989848D1*
X3211615Y991497D1*
X3215462Y992436D1*
X3219417Y992630D1*
X3223337Y992072D1*
X3227080Y990782D1*
X3230512Y988807D1*
X3233507Y986218D1*
X3235959Y983109D1*
X3237778Y979592D1*
X3238899Y975795D1*
X3239281Y971825D1*
X3238910Y967912D1*
X3195406Y1399163D2*
X3194296Y1395362D1*
X3192486Y1391840D1*
X3190043Y1388725D1*
X3187054Y1386128D1*
X3183628Y1384143D1*
X3179888Y1382843D1*
X3175969Y1382274D1*
X3172014Y1382457D1*
X3168165Y1383386D1*
X3164561Y1385025D1*
X3161333Y1387318D1*
X3158597Y1390180D1*
X3156452Y1393508D1*
X3154975Y1397181D1*
X3154220Y1401068D1*
X3154215Y1405028D1*
X3154959Y1408916D1*
X3156426Y1412594D1*
X3158562Y1415928D1*
X3161290Y1418797D1*
X3164512Y1421098D1*
X3168112Y1422748D1*
X3171958Y1423687D1*
X3175913Y1423881D1*
X3179833Y1423322D1*
X3183576Y1422033D1*
X3187008Y1420058D1*
X3190004Y1417469D1*
X3192455Y1414360D1*
X3194274Y1410843D1*
X3195395Y1407045D1*
X3195777Y1403076D1*
X3195406Y1399163D1*
X2779781Y1380412D2*
X2778671Y1376611D1*
X2776861Y1373090D1*
X2774418Y1369974D1*
X2771429Y1367377D1*
X2768003Y1365393D1*
X2764263Y1364092D1*
X2760345Y1363524D1*
X2756390Y1363707D1*
X2752541Y1364635D1*
X2748937Y1366275D1*
X2745708Y1368567D1*
X2742972Y1371429D1*
X2740827Y1374757D1*
X2739350Y1378431D1*
X2738596Y1382317D1*
X2738590Y1386277D1*
X2739334Y1390166D1*
X2740801Y1393844D1*
X2742937Y1397177D1*
X2745665Y1400047D1*
X2748887Y1402348D1*
X2752487Y1403997D1*
X2756333Y1404936D1*
X2760288Y1405130D1*
X2764208Y1404572D1*
X2767951Y1403282D1*
X2771383Y1401307D1*
X2774379Y1398718D1*
X2776831Y1395609D1*
X2778650Y1392092D1*
X2779770Y1388295D1*
X2780152Y1384325D1*
X2779781Y1380412D1*
X3280439Y924261D2*
X3279328Y920460D1*
X3277519Y916939D1*
X3275076Y913823D1*
X3272087Y911226D1*
X3268661Y909242D1*
X3264921Y907942D1*
X3261002Y907373D1*
X3257047Y907556D1*
X3253198Y908484D1*
X3249594Y910124D1*
X3246366Y912416D1*
X3243630Y915278D1*
X3241484Y918606D1*
X3240008Y922280D1*
X3239253Y926167D1*
X3239248Y930126D1*
X3239992Y934015D1*
X3241458Y937693D1*
X3243594Y941026D1*
X3246323Y943896D1*
X3249545Y946197D1*
X3253144Y947847D1*
X3256991Y948785D1*
X3260946Y948979D1*
X3264865Y948421D1*
X3268609Y947131D1*
X3272041Y945156D1*
X3275036Y942567D1*
X3277488Y939458D1*
X3279307Y935941D1*
X3280428Y932144D1*
X3280810Y928175D1*
X3280439Y924261D1*
X3139157Y1380412D2*
X3138046Y1376611D1*
X3136237Y1373090D1*
X3133793Y1369974D1*
X3130805Y1367377D1*
X3127378Y1365393D1*
X3123638Y1364092D1*
X3119720Y1363524D1*
X3115765Y1363707D1*
X3111916Y1364635D1*
X3108312Y1366275D1*
X3105084Y1368567D1*
X3102347Y1371429D1*
X3100202Y1374757D1*
X3098726Y1378431D1*
X3097971Y1382317D1*
X3097966Y1386277D1*
X3098710Y1390166D1*
X3100176Y1393844D1*
X3102312Y1397177D1*
X3105041Y1400047D1*
X3108263Y1402348D1*
X3111862Y1403997D1*
X3115709Y1404936D1*
X3119663Y1405130D1*
X3123583Y1404572D1*
X3127327Y1403282D1*
X3130758Y1401307D1*
X3133754Y1398718D1*
X3136206Y1395609D1*
X3138025Y1392092D1*
X3139146Y1388295D1*
X3139528Y1384325D1*
X3139157Y1380412D1*
X3353979Y965589D2*
X3352869Y961788D1*
X3351060Y958267D1*
X3348616Y955151D1*
X3345627Y952554D1*
X3342201Y950570D1*
X3338461Y949270D1*
X3334543Y948701D1*
X3330588Y948884D1*
X3326739Y949812D1*
X3323135Y951452D1*
X3319906Y953744D1*
X3317170Y956606D1*
X3315025Y959934D1*
X3313549Y963608D1*
X3312794Y967495D1*
X3312788Y971454D1*
X3313532Y975343D1*
X3314999Y979021D1*
X3317135Y982355D1*
X3319864Y985224D1*
X3323086Y987525D1*
X3326685Y989175D1*
X3330532Y990113D1*
X3334486Y990307D1*
X3338406Y989749D1*
X3342150Y988459D1*
X3345581Y986484D1*
X3348577Y983895D1*
X3351029Y980786D1*
X3352848Y977270D1*
X3353969Y973472D1*
X3354350Y969503D1*
X3353979Y965589D1*
X3476657Y1030412D2*
X3475546Y1026611D1*
X3473737Y1023090D1*
X3471293Y1019974D1*
X3468305Y1017377D1*
X3464878Y1015393D1*
X3461138Y1014092D1*
X3457220Y1013524D1*
X3453265Y1013707D1*
X3449416Y1014635D1*
X3445812Y1016275D1*
X3442584Y1018567D1*
X3439847Y1021429D1*
X3437702Y1024757D1*
X3436226Y1028431D1*
X3435471Y1032317D1*
X3435466Y1036277D1*
X3436210Y1040166D1*
X3437676Y1043844D1*
X3439812Y1047177D1*
X3442541Y1050047D1*
X3445763Y1052348D1*
X3449362Y1053997D1*
X3453209Y1054936D1*
X3457163Y1055130D1*
X3461083Y1054572D1*
X3464827Y1053282D1*
X3468258Y1051307D1*
X3471254Y1048718D1*
X3473706Y1045609D1*
X3475525Y1042092D1*
X3476646Y1038295D1*
X3477028Y1034325D1*
X3476657Y1030412D1*
X3414157Y949163D2*
X3413046Y945362D1*
X3411237Y941840D1*
X3408793Y938725D1*
X3405805Y936128D1*
X3402378Y934143D1*
X3398638Y932843D1*
X3394720Y932274D1*
X3390765Y932457D1*
X3386916Y933386D1*
X3383312Y935025D1*
X3380084Y937318D1*
X3377347Y940180D1*
X3375202Y943508D1*
X3373726Y947181D1*
X3372971Y951068D1*
X3372966Y955028D1*
X3373710Y958916D1*
X3375176Y962594D1*
X3377312Y965928D1*
X3380041Y968797D1*
X3383263Y971098D1*
X3386862Y972748D1*
X3390709Y973687D1*
X3394663Y973881D1*
X3398583Y973322D1*
X3402327Y972033D1*
X3405758Y970058D1*
X3408754Y967469D1*
X3411206Y964360D1*
X3413025Y960843D1*
X3414146Y957045D1*
X3414528Y953076D1*
X3414157Y949163D1*
X3554781Y1930412D2*
X3553671Y1926611D1*
X3551861Y1923090D1*
X3549418Y1919974D1*
X3546429Y1917377D1*
X3543003Y1915393D1*
X3539263Y1914092D1*
X3535345Y1913524D1*
X3531390Y1913707D1*
X3527541Y1914635D1*
X3523937Y1916275D1*
X3520708Y1918567D1*
X3517972Y1921429D1*
X3515827Y1924757D1*
X3514350Y1928431D1*
X3513596Y1932317D1*
X3513590Y1936277D1*
X3514334Y1940166D1*
X3515801Y1943844D1*
X3517937Y1947177D1*
X3520665Y1950047D1*
X3523887Y1952348D1*
X3527487Y1953997D1*
X3531333Y1954936D1*
X3535288Y1955130D1*
X3539208Y1954572D1*
X3542951Y1953282D1*
X3546383Y1951307D1*
X3549379Y1948718D1*
X3551831Y1945609D1*
X3553650Y1942092D1*
X3554770Y1938295D1*
X3555152Y1934325D1*
X3554781Y1930412D1*
X3611032Y1905412D2*
X3609922Y1901611D1*
X3608112Y1898090D1*
X3605669Y1894974D1*
X3602680Y1892377D1*
X3599254Y1890393D1*
X3595514Y1889092D1*
X3591595Y1888524D1*
X3587640Y1888707D1*
X3583791Y1889635D1*
X3580187Y1891275D1*
X3576959Y1893567D1*
X3574223Y1896429D1*
X3572078Y1899757D1*
X3570601Y1903431D1*
X3569846Y1907317D1*
X3569841Y1911277D1*
X3570585Y1915166D1*
X3572052Y1918844D1*
X3574188Y1922177D1*
X3576916Y1925047D1*
X3580138Y1927348D1*
X3583738Y1928997D1*
X3587584Y1929936D1*
X3591539Y1930130D1*
X3595459Y1929572D1*
X3599202Y1928282D1*
X3602634Y1926307D1*
X3605630Y1923718D1*
X3608081Y1920609D1*
X3609900Y1917092D1*
X3611021Y1913295D1*
X3611403Y1909325D1*
X3611032Y1905412D1*
X2945407Y942913D2*
X2944297Y939113D1*
X2942487Y935591D1*
X2940044Y932475D1*
X2937055Y929878D1*
X2933629Y927894D1*
X2929889Y926594D1*
X2925971Y926025D1*
X2922016Y926208D1*
X2918167Y927136D1*
X2914563Y928776D1*
X2911334Y931068D1*
X2908598Y933930D1*
X2906453Y937258D1*
X2904976Y940932D1*
X2904222Y944819D1*
X2904216Y948778D1*
X2904960Y952667D1*
X2906427Y956345D1*
X2908563Y959679D1*
X2911291Y962548D1*
X2914513Y964849D1*
X2918113Y966499D1*
X2921959Y967437D1*
X2925914Y967631D1*
X2929834Y967073D1*
X2933577Y965783D1*
X2937009Y963808D1*
X2940005Y961219D1*
X2942457Y958110D1*
X2944276Y954594D1*
X2945396Y950796D1*
X2945778Y946827D1*
X2945407Y942913D1*
X3126410Y967666D2*
X3125300Y963866D1*
X3123490Y960344D1*
X3121047Y957229D1*
X3118058Y954632D1*
X3114632Y952647D1*
X3110892Y951347D1*
X3106973Y950778D1*
X3103018Y950961D1*
X3099169Y951889D1*
X3095565Y953529D1*
X3092337Y955822D1*
X3089601Y958683D1*
X3087456Y962011D1*
X3085979Y965685D1*
X3085224Y969572D1*
X3085219Y973531D1*
X3085963Y977420D1*
X3087429Y981098D1*
X3089566Y984432D1*
X3092294Y987301D1*
X3095516Y989602D1*
X3099115Y991252D1*
X3102962Y992191D1*
X3106917Y992385D1*
X3110837Y991826D1*
X3114580Y990537D1*
X3118012Y988561D1*
X3121007Y985973D1*
X3123459Y982864D1*
X3125278Y979347D1*
X3126399Y975549D1*
X3126781Y971580D1*
X3126410Y967666D1*
X3167544Y924001D2*
X3166433Y920201D1*
X3164624Y916679D1*
X3162181Y913563D1*
X3159192Y910966D1*
X3155766Y908982D1*
X3152026Y907682D1*
X3148107Y907113D1*
X3144152Y907296D1*
X3140303Y908224D1*
X3136699Y909864D1*
X3133471Y912156D1*
X3130735Y915018D1*
X3128589Y918346D1*
X3127113Y922020D1*
X3126358Y925907D1*
X3126353Y929866D1*
X3127097Y933755D1*
X3128563Y937433D1*
X3130699Y940767D1*
X3133428Y943636D1*
X3136650Y945937D1*
X3140249Y947587D1*
X3144096Y948525D1*
X3148051Y948719D1*
X3151970Y948161D1*
X3155714Y946871D1*
X3159145Y944896D1*
X3162141Y942307D1*
X3164593Y939198D1*
X3166412Y935682D1*
X3167533Y931884D1*
X3167915Y927915D1*
X3167544Y924001D1*
X3870653Y833537D2*
X3869542Y829736D1*
X3867733Y826214D1*
X3865289Y823099D1*
X3862301Y820502D1*
X3858874Y818517D1*
X3855135Y817217D1*
X3851216Y816648D1*
X3847261Y816831D1*
X3843412Y817760D1*
X3839808Y819399D1*
X3836580Y821692D1*
X3833843Y824554D1*
X3831698Y827882D1*
X3830222Y831555D1*
X3829467Y835442D1*
X3829462Y839402D1*
X3830206Y843290D1*
X3831672Y846968D1*
X3833808Y850302D1*
X3836537Y853171D1*
X3839759Y855472D1*
X3843358Y857122D1*
X3847205Y858061D1*
X3851159Y858255D1*
X3855079Y857697D1*
X3858823Y856407D1*
X3862254Y854432D1*
X3865250Y851843D1*
X3867702Y848734D1*
X3869521Y845217D1*
X3870642Y841420D1*
X3871024Y837450D1*
X3870653Y833537D1*
X3757906Y880412D2*
X3756796Y876611D1*
X3754986Y873090D1*
X3752543Y869974D1*
X3749554Y867377D1*
X3746128Y865393D1*
X3742388Y864092D1*
X3738469Y863524D1*
X3734514Y863707D1*
X3730665Y864635D1*
X3727061Y866275D1*
X3723833Y868567D1*
X3721097Y871429D1*
X3718952Y874757D1*
X3717475Y878431D1*
X3716720Y882317D1*
X3716715Y886277D1*
X3717459Y890166D1*
X3718926Y893844D1*
X3721062Y897177D1*
X3723691Y899943D1*
X3721098Y902680D1*
X3718953Y906008D1*
X3717476Y909681D1*
X3716722Y913568D1*
X3716716Y917528D1*
X3717460Y921416D1*
X3718927Y925094D1*
X3721063Y928428D1*
X3723693Y931194D1*
X3721098Y933929D1*
X3718953Y937257D1*
X3717476Y940931D1*
X3716722Y944817D1*
X3716716Y948777D1*
X3717460Y952666D1*
X3718927Y956344D1*
X3721063Y959677D1*
X3723791Y962547D1*
X3727013Y964848D1*
X3730613Y966497D1*
X3734459Y967436D1*
X3738414Y967630D1*
X3742334Y967072D1*
X3746077Y965782D1*
X3749509Y963807D1*
X3752505Y961218D1*
X3754957Y958109D1*
X3756776Y954592D1*
X3757896Y950795D1*
X3758278Y946825D1*
X3757907Y942912D1*
X3756797Y939111D1*
X3754987Y935590D1*
X3752544Y932474D1*
X3751152Y931264D1*
X3752505Y929969D1*
X3754957Y926860D1*
X3756776Y923343D1*
X3757896Y919545D1*
X3758278Y915576D1*
X3757907Y911663D1*
X3756797Y907862D1*
X3754987Y904340D1*
X3752544Y901225D1*
X3751152Y900015D1*
X3752504Y898718D1*
X3754955Y895609D1*
X3756774Y892092D1*
X3757895Y888295D1*
X3758277Y884325D1*
X3757906Y880412D1*
X2064157Y1308538D2*
X2063046Y1304737D1*
X2061237Y1301216D1*
X2058793Y1298100D1*
X2055805Y1295503D1*
X2052378Y1293519D1*
X2048638Y1292218D1*
X2044720Y1291650D1*
X2040765Y1291833D1*
X2036916Y1292761D1*
X2033312Y1294401D1*
X2030084Y1296693D1*
X2027347Y1299555D1*
X2025202Y1302883D1*
X2023726Y1306557D1*
X2022971Y1310443D1*
X2022966Y1314403D1*
X2023710Y1318292D1*
X2025176Y1321970D1*
X2027312Y1325303D1*
X2030041Y1328173D1*
X2033263Y1330474D1*
X2036862Y1332123D1*
X2040709Y1333062D1*
X2044663Y1333256D1*
X2048583Y1332698D1*
X2052327Y1331408D1*
X2055758Y1329433D1*
X2058754Y1326844D1*
X2061206Y1323735D1*
X2063025Y1320218D1*
X2064146Y1316421D1*
X2064528Y1312451D1*
X2064157Y1308538D1*
X2201657Y1992912D2*
X2200546Y1989111D1*
X2198737Y1985590D1*
X2196293Y1982474D1*
X2193305Y1979877D1*
X2189878Y1977893D1*
X2186138Y1976592D1*
X2182220Y1976024D1*
X2178265Y1976207D1*
X2174416Y1977135D1*
X2170812Y1978775D1*
X2167584Y1981067D1*
X2164847Y1983929D1*
X2162702Y1987257D1*
X2161226Y1990931D1*
X2160471Y1994817D1*
X2160466Y1998777D1*
X2161210Y2002666D1*
X2162676Y2006344D1*
X2164812Y2009677D1*
X2167541Y2012547D1*
X2170763Y2014848D1*
X2174362Y2016497D1*
X2178209Y2017436D1*
X2182163Y2017630D1*
X2186083Y2017072D1*
X2189827Y2015782D1*
X2193258Y2013807D1*
X2196254Y2011218D1*
X2198706Y2008109D1*
X2200525Y2004592D1*
X2201646Y2000795D1*
X2202028Y1996825D1*
X2201657Y1992912D1*
X3867281Y2186663D2*
X3866171Y2182862D1*
X3864361Y2179340D1*
X3861918Y2176225D1*
X3858929Y2173628D1*
X3855503Y2171643D1*
X3851763Y2170343D1*
X3847845Y2169774D1*
X3843890Y2169957D1*
X3840041Y2170886D1*
X3836437Y2172525D1*
X3833208Y2174818D1*
X3830472Y2177680D1*
X3828327Y2181008D1*
X3826850Y2184681D1*
X3826096Y2188568D1*
X3826090Y2192528D1*
X3826834Y2196416D1*
X3828301Y2200094D1*
X3830437Y2203428D1*
X3833165Y2206297D1*
X3836387Y2208598D1*
X3839987Y2210248D1*
X3843833Y2211187D1*
X3847788Y2211381D1*
X3851708Y2210822D1*
X3855451Y2209533D1*
X3858883Y2207558D1*
X3861879Y2204969D1*
X3864331Y2201860D1*
X3866150Y2198343D1*
X3867270Y2194545D1*
X3867652Y2190576D1*
X3867281Y2186663D1*
X3877746Y933088D2*
X3879135Y934552D1*
X3881065Y935135D1*
X3944191Y935138D1*
X4302263D1*
X4302264Y1121011D1*
X4247263Y1121014D1*
X4168704D1*
X4166811Y1121497D1*
X4165349Y1122886D1*
X4164766Y1124815D1*
X4164764Y1183838D1*
Y1253069D1*
X4165247Y1254966D1*
X4166635Y1256428D1*
X4168565Y1257011D1*
X4231575Y1257013D1*
X4302264Y1257017D1*
Y2667885D1*
X4258959Y2667888D1*
X3233912Y2667887D1*
X3235002Y2665756D1*
X3236477Y2662135D1*
X3237634Y2658401D1*
X3238467Y2654582D1*
X3238968Y2650705D1*
X3239134Y2646825D1*
X3238963Y2642893D1*
X3238458Y2639017D1*
X3237621Y2635198D1*
X3236459Y2631466D1*
X3234980Y2627847D1*
X3233196Y2624369D1*
X3231119Y2621057D1*
X3228765Y2617935D1*
X3226152Y2615028D1*
X3223298Y2612356D1*
X3220226Y2609939D1*
X3216957Y2607796D1*
X3213515Y2605941D1*
X3209927Y2604389D1*
X3206219Y2603151D1*
X3202418Y2602237D1*
X3198553Y2601652D1*
X3194652Y2601402D1*
X3190743Y2601489D1*
X3186857Y2601911D1*
X3183021Y2602665D1*
X3179265Y2603747D1*
X3175615Y2605147D1*
X3172099Y2606856D1*
X3168743Y2608861D1*
X3165572Y2611147D1*
X3162609Y2613698D1*
X3159876Y2616493D1*
X3157394Y2619513D1*
X3155180Y2622735D1*
X3153252Y2626136D1*
X3151623Y2629690D1*
X3150306Y2633370D1*
X3149310Y2637150D1*
X3148642Y2641002D1*
X3148309Y2644897D1*
X3148311Y2648807D1*
X3148649Y2652701D1*
X3149321Y2656552D1*
X3150322Y2660331D1*
X3151643Y2664010D1*
X3153276Y2667562D1*
X3153463Y2667891D1*
X3133955Y2667888D1*
X3134389Y2667040D1*
X3134955Y2665859D1*
X3135486Y2664662D1*
X3135983Y2663450D1*
X3136444Y2662225D1*
X3136870Y2660987D1*
X3137261Y2659737D1*
X3137615Y2658476D1*
X3137932Y2657206D1*
X3138213Y2655927D1*
X3138457Y2654640D1*
X3138663Y2653347D1*
X3138833Y2652049D1*
X3138964Y2650746D1*
X3139059Y2649440D1*
X3139115Y2648132D1*
X3139134Y2646825D1*
X3139115Y2645513D1*
X3139058Y2644205D1*
X3138964Y2642899D1*
X3138832Y2641596D1*
X3138662Y2640298D1*
X3138456Y2639005D1*
X3138212Y2637718D1*
X3137931Y2636439D1*
X3137613Y2635169D1*
X3137259Y2633909D1*
X3136869Y2632659D1*
X3136442Y2631421D1*
X3135981Y2630195D1*
X3135484Y2628984D1*
X3134952Y2627787D1*
X3134387Y2626606D1*
X3133787Y2625442D1*
X3133154Y2624296D1*
X3132489Y2623168D1*
X3131791Y2622060D1*
X3131061Y2620973D1*
X3130301Y2619907D1*
X3129510Y2618863D1*
X3128689Y2617843D1*
X3127839Y2616847D1*
X3126961Y2615875D1*
X3126055Y2614930D1*
X3125123Y2614011D1*
X3124164Y2613119D1*
X3123180Y2612255D1*
X3122172Y2611420D1*
X3121139Y2610614D1*
X3120085Y2609838D1*
X3119008Y2609093D1*
X3117910Y2608380D1*
X3116792Y2607698D1*
X3115655Y2607049D1*
X3114499Y2606433D1*
X3113327Y2605850D1*
X3112138Y2605301D1*
X3110933Y2604787D1*
X3109715Y2604308D1*
X3108483Y2603864D1*
X3107239Y2603456D1*
X3105983Y2603084D1*
X3104717Y2602748D1*
X3103443Y2602449D1*
X3102160Y2602187D1*
X3100870Y2601962D1*
X3099574Y2601774D1*
X3098273Y2601623D1*
X3096969Y2601510D1*
X3095662Y2601435D1*
X3094353Y2601397D1*
X3093043D1*
X3091734Y2601435D1*
X3090427Y2601510D1*
X3089123Y2601624D1*
X3087822Y2601774D1*
X3086526Y2601962D1*
X3085236Y2602188D1*
X3083953Y2602450D1*
X3082679Y2602750D1*
X3081413Y2603086D1*
X3080158Y2603458D1*
X3078913Y2603866D1*
X3077682Y2604310D1*
X3076463Y2604789D1*
X3075259Y2605304D1*
X3074070Y2605852D1*
X3072897Y2606435D1*
X3071742Y2607051D1*
X3070605Y2607701D1*
X3069487Y2608383D1*
X3068389Y2609096D1*
X3067312Y2609841D1*
X3066258Y2610617D1*
X3065225Y2611423D1*
X3064217Y2612258D1*
X3063233Y2613123D1*
X3062275Y2614015D1*
X3061342Y2614934D1*
X3060436Y2615880D1*
X3059558Y2616851D1*
X3058709Y2617847D1*
X3057888Y2618868D1*
X3057098Y2619911D1*
X3056337Y2620977D1*
X3055608Y2622065D1*
X3054910Y2623173D1*
X3054245Y2624301D1*
X3053612Y2625447D1*
X3053012Y2626611D1*
X3052447Y2627792D1*
X3051915Y2628989D1*
X3051419Y2630201D1*
X3050957Y2631426D1*
X3050531Y2632664D1*
X3050141Y2633914D1*
X3049787Y2635175D1*
X3049469Y2636445D1*
X3049189Y2637724D1*
X3048945Y2639011D1*
X3048738Y2640304D1*
X3048569Y2641602D1*
X3048437Y2642905D1*
X3048343Y2644211D1*
X3048287Y2645519D1*
X3048268Y2646828D1*
X3048287Y2648138D1*
X3048343Y2649446D1*
X3048438Y2650752D1*
X3048570Y2652055D1*
X3048739Y2653353D1*
X3048946Y2654646D1*
X3049190Y2655932D1*
X3049471Y2657211D1*
X3049788Y2658482D1*
X3050143Y2659742D1*
X3050533Y2660992D1*
X3050959Y2662230D1*
X3051421Y2663456D1*
X3051918Y2664667D1*
X3052449Y2665864D1*
X3053015Y2667045D1*
X3053450Y2667889D1*
X3033954Y2667888D1*
X3035002Y2665756D1*
X3036477Y2662135D1*
X3037634Y2658401D1*
X3038467Y2654582D1*
X3038968Y2650705D1*
X3039134Y2646825D1*
X3038963Y2642893D1*
X3038458Y2639017D1*
X3037621Y2635198D1*
X3036459Y2631466D1*
X3034980Y2627847D1*
X3033196Y2624369D1*
X3031119Y2621057D1*
X3028765Y2617935D1*
X3026152Y2615028D1*
X3023298Y2612356D1*
X3020226Y2609939D1*
X3016957Y2607796D1*
X3013515Y2605941D1*
X3009927Y2604389D1*
X3006219Y2603151D1*
X3002418Y2602237D1*
X2998553Y2601652D1*
X2994652Y2601402D1*
X2990743Y2601489D1*
X2986857Y2601911D1*
X2983021Y2602665D1*
X2979265Y2603747D1*
X2975615Y2605147D1*
X2972099Y2606856D1*
X2968743Y2608861D1*
X2965572Y2611147D1*
X2962609Y2613698D1*
X2959876Y2616493D1*
X2957394Y2619513D1*
X2955180Y2622735D1*
X2953252Y2626136D1*
X2951623Y2629690D1*
X2950306Y2633370D1*
X2949310Y2637150D1*
X2948642Y2641002D1*
X2948309Y2644897D1*
X2948311Y2648807D1*
X2948649Y2652701D1*
X2949321Y2656552D1*
X2950322Y2660331D1*
X2951643Y2664010D1*
X2953276Y2667562D1*
X2953463Y2667891D1*
X2933960Y2667888D1*
X2935002Y2665756D1*
X2936477Y2662135D1*
X2937634Y2658401D1*
X2938467Y2654582D1*
X2938968Y2650705D1*
X2939134Y2646825D1*
X2938963Y2642893D1*
X2938458Y2639017D1*
X2937621Y2635198D1*
X2936459Y2631466D1*
X2934980Y2627847D1*
X2933196Y2624369D1*
X2931119Y2621057D1*
X2928765Y2617935D1*
X2926152Y2615028D1*
X2923298Y2612356D1*
X2920226Y2609939D1*
X2916957Y2607796D1*
X2913515Y2605941D1*
X2909927Y2604389D1*
X2906219Y2603151D1*
X2902418Y2602237D1*
X2898553Y2601652D1*
X2894652Y2601402D1*
X2890743Y2601489D1*
X2886857Y2601911D1*
X2883021Y2602665D1*
X2879265Y2603747D1*
X2875615Y2605147D1*
X2872099Y2606856D1*
X2868743Y2608861D1*
X2865572Y2611147D1*
X2862609Y2613698D1*
X2859876Y2616493D1*
X2857394Y2619513D1*
X2855180Y2622735D1*
X2853252Y2626136D1*
X2851623Y2629690D1*
X2850306Y2633370D1*
X2849310Y2637150D1*
X2848642Y2641002D1*
X2848309Y2644897D1*
X2848311Y2648807D1*
X2848649Y2652701D1*
X2849321Y2656552D1*
X2850322Y2660331D1*
X2851643Y2664010D1*
X2853276Y2667562D1*
X2853463Y2667891D1*
X2833958Y2667888D1*
X2835002Y2665756D1*
X2836477Y2662135D1*
X2837634Y2658401D1*
X2838467Y2654582D1*
X2838968Y2650705D1*
X2839134Y2646825D1*
X2838963Y2642893D1*
X2838458Y2639017D1*
X2837621Y2635198D1*
X2836459Y2631466D1*
X2834980Y2627847D1*
X2833196Y2624369D1*
X2831119Y2621057D1*
X2828765Y2617935D1*
X2826152Y2615028D1*
X2823298Y2612356D1*
X2820226Y2609939D1*
X2816957Y2607796D1*
X2813515Y2605941D1*
X2809927Y2604389D1*
X2806219Y2603151D1*
X2802418Y2602237D1*
X2798553Y2601652D1*
X2794652Y2601402D1*
X2790743Y2601489D1*
X2786857Y2601911D1*
X2783021Y2602665D1*
X2779265Y2603747D1*
X2775615Y2605147D1*
X2772099Y2606856D1*
X2768743Y2608861D1*
X2765572Y2611147D1*
X2762609Y2613698D1*
X2759876Y2616493D1*
X2757394Y2619513D1*
X2755180Y2622735D1*
X2753252Y2626136D1*
X2751623Y2629690D1*
X2750306Y2633370D1*
X2749310Y2637150D1*
X2748642Y2641002D1*
X2748309Y2644897D1*
X2748311Y2648807D1*
X2748649Y2652701D1*
X2749321Y2656552D1*
X2750322Y2660331D1*
X2751643Y2664010D1*
X2753276Y2667562D1*
X2753463Y2667891D1*
X2733957Y2667888D1*
X2735002Y2665756D1*
X2736477Y2662135D1*
X2737634Y2658401D1*
X2738467Y2654582D1*
X2738968Y2650705D1*
X2739134Y2646825D1*
X2738963Y2642893D1*
X2738458Y2639017D1*
X2737621Y2635198D1*
X2736459Y2631466D1*
X2734980Y2627847D1*
X2733196Y2624369D1*
X2731119Y2621057D1*
X2728765Y2617935D1*
X2726152Y2615028D1*
X2723298Y2612356D1*
X2720226Y2609939D1*
X2716957Y2607796D1*
X2713515Y2605941D1*
X2709927Y2604389D1*
X2706219Y2603151D1*
X2702418Y2602237D1*
X2698553Y2601652D1*
X2694652Y2601402D1*
X2690743Y2601489D1*
X2686857Y2601911D1*
X2683021Y2602665D1*
X2679265Y2603747D1*
X2675615Y2605147D1*
X2672099Y2606856D1*
X2668743Y2608861D1*
X2665572Y2611147D1*
X2662609Y2613698D1*
X2659876Y2616493D1*
X2657394Y2619513D1*
X2655180Y2622735D1*
X2653252Y2626136D1*
X2651623Y2629690D1*
X2650306Y2633370D1*
X2649310Y2637150D1*
X2648642Y2641002D1*
X2648309Y2644897D1*
X2648311Y2648807D1*
X2648649Y2652701D1*
X2649321Y2656552D1*
X2650322Y2660331D1*
X2651643Y2664010D1*
X2653276Y2667562D1*
X2653463Y2667891D1*
X2585731Y2667888D1*
X422641D1*
X422638Y2585216D1*
Y1260140D1*
X556197Y1260138D1*
X558090Y1259655D1*
X559552Y1258267D1*
X560136Y1256337D1*
X560138Y1193285D1*
Y1124958D1*
X559655Y1123062D1*
X558267Y1121600D1*
X556337Y1121017D1*
X493326Y1121014D1*
X422641D1*
X422638Y1034462D1*
Y935141D1*
X481691Y935138D1*
X843701D1*
X845650Y934622D1*
X847088Y933209D1*
X847637Y931267D1*
X847638Y728888D1*
X3877267D1*
X3877264Y756477D1*
Y931193D1*
X3877746Y933088D1*
X3093701Y2646825D2*
D16*
Y2601408D1*
X3048283Y2646825D2*
X3139118D1*
D22*
X481202Y2606201D3*
D3*
X4234325D3*
D3*
X481199Y996825D3*
D3*
D27*
X3193701Y2646825D3*
X3093701D3*
X2993701D3*
X2893701D3*
X2793701D3*
X2693701D3*
M02*
