G04 DipTrace 4.0.0.5*
G04 BottomSilk.gbr*
%MOIN*%
G04 #@! TF.FileFunction,Legend,Bot*
G04 #@! TF.Part,Single*
%ADD10C,0.009843*%
%ADD79C,0.00772*%
%ADD82C,0.006176*%
%FSLAX26Y26*%
G04*
G70*
G90*
G75*
G01*
G04 BotSilk*
%LPD*%
X2643728Y2668703D2*
D10*
Y2568701D1*
X3243673D1*
Y2668703D1*
X2643728D1*
X3930073Y1767699D2*
X3213577D1*
X3930073Y2019702D2*
X3213577D1*
Y1767699D2*
Y2019702D1*
X3930073Y1767699D2*
Y1862213D1*
Y1925189D2*
Y2019702D1*
Y1862213D2*
G02X3930073Y1925189I34J31488D01*
G01*
X2669768Y2542279D2*
D82*
X2709960D1*
X2669768Y2555677D2*
Y2528882D1*
Y2516531D2*
X2709960D1*
Y2503133D1*
X2708014Y2497385D1*
X2704212Y2493538D1*
X2700365Y2491637D1*
X2694661Y2489736D1*
X2685066D1*
X2679318Y2491637D1*
X2675516Y2493538D1*
X2671669Y2497385D1*
X2669768Y2503133D1*
Y2516531D1*
Y2465888D2*
X2671669Y2469735D1*
X2675516Y2473538D1*
X2679318Y2475483D1*
X2685066Y2477385D1*
X2694661D1*
X2700365Y2475483D1*
X2704212Y2473538D1*
X2708014Y2469735D1*
X2709960Y2465888D1*
Y2458239D1*
X2708014Y2454437D1*
X2704212Y2450590D1*
X2700365Y2448689D1*
X2694661Y2446787D1*
X2685066D1*
X2679318Y2448689D1*
X2675516Y2450590D1*
X2671669Y2454437D1*
X2669768Y2458239D1*
Y2465888D1*
X2769074Y2540378D2*
X2809266D1*
X2769074Y2553775D2*
Y2526981D1*
X2778625Y2485933D2*
X2774822Y2487835D1*
X2770975Y2491681D1*
X2769074Y2495484D1*
Y2503133D1*
X2770975Y2506980D1*
X2774822Y2510783D1*
X2778625Y2512728D1*
X2784373Y2514629D1*
X2793967D1*
X2799671Y2512728D1*
X2803518Y2510783D1*
X2807321Y2506980D1*
X2809266Y2503133D1*
Y2495484D1*
X2807321Y2491681D1*
X2803518Y2487835D1*
X2799671Y2485933D1*
X2769074Y2473582D2*
X2809266D1*
X2769074Y2446787D2*
X2795869Y2473582D1*
X2786274Y2464031D2*
X2809266Y2446787D1*
X2868380Y2511682D2*
X2908572D1*
X2868380Y2525079D2*
Y2498285D1*
Y2485933D2*
X2908572D1*
Y2472536D1*
X2906627Y2466788D1*
X2902824Y2462941D1*
X2898978Y2461040D1*
X2893274Y2459139D1*
X2883679D1*
X2877931Y2461040D1*
X2874128Y2462941D1*
X2870282Y2466788D1*
X2868380Y2472536D1*
Y2485933D1*
Y2446787D2*
X2908572D1*
X2967687Y2542279D2*
X3007879D1*
X2967687Y2555677D2*
Y2528882D1*
X3007879Y2485933D2*
X2967687D1*
X3007879Y2501232D1*
X2967687Y2516531D1*
X3007879D1*
X2973435Y2446787D2*
X2969588Y2450590D1*
X2967687Y2456338D1*
Y2463987D1*
X2969588Y2469735D1*
X2973435Y2473582D1*
X2977237D1*
X2981084Y2471637D1*
X2982985Y2469735D1*
X2984887Y2465933D1*
X2988733Y2454437D1*
X2990635Y2450590D1*
X2992580Y2448689D1*
X2996383Y2446787D1*
X3002131D1*
X3005933Y2450590D1*
X3007879Y2456338D1*
Y2463987D1*
X3005933Y2469735D1*
X3002131Y2473582D1*
X3076544Y2525079D2*
X3072741Y2526981D1*
X3068894Y2530827D1*
X3066993Y2534630D1*
Y2542279D1*
X3068894Y2546126D1*
X3072741Y2549929D1*
X3076544Y2551874D1*
X3082292Y2553775D1*
X3091886D1*
X3097590Y2551874D1*
X3101437Y2549929D1*
X3105240Y2546126D1*
X3107185Y2542279D1*
Y2534630D1*
X3105240Y2530827D1*
X3101437Y2526981D1*
X3097590Y2525079D1*
X3091886D1*
Y2534630D1*
X3066993Y2485933D2*
X3107185D1*
X3066993Y2512728D1*
X3107185D1*
X3066993Y2473582D2*
X3107185D1*
Y2460185D1*
X3105240Y2454437D1*
X3101437Y2450590D1*
X3097590Y2448689D1*
X3091886Y2446787D1*
X3082292D1*
X3076544Y2448689D1*
X3072741Y2450590D1*
X3068894Y2454437D1*
X3066993Y2460185D1*
Y2473582D1*
X3166299Y2555677D2*
X3206491Y2540378D1*
X3166299Y2525079D1*
Y2512728D2*
X3206491D1*
Y2499331D1*
X3204546Y2493583D1*
X3200743Y2489736D1*
X3196897Y2487835D1*
X3191193Y2485933D1*
X3181598D1*
X3175850Y2487835D1*
X3172047Y2489736D1*
X3168201Y2493583D1*
X3166299Y2499331D1*
Y2512728D1*
Y2473582D2*
X3206491D1*
Y2460185D1*
X3204546Y2454437D1*
X3200743Y2450590D1*
X3196897Y2448689D1*
X3191193Y2446787D1*
X3181598D1*
X3175850Y2448689D1*
X3172047Y2450590D1*
X3168201Y2454437D1*
X3166299Y2460185D1*
Y2473582D1*
X4003297Y1851300D2*
D79*
X3967427D1*
X3960242Y1853676D1*
X3955488Y1858485D1*
X3953057Y1865670D1*
Y1870423D1*
X3955488Y1877608D1*
X3960242Y1882416D1*
X3967427Y1884793D1*
X4003297D1*
X3953057Y1924164D2*
X4003241D1*
X3969803Y1900232D1*
Y1936102D1*
M02*
