M48
INCH
T01C0.0079
T02C0.0433
T03C0.0454
T04C0.2165
%
T01
X+009500Y+013812
X+008937Y+013937
X+007812Y+013625
X+007812Y+012500
X+007250Y+012312
X+007250Y+012062
X+007250Y+011812
X+007250Y+011562
X+007250Y+011312
X+007250Y+011072
X+006750Y+010875
X+006875Y+010375
X+007250Y+010000
X+006875Y+009625
X+007250Y+009250
X+007625Y+009625
X+008000Y+009250
X+008687Y+009000
X+008687Y+008250
X+008687Y+007500
X+009812Y+007750
X+010343Y+007968
X+010530Y+008195
X+010687Y+007500
X+011562Y+007500
X+012562Y+007500
X+013562Y+007500
X+014625Y+007500
X+015250Y+007937
X+015625Y+008187
X+015625Y+007500
X+016625Y+007500
X+016812Y+008312
X+017562Y+008375
X+017625Y+007500
X+018625Y+007500
X+019625Y+007500
X+020625Y+007500
X+020812Y+008187
X+021375Y+007937
X+021875Y+007937
X+021625Y+007500
X+022625Y+007500
X+022843Y+008343
X+022750Y+008937
X+022562Y+009437
X+022000Y+009125
X+022000Y+008500
X+021062Y+008937
X+019937Y+009125
X+019812Y+009656
X+020312Y+009812
X+019562Y+010500
X+019562Y+011437
X+018812Y+012687
X+018812Y+013281
X+017437Y+013281
X+017437Y+012687
X+016281Y+012437
X+015625Y+011875
X+015630Y+011058
X+015443Y+011058
X+015255Y+011058
X+014750Y+010625
X+015187Y+009937
X+014875Y+009500
X+015500Y+009250
X+016187Y+009250
X+016562Y+009625
X+017000Y+009937
X+017062Y+009312
X+017724Y+009599
X+018125Y+009250
X+018500Y+009624
X+018875Y+009250
X+019406Y+009250
X+019375Y+008687
X+018437Y+008562
X+018250Y+010625
X+016875Y+010625
X+015812Y+010625
X+016000Y+009937
X+014187Y+009500
X+013656Y+009437
X+013653Y+010470
X+013599Y+011042
X+012541Y+010468
X+012531Y+009437
X+012937Y+008562
X+011407Y+008541
X+011403Y+009479
X+011401Y+010468
X+011437Y+011046
X+010187Y+010125
X+009812Y+010500
X+009437Y+010125
X+009062Y+010500
X+008687Y+010125
X+008312Y+010500
X+008625Y+011062
X+008812Y+011062
X+009000Y+011062
X+007812Y+011500
X+006750Y+011625
X+006750Y+012375
X+006437Y+012937
X+005937Y+012375
X+005937Y+011625
X+005937Y+010875
X+006125Y+010375
X+006500Y+010000
X+006125Y+009625
X+006500Y+009250
X+005750Y+009250
X+005750Y+010000
X+005375Y+010375
X+004750Y+010375
X+004343Y+010843
X+004341Y+009156
X+004437Y+012937
X+005437Y+013937
X+005750Y+015250
X+005750Y+015500
X+006000Y+015500
X+006250Y+015500
X+006250Y+015250
X+006000Y+015250
X+006000Y+015750
X+006000Y+016000
X+006000Y+016250
X+006000Y+016500
X+006000Y+016750
X+006250Y+016750
X+006250Y+017000
X+006250Y+017250
X+006000Y+017250
X+006000Y+017000
X+005750Y+017000
X+005750Y+017250
X+005750Y+016750
X+005750Y+015750
X+006250Y+015750
X+006437Y+014937
X+007812Y+014937
X+008437Y+015687
X+009250Y+015687
X+009312Y+015093
X+009125Y+015093
X+009500Y+015093
X+010625Y+013968
X+011125Y+013812
X+010875Y+012875
X+009687Y+012500
X+008750Y+012500
X+009062Y+009750
X+009437Y+009375
X+009812Y+009750
X+010187Y+009375
X+009812Y+009000
X+009812Y+008375
X+012625Y+012875
X+012625Y+013812
X+014062Y+013812
X+014593Y+013988
X+015437Y+013875
X+015437Y+013156
X+014375Y+012875
X+014750Y+015062
X+015312Y+015062
X+015500Y+015062
X+015687Y+015062
X+015750Y+015375
X+016343Y+016031
X+017000Y+015375
X+017528Y+014844
X+018040Y+014844
X+018552Y+014844
X+019064Y+014844
X+019625Y+014812
X+019906Y+014500
X+020125Y+015000
X+020125Y+015187
X+020875Y+015687
X+021125Y+015937
X+020625Y+016187
X+019593Y+016468
X+019312Y+016000
X+018812Y+015812
X+018281Y+015593
X+017781Y+015375
X+016406Y+014437
X+015062Y+016375
X+015531Y+016843
X+013968Y+016375
X+013968Y+015656
X+013812Y+015500
X+014062Y+015437
X+013968Y+017406
X+013968Y+018093
X+015281Y+019562
X+015906Y+018937
X+016500Y+018343
X+017250Y+019093
X+017593Y+019437
X+017888Y+018796
X+016656Y+019687
X+017000Y+020031
X+016406Y+020687
X+016031Y+020312
X+017250Y+021312
X+017656Y+021687
X+018312Y+021781
X+017687Y+020968
X+018187Y+020343
X+018906Y+020093
X+019468Y+019906
X+019968Y+019593
X+020000Y+018906
X+019875Y+018781
X+020187Y+018906
X+020968Y+019656
X+021531Y+019656
X+021812Y+019687
X+022437Y+019656
X+022437Y+019156
X+022437Y+018656
X+022437Y+018156
X+023062Y+017906
X+023062Y+018406
X+023062Y+018906
X+023062Y+019406
X+023437Y+019656
X+024312Y+019656
X+025187Y+019656
X+025750Y+019656
X+026875Y+019656
X+028000Y+019656
X+029187Y+020187
X+029562Y+020593
X+029875Y+020062
X+030062Y+020062
X+030250Y+020062
X+030156Y+019687
X+029562Y+019687
X+030500Y+020593
X+030343Y+022437
X+029812Y+022437
X+029312Y+022750
X+029125Y+022750
X+028937Y+022750
X+028937Y+023000
X+028875Y+023875
X+029125Y+024312
X+030187Y+023875
X+030437Y+024312
X+031500Y+023875
X+031750Y+024312
X+032812Y+023875
X+033062Y+024312
X+033375Y+023937
X+033687Y+024375
X+034322Y+023878
X+035062Y+024375
X+035625Y+023875
X+036312Y+023500
X+037000Y+024062
X+037689Y+022908
X+038187Y+022937
X+038218Y+022218
X+038031Y+021781
X+038468Y+021625
X+038968Y+021562
X+038968Y+021750
X+038968Y+021937
X+040000Y+023000
X+039000Y+024062
X+038000Y+025125
X+037000Y+026187
X+036000Y+025125
X+035000Y+026187
X+034000Y+025468
X+033000Y+026187
X+031000Y+023000
X+032125Y+021625
X+033437Y+021625
X+034125Y+021625
X+034963Y+021531
X+035500Y+022156
X+035937Y+021531
X+035468Y+019968
X+035968Y+019531
X+036468Y+019218
X+035906Y+018812
X+035343Y+019062
X+034687Y+019375
X+034687Y+018531
X+033937Y+018187
X+033750Y+018906
X+035750Y+018187
X+036468Y+019968
X+036843Y+016187
X+035781Y+016187
X+034718Y+016187
X+033625Y+015062
X+033187Y+014968
X+032593Y+015000
X+032375Y+013937
X+031750Y+013750
X+031437Y+013937
X+031187Y+013562
X+030250Y+013937
X+029687Y+013937
X+029000Y+013812
X+028750Y+013812
X+028500Y+013812
X+028468Y+013343
X+027593Y+013562
X+027031Y+013937
X+026406Y+015125
X+026281Y+015250
X+026156Y+015375
X+026218Y+016031
X+027031Y+016250
X+027156Y+016125
X+027281Y+016000
X+027187Y+017000
X+027437Y+017312
X+027968Y+017750
X+028375Y+017531
X+028500Y+017406
X+028625Y+017281
X+029187Y+016281
X+030000Y+015531
X+029000Y+015187
X+030875Y+016375
X+030312Y+017187
X+031687Y+017187
X+031468Y+015000
X+033562Y+013937
X+034187Y+013937
X+034687Y+013687
X+034937Y+013687
X+035187Y+013687
X+034937Y+012937
X+035875Y+012937
X+036687Y+013437
X+037000Y+012625
X+037937Y+013437
X+038812Y+012625
X+039500Y+013437
X+040437Y+012437
X+041437Y+013437
X+042000Y+012593
X+041437Y+011437
X+042437Y+010437
X+041437Y+009437
X+040437Y+010437
X+039437Y+009437
X+038281Y+009062
X+037812Y+008562
X+037812Y+008375
X+037812Y+008187
X+037812Y+008000
X+037812Y+007812
X+037406Y+007625
X+037406Y+008250
X+037375Y+008562
X+037375Y+008875
X+037375Y+009187
X+036906Y+008937
X+036906Y+008187
X+036343Y+008375
X+035718Y+008781
X+035625Y+009656
X+036250Y+010562
X+035812Y+011625
X+034937Y+011062
X+034750Y+011062
X+034562Y+011062
X+034187Y+010562
X+034562Y+010062
X+033937Y+009250
X+033937Y+008750
X+033625Y+008312
X+033375Y+008750
X+033335Y+009414
X+033062Y+009687
X+032600Y+009000
X+032185Y+009437
X+031937Y+009687
X+031471Y+008998
X+031060Y+009435
X+030812Y+009687
X+030812Y+010562
X+030857Y+011053
X+031937Y+010562
X+033062Y+010562
X+033023Y+011051
X+033562Y+012437
X+033937Y+012937
X+034750Y+011750
X+032437Y+012437
X+031437Y+012437
X+030250Y+012437
X+028937Y+012437
X+027500Y+012437
X+027500Y+011500
X+028033Y+011067
X+028220Y+011067
X+028404Y+011069
X+028937Y+010437
X+028843Y+009250
X+029250Y+009187
X+029625Y+008812
X+029125Y+008312
X+028750Y+008656
X+028250Y+008156
X+027875Y+008812
X+027750Y+009343
X+028312Y+009250
X+027062Y+009343
X+026531Y+008812
X+026125Y+009156
X+025906Y+008562
X+025875Y+007968
X+025625Y+007500
X+025375Y+008250
X+024625Y+008500
X+024375Y+008500
X+024125Y+008500
X+024125Y+008750
X+024125Y+009000
X+024125Y+009250
X+024125Y+009500
X+024125Y+009750
X+024125Y+010000
X+024125Y+010250
X+024125Y+010500
X+023562Y+010500
X+022500Y+010687
X+022500Y+010156
X+022000Y+009812
X+023468Y+008937
X+023625Y+008500
X+023875Y+008500
X+024625Y+009000
X+024909Y+009596
X+025437Y+009343
X+025750Y+009781
X+026125Y+010156
X+025750Y+010531
X+025250Y+011468
X+025843Y+011968
X+025843Y+013031
X+024812Y+013937
X+025343Y+015125
X+024593Y+016250
X+025093Y+016750
X+025593Y+017250
X+026093Y+017718
X+026437Y+017968
X+026656Y+018187
X+025593Y+018156
X+025093Y+017718
X+024593Y+018156
X+024093Y+017718
X+024593Y+017250
X+024093Y+016750
X+023593Y+016250
X+024093Y+015750
X+023625Y+015250
X+023625Y+014718
X+023093Y+015750
X+022419Y+016360
X+022544Y+016485
X+022669Y+016610
X+023093Y+016750
X+023593Y+017250
X+022593Y+017250
X+022093Y+016750
X+021562Y+017625
X+021375Y+017625
X+021187Y+017625
X+019256Y+017930
X+018250Y+017000
X+020125Y+013937
X+020437Y+013500
X+020937Y+013281
X+020937Y+012687
X+020437Y+012843
X+021218Y+014156
X+022437Y+013937
X+021812Y+015250
X+023250Y+011968
X+024218Y+011468
X+024625Y+012343
X+026937Y+010437
X+026875Y+008281
X+027437Y+008312
X+027625Y+007500
X+026625Y+007500
X+028625Y+007500
X+029625Y+007500
X+030125Y+008187
X+030406Y+008812
X+030625Y+007500
X+031625Y+007500
X+031875Y+008250
X+032656Y+008312
X+032625Y+007500
X+033625Y+007500
X+034625Y+007500
X+035625Y+007500
X+036625Y+007500
X+038281Y+008375
X+038502Y+008093
X+038687Y+007093
X+039437Y+011437
X+040437Y+014437
X+039687Y+015562
X+039656Y+016250
X+040437Y+016281
X+041062Y+015812
X+042000Y+016843
X+042937Y+015812
X+042000Y+014718
X+042937Y+013687
X+039000Y+014781
X+038968Y+015593
X+039906Y+017906
X+040468Y+019593
X+040468Y+020781
X+041000Y+021937
X+042000Y+020875
X+042937Y+021937
X+041999Y+023000
X+042937Y+024062
X+042000Y+025125
X+042937Y+026187
X+041000Y+026187
X+040000Y+025125
X+039000Y+026187
X+041000Y+024062
X+042937Y+019812
X+042937Y+017937
X+036437Y+014875
X+034562Y+008750
X+024625Y+007500
X+023625Y+007500
X+020250Y+020562
X+019843Y+020875
X+019937Y+021531
X+019750Y+021531
X+020125Y+021531
X+020375Y+021312
X+020500Y+021968
X+020937Y+022500
X+021062Y+022374
X+021187Y+022250
X+021281Y+022718
X+021625Y+023093
X+022125Y+022593
X+022281Y+022000
X+022625Y+022187
X+023125Y+022593
X+023625Y+022187
X+024125Y+022593
X+024625Y+022187
X+025125Y+022593
X+025687Y+022218
X+025625Y+023093
X+024624Y+023093
X+024125Y+023593
X+023625Y+023093
X+023125Y+023593
X+022562Y+023625
X+022437Y+023750
X+022312Y+023875
X+022156Y+023625
X+022656Y+024125
X+023156Y+024625
X+023656Y+024125
X+024156Y+024625
X+024656Y+024125
X+023625Y+025187
X+023875Y+025812
X+023312Y+025812
X+022750Y+026312
X+022187Y+026312
X+020375Y+025406
X+020187Y+025406
X+020000Y+025406
X+019500Y+024218
X+019640Y+023226
X+018312Y+023968
X+018125Y+023968
X+017937Y+023968
X+018187Y+025406
X+016156Y+025406
X+015531Y+025500
X+014500Y+025500
X+014000Y+025187
X+013875Y+025062
X+013750Y+024937
X+014062Y+024781
X+014750Y+024750
X+014000Y+023937
X+013531Y+023437
X+013093Y+023000
X+012781Y+023437
X+012538Y+022900
X+012125Y+023468
X+011751Y+023093
X+011343Y+023468
X+010767Y+023105
X+010373Y+023468
X+009979Y+023099
X+009593Y+022781
X+009586Y+023468
X+008437Y+022437
X+007437Y+021437
X+006812Y+020812
X+006656Y+021000
X+006468Y+021000
X+006281Y+021000
X+006093Y+021000
X+005906Y+021000
X+005718Y+021000
X+005531Y+021000
X+005343Y+021000
X+005187Y+020812
X+005000Y+020625
X+005000Y+020437
X+005000Y+020250
X+005000Y+020062
X+004437Y+020437
X+004875Y+019187
X+006000Y+019187
X+007125Y+019187
X+007000Y+020062
X+007000Y+020250
X+007000Y+020437
X+007000Y+020625
X+008437Y+020437
X+009437Y+019437
X+008500Y+018500
X+007812Y+016875
X+011125Y+015750
X+011312Y+015562
X+010437Y+020437
X+009437Y+021437
X+007437Y+023437
X+006437Y+022437
X+005437Y+021437
X+004437Y+022437
X+005437Y+023437
X+004437Y+024437
X+005437Y+025437
X+004437Y+026300
X+006437Y+026300
X+007437Y+025437
X+008437Y+026300
X+009625Y+025062
X+010375Y+025062
X+010437Y+025500
X+010625Y+025500
X+010250Y+025500
X+011250Y+025062
X+011875Y+025062
X+012500Y+025062
X+012000Y+025687
X+013125Y+025687
X+016437Y+023968
X+016906Y+022625
X+017093Y+022625
X+017281Y+022625
X+021156Y+021312
X+021375Y+021781
X+022156Y+021312
X+023156Y+021312
X+024156Y+021312
X+025156Y+021312
X+025750Y+021312
X+026593Y+021312
X+027468Y+021312
X+026625Y+022218
X+027562Y+023250
X+027031Y+024000
X+026843Y+024000
X+026656Y+024000
X+026125Y+026312
X+025562Y+026312
X+025000Y+026312
X+024437Y+026312
X+022625Y+023093
X+006437Y+024437
X+004312Y+017812
X+004437Y+014937
T02
X+031937Y+026187
X+030937Y+026187
X+029937Y+026187
X+028937Y+026187
X+027937Y+026187
X+026937Y+026187
T00
M30
