G04 DipTrace 4.0.0.5*
G04 TopSilk.gbr*
%MOIN*%
G04 #@! TF.FileFunction,Legend,Top*
G04 #@! TF.Part,Single*
%ADD10C,0.009843*%
%ADD13C,0.004724*%
%ADD29C,0.003937*%
%ADD79C,0.00772*%
%ADD80C,0.013123*%
%ADD81C,0.010936*%
%FSLAX26Y26*%
G04*
G70*
G90*
G75*
G01*
G04 TopSilk*
%LPD*%
X2135827Y1103322D2*
D13*
X2051575D1*
X2135827Y1040329D2*
X2051575D1*
X1997244Y1103715D2*
Y1039936D1*
X1037539Y1070299D2*
D29*
Y1010832D1*
X1131437D1*
Y1070299D1*
X1037539D1*
X1150020D2*
Y1010832D1*
X1243917D1*
Y1070299D1*
X1150020D1*
X1262539D2*
Y1010832D1*
X1356437D1*
Y1070299D1*
X1262539D1*
X1375020D2*
Y1010832D1*
X1468917D1*
Y1070299D1*
X1375020D1*
X1715492D2*
Y1010832D1*
X1809390D1*
Y1070299D1*
X1715492D1*
X1840492D2*
Y1010832D1*
X1934390D1*
Y1070299D1*
X1840492D1*
X2978012D2*
Y1010832D1*
X3071909D1*
Y1070299D1*
X2978012D1*
X3090501Y1070310D2*
Y1010843D1*
X3184399D1*
Y1070310D1*
X3090501D1*
X3203001Y1070308D2*
Y1010841D1*
X3296899D1*
Y1070308D1*
X3203001D1*
X3315503Y1070310D2*
Y1010843D1*
X3409400D1*
Y1070310D1*
X3315503D1*
X3659253Y1070308D2*
Y1010841D1*
X3753151D1*
Y1070308D1*
X3659253D1*
X3771752D2*
Y1010841D1*
X3865650D1*
Y1070308D1*
X3771752D1*
X2371909Y1010832D2*
Y1070299D1*
X2278012D1*
Y1010832D1*
X2371909D1*
X2546909D2*
Y1070299D1*
X2453012D1*
Y1010832D1*
X2546909D1*
X2891270Y2049886D2*
D10*
X2362387Y2578769D1*
X1833633Y2050014D1*
X2362515Y1521132D1*
X2891270Y2049886D1*
G36*
X2913648Y2094419D2*
X2914418Y2095094D1*
X2915270Y2095663D1*
X2916189Y2096116D1*
X2917159Y2096446D1*
X2918164Y2096646D1*
X2919187Y2096713D1*
X2920209Y2096646D1*
X2921214Y2096446D1*
X2922184Y2096116D1*
X2923103Y2095663D1*
X2923955Y2095094D1*
X2924725Y2094419D1*
X2925401Y2093648D1*
X2925970Y2092796D1*
X2926423Y2091877D1*
X2926752Y2090907D1*
X2926952Y2089902D1*
X2927019Y2088880D1*
X2926952Y2087858D1*
X2926752Y2086853D1*
X2926423Y2085883D1*
X2925970Y2084964D1*
X2925401Y2084112D1*
X2924725Y2083341D1*
X2924661Y2083277D1*
X2923891Y2082602D1*
X2923039Y2082033D1*
X2922120Y2081579D1*
X2921150Y2081250D1*
X2920145Y2081050D1*
X2919123Y2080983D1*
X2918100Y2081050D1*
X2917095Y2081250D1*
X2916125Y2081579D1*
X2915206Y2082033D1*
X2914354Y2082602D1*
X2913584Y2083277D1*
X2912909Y2084048D1*
X2912339Y2084900D1*
X2911886Y2085819D1*
X2911557Y2086789D1*
X2911357Y2087794D1*
X2911290Y2088816D1*
X2911357Y2089838D1*
X2911557Y2090843D1*
X2911886Y2091813D1*
X2912339Y2092732D1*
X2912909Y2093584D1*
X2913584Y2094354D1*
X2913648Y2094419D1*
G37*
G36*
X2891270Y2049886D2*
X2855093Y2086063D1*
X2855157Y2013774D1*
X2891270Y2049886D1*
G37*
G36*
X478773Y1802445D2*
X478707Y1801440D1*
X478511Y1800451D1*
X478187Y1799497D1*
X477741Y1798594D1*
X477181Y1797756D1*
X476517Y1796999D1*
X475760Y1796334D1*
X474922Y1795775D1*
X474018Y1795329D1*
X473064Y1795005D1*
X472076Y1794809D1*
X471071Y1794743D1*
X470066Y1794809D1*
X469077Y1795005D1*
X468123Y1795329D1*
X467220Y1795775D1*
X466382Y1796334D1*
X465625Y1796999D1*
X464960Y1797756D1*
X464401Y1798594D1*
X463955Y1799497D1*
X463631Y1800451D1*
X463435Y1801440D1*
X463369Y1802445D1*
Y1802471D1*
X463435Y1803476D1*
X463631Y1804465D1*
X463955Y1805419D1*
X464401Y1806322D1*
X464960Y1807160D1*
X465625Y1807917D1*
X466382Y1808582D1*
X467220Y1809141D1*
X468123Y1809587D1*
X469077Y1809911D1*
X470066Y1810107D1*
X471071Y1810173D1*
X472076Y1810107D1*
X473064Y1809911D1*
X474018Y1809587D1*
X474922Y1809141D1*
X475760Y1808582D1*
X476517Y1807917D1*
X477181Y1807160D1*
X477741Y1806322D1*
X478187Y1805419D1*
X478511Y1804465D1*
X478707Y1803476D1*
X478773Y1802471D1*
Y1802445D1*
G37*
X470031Y1891707D2*
D10*
X729862D1*
X470031Y2001944D2*
X729862D1*
Y1891707D2*
Y2001944D1*
X470031Y1891707D2*
Y2001944D1*
X830596Y1741185D2*
X1381806D1*
Y2402466D1*
X830596D1*
Y2095424D1*
Y1741185D2*
Y2048227D1*
G03X830596Y2095424I49J23598D01*
G01*
X3697878Y1829362D2*
Y2164026D1*
X3700613Y2173878D2*
X3511577D1*
X3464423D2*
G03X3511577Y2173878I23577J-5634D01*
G01*
X3277375D2*
X3277293Y1822062D1*
X3277375Y1819510D2*
X3946665D1*
X3946915Y1822345D2*
X3946665Y2173878D1*
X3647491D1*
X3576551D2*
X3277375D1*
X3576551D2*
G03X3647491Y2173878I35470J33D01*
G01*
X1003912Y1234125D2*
X1499957D1*
Y1430957D1*
X1003912D1*
Y1352210D1*
Y1234125D2*
Y1312871D1*
G03X1003912Y1352210I24J19669D01*
G01*
X2945678Y1229660D2*
X3441723D1*
Y1426492D1*
X2945678D1*
Y1347745D1*
Y1229660D2*
Y1308407D1*
G03X2945678Y1347745I24J19669D01*
G01*
X1663239Y1276748D2*
X1970357D1*
X1663239Y1402719D2*
X1970357D1*
Y1276748D2*
Y1402719D1*
X1663239Y1276748D2*
Y1320045D1*
Y1359423D2*
Y1402719D1*
Y1320045D2*
G03X1663239Y1359423I-3J19689D01*
G01*
X3602642Y1271340D2*
X3909760D1*
X3602642Y1397311D2*
X3909760D1*
Y1271340D2*
Y1397311D1*
X3602642Y1271340D2*
Y1314636D1*
Y1354014D2*
Y1397311D1*
Y1314636D2*
G03X3602642Y1354014I-3J19689D01*
G01*
X887762Y780794D2*
D80*
Y720506D1*
X907858D1*
X916481Y723425D1*
X922251Y729129D1*
X925103Y734899D1*
X927954Y743454D1*
Y757847D1*
X925103Y766469D1*
X922251Y772172D1*
X916481Y777943D1*
X907858Y780794D1*
X887762D1*
X991475D2*
X954201D1*
Y720506D1*
X991475D1*
X954201Y752076D2*
X977149D1*
X1057914Y772172D2*
X1052210Y777943D1*
X1043588Y780794D1*
X1032114D1*
X1023492Y777943D1*
X1017722Y772172D1*
Y766469D1*
X1020640Y760698D1*
X1023492Y757847D1*
X1029196Y754995D1*
X1046440Y749225D1*
X1052210Y746373D1*
X1055062Y743454D1*
X1057914Y737751D1*
Y729129D1*
X1052210Y723425D1*
X1043588Y720506D1*
X1032114D1*
X1023492Y723425D1*
X1017722Y729129D1*
X1084160Y780794D2*
Y720506D1*
X1153451Y766469D2*
X1150599Y772172D1*
X1144829Y777943D1*
X1139125Y780794D1*
X1127651D1*
X1121881Y777943D1*
X1116177Y772172D1*
X1113259Y766469D1*
X1110407Y757847D1*
Y743454D1*
X1113259Y734899D1*
X1116177Y729129D1*
X1121881Y723425D1*
X1127651Y720506D1*
X1139125D1*
X1144829Y723425D1*
X1150599Y729129D1*
X1153451Y734899D1*
Y743454D1*
X1139125D1*
X1219890Y780794D2*
Y720506D1*
X1179698Y780794D1*
Y720506D1*
X1283410Y780794D2*
X1246136D1*
Y720506D1*
X1283410D1*
X1246136Y752076D2*
X1269084D1*
X1309657Y780794D2*
Y720506D1*
X1329753D1*
X1338375Y723425D1*
X1344145Y729129D1*
X1346997Y734899D1*
X1349849Y743454D1*
Y757847D1*
X1346997Y766469D1*
X1344145Y772172D1*
X1338375Y777943D1*
X1329753Y780794D1*
X1309657D1*
X1442136D2*
Y720506D1*
X1508575Y780794D2*
Y720506D1*
X1468383Y780794D1*
Y720506D1*
X1600863Y752076D2*
X1626663D1*
X1635285Y754995D1*
X1638203Y757847D1*
X1641055Y763550D1*
Y769321D1*
X1638203Y775024D1*
X1635285Y777943D1*
X1626663Y780794D1*
X1600863D1*
Y720506D1*
X1620959Y752076D2*
X1641055Y720506D1*
X1667301Y780794D2*
Y737751D1*
X1670153Y729129D1*
X1675923Y723425D1*
X1684546Y720506D1*
X1690249D1*
X1698871Y723425D1*
X1704642Y729129D1*
X1707493Y737751D1*
Y780794D1*
X1773932Y772172D2*
X1768228Y777943D1*
X1759606Y780794D1*
X1748132D1*
X1739510Y777943D1*
X1733740Y772172D1*
Y766469D1*
X1736658Y760698D1*
X1739510Y757847D1*
X1745214Y754995D1*
X1762458Y749225D1*
X1768228Y746373D1*
X1771080Y743454D1*
X1773932Y737751D1*
Y729129D1*
X1768228Y723425D1*
X1759606Y720506D1*
X1748132D1*
X1739510Y723425D1*
X1733740Y729129D1*
X1840371Y772172D2*
X1834667Y777943D1*
X1826045Y780794D1*
X1814571D1*
X1805949Y777943D1*
X1800179Y772172D1*
Y766469D1*
X1803097Y760698D1*
X1805949Y757847D1*
X1811653Y754995D1*
X1828897Y749225D1*
X1834667Y746373D1*
X1837519Y743454D1*
X1840371Y737751D1*
Y729129D1*
X1834667Y723425D1*
X1826045Y720506D1*
X1814571D1*
X1805949Y723425D1*
X1800179Y729129D1*
X1866618Y780794D2*
Y720506D1*
X1938826D2*
X1915812Y780794D1*
X1892864Y720506D1*
X1901486Y740602D2*
X1930204D1*
X3068308Y766470D2*
X3065456Y772174D1*
X3059686Y777944D1*
X3053982Y780796D1*
X3042508D1*
X3036738Y777944D1*
X3031034Y772174D1*
X3028116Y766470D1*
X3025264Y757848D1*
Y743456D1*
X3028116Y734900D1*
X3031034Y729130D1*
X3036738Y723426D1*
X3042508Y720508D1*
X3053982D1*
X3059686Y723426D1*
X3065456Y729130D1*
X3068308Y734900D1*
X3094554Y780796D2*
Y720508D1*
X3128976D1*
X3155223Y780796D2*
Y737752D1*
X3158075Y729130D1*
X3163845Y723426D1*
X3172467Y720508D1*
X3178171D1*
X3186793Y723426D1*
X3192563Y729130D1*
X3195415Y737752D1*
Y780796D1*
X3261854Y772174D2*
X3256150Y777944D1*
X3247528Y780796D1*
X3236054D1*
X3227432Y777944D1*
X3221662Y772174D1*
Y766470D1*
X3224580Y760700D1*
X3227432Y757848D1*
X3233136Y754996D1*
X3250380Y749226D1*
X3256150Y746374D1*
X3259002Y743456D1*
X3261854Y737752D1*
Y729130D1*
X3256150Y723426D1*
X3247528Y720508D1*
X3236054D1*
X3227432Y723426D1*
X3221662Y729130D1*
X3308196Y780796D2*
Y720508D1*
X3288100Y780796D2*
X3328292D1*
X3391813D2*
X3354539D1*
Y720508D1*
X3391813D1*
X3354539Y752078D2*
X3377487D1*
X3418060D2*
X3443859D1*
X3452482Y754996D1*
X3455400Y757848D1*
X3458252Y763552D1*
Y769322D1*
X3455400Y775026D1*
X3452482Y777944D1*
X3443859Y780796D1*
X3418060D1*
Y720508D1*
X3438156Y752078D2*
X3458252Y720508D1*
X3484498Y752078D2*
X3510298D1*
X3518920Y754996D1*
X3521838Y757848D1*
X3524690Y763552D1*
Y769322D1*
X3521838Y775026D1*
X3518920Y777944D1*
X3510298Y780796D1*
X3484498D1*
Y720508D1*
X3504594Y752078D2*
X3524690Y720508D1*
X3550937Y752078D2*
X3576737D1*
X3585359Y754996D1*
X3588277Y757848D1*
X3591129Y763552D1*
Y769322D1*
X3588277Y775026D1*
X3585359Y777944D1*
X3576737Y780796D1*
X3550937D1*
Y720508D1*
X3571033Y752078D2*
X3591129Y720508D1*
X3620228Y726278D2*
X3617376Y723360D1*
X3620228Y720508D1*
X3623146Y723360D1*
X3620228Y726278D1*
X3692437Y766470D2*
X3689585Y772174D1*
X3683815Y777944D1*
X3678111Y780796D1*
X3666637D1*
X3660867Y777944D1*
X3655163Y772174D1*
X3652245Y766470D1*
X3649393Y757848D1*
Y743456D1*
X3652245Y734900D1*
X3655163Y729130D1*
X3660867Y723426D1*
X3666637Y720508D1*
X3678111D1*
X3683815Y723426D1*
X3689585Y729130D1*
X3692437Y734900D1*
X3735927Y780796D2*
X3730157Y777944D1*
X3724453Y772174D1*
X3721535Y766470D1*
X3718683Y757848D1*
Y743456D1*
X3721535Y734900D1*
X3724453Y729130D1*
X3730157Y723426D1*
X3735927Y720508D1*
X3747401D1*
X3753105Y723426D1*
X3758875Y729130D1*
X3761727Y734900D1*
X3764579Y743456D1*
Y757848D1*
X3761727Y766470D1*
X3758875Y772174D1*
X3753105Y777944D1*
X3747401Y780796D1*
X3735927D1*
X3836722Y720508D2*
Y780796D1*
X3813774Y720508D1*
X3790826Y780796D1*
Y720508D1*
X3803860Y2625698D2*
D81*
X3801484Y2630451D1*
X3796675Y2635260D1*
X3791922Y2637636D1*
X3782360D1*
X3777552Y2635260D1*
X3772799Y2630451D1*
X3770367Y2625698D1*
X3767990Y2618513D1*
Y2606520D1*
X3770367Y2599390D1*
X3772799Y2594581D1*
X3777552Y2589828D1*
X3782360Y2587396D1*
X3791922D1*
X3796675Y2589828D1*
X3801484Y2594581D1*
X3803860Y2599390D1*
X3840102Y2637636D2*
X3835294Y2635260D1*
X3830541Y2630451D1*
X3828109Y2625698D1*
X3825732Y2618513D1*
Y2606520D1*
X3828109Y2599390D1*
X3830541Y2594581D1*
X3835294Y2589828D1*
X3840102Y2587396D1*
X3849664D1*
X3854417Y2589828D1*
X3859226Y2594581D1*
X3861602Y2599390D1*
X3863979Y2606520D1*
Y2618513D1*
X3861602Y2625698D1*
X3859226Y2630451D1*
X3854417Y2635260D1*
X3849664Y2637636D1*
X3840102D1*
X3900221D2*
X3895413Y2635260D1*
X3890660Y2630451D1*
X3888228Y2625698D1*
X3885851Y2618513D1*
Y2606520D1*
X3888228Y2599390D1*
X3890660Y2594581D1*
X3895413Y2589828D1*
X3900221Y2587396D1*
X3909783D1*
X3914536Y2589828D1*
X3919345Y2594581D1*
X3921721Y2599390D1*
X3924098Y2606520D1*
Y2618513D1*
X3921721Y2625698D1*
X3919345Y2630451D1*
X3914536Y2635260D1*
X3909783Y2637636D1*
X3900221D1*
X3945970D2*
Y2587396D1*
X3974655D1*
X4032397Y2625698D2*
X4030020Y2630451D1*
X4025212Y2635260D1*
X4020459Y2637636D1*
X4010897D1*
X4006089Y2635260D1*
X4001336Y2630451D1*
X3998904Y2625698D1*
X3996527Y2618513D1*
Y2606520D1*
X3998904Y2599390D1*
X4001336Y2594581D1*
X4006089Y2589828D1*
X4010897Y2587396D1*
X4020459D1*
X4025212Y2589828D1*
X4030020Y2594581D1*
X4032397Y2599390D1*
Y2606520D1*
X4020459D1*
X4054269Y2637636D2*
Y2587396D1*
X4076142Y2613705D2*
X4097641D1*
X4104826Y2616137D1*
X4107258Y2618513D1*
X4109635Y2623266D1*
Y2628075D1*
X4107258Y2632828D1*
X4104826Y2635260D1*
X4097641Y2637636D1*
X4076142D1*
Y2587396D1*
X4092888Y2613705D2*
X4109635Y2587396D1*
X4131507Y2637636D2*
Y2587396D1*
X4160192D1*
X3777310Y2498208D2*
Y2548448D1*
X3758187Y2498208D1*
X3739064Y2548448D1*
Y2498208D1*
X3799183Y2548448D2*
Y2512578D1*
X3801559Y2505393D1*
X3806368Y2500640D1*
X3813553Y2498208D1*
X3818306D1*
X3825491Y2500640D1*
X3830299Y2505393D1*
X3832676Y2512578D1*
Y2548448D1*
X3854548D2*
Y2498208D1*
X3883233D1*
X3921852Y2548448D2*
Y2498208D1*
X3905105Y2548448D2*
X3938599D1*
X3960471D2*
Y2498208D1*
X4018213Y2536510D2*
X4015837Y2541263D1*
X4011028Y2546072D1*
X4006275Y2548448D1*
X3996713D1*
X3991905Y2546072D1*
X3987152Y2541263D1*
X3984720Y2536510D1*
X3982343Y2529325D1*
Y2517331D1*
X3984720Y2510202D1*
X3987152Y2505393D1*
X3991905Y2500640D1*
X3996713Y2498208D1*
X4006275D1*
X4011028Y2500640D1*
X4015837Y2505393D1*
X4018213Y2510202D1*
X4078387Y2498208D2*
X4059209Y2548448D1*
X4040085Y2498208D1*
X4047270Y2514955D2*
X4071202D1*
X4100259Y2524516D2*
X4121759D1*
X4128944Y2526948D1*
X4131376Y2529325D1*
X4133753Y2534078D1*
Y2538887D1*
X4131376Y2543640D1*
X4128944Y2546072D1*
X4121759Y2548448D1*
X4100259D1*
Y2498208D1*
X4117006Y2524516D2*
X4133753Y2498208D1*
X4172372Y2548448D2*
Y2498208D1*
X4155625Y2548448D2*
X4189118D1*
X3782471Y2435328D2*
X3803971D1*
X3811156Y2437760D1*
X3813588Y2440137D1*
X3815964Y2444890D1*
Y2449698D1*
X3813588Y2454451D1*
X3811156Y2456883D1*
X3803971Y2459260D1*
X3782471D1*
Y2409020D1*
X3799217Y2435328D2*
X3815964Y2409020D1*
X3868898Y2459260D2*
X3837836D1*
Y2409020D1*
X3868898D1*
X3837836Y2435328D2*
X3856960D1*
X3890770Y2459260D2*
X3909893Y2409020D1*
X3929017Y2459260D1*
X3953266Y2413828D2*
X3950889Y2411396D1*
X3953266Y2409020D1*
X3955697Y2411396D1*
X3953266Y2413828D1*
X4061289Y2452075D2*
X4058912Y2456828D1*
X4051727Y2459205D1*
X4046974D1*
X4039789Y2456828D1*
X4034980Y2449643D1*
X4032604Y2437705D1*
Y2425767D1*
X4034980Y2416205D1*
X4039789Y2411396D1*
X4046974Y2409020D1*
X4049350D1*
X4056480Y2411396D1*
X4061289Y2416205D1*
X4063665Y2423390D1*
Y2425767D1*
X4061289Y2432952D1*
X4056480Y2437705D1*
X4049350Y2440081D1*
X4046974D1*
X4039789Y2437705D1*
X4034980Y2432952D1*
X4032604Y2425767D1*
X4087914Y2413828D2*
X4085537Y2411396D1*
X4087914Y2409020D1*
X4090346Y2411396D1*
X4087914Y2413828D1*
X4117027Y2459205D2*
X4143280D1*
X4128965Y2440081D1*
X4136150D1*
X4140903Y2437705D1*
X4143280Y2435328D1*
X4145711Y2428143D1*
Y2423390D1*
X4143280Y2416205D1*
X4138526Y2411396D1*
X4131341Y2409020D1*
X4124156D1*
X4117027Y2411396D1*
X4114650Y2413828D1*
X4112218Y2418581D1*
X3710041Y2358133D2*
X3707665Y2362887D1*
X3702856Y2367695D1*
X3698103Y2370072D1*
X3688542D1*
X3683733Y2367695D1*
X3678980Y2362887D1*
X3676548Y2358133D1*
X3674171Y2350948D1*
Y2338955D1*
X3676548Y2331825D1*
X3678980Y2327017D1*
X3683733Y2322263D1*
X3688542Y2319832D1*
X3698103D1*
X3702856Y2322263D1*
X3707665Y2327017D1*
X3710041Y2331825D1*
Y2338955D1*
X3698103D1*
X3746284Y2370072D2*
X3741475Y2367695D1*
X3736722Y2362887D1*
X3734290Y2358133D1*
X3731914Y2350948D1*
Y2338955D1*
X3734290Y2331825D1*
X3736722Y2327017D1*
X3741475Y2322263D1*
X3746284Y2319832D1*
X3755845D1*
X3760599Y2322263D1*
X3765407Y2327017D1*
X3767784Y2331825D1*
X3770160Y2338955D1*
Y2350948D1*
X3767784Y2358133D1*
X3765407Y2362887D1*
X3760599Y2367695D1*
X3755845Y2370072D1*
X3746284D1*
X3792032D2*
Y2319832D1*
X3820717D1*
X3842590Y2370072D2*
Y2319832D1*
X3859336D1*
X3866521Y2322263D1*
X3871330Y2327017D1*
X3873706Y2331825D1*
X3876083Y2338955D1*
Y2350948D1*
X3873706Y2358133D1*
X3871330Y2362887D1*
X3866521Y2367695D1*
X3859336Y2370072D1*
X3842590D1*
X3984051D2*
X3952989D1*
Y2319832D1*
X3984051D1*
X3952989Y2346140D2*
X3972112D1*
X4005923Y2370072D2*
Y2319832D1*
X4022670D1*
X4029855Y2322263D1*
X4034663Y2327017D1*
X4037040Y2331825D1*
X4039416Y2338955D1*
Y2350948D1*
X4037040Y2358133D1*
X4034663Y2362887D1*
X4029855Y2367695D1*
X4022670Y2370072D1*
X4005923D1*
X4061289D2*
Y2319832D1*
X4099907Y2370072D2*
Y2319832D1*
X4083161Y2370072D2*
X4116654D1*
X4138526D2*
Y2319832D1*
X4174769Y2370072D2*
X4169960Y2367695D1*
X4165207Y2362887D1*
X4162775Y2358133D1*
X4160399Y2350948D1*
Y2338955D1*
X4162775Y2331825D1*
X4165207Y2327017D1*
X4169960Y2322263D1*
X4174769Y2319832D1*
X4184330D1*
X4189084Y2322263D1*
X4193892Y2327017D1*
X4196269Y2331825D1*
X4198645Y2338955D1*
Y2350948D1*
X4196269Y2358133D1*
X4193892Y2362887D1*
X4189084Y2367695D1*
X4184330Y2370072D1*
X4174769D1*
X4254011D2*
Y2319832D1*
X4220517Y2370072D1*
Y2319832D1*
X691670Y1719675D2*
D79*
X689293Y1724428D1*
X684485Y1729236D1*
X679732Y1731613D1*
X670170D1*
X665362Y1729236D1*
X660609Y1724428D1*
X658177Y1719675D1*
X655800Y1712490D1*
Y1700496D1*
X658177Y1693366D1*
X660609Y1688558D1*
X665362Y1683805D1*
X670170Y1681373D1*
X679732D1*
X684485Y1683805D1*
X689293Y1688558D1*
X691670Y1693366D1*
X707109Y1721996D2*
X711918Y1724428D1*
X719103Y1731558D1*
Y1681373D1*
X505920Y1719675D2*
X503544Y1724428D1*
X498735Y1729236D1*
X493982Y1731613D1*
X484420D1*
X479612Y1729236D1*
X474859Y1724428D1*
X472427Y1719675D1*
X470050Y1712490D1*
Y1700496D1*
X472427Y1693366D1*
X474859Y1688558D1*
X479612Y1683805D1*
X484420Y1681373D1*
X493982D1*
X498735Y1683805D1*
X503544Y1688558D1*
X505920Y1693366D1*
X523791Y1719619D2*
Y1721996D1*
X526168Y1726804D1*
X528544Y1729181D1*
X533353Y1731558D1*
X542914D1*
X547668Y1729181D1*
X550044Y1726804D1*
X552476Y1721996D1*
Y1717243D1*
X550044Y1712434D1*
X545291Y1705305D1*
X521359Y1681373D1*
X554853D1*
X881136Y1174272D2*
X876383Y1171895D1*
X871575Y1167087D1*
X869198Y1162334D1*
Y1152772D1*
X871575Y1147964D1*
X876383Y1143210D1*
X881136Y1140778D1*
X888321Y1138402D1*
X900315D1*
X907445Y1140778D1*
X912253Y1143210D1*
X917006Y1147964D1*
X919438Y1152772D1*
Y1162334D1*
X917006Y1167087D1*
X912253Y1171895D1*
X907445Y1174272D1*
X869253Y1194520D2*
Y1220773D1*
X888377Y1206458D1*
Y1213643D1*
X890753Y1218396D1*
X893130Y1220773D1*
X900315Y1223204D1*
X905068D1*
X912253Y1220773D1*
X917062Y1216019D1*
X919438Y1208834D1*
Y1201649D1*
X917062Y1194520D1*
X914630Y1192143D1*
X909877Y1189711D1*
X883697Y1473876D2*
X878944Y1471500D1*
X874135Y1466691D1*
X871759Y1461938D1*
Y1452376D1*
X874135Y1447568D1*
X878944Y1442815D1*
X883697Y1440383D1*
X890882Y1438006D1*
X902875D1*
X910005Y1440383D1*
X914814Y1442815D1*
X919567Y1447568D1*
X921999Y1452376D1*
Y1461938D1*
X919567Y1466691D1*
X914814Y1471500D1*
X910005Y1473876D1*
X921999Y1513247D2*
X871814D1*
X905252Y1489315D1*
Y1525185D1*
X1531136Y1175066D2*
X1526383Y1172689D1*
X1521575Y1167881D1*
X1519198Y1163128D1*
Y1153566D1*
X1521575Y1148757D1*
X1526383Y1144004D1*
X1531136Y1141572D1*
X1538321Y1139196D1*
X1550315D1*
X1557445Y1141572D1*
X1562253Y1144004D1*
X1567006Y1148757D1*
X1569438Y1153566D1*
Y1163128D1*
X1567006Y1167881D1*
X1562253Y1172689D1*
X1557445Y1175066D1*
X1519253Y1219190D2*
Y1195313D1*
X1540753Y1192937D1*
X1538377Y1195313D1*
X1535945Y1202499D1*
Y1209628D1*
X1538377Y1216813D1*
X1543130Y1221622D1*
X1550315Y1223998D1*
X1555068D1*
X1562253Y1221622D1*
X1567062Y1216813D1*
X1569438Y1209628D1*
Y1202499D1*
X1567062Y1195313D1*
X1564630Y1192937D1*
X1559877Y1190505D1*
X1533697Y1472759D2*
X1528944Y1470383D1*
X1524135Y1465574D1*
X1521759Y1460821D1*
Y1451260D1*
X1524135Y1446451D1*
X1528944Y1441698D1*
X1533697Y1439266D1*
X1540882Y1436889D1*
X1552875D1*
X1560005Y1439266D1*
X1564814Y1441698D1*
X1569567Y1446451D1*
X1571999Y1451260D1*
Y1460821D1*
X1569567Y1465574D1*
X1564814Y1470383D1*
X1560005Y1472759D1*
X1528944Y1516884D2*
X1524190Y1514507D1*
X1521814Y1507322D1*
Y1502569D1*
X1524190Y1495384D1*
X1531375Y1490575D1*
X1543314Y1488199D1*
X1555252D1*
X1564814Y1490575D1*
X1569622Y1495384D1*
X1571999Y1502569D1*
Y1504945D1*
X1569622Y1512075D1*
X1564814Y1516884D1*
X1557628Y1519260D1*
X1555252D1*
X1548067Y1516884D1*
X1543314Y1512075D1*
X1540937Y1504945D1*
Y1502569D1*
X1543314Y1495384D1*
X1548067Y1490575D1*
X1555252Y1488199D1*
X2831135Y1175176D2*
X2826382Y1172799D1*
X2821573Y1167991D1*
X2819197Y1163238D1*
Y1153676D1*
X2821573Y1148868D1*
X2826382Y1144115D1*
X2831135Y1141683D1*
X2838320Y1139306D1*
X2850314D1*
X2857443Y1141683D1*
X2862252Y1144115D1*
X2867005Y1148868D1*
X2869437Y1153676D1*
Y1163238D1*
X2867005Y1167991D1*
X2862252Y1172799D1*
X2857443Y1175176D1*
X2869437Y1200177D2*
X2819252Y1224109D1*
Y1190615D1*
X2831135Y1470189D2*
X2826382Y1467813D1*
X2821573Y1463004D1*
X2819197Y1458251D1*
Y1448689D1*
X2821573Y1443881D1*
X2826382Y1439128D1*
X2831135Y1436696D1*
X2838320Y1434319D1*
X2850314D1*
X2857443Y1436696D1*
X2862252Y1439128D1*
X2867005Y1443881D1*
X2869437Y1448689D1*
Y1458251D1*
X2867005Y1463004D1*
X2862252Y1467813D1*
X2857443Y1470189D1*
X2819252Y1497567D2*
X2821629Y1490437D1*
X2826382Y1488005D1*
X2831190D1*
X2835944Y1490437D1*
X2838375Y1495190D1*
X2840752Y1504752D1*
X2843129Y1511937D1*
X2847937Y1516690D1*
X2852690Y1519067D1*
X2859875D1*
X2864628Y1516690D1*
X2867060Y1514313D1*
X2869437Y1507128D1*
Y1497567D1*
X2867060Y1490437D1*
X2864628Y1488005D1*
X2859875Y1485628D1*
X2852690D1*
X2847937Y1488005D1*
X2843129Y1492814D1*
X2840752Y1499943D1*
X2838375Y1509505D1*
X2835944Y1514313D1*
X2831190Y1516690D1*
X2826382D1*
X2821629Y1514313D1*
X2819252Y1507128D1*
Y1497567D1*
X3474884Y1175372D2*
X3470131Y1172996D1*
X3465323Y1168187D1*
X3462946Y1163434D1*
Y1153872D1*
X3465323Y1149064D1*
X3470131Y1144311D1*
X3474884Y1141879D1*
X3482069Y1139502D1*
X3494063D1*
X3501193Y1141879D1*
X3506001Y1144311D1*
X3510754Y1149064D1*
X3513186Y1153872D1*
Y1163434D1*
X3510754Y1168187D1*
X3506001Y1172996D1*
X3501193Y1175372D1*
X3479693Y1221928D2*
X3486878Y1219496D1*
X3491686Y1214743D1*
X3494063Y1207558D1*
Y1205182D1*
X3491686Y1197996D1*
X3486878Y1193243D1*
X3479693Y1190811D1*
X3477316D1*
X3470131Y1193243D1*
X3465378Y1197996D1*
X3463001Y1205182D1*
Y1207558D1*
X3465378Y1214743D1*
X3470131Y1219496D1*
X3479693Y1221928D1*
X3491686D1*
X3503625Y1219496D1*
X3510810Y1214743D1*
X3513186Y1207558D1*
Y1202805D1*
X3510810Y1195620D1*
X3506001Y1193243D1*
X3474884Y1464078D2*
X3470131Y1461701D1*
X3465323Y1456893D1*
X3462946Y1452140D1*
Y1442578D1*
X3465323Y1437769D1*
X3470131Y1433016D1*
X3474884Y1430584D1*
X3482069Y1428208D1*
X3494063D1*
X3501193Y1430584D1*
X3506001Y1433016D1*
X3510754Y1437769D1*
X3513186Y1442578D1*
Y1452140D1*
X3510754Y1456893D1*
X3506001Y1461701D1*
X3501193Y1464078D1*
X3472563Y1479517D2*
X3470131Y1484325D1*
X3463001Y1491510D1*
X3513186D1*
X3463001Y1521320D2*
X3465378Y1514135D1*
X3472563Y1509326D1*
X3484501Y1506950D1*
X3491686D1*
X3503625Y1509326D1*
X3510810Y1514135D1*
X3513186Y1521320D1*
Y1526073D1*
X3510810Y1533258D1*
X3503625Y1538011D1*
X3491686Y1540443D1*
X3484501D1*
X3472563Y1538011D1*
X3465378Y1533258D1*
X3463001Y1526073D1*
Y1521320D1*
X3472563Y1538011D2*
X3503625Y1509326D1*
X1106909Y2649211D2*
X1104532Y2653965D1*
X1099724Y2658773D1*
X1094971Y2661150D1*
X1085409D1*
X1080601Y2658773D1*
X1075848Y2653965D1*
X1073416Y2649211D1*
X1071039Y2642026D1*
Y2630033D1*
X1073416Y2622903D1*
X1075848Y2618095D1*
X1080601Y2613341D1*
X1085409Y2610910D1*
X1094971D1*
X1099724Y2613341D1*
X1104532Y2618095D1*
X1106909Y2622903D1*
X1122348Y2651533D2*
X1127157Y2653965D1*
X1134342Y2661094D1*
Y2610910D1*
X1149781Y2651533D2*
X1154589Y2653965D1*
X1161775Y2661094D1*
Y2610910D1*
X2142204Y1180655D2*
X2139827Y1185408D1*
X2135019Y1190217D1*
X2130266Y1192593D1*
X2120704D1*
X2115895Y1190217D1*
X2111142Y1185408D1*
X2108710Y1180655D1*
X2106334Y1173470D1*
Y1161476D1*
X2108710Y1154347D1*
X2111142Y1149538D1*
X2115895Y1144785D1*
X2120704Y1142353D1*
X2130266D1*
X2135019Y1144785D1*
X2139827Y1149538D1*
X2142204Y1154347D1*
X2157643Y1182976D2*
X2162451Y1185408D1*
X2169636Y1192538D1*
Y1142353D1*
X2187508Y1180600D2*
Y1182976D1*
X2189884Y1187785D1*
X2192261Y1190161D1*
X2197069Y1192538D1*
X2206631D1*
X2211384Y1190161D1*
X2213761Y1187785D1*
X2216192Y1182976D1*
Y1178223D1*
X2213761Y1173415D1*
X2209007Y1166285D1*
X2185076Y1142353D1*
X2218569D1*
X3510953Y994331D2*
X3508577Y999084D1*
X3503768Y1003892D1*
X3499015Y1006269D1*
X3489453D1*
X3484645Y1003892D1*
X3479892Y999084D1*
X3477460Y994331D1*
X3475083Y987146D1*
Y975152D1*
X3477460Y968022D1*
X3479892Y963214D1*
X3484645Y958461D1*
X3489453Y956029D1*
X3499015D1*
X3503768Y958461D1*
X3508577Y963214D1*
X3510953Y968022D1*
X3526392Y996652D2*
X3531201Y999084D1*
X3538386Y1006214D1*
Y956029D1*
X3558634Y1006214D2*
X3584887D1*
X3570572Y987090D1*
X3577757D1*
X3582510Y984714D1*
X3584887Y982337D1*
X3587318Y975152D1*
Y970399D1*
X3584887Y963214D1*
X3580133Y958406D1*
X3572948Y956029D1*
X3565763D1*
X3558634Y958406D1*
X3556257Y960837D1*
X3553825Y965591D1*
X3479572Y2380076D2*
X3474819Y2377699D1*
X3470010Y2372891D1*
X3467634Y2368138D1*
Y2358576D1*
X3470010Y2353768D1*
X3474819Y2349014D1*
X3479572Y2346582D1*
X3486757Y2344206D1*
X3498751D1*
X3505880Y2346582D1*
X3510689Y2349014D1*
X3515442Y2353768D1*
X3517874Y2358576D1*
Y2368138D1*
X3515442Y2372891D1*
X3510689Y2377699D1*
X3505880Y2380076D1*
X3477251Y2395515D2*
X3474819Y2400324D1*
X3467689Y2407509D1*
X3517874D1*
Y2446880D2*
X3467689D1*
X3501127Y2422948D1*
Y2458818D1*
X3096195Y1989078D2*
X3091442Y1986701D1*
X3086634Y1981893D1*
X3084257Y1977140D1*
Y1967578D1*
X3086634Y1962769D1*
X3091442Y1958016D1*
X3096195Y1955584D1*
X3103380Y1953208D1*
X3115374D1*
X3122504Y1955584D1*
X3127312Y1958016D1*
X3132065Y1962769D1*
X3134497Y1967578D1*
Y1977140D1*
X3132065Y1981893D1*
X3127312Y1986701D1*
X3122504Y1989078D1*
X3093874Y2004517D2*
X3091442Y2009325D1*
X3084313Y2016510D1*
X3134497D1*
X3084313Y2060635D2*
Y2036758D1*
X3105812Y2034382D1*
X3103436Y2036758D1*
X3101004Y2043943D1*
Y2051073D1*
X3103436Y2058258D1*
X3108189Y2063066D1*
X3115374Y2065443D1*
X3120127D1*
X3127312Y2063066D1*
X3132121Y2058258D1*
X3134497Y2051073D1*
Y2043943D1*
X3132121Y2036758D1*
X3129689Y2034382D1*
X3124936Y2031950D1*
X1780918Y2356829D2*
X1778542Y2361583D1*
X1773733Y2366391D1*
X1768980Y2368768D1*
X1759419D1*
X1754610Y2366391D1*
X1749857Y2361583D1*
X1747425Y2356829D1*
X1745048Y2349644D1*
Y2337651D1*
X1747425Y2330521D1*
X1749857Y2325713D1*
X1754610Y2320960D1*
X1759419Y2318528D1*
X1768980D1*
X1773733Y2320960D1*
X1778542Y2325713D1*
X1780918Y2330521D1*
X1796358Y2359151D2*
X1801166Y2361583D1*
X1808351Y2368712D1*
Y2318528D1*
X1852475Y2361583D2*
X1850099Y2366336D1*
X1842914Y2368712D1*
X1838160D1*
X1830975Y2366336D1*
X1826167Y2359151D1*
X1823790Y2347213D1*
Y2335274D1*
X1826167Y2325713D1*
X1830975Y2320904D1*
X1838160Y2318528D1*
X1840537D1*
X1847667Y2320904D1*
X1852475Y2325713D1*
X1854852Y2332898D1*
Y2335274D1*
X1852475Y2342459D1*
X1847667Y2347213D1*
X1840537Y2349589D1*
X1838160D1*
X1830975Y2347213D1*
X1826167Y2342459D1*
X1823790Y2335274D1*
X1878248Y2494802D2*
X1875872Y2499555D1*
X1871063Y2504364D1*
X1866310Y2506740D1*
X1856749D1*
X1851940Y2504364D1*
X1847187Y2499555D1*
X1844755Y2494802D1*
X1842378Y2487617D1*
Y2475623D1*
X1844755Y2468494D1*
X1847187Y2463685D1*
X1851940Y2458932D1*
X1856749Y2456500D1*
X1866310D1*
X1871063Y2458932D1*
X1875872Y2463685D1*
X1878248Y2468494D1*
X1893688Y2497123D2*
X1898496Y2499555D1*
X1905681Y2506685D1*
Y2456500D1*
X1930682D2*
X1954614Y2506685D1*
X1921120D1*
X2128919Y2603363D2*
X2130599Y2608405D1*
Y2615205D1*
X2128919Y2620246D1*
X2122158Y2627007D1*
X2117077Y2628727D1*
X2110316Y2628688D1*
X2105235Y2627046D1*
X2098474Y2623646D1*
X2089994Y2615166D1*
X2086633Y2608444D1*
X2084952Y2603324D1*
Y2596602D1*
X2086633Y2591482D1*
X2093394Y2584721D1*
X2098474Y2583080D1*
X2105235Y2583041D1*
X2110316Y2584760D1*
X2141477Y2594087D2*
X2146597Y2592407D1*
X2156719Y2592368D1*
X2121233Y2556882D1*
X2176078Y2573009D2*
X2169356Y2576370D1*
X2164275Y2574728D1*
X2160875Y2571328D1*
X2159234Y2566248D1*
X2160875Y2561167D1*
X2165956Y2552726D1*
X2169356Y2545965D1*
X2169317Y2539203D1*
X2167636Y2534162D1*
X2162556Y2529081D1*
X2157514Y2527401D1*
X2154114Y2527362D1*
X2147353Y2530762D1*
X2140592Y2537523D1*
X2137231Y2544245D1*
Y2547684D1*
X2138911Y2552726D1*
X2143992Y2557806D1*
X2149033Y2559487D1*
X2155834D1*
X2162556Y2556126D1*
X2170997Y2551045D1*
X2176117Y2549365D1*
X2181158Y2551045D1*
X2184559Y2554445D1*
X2186239Y2559487D1*
X2182839Y2566248D1*
X2176078Y2573009D1*
X1802883Y1810690D2*
X1797842Y1812371D1*
X1791042D1*
X1786000Y1810690D1*
X1779239Y1803929D1*
X1777520Y1798848D1*
X1777559Y1792087D1*
X1779200Y1787007D1*
X1782600Y1780246D1*
X1791081Y1771765D1*
X1797803Y1768404D1*
X1802923Y1766723D1*
X1809645D1*
X1814764Y1768404D1*
X1821525Y1775165D1*
X1823167Y1780246D1*
X1823206Y1787007D1*
X1821486Y1792087D1*
X1812159Y1823249D2*
X1813840Y1828368D1*
X1813879Y1838490D1*
X1849365Y1803004D1*
X1858601Y1859608D2*
X1861962Y1852808D1*
X1862002Y1846047D1*
X1858601Y1839286D1*
X1856921Y1837605D1*
X1850160Y1834205D1*
X1843399Y1834244D1*
X1836599Y1837605D1*
X1834918Y1839286D1*
X1831557Y1846086D1*
Y1852808D1*
X1834957Y1859569D1*
X1836638Y1861249D1*
X1843399Y1864649D1*
X1850121D1*
X1858601Y1859608D1*
X1867082Y1851127D1*
X1873804Y1840966D1*
X1875524Y1832524D1*
X1872124Y1825763D1*
X1868763Y1822402D1*
X1862002Y1819002D1*
X1856921Y1820722D1*
X1946195Y1584577D2*
X1941442Y1582201D1*
X1936634Y1577392D1*
X1934257Y1572639D1*
Y1563077D1*
X1936634Y1558269D1*
X1941442Y1553516D1*
X1946195Y1551084D1*
X1953380Y1548707D1*
X1965374D1*
X1972504Y1551084D1*
X1977312Y1553516D1*
X1982065Y1558269D1*
X1984497Y1563077D1*
Y1572639D1*
X1982065Y1577392D1*
X1977312Y1582201D1*
X1972504Y1584577D1*
X1946251Y1602448D2*
X1943874D1*
X1939066Y1604825D1*
X1936689Y1607201D1*
X1934313Y1612010D1*
Y1621572D1*
X1936689Y1626325D1*
X1939066Y1628701D1*
X1943874Y1631133D1*
X1948627D1*
X1953436Y1628701D1*
X1960566Y1623948D1*
X1984497Y1600016D1*
Y1633510D1*
X1934313Y1663319D2*
X1936689Y1656134D1*
X1943874Y1651326D1*
X1955812Y1648949D1*
X1962997D1*
X1974936Y1651326D1*
X1982121Y1656134D1*
X1984497Y1663319D1*
Y1668072D1*
X1982121Y1675257D1*
X1974936Y1680010D1*
X1962997Y1682442D1*
X1955812D1*
X1943874Y1680010D1*
X1936689Y1675257D1*
X1934313Y1668072D1*
Y1663319D1*
X1943874Y1680010D2*
X1974936Y1651326D1*
X2048159Y1563733D2*
X2043118Y1565413D1*
X2036317D1*
X2031276Y1563733D1*
X2024515Y1556972D1*
X2022795Y1551891D1*
X2022834Y1545130D1*
X2024476Y1540049D1*
X2027876Y1533288D1*
X2036356Y1524807D1*
X2043078Y1521446D1*
X2048198Y1519766D1*
X2054920D1*
X2060040Y1521446D1*
X2066801Y1528208D1*
X2068442Y1533288D1*
X2068481Y1540049D1*
X2066762Y1545130D1*
X2060835Y1576330D2*
X2059154Y1578011D1*
X2057435Y1583091D1*
Y1586452D1*
X2059154Y1591533D1*
X2065915Y1598294D1*
X2070957Y1599975D1*
X2074318D1*
X2079438Y1598294D1*
X2082799Y1594933D1*
X2084479Y1589813D1*
X2086160Y1581411D1*
Y1547566D1*
X2109843Y1571250D1*
X2092035Y1610892D2*
X2093716Y1616011D1*
X2093755Y1626134D1*
X2129241Y1590648D1*
X2662703Y2534391D2*
X2660327Y2539144D1*
X2655518Y2543953D1*
X2650765Y2546329D1*
X2641203D1*
X2636395Y2543953D1*
X2631642Y2539144D1*
X2629210Y2534391D1*
X2626833Y2527206D1*
Y2515213D1*
X2629210Y2508083D1*
X2631642Y2503274D1*
X2636395Y2498521D1*
X2641203Y2496089D1*
X2650765D1*
X2655518Y2498521D1*
X2660327Y2503274D1*
X2662703Y2508083D1*
X2680574Y2534336D2*
Y2536712D1*
X2682951Y2541521D1*
X2685327Y2543898D1*
X2690136Y2546274D1*
X2699698D1*
X2704451Y2543898D1*
X2706827Y2541521D1*
X2709259Y2536712D1*
Y2531959D1*
X2706827Y2527151D1*
X2702074Y2520021D1*
X2678142Y2496089D1*
X2711636D1*
X2729507Y2534336D2*
Y2536712D1*
X2731883Y2541521D1*
X2734260Y2543898D1*
X2739068Y2546274D1*
X2748630D1*
X2753383Y2543898D1*
X2755760Y2541521D1*
X2758192Y2536712D1*
Y2531959D1*
X2755760Y2527151D1*
X2751007Y2520021D1*
X2727075Y2496089D1*
X2760568D1*
X2797078Y2468765D2*
X2794702Y2473518D1*
X2789893Y2478327D1*
X2785140Y2480703D1*
X2775579D1*
X2770770Y2478327D1*
X2766017Y2473518D1*
X2763585Y2468765D1*
X2761209Y2461580D1*
Y2449587D1*
X2763585Y2442457D1*
X2766017Y2437648D1*
X2770770Y2432895D1*
X2775579Y2430463D1*
X2785140D1*
X2789893Y2432895D1*
X2794702Y2437648D1*
X2797078Y2442457D1*
X2814950Y2468710D2*
Y2471086D1*
X2817326Y2475895D1*
X2819703Y2478272D1*
X2824511Y2480648D1*
X2834073D1*
X2838826Y2478272D1*
X2841203Y2475895D1*
X2843634Y2471086D1*
Y2466333D1*
X2841203Y2461525D1*
X2836449Y2454395D1*
X2812518Y2430463D1*
X2846011D1*
X2866259Y2480648D2*
X2892512D1*
X2878197Y2461525D1*
X2885382D1*
X2890135Y2459148D1*
X2892512Y2456772D1*
X2894944Y2449587D1*
Y2444833D1*
X2892512Y2437648D1*
X2887759Y2432840D1*
X2880574Y2430463D1*
X2873389D1*
X2866259Y2432840D1*
X2863882Y2435272D1*
X2861450Y2440025D1*
X2974015Y2337516D2*
X2971638Y2342269D1*
X2966830Y2347077D1*
X2962077Y2349454D1*
X2952515D1*
X2947707Y2347077D1*
X2942953Y2342269D1*
X2940522Y2337516D1*
X2938145Y2330331D1*
Y2318337D1*
X2940522Y2311208D1*
X2942953Y2306399D1*
X2947707Y2301646D1*
X2952515Y2299214D1*
X2962077D1*
X2966830Y2301646D1*
X2971638Y2306399D1*
X2974015Y2311208D1*
X2991886Y2337461D2*
Y2339837D1*
X2994263Y2344646D1*
X2996639Y2347022D1*
X3001448Y2349399D1*
X3011009D1*
X3015762Y2347022D1*
X3018139Y2344646D1*
X3020571Y2339837D1*
Y2335084D1*
X3018139Y2330276D1*
X3013386Y2323146D1*
X2989454Y2299214D1*
X3022947D1*
X3062318D2*
Y2349399D1*
X3038387Y2315961D1*
X3074257D1*
X2648669Y1565869D2*
X2650350Y1570911D1*
Y1577711D1*
X2648669Y1582752D1*
X2641908Y1589513D1*
X2636828Y1591233D1*
X2630067Y1591194D1*
X2624986Y1589552D1*
X2618225Y1586152D1*
X2609744Y1577672D1*
X2606383Y1570950D1*
X2604703Y1565830D1*
Y1559108D1*
X2606383Y1553988D1*
X2613144Y1547227D1*
X2618225Y1545586D1*
X2624986Y1545547D1*
X2630067Y1547266D1*
X2661267Y1553193D2*
X2662947Y1554874D1*
X2668028Y1556593D1*
X2671389D1*
X2676470Y1554874D1*
X2683231Y1548113D1*
X2684911Y1543071D1*
Y1539710D1*
X2683231Y1534590D1*
X2679870Y1531229D1*
X2674750Y1529549D1*
X2666348Y1527868D1*
X2632503D1*
X2656186Y1504185D1*
X2722873Y1508471D2*
X2705990Y1525354D1*
X2689106Y1511832D1*
X2692467D1*
X2699268Y1508471D1*
X2704309Y1503429D1*
X2707670Y1496629D1*
X2707709Y1489868D1*
X2704309Y1483107D1*
X2700948Y1479746D1*
X2694187Y1476346D1*
X2687387D1*
X2680626Y1479746D1*
X2675584Y1484787D1*
X2672184Y1491548D1*
X2672223Y1494948D1*
X2673865Y1500029D1*
X2786796Y1707037D2*
X2788476Y1712079D1*
Y1718879D1*
X2786796Y1723920D1*
X2780035Y1730682D1*
X2774954Y1732401D1*
X2768193Y1732362D1*
X2763112Y1730721D1*
X2756351Y1727321D1*
X2747871Y1718840D1*
X2744510Y1712118D1*
X2742829Y1706998D1*
Y1700276D1*
X2744510Y1695157D1*
X2751271Y1688395D1*
X2756351Y1686754D1*
X2763112Y1686715D1*
X2768193Y1688434D1*
X2799393Y1694361D2*
X2801074Y1696042D1*
X2806155Y1697761D1*
X2809516D1*
X2814596Y1696042D1*
X2821357Y1689281D1*
X2823038Y1684239D1*
Y1680878D1*
X2821357Y1675759D1*
X2817996Y1672398D1*
X2812877Y1670717D1*
X2804474Y1669037D1*
X2770629D1*
X2794313Y1645353D1*
X2855958Y1644597D2*
X2857638Y1649639D1*
X2854238Y1656400D1*
X2850877Y1659761D1*
X2844116Y1663161D1*
X2835635Y1661480D1*
X2825513Y1654719D1*
X2817072Y1646278D1*
X2811991Y1637836D1*
Y1631036D1*
X2815391Y1624275D1*
X2817072Y1622594D1*
X2823794Y1619233D1*
X2830594D1*
X2837355Y1622633D1*
X2839035Y1624314D1*
X2842436Y1631075D1*
X2842396Y1637836D1*
X2839035Y1644558D1*
X2837355Y1646239D1*
X2830594Y1649639D1*
X2823833Y1649678D1*
X2817072Y1646278D1*
X2918612Y1837448D2*
X2920293Y1842490D1*
Y1849290D1*
X2918612Y1854331D1*
X2911851Y1861092D1*
X2906770Y1862812D1*
X2900009Y1862773D1*
X2894929Y1861131D1*
X2888168Y1857731D1*
X2879687Y1849251D1*
X2876326Y1842529D1*
X2874646Y1837409D1*
Y1830687D1*
X2876326Y1825567D1*
X2883087Y1818806D1*
X2888168Y1817165D1*
X2894929Y1817126D1*
X2900009Y1818845D1*
X2931210Y1824772D2*
X2932890Y1826453D1*
X2937971Y1828172D1*
X2941332D1*
X2946413Y1826453D1*
X2953174Y1819692D1*
X2954854Y1814650D1*
Y1811289D1*
X2953174Y1806169D1*
X2949813Y1802808D1*
X2944693Y1801128D1*
X2936290Y1799447D1*
X2902446D1*
X2926129Y1775764D1*
X2943808Y1758086D2*
X2996216Y1776649D1*
X2972532Y1800333D1*
X4022761Y2266554D2*
X4020384Y2271307D1*
X4015576Y2276116D1*
X4010823Y2278492D1*
X4001261D1*
X3996453Y2276116D1*
X3991700Y2271307D1*
X3989268Y2266554D1*
X3986891Y2259369D1*
Y2247375D1*
X3989268Y2240246D1*
X3991700Y2235437D1*
X3996453Y2230684D1*
X4001261Y2228252D1*
X4010823D1*
X4015576Y2230684D1*
X4020384Y2235437D1*
X4022761Y2240246D1*
X4040632Y2266499D2*
Y2268875D1*
X4043009Y2273684D1*
X4045385Y2276060D1*
X4050194Y2278437D1*
X4059755D1*
X4064509Y2276060D1*
X4066885Y2273684D1*
X4069317Y2268875D1*
Y2264122D1*
X4066885Y2259314D1*
X4062132Y2252184D1*
X4038200Y2228252D1*
X4071694D1*
X4099071Y2278437D2*
X4091941Y2276060D1*
X4089509Y2271307D1*
Y2266499D1*
X4091941Y2261745D1*
X4096694Y2259314D1*
X4106256Y2256937D1*
X4113441Y2254560D1*
X4118194Y2249752D1*
X4120571Y2244999D1*
Y2237814D1*
X4118194Y2233061D1*
X4115818Y2230629D1*
X4108633Y2228252D1*
X4099071D1*
X4091941Y2230629D1*
X4089509Y2233061D1*
X4087133Y2237814D1*
Y2244999D1*
X4089509Y2249752D1*
X4094318Y2254560D1*
X4101448Y2256937D1*
X4111009Y2259314D1*
X4115818Y2261745D1*
X4118194Y2266499D1*
Y2271307D1*
X4115818Y2276060D1*
X4108633Y2278437D1*
X4099071D1*
X2056987Y1030925D2*
Y980685D1*
X2073734D1*
X2080919Y983117D1*
X2085727Y987870D1*
X2088104Y992679D1*
X2090480Y999808D1*
Y1011802D1*
X2088104Y1018987D1*
X2085727Y1023740D1*
X2080919Y1028549D1*
X2073734Y1030925D1*
X2056987D1*
X2105920Y1021308D2*
X2110728Y1023740D1*
X2117913Y1030870D1*
Y980685D1*
X3356445Y2344353D2*
Y2365853D1*
X3354013Y2373038D1*
X3351636Y2375470D1*
X3346883Y2377847D1*
X3342075D1*
X3337322Y2375470D1*
X3334890Y2373038D1*
X3332513Y2365853D1*
Y2344353D1*
X3382753D1*
X3356445Y2361100D2*
X3382753Y2377847D1*
X3342130Y2393286D2*
X3339698Y2398094D1*
X3332568Y2405279D1*
X3382753D1*
X3425026Y2345240D2*
Y2366740D1*
X3422594Y2373925D1*
X3420218Y2376357D1*
X3415465Y2378733D1*
X3410656D1*
X3405903Y2376357D1*
X3403471Y2373925D1*
X3401095Y2366740D1*
Y2345240D1*
X3451335D1*
X3425026Y2361986D2*
X3451335Y2378733D1*
X3413088Y2396604D2*
X3410711D1*
X3405903Y2398981D1*
X3403526Y2401357D1*
X3401150Y2406166D1*
Y2415727D1*
X3403526Y2420481D1*
X3405903Y2422857D1*
X3410711Y2425289D1*
X3415465D1*
X3420273Y2422857D1*
X3427403Y2418104D1*
X3451335Y2394172D1*
Y2427666D1*
X2108738Y1243661D2*
X2130238D1*
X2137423Y1246093D1*
X2139855Y1248470D1*
X2142232Y1253223D1*
Y1258032D1*
X2139855Y1262785D1*
X2137423Y1265217D1*
X2130238Y1267593D1*
X2108738D1*
Y1217353D1*
X2125485Y1243661D2*
X2142232Y1217353D1*
X2162480Y1267538D2*
X2188733D1*
X2174418Y1248415D1*
X2181603D1*
X2186356Y1246038D1*
X2188733Y1243661D1*
X2191164Y1236476D1*
Y1231723D1*
X2188733Y1224538D1*
X2183979Y1219730D1*
X2176794Y1217353D1*
X2169609D1*
X2162480Y1219730D1*
X2160103Y1222162D1*
X2157671Y1226915D1*
X1048338Y964857D2*
X1069837D1*
X1077022Y967289D1*
X1079454Y969665D1*
X1081831Y974419D1*
Y979227D1*
X1079454Y983980D1*
X1077022Y986412D1*
X1069837Y988789D1*
X1048338D1*
Y938549D1*
X1065084Y964857D2*
X1081831Y938549D1*
X1121202D2*
Y988733D1*
X1097270Y955295D1*
X1133140D1*
X1162005Y964857D2*
X1183505D1*
X1190690Y967289D1*
X1193122Y969665D1*
X1195498Y974419D1*
Y979227D1*
X1193122Y983980D1*
X1190690Y986412D1*
X1183505Y988789D1*
X1162005D1*
Y938549D1*
X1178752Y964857D2*
X1195498Y938549D1*
X1239622Y988733D2*
X1215746D1*
X1213369Y967234D1*
X1215746Y969610D1*
X1222931Y972042D1*
X1230061D1*
X1237246Y969610D1*
X1242054Y964857D1*
X1244431Y957672D1*
Y952919D1*
X1242054Y945734D1*
X1237246Y940925D1*
X1230061Y938549D1*
X1222931D1*
X1215746Y940925D1*
X1213369Y943357D1*
X1210937Y948110D1*
X1269491Y964857D2*
X1290991D1*
X1298176Y967289D1*
X1300608Y969665D1*
X1302984Y974419D1*
Y979227D1*
X1300608Y983980D1*
X1298176Y986412D1*
X1290991Y988789D1*
X1269491D1*
Y938549D1*
X1286238Y964857D2*
X1302984Y938549D1*
X1347109Y981604D2*
X1344732Y986357D1*
X1337547Y988733D1*
X1332794D1*
X1325609Y986357D1*
X1320800Y979172D1*
X1318424Y967234D1*
Y955295D1*
X1320800Y945734D1*
X1325609Y940925D1*
X1332794Y938549D1*
X1335170D1*
X1342300Y940925D1*
X1347109Y945734D1*
X1349485Y952919D1*
Y955295D1*
X1347109Y962480D1*
X1342300Y967234D1*
X1335170Y969610D1*
X1332794D1*
X1325609Y967234D1*
X1320800Y962480D1*
X1318424Y955295D1*
X1380756Y964857D2*
X1402255D1*
X1409440Y967289D1*
X1411872Y969665D1*
X1414249Y974419D1*
Y979227D1*
X1411872Y983980D1*
X1409440Y986412D1*
X1402255Y988789D1*
X1380756D1*
Y938549D1*
X1397502Y964857D2*
X1414249Y938549D1*
X1439250D2*
X1463181Y988733D1*
X1429688D1*
X1721256Y964857D2*
X1742755D1*
X1749941Y967289D1*
X1752372Y969665D1*
X1754749Y974419D1*
Y979227D1*
X1752372Y983980D1*
X1749941Y986412D1*
X1742755Y988789D1*
X1721256D1*
Y938549D1*
X1738002Y964857D2*
X1754749Y938549D1*
X1782126Y988733D2*
X1774997Y986357D1*
X1772565Y981604D1*
Y976795D1*
X1774997Y972042D1*
X1779750Y969610D1*
X1789311Y967234D1*
X1796497Y964857D1*
X1801250Y960049D1*
X1803626Y955295D1*
Y948110D1*
X1801250Y943357D1*
X1798873Y940925D1*
X1791688Y938549D1*
X1782126D1*
X1774997Y940925D1*
X1772565Y943357D1*
X1770188Y948110D1*
Y955295D1*
X1772565Y960049D1*
X1777373Y964857D1*
X1784503Y967234D1*
X1794065Y969610D1*
X1798873Y972042D1*
X1801250Y976795D1*
Y981604D1*
X1798873Y986357D1*
X1791688Y988733D1*
X1782126D1*
X1847416Y964857D2*
X1868916D1*
X1876101Y967289D1*
X1878533Y969665D1*
X1880910Y974419D1*
Y979227D1*
X1878533Y983980D1*
X1876101Y986412D1*
X1868916Y988789D1*
X1847416D1*
Y938549D1*
X1864163Y964857D2*
X1880910Y938549D1*
X1927466Y972042D2*
X1925034Y964857D1*
X1920281Y960049D1*
X1913096Y957672D1*
X1910719D1*
X1903534Y960049D1*
X1898781Y964857D1*
X1896349Y972042D1*
Y974419D1*
X1898781Y981604D1*
X1903534Y986357D1*
X1910719Y988733D1*
X1913096D1*
X1920281Y986357D1*
X1925034Y981604D1*
X1927466Y972042D1*
Y960049D1*
X1925034Y948110D1*
X1920281Y940925D1*
X1913096Y938549D1*
X1908342D1*
X1901157Y940925D1*
X1898781Y945734D1*
X2963782Y964857D2*
X2985282D1*
X2992467Y967289D1*
X2994899Y969665D1*
X2997275Y974419D1*
Y979227D1*
X2994899Y983980D1*
X2992467Y986412D1*
X2985282Y988789D1*
X2963782D1*
Y938549D1*
X2980529Y964857D2*
X2997275Y938549D1*
X3012715Y979172D2*
X3017523Y981604D1*
X3024708Y988733D1*
Y938549D1*
X3054517Y988733D2*
X3047332Y986357D1*
X3042524Y979172D1*
X3040147Y967234D1*
Y960049D1*
X3042524Y948110D1*
X3047332Y940925D1*
X3054517Y938549D1*
X3059271D1*
X3066456Y940925D1*
X3071209Y948110D1*
X3073641Y960049D1*
Y967234D1*
X3071209Y979172D1*
X3066456Y986357D1*
X3059271Y988733D1*
X3054517D1*
X3071209Y979172D2*
X3042524Y948110D1*
X3093271Y964867D2*
X3114771D1*
X3121956Y967299D1*
X3124387Y969676D1*
X3126764Y974429D1*
Y979238D1*
X3124387Y983991D1*
X3121956Y986423D1*
X3114771Y988799D1*
X3093271D1*
Y938559D1*
X3110017Y964867D2*
X3126764Y938559D1*
X3142203Y979182D2*
X3147012Y981614D1*
X3154197Y988744D1*
Y938559D1*
X3169636Y979182D2*
X3174444Y981614D1*
X3181630Y988744D1*
Y938559D1*
X3201270Y964866D2*
X3222770D1*
X3229955Y967298D1*
X3232387Y969675D1*
X3234763Y974428D1*
Y979236D1*
X3232387Y983989D1*
X3229955Y986421D1*
X3222770Y988798D1*
X3201270D1*
Y938558D1*
X3218017Y964866D2*
X3234763Y938558D1*
X3250203Y979181D2*
X3255011Y981613D1*
X3262196Y988743D1*
Y938558D1*
X3280067Y976804D2*
Y979181D1*
X3282444Y983989D1*
X3284821Y986366D1*
X3289629Y988743D1*
X3299191D1*
X3303944Y986366D1*
X3306320Y983989D1*
X3308752Y979181D1*
Y974428D1*
X3306320Y969619D1*
X3301567Y962490D1*
X3277635Y938558D1*
X3311129D1*
X3326273Y964867D2*
X3347773D1*
X3354958Y967299D1*
X3357390Y969676D1*
X3359766Y974429D1*
Y979238D1*
X3357390Y983991D1*
X3354958Y986423D1*
X3347773Y988799D1*
X3326273D1*
Y938559D1*
X3343019Y964867D2*
X3359766Y938559D1*
X3375205Y979182D2*
X3380014Y981614D1*
X3387199Y988744D1*
Y938559D1*
X3407447Y988744D2*
X3433700D1*
X3419385Y969621D1*
X3426570D1*
X3431323Y967244D1*
X3433700Y964867D1*
X3436131Y957682D1*
Y952929D1*
X3433700Y945744D1*
X3428946Y940936D1*
X3421761Y938559D1*
X3414576D1*
X3407447Y940936D1*
X3405070Y943368D1*
X3402638Y948121D1*
X3643835Y964866D2*
X3665335D1*
X3672520Y967298D1*
X3674952Y969675D1*
X3677328Y974428D1*
Y979236D1*
X3674952Y983989D1*
X3672520Y986421D1*
X3665335Y988798D1*
X3643835D1*
Y938558D1*
X3660582Y964866D2*
X3677328Y938558D1*
X3692768Y979181D2*
X3697576Y981613D1*
X3704761Y988743D1*
Y938558D1*
X3744132D2*
Y988743D1*
X3720200Y955305D1*
X3756070D1*
X3776271Y964866D2*
X3797771D1*
X3804956Y967298D1*
X3807388Y969675D1*
X3809765Y974428D1*
Y979236D1*
X3807388Y983989D1*
X3804956Y986421D1*
X3797771Y988798D1*
X3776271D1*
Y938558D1*
X3793018Y964866D2*
X3809765Y938558D1*
X3825204Y979181D2*
X3830012Y981613D1*
X3837198Y988743D1*
Y938558D1*
X3881322Y988743D2*
X3857445D1*
X3855069Y967243D1*
X3857445Y969619D1*
X3864630Y972051D1*
X3871760D1*
X3878945Y969619D1*
X3883754Y964866D1*
X3886130Y957681D1*
Y952928D1*
X3883754Y945743D1*
X3878945Y940934D1*
X3871760Y938558D1*
X3864630D1*
X3857445Y940934D1*
X3855069Y943366D1*
X3852637Y948120D1*
X2274078Y963137D2*
X2295578D1*
X2302763Y965568D1*
X2305195Y967945D1*
X2307571Y972698D1*
Y977507D1*
X2305195Y982260D1*
X2302763Y984692D1*
X2295578Y987068D1*
X2274078D1*
Y936828D1*
X2290825Y963137D2*
X2307571Y936828D1*
X2323011Y977451D2*
X2327819Y979883D1*
X2335004Y987013D1*
Y936828D1*
X2379128Y979883D2*
X2376752Y984636D1*
X2369567Y987013D1*
X2364813D1*
X2357628Y984636D1*
X2352820Y977451D1*
X2350443Y965513D1*
Y953575D1*
X2352820Y944013D1*
X2357628Y939205D1*
X2364813Y936828D1*
X2367190D1*
X2374320Y939205D1*
X2379128Y944013D1*
X2381505Y951198D1*
Y953575D1*
X2379128Y960760D1*
X2374320Y965513D1*
X2367190Y967890D1*
X2364813D1*
X2357628Y965513D1*
X2352820Y960760D1*
X2350443Y953575D1*
X2451281Y964857D2*
X2472780D1*
X2479966Y967289D1*
X2482397Y969665D1*
X2484774Y974419D1*
Y979227D1*
X2482397Y983980D1*
X2479966Y986412D1*
X2472780Y988789D1*
X2451281D1*
Y938549D1*
X2468027Y964857D2*
X2484774Y938549D1*
X2500213Y979172D2*
X2505022Y981604D1*
X2512207Y988733D1*
Y938549D1*
X2537208D2*
X2561139Y988733D1*
X2527646D1*
X2333385Y2671776D2*
Y2635906D1*
X2335762Y2628721D1*
X2340570Y2623968D1*
X2347755Y2621536D1*
X2352508D1*
X2359693Y2623968D1*
X2364502Y2628721D1*
X2366878Y2635906D1*
Y2671776D1*
X2382318Y2662159D2*
X2387126Y2664591D1*
X2394311Y2671721D1*
Y2621536D1*
X559657Y2213798D2*
Y2177928D1*
X562034Y2170743D1*
X566842Y2165990D1*
X574027Y2163558D1*
X578780D1*
X585965Y2165990D1*
X590774Y2170743D1*
X593150Y2177928D1*
Y2213798D1*
X611022Y2201804D2*
Y2204181D1*
X613398Y2208989D1*
X615775Y2211366D1*
X620583Y2213743D1*
X630145D1*
X634898Y2211366D1*
X637275Y2208989D1*
X639706Y2204181D1*
Y2199428D1*
X637275Y2194619D1*
X632521Y2187490D1*
X608590Y2163558D1*
X642083D1*
X757373Y2030612D2*
X793243D1*
X800428Y2032989D1*
X805181Y2037798D1*
X807613Y2044983D1*
Y2049736D1*
X805181Y2056921D1*
X800428Y2061729D1*
X793243Y2064106D1*
X757373D1*
X757428Y2084354D2*
Y2110607D1*
X776551Y2096292D1*
Y2103477D1*
X778928Y2108230D1*
X781304Y2110607D1*
X788489Y2113038D1*
X793243D1*
X800428Y2110607D1*
X805236Y2105853D1*
X807613Y2098668D1*
Y2091483D1*
X805236Y2084354D1*
X802804Y2081977D1*
X798051Y2079545D1*
X3569813Y2247101D2*
Y2211231D1*
X3572190Y2204046D1*
X3576998Y2199293D1*
X3584183Y2196861D1*
X3588937D1*
X3596122Y2199293D1*
X3600930Y2204046D1*
X3603307Y2211231D1*
Y2247101D1*
X3647431Y2247046D2*
X3623554D1*
X3621178Y2225546D1*
X3623554Y2227923D1*
X3630739Y2230354D1*
X3637869D1*
X3645054Y2227923D1*
X3649863Y2223169D1*
X3652239Y2215984D1*
Y2211231D1*
X3649863Y2204046D1*
X3645054Y2199238D1*
X3637869Y2196861D1*
X3630739D1*
X3623554Y2199238D1*
X3621178Y2201669D1*
X3618746Y2206423D1*
X930689Y1292544D2*
X966559D1*
X973744Y1294920D1*
X978497Y1299729D1*
X980929Y1306914D1*
Y1311667D1*
X978497Y1318852D1*
X973744Y1323660D1*
X966559Y1326037D1*
X930689D1*
X937874Y1370161D2*
X933121Y1367785D1*
X930744Y1360599D1*
Y1355846D1*
X933121Y1348661D1*
X940306Y1343853D1*
X952244Y1341476D1*
X964182D1*
X973744Y1343853D1*
X978552Y1348661D1*
X980929Y1355846D1*
Y1358223D1*
X978552Y1365353D1*
X973744Y1370161D1*
X966559Y1372538D1*
X964182D1*
X956997Y1370161D1*
X952244Y1365353D1*
X949868Y1358223D1*
Y1355846D1*
X952244Y1348661D1*
X956997Y1343853D1*
X964182Y1341476D1*
X2872455Y1286863D2*
X2908325D1*
X2915510Y1289240D1*
X2920264Y1294048D1*
X2922695Y1301233D1*
Y1305986D1*
X2920264Y1313171D1*
X2915510Y1317980D1*
X2908325Y1320356D1*
X2872455D1*
X2922695Y1345357D2*
X2872511Y1369289D1*
Y1335796D1*
X1590016Y1298548D2*
X1625886D1*
X1633071Y1300925D1*
X1637824Y1305733D1*
X1640256Y1312918D1*
Y1317672D1*
X1637824Y1324857D1*
X1633071Y1329665D1*
X1625886Y1332042D1*
X1590016D1*
X1590071Y1359419D2*
X1592448Y1352289D1*
X1597201Y1349857D1*
X1602009D1*
X1606762Y1352289D1*
X1609194Y1357042D1*
X1611571Y1366604D1*
X1613947Y1373789D1*
X1618756Y1378542D1*
X1623509Y1380919D1*
X1630694D1*
X1635447Y1378542D1*
X1637879Y1376166D1*
X1640256Y1368981D1*
Y1359419D1*
X1637879Y1352289D1*
X1635447Y1349857D1*
X1630694Y1347481D1*
X1623509D1*
X1618756Y1349857D1*
X1613947Y1354666D1*
X1611571Y1361796D1*
X1609194Y1371357D1*
X1606762Y1376166D1*
X1602009Y1378542D1*
X1597201D1*
X1592448Y1376166D1*
X1590071Y1368981D1*
Y1359419D1*
X3529419Y1294301D2*
X3565289D1*
X3572474Y1296677D1*
X3577227Y1301486D1*
X3579659Y1308671D1*
Y1313424D1*
X3577227Y1320609D1*
X3572474Y1325418D1*
X3565289Y1327794D1*
X3529419D1*
X3546165Y1374350D2*
X3553350Y1371918D1*
X3558159Y1367165D1*
X3560535Y1359980D1*
Y1357603D1*
X3558159Y1350418D1*
X3553350Y1345665D1*
X3546165Y1343233D1*
X3543789D1*
X3536604Y1345665D1*
X3531851Y1350418D1*
X3529474Y1357603D1*
Y1359980D1*
X3531851Y1367165D1*
X3536604Y1371918D1*
X3546165Y1374350D1*
X3558159D1*
X3570097Y1371918D1*
X3577282Y1367165D1*
X3579659Y1359980D1*
Y1355227D1*
X3577282Y1348042D1*
X3572474Y1345665D1*
M02*
