G04 DipTrace 4.0.0.5*
G04 2 - Inner 1.gbr*
%MOIN*%
G04 #@! TF.FileFunction,Copper,L2,Inr*
G04 #@! TF.Part,Single*
%ADD22C,0.045354*%
%ADD27C,0.066929*%
G04 #@! TA.AperFunction,CopperBalancing*
%ADD15C,0.007874*%
%ADD16C,0.011811*%
G04 #@! TA.AperFunction,ViaPad*
%ADD39C,0.017717*%
%FSLAX26Y26*%
G04*
G70*
G90*
G75*
G01*
G04 Inner1_Plane*
%LPD*%
D39*
X2274950Y843701D3*
X724950Y1057175D3*
X2490900Y909650D3*
X2612450Y865576D3*
X959325Y2228076D3*
X1406201Y1493701D3*
D3*
X1996825Y1909325D3*
X2137450Y2128076D3*
X2228077Y2149950D3*
X1052992Y769462D3*
X1353076Y2293701D3*
X1788761Y1829638D3*
D3*
X1418701Y899951D3*
X1487451Y899950D3*
X1946825Y1940576D3*
X2024950Y2006201D3*
X1984327Y2037450D3*
X1253839Y2240024D3*
X1981201Y915576D3*
X1212451Y2296825D3*
X1940576Y874951D3*
X1175098Y2259327D3*
X1887450Y874951D3*
X1134325Y2296825D3*
X1849950Y912449D3*
X1076673Y2260486D3*
X1812450Y874950D3*
X1037303Y2296825D3*
X1772370Y909870D3*
X997933Y2259867D3*
X1706201Y881201D3*
X958563Y2296825D3*
X1656201Y912451D3*
X2043699Y1299950D3*
X2087450Y1518701D3*
X2012450Y1343701D3*
X2062450Y1568701D3*
X3821825Y2171825D3*
X3768890Y2240766D3*
X2256201Y893701D3*
X2543699Y884327D3*
X2759325Y1687451D3*
X2678076Y1768701D3*
X2462451Y849951D3*
X3218454Y893701D3*
X3174950Y1324951D3*
X2759325Y1306201D3*
X3259983Y850050D3*
X3118701Y1306201D3*
X3333524Y891378D3*
X3456201Y956201D3*
X3393701Y874951D3*
X3534325Y1856201D3*
X3590576Y1831201D3*
X2924951Y868702D3*
X3105954Y893455D3*
X3147088Y849790D3*
X3824951Y756201D3*
X3737450Y806201D3*
X3737451Y837451D3*
Y868701D3*
X2043701Y1234327D3*
X2181201Y1918701D3*
X3846825Y2112451D3*
X949950Y1331201D3*
X1931201Y1549950D3*
X1906365Y1434400D3*
X1881201Y1531201D3*
X1855184Y1434400D3*
X1828076Y1509325D3*
X1804003Y1434400D3*
X1778076Y1487451D3*
X1752822Y1434400D3*
X1112451Y1331201D3*
X1437450Y1237451D3*
X1743701Y1218701D3*
X1881201D3*
X3599951Y2462450D3*
X3499950Y2568701D3*
X3699951D3*
X3799950Y2462451D3*
X3899950Y2568701D3*
X3999950Y2462451D3*
X962451Y2456201D3*
X431201Y1731201D3*
X3949950Y1293701D3*
X1396825Y1587450D3*
X1199950Y2518701D3*
X1312451D3*
X1543701Y1265576D3*
Y1337450D3*
X1709325Y2212450D3*
X1831201Y2346825D3*
X1812450D3*
X949951Y1459325D3*
X1568701Y1456201D3*
X1112451Y1524951D3*
X599950Y1649951D3*
X2037451Y2490576D3*
X1690576Y2212450D3*
X2137451Y1712451D3*
X2387451Y2531201D3*
X2846825Y1284325D3*
X2156201Y1712451D3*
X1793701Y2346825D3*
X2231201Y2337451D3*
X2243701Y1915576D3*
X2893701Y2224951D3*
X2912451D3*
X2306201Y1890576D3*
X2243701Y1865576D3*
X2956201Y2009325D3*
X2306201Y1840576D3*
X2243701Y1815576D3*
X2306201Y1790576D3*
X2243701Y1765576D3*
X2612451Y1484325D3*
X2624950Y1471825D3*
X2306201Y1740576D3*
X1999950Y1840576D3*
X2018701D3*
X2931201Y2224951D3*
X2118701Y1712451D3*
X3099951Y2249951D3*
X1987451Y1828076D3*
X2121825Y1365576D3*
X2243701Y2324950D3*
X2899950Y1331201D3*
X3518701Y1318701D3*
X2256201Y2312451D3*
X2093701Y2199950D3*
X2106201Y2187449D3*
X2118701Y2174950D3*
X1974950Y2103076D3*
X1993701D3*
X2012451D3*
Y1468701D3*
X1824951Y1649951D3*
X2241852Y1586042D3*
X2254352Y1598542D3*
X2266852Y1611042D3*
X1925633Y1742978D3*
X2637451Y1459325D3*
X1890576Y1959325D3*
X1724951Y2081201D3*
X3456201Y824950D3*
X2362451Y799950D3*
X762453Y912451D3*
X2412451Y799950D3*
Y974951D3*
X3668701Y1293701D3*
X799951Y874951D3*
X2462451Y799950D3*
X906202Y924951D3*
X2840429Y1056883D3*
X2412451Y949951D3*
X724951D3*
X2412451Y924950D3*
X593701Y1112451D3*
X2412451Y899950D3*
X943701Y962451D3*
X2412451Y874950D3*
X1765576Y2118701D3*
X2412451Y849950D3*
X1831201Y2128076D3*
X2412451Y824950D3*
X2893701Y2249951D3*
X599950Y1624951D3*
X2746825Y2081201D3*
X943701Y887451D3*
X599950Y1599951D3*
X443701Y1993701D3*
X906202Y999951D3*
X599950Y1574951D3*
X443701Y2193701D3*
X599950Y1549951D3*
X981201Y999951D3*
X599950Y1524951D3*
X443701Y2393701D3*
X599950Y1499950D3*
X981201Y924951D3*
X599950Y1674950D3*
X443701Y2580001D3*
X2662451Y2171825D3*
X981201Y849950D3*
X2262451Y2168701D3*
X643701Y2580001D3*
X1963979Y2272589D3*
X843701Y2580001D3*
X868701Y962451D3*
X1949950Y2371825D3*
X643701Y2393701D3*
X2703076Y1574950D3*
X643701Y2193701D3*
X831201Y999951D3*
X3496316Y2103076D3*
X3593701D3*
X3896825Y2143701D3*
Y2124951D3*
Y2106201D3*
X3337451Y2343701D3*
X3374950Y1840576D3*
X3646825Y1946825D3*
Y1871825D3*
X3393701Y1768701D3*
X3343701Y2112451D3*
X3546825Y1946825D3*
X3631201Y2299951D3*
X3803076Y2128076D3*
X2715576Y1562451D3*
X2728076Y1549951D3*
X1396825Y1759325D3*
X1037450Y2456201D3*
X1187451D3*
X1062451Y2499950D3*
X2837451Y1703076D3*
X2849950Y1690576D3*
X1249951Y2456201D3*
X1374951Y2443701D3*
X1387451Y2456201D3*
X1399951Y2468701D3*
X1043701Y2499950D3*
X1024950D3*
X1728076Y2212450D3*
X2862451Y1678076D3*
X2796825Y1724950D3*
X1396825Y1690576D3*
X943701Y2093701D3*
X2018701Y2490576D3*
X1999950D3*
X4199951Y1634325D3*
X2749951Y1193701D3*
X1743701Y1278076D3*
X1881201D3*
X1528076Y1906201D3*
X1603076Y1981201D3*
X1649951Y1784325D3*
X1724950Y1859325D3*
X1640576Y2018701D3*
X1768701Y2046825D3*
X1818701Y1984325D3*
X1759325Y1893701D3*
X849950Y1799950D3*
X943701Y1893701D3*
X1043701Y1993701D3*
X443701Y1243701D3*
X2362451Y2168701D3*
X2462451D3*
X2096825Y1915576D3*
X2153076D3*
X443701Y1443701D3*
X543701Y1343701D3*
X643701Y1443701D3*
Y1243701D3*
X2037451Y2081201D3*
X2128076Y2221825D3*
X2049950Y2146825D3*
X2115576Y2081201D3*
X781201Y1443701D3*
Y1199950D3*
X893701Y1343701D3*
X1365251Y996951D3*
X1254064Y996828D3*
X1140150Y996757D3*
X862451Y1056201D3*
X3456201D3*
X4046825Y2028076D3*
X881201Y1056201D3*
X899950D3*
X4046825Y1909325D3*
X3474950Y1056201D3*
X3493701D3*
X3781201Y787451D3*
Y768701D3*
Y749950D3*
Y731201D3*
X1681201Y781201D3*
X1756201Y787451D3*
X1843701Y699950D3*
X1749950D3*
X1643701D3*
X1562451Y768701D3*
X1462451Y699950D3*
X1524950Y743701D3*
X1843701Y806201D3*
X1949950Y699950D3*
X2043701D3*
X1937451Y818701D3*
X1356201Y699950D3*
X2612451Y965576D3*
X3337450Y824951D3*
X3493701Y1318701D3*
X3468701D3*
X2874950Y1331201D3*
X2849950D3*
X1256201Y699950D3*
X1140660Y804096D3*
X1549950Y874950D3*
X1599950Y943701D3*
X1699951D3*
X2274950Y2581201D3*
X2215576Y2081201D3*
X2443701Y2581201D3*
X2212451Y2209325D3*
X2718701Y1649951D3*
X2315576Y2081201D3*
X2415575D3*
X2499950Y2581201D3*
X2556201D3*
X2612451D3*
X2215576Y2312451D3*
X1018701Y887451D3*
X2515577Y2081201D3*
X2331201Y2531201D3*
X981201Y787451D3*
X3024950Y1956201D3*
X2956201Y1918701D3*
X2362451Y2468701D3*
X2081201Y768701D3*
X2162450Y2259325D3*
X1518701Y943701D3*
X2262450Y2259325D3*
X1993701Y862451D3*
X2031201Y931201D3*
X1474950Y1012450D3*
X1581201Y1012451D3*
X1406201Y1331201D3*
X1687451Y1012451D3*
X2106201Y843701D3*
X1156201Y699950D3*
X1562451Y1137451D3*
X2362450Y2259325D3*
X4143701Y1093701D3*
X4293701Y1931201D3*
X3471825Y1568701D3*
X3578076D3*
X1956201Y1093701D3*
X3684325Y1568701D3*
X2918701Y1578076D3*
X3087451Y1587451D3*
X3031201Y1668701D3*
X3168701D3*
X3468701Y1887451D3*
X3990576Y1740576D3*
X1262450Y1331201D3*
X2012451Y1449951D3*
X1956201Y999951D3*
X3468701Y1803076D3*
X2199951Y862451D3*
X2462449Y2259325D3*
X1962451Y1431201D3*
X2562451Y2259325D3*
X931201Y1459325D3*
X2312451Y2209325D3*
X2412451D3*
X2512450D3*
X2199951Y931201D3*
X2249951Y965576D3*
X2612451Y2228076D3*
X2137451Y743701D3*
X2199951Y799950D3*
X2187451Y743701D3*
X2249951Y1018701D3*
X2362451Y699950D3*
X2462451D3*
X2574951Y928076D3*
X2537450Y774950D3*
X3624950Y1006201D3*
X2574950Y1003076D3*
X1634325Y1553076D3*
X1628076Y1193701D3*
X1278076Y2293701D3*
X2265577Y2362451D3*
X1309325Y2249951D3*
X3024950Y1343701D3*
X2968701D3*
X3143701D3*
X3237451D3*
X3356201D3*
X3418701D3*
X2315576Y2412450D3*
X3024950Y1193699D3*
X3143701D3*
X3243701D3*
X3356201D3*
X2415576Y2412450D3*
X3896825Y1509325D3*
X3881201Y1212451D3*
X434138Y865575D3*
Y1019623D3*
X687451Y987451D3*
X593699Y1187450D3*
X687453Y912451D3*
X543701Y2093701D3*
Y2293701D3*
Y2493701D3*
X743701D3*
X2312451Y2309325D3*
X2365577Y2362451D3*
X4293701Y2568701D3*
X1824950Y1012451D3*
X4099950Y2143701D3*
X2465577Y2362451D3*
X4293701Y1743701D3*
Y1531201D3*
Y1318701D3*
X2918701Y1968701D3*
X4043701Y1193701D3*
Y993701D3*
X4243701D3*
X4143701Y893701D3*
X3943701Y1093701D3*
X4143701Y1293701D3*
X2412451Y2309325D3*
X4043701Y1578076D3*
X2568701Y2171825D3*
X3965576Y1574951D3*
X3793701Y1293701D3*
X3493701Y1243701D3*
X3393701D3*
X2574950Y2081201D3*
X2659325D3*
X2893701Y1193701D3*
X2574950Y1915576D3*
X2799950D3*
X2343701D3*
X2431201D3*
X2518701D3*
X2693701Y993701D3*
X2893701D3*
X2509327Y1624951D3*
X2459328Y1574951D3*
X2359328D3*
X2559324Y1674950D3*
X2409327Y1624951D3*
X2309327D3*
X2209328D3*
X2362451Y1474950D3*
X2409327Y1524951D3*
X2309327D3*
X2459324Y1674950D3*
X2359323D3*
X3043701Y2381201D3*
X2259325Y1674950D3*
X2687451Y1915576D3*
X2609324Y1721825D3*
X2509323D3*
X2409325D3*
X2093701Y1278076D3*
Y1218701D3*
X2703076Y1343701D3*
X2559323Y1765576D3*
X2459325D3*
X2509325Y1287451D3*
X2324950Y1146825D3*
X2584325D3*
X2918701Y1487451D3*
X3012451D3*
X743701Y2293701D3*
Y2093701D3*
X843701Y2193701D3*
Y1993701D3*
X3643701Y1437451D3*
X3362451Y781201D3*
X3393701Y824951D3*
X1618701Y874951D3*
X487450Y1868701D3*
X599950D3*
X712451D3*
X781202Y1637451D3*
X3699950Y1212451D3*
X2749951Y1099950D3*
X3581201Y1112451D3*
X3012451Y768701D3*
X1293701Y806201D3*
X781201Y1312451D3*
Y1099950D3*
X724951Y874951D3*
X649951Y949951D3*
X612451Y987451D3*
X612453Y912451D3*
X649951Y874951D3*
X574951Y949951D3*
X537451Y987451D3*
X674953Y1112451D3*
X574951Y874951D3*
X674951Y1187451D3*
X474951Y987451D3*
X593701Y1037450D3*
X674950D3*
X1087451Y1237451D3*
X1262450D3*
X2421825Y1103076D3*
X2524950D3*
X2462451Y1184325D3*
X1574950Y1487451D3*
X3174950Y2381201D3*
X3306201D3*
X3368701Y2387451D3*
X3506201D3*
X3562451Y2337451D3*
X3432196Y2337828D3*
X3412451Y2112451D3*
X4099951Y2568701D3*
X3699951Y2356199D3*
X3899950Y2356202D3*
X4099950D3*
X1406201Y2428076D3*
X1399951Y2343701D3*
X1449951Y2499951D3*
X1474951Y2424951D3*
X868701Y849950D3*
X1553076Y2499951D3*
X724950Y1081201D3*
Y1106201D3*
Y1131201D3*
Y1156201D3*
Y1181201D3*
X1143701Y1054575D3*
X1359941Y1054248D3*
X1563022Y1055806D3*
X3085707Y1055339D3*
X3302337Y1055136D3*
X3818701Y2243701D3*
X3999950Y2249953D3*
X3943701Y893701D3*
X4043701Y1393701D3*
X4199949Y2249953D3*
X4199950Y2037451D3*
X1699950Y1487451D3*
X2218701Y2581201D3*
X4293701Y2356201D3*
X1959325Y1596825D3*
X4199950Y2462451D3*
X4293701Y2143701D3*
X4199951Y1421825D3*
X2981201Y2193701D3*
X1124950Y2456201D3*
X874951Y1199950D3*
X968701D3*
X3081201Y1006201D3*
Y918701D3*
X3193701Y1006201D3*
Y918701D3*
X3306201Y1006201D3*
X3034325Y2193701D3*
X2756201Y2274951D3*
X3306201Y918701D3*
X2912451Y2381201D3*
X3049951Y2009325D3*
X843701Y1518701D3*
X924950D3*
X3006201Y1956201D3*
X2987451D3*
X3212451Y2112451D3*
X3015576Y1918701D3*
X3146825Y1449950D3*
X3259325D3*
X3574950Y1768702D3*
X3596825Y1903076D3*
X981201Y724950D3*
X1018701Y962451D3*
X1253076Y893701D3*
X1140276Y897896D3*
X1365576Y893701D3*
X868701Y724950D3*
Y787451D3*
X912451Y1459325D3*
X1640576Y1393701D3*
X2243701Y1343701D3*
X2362451Y1409325D3*
X2665576Y2349951D3*
X2684325D3*
X2703076D3*
X2262451Y699950D3*
X2562451D3*
X2662451D3*
X2762451D3*
X2862451D3*
X2962451D3*
X3062451D3*
X3162451D3*
X3262451D3*
X3362451D3*
X3462451D3*
X3562451D3*
X3662451D3*
X3899951Y1428076D3*
X2162451Y699950D3*
X3968701Y1506201D3*
X4106201Y1531201D3*
X4199951Y1209325D3*
X3549951Y2165576D3*
X1506201Y1587451D3*
X1590576Y1843701D3*
X1665576Y1918701D3*
X2346825Y843701D3*
X2284325Y784325D3*
X2587451Y746825D3*
X2774951Y884325D3*
X2706201D3*
X2653076Y831201D3*
X2687450Y778075D3*
X2831201Y874950D3*
X2743701Y781201D3*
X2874951Y815576D3*
X2884325Y874950D3*
X2912451Y781201D3*
X2787451Y831201D3*
X2962450D3*
X3040576D3*
X1699951Y1953076D3*
X3562451Y915576D3*
X3474950Y1124950D3*
X3587451Y1243701D3*
X3418701Y1006201D3*
X3571825Y828076D3*
X1615576Y2490576D3*
X3690576Y768701D3*
X3781201Y806201D3*
X2590576D3*
X1818701Y2490576D3*
X1643701Y2346825D3*
X2412451Y999951D3*
X2387451Y799951D3*
X2437451D3*
X1990576Y1399951D3*
X1553076Y1634325D3*
X1474950Y1456201D3*
X2181201Y1474951D3*
X1459257Y1348831D3*
X2112451Y1543701D3*
X1062451Y1346825D3*
X1131201Y1506201D3*
X1396825Y1515576D3*
X1381201Y1499950D3*
X1549950Y1456201D3*
X1531201D3*
X2534325Y1462451D3*
X2621825Y1553076D3*
X3299951Y2568701D3*
X574950Y1674950D3*
X624950D3*
X574950Y1649951D3*
X624950D3*
Y1624951D3*
X574950D3*
Y1524951D3*
X624950D3*
Y1499950D3*
X574950D3*
Y1474950D3*
X599950D3*
X624950D3*
X3399951Y2496825D3*
X3018701Y2337450D3*
X3149950D3*
X3281201D3*
X2887451D3*
X3362451Y1456201D3*
X2356201Y999951D3*
X499951Y2012451D3*
Y1993701D3*
Y1974951D3*
Y1956201D3*
X699951Y2012451D3*
Y1993701D3*
Y1974951D3*
Y1956201D3*
X571825Y2049951D3*
X590576D3*
X609325D3*
X628076D3*
X553076D3*
X646825D3*
X665576D3*
X534325D3*
X518701Y2031201D3*
X681201D3*
X3828076Y856201D3*
Y787451D3*
X1544272Y1055806D3*
X2822042Y1056720D3*
X2803293D3*
X1525522Y1055806D3*
X3187451Y774950D3*
X3265576Y781201D3*
X2824951Y765576D3*
X3634325Y787451D3*
X3740576Y774951D3*
Y712451D3*
X3690576Y843701D3*
X424413Y2580446D2*
D15*
X2644964D1*
X3242442D2*
X4299999D1*
X424413Y2572703D2*
X2643703D1*
X3243695D2*
X4299999D1*
X424413Y2564961D2*
X469091D1*
X493311D2*
X2643688D1*
X3243718D2*
X4222220D1*
X4246433D2*
X4299999D1*
X424413Y2557218D2*
X455127D1*
X507275D2*
X2644895D1*
X3242504D2*
X4208248D1*
X4260397D2*
X4299999D1*
X424413Y2549475D2*
X448314D1*
X514096D2*
X2647440D1*
X2739958D2*
X2747442D1*
X2839960D2*
X2847443D1*
X2939961D2*
X2947437D1*
X3039963D2*
X3047439D1*
X3139964D2*
X3147440D1*
X3239958D2*
X4201436D1*
X4267217D2*
X4299999D1*
X424413Y2541732D2*
X444331D1*
X518071D2*
X2651562D1*
X2735844D2*
X2751563D1*
X2835838D2*
X2851557D1*
X2935840D2*
X2951559D1*
X3035841D2*
X3051560D1*
X3135843D2*
X3151562D1*
X3235844D2*
X4197452D1*
X4271201D2*
X4299999D1*
X424413Y2533990D2*
X442285D1*
X520116D2*
X2657806D1*
X2729593D2*
X2757807D1*
X2829594D2*
X2857809D1*
X2929596D2*
X2957803D1*
X3029598D2*
X3057804D1*
X3129599D2*
X3157806D1*
X3229593D2*
X4195415D1*
X4273238D2*
X4299999D1*
X424413Y2526247D2*
X441878D1*
X520532D2*
X2667710D1*
X2719689D2*
X2767711D1*
X2819690D2*
X2867713D1*
X2919692D2*
X2967714D1*
X3019686D2*
X3067716D1*
X3119687D2*
X3167710D1*
X3219689D2*
X4195000D1*
X4273654D2*
X4299999D1*
X424413Y2518504D2*
X443039D1*
X519363D2*
X1007761D1*
X1079641D2*
X4196161D1*
X4272492D2*
X4299999D1*
X424413Y2510761D2*
X445938D1*
X516472D2*
X1001886D1*
X1085515D2*
X4199060D1*
X4269594D2*
X4299999D1*
X424413Y2503018D2*
X451074D1*
X511327D2*
X999587D1*
X1087814D2*
X4204196D1*
X4264449D2*
X4299999D1*
X424413Y2495276D2*
X460102D1*
X502308D2*
X999841D1*
X1087561D2*
X4213224D1*
X4255430D2*
X4299999D1*
X424413Y2487533D2*
X1002740D1*
X1084662D2*
X1383084D1*
X1416816D2*
X4299999D1*
X424413Y2479790D2*
X1009783D1*
X1077618D2*
X1377025D1*
X1422883D2*
X4299999D1*
X424413Y2472047D2*
X1367636D1*
X1425275D2*
X4299999D1*
X424413Y2464304D2*
X1360423D1*
X1425113D2*
X4299999D1*
X424413Y2456562D2*
X1353003D1*
X1422322D2*
X4299999D1*
X424413Y2448819D2*
X1349935D1*
X1415501D2*
X4299999D1*
X424413Y2441076D2*
X1349542D1*
X1407850D2*
X4299999D1*
X424413Y2433333D2*
X1351672D1*
X1398231D2*
X4299999D1*
X424413Y2425591D2*
X1357278D1*
X1392625D2*
X4299999D1*
X424413Y2417848D2*
X4299999D1*
X424413Y2410105D2*
X4299999D1*
X424413Y2402362D2*
X4299999D1*
X424413Y2394619D2*
X1939486D1*
X1960415D2*
X4299999D1*
X424413Y2386877D2*
X1929498D1*
X1970404D2*
X4299999D1*
X424413Y2379134D2*
X1925499D1*
X1974395D2*
X4299999D1*
X424413Y2371391D2*
X1924399D1*
X1975494D2*
X2652392D1*
X2716259D2*
X4299999D1*
X424413Y2363648D2*
X1925791D1*
X1974110D2*
X2644157D1*
X2724495D2*
X3321991D1*
X3352917D2*
X4299999D1*
X424413Y2355906D2*
X1930197D1*
X1969704D2*
X2213900D1*
X2248501D2*
X2640750D1*
X2727901D2*
X3315117D1*
X3359783D2*
X4299999D1*
X424413Y2348163D2*
X1941862D1*
X1958039D2*
X2208087D1*
X2254315D2*
X2640089D1*
X2728563D2*
X3312302D1*
X3362598D2*
X4299999D1*
X424413Y2340420D2*
X2205826D1*
X2263826D2*
X2641935D1*
X2726717D2*
X3312118D1*
X3362782D2*
X4299999D1*
X424413Y2332677D2*
X2206111D1*
X2271278D2*
X2647048D1*
X2721604D2*
X3314486D1*
X3360414D2*
X4299999D1*
X424413Y2324934D2*
X2209048D1*
X2278375D2*
X3320507D1*
X3354393D2*
X4299999D1*
X424413Y2317192D2*
X943685D1*
X973441D2*
X1022425D1*
X1052182D2*
X1119451D1*
X1149200D2*
X1197576D1*
X1227325D2*
X1344452D1*
X1361698D2*
X2216176D1*
X2281297D2*
X4299999D1*
X424413Y2309449D2*
X936472D1*
X980654D2*
X1015212D1*
X1059394D2*
X1112230D1*
X1156420D2*
X1190363D1*
X1234545D2*
X1333179D1*
X1372978D2*
X2223604D1*
X2281566D2*
X4299999D1*
X424413Y2301706D2*
X933496D1*
X983630D2*
X1012236D1*
X1062370D2*
X1109262D1*
X1159388D2*
X1187387D1*
X1237513D2*
X1328858D1*
X1377300D2*
X2233101D1*
X2279298D2*
X4299999D1*
X424413Y2293963D2*
X933181D1*
X983945D2*
X1011921D1*
X1062685D2*
X1108939D1*
X1159711D2*
X1187064D1*
X1237836D2*
X1327528D1*
X1378623D2*
X1950682D1*
X1977271D2*
X2238937D1*
X2273461D2*
X4299999D1*
X424413Y2286220D2*
X935395D1*
X981731D2*
X1014136D1*
X1060471D2*
X1111161D1*
X1157489D2*
X1189286D1*
X1235614D2*
X1328681D1*
X1377469D2*
X1942516D1*
X1985445D2*
X4299999D1*
X424413Y2278478D2*
X941147D1*
X975979D2*
X980809D1*
X1015057D2*
X1019887D1*
X1054719D2*
X1058873D1*
X1094474D2*
X1116905D1*
X1151745D2*
X1158613D1*
X1229870D2*
X1332756D1*
X1373394D2*
X1939140D1*
X1988820D2*
X4299999D1*
X424413Y2270735D2*
X974896D1*
X1020970D2*
X1053344D1*
X1100002D2*
X1152331D1*
X1197866D2*
X1343022D1*
X1363128D2*
X1938494D1*
X1989459D2*
X4299999D1*
X424413Y2262992D2*
X972582D1*
X1023284D2*
X1051253D1*
X1102094D2*
X1149816D1*
X1200381D2*
X1243797D1*
X1263880D2*
X1940363D1*
X1987598D2*
X3757184D1*
X3780597D2*
X4299999D1*
X424413Y2255249D2*
X972820D1*
X1023046D2*
X1051683D1*
X1101663D2*
X1149885D1*
X1200311D2*
X1233524D1*
X1274153D2*
X1945515D1*
X1982446D2*
X3748018D1*
X3789763D2*
X4299999D1*
X424413Y2247507D2*
X943185D1*
X1020178D2*
X1054797D1*
X1098549D2*
X1152554D1*
X1197643D2*
X1229448D1*
X1278229D2*
X2882692D1*
X2942214D2*
X3744274D1*
X3793508D2*
X4299999D1*
X424413Y2239764D2*
X936703D1*
X1013181D2*
X1062325D1*
X1091021D2*
X1159128D1*
X1191069D2*
X1228287D1*
X1279390D2*
X2873065D1*
X2951834D2*
X3743359D1*
X3794423D2*
X4299999D1*
X424413Y2232021D2*
X934088D1*
X984560D2*
X1229618D1*
X1278060D2*
X2869181D1*
X2955725D2*
X3744935D1*
X3792846D2*
X4299999D1*
X424413Y2224278D2*
X934065D1*
X984583D2*
X1233939D1*
X1273738D2*
X2088285D1*
X2099110D2*
X2868159D1*
X2956740D2*
X3749626D1*
X3788156D2*
X4299999D1*
X424413Y2216535D2*
X936626D1*
X982023D2*
X1245204D1*
X1262473D2*
X2074521D1*
X2112874D2*
X2869627D1*
X2955279D2*
X3762990D1*
X3774784D2*
X4299999D1*
X424413Y2208793D2*
X943000D1*
X975648D2*
X2069784D1*
X2119549D2*
X2874149D1*
X2950750D2*
X4299999D1*
X424413Y2201050D2*
X2068177D1*
X2127684D2*
X2886437D1*
X2900968D2*
X2905183D1*
X2919715D2*
X2923938D1*
X2938470D2*
X4299999D1*
X424413Y2193307D2*
X2069054D1*
X2136112D2*
X3808719D1*
X3834931D2*
X4299999D1*
X424413Y2185564D2*
X2072760D1*
X2141864D2*
X3800438D1*
X3843213D2*
X4299999D1*
X424413Y2177822D2*
X2081795D1*
X2144086D2*
X3797008D1*
X3846642D2*
X4299999D1*
X424413Y2170079D2*
X2087762D1*
X2143771D2*
X2212862D1*
X2243288D2*
X3796339D1*
X3847319D2*
X4299999D1*
X424413Y2162336D2*
X2096605D1*
X2140795D2*
X2205849D1*
X2250308D2*
X3798161D1*
X3845489D2*
X3879731D1*
X3913925D2*
X4299999D1*
X424413Y2154593D2*
X2103810D1*
X2133590D2*
X2202966D1*
X2253192D2*
X3803252D1*
X3840398D2*
X3873795D1*
X3919853D2*
X4299999D1*
X424413Y2146850D2*
X1814263D1*
X1848134D2*
X2120512D1*
X2154382D2*
X2202720D1*
X2253430D2*
X3871473D1*
X3922176D2*
X4299999D1*
X424413Y2139108D2*
X1750764D1*
X1780390D2*
X1808242D1*
X1854162D2*
X2114491D1*
X2160411D2*
X2205027D1*
X2251131D2*
X3871704D1*
X3921945D2*
X4299999D1*
X424413Y2131365D2*
X1743505D1*
X1787641D2*
X1805866D1*
X1856531D2*
X2112115D1*
X2162779D2*
X2210924D1*
X2245233D2*
X3830050D1*
X3863597D2*
X3872119D1*
X3921530D2*
X4299999D1*
X424413Y2123622D2*
X1740521D1*
X1790632D2*
X1806051D1*
X1856346D2*
X1960340D1*
X2027060D2*
X2112299D1*
X2162595D2*
X3481701D1*
X3510928D2*
X3579088D1*
X3608315D2*
X3823937D1*
X3922337D2*
X4299999D1*
X424413Y2115879D2*
X1740183D1*
X1790963D2*
X1808865D1*
X1853539D2*
X1952966D1*
X2034434D2*
X2115114D1*
X2159788D2*
X3474335D1*
X3518302D2*
X3571714D1*
X3615689D2*
X3821514D1*
X3920653D2*
X4299999D1*
X424413Y2108136D2*
X1742390D1*
X1788763D2*
X1815732D1*
X1846673D2*
X1949921D1*
X2037479D2*
X2121980D1*
X2152921D2*
X3471290D1*
X3521347D2*
X3568669D1*
X3618726D2*
X3821653D1*
X3922299D2*
X4299999D1*
X424413Y2100394D2*
X1708518D1*
X1741389D2*
X1748111D1*
X1783042D2*
X1949544D1*
X2037856D2*
X3470913D1*
X3521724D2*
X3568292D1*
X3619103D2*
X3824406D1*
X3921684D2*
X4299999D1*
X424413Y2092651D2*
X1702205D1*
X1747694D2*
X1951697D1*
X2035703D2*
X3473066D1*
X3519563D2*
X3570453D1*
X3616950D2*
X3831165D1*
X3862482D2*
X3875310D1*
X3918339D2*
X4299999D1*
X424413Y2084908D2*
X1699682D1*
X1750224D2*
X1957333D1*
X2030067D2*
X3478702D1*
X3513934D2*
X3576082D1*
X3611314D2*
X3883392D1*
X3910257D2*
X4299999D1*
X424413Y2077165D2*
X1699729D1*
X1750170D2*
X4299999D1*
X424413Y2069423D2*
X518234D1*
X681664D2*
X1702381D1*
X1747525D2*
X4299999D1*
X424413Y2061680D2*
X511729D1*
X688177D2*
X1708925D1*
X1740973D2*
X1978426D1*
X1990227D2*
X4299999D1*
X424413Y2053937D2*
X508099D1*
X691799D2*
X1965061D1*
X2003592D2*
X4299999D1*
X424413Y2046194D2*
X498203D1*
X701696D2*
X1960371D1*
X2008282D2*
X4299999D1*
X424413Y2038451D2*
X494235D1*
X705663D2*
X1958794D1*
X2009859D2*
X4299999D1*
X424413Y2030709D2*
X482432D1*
X717467D2*
X1959709D1*
X2008944D2*
X2020610D1*
X2029290D2*
X4299999D1*
X424413Y2022966D2*
X476742D1*
X542846D2*
X657060D1*
X723157D2*
X1963454D1*
X2043961D2*
X4299999D1*
X424413Y2015223D2*
X474558D1*
X538410D2*
X661497D1*
X725348D2*
X1972620D1*
X1996033D2*
X2001102D1*
X2048798D2*
X4299999D1*
X424413Y2007480D2*
X474904D1*
X526599D2*
X673300D1*
X725002D2*
X1999433D1*
X2050467D2*
X4299999D1*
X424413Y1999738D2*
X475150D1*
X524753D2*
X675145D1*
X724756D2*
X2000256D1*
X2049644D2*
X4299999D1*
X424413Y1991995D2*
X474458D1*
X525445D2*
X674461D1*
X725441D2*
X2003878D1*
X2046022D2*
X4299999D1*
X424413Y1984252D2*
X476211D1*
X523692D2*
X676214D1*
X723687D2*
X2012698D1*
X2037202D2*
X4299999D1*
X424413Y1976509D2*
X474450D1*
X525453D2*
X674446D1*
X725456D2*
X1871957D1*
X1909196D2*
X2972489D1*
X3039909D2*
X4299999D1*
X424413Y1968766D2*
X475188D1*
X524715D2*
X675184D1*
X724718D2*
X1866898D1*
X1914256D2*
X2965323D1*
X3047076D2*
X4299999D1*
X424413Y1961024D2*
X474873D1*
X525030D2*
X674876D1*
X725025D2*
X1865083D1*
X1916070D2*
X1932066D1*
X1961584D2*
X2962378D1*
X3050028D2*
X4299999D1*
X424413Y1953281D2*
X474573D1*
X525330D2*
X674576D1*
X725333D2*
X1865775D1*
X1915378D2*
X1924784D1*
X1968866D2*
X2962070D1*
X3050328D2*
X4299999D1*
X424413Y1945538D2*
X476811D1*
X523092D2*
X676814D1*
X723088D2*
X1869220D1*
X1911933D2*
X1921777D1*
X1971873D2*
X2964315D1*
X3048091D2*
X4299999D1*
X424413Y1937795D2*
X482593D1*
X517310D2*
X682596D1*
X717305D2*
X1877555D1*
X1903598D2*
X1921431D1*
X1972219D2*
X2164642D1*
X2197759D2*
X2231978D1*
X2255422D2*
X2970098D1*
X3042308D2*
X4299999D1*
X424413Y1930052D2*
X1923623D1*
X1970027D2*
X1982486D1*
X2011166D2*
X2158405D1*
X2203995D2*
X2222820D1*
X2264580D2*
X4299999D1*
X424413Y1922310D2*
X1929321D1*
X1964337D2*
X1974950D1*
X2018702D2*
X2155914D1*
X2206486D2*
X2219083D1*
X2268317D2*
X4299999D1*
X424413Y1914567D2*
X1971836D1*
X2021816D2*
X2155999D1*
X2206401D2*
X2218168D1*
X2269232D2*
X2299276D1*
X2313124D2*
X4299999D1*
X424413Y1906824D2*
X1971397D1*
X2022246D2*
X2158682D1*
X2203718D2*
X2219744D1*
X2267656D2*
X2286727D1*
X2325673D2*
X4299999D1*
X424413Y1899081D2*
X1973489D1*
X2020155D2*
X2165303D1*
X2197097D2*
X2224443D1*
X2262958D2*
X2282160D1*
X2330248D2*
X4299999D1*
X424413Y1891339D2*
X1979018D1*
X2014634D2*
X2237838D1*
X2249562D2*
X2280660D1*
X2331740D2*
X4299999D1*
X424413Y1883596D2*
X2225927D1*
X2261473D2*
X2281652D1*
X2330748D2*
X4299999D1*
X424413Y1875853D2*
X2220382D1*
X2267018D2*
X2285505D1*
X2326903D2*
X3518472D1*
X3550182D2*
X4299999D1*
X424413Y1868110D2*
X2218283D1*
X2269124D2*
X2294993D1*
X2317407D2*
X3511829D1*
X3556826D2*
X4299999D1*
X424413Y1860367D2*
X1984277D1*
X2034373D2*
X2218706D1*
X2268702D2*
X2290526D1*
X2321874D2*
X3509130D1*
X3559525D2*
X4299999D1*
X424413Y1852625D2*
X1778761D1*
X1798760D2*
X1977526D1*
X2041124D2*
X2221805D1*
X2265595D2*
X2283782D1*
X2328626D2*
X3509037D1*
X3559617D2*
X3577366D1*
X3603786D2*
X4299999D1*
X424413Y1844882D2*
X1768457D1*
X1809064D2*
X1968475D1*
X2043877D2*
X2229310D1*
X2258090D2*
X2281029D1*
X2331378D2*
X3511513D1*
X3557141D2*
X3569146D1*
X3612006D2*
X4299999D1*
X424413Y1837139D2*
X1764374D1*
X1813147D2*
X1963616D1*
X2044015D2*
X2230732D1*
X2256668D2*
X2280891D1*
X2331509D2*
X3517727D1*
X3550920D2*
X3565747D1*
X3615404D2*
X4299999D1*
X424413Y1829396D2*
X1763213D1*
X1814308D2*
X1961932D1*
X2041585D2*
X2222366D1*
X2265034D2*
X2283313D1*
X2329087D2*
X3565094D1*
X3616058D2*
X4299999D1*
X424413Y1821654D2*
X1764535D1*
X1812993D2*
X1962747D1*
X2035465D2*
X2218906D1*
X2268494D2*
X2289442D1*
X2322966D2*
X3566939D1*
X3614212D2*
X4299999D1*
X424413Y1813911D2*
X1768842D1*
X1808679D2*
X1966353D1*
X2008551D2*
X2218206D1*
X2269194D2*
X2297123D1*
X2315277D2*
X3572060D1*
X3609091D2*
X4299999D1*
X424413Y1806168D2*
X1780076D1*
X1797452D2*
X1975119D1*
X1999785D2*
X2220006D1*
X2267394D2*
X2286174D1*
X2326226D2*
X4299999D1*
X424413Y1798425D2*
X2225050D1*
X2262350D2*
X2281929D1*
X2330479D2*
X4299999D1*
X424413Y1790682D2*
X2280653D1*
X2331755D2*
X2665887D1*
X2690269D2*
X4299999D1*
X424413Y1782940D2*
X2225258D1*
X2262142D2*
X2281860D1*
X2330548D2*
X2657029D1*
X2699127D2*
X4299999D1*
X424413Y1775197D2*
X2220098D1*
X2267310D2*
X2286004D1*
X2326396D2*
X2653392D1*
X2702757D2*
X4299999D1*
X424413Y1767454D2*
X2218222D1*
X2269178D2*
X2296547D1*
X2315853D2*
X2652554D1*
X2703595D2*
X4299999D1*
X424413Y1759711D2*
X2218852D1*
X2268548D2*
X2289695D1*
X2322705D2*
X2654215D1*
X2701942D2*
X4299999D1*
X424413Y1751969D2*
X2222220D1*
X2265180D2*
X2283428D1*
X2328979D2*
X2659036D1*
X2697120D2*
X4299999D1*
X424413Y1744226D2*
X2230371D1*
X2257037D2*
X2280922D1*
X2331478D2*
X2673515D1*
X2682633D2*
X4299999D1*
X424413Y1736483D2*
X2111938D1*
X2125462D2*
X2130685D1*
X2144217D2*
X2149439D1*
X2162964D2*
X2280991D1*
X2331409D2*
X4299999D1*
X424413Y1728740D2*
X2099258D1*
X2175644D2*
X2283659D1*
X2328741D2*
X4299999D1*
X424413Y1720997D2*
X2094667D1*
X2180234D2*
X2290249D1*
X2322151D2*
X2819577D1*
X2855331D2*
X4299999D1*
X424413Y1713255D2*
X2093160D1*
X2181741D2*
X2814086D1*
X2860814D2*
X4299999D1*
X424413Y1705512D2*
X2094144D1*
X2180757D2*
X2741598D1*
X2777052D2*
X2812018D1*
X2870487D2*
X4299999D1*
X424413Y1697769D2*
X564540D1*
X585354D2*
X589546D1*
X610360D2*
X614545D1*
X635358D2*
X2097974D1*
X2176928D2*
X2736023D1*
X2782627D2*
X2812479D1*
X2878253D2*
X4299999D1*
X424413Y1690026D2*
X554521D1*
X645386D2*
X2107409D1*
X2167493D2*
X2733908D1*
X2784742D2*
X2815617D1*
X2884928D2*
X4299999D1*
X424413Y1682283D2*
X550507D1*
X649392D2*
X2734316D1*
X2784334D2*
X2823214D1*
X2887642D2*
X4299999D1*
X424413Y1674541D2*
X549399D1*
X650499D2*
X2737407D1*
X2781243D2*
X2830288D1*
X2887750D2*
X4299999D1*
X424413Y1666798D2*
X550776D1*
X649123D2*
X2744873D1*
X2773777D2*
X2839615D1*
X2885282D2*
X4299999D1*
X424413Y1659055D2*
X551130D1*
X648769D2*
X2845805D1*
X2879099D2*
X4299999D1*
X424413Y1651312D2*
X549438D1*
X650461D2*
X4299999D1*
X424413Y1643570D2*
X550238D1*
X649669D2*
X4299999D1*
X424413Y1635827D2*
X551914D1*
X647985D2*
X4299999D1*
X424413Y1628084D2*
X549599D1*
X650299D2*
X2248095D1*
X2285603D2*
X4299999D1*
X424413Y1620341D2*
X549830D1*
X650068D2*
X2241813D1*
X2290593D2*
X4299999D1*
X424413Y1612598D2*
X552698D1*
X647200D2*
X2233178D1*
X2292354D2*
X4299999D1*
X424413Y1604856D2*
X559696D1*
X640211D2*
X2224965D1*
X2291616D2*
X4299999D1*
X424413Y1597113D2*
X574559D1*
X625339D2*
X2218914D1*
X2288117D2*
X2691239D1*
X2714914D2*
X4299999D1*
X424413Y1589370D2*
X576774D1*
X623125D2*
X2048023D1*
X2076880D2*
X2216522D1*
X2279621D2*
X2682158D1*
X2723995D2*
X4299999D1*
X424413Y1581627D2*
X575313D1*
X624586D2*
X2040541D1*
X2084362D2*
X2216699D1*
X2273223D2*
X2678444D1*
X2732030D2*
X4299999D1*
X424413Y1573885D2*
X574421D1*
X625478D2*
X1924061D1*
X1938347D2*
X2037450D1*
X2087453D2*
X2219490D1*
X2264211D2*
X2677544D1*
X2738328D2*
X4299999D1*
X424413Y1566142D2*
X576020D1*
X623878D2*
X1911673D1*
X1950727D2*
X2037035D1*
X2087868D2*
X2226326D1*
X2257375D2*
X2679144D1*
X2747602D2*
X4299999D1*
X424413Y1558399D2*
X575882D1*
X624017D2*
X1907137D1*
X1955263D2*
X2039142D1*
X2085754D2*
X2683865D1*
X2752138D2*
X4299999D1*
X424413Y1550656D2*
X574406D1*
X625493D2*
X1865091D1*
X1897308D2*
X1905660D1*
X1956740D2*
X2044701D1*
X2080194D2*
X2693016D1*
X2753615D2*
X4299999D1*
X424413Y1542913D2*
X557112D1*
X642787D2*
X1094614D1*
X1130283D2*
X1858593D1*
X1955732D2*
X2081465D1*
X2093436D2*
X2699575D1*
X2752607D2*
X4299999D1*
X424413Y1535171D2*
X551606D1*
X648292D2*
X1089108D1*
X1135797D2*
X1380892D1*
X1412756D2*
X1855971D1*
X1906435D2*
X1910543D1*
X1951857D2*
X2068169D1*
X2106731D2*
X2707418D1*
X2748732D2*
X4299999D1*
X424413Y1527428D2*
X549522D1*
X650376D2*
X1087024D1*
X1144740D2*
X1374295D1*
X1419354D2*
X1810388D1*
X1845765D2*
X1855940D1*
X1906466D2*
X1920116D1*
X1942284D2*
X2063487D1*
X2111413D2*
X2716999D1*
X2739159D2*
X4299999D1*
X424413Y1519685D2*
X549968D1*
X649938D2*
X1087470D1*
X1152760D2*
X1365452D1*
X1422030D2*
X1804797D1*
X1851356D2*
X1858493D1*
X1903913D2*
X2061918D1*
X2112982D2*
X4299999D1*
X424413Y1511942D2*
X552498D1*
X647400D2*
X1090592D1*
X1156074D2*
X1358747D1*
X1423737D2*
X1773624D1*
X1782527D2*
X1802660D1*
X1853486D2*
X1864845D1*
X1897554D2*
X2062841D1*
X2112059D2*
X4299999D1*
X424413Y1504199D2*
X549769D1*
X650138D2*
X1098151D1*
X1156674D2*
X1356017D1*
X1429419D2*
X1759045D1*
X1797106D2*
X1803060D1*
X1853093D2*
X2066585D1*
X2108315D2*
X2596890D1*
X2628015D2*
X4299999D1*
X424413Y1496457D2*
X549646D1*
X650253D2*
X1107647D1*
X1154751D2*
X1355894D1*
X1431595D2*
X1754224D1*
X1801935D2*
X1806128D1*
X1850018D2*
X2075782D1*
X2099118D2*
X2590077D1*
X2634828D2*
X4299999D1*
X424413Y1488714D2*
X552098D1*
X647808D2*
X1112876D1*
X1149522D2*
X1358347D1*
X1431242D2*
X1752555D1*
X1803596D2*
X1813563D1*
X1842590D2*
X2587293D1*
X2643848D2*
X4299999D1*
X424413Y1480971D2*
X550145D1*
X649761D2*
X899632D1*
X962768D2*
X1364506D1*
X1428227D2*
X1753386D1*
X1802766D2*
X2587132D1*
X2650268D2*
X4299999D1*
X424413Y1473228D2*
X549461D1*
X650445D2*
X891173D1*
X971234D2*
X1391481D1*
X1420922D2*
X1512436D1*
X1587468D2*
X1757015D1*
X1799136D2*
X2589523D1*
X2658734D2*
X4299999D1*
X424413Y1465486D2*
X551276D1*
X648623D2*
X887682D1*
X974725D2*
X1507453D1*
X1592444D2*
X1765858D1*
X1790301D2*
X2595590D1*
X2662225D2*
X4299999D1*
X424413Y1457743D2*
X556351D1*
X643548D2*
X886952D1*
X975448D2*
X1505700D1*
X1594204D2*
X1743766D1*
X1761881D2*
X1794947D1*
X1813062D2*
X1846128D1*
X1864243D2*
X1897309D1*
X1915424D2*
X2603795D1*
X2662948D2*
X4299999D1*
X424413Y1450000D2*
X888720D1*
X973680D2*
X1506438D1*
X1593466D2*
X1732801D1*
X1772838D2*
X1783982D1*
X1824020D2*
X1835163D1*
X1875201D2*
X1886344D1*
X1926382D2*
X2612461D1*
X2661180D2*
X4299999D1*
X424413Y1442257D2*
X893718D1*
X968682D2*
X1509945D1*
X1589952D2*
X1728549D1*
X1930634D2*
X2618720D1*
X2656182D2*
X4299999D1*
X424413Y1434514D2*
X1518457D1*
X1581448D2*
X1727272D1*
X1931918D2*
X4299999D1*
X424413Y1426772D2*
X1728472D1*
X1930711D2*
X4299999D1*
X424413Y1419029D2*
X1732616D1*
X1773023D2*
X1783798D1*
X1824204D2*
X1834979D1*
X1875385D2*
X1886160D1*
X1926566D2*
X4299999D1*
X424413Y1411286D2*
X1743143D1*
X1762496D2*
X1794324D1*
X1813677D2*
X1845506D1*
X1864858D2*
X1896687D1*
X1916039D2*
X4299999D1*
X424413Y1403543D2*
X4299999D1*
X424413Y1395801D2*
X4299999D1*
X424413Y1388058D2*
X2323906D1*
X2400499D2*
X4299999D1*
X424413Y1380315D2*
X2305028D1*
X2419384D2*
X4299999D1*
X424413Y1372572D2*
X2291895D1*
X2432510D2*
X4299999D1*
X424413Y1364829D2*
X1998749D1*
X2026153D2*
X2281629D1*
X2442783D2*
X4299999D1*
X424413Y1357087D2*
X1990829D1*
X2034073D2*
X2273217D1*
X2451196D2*
X4299999D1*
X424413Y1349344D2*
X1987553D1*
X2037349D2*
X2266166D1*
X2458247D2*
X2832310D1*
X2917593D2*
X3169893D1*
X3180011D2*
X4299999D1*
X424413Y1341601D2*
X1986992D1*
X2037910D2*
X2260191D1*
X2464222D2*
X2826689D1*
X2923214D2*
X3155829D1*
X3194068D2*
X3458487D1*
X3478916D2*
X3483485D1*
X3503915D2*
X3508491D1*
X3528913D2*
X4299999D1*
X424413Y1333858D2*
X1988937D1*
X2035964D2*
X2255116D1*
X2469297D2*
X2824544D1*
X2925359D2*
X3151054D1*
X3198843D2*
X3448329D1*
X3539071D2*
X4299999D1*
X424413Y1326115D2*
X1994228D1*
X2030674D2*
X2250810D1*
X2473603D2*
X2743820D1*
X2774830D2*
X2824928D1*
X2924975D2*
X3103195D1*
X3134205D2*
X3149424D1*
X3200473D2*
X3444284D1*
X3543116D2*
X4299999D1*
X424413Y1318373D2*
X2026362D1*
X2061032D2*
X2247188D1*
X2477225D2*
X2736969D1*
X2781681D2*
X2827981D1*
X2921922D2*
X3096344D1*
X3141056D2*
X3150285D1*
X3199612D2*
X3443154D1*
X3544246D2*
X4299999D1*
X424413Y1310630D2*
X2020572D1*
X2066830D2*
X2244189D1*
X2480223D2*
X2734177D1*
X2784480D2*
X2835378D1*
X2914525D2*
X3093552D1*
X3143855D2*
X3153961D1*
X3195944D2*
X3444500D1*
X3542900D2*
X4299999D1*
X424413Y1302887D2*
X2018326D1*
X2069075D2*
X2241767D1*
X2482646D2*
X2734001D1*
X2784657D2*
X2829642D1*
X2864005D2*
X3093376D1*
X3144032D2*
X3162919D1*
X3186978D2*
X3448860D1*
X3538548D2*
X4299999D1*
X424413Y1295144D2*
X2018619D1*
X2068783D2*
X2239883D1*
X2484530D2*
X2736377D1*
X2782273D2*
X2823760D1*
X2869887D2*
X3095752D1*
X3141648D2*
X3460279D1*
X3477125D2*
X3485277D1*
X3502123D2*
X3510275D1*
X3527129D2*
X4299999D1*
X424413Y1287402D2*
X2021564D1*
X2065838D2*
X2238514D1*
X2485898D2*
X2742420D1*
X2776230D2*
X2821468D1*
X2872186D2*
X3101795D1*
X3135605D2*
X4299999D1*
X424413Y1279659D2*
X2028715D1*
X2058679D2*
X2237645D1*
X2486767D2*
X2821714D1*
X2871933D2*
X4299999D1*
X424413Y1271916D2*
X2237261D1*
X2487144D2*
X2824606D1*
X2869041D2*
X4299999D1*
X424413Y1264173D2*
X2237369D1*
X2487044D2*
X2831649D1*
X2862006D2*
X4299999D1*
X424413Y1256430D2*
X2031744D1*
X2055657D2*
X2237953D1*
X2486460D2*
X4299999D1*
X424413Y1248688D2*
X2022740D1*
X2064662D2*
X2239029D1*
X2485375D2*
X4299999D1*
X424413Y1240945D2*
X2019049D1*
X2068352D2*
X2240613D1*
X2483791D2*
X4299999D1*
X424413Y1233202D2*
X2018173D1*
X2069229D2*
X2242728D1*
X2481684D2*
X4299999D1*
X424413Y1225459D2*
X2019795D1*
X2067607D2*
X2245389D1*
X2479024D2*
X4299999D1*
X424413Y1217717D2*
X2024547D1*
X2062854D2*
X2248641D1*
X2475771D2*
X4299999D1*
X424413Y1209974D2*
X2038419D1*
X2048983D2*
X2252540D1*
X2471865D2*
X4299999D1*
X424413Y1202231D2*
X711086D1*
X738813D2*
X2257161D1*
X2467244D2*
X4299999D1*
X424413Y1194488D2*
X703266D1*
X746633D2*
X2262605D1*
X2461807D2*
X4299999D1*
X562209Y1186745D2*
X700028D1*
X749870D2*
X2269003D1*
X2455402D2*
X4162204D1*
X562209Y1179003D2*
X699498D1*
X750401D2*
X2276592D1*
X2447820D2*
X4162204D1*
X562209Y1171260D2*
X701482D1*
X748417D2*
X2285712D1*
X2438700D2*
X4162204D1*
X562209Y1163517D2*
X700505D1*
X749393D2*
X2297016D1*
X2427389D2*
X4162204D1*
X562209Y1155774D2*
X699406D1*
X750501D2*
X2311987D1*
X2412425D2*
X4162204D1*
X562209Y1148031D2*
X700782D1*
X749116D2*
X2336532D1*
X2387881D2*
X4162204D1*
X562209Y1140289D2*
X701128D1*
X748770D2*
X4162204D1*
X562209Y1132546D2*
X699436D1*
X750462D2*
X4162204D1*
X562209Y1124803D2*
X700236D1*
X749662D2*
X4162204D1*
X562209Y1117060D2*
X701905D1*
X747994D2*
X4162204D1*
X562209Y1109318D2*
X699598D1*
X750301D2*
X4162204D1*
X562209Y1101575D2*
X699836D1*
X750062D2*
X4162204D1*
X562209Y1093832D2*
X702712D1*
X747194D2*
X4162204D1*
X562209Y1086089D2*
X699890D1*
X750016D2*
X4162204D1*
X562209Y1078346D2*
X699567D1*
X750339D2*
X850581D1*
X911818D2*
X1135975D1*
X1151429D2*
X1353449D1*
X1366427D2*
X1514482D1*
X1574066D2*
X2790441D1*
X2853570D2*
X3075759D1*
X3095650D2*
X3292917D1*
X3311755D2*
X3444331D1*
X3505568D2*
X4162204D1*
X562209Y1070604D2*
X701782D1*
X748117D2*
X841522D1*
X920884D2*
X1124033D1*
X1163364D2*
X1340561D1*
X1379322D2*
X1504877D1*
X1583662D2*
X2781998D1*
X2861829D2*
X3065424D1*
X3105992D2*
X3282213D1*
X3322466D2*
X3435272D1*
X3514634D2*
X4162204D1*
X562209Y1062861D2*
X700059D1*
X749839D2*
X837816D1*
X924590D2*
X1119574D1*
X1167823D2*
X1335932D1*
X1383944D2*
X1500994D1*
X1587545D2*
X2778515D1*
X2865251D2*
X3061326D1*
X3110091D2*
X3278023D1*
X3326649D2*
X3431558D1*
X3518340D2*
X4162204D1*
X562209Y1055118D2*
X699482D1*
X750416D2*
X836924D1*
X925474D2*
X1118159D1*
X1169246D2*
X1334402D1*
X1385474D2*
X1499979D1*
X1588560D2*
X2777792D1*
X2865920D2*
X3060157D1*
X3111260D2*
X3276785D1*
X3327887D2*
X3430674D1*
X3519232D2*
X4162204D1*
X562209Y1047375D2*
X701420D1*
X748478D2*
X838523D1*
X923875D2*
X1119220D1*
X1168185D2*
X1335363D1*
X1384520D2*
X1501448D1*
X1587092D2*
X2779576D1*
X2864082D2*
X3061472D1*
X3109945D2*
X3278030D1*
X3326642D2*
X3432273D1*
X3517625D2*
X4162204D1*
X562209Y1039633D2*
X706680D1*
X743219D2*
X843260D1*
X919146D2*
X1123165D1*
X1164232D2*
X1339162D1*
X1380722D2*
X1505985D1*
X1582563D2*
X2784582D1*
X2858984D2*
X3065770D1*
X3105639D2*
X3282237D1*
X3322436D2*
X3437010D1*
X3512896D2*
X4162204D1*
X424413Y1031890D2*
X856947D1*
X867950D2*
X875702D1*
X886704D2*
X894449D1*
X905451D2*
X1132984D1*
X1154421D2*
X1348504D1*
X1371371D2*
X1518311D1*
X1532735D2*
X1537058D1*
X1551482D2*
X1555812D1*
X1570236D2*
X3076959D1*
X3094458D2*
X3293017D1*
X3311663D2*
X3450697D1*
X3461700D2*
X3469452D1*
X3480454D2*
X3488199D1*
X3499201D2*
X4299999D1*
X424413Y1024147D2*
X4299999D1*
X424413Y1016404D2*
X4299999D1*
X424413Y1008661D2*
X4299999D1*
X424413Y1000919D2*
X4299999D1*
X424413Y993176D2*
X4299999D1*
X424413Y985433D2*
X2596867D1*
X2628038D2*
X4299999D1*
X424413Y977690D2*
X2590069D1*
X2634836D2*
X3443108D1*
X3469297D2*
X4299999D1*
X424413Y969948D2*
X2587285D1*
X2637611D2*
X3434819D1*
X3477586D2*
X4299999D1*
X424413Y962205D2*
X2587132D1*
X2637773D2*
X3431389D1*
X3481015D2*
X4299999D1*
X424413Y954462D2*
X465930D1*
X496471D2*
X2589531D1*
X2635366D2*
X3430713D1*
X3481692D2*
X4299999D1*
X424413Y946719D2*
X453889D1*
X508513D2*
X2595613D1*
X2629291D2*
X3432535D1*
X3479862D2*
X4299999D1*
X424413Y938976D2*
X447583D1*
X514811D2*
X1972313D1*
X1990089D2*
X3437618D1*
X3474779D2*
X4299999D1*
X424413Y931234D2*
X443923D1*
X518479D2*
X1639274D1*
X1673129D2*
X1759061D1*
X1785680D2*
X1833025D1*
X1866873D2*
X1961224D1*
X2001177D2*
X2477972D1*
X2503830D2*
X4299999D1*
X424413Y923491D2*
X442131D1*
X520270D2*
X1410220D1*
X1427182D2*
X1478979D1*
X1495925D2*
X1633245D1*
X1679158D2*
X1750902D1*
X1793838D2*
X1826997D1*
X1872902D2*
X1956949D1*
X2005453D2*
X2469575D1*
X2512219D2*
X4299999D1*
X424413Y915748D2*
X441939D1*
X520455D2*
X1398840D1*
X1438562D2*
X1467591D1*
X1507306D2*
X1630869D1*
X1681534D2*
X1747526D1*
X1797214D2*
X1824621D1*
X1875278D2*
X1955649D1*
X2006752D2*
X2244135D1*
X2268263D2*
X2466115D1*
X2515687D2*
X3094383D1*
X3117527D2*
X3206388D1*
X3230516D2*
X3328335D1*
X3338706D2*
X4299999D1*
X424413Y908005D2*
X443339D1*
X519055D2*
X1394495D1*
X1442906D2*
X1463247D1*
X1511658D2*
X1631054D1*
X1681349D2*
X1746888D1*
X1797852D2*
X1824798D1*
X1875101D2*
X1956834D1*
X2005568D2*
X2235200D1*
X2277206D2*
X2465407D1*
X2516395D2*
X2535658D1*
X2551736D2*
X3085125D1*
X3126777D2*
X3197452D1*
X3239459D2*
X3314386D1*
X3352663D2*
X4299999D1*
X424413Y900262D2*
X446522D1*
X515880D2*
X1393149D1*
X1444252D2*
X1461901D1*
X1513004D2*
X1633861D1*
X1678543D2*
X1689602D1*
X1722795D2*
X1748757D1*
X1795984D2*
X1827604D1*
X1872294D2*
X1960955D1*
X2001446D2*
X2231532D1*
X2280866D2*
X2467199D1*
X2514603D2*
X2523955D1*
X2563439D2*
X3081357D1*
X3130553D2*
X3193785D1*
X3243119D2*
X3309619D1*
X3357423D2*
X4299999D1*
X424413Y892520D2*
X452074D1*
X510328D2*
X1394287D1*
X1443114D2*
X1463039D1*
X1511858D2*
X1640720D1*
X1671684D2*
X1683388D1*
X1729016D2*
X1753916D1*
X1905689D2*
X1922339D1*
X1958816D2*
X1971374D1*
X1991027D2*
X2230679D1*
X2281728D2*
X2472228D1*
X2509574D2*
X2519541D1*
X2567853D2*
X2917387D1*
X2932518D2*
X3080419D1*
X3131491D2*
X3192931D1*
X3243980D2*
X3307996D1*
X3359045D2*
X3375464D1*
X3411941D2*
X3729887D1*
X3745018D2*
X4299999D1*
X424413Y884777D2*
X462032D1*
X500370D2*
X1398340D1*
X1439062D2*
X1467091D1*
X1507813D2*
X1680912D1*
X1731492D2*
X1788934D1*
X1835969D2*
X1863929D1*
X1910972D2*
X1917056D1*
X1964091D2*
X2232317D1*
X2280090D2*
X2518149D1*
X2569244D2*
X2596021D1*
X2628876D2*
X2905330D1*
X2944575D2*
X3081972D1*
X3129937D2*
X3194569D1*
X3242342D2*
X3308865D1*
X3358176D2*
X3370181D1*
X3417216D2*
X3717830D1*
X3757075D2*
X4299999D1*
X424413Y877034D2*
X1408528D1*
X1428873D2*
X1477280D1*
X1497625D2*
X1681005D1*
X1731400D2*
X1786989D1*
X1837914D2*
X1861984D1*
X1966036D2*
X2237099D1*
X2275307D2*
X2519249D1*
X2568153D2*
X2589708D1*
X2635189D2*
X2900847D1*
X2949058D2*
X3086632D1*
X3125278D2*
X3199352D1*
X3237559D2*
X3312548D1*
X3354501D2*
X3368236D1*
X3419161D2*
X3713347D1*
X3761558D2*
X4299999D1*
X424413Y869291D2*
X1683704D1*
X1728701D2*
X1787558D1*
X1837345D2*
X1862553D1*
X1965475D2*
X2251240D1*
X2261166D2*
X2446199D1*
X2478701D2*
X2523232D1*
X2564162D2*
X2587178D1*
X2637719D2*
X2899409D1*
X2950496D2*
X3099750D1*
X3112159D2*
X3131039D1*
X3163141D2*
X3213493D1*
X3223418D2*
X3243605D1*
X3276360D2*
X3321537D1*
X3345512D2*
X3368805D1*
X3418600D2*
X3711909D1*
X3762996D2*
X4299999D1*
X424413Y861549D2*
X1690347D1*
X1722057D2*
X1790841D1*
X1834062D2*
X1865836D1*
X1909057D2*
X1918963D1*
X1962184D2*
X2256992D1*
X2292908D2*
X2439786D1*
X2485122D2*
X2533198D1*
X2554204D2*
X2587232D1*
X2637673D2*
X2900454D1*
X2949450D2*
X3124510D1*
X3169669D2*
X3237261D1*
X3282704D2*
X3372088D1*
X3415309D2*
X3712954D1*
X3761950D2*
X4299999D1*
X847634Y853806D2*
X1798769D1*
X1826127D2*
X1873772D1*
X1901122D2*
X1926899D1*
X1954248D2*
X2251556D1*
X2298344D2*
X2437202D1*
X2487698D2*
X2589877D1*
X2635028D2*
X2904384D1*
X2945521D2*
X3121865D1*
X3172314D2*
X3234716D1*
X3285249D2*
X3380024D1*
X3407373D2*
X3716884D1*
X3758021D2*
X3876771D1*
X847642Y846063D2*
X2249510D1*
X2300390D2*
X2437210D1*
X2487698D2*
X2596413D1*
X2628484D2*
X2914126D1*
X2935778D2*
X3121819D1*
X3172360D2*
X3234754D1*
X3285211D2*
X3713447D1*
X3761458D2*
X3876771D1*
X847642Y838320D2*
X2249987D1*
X2299913D2*
X2439801D1*
X2485099D2*
X3124356D1*
X3169823D2*
X3237384D1*
X3282581D2*
X3711916D1*
X3762988D2*
X3876771D1*
X847642Y830577D2*
X2253163D1*
X2296737D2*
X2446238D1*
X2478662D2*
X3130677D1*
X3163502D2*
X3243897D1*
X3276068D2*
X3712870D1*
X3762027D2*
X3776054D1*
X3786349D2*
X3876771D1*
X847642Y822835D2*
X2260829D1*
X2289071D2*
X3716676D1*
X3800336D2*
X3876771D1*
X847642Y815092D2*
X3713547D1*
X3805104D2*
X3876771D1*
X847642Y807349D2*
X3711924D1*
X3806726D2*
X3876771D1*
X847642Y799606D2*
X3712793D1*
X3805857D2*
X3876771D1*
X847642Y791864D2*
X1041648D1*
X1064339D2*
X3716469D1*
X3806357D2*
X3876771D1*
X847642Y784121D2*
X1032244D1*
X1073735D2*
X3725450D1*
X3749447D2*
X3755877D1*
X3806526D2*
X3876771D1*
X847642Y776378D2*
X1028423D1*
X1077557D2*
X3756869D1*
X3805534D2*
X3809803D1*
X3840098D2*
X3876771D1*
X847642Y768635D2*
X1027454D1*
X1078533D2*
X3755646D1*
X3847157D2*
X3876771D1*
X847642Y760892D2*
X1028969D1*
X1077011D2*
X3756915D1*
X3850056D2*
X3876771D1*
X847642Y753150D2*
X1033575D1*
X1072412D2*
X3755854D1*
X3850318D2*
X3876771D1*
X847642Y745407D2*
X1046324D1*
X1059663D2*
X3756069D1*
X3848026D2*
X3876771D1*
X847642Y737664D2*
X3756508D1*
X3842159D2*
X3876771D1*
X847642Y729921D2*
X3755685D1*
X3806718D2*
X3876771D1*
X847642Y722178D2*
X3757353D1*
X3805050D2*
X3876771D1*
X847642Y714436D2*
X3762190D1*
X3800213D2*
X3876771D1*
X847642Y706693D2*
X3776862D1*
X3785541D2*
X3876771D1*
X847642Y698950D2*
X3876771D1*
X847642Y691207D2*
X3876771D1*
X847642Y683465D2*
X3876771D1*
X847642Y675722D2*
X3876771D1*
X847642Y667979D2*
X3876771D1*
X847642Y660236D2*
X3876771D1*
X847642Y652493D2*
X3876771D1*
X847642Y644751D2*
X3876771D1*
X847642Y637008D2*
X3876771D1*
X847642Y629265D2*
X3876771D1*
X847642Y621522D2*
X3876771D1*
X847642Y613780D2*
X3876771D1*
X847642Y606037D2*
X3876771D1*
X847642Y598294D2*
X3876771D1*
X847642Y590551D2*
X3876771D1*
X847642Y582808D2*
X3876771D1*
X847642Y575066D2*
X3876771D1*
X847642Y567323D2*
X3876771D1*
X847642Y559580D2*
X3876771D1*
X847642Y551837D2*
X3876771D1*
X847642Y544094D2*
X3876771D1*
X847642Y536352D2*
X3876771D1*
X847642Y528609D2*
X3876771D1*
X847642Y520866D2*
X3876771D1*
X847642Y513123D2*
X3876771D1*
X847642Y505381D2*
X3876771D1*
X847642Y497638D2*
X3876771D1*
X847642Y489895D2*
X3876771D1*
X847642Y482152D2*
X3876771D1*
X847642Y474409D2*
X3876771D1*
X847642Y466667D2*
X3876771D1*
X847642Y458924D2*
X3876771D1*
X847642Y451181D2*
X3876771D1*
X847642Y443438D2*
X3876771D1*
X847642Y435696D2*
X3876771D1*
X847642Y427953D2*
X3876771D1*
X519584Y2524146D2*
X518990Y2520283D1*
X518007Y2516500D1*
X516647Y2512836D1*
X514924Y2509328D1*
X512854Y2506013D1*
X510459Y2502924D1*
X507765Y2500093D1*
X504797Y2497549D1*
X501588Y2495319D1*
X498169Y2493425D1*
X494577Y2491886D1*
X490847Y2490718D1*
X487018Y2489934D1*
X483129Y2489542D1*
X479221Y2489544D1*
X475333Y2489942D1*
X471505Y2490732D1*
X467777Y2491905D1*
X464186Y2493448D1*
X460770Y2495347D1*
X457564Y2497582D1*
X454600Y2500130D1*
X451910Y2502965D1*
X449519Y2506057D1*
X447454Y2509375D1*
X445736Y2512886D1*
X444381Y2516552D1*
X443404Y2520336D1*
X442815Y2524200D1*
X442619Y2528103D1*
X442820Y2532006D1*
X443415Y2535869D1*
X444397Y2539652D1*
X445757Y2543316D1*
X447481Y2546824D1*
X449550Y2550139D1*
X451945Y2553228D1*
X454639Y2556059D1*
X457607Y2558603D1*
X460816Y2560833D1*
X464235Y2562728D1*
X467827Y2564266D1*
X471557Y2565434D1*
X475386Y2566218D1*
X479275Y2566611D1*
X483183Y2566608D1*
X487071Y2566210D1*
X490899Y2565420D1*
X494627Y2564248D1*
X498218Y2562704D1*
X501634Y2560805D1*
X504840Y2558570D1*
X507804Y2556022D1*
X510495Y2553187D1*
X512885Y2550095D1*
X514950Y2546777D1*
X516669Y2543267D1*
X518023Y2539601D1*
X519000Y2535816D1*
X519590Y2531953D1*
X519785Y2528076D1*
X519584Y2524146D1*
X518990Y2520283D1*
X518007Y2516500D1*
X516647Y2512836D1*
X514924Y2509328D1*
X512854Y2506013D1*
X510459Y2502924D1*
X507765Y2500093D1*
X504797Y2497549D1*
X501588Y2495319D1*
X498169Y2493425D1*
X494577Y2491886D1*
X490847Y2490718D1*
X487018Y2489934D1*
X483129Y2489542D1*
X479221Y2489544D1*
X475333Y2489942D1*
X471505Y2490732D1*
X467777Y2491905D1*
X464186Y2493448D1*
X460770Y2495347D1*
X457564Y2497582D1*
X454600Y2500130D1*
X451910Y2502965D1*
X449519Y2506057D1*
X447454Y2509375D1*
X445736Y2512886D1*
X444381Y2516552D1*
X443404Y2520336D1*
X442815Y2524200D1*
X442619Y2528103D1*
X442820Y2532006D1*
X443415Y2535869D1*
X444397Y2539652D1*
X445757Y2543316D1*
X447481Y2546824D1*
X449550Y2550139D1*
X451945Y2553228D1*
X454639Y2556059D1*
X457607Y2558603D1*
X460816Y2560833D1*
X464235Y2562728D1*
X467827Y2564266D1*
X471557Y2565434D1*
X475386Y2566218D1*
X479275Y2566611D1*
X483183Y2566608D1*
X487071Y2566210D1*
X490899Y2565420D1*
X494627Y2564248D1*
X498218Y2562704D1*
X501634Y2560805D1*
X504840Y2558570D1*
X507804Y2556022D1*
X510495Y2553187D1*
X512885Y2550095D1*
X514950Y2546777D1*
X516669Y2543267D1*
X518023Y2539601D1*
X519000Y2535816D1*
X519590Y2531953D1*
X519785Y2528076D1*
X519584Y2524146D1*
X518990Y2520283D1*
X518007Y2516500D1*
X516647Y2512836D1*
X514924Y2509328D1*
X512854Y2506013D1*
X510459Y2502924D1*
X507765Y2500093D1*
X504797Y2497549D1*
X501588Y2495319D1*
X498169Y2493425D1*
X494577Y2491886D1*
X490847Y2490718D1*
X487018Y2489934D1*
X483129Y2489542D1*
X479221Y2489544D1*
X475333Y2489942D1*
X471505Y2490732D1*
X467777Y2491905D1*
X464186Y2493448D1*
X460770Y2495347D1*
X457564Y2497582D1*
X454600Y2500130D1*
X451910Y2502965D1*
X449519Y2506057D1*
X447454Y2509375D1*
X445736Y2512886D1*
X444381Y2516552D1*
X443404Y2520336D1*
X442815Y2524200D1*
X442619Y2528103D1*
X442820Y2532006D1*
X443415Y2535869D1*
X444397Y2539652D1*
X445757Y2543316D1*
X447481Y2546824D1*
X449550Y2550139D1*
X451945Y2553228D1*
X454639Y2556059D1*
X457607Y2558603D1*
X460816Y2560833D1*
X464235Y2562728D1*
X467827Y2564266D1*
X471557Y2565434D1*
X475386Y2566218D1*
X479275Y2566611D1*
X483183Y2566608D1*
X487071Y2566210D1*
X490899Y2565420D1*
X494627Y2564248D1*
X498218Y2562704D1*
X501634Y2560805D1*
X504840Y2558570D1*
X507804Y2556022D1*
X510495Y2553187D1*
X512885Y2550095D1*
X514950Y2546777D1*
X516669Y2543267D1*
X518023Y2539601D1*
X519000Y2535816D1*
X519590Y2531953D1*
X519785Y2528076D1*
X519584Y2524146D1*
X4272707D2*
X4272113Y2520283D1*
X4271131Y2516500D1*
X4269771Y2512836D1*
X4268047Y2509328D1*
X4265977Y2506013D1*
X4263583Y2502924D1*
X4260888Y2500093D1*
X4257921Y2497549D1*
X4254711Y2495319D1*
X4251293Y2493425D1*
X4247700Y2491886D1*
X4243970Y2490718D1*
X4240141Y2489934D1*
X4236253Y2489542D1*
X4232344Y2489544D1*
X4228456Y2489942D1*
X4224629Y2490732D1*
X4220900Y2491905D1*
X4217310Y2493448D1*
X4213894Y2495347D1*
X4210687Y2497582D1*
X4207724Y2500130D1*
X4205033Y2502965D1*
X4202643Y2506057D1*
X4200578Y2509375D1*
X4198859Y2512886D1*
X4197504Y2516552D1*
X4196527Y2520336D1*
X4195938Y2524200D1*
X4195743Y2528103D1*
X4195943Y2532006D1*
X4196538Y2535869D1*
X4197520Y2539652D1*
X4198880Y2543316D1*
X4200604Y2546824D1*
X4202674Y2550139D1*
X4205068Y2553228D1*
X4207763Y2556059D1*
X4210730Y2558603D1*
X4213940Y2560833D1*
X4217358Y2562728D1*
X4220951Y2564266D1*
X4224681Y2565434D1*
X4228510Y2566218D1*
X4232398Y2566611D1*
X4236307Y2566608D1*
X4240195Y2566210D1*
X4244022Y2565420D1*
X4247751Y2564248D1*
X4251341Y2562704D1*
X4254757Y2560805D1*
X4257963Y2558570D1*
X4260927Y2556022D1*
X4263618Y2553187D1*
X4266008Y2550095D1*
X4268073Y2546777D1*
X4269792Y2543267D1*
X4271147Y2539601D1*
X4272124Y2535816D1*
X4272713Y2531953D1*
X4272908Y2528076D1*
X4272707Y2524146D1*
X4272113Y2520283D1*
X4271131Y2516500D1*
X4269771Y2512836D1*
X4268047Y2509328D1*
X4265977Y2506013D1*
X4263583Y2502924D1*
X4260888Y2500093D1*
X4257921Y2497549D1*
X4254711Y2495319D1*
X4251293Y2493425D1*
X4247700Y2491886D1*
X4243970Y2490718D1*
X4240141Y2489934D1*
X4236253Y2489542D1*
X4232344Y2489544D1*
X4228456Y2489942D1*
X4224629Y2490732D1*
X4220900Y2491905D1*
X4217310Y2493448D1*
X4213894Y2495347D1*
X4210687Y2497582D1*
X4207724Y2500130D1*
X4205033Y2502965D1*
X4202643Y2506057D1*
X4200578Y2509375D1*
X4198859Y2512886D1*
X4197504Y2516552D1*
X4196527Y2520336D1*
X4195938Y2524200D1*
X4195743Y2528103D1*
X4195943Y2532006D1*
X4196538Y2535869D1*
X4197520Y2539652D1*
X4198880Y2543316D1*
X4200604Y2546824D1*
X4202674Y2550139D1*
X4205068Y2553228D1*
X4207763Y2556059D1*
X4210730Y2558603D1*
X4213940Y2560833D1*
X4217358Y2562728D1*
X4220951Y2564266D1*
X4224681Y2565434D1*
X4228510Y2566218D1*
X4232398Y2566611D1*
X4236307Y2566608D1*
X4240195Y2566210D1*
X4244022Y2565420D1*
X4247751Y2564248D1*
X4251341Y2562704D1*
X4254757Y2560805D1*
X4257963Y2558570D1*
X4260927Y2556022D1*
X4263618Y2553187D1*
X4266008Y2550095D1*
X4268073Y2546777D1*
X4269792Y2543267D1*
X4271147Y2539601D1*
X4272124Y2535816D1*
X4272713Y2531953D1*
X4272908Y2528076D1*
X4272707Y2524146D1*
X4272113Y2520283D1*
X4271131Y2516500D1*
X4269771Y2512836D1*
X4268047Y2509328D1*
X4265977Y2506013D1*
X4263583Y2502924D1*
X4260888Y2500093D1*
X4257921Y2497549D1*
X4254711Y2495319D1*
X4251293Y2493425D1*
X4247700Y2491886D1*
X4243970Y2490718D1*
X4240141Y2489934D1*
X4236253Y2489542D1*
X4232344Y2489544D1*
X4228456Y2489942D1*
X4224629Y2490732D1*
X4220900Y2491905D1*
X4217310Y2493448D1*
X4213894Y2495347D1*
X4210687Y2497582D1*
X4207724Y2500130D1*
X4205033Y2502965D1*
X4202643Y2506057D1*
X4200578Y2509375D1*
X4198859Y2512886D1*
X4197504Y2516552D1*
X4196527Y2520336D1*
X4195938Y2524200D1*
X4195743Y2528103D1*
X4195943Y2532006D1*
X4196538Y2535869D1*
X4197520Y2539652D1*
X4198880Y2543316D1*
X4200604Y2546824D1*
X4202674Y2550139D1*
X4205068Y2553228D1*
X4207763Y2556059D1*
X4210730Y2558603D1*
X4213940Y2560833D1*
X4217358Y2562728D1*
X4220951Y2564266D1*
X4224681Y2565434D1*
X4228510Y2566218D1*
X4232398Y2566611D1*
X4236307Y2566608D1*
X4240195Y2566210D1*
X4244022Y2565420D1*
X4247751Y2564248D1*
X4251341Y2562704D1*
X4254757Y2560805D1*
X4257963Y2558570D1*
X4260927Y2556022D1*
X4263618Y2553187D1*
X4266008Y2550095D1*
X4268073Y2546777D1*
X4269792Y2543267D1*
X4271147Y2539601D1*
X4272124Y2535816D1*
X4272713Y2531953D1*
X4272908Y2528076D1*
X4272707Y2524146D1*
X519581Y914771D2*
X518987Y910908D1*
X518005Y907125D1*
X516645Y903461D1*
X514921Y899953D1*
X512851Y896638D1*
X510457Y893549D1*
X507762Y890718D1*
X504795Y888174D1*
X501585Y885944D1*
X498167Y884049D1*
X494574Y882510D1*
X490844Y881343D1*
X487015Y880559D1*
X483127Y880166D1*
X479218Y880169D1*
X475330Y880567D1*
X471503Y881357D1*
X467774Y882529D1*
X464184Y884073D1*
X460768Y885972D1*
X457561Y888207D1*
X454598Y890755D1*
X451907Y893590D1*
X449517Y896682D1*
X447452Y900000D1*
X445733Y903510D1*
X444378Y907176D1*
X443401Y910961D1*
X442812Y914824D1*
X442617Y918728D1*
X442817Y922631D1*
X443412Y926494D1*
X444394Y930277D1*
X445754Y933941D1*
X447478Y937449D1*
X449548Y940764D1*
X451942Y943853D1*
X454637Y946684D1*
X457604Y949228D1*
X460814Y951458D1*
X464232Y953352D1*
X467825Y954891D1*
X471555Y956059D1*
X475384Y956843D1*
X479272Y957235D1*
X483181Y957233D1*
X487069Y956834D1*
X490896Y956045D1*
X494625Y954872D1*
X498215Y953329D1*
X501631Y951429D1*
X504837Y949195D1*
X507801Y946647D1*
X510492Y943812D1*
X512882Y940720D1*
X514947Y937401D1*
X516666Y933891D1*
X518021Y930225D1*
X518998Y926441D1*
X519587Y922577D1*
X519782Y918701D1*
X519581Y914771D1*
X518987Y910908D1*
X518005Y907125D1*
X516645Y903461D1*
X514921Y899953D1*
X512851Y896638D1*
X510457Y893549D1*
X507762Y890718D1*
X504795Y888174D1*
X501585Y885944D1*
X498167Y884049D1*
X494574Y882510D1*
X490844Y881343D1*
X487015Y880559D1*
X483127Y880166D1*
X479218Y880169D1*
X475330Y880567D1*
X471503Y881357D1*
X467774Y882529D1*
X464184Y884073D1*
X460768Y885972D1*
X457561Y888207D1*
X454598Y890755D1*
X451907Y893590D1*
X449517Y896682D1*
X447452Y900000D1*
X445733Y903510D1*
X444378Y907176D1*
X443401Y910961D1*
X442812Y914824D1*
X442617Y918728D1*
X442817Y922631D1*
X443412Y926494D1*
X444394Y930277D1*
X445754Y933941D1*
X447478Y937449D1*
X449548Y940764D1*
X451942Y943853D1*
X454637Y946684D1*
X457604Y949228D1*
X460814Y951458D1*
X464232Y953352D1*
X467825Y954891D1*
X471555Y956059D1*
X475384Y956843D1*
X479272Y957235D1*
X483181Y957233D1*
X487069Y956834D1*
X490896Y956045D1*
X494625Y954872D1*
X498215Y953329D1*
X501631Y951429D1*
X504837Y949195D1*
X507801Y946647D1*
X510492Y943812D1*
X512882Y940720D1*
X514947Y937401D1*
X516666Y933891D1*
X518021Y930225D1*
X518998Y926441D1*
X519587Y922577D1*
X519782Y918701D1*
X519581Y914771D1*
X518987Y910908D1*
X518005Y907125D1*
X516645Y903461D1*
X514921Y899953D1*
X512851Y896638D1*
X510457Y893549D1*
X507762Y890718D1*
X504795Y888174D1*
X501585Y885944D1*
X498167Y884049D1*
X494574Y882510D1*
X490844Y881343D1*
X487015Y880559D1*
X483127Y880166D1*
X479218Y880169D1*
X475330Y880567D1*
X471503Y881357D1*
X467774Y882529D1*
X464184Y884073D1*
X460768Y885972D1*
X457561Y888207D1*
X454598Y890755D1*
X451907Y893590D1*
X449517Y896682D1*
X447452Y900000D1*
X445733Y903510D1*
X444378Y907176D1*
X443401Y910961D1*
X442812Y914824D1*
X442617Y918728D1*
X442817Y922631D1*
X443412Y926494D1*
X444394Y930277D1*
X445754Y933941D1*
X447478Y937449D1*
X449548Y940764D1*
X451942Y943853D1*
X454637Y946684D1*
X457604Y949228D1*
X460814Y951458D1*
X464232Y953352D1*
X467825Y954891D1*
X471555Y956059D1*
X475384Y956843D1*
X479272Y957235D1*
X483181Y957233D1*
X487069Y956834D1*
X490896Y956045D1*
X494625Y954872D1*
X498215Y953329D1*
X501631Y951429D1*
X504837Y949195D1*
X507801Y946647D1*
X510492Y943812D1*
X512882Y940720D1*
X514947Y937401D1*
X516666Y933891D1*
X518021Y930225D1*
X518998Y926441D1*
X519587Y922577D1*
X519782Y918701D1*
X519581Y914771D1*
X2486316Y1265749D2*
X2486128Y1261813D1*
X2485816Y1257885D1*
X2485379Y1253969D1*
X2484819Y1250069D1*
X2484135Y1246188D1*
X2483328Y1242332D1*
X2482399Y1238502D1*
X2481349Y1234705D1*
X2480179Y1230942D1*
X2478891Y1227219D1*
X2477484Y1223538D1*
X2475962Y1219903D1*
X2474325Y1216319D1*
X2472576Y1212789D1*
X2470715Y1209315D1*
X2468745Y1205903D1*
X2466668Y1202555D1*
X2464485Y1199274D1*
X2462200Y1196064D1*
X2459814Y1192929D1*
X2457329Y1189871D1*
X2454749Y1186893D1*
X2452075Y1183998D1*
X2449312Y1181190D1*
X2446460Y1178471D1*
X2443523Y1175843D1*
X2440505Y1173311D1*
X2437408Y1170875D1*
X2434235Y1168538D1*
X2430990Y1166304D1*
X2427675Y1164174D1*
X2424294Y1162150D1*
X2420851Y1160234D1*
X2417349Y1158428D1*
X2413791Y1156735D1*
X2410182Y1155155D1*
X2406524Y1153690D1*
X2402821Y1152342D1*
X2399078Y1151113D1*
X2395297Y1150003D1*
X2391483Y1149013D1*
X2387640Y1148145D1*
X2383771Y1147399D1*
X2379880Y1146776D1*
X2375971Y1146277D1*
X2372049Y1145903D1*
X2368117Y1145653D1*
X2364178Y1145527D1*
X2360238D1*
X2356300Y1145652D1*
X2352367Y1145902D1*
X2348445Y1146277D1*
X2344536Y1146775D1*
X2340646Y1147398D1*
X2336777Y1148143D1*
X2332933Y1149011D1*
X2329119Y1150001D1*
X2325338Y1151111D1*
X2321595Y1152340D1*
X2317892Y1153688D1*
X2314234Y1155152D1*
X2310624Y1156732D1*
X2307067Y1158425D1*
X2303564Y1160231D1*
X2300121Y1162146D1*
X2296740Y1164170D1*
X2293426Y1166300D1*
X2290180Y1168535D1*
X2287007Y1170871D1*
X2283910Y1173306D1*
X2280891Y1175839D1*
X2277955Y1178466D1*
X2275103Y1181185D1*
X2272339Y1183993D1*
X2269665Y1186888D1*
X2267085Y1189865D1*
X2264600Y1192924D1*
X2262214Y1196059D1*
X2259928Y1199269D1*
X2257745Y1202549D1*
X2255668Y1205897D1*
X2253698Y1209309D1*
X2251837Y1212783D1*
X2250087Y1216313D1*
X2248450Y1219897D1*
X2246928Y1223531D1*
X2245521Y1227212D1*
X2244232Y1230936D1*
X2243062Y1234698D1*
X2242012Y1238496D1*
X2241083Y1242325D1*
X2240276Y1246182D1*
X2239592Y1250062D1*
X2239031Y1253962D1*
X2238594Y1257878D1*
X2238282Y1261806D1*
X2238094Y1265742D1*
X2238031Y1269682D1*
X2238094Y1273621D1*
X2238281Y1277557D1*
X2238593Y1281485D1*
X2239030Y1285401D1*
X2239591Y1289301D1*
X2240275Y1293182D1*
X2241082Y1297038D1*
X2242011Y1300868D1*
X2243060Y1304665D1*
X2244230Y1308428D1*
X2245519Y1312152D1*
X2246925Y1315832D1*
X2248447Y1319467D1*
X2250084Y1323051D1*
X2251834Y1326581D1*
X2253694Y1330055D1*
X2255664Y1333467D1*
X2257742Y1336815D1*
X2259924Y1340096D1*
X2262210Y1343306D1*
X2264596Y1346441D1*
X2267080Y1349499D1*
X2269661Y1352477D1*
X2272334Y1355372D1*
X2275098Y1358180D1*
X2277950Y1360899D1*
X2280886Y1363527D1*
X2283904Y1366059D1*
X2287001Y1368495D1*
X2290174Y1370832D1*
X2293420Y1373066D1*
X2296735Y1375196D1*
X2300115Y1377221D1*
X2303558Y1379136D1*
X2307060Y1380942D1*
X2310618Y1382636D1*
X2314228Y1384215D1*
X2317886Y1385680D1*
X2321588Y1387028D1*
X2325332Y1388257D1*
X2329113Y1389368D1*
X2332926Y1390357D1*
X2336770Y1391225D1*
X2340639Y1391971D1*
X2344530Y1392594D1*
X2348438Y1393093D1*
X2352361Y1393467D1*
X2356293Y1393717D1*
X2360231Y1393843D1*
X2364171D1*
X2368110Y1393718D1*
X2372042Y1393468D1*
X2375964Y1393094D1*
X2379873Y1392595D1*
X2383764Y1391972D1*
X2387633Y1391227D1*
X2391476Y1390359D1*
X2395290Y1389369D1*
X2399071Y1388259D1*
X2402815Y1387030D1*
X2406517Y1385682D1*
X2410175Y1384218D1*
X2413785Y1382638D1*
X2417343Y1380945D1*
X2420845Y1379140D1*
X2424288Y1377224D1*
X2427669Y1375200D1*
X2430984Y1373070D1*
X2434229Y1370836D1*
X2437403Y1368499D1*
X2440500Y1366064D1*
X2443518Y1363531D1*
X2446455Y1360904D1*
X2449307Y1358185D1*
X2452071Y1355377D1*
X2454744Y1352482D1*
X2457325Y1349505D1*
X2459809Y1346447D1*
X2462196Y1343311D1*
X2464481Y1340102D1*
X2466664Y1336821D1*
X2468742Y1333473D1*
X2470712Y1330061D1*
X2472573Y1326588D1*
X2474323Y1323057D1*
X2475960Y1319473D1*
X2477482Y1315839D1*
X2478888Y1312158D1*
X2480177Y1308434D1*
X2481347Y1304672D1*
X2482397Y1300874D1*
X2483326Y1297045D1*
X2484133Y1293188D1*
X2484818Y1289308D1*
X2485379Y1285408D1*
X2485815Y1281492D1*
X2486128Y1277564D1*
X2486315Y1273628D1*
X2486378Y1269685D1*
X2486316Y1265749D1*
X1955652Y1546030D2*
X1954738Y1542253D1*
X1953244Y1538666D1*
X1951207Y1535356D1*
X1948678Y1532406D1*
X1945718Y1529888D1*
X1942401Y1527864D1*
X1938808Y1526384D1*
X1935028Y1525484D1*
X1931154Y1525186D1*
X1927280Y1525499D1*
X1923504Y1526413D1*
X1919916Y1527907D1*
X1916607Y1529944D1*
X1913657Y1532473D1*
X1911139Y1535432D1*
X1909115Y1538750D1*
X1907635Y1542343D1*
X1906735Y1546123D1*
X1906437Y1549997D1*
X1906749Y1553871D1*
X1907664Y1557647D1*
X1909158Y1561235D1*
X1911194Y1564544D1*
X1913724Y1567494D1*
X1916683Y1570012D1*
X1920000Y1572036D1*
X1923593Y1573516D1*
X1927373Y1574416D1*
X1931248Y1574714D1*
X1935121Y1574402D1*
X1938898Y1573487D1*
X1942485Y1571993D1*
X1945795Y1569957D1*
X1948745Y1567427D1*
X1951263Y1564468D1*
X1953287Y1561151D1*
X1954767Y1557558D1*
X1955667Y1553777D1*
X1955965Y1549950D1*
X1955652Y1546030D1*
X1930816Y1430480D2*
X1929902Y1426703D1*
X1928408Y1423116D1*
X1926371Y1419806D1*
X1923842Y1416856D1*
X1920882Y1414338D1*
X1917565Y1412314D1*
X1913972Y1410834D1*
X1910192Y1409934D1*
X1906318Y1409637D1*
X1902444Y1409949D1*
X1898668Y1410863D1*
X1895080Y1412357D1*
X1891771Y1414394D1*
X1888821Y1416923D1*
X1886303Y1419883D1*
X1884279Y1423200D1*
X1882799Y1426793D1*
X1881899Y1430573D1*
X1881601Y1434447D1*
X1881913Y1438321D1*
X1882828Y1442097D1*
X1884322Y1445685D1*
X1886358Y1448994D1*
X1888888Y1451944D1*
X1891847Y1454462D1*
X1895164Y1456486D1*
X1898757Y1457967D1*
X1902537Y1458866D1*
X1906412Y1459164D1*
X1910285Y1458852D1*
X1914062Y1457937D1*
X1917649Y1456444D1*
X1920959Y1454407D1*
X1923909Y1451878D1*
X1926427Y1448918D1*
X1928451Y1445601D1*
X1929931Y1442008D1*
X1930831Y1438228D1*
X1931129Y1434400D1*
X1930816Y1430480D1*
X1905652Y1527280D2*
X1904738Y1523504D1*
X1903244Y1519916D1*
X1901207Y1516607D1*
X1898678Y1513657D1*
X1895718Y1511139D1*
X1892401Y1509115D1*
X1888808Y1507635D1*
X1885028Y1506735D1*
X1881154Y1506437D1*
X1877280Y1506749D1*
X1873504Y1507664D1*
X1869916Y1509158D1*
X1866607Y1511194D1*
X1863657Y1513724D1*
X1861139Y1516683D1*
X1859115Y1520000D1*
X1857635Y1523593D1*
X1856735Y1527373D1*
X1856437Y1531248D1*
X1856749Y1535121D1*
X1857664Y1538898D1*
X1859158Y1542485D1*
X1861194Y1545795D1*
X1863724Y1548745D1*
X1866683Y1551263D1*
X1870000Y1553287D1*
X1873593Y1554767D1*
X1877373Y1555667D1*
X1881248Y1555965D1*
X1885121Y1555652D1*
X1888898Y1554738D1*
X1892485Y1553244D1*
X1895795Y1551207D1*
X1898745Y1548678D1*
X1901263Y1545718D1*
X1903287Y1542401D1*
X1904767Y1538808D1*
X1905667Y1535028D1*
X1905965Y1531201D1*
X1905652Y1527280D1*
X1879635Y1430480D2*
X1878721Y1426703D1*
X1877227Y1423116D1*
X1875190Y1419806D1*
X1872661Y1416856D1*
X1869701Y1414338D1*
X1866384Y1412314D1*
X1862791Y1410834D1*
X1859011Y1409934D1*
X1855137Y1409637D1*
X1851263Y1409949D1*
X1847486Y1410863D1*
X1843899Y1412357D1*
X1840590Y1414394D1*
X1837640Y1416923D1*
X1835122Y1419883D1*
X1833098Y1423200D1*
X1831617Y1426793D1*
X1830718Y1430573D1*
X1830420Y1434447D1*
X1830732Y1438321D1*
X1831647Y1442097D1*
X1833140Y1445685D1*
X1835177Y1448994D1*
X1837706Y1451944D1*
X1840666Y1454462D1*
X1843983Y1456486D1*
X1847576Y1457967D1*
X1851356Y1458866D1*
X1855231Y1459164D1*
X1859104Y1458852D1*
X1862881Y1457937D1*
X1866468Y1456444D1*
X1869778Y1454407D1*
X1872728Y1451878D1*
X1875246Y1448918D1*
X1877270Y1445601D1*
X1878750Y1442008D1*
X1879650Y1438228D1*
X1879948Y1434400D1*
X1879635Y1430480D1*
X1852528Y1505405D2*
X1851613Y1501628D1*
X1850119Y1498041D1*
X1848083Y1494732D1*
X1845553Y1491782D1*
X1842594Y1489263D1*
X1839277Y1487239D1*
X1835684Y1485759D1*
X1831903Y1484859D1*
X1828029Y1484562D1*
X1824156Y1484874D1*
X1820379Y1485788D1*
X1816792Y1487282D1*
X1813482Y1489319D1*
X1810532Y1491848D1*
X1808014Y1494808D1*
X1805990Y1498125D1*
X1804510Y1501718D1*
X1803610Y1505498D1*
X1803312Y1509373D1*
X1803625Y1513246D1*
X1804539Y1517023D1*
X1806033Y1520610D1*
X1808070Y1523919D1*
X1810599Y1526869D1*
X1813558Y1529387D1*
X1816876Y1531412D1*
X1820469Y1532892D1*
X1824249Y1533792D1*
X1828123Y1534089D1*
X1831997Y1533777D1*
X1835773Y1532863D1*
X1839361Y1531369D1*
X1842670Y1529332D1*
X1845620Y1526803D1*
X1848138Y1523843D1*
X1850162Y1520526D1*
X1851642Y1516933D1*
X1852542Y1513153D1*
X1852840Y1509325D1*
X1852528Y1505405D1*
X1828454Y1430480D2*
X1827540Y1426703D1*
X1826046Y1423116D1*
X1824009Y1419806D1*
X1821480Y1416856D1*
X1818520Y1414338D1*
X1815203Y1412314D1*
X1811610Y1410834D1*
X1807830Y1409934D1*
X1803956Y1409637D1*
X1800082Y1409949D1*
X1796305Y1410863D1*
X1792718Y1412357D1*
X1789409Y1414394D1*
X1786459Y1416923D1*
X1783941Y1419883D1*
X1781917Y1423200D1*
X1780436Y1426793D1*
X1779536Y1430573D1*
X1779239Y1434447D1*
X1779551Y1438321D1*
X1780465Y1442097D1*
X1781959Y1445685D1*
X1783996Y1448994D1*
X1786525Y1451944D1*
X1789485Y1454462D1*
X1792802Y1456486D1*
X1796395Y1457967D1*
X1800175Y1458866D1*
X1804050Y1459164D1*
X1807923Y1458852D1*
X1811700Y1457937D1*
X1815287Y1456444D1*
X1818597Y1454407D1*
X1821547Y1451878D1*
X1824065Y1448918D1*
X1826089Y1445601D1*
X1827569Y1442008D1*
X1828469Y1438228D1*
X1828766Y1434400D1*
X1828454Y1430480D1*
X1802528Y1483531D2*
X1801613Y1479754D1*
X1800119Y1476167D1*
X1798083Y1472858D1*
X1795553Y1469908D1*
X1792594Y1467389D1*
X1789277Y1465365D1*
X1785684Y1463885D1*
X1781903Y1462985D1*
X1778029Y1462688D1*
X1774156Y1463000D1*
X1770379Y1463914D1*
X1766792Y1465408D1*
X1763482Y1467445D1*
X1760532Y1469974D1*
X1758014Y1472934D1*
X1755990Y1476251D1*
X1754510Y1479844D1*
X1753610Y1483624D1*
X1753312Y1487499D1*
X1753625Y1491372D1*
X1754539Y1495149D1*
X1756033Y1498736D1*
X1758070Y1502045D1*
X1760599Y1504995D1*
X1763558Y1507513D1*
X1766876Y1509537D1*
X1770469Y1511018D1*
X1774249Y1511918D1*
X1778123Y1512215D1*
X1781997Y1511903D1*
X1785773Y1510989D1*
X1789361Y1509495D1*
X1792670Y1507458D1*
X1795620Y1504929D1*
X1798138Y1501969D1*
X1800162Y1498652D1*
X1801642Y1495059D1*
X1802542Y1491279D1*
X1802840Y1487451D1*
X1802528Y1483531D1*
X1777273Y1430480D2*
X1776359Y1426703D1*
X1774865Y1423116D1*
X1772828Y1419806D1*
X1770299Y1416856D1*
X1767339Y1414338D1*
X1764022Y1412314D1*
X1760429Y1410834D1*
X1756649Y1409934D1*
X1752774Y1409637D1*
X1748901Y1409949D1*
X1745124Y1410863D1*
X1741537Y1412357D1*
X1738228Y1414394D1*
X1735278Y1416923D1*
X1732760Y1419883D1*
X1730735Y1423200D1*
X1729255Y1426793D1*
X1728355Y1430573D1*
X1728058Y1434447D1*
X1728370Y1438321D1*
X1729284Y1442097D1*
X1730778Y1445685D1*
X1732815Y1448994D1*
X1735344Y1451944D1*
X1738304Y1454462D1*
X1741621Y1456486D1*
X1745214Y1457967D1*
X1748994Y1458866D1*
X1752869Y1459164D1*
X1756742Y1458852D1*
X1760519Y1457937D1*
X1764106Y1456444D1*
X1767415Y1454407D1*
X1770365Y1451878D1*
X1772884Y1448918D1*
X1774908Y1445601D1*
X1776388Y1442008D1*
X1777288Y1438228D1*
X1777585Y1434400D1*
X1777273Y1430480D1*
X974403Y1455405D2*
X973489Y1451628D1*
X971995Y1448041D1*
X969958Y1444732D1*
X967429Y1441782D1*
X964469Y1439263D1*
X961152Y1437239D1*
X957559Y1435759D1*
X953779Y1434859D1*
X949904Y1434562D1*
X946031Y1434874D1*
X942254Y1435788D1*
X940674Y1436446D1*
X938808Y1435759D1*
X935028Y1434859D1*
X931154Y1434562D1*
X927280Y1434874D1*
X923504Y1435788D1*
X921924Y1436446D1*
X920059Y1435759D1*
X916279Y1434859D1*
X912404Y1434562D1*
X908531Y1434874D1*
X904754Y1435788D1*
X901167Y1437282D1*
X897858Y1439319D1*
X894908Y1441848D1*
X892389Y1444808D1*
X890365Y1448125D1*
X888885Y1451718D1*
X887985Y1455498D1*
X887688Y1459373D1*
X888000Y1463246D1*
X888914Y1467023D1*
X890408Y1470610D1*
X892445Y1473919D1*
X894974Y1476869D1*
X897934Y1479387D1*
X901251Y1481412D1*
X904844Y1482892D1*
X908624Y1483792D1*
X912499Y1484089D1*
X916372Y1483777D1*
X920149Y1482863D1*
X921729Y1482205D1*
X923593Y1482892D1*
X927373Y1483792D1*
X931248Y1484089D1*
X935121Y1483777D1*
X938898Y1482863D1*
X940478Y1482205D1*
X942344Y1482892D1*
X946124Y1483792D1*
X949999Y1484089D1*
X953872Y1483777D1*
X957649Y1482863D1*
X961236Y1481369D1*
X964545Y1479332D1*
X967495Y1476803D1*
X970013Y1473843D1*
X972037Y1470526D1*
X973518Y1466933D1*
X974418Y1463153D1*
X974715Y1459325D1*
X974403Y1455405D1*
X1593152Y1452280D2*
X1592238Y1448504D1*
X1590744Y1444916D1*
X1588707Y1441607D1*
X1586178Y1438657D1*
X1583218Y1436139D1*
X1579901Y1434115D1*
X1576308Y1432635D1*
X1572528Y1431735D1*
X1568654Y1431437D1*
X1564780Y1431749D1*
X1561004Y1432664D1*
X1559424Y1433322D1*
X1557558Y1432635D1*
X1553777Y1431735D1*
X1549903Y1431437D1*
X1546030Y1431749D1*
X1542253Y1432664D1*
X1540673Y1433322D1*
X1538808Y1432635D1*
X1535028Y1431735D1*
X1531154Y1431437D1*
X1527280Y1431749D1*
X1523504Y1432664D1*
X1519916Y1434158D1*
X1516607Y1436194D1*
X1513657Y1438724D1*
X1511139Y1441683D1*
X1509115Y1445000D1*
X1507635Y1448593D1*
X1506735Y1452373D1*
X1506437Y1456248D1*
X1506749Y1460121D1*
X1507664Y1463898D1*
X1509158Y1467485D1*
X1511194Y1470795D1*
X1513724Y1473745D1*
X1516683Y1476263D1*
X1520000Y1478287D1*
X1523593Y1479767D1*
X1527373Y1480667D1*
X1531248Y1480965D1*
X1535121Y1480652D1*
X1538898Y1479738D1*
X1540478Y1479080D1*
X1542343Y1479767D1*
X1546123Y1480667D1*
X1549997Y1480965D1*
X1553871Y1480652D1*
X1557647Y1479738D1*
X1559227Y1479080D1*
X1561093Y1479767D1*
X1564873Y1480667D1*
X1568748Y1480965D1*
X1572621Y1480652D1*
X1576398Y1479738D1*
X1579985Y1478244D1*
X1583295Y1476207D1*
X1586245Y1473678D1*
X1588763Y1470718D1*
X1590787Y1467401D1*
X1592267Y1463808D1*
X1593167Y1460028D1*
X1593465Y1456201D1*
X1593152Y1452280D1*
X1107015Y1500867D2*
X1104754Y1501414D1*
X1101167Y1502908D1*
X1097858Y1504945D1*
X1094908Y1507474D1*
X1092389Y1510434D1*
X1090365Y1513751D1*
X1088885Y1517344D1*
X1087985Y1521124D1*
X1087688Y1524999D1*
X1088000Y1528872D1*
X1088914Y1532649D1*
X1090408Y1536236D1*
X1092445Y1539545D1*
X1094974Y1542495D1*
X1097934Y1545013D1*
X1101251Y1547037D1*
X1104844Y1548518D1*
X1108624Y1549418D1*
X1112499Y1549715D1*
X1116372Y1549403D1*
X1120149Y1548489D1*
X1123736Y1546995D1*
X1127045Y1544958D1*
X1129995Y1542429D1*
X1132513Y1539469D1*
X1134537Y1536152D1*
X1136018Y1532559D1*
X1136535Y1530385D1*
X1138898Y1529738D1*
X1142485Y1528244D1*
X1145795Y1526207D1*
X1148745Y1523678D1*
X1151263Y1520718D1*
X1153287Y1517401D1*
X1154767Y1513808D1*
X1155667Y1510028D1*
X1155965Y1506201D1*
X1155652Y1502280D1*
X1154738Y1498504D1*
X1153244Y1494916D1*
X1151207Y1491607D1*
X1148678Y1488657D1*
X1145718Y1486139D1*
X1142401Y1484115D1*
X1138808Y1482635D1*
X1135028Y1481735D1*
X1131154Y1481437D1*
X1127280Y1481749D1*
X1123504Y1482664D1*
X1119916Y1484158D1*
X1116607Y1486194D1*
X1113657Y1488724D1*
X1111139Y1491683D1*
X1109115Y1495000D1*
X1107635Y1498593D1*
X1107117Y1500768D1*
X2146726Y1689572D2*
X2145059Y1688885D1*
X2141279Y1687985D1*
X2137404Y1687688D1*
X2133531Y1688000D1*
X2129754Y1688914D1*
X2128174Y1689572D1*
X2126308Y1688885D1*
X2122528Y1687985D1*
X2118654Y1687688D1*
X2114780Y1688000D1*
X2111004Y1688914D1*
X2107416Y1690408D1*
X2104107Y1692445D1*
X2101157Y1694974D1*
X2098639Y1697934D1*
X2096615Y1701251D1*
X2095135Y1704844D1*
X2094235Y1708624D1*
X2093937Y1712499D1*
X2094249Y1716372D1*
X2095164Y1720149D1*
X2096658Y1723736D1*
X2098694Y1727045D1*
X2101224Y1729995D1*
X2104183Y1732513D1*
X2107500Y1734537D1*
X2111093Y1736018D1*
X2114873Y1736918D1*
X2118748Y1737215D1*
X2122621Y1736903D1*
X2126398Y1735989D1*
X2127978Y1735331D1*
X2129844Y1736018D1*
X2133624Y1736918D1*
X2137499Y1737215D1*
X2141372Y1736903D1*
X2145149Y1735989D1*
X2146729Y1735331D1*
X2148593Y1736018D1*
X2152373Y1736918D1*
X2156248Y1737215D1*
X2160121Y1736903D1*
X2163898Y1735989D1*
X2167485Y1734495D1*
X2170795Y1732458D1*
X2173745Y1729929D1*
X2176263Y1726969D1*
X2178287Y1723652D1*
X2179767Y1720059D1*
X2180667Y1716279D1*
X2180965Y1712451D1*
X2180652Y1708531D1*
X2179738Y1704754D1*
X2178244Y1701167D1*
X2176207Y1697858D1*
X2173678Y1694908D1*
X2170718Y1692389D1*
X2167401Y1690365D1*
X2163808Y1688885D1*
X2160028Y1687985D1*
X2156154Y1687688D1*
X2152280Y1688000D1*
X2148504Y1688914D1*
X2146924Y1689572D1*
X2146726D1*
X2871277Y1280405D2*
X2870363Y1276628D1*
X2868869Y1273041D1*
X2866832Y1269732D1*
X2864303Y1266782D1*
X2861343Y1264263D1*
X2858026Y1262239D1*
X2854433Y1260759D1*
X2850653Y1259859D1*
X2846778Y1259562D1*
X2842905Y1259874D1*
X2839128Y1260788D1*
X2835541Y1262282D1*
X2832232Y1264319D1*
X2829282Y1266848D1*
X2826763Y1269808D1*
X2824739Y1273125D1*
X2823259Y1276718D1*
X2822359Y1280498D1*
X2822062Y1284373D1*
X2822374Y1288246D1*
X2823288Y1292023D1*
X2824782Y1295610D1*
X2826819Y1298919D1*
X2829348Y1301869D1*
X2832308Y1304387D1*
X2835625Y1306412D1*
X2839218Y1307892D1*
X2840676Y1308239D1*
X2838666Y1309158D1*
X2835356Y1311194D1*
X2832406Y1313724D1*
X2829888Y1316683D1*
X2827864Y1320000D1*
X2826384Y1323593D1*
X2825484Y1327373D1*
X2825186Y1331248D1*
X2825499Y1335121D1*
X2826413Y1338898D1*
X2827907Y1342485D1*
X2829944Y1345795D1*
X2832473Y1348745D1*
X2835432Y1351263D1*
X2838750Y1353287D1*
X2842343Y1354767D1*
X2846123Y1355667D1*
X2849997Y1355965D1*
X2853871Y1355652D1*
X2857647Y1354738D1*
X2861235Y1353244D1*
X2862382Y1352538D1*
X2863750Y1353287D1*
X2867343Y1354767D1*
X2871123Y1355667D1*
X2874997Y1355965D1*
X2878871Y1355652D1*
X2882647Y1354738D1*
X2886235Y1353244D1*
X2887382Y1352538D1*
X2888750Y1353287D1*
X2892343Y1354767D1*
X2896123Y1355667D1*
X2899997Y1355965D1*
X2903871Y1355652D1*
X2907647Y1354738D1*
X2911235Y1353244D1*
X2914544Y1351207D1*
X2917494Y1348678D1*
X2920012Y1345718D1*
X2922036Y1342401D1*
X2923516Y1338808D1*
X2924416Y1335028D1*
X2924714Y1331201D1*
X2924402Y1327280D1*
X2923487Y1323504D1*
X2921993Y1319916D1*
X2919957Y1316607D1*
X2917427Y1313657D1*
X2914468Y1311139D1*
X2911151Y1309115D1*
X2907558Y1307635D1*
X2903777Y1306735D1*
X2899903Y1306437D1*
X2896030Y1306749D1*
X2892253Y1307664D1*
X2888666Y1309158D1*
X2887518Y1309864D1*
X2886151Y1309115D1*
X2882558Y1307635D1*
X2878777Y1306735D1*
X2874903Y1306437D1*
X2871030Y1306749D1*
X2867253Y1307664D1*
X2863666Y1309158D1*
X2862518Y1309864D1*
X2861151Y1309115D1*
X2857558Y1307635D1*
X2856100Y1307287D1*
X2858110Y1306369D1*
X2861419Y1304332D1*
X2864369Y1301803D1*
X2866887Y1298843D1*
X2868912Y1295526D1*
X2870392Y1291933D1*
X2871292Y1288153D1*
X2871589Y1284325D1*
X2871277Y1280405D1*
X2221055Y2314934D2*
X2219916Y2315408D1*
X2216607Y2317445D1*
X2213657Y2319974D1*
X2211139Y2322934D1*
X2209115Y2326251D1*
X2207635Y2329844D1*
X2206735Y2333624D1*
X2206437Y2337499D1*
X2206749Y2341372D1*
X2207664Y2345149D1*
X2209158Y2348736D1*
X2211194Y2352045D1*
X2213724Y2354995D1*
X2216683Y2357513D1*
X2220000Y2359537D1*
X2223593Y2361018D1*
X2227373Y2361918D1*
X2231248Y2362215D1*
X2235121Y2361903D1*
X2238898Y2360989D1*
X2242485Y2359495D1*
X2245795Y2357458D1*
X2248745Y2354929D1*
X2251263Y2351969D1*
X2253287Y2348652D1*
X2253722Y2347596D1*
X2254985Y2346993D1*
X2258295Y2344957D1*
X2261245Y2342427D1*
X2263763Y2339468D1*
X2265787Y2336151D1*
X2266222Y2335095D1*
X2267485Y2334495D1*
X2270795Y2332458D1*
X2273745Y2329929D1*
X2276263Y2326969D1*
X2278287Y2323652D1*
X2279767Y2320059D1*
X2280667Y2316279D1*
X2280965Y2312451D1*
X2280652Y2308531D1*
X2279738Y2304754D1*
X2278244Y2301167D1*
X2276207Y2297858D1*
X2273678Y2294908D1*
X2270718Y2292389D1*
X2267401Y2290365D1*
X2263808Y2288885D1*
X2260028Y2287985D1*
X2256154Y2287688D1*
X2252280Y2288000D1*
X2248504Y2288914D1*
X2244916Y2290408D1*
X2241607Y2292445D1*
X2238657Y2294974D1*
X2236139Y2297934D1*
X2234115Y2301251D1*
X2233680Y2302307D1*
X2232416Y2302907D1*
X2229107Y2304944D1*
X2226157Y2307473D1*
X2223639Y2310432D1*
X2221615Y2313750D1*
X2221180Y2314806D1*
X2221055Y2314934D1*
X2268152Y1911656D2*
X2267238Y1907879D1*
X2265744Y1904292D1*
X2263707Y1900982D1*
X2261178Y1898032D1*
X2258218Y1895514D1*
X2254901Y1893490D1*
X2251308Y1892010D1*
X2247528Y1891110D1*
X2243654Y1890812D1*
X2239780Y1891125D1*
X2236004Y1892039D1*
X2232416Y1893533D1*
X2229107Y1895570D1*
X2226157Y1898099D1*
X2223639Y1901058D1*
X2221615Y1904376D1*
X2220135Y1907969D1*
X2219235Y1911749D1*
X2218937Y1915623D1*
X2219249Y1919497D1*
X2220164Y1923273D1*
X2221658Y1926861D1*
X2223694Y1930170D1*
X2226224Y1933120D1*
X2229183Y1935638D1*
X2232500Y1937662D1*
X2236093Y1939142D1*
X2239873Y1940042D1*
X2243748Y1940340D1*
X2247621Y1940028D1*
X2251398Y1939113D1*
X2254985Y1937619D1*
X2258295Y1935583D1*
X2261245Y1933053D1*
X2263763Y1930094D1*
X2265787Y1926777D1*
X2267267Y1923184D1*
X2268167Y1919403D1*
X2268465Y1915576D1*
X2268152Y1911656D1*
X2902975Y2202072D2*
X2901308Y2201385D1*
X2897528Y2200485D1*
X2893654Y2200188D1*
X2889780Y2200500D1*
X2886004Y2201414D1*
X2882416Y2202908D1*
X2879107Y2204945D1*
X2876157Y2207474D1*
X2873639Y2210434D1*
X2871615Y2213751D1*
X2870135Y2217344D1*
X2869235Y2221124D1*
X2868937Y2224999D1*
X2869249Y2228872D1*
X2870164Y2232649D1*
X2871658Y2236236D1*
X2873694Y2239545D1*
X2876224Y2242495D1*
X2879183Y2245013D1*
X2882500Y2247037D1*
X2886093Y2248518D1*
X2889873Y2249418D1*
X2893748Y2249715D1*
X2897621Y2249403D1*
X2901398Y2248489D1*
X2902978Y2247831D1*
X2904844Y2248518D1*
X2908624Y2249418D1*
X2912499Y2249715D1*
X2916372Y2249403D1*
X2920149Y2248489D1*
X2921729Y2247831D1*
X2923593Y2248518D1*
X2927373Y2249418D1*
X2931248Y2249715D1*
X2935121Y2249403D1*
X2938898Y2248489D1*
X2942485Y2246995D1*
X2945795Y2244958D1*
X2948745Y2242429D1*
X2951263Y2239469D1*
X2953287Y2236152D1*
X2954767Y2232559D1*
X2955667Y2228779D1*
X2955965Y2224951D1*
X2955652Y2221031D1*
X2954738Y2217254D1*
X2953244Y2213667D1*
X2951207Y2210358D1*
X2948678Y2207408D1*
X2945718Y2204889D1*
X2942401Y2202865D1*
X2938808Y2201385D1*
X2935028Y2200485D1*
X2931154Y2200188D1*
X2927280Y2200500D1*
X2923504Y2201414D1*
X2921924Y2202072D1*
X2920059Y2201385D1*
X2916279Y2200485D1*
X2912404Y2200188D1*
X2908531Y2200500D1*
X2904754Y2201414D1*
X2903174Y2202072D1*
X2902975D1*
X2330652Y1886656D2*
X2329738Y1882879D1*
X2328244Y1879292D1*
X2326207Y1875982D1*
X2323678Y1873032D1*
X2320718Y1870514D1*
X2317401Y1868490D1*
X2313808Y1867010D1*
X2310028Y1866110D1*
X2306154Y1865812D1*
X2302280Y1866125D1*
X2298504Y1867039D1*
X2294916Y1868533D1*
X2291607Y1870570D1*
X2288657Y1873099D1*
X2286139Y1876058D1*
X2284115Y1879376D1*
X2282635Y1882969D1*
X2281735Y1886749D1*
X2281437Y1890623D1*
X2281749Y1894497D1*
X2282664Y1898273D1*
X2284158Y1901861D1*
X2286194Y1905170D1*
X2288724Y1908120D1*
X2291683Y1910638D1*
X2295000Y1912662D1*
X2298593Y1914142D1*
X2302373Y1915042D1*
X2306248Y1915340D1*
X2310121Y1915028D1*
X2313898Y1914113D1*
X2317485Y1912619D1*
X2320795Y1910583D1*
X2323745Y1908053D1*
X2326263Y1905094D1*
X2328287Y1901777D1*
X2329767Y1898184D1*
X2330667Y1894403D1*
X2330965Y1890576D1*
X2330652Y1886656D1*
X2268152Y1861656D2*
X2267238Y1857879D1*
X2265744Y1854292D1*
X2263707Y1850982D1*
X2261178Y1848032D1*
X2258218Y1845514D1*
X2254901Y1843490D1*
X2251308Y1842010D1*
X2247528Y1841110D1*
X2243654Y1840812D1*
X2239780Y1841125D1*
X2236004Y1842039D1*
X2232416Y1843533D1*
X2229107Y1845570D1*
X2226157Y1848099D1*
X2223639Y1851058D1*
X2221615Y1854376D1*
X2220135Y1857969D1*
X2219235Y1861749D1*
X2218937Y1865623D1*
X2219249Y1869497D1*
X2220164Y1873273D1*
X2221658Y1876861D1*
X2223694Y1880170D1*
X2226224Y1883120D1*
X2229183Y1885638D1*
X2232500Y1887662D1*
X2236093Y1889142D1*
X2239873Y1890042D1*
X2243748Y1890340D1*
X2247621Y1890028D1*
X2251398Y1889113D1*
X2254985Y1887619D1*
X2258295Y1885583D1*
X2261245Y1883053D1*
X2263763Y1880094D1*
X2265787Y1876777D1*
X2267267Y1873184D1*
X2268167Y1869403D1*
X2268465Y1865576D1*
X2268152Y1861656D1*
X2330652Y1836656D2*
X2329738Y1832879D1*
X2328244Y1829292D1*
X2326207Y1825982D1*
X2323678Y1823032D1*
X2320718Y1820514D1*
X2317401Y1818490D1*
X2313808Y1817010D1*
X2310028Y1816110D1*
X2306154Y1815812D1*
X2302280Y1816125D1*
X2298504Y1817039D1*
X2294916Y1818533D1*
X2291607Y1820570D1*
X2288657Y1823099D1*
X2286139Y1826058D1*
X2284115Y1829376D1*
X2282635Y1832969D1*
X2281735Y1836749D1*
X2281437Y1840623D1*
X2281749Y1844497D1*
X2282664Y1848273D1*
X2284158Y1851861D1*
X2286194Y1855170D1*
X2288724Y1858120D1*
X2291683Y1860638D1*
X2295000Y1862662D1*
X2298593Y1864142D1*
X2302373Y1865042D1*
X2306248Y1865340D1*
X2310121Y1865028D1*
X2313898Y1864113D1*
X2317485Y1862619D1*
X2320795Y1860583D1*
X2323745Y1858053D1*
X2326263Y1855094D1*
X2328287Y1851777D1*
X2329767Y1848184D1*
X2330667Y1844403D1*
X2330965Y1840576D1*
X2330652Y1836656D1*
X2268152Y1811656D2*
X2267238Y1807879D1*
X2265744Y1804292D1*
X2263707Y1800982D1*
X2261178Y1798032D1*
X2258218Y1795514D1*
X2254901Y1793490D1*
X2251308Y1792010D1*
X2247528Y1791110D1*
X2243654Y1790812D1*
X2239780Y1791125D1*
X2236004Y1792039D1*
X2232416Y1793533D1*
X2229107Y1795570D1*
X2226157Y1798099D1*
X2223639Y1801058D1*
X2221615Y1804376D1*
X2220135Y1807969D1*
X2219235Y1811749D1*
X2218937Y1815623D1*
X2219249Y1819497D1*
X2220164Y1823273D1*
X2221658Y1826861D1*
X2223694Y1830170D1*
X2226224Y1833120D1*
X2229183Y1835638D1*
X2232500Y1837662D1*
X2236093Y1839142D1*
X2239873Y1840042D1*
X2243748Y1840340D1*
X2247621Y1840028D1*
X2251398Y1839113D1*
X2254985Y1837619D1*
X2258295Y1835583D1*
X2261245Y1833053D1*
X2263763Y1830094D1*
X2265787Y1826777D1*
X2267267Y1823184D1*
X2268167Y1819403D1*
X2268465Y1815576D1*
X2268152Y1811656D1*
X2330652Y1786656D2*
X2329738Y1782879D1*
X2328244Y1779292D1*
X2326207Y1775982D1*
X2323678Y1773032D1*
X2320718Y1770514D1*
X2317401Y1768490D1*
X2313808Y1767010D1*
X2310028Y1766110D1*
X2306154Y1765812D1*
X2302280Y1766125D1*
X2298504Y1767039D1*
X2294916Y1768533D1*
X2291607Y1770570D1*
X2288657Y1773099D1*
X2286139Y1776058D1*
X2284115Y1779376D1*
X2282635Y1782969D1*
X2281735Y1786749D1*
X2281437Y1790623D1*
X2281749Y1794497D1*
X2282664Y1798273D1*
X2284158Y1801861D1*
X2286194Y1805170D1*
X2288724Y1808120D1*
X2291683Y1810638D1*
X2295000Y1812662D1*
X2298593Y1814142D1*
X2302373Y1815042D1*
X2306248Y1815340D1*
X2310121Y1815028D1*
X2313898Y1814113D1*
X2317485Y1812619D1*
X2320795Y1810583D1*
X2323745Y1808053D1*
X2326263Y1805094D1*
X2328287Y1801777D1*
X2329767Y1798184D1*
X2330667Y1794403D1*
X2330965Y1790576D1*
X2330652Y1786656D1*
X2268152Y1761656D2*
X2267238Y1757879D1*
X2265744Y1754292D1*
X2263707Y1750982D1*
X2261178Y1748032D1*
X2258218Y1745514D1*
X2254901Y1743490D1*
X2251308Y1742010D1*
X2247528Y1741110D1*
X2243654Y1740812D1*
X2239780Y1741125D1*
X2236004Y1742039D1*
X2232416Y1743533D1*
X2229107Y1745570D1*
X2226157Y1748099D1*
X2223639Y1751058D1*
X2221615Y1754376D1*
X2220135Y1757969D1*
X2219235Y1761749D1*
X2218937Y1765623D1*
X2219249Y1769497D1*
X2220164Y1773273D1*
X2221658Y1776861D1*
X2223694Y1780170D1*
X2226224Y1783120D1*
X2229183Y1785638D1*
X2232500Y1787662D1*
X2236093Y1789142D1*
X2239873Y1790042D1*
X2243748Y1790340D1*
X2247621Y1790028D1*
X2251398Y1789113D1*
X2254985Y1787619D1*
X2258295Y1785583D1*
X2261245Y1783053D1*
X2263763Y1780094D1*
X2265787Y1776777D1*
X2267267Y1773184D1*
X2268167Y1769403D1*
X2268465Y1765576D1*
X2268152Y1761656D1*
X2602305Y1461808D2*
X2601167Y1462282D1*
X2597858Y1464319D1*
X2594908Y1466848D1*
X2592389Y1469808D1*
X2590365Y1473125D1*
X2588885Y1476718D1*
X2587985Y1480498D1*
X2587688Y1484373D1*
X2588000Y1488246D1*
X2588914Y1492023D1*
X2590408Y1495610D1*
X2592445Y1498919D1*
X2594974Y1501869D1*
X2597934Y1504387D1*
X2601251Y1506412D1*
X2604844Y1507892D1*
X2608624Y1508792D1*
X2612499Y1509089D1*
X2616372Y1508777D1*
X2620149Y1507863D1*
X2623736Y1506369D1*
X2627045Y1504332D1*
X2629995Y1501803D1*
X2632513Y1498843D1*
X2634537Y1495526D1*
X2634973Y1494470D1*
X2636235Y1493869D1*
X2639544Y1491832D1*
X2642494Y1489303D1*
X2645012Y1486343D1*
X2647036Y1483026D1*
X2647471Y1481970D1*
X2648736Y1481369D1*
X2652045Y1479332D1*
X2654995Y1476803D1*
X2657513Y1473843D1*
X2659537Y1470526D1*
X2661018Y1466933D1*
X2661918Y1463153D1*
X2662215Y1459325D1*
X2661903Y1455405D1*
X2660989Y1451628D1*
X2659495Y1448041D1*
X2657458Y1444732D1*
X2654929Y1441782D1*
X2651969Y1439263D1*
X2648652Y1437239D1*
X2645059Y1435759D1*
X2641279Y1434859D1*
X2637404Y1434562D1*
X2633531Y1434874D1*
X2629754Y1435788D1*
X2626167Y1437282D1*
X2622858Y1439319D1*
X2619908Y1441848D1*
X2617389Y1444808D1*
X2615365Y1448125D1*
X2614930Y1449181D1*
X2613666Y1449782D1*
X2610356Y1451819D1*
X2607406Y1454348D1*
X2604888Y1457308D1*
X2602864Y1460625D1*
X2602429Y1461681D1*
X2602305Y1461808D1*
X2330652Y1736656D2*
X2329738Y1732879D1*
X2328244Y1729292D1*
X2326207Y1725982D1*
X2323678Y1723032D1*
X2320718Y1720514D1*
X2317401Y1718490D1*
X2313808Y1717010D1*
X2310028Y1716110D1*
X2306154Y1715812D1*
X2302280Y1716125D1*
X2298504Y1717039D1*
X2294916Y1718533D1*
X2291607Y1720570D1*
X2288657Y1723099D1*
X2286139Y1726058D1*
X2284115Y1729376D1*
X2282635Y1732969D1*
X2281735Y1736749D1*
X2281437Y1740623D1*
X2281749Y1744497D1*
X2282664Y1748273D1*
X2284158Y1751861D1*
X2286194Y1755170D1*
X2288724Y1758120D1*
X2291683Y1760638D1*
X2295000Y1762662D1*
X2298593Y1764142D1*
X2302373Y1765042D1*
X2306248Y1765340D1*
X2310121Y1765028D1*
X2313898Y1764113D1*
X2317485Y1762619D1*
X2320795Y1760583D1*
X2323745Y1758053D1*
X2326263Y1755094D1*
X2328287Y1751777D1*
X2329767Y1748184D1*
X2330667Y1744403D1*
X2330965Y1740576D1*
X2330652Y1736656D1*
X1977433Y1850722D2*
X1977907Y1851861D1*
X1979944Y1855170D1*
X1982473Y1858120D1*
X1985432Y1860638D1*
X1988750Y1862662D1*
X1992343Y1864142D1*
X1996123Y1865042D1*
X1999997Y1865340D1*
X2003871Y1865028D1*
X2007647Y1864113D1*
X2009227Y1863455D1*
X2011093Y1864142D1*
X2014873Y1865042D1*
X2018748Y1865340D1*
X2022621Y1865028D1*
X2026398Y1864113D1*
X2029985Y1862619D1*
X2033295Y1860583D1*
X2036245Y1858053D1*
X2038763Y1855094D1*
X2040787Y1851777D1*
X2042267Y1848184D1*
X2043167Y1844403D1*
X2043465Y1840576D1*
X2043152Y1836656D1*
X2042238Y1832879D1*
X2040744Y1829292D1*
X2038707Y1825982D1*
X2036178Y1823032D1*
X2033218Y1820514D1*
X2029901Y1818490D1*
X2026308Y1817010D1*
X2022528Y1816110D1*
X2018654Y1815812D1*
X2014780Y1816125D1*
X2011004Y1817039D1*
X2009851Y1817519D1*
X2009495Y1816792D1*
X2007458Y1813482D1*
X2004929Y1810532D1*
X2001969Y1808014D1*
X1998652Y1805990D1*
X1995059Y1804510D1*
X1991279Y1803610D1*
X1987404Y1803312D1*
X1983531Y1803625D1*
X1979754Y1804539D1*
X1976167Y1806033D1*
X1972858Y1808070D1*
X1969908Y1810599D1*
X1967389Y1813558D1*
X1965365Y1816876D1*
X1963885Y1820469D1*
X1962985Y1824249D1*
X1962688Y1828123D1*
X1963000Y1831997D1*
X1963914Y1835773D1*
X1965408Y1839361D1*
X1967445Y1842670D1*
X1969974Y1845620D1*
X1972934Y1848138D1*
X1976251Y1850162D1*
X1977307Y1850597D1*
X1977433Y1850722D1*
X3543152Y1314780D2*
X3542238Y1311004D1*
X3540744Y1307416D1*
X3538707Y1304107D1*
X3536178Y1301157D1*
X3533218Y1298639D1*
X3529901Y1296615D1*
X3526308Y1295135D1*
X3522528Y1294235D1*
X3518654Y1293937D1*
X3514780Y1294249D1*
X3511004Y1295164D1*
X3507416Y1296658D1*
X3506269Y1297364D1*
X3504901Y1296615D1*
X3501308Y1295135D1*
X3497528Y1294235D1*
X3493654Y1293937D1*
X3489780Y1294249D1*
X3486004Y1295164D1*
X3482416Y1296658D1*
X3481269Y1297364D1*
X3479901Y1296615D1*
X3476308Y1295135D1*
X3472528Y1294235D1*
X3468654Y1293937D1*
X3464780Y1294249D1*
X3461004Y1295164D1*
X3457416Y1296658D1*
X3454107Y1298694D1*
X3451157Y1301224D1*
X3448639Y1304183D1*
X3446615Y1307500D1*
X3445135Y1311093D1*
X3444235Y1314873D1*
X3443937Y1318748D1*
X3444249Y1322621D1*
X3445164Y1326398D1*
X3446658Y1329985D1*
X3448694Y1333295D1*
X3451224Y1336245D1*
X3454183Y1338763D1*
X3457500Y1340787D1*
X3461093Y1342267D1*
X3464873Y1343167D1*
X3468748Y1343465D1*
X3472621Y1343152D1*
X3476398Y1342238D1*
X3479985Y1340744D1*
X3481133Y1340038D1*
X3482500Y1340787D1*
X3486093Y1342267D1*
X3489873Y1343167D1*
X3493748Y1343465D1*
X3497621Y1343152D1*
X3501398Y1342238D1*
X3504985Y1340744D1*
X3506133Y1340038D1*
X3507500Y1340787D1*
X3511093Y1342267D1*
X3514873Y1343167D1*
X3518748Y1343465D1*
X3522621Y1343152D1*
X3526398Y1342238D1*
X3529985Y1340744D1*
X3533295Y1338707D1*
X3536245Y1336178D1*
X3538763Y1333218D1*
X3540787Y1329901D1*
X3542267Y1326308D1*
X3543167Y1322528D1*
X3543465Y1318701D1*
X3543152Y1314780D1*
X2083555Y2177433D2*
X2082416Y2177907D1*
X2079107Y2179944D1*
X2076157Y2182473D1*
X2073639Y2185432D1*
X2071615Y2188750D1*
X2070135Y2192343D1*
X2069235Y2196123D1*
X2068937Y2199997D1*
X2069249Y2203871D1*
X2070164Y2207647D1*
X2071658Y2211235D1*
X2073694Y2214544D1*
X2076224Y2217494D1*
X2079183Y2220012D1*
X2082500Y2222036D1*
X2086093Y2223516D1*
X2089873Y2224416D1*
X2093748Y2224714D1*
X2097621Y2224402D1*
X2101398Y2223487D1*
X2104985Y2221993D1*
X2108295Y2219957D1*
X2111245Y2217427D1*
X2113763Y2214468D1*
X2115787Y2211151D1*
X2116222Y2210095D1*
X2117485Y2209492D1*
X2120795Y2207455D1*
X2123745Y2204926D1*
X2126263Y2201966D1*
X2128287Y2198649D1*
X2128722Y2197593D1*
X2129985Y2196993D1*
X2133295Y2194957D1*
X2136245Y2192427D1*
X2138763Y2189468D1*
X2140787Y2186151D1*
X2142267Y2182558D1*
X2143167Y2178777D1*
X2143465Y2174950D1*
X2143152Y2171030D1*
X2142238Y2167253D1*
X2140744Y2163666D1*
X2138707Y2160356D1*
X2136178Y2157406D1*
X2133218Y2154888D1*
X2129901Y2152864D1*
X2126308Y2151384D1*
X2122528Y2150484D1*
X2118654Y2150186D1*
X2114780Y2150499D1*
X2111004Y2151413D1*
X2107416Y2152907D1*
X2104107Y2154944D1*
X2101157Y2157473D1*
X2098639Y2160432D1*
X2096615Y2163750D1*
X2096180Y2164806D1*
X2094916Y2165406D1*
X2091607Y2167442D1*
X2088657Y2169972D1*
X2086139Y2172931D1*
X2084115Y2176248D1*
X2083680Y2177304D1*
X2083555Y2177433D1*
X1984224Y2080196D2*
X1982558Y2079510D1*
X1978777Y2078610D1*
X1974903Y2078312D1*
X1971030Y2078625D1*
X1967253Y2079539D1*
X1963666Y2081033D1*
X1960356Y2083070D1*
X1957406Y2085599D1*
X1954888Y2088558D1*
X1952864Y2091876D1*
X1951384Y2095469D1*
X1950484Y2099249D1*
X1950186Y2103123D1*
X1950499Y2106997D1*
X1951413Y2110773D1*
X1952907Y2114361D1*
X1954944Y2117670D1*
X1957473Y2120620D1*
X1960432Y2123138D1*
X1963750Y2125162D1*
X1967343Y2126642D1*
X1971123Y2127542D1*
X1974997Y2127840D1*
X1978871Y2127528D1*
X1982647Y2126613D1*
X1984227Y2125955D1*
X1986093Y2126642D1*
X1989873Y2127542D1*
X1993748Y2127840D1*
X1997621Y2127528D1*
X2001398Y2126613D1*
X2002978Y2125955D1*
X2004844Y2126642D1*
X2008624Y2127542D1*
X2012499Y2127840D1*
X2016372Y2127528D1*
X2020149Y2126613D1*
X2023736Y2125119D1*
X2027045Y2123083D1*
X2029995Y2120553D1*
X2032513Y2117594D1*
X2034537Y2114277D1*
X2036018Y2110684D1*
X2036918Y2106903D1*
X2037215Y2103076D1*
X2036903Y2099156D1*
X2035989Y2095379D1*
X2034495Y2091792D1*
X2032458Y2088482D1*
X2029929Y2085532D1*
X2026969Y2083014D1*
X2023652Y2080990D1*
X2020059Y2079510D1*
X2016279Y2078610D1*
X2012404Y2078312D1*
X2008531Y2078625D1*
X2004754Y2079539D1*
X2003174Y2080197D1*
X2001308Y2079510D1*
X1997528Y2078610D1*
X1993654Y2078312D1*
X1989780Y2078625D1*
X1986004Y2079539D1*
X1984424Y2080197D1*
X1984224Y2080196D1*
X2264369Y1575896D2*
X2263895Y1574758D1*
X2261858Y1571448D1*
X2259329Y1568498D1*
X2256369Y1565980D1*
X2253052Y1563956D1*
X2249459Y1562476D1*
X2245679Y1561576D1*
X2241805Y1561278D1*
X2237931Y1561591D1*
X2234154Y1562505D1*
X2230567Y1563999D1*
X2227258Y1566035D1*
X2224308Y1568565D1*
X2221790Y1571524D1*
X2219766Y1574841D1*
X2218285Y1578434D1*
X2217385Y1582215D1*
X2217088Y1586089D1*
X2217400Y1589962D1*
X2218315Y1593739D1*
X2219808Y1597326D1*
X2221845Y1600636D1*
X2224374Y1603586D1*
X2227334Y1606104D1*
X2230651Y1608128D1*
X2231707Y1608563D1*
X2232308Y1609826D1*
X2234345Y1613136D1*
X2236874Y1616086D1*
X2239834Y1618604D1*
X2243151Y1620628D1*
X2244207Y1621063D1*
X2244808Y1622326D1*
X2246845Y1625636D1*
X2249374Y1628586D1*
X2252334Y1631104D1*
X2255651Y1633128D1*
X2259244Y1634608D1*
X2263024Y1635508D1*
X2266899Y1635806D1*
X2270772Y1635493D1*
X2274549Y1634579D1*
X2278136Y1633085D1*
X2281446Y1631049D1*
X2284396Y1628519D1*
X2286914Y1625560D1*
X2288938Y1622243D1*
X2290418Y1618650D1*
X2291318Y1614869D1*
X2291615Y1611042D1*
X2291303Y1607122D1*
X2290389Y1603345D1*
X2288895Y1599758D1*
X2286858Y1596448D1*
X2284329Y1593498D1*
X2281369Y1590980D1*
X2278052Y1588956D1*
X2276996Y1588521D1*
X2276395Y1587258D1*
X2274358Y1583948D1*
X2271829Y1580998D1*
X2268869Y1578480D1*
X2265552Y1576456D1*
X2264496Y1576021D1*
X2264369Y1575896D1*
X1915028Y1955405D2*
X1914113Y1951628D1*
X1912619Y1948041D1*
X1910583Y1944732D1*
X1908053Y1941782D1*
X1905094Y1939263D1*
X1901777Y1937239D1*
X1898184Y1935759D1*
X1894403Y1934859D1*
X1890529Y1934562D1*
X1886656Y1934874D1*
X1882879Y1935788D1*
X1879292Y1937282D1*
X1875982Y1939319D1*
X1873032Y1941848D1*
X1870514Y1944808D1*
X1868490Y1948125D1*
X1867010Y1951718D1*
X1866110Y1955498D1*
X1865812Y1959373D1*
X1866125Y1963246D1*
X1867039Y1967023D1*
X1868533Y1970610D1*
X1870570Y1973919D1*
X1873099Y1976869D1*
X1876058Y1979387D1*
X1879376Y1981412D1*
X1882969Y1982892D1*
X1886749Y1983792D1*
X1890623Y1984089D1*
X1894497Y1983777D1*
X1898273Y1982863D1*
X1901861Y1981369D1*
X1905170Y1979332D1*
X1908120Y1976803D1*
X1910638Y1973843D1*
X1912662Y1970526D1*
X1914142Y1966933D1*
X1915042Y1963153D1*
X1915340Y1959325D1*
X1915028Y1955405D1*
X1749403Y2077280D2*
X1748489Y2073504D1*
X1746995Y2069916D1*
X1744958Y2066607D1*
X1742429Y2063657D1*
X1739469Y2061139D1*
X1736152Y2059115D1*
X1732559Y2057635D1*
X1728779Y2056735D1*
X1724904Y2056437D1*
X1721031Y2056749D1*
X1717254Y2057664D1*
X1713667Y2059158D1*
X1710358Y2061194D1*
X1707408Y2063724D1*
X1704889Y2066683D1*
X1702865Y2070000D1*
X1701385Y2073593D1*
X1700485Y2077373D1*
X1700188Y2081248D1*
X1700500Y2085121D1*
X1701414Y2088898D1*
X1702908Y2092485D1*
X1704945Y2095795D1*
X1707474Y2098745D1*
X1710434Y2101263D1*
X1713751Y2103287D1*
X1717344Y2104767D1*
X1721124Y2105667D1*
X1724999Y2105965D1*
X1728872Y2105652D1*
X1732649Y2104738D1*
X1736236Y2103244D1*
X1739545Y2101207D1*
X1742495Y2098678D1*
X1745013Y2095718D1*
X1747037Y2092401D1*
X1748518Y2088808D1*
X1749418Y2085028D1*
X1749715Y2081201D1*
X1749403Y2077280D1*
X2864881Y1052963D2*
X2863966Y1049186D1*
X2862472Y1045599D1*
X2860436Y1042289D1*
X2857906Y1039339D1*
X2854947Y1036821D1*
X2851630Y1034797D1*
X2848037Y1033317D1*
X2844256Y1032417D1*
X2840382Y1032119D1*
X2836509Y1032432D1*
X2832732Y1033346D1*
X2831530Y1033846D1*
X2829650Y1033154D1*
X2825869Y1032254D1*
X2821995Y1031957D1*
X2818122Y1032269D1*
X2814345Y1033183D1*
X2812765Y1033841D1*
X2810900Y1033154D1*
X2807120Y1032254D1*
X2803246Y1031957D1*
X2799372Y1032269D1*
X2795595Y1033183D1*
X2792008Y1034677D1*
X2788699Y1036714D1*
X2785749Y1039243D1*
X2783231Y1042203D1*
X2781207Y1045520D1*
X2779726Y1049113D1*
X2778826Y1052893D1*
X2778529Y1056768D1*
X2778841Y1060641D1*
X2779756Y1064418D1*
X2781249Y1068005D1*
X2783286Y1071314D1*
X2785815Y1074264D1*
X2788775Y1076782D1*
X2792092Y1078807D1*
X2795685Y1080287D1*
X2799465Y1081187D1*
X2803340Y1081484D1*
X2807213Y1081172D1*
X2810990Y1080258D1*
X2812570Y1079600D1*
X2814434Y1080287D1*
X2818215Y1081187D1*
X2822089Y1081484D1*
X2825962Y1081172D1*
X2829739Y1080258D1*
X2830941Y1079757D1*
X2832822Y1080449D1*
X2836602Y1081349D1*
X2840476Y1081647D1*
X2844350Y1081335D1*
X2848126Y1080420D1*
X2851714Y1078926D1*
X2855023Y1076890D1*
X2857973Y1074360D1*
X2860491Y1071401D1*
X2862515Y1068084D1*
X2863995Y1064491D1*
X2864895Y1060711D1*
X2865193Y1056883D1*
X2864881Y1052963D1*
X1790028Y2114780D2*
X1789113Y2111004D1*
X1787619Y2107416D1*
X1785583Y2104107D1*
X1783053Y2101157D1*
X1780094Y2098639D1*
X1776777Y2096615D1*
X1773184Y2095135D1*
X1769403Y2094235D1*
X1765529Y2093937D1*
X1761656Y2094249D1*
X1757879Y2095164D1*
X1754292Y2096658D1*
X1750982Y2098694D1*
X1748032Y2101224D1*
X1745514Y2104183D1*
X1743490Y2107500D1*
X1742010Y2111093D1*
X1741110Y2114873D1*
X1740812Y2118748D1*
X1741125Y2122621D1*
X1742039Y2126398D1*
X1743533Y2129985D1*
X1745570Y2133295D1*
X1748099Y2136245D1*
X1751058Y2138763D1*
X1754376Y2140787D1*
X1757969Y2142267D1*
X1761749Y2143167D1*
X1765623Y2143465D1*
X1769497Y2143152D1*
X1773273Y2142238D1*
X1776861Y2140744D1*
X1780170Y2138707D1*
X1783120Y2136178D1*
X1785638Y2133218D1*
X1787662Y2129901D1*
X1789142Y2126308D1*
X1790042Y2122528D1*
X1790340Y2118701D1*
X1790028Y2114780D1*
X1855652Y2124156D2*
X1854738Y2120379D1*
X1853244Y2116792D1*
X1851207Y2113482D1*
X1848678Y2110532D1*
X1845718Y2108014D1*
X1842401Y2105990D1*
X1838808Y2104510D1*
X1835028Y2103610D1*
X1831154Y2103312D1*
X1827280Y2103625D1*
X1823504Y2104539D1*
X1819916Y2106033D1*
X1816607Y2108070D1*
X1813657Y2110599D1*
X1811139Y2113558D1*
X1809115Y2116876D1*
X1807635Y2120469D1*
X1806735Y2124249D1*
X1806437Y2128123D1*
X1806749Y2131997D1*
X1807664Y2135773D1*
X1809158Y2139361D1*
X1811194Y2142670D1*
X1813724Y2145620D1*
X1816683Y2148138D1*
X1820000Y2150162D1*
X1823593Y2151642D1*
X1827373Y2152542D1*
X1831248Y2152840D1*
X1835121Y2152528D1*
X1838898Y2151613D1*
X1842485Y2150119D1*
X1845795Y2148083D1*
X1848745Y2145553D1*
X1851263Y2142594D1*
X1853287Y2139277D1*
X1854767Y2135684D1*
X1855667Y2131903D1*
X1855965Y2128076D1*
X1855652Y2124156D1*
X624402Y1596031D2*
X623487Y1592254D1*
X621993Y1588667D1*
X621287Y1587520D1*
X622036Y1586152D1*
X623516Y1582559D1*
X624416Y1578779D1*
X624714Y1574951D1*
X624402Y1571031D1*
X623487Y1567254D1*
X621993Y1563667D1*
X621287Y1562520D1*
X622036Y1561152D1*
X623516Y1557559D1*
X624416Y1553779D1*
X624714Y1549951D1*
X624695Y1549710D1*
X624997Y1549715D1*
X628871Y1549403D1*
X632647Y1548489D1*
X636235Y1546995D1*
X639544Y1544958D1*
X642494Y1542429D1*
X645012Y1539469D1*
X647036Y1536152D1*
X648516Y1532559D1*
X649416Y1528779D1*
X649714Y1524951D1*
X649402Y1521031D1*
X648487Y1517254D1*
X646993Y1513667D1*
X646287Y1512520D1*
X647036Y1511151D1*
X648516Y1507558D1*
X649416Y1503777D1*
X649714Y1499950D1*
X649402Y1496030D1*
X648487Y1492253D1*
X646993Y1488666D1*
X646287Y1487518D1*
X647036Y1486151D1*
X648516Y1482558D1*
X649416Y1478777D1*
X649714Y1474950D1*
X649402Y1471030D1*
X648487Y1467253D1*
X646993Y1463666D1*
X644957Y1460356D1*
X642427Y1457406D1*
X639468Y1454888D1*
X636151Y1452864D1*
X632558Y1451384D1*
X628777Y1450484D1*
X624903Y1450186D1*
X621030Y1450499D1*
X617253Y1451413D1*
X613666Y1452907D1*
X612518Y1453613D1*
X611151Y1452864D1*
X607558Y1451384D1*
X603777Y1450484D1*
X599903Y1450186D1*
X596030Y1450499D1*
X592253Y1451413D1*
X588666Y1452907D1*
X587518Y1453613D1*
X586151Y1452864D1*
X582558Y1451384D1*
X578777Y1450484D1*
X574903Y1450186D1*
X571030Y1450499D1*
X567253Y1451413D1*
X563666Y1452907D1*
X560356Y1454944D1*
X557406Y1457473D1*
X554888Y1460432D1*
X552864Y1463750D1*
X551384Y1467343D1*
X550484Y1471123D1*
X550186Y1474997D1*
X550499Y1478871D1*
X551413Y1482647D1*
X552907Y1486235D1*
X553613Y1487382D1*
X552864Y1488750D1*
X551384Y1492343D1*
X550484Y1496123D1*
X550186Y1499997D1*
X550499Y1503871D1*
X551413Y1507647D1*
X552907Y1511235D1*
X553613Y1512382D1*
X552864Y1513751D1*
X551384Y1517344D1*
X550484Y1521124D1*
X550186Y1524999D1*
X550499Y1528872D1*
X551413Y1532649D1*
X552907Y1536236D1*
X554944Y1539545D1*
X557473Y1542495D1*
X560432Y1545013D1*
X563750Y1547037D1*
X567343Y1548518D1*
X571123Y1549418D1*
X574997Y1549715D1*
X575190Y1549700D1*
X575186Y1549999D1*
X575499Y1553872D1*
X576413Y1557649D1*
X577907Y1561236D1*
X578613Y1562383D1*
X577864Y1563751D1*
X576384Y1567344D1*
X575484Y1571124D1*
X575186Y1574999D1*
X575499Y1578872D1*
X576413Y1582649D1*
X577907Y1586236D1*
X578613Y1587383D1*
X577864Y1588751D1*
X576384Y1592344D1*
X575484Y1596124D1*
X575186Y1599999D1*
X575202Y1600191D1*
X574903Y1600188D1*
X571030Y1600500D1*
X567253Y1601414D1*
X563666Y1602908D1*
X560356Y1604945D1*
X557406Y1607474D1*
X554888Y1610434D1*
X552864Y1613751D1*
X551384Y1617344D1*
X550484Y1621124D1*
X550186Y1624999D1*
X550499Y1628872D1*
X551413Y1632649D1*
X552907Y1636236D1*
X553613Y1637383D1*
X552864Y1638751D1*
X551384Y1642344D1*
X550484Y1646124D1*
X550186Y1649999D1*
X550499Y1653872D1*
X551413Y1657649D1*
X552907Y1661236D1*
X553613Y1662383D1*
X552864Y1663750D1*
X551384Y1667343D1*
X550484Y1671123D1*
X550186Y1674997D1*
X550499Y1678871D1*
X551413Y1682647D1*
X552907Y1686235D1*
X554944Y1689544D1*
X557473Y1692494D1*
X560432Y1695012D1*
X563750Y1697036D1*
X567343Y1698516D1*
X571123Y1699416D1*
X574997Y1699714D1*
X578871Y1699402D1*
X582647Y1698487D1*
X586235Y1696993D1*
X587382Y1696287D1*
X588750Y1697036D1*
X592343Y1698516D1*
X596123Y1699416D1*
X599997Y1699714D1*
X603871Y1699402D1*
X607647Y1698487D1*
X611235Y1696993D1*
X612382Y1696287D1*
X613750Y1697036D1*
X617343Y1698516D1*
X621123Y1699416D1*
X624997Y1699714D1*
X628871Y1699402D1*
X632647Y1698487D1*
X636235Y1696993D1*
X639544Y1694957D1*
X642494Y1692427D1*
X645012Y1689468D1*
X647036Y1686151D1*
X648516Y1682558D1*
X649416Y1678777D1*
X649714Y1674950D1*
X649402Y1671030D1*
X648487Y1667253D1*
X646993Y1663666D1*
X646287Y1662518D1*
X647036Y1661152D1*
X648516Y1657559D1*
X649416Y1653779D1*
X649714Y1649951D1*
X649402Y1646031D1*
X648487Y1642254D1*
X646993Y1638667D1*
X646287Y1637520D1*
X647036Y1636152D1*
X648516Y1632559D1*
X649416Y1628779D1*
X649714Y1624951D1*
X649402Y1621031D1*
X648487Y1617254D1*
X646993Y1613667D1*
X644957Y1610358D1*
X642427Y1607408D1*
X639468Y1604889D1*
X636151Y1602865D1*
X632558Y1601385D1*
X628777Y1600485D1*
X624903Y1600188D1*
X624710Y1600203D1*
X624714Y1599951D1*
X624402Y1596031D1*
X1988430Y2268669D2*
X1987516Y2264892D1*
X1986022Y2261305D1*
X1983986Y2257995D1*
X1981456Y2255045D1*
X1978497Y2252527D1*
X1975180Y2250503D1*
X1971587Y2249023D1*
X1967806Y2248123D1*
X1963932Y2247826D1*
X1960059Y2248138D1*
X1956282Y2249052D1*
X1952695Y2250546D1*
X1949385Y2252583D1*
X1946435Y2255112D1*
X1943917Y2258072D1*
X1941893Y2261389D1*
X1940413Y2264982D1*
X1939513Y2268762D1*
X1939215Y2272636D1*
X1939528Y2276510D1*
X1940442Y2280286D1*
X1941936Y2283874D1*
X1943972Y2287183D1*
X1946502Y2290133D1*
X1949461Y2292651D1*
X1952778Y2294675D1*
X1956371Y2296156D1*
X1960152Y2297055D1*
X1964026Y2297353D1*
X1967899Y2297041D1*
X1971676Y2296126D1*
X1975263Y2294632D1*
X1978573Y2292596D1*
X1981523Y2290067D1*
X1984041Y2287107D1*
X1986065Y2283790D1*
X1987545Y2280197D1*
X1988445Y2276417D1*
X1988743Y2272589D1*
X1988430Y2268669D1*
X1974402Y2367905D2*
X1973487Y2364128D1*
X1971993Y2360541D1*
X1969957Y2357232D1*
X1967427Y2354282D1*
X1964468Y2351763D1*
X1961151Y2349739D1*
X1957558Y2348259D1*
X1953777Y2347359D1*
X1949903Y2347062D1*
X1946030Y2347374D1*
X1942253Y2348288D1*
X1938666Y2349782D1*
X1935356Y2351819D1*
X1932406Y2354348D1*
X1929888Y2357308D1*
X1927864Y2360625D1*
X1926384Y2364218D1*
X1925484Y2367998D1*
X1925186Y2371873D1*
X1925499Y2375746D1*
X1926413Y2379523D1*
X1927907Y2383110D1*
X1929944Y2386419D1*
X1932473Y2389369D1*
X1935432Y2391887D1*
X1938750Y2393912D1*
X1942343Y2395392D1*
X1946123Y2396292D1*
X1949997Y2396589D1*
X1953871Y2396277D1*
X1957647Y2395363D1*
X1961235Y2393869D1*
X1964544Y2391832D1*
X1967494Y2389303D1*
X1970012Y2386343D1*
X1972036Y2383026D1*
X1973516Y2379433D1*
X1974416Y2375653D1*
X1974714Y2371825D1*
X1974402Y2367905D1*
X2692930Y1552433D2*
X2691792Y1552907D1*
X2688482Y1554944D1*
X2685532Y1557473D1*
X2683014Y1560432D1*
X2680990Y1563750D1*
X2679510Y1567343D1*
X2678610Y1571123D1*
X2678312Y1574997D1*
X2678625Y1578871D1*
X2679539Y1582647D1*
X2681033Y1586235D1*
X2683070Y1589544D1*
X2685599Y1592494D1*
X2688558Y1595012D1*
X2691876Y1597036D1*
X2695469Y1598516D1*
X2699249Y1599416D1*
X2703123Y1599714D1*
X2706997Y1599402D1*
X2710773Y1598487D1*
X2714361Y1596993D1*
X2717670Y1594957D1*
X2720620Y1592427D1*
X2723138Y1589468D1*
X2725162Y1586151D1*
X2725597Y1585095D1*
X2726861Y1584495D1*
X2730170Y1582458D1*
X2733120Y1579929D1*
X2735638Y1576969D1*
X2737662Y1573652D1*
X2738097Y1572596D1*
X2739361Y1571995D1*
X2742670Y1569958D1*
X2745620Y1567429D1*
X2748138Y1564469D1*
X2750162Y1561152D1*
X2751642Y1557559D1*
X2752542Y1553779D1*
X2752840Y1549951D1*
X2752528Y1546031D1*
X2751613Y1542254D1*
X2750119Y1538667D1*
X2748083Y1535358D1*
X2745553Y1532408D1*
X2742594Y1529889D1*
X2739277Y1527865D1*
X2735684Y1526385D1*
X2731903Y1525485D1*
X2728029Y1525188D1*
X2724156Y1525500D1*
X2720379Y1526414D1*
X2716792Y1527908D1*
X2713482Y1529945D1*
X2710532Y1532474D1*
X2708014Y1535434D1*
X2705990Y1538751D1*
X2705555Y1539807D1*
X2704292Y1540408D1*
X2700982Y1542445D1*
X2698032Y1544974D1*
X2695514Y1547934D1*
X2693490Y1551251D1*
X2693055Y1552307D1*
X2692930Y1552433D1*
X3520768Y2099156D2*
X3519853Y2095379D1*
X3518360Y2091792D1*
X3516323Y2088482D1*
X3513794Y2085532D1*
X3510834Y2083014D1*
X3507517Y2080990D1*
X3503924Y2079510D1*
X3500144Y2078610D1*
X3496269Y2078312D1*
X3492396Y2078625D1*
X3488619Y2079539D1*
X3485032Y2081033D1*
X3481722Y2083070D1*
X3478772Y2085599D1*
X3476254Y2088558D1*
X3474230Y2091876D1*
X3472750Y2095469D1*
X3471850Y2099249D1*
X3471553Y2103123D1*
X3471865Y2106997D1*
X3472779Y2110773D1*
X3474273Y2114361D1*
X3476310Y2117670D1*
X3478839Y2120620D1*
X3481799Y2123138D1*
X3485116Y2125162D1*
X3488709Y2126642D1*
X3492489Y2127542D1*
X3496363Y2127840D1*
X3500237Y2127528D1*
X3504014Y2126613D1*
X3507601Y2125119D1*
X3510910Y2123083D1*
X3513860Y2120553D1*
X3516378Y2117594D1*
X3518402Y2114277D1*
X3519883Y2110684D1*
X3520782Y2106903D1*
X3521080Y2103076D1*
X3520768Y2099156D1*
X3618152D2*
X3617238Y2095379D1*
X3615744Y2091792D1*
X3613707Y2088482D1*
X3611178Y2085532D1*
X3608218Y2083014D1*
X3604901Y2080990D1*
X3601308Y2079510D1*
X3597528Y2078610D1*
X3593654Y2078312D1*
X3589780Y2078625D1*
X3586004Y2079539D1*
X3582416Y2081033D1*
X3579107Y2083070D1*
X3576157Y2085599D1*
X3573639Y2088558D1*
X3571615Y2091876D1*
X3570135Y2095469D1*
X3569235Y2099249D1*
X3568937Y2103123D1*
X3569249Y2106997D1*
X3570164Y2110773D1*
X3571658Y2114361D1*
X3573694Y2117670D1*
X3576224Y2120620D1*
X3579183Y2123138D1*
X3582500Y2125162D1*
X3586093Y2126642D1*
X3589873Y2127542D1*
X3593748Y2127840D1*
X3597621Y2127528D1*
X3601398Y2126613D1*
X3604985Y2125119D1*
X3608295Y2123083D1*
X3611245Y2120553D1*
X3613763Y2117594D1*
X3615787Y2114277D1*
X3617267Y2110684D1*
X3618167Y2106903D1*
X3618465Y2103076D1*
X3618152Y2099156D1*
X3921277Y2139780D2*
X3920363Y2136004D1*
X3919705Y2134424D1*
X3920392Y2132559D1*
X3921292Y2128779D1*
X3921589Y2124951D1*
X3921277Y2121031D1*
X3920363Y2117254D1*
X3919705Y2115674D1*
X3920392Y2113808D1*
X3921292Y2110028D1*
X3921589Y2106201D1*
X3921277Y2102280D1*
X3920363Y2098504D1*
X3918869Y2094916D1*
X3916832Y2091607D1*
X3914303Y2088657D1*
X3911343Y2086139D1*
X3908026Y2084115D1*
X3904433Y2082635D1*
X3900653Y2081735D1*
X3896778Y2081437D1*
X3892905Y2081749D1*
X3889128Y2082664D1*
X3885541Y2084158D1*
X3882232Y2086194D1*
X3879282Y2088724D1*
X3876763Y2091683D1*
X3874739Y2095000D1*
X3873259Y2098593D1*
X3872359Y2102373D1*
X3872062Y2106248D1*
X3872374Y2110121D1*
X3873288Y2113898D1*
X3873946Y2115478D1*
X3873259Y2117344D1*
X3872359Y2121124D1*
X3872062Y2124999D1*
X3872374Y2128872D1*
X3873288Y2132649D1*
X3873946Y2134229D1*
X3873259Y2136093D1*
X3872359Y2139873D1*
X3872062Y2143748D1*
X3872374Y2147621D1*
X3873288Y2151398D1*
X3874782Y2154985D1*
X3876819Y2158295D1*
X3879348Y2161245D1*
X3882308Y2163763D1*
X3885625Y2165787D1*
X3889218Y2167267D1*
X3892998Y2168167D1*
X3896873Y2168465D1*
X3900746Y2168152D1*
X3904523Y2167238D1*
X3908110Y2165744D1*
X3911419Y2163707D1*
X3914369Y2161178D1*
X3916887Y2158218D1*
X3918912Y2154901D1*
X3920392Y2151308D1*
X3921292Y2147528D1*
X3921589Y2143701D1*
X3921277Y2139780D1*
X3361903Y2339780D2*
X3360989Y2336004D1*
X3359495Y2332416D1*
X3357458Y2329107D1*
X3354929Y2326157D1*
X3351969Y2323639D1*
X3348652Y2321615D1*
X3345059Y2320135D1*
X3341279Y2319235D1*
X3337404Y2318937D1*
X3333531Y2319249D1*
X3329754Y2320164D1*
X3326167Y2321658D1*
X3322858Y2323694D1*
X3319908Y2326224D1*
X3317389Y2329183D1*
X3315365Y2332500D1*
X3313885Y2336093D1*
X3312985Y2339873D1*
X3312688Y2343748D1*
X3313000Y2347621D1*
X3313914Y2351398D1*
X3315408Y2354985D1*
X3317445Y2358295D1*
X3319974Y2361245D1*
X3322934Y2363763D1*
X3326251Y2365787D1*
X3329844Y2367267D1*
X3333624Y2368167D1*
X3337499Y2368465D1*
X3341372Y2368152D1*
X3345149Y2367238D1*
X3348736Y2365744D1*
X3352045Y2363707D1*
X3354995Y2361178D1*
X3357513Y2358218D1*
X3359537Y2354901D1*
X3361018Y2351308D1*
X3361918Y2347528D1*
X3362215Y2343701D1*
X3361903Y2339780D1*
X1086903Y2496030D2*
X1085989Y2492253D1*
X1084495Y2488666D1*
X1082458Y2485356D1*
X1079929Y2482406D1*
X1076969Y2479888D1*
X1073652Y2477864D1*
X1070059Y2476384D1*
X1066279Y2475484D1*
X1062404Y2475186D1*
X1058531Y2475499D1*
X1054754Y2476413D1*
X1053174Y2477071D1*
X1051308Y2476384D1*
X1047528Y2475484D1*
X1043654Y2475186D1*
X1039780Y2475499D1*
X1036004Y2476413D1*
X1034424Y2477071D1*
X1032558Y2476384D1*
X1028777Y2475484D1*
X1024903Y2475186D1*
X1021030Y2475499D1*
X1017253Y2476413D1*
X1013666Y2477907D1*
X1010356Y2479944D1*
X1007406Y2482473D1*
X1004888Y2485432D1*
X1002864Y2488750D1*
X1001384Y2492343D1*
X1000484Y2496123D1*
X1000186Y2499997D1*
X1000499Y2503871D1*
X1001413Y2507647D1*
X1002907Y2511235D1*
X1004944Y2514544D1*
X1007473Y2517494D1*
X1010432Y2520012D1*
X1013750Y2522036D1*
X1017343Y2523516D1*
X1021123Y2524416D1*
X1024997Y2524714D1*
X1028871Y2524402D1*
X1032647Y2523487D1*
X1034227Y2522829D1*
X1036093Y2523516D1*
X1039873Y2524416D1*
X1043748Y2524714D1*
X1047621Y2524402D1*
X1051398Y2523487D1*
X1052978Y2522829D1*
X1054844Y2523516D1*
X1058624Y2524416D1*
X1062499Y2524714D1*
X1066372Y2524402D1*
X1070149Y2523487D1*
X1073736Y2521993D1*
X1077045Y2519957D1*
X1079995Y2517427D1*
X1082513Y2514468D1*
X1084537Y2511151D1*
X1086018Y2507558D1*
X1086918Y2503777D1*
X1087215Y2499950D1*
X1086903Y2496030D1*
X2827305Y1680559D2*
X2826167Y1681033D1*
X2822858Y1683070D1*
X2819908Y1685599D1*
X2817389Y1688558D1*
X2815365Y1691876D1*
X2813885Y1695469D1*
X2812985Y1699249D1*
X2812688Y1703123D1*
X2813000Y1706997D1*
X2813914Y1710773D1*
X2815408Y1714361D1*
X2817445Y1717670D1*
X2819974Y1720620D1*
X2822934Y1723138D1*
X2826251Y1725162D1*
X2829844Y1726642D1*
X2833624Y1727542D1*
X2837499Y1727840D1*
X2841372Y1727528D1*
X2845149Y1726613D1*
X2848736Y1725119D1*
X2852045Y1723083D1*
X2854995Y1720553D1*
X2857513Y1717594D1*
X2859537Y1714277D1*
X2859973Y1713221D1*
X2861235Y1712619D1*
X2864544Y1710583D1*
X2867494Y1708053D1*
X2870012Y1705094D1*
X2872036Y1701777D1*
X2872471Y1700721D1*
X2873736Y1700119D1*
X2877045Y1698083D1*
X2879995Y1695553D1*
X2882513Y1692594D1*
X2884537Y1689277D1*
X2886018Y1685684D1*
X2886918Y1681903D1*
X2887215Y1678076D1*
X2886903Y1674156D1*
X2885989Y1670379D1*
X2884495Y1666792D1*
X2882458Y1663482D1*
X2879929Y1660532D1*
X2876969Y1658014D1*
X2873652Y1655990D1*
X2870059Y1654510D1*
X2866279Y1653610D1*
X2862404Y1653312D1*
X2858531Y1653625D1*
X2854754Y1654539D1*
X2851167Y1656033D1*
X2847858Y1658070D1*
X2844908Y1660599D1*
X2842389Y1663558D1*
X2840365Y1666876D1*
X2839930Y1667932D1*
X2838666Y1668533D1*
X2835356Y1670570D1*
X2832406Y1673099D1*
X2829888Y1676058D1*
X2827864Y1679376D1*
X2827429Y1680432D1*
X2827305Y1680559D1*
X1397469Y2433555D2*
X1396995Y2432416D1*
X1394958Y2429107D1*
X1392429Y2426157D1*
X1389469Y2423639D1*
X1386152Y2421615D1*
X1382559Y2420135D1*
X1378779Y2419235D1*
X1374904Y2418937D1*
X1371031Y2419249D1*
X1367254Y2420164D1*
X1363667Y2421658D1*
X1360358Y2423694D1*
X1357408Y2426224D1*
X1354889Y2429183D1*
X1352865Y2432500D1*
X1351385Y2436093D1*
X1350485Y2439873D1*
X1350188Y2443748D1*
X1350500Y2447621D1*
X1351414Y2451398D1*
X1352908Y2454985D1*
X1354945Y2458295D1*
X1357474Y2461245D1*
X1360434Y2463763D1*
X1363751Y2465787D1*
X1364807Y2466222D1*
X1365408Y2467485D1*
X1367445Y2470795D1*
X1369974Y2473745D1*
X1372934Y2476263D1*
X1376251Y2478287D1*
X1377307Y2478722D1*
X1377908Y2479985D1*
X1379945Y2483295D1*
X1382474Y2486245D1*
X1385434Y2488763D1*
X1388751Y2490787D1*
X1392344Y2492267D1*
X1396124Y2493167D1*
X1399999Y2493465D1*
X1403872Y2493152D1*
X1407649Y2492238D1*
X1411236Y2490744D1*
X1414545Y2488707D1*
X1417495Y2486178D1*
X1420013Y2483218D1*
X1422037Y2479901D1*
X1423518Y2476308D1*
X1424418Y2472528D1*
X1424715Y2468701D1*
X1424403Y2464780D1*
X1423489Y2461004D1*
X1421995Y2457416D1*
X1419958Y2454107D1*
X1417429Y2451157D1*
X1414469Y2448639D1*
X1411152Y2446615D1*
X1410096Y2446180D1*
X1409495Y2444916D1*
X1407458Y2441607D1*
X1404929Y2438657D1*
X1401969Y2436139D1*
X1398652Y2434115D1*
X1397596Y2433680D1*
X1397469Y2433555D1*
X871726Y1033321D2*
X870059Y1032635D1*
X866279Y1031735D1*
X862404Y1031437D1*
X858531Y1031749D1*
X854754Y1032664D1*
X851167Y1034158D1*
X847858Y1036194D1*
X844908Y1038724D1*
X842389Y1041683D1*
X840365Y1045000D1*
X838885Y1048593D1*
X837985Y1052373D1*
X837688Y1056248D1*
X838000Y1060121D1*
X838914Y1063898D1*
X840408Y1067485D1*
X842445Y1070795D1*
X844974Y1073745D1*
X847934Y1076263D1*
X851251Y1078287D1*
X854844Y1079767D1*
X858624Y1080667D1*
X862499Y1080965D1*
X866372Y1080652D1*
X870149Y1079738D1*
X871729Y1079080D1*
X873593Y1079767D1*
X877373Y1080667D1*
X881248Y1080965D1*
X885121Y1080652D1*
X888898Y1079738D1*
X890478Y1079080D1*
X892343Y1079767D1*
X896123Y1080667D1*
X899997Y1080965D1*
X903871Y1080652D1*
X907647Y1079738D1*
X911235Y1078244D1*
X914544Y1076207D1*
X917494Y1073678D1*
X920012Y1070718D1*
X922036Y1067401D1*
X923516Y1063808D1*
X924416Y1060028D1*
X924714Y1056201D1*
X924402Y1052280D1*
X923487Y1048504D1*
X921993Y1044916D1*
X919957Y1041607D1*
X917427Y1038657D1*
X914468Y1036139D1*
X911151Y1034115D1*
X907558Y1032635D1*
X903777Y1031735D1*
X899903Y1031437D1*
X896030Y1031749D1*
X892253Y1032664D1*
X890673Y1033322D1*
X888808Y1032635D1*
X885028Y1031735D1*
X881154Y1031437D1*
X877280Y1031749D1*
X873504Y1032664D1*
X871924Y1033322D1*
X871726Y1033321D1*
X3465475D2*
X3463808Y1032635D1*
X3460028Y1031735D1*
X3456154Y1031437D1*
X3452280Y1031749D1*
X3448504Y1032664D1*
X3444916Y1034158D1*
X3441607Y1036194D1*
X3438657Y1038724D1*
X3436139Y1041683D1*
X3434115Y1045000D1*
X3432635Y1048593D1*
X3431735Y1052373D1*
X3431437Y1056248D1*
X3431749Y1060121D1*
X3432664Y1063898D1*
X3434158Y1067485D1*
X3436194Y1070795D1*
X3438724Y1073745D1*
X3441683Y1076263D1*
X3445000Y1078287D1*
X3448593Y1079767D1*
X3452373Y1080667D1*
X3456248Y1080965D1*
X3460121Y1080652D1*
X3463898Y1079738D1*
X3465478Y1079080D1*
X3467343Y1079767D1*
X3471123Y1080667D1*
X3474997Y1080965D1*
X3478871Y1080652D1*
X3482647Y1079738D1*
X3484227Y1079080D1*
X3486093Y1079767D1*
X3489873Y1080667D1*
X3493748Y1080965D1*
X3497621Y1080652D1*
X3501398Y1079738D1*
X3504985Y1078244D1*
X3508295Y1076207D1*
X3511245Y1073678D1*
X3513763Y1070718D1*
X3515787Y1067401D1*
X3517267Y1063808D1*
X3518167Y1060028D1*
X3518465Y1056201D1*
X3518152Y1052280D1*
X3517238Y1048504D1*
X3515744Y1044916D1*
X3513707Y1041607D1*
X3511178Y1038657D1*
X3508218Y1036139D1*
X3504901Y1034115D1*
X3501308Y1032635D1*
X3497528Y1031735D1*
X3493654Y1031437D1*
X3489780Y1031749D1*
X3486004Y1032664D1*
X3484424Y1033322D1*
X3482558Y1032635D1*
X3478777Y1031735D1*
X3474903Y1031437D1*
X3471030Y1031749D1*
X3467253Y1032664D1*
X3465673Y1033322D1*
X3465475Y1033321D1*
X3805652Y783531D2*
X3804738Y779754D1*
X3804080Y778174D1*
X3804767Y776308D1*
X3805667Y772528D1*
X3805723Y771807D1*
X3808179Y774420D1*
X3811235Y776819D1*
X3814630Y778711D1*
X3818278Y780048D1*
X3822091Y780799D1*
X3825974Y780943D1*
X3829832Y780479D1*
X3833570Y779416D1*
X3837096Y777782D1*
X3840322Y775617D1*
X3843170Y772973D1*
X3845570Y769917D1*
X3847462Y766522D1*
X3848799Y762874D1*
X3849549Y759061D1*
X3849715Y756201D1*
X3849403Y752280D1*
X3848489Y748504D1*
X3846995Y744916D1*
X3844958Y741607D1*
X3842429Y738657D1*
X3839469Y736139D1*
X3836152Y734115D1*
X3832559Y732635D1*
X3828779Y731735D1*
X3824904Y731437D1*
X3821031Y731749D1*
X3817254Y732664D1*
X3813667Y734158D1*
X3810358Y736194D1*
X3807408Y738724D1*
X3804889Y741683D1*
X3804670Y742043D1*
X3804081Y740676D1*
X3804767Y738808D1*
X3805667Y735028D1*
X3805965Y731201D1*
X3805652Y727280D1*
X3804738Y723504D1*
X3803244Y719916D1*
X3801207Y716607D1*
X3798678Y713657D1*
X3795718Y711139D1*
X3792401Y709115D1*
X3788808Y707635D1*
X3785028Y706735D1*
X3781154Y706437D1*
X3777280Y706749D1*
X3773504Y707664D1*
X3769916Y709158D1*
X3766607Y711194D1*
X3763657Y713724D1*
X3761139Y716683D1*
X3759115Y720000D1*
X3757635Y723593D1*
X3756735Y727373D1*
X3756437Y731248D1*
X3756749Y735121D1*
X3757664Y738898D1*
X3758322Y740478D1*
X3757635Y742343D1*
X3756735Y746123D1*
X3756437Y749997D1*
X3756749Y753871D1*
X3757664Y757647D1*
X3758322Y759227D1*
X3757635Y761093D1*
X3756735Y764873D1*
X3756437Y768748D1*
X3756749Y772621D1*
X3757664Y776398D1*
X3758322Y777978D1*
X3757635Y779844D1*
X3756735Y783624D1*
X3756437Y787499D1*
X3756687Y790604D1*
X3754927Y788657D1*
X3751968Y786139D1*
X3748651Y784115D1*
X3745058Y782635D1*
X3741277Y781735D1*
X3737403Y781437D1*
X3733530Y781749D1*
X3729753Y782664D1*
X3726166Y784158D1*
X3722856Y786194D1*
X3719906Y788724D1*
X3717388Y791683D1*
X3715364Y795000D1*
X3713884Y798593D1*
X3712984Y802373D1*
X3712686Y806248D1*
X3712999Y810121D1*
X3713913Y813898D1*
X3715407Y817485D1*
X3717444Y820795D1*
X3718281Y821771D1*
X3717389Y822934D1*
X3715365Y826251D1*
X3713885Y829844D1*
X3712985Y833624D1*
X3712688Y837499D1*
X3713000Y841372D1*
X3713914Y845149D1*
X3715408Y848736D1*
X3717445Y852045D1*
X3718282Y853022D1*
X3717389Y854183D1*
X3715365Y857500D1*
X3713885Y861093D1*
X3712985Y864873D1*
X3712688Y868748D1*
X3713000Y872621D1*
X3713914Y876398D1*
X3715408Y879985D1*
X3717445Y883295D1*
X3719974Y886245D1*
X3722934Y888763D1*
X3726251Y890787D1*
X3729844Y892267D1*
X3733624Y893167D1*
X3737499Y893465D1*
X3741372Y893152D1*
X3745149Y892238D1*
X3748736Y890744D1*
X3752045Y888707D1*
X3754995Y886178D1*
X3757513Y883218D1*
X3759537Y879901D1*
X3761018Y876308D1*
X3761918Y872528D1*
X3762215Y868701D1*
X3761903Y864780D1*
X3760989Y861004D1*
X3759495Y857416D1*
X3757458Y854107D1*
X3756621Y853130D1*
X3757513Y851969D1*
X3759537Y848652D1*
X3761018Y845059D1*
X3761918Y841279D1*
X3762215Y837451D1*
X3761903Y833531D1*
X3760989Y829754D1*
X3759495Y826167D1*
X3757458Y822858D1*
X3756621Y821881D1*
X3757512Y820718D1*
X3759309Y817774D1*
X3761194Y820795D1*
X3763724Y823745D1*
X3766683Y826263D1*
X3770000Y828287D1*
X3773593Y829767D1*
X3777373Y830667D1*
X3781248Y830965D1*
X3785121Y830652D1*
X3788898Y829738D1*
X3792485Y828244D1*
X3795795Y826207D1*
X3798745Y823678D1*
X3801263Y820718D1*
X3803287Y817401D1*
X3804767Y813808D1*
X3805667Y810028D1*
X3805965Y806201D1*
X3805652Y802280D1*
X3804738Y798504D1*
X3804080Y796924D1*
X3804767Y795059D1*
X3805667Y791279D1*
X3805965Y787451D1*
X3805652Y783531D1*
X2636903Y961656D2*
X2635989Y957879D1*
X2634495Y954292D1*
X2632458Y950982D1*
X2629929Y948032D1*
X2626969Y945514D1*
X2623652Y943490D1*
X2620059Y942010D1*
X2616279Y941110D1*
X2612404Y940812D1*
X2608531Y941125D1*
X2604754Y942039D1*
X2601167Y943533D1*
X2597858Y945570D1*
X2594908Y948099D1*
X2592389Y951058D1*
X2590365Y954376D1*
X2588885Y957969D1*
X2587985Y961749D1*
X2587688Y965623D1*
X2588000Y969497D1*
X2588914Y973273D1*
X2590408Y976861D1*
X2592445Y980170D1*
X2594974Y983120D1*
X2597934Y985638D1*
X2601251Y987662D1*
X2604844Y989142D1*
X2608624Y990042D1*
X2612499Y990340D1*
X2616372Y990028D1*
X2620149Y989113D1*
X2623736Y987619D1*
X2627045Y985583D1*
X2629995Y983053D1*
X2632513Y980094D1*
X2634537Y976777D1*
X2636018Y973184D1*
X2636918Y969403D1*
X2637215Y965576D1*
X2636903Y961656D1*
X3049402Y1952280D2*
X3048487Y1948504D1*
X3046993Y1944916D1*
X3044957Y1941607D1*
X3042427Y1938657D1*
X3039468Y1936139D1*
X3036151Y1934115D1*
X3032558Y1932635D1*
X3028777Y1931735D1*
X3024903Y1931437D1*
X3021030Y1931749D1*
X3017253Y1932664D1*
X3015673Y1933322D1*
X3013808Y1932635D1*
X3010028Y1931735D1*
X3006154Y1931437D1*
X3002280Y1931749D1*
X2998504Y1932664D1*
X2996924Y1933322D1*
X2995059Y1932635D1*
X2991279Y1931735D1*
X2987404Y1931437D1*
X2983531Y1931749D1*
X2979754Y1932664D1*
X2976167Y1934158D1*
X2972858Y1936194D1*
X2969908Y1938724D1*
X2967389Y1941683D1*
X2965365Y1945000D1*
X2963885Y1948593D1*
X2962985Y1952373D1*
X2962688Y1956248D1*
X2963000Y1960121D1*
X2963914Y1963898D1*
X2965408Y1967485D1*
X2967445Y1970795D1*
X2969974Y1973745D1*
X2972934Y1976263D1*
X2976251Y1978287D1*
X2979844Y1979767D1*
X2983624Y1980667D1*
X2987499Y1980965D1*
X2991372Y1980652D1*
X2995149Y1979738D1*
X2996729Y1979080D1*
X2998593Y1979767D1*
X3002373Y1980667D1*
X3006248Y1980965D1*
X3010121Y1980652D1*
X3013898Y1979738D1*
X3015478Y1979080D1*
X3017343Y1979767D1*
X3021123Y1980667D1*
X3024997Y1980965D1*
X3028871Y1980652D1*
X3032647Y1979738D1*
X3036235Y1978244D1*
X3039544Y1976207D1*
X3042494Y1973678D1*
X3045012Y1970718D1*
X3047036Y1967401D1*
X3048516Y1963808D1*
X3049416Y1960028D1*
X3049714Y1956201D1*
X3049402Y1952280D1*
X749402Y1077280D2*
X748487Y1073504D1*
X746993Y1069916D1*
X746578Y1069241D1*
X747777Y1066775D1*
X748998Y1063086D1*
X749627Y1059252D1*
X749714Y1057175D1*
X749402Y1053254D1*
X748487Y1049477D1*
X746993Y1045890D1*
X744957Y1042581D1*
X742427Y1039631D1*
X739468Y1037113D1*
X736151Y1035088D1*
X732558Y1033608D1*
X728777Y1032708D1*
X724903Y1032411D1*
X721030Y1032723D1*
X717253Y1033637D1*
X713666Y1035131D1*
X710356Y1037168D1*
X707406Y1039697D1*
X704888Y1042657D1*
X702864Y1045974D1*
X701384Y1049567D1*
X700484Y1053347D1*
X700186Y1057222D1*
X700499Y1061095D1*
X701413Y1064872D1*
X702907Y1068459D1*
X703323Y1069134D1*
X702864Y1070000D1*
X701384Y1073593D1*
X700484Y1077373D1*
X700186Y1081248D1*
X700499Y1085121D1*
X701413Y1088898D1*
X702907Y1092485D1*
X703613Y1093633D1*
X702123Y1096600D1*
X700902Y1100289D1*
X700274Y1104124D1*
X700252Y1108010D1*
X700840Y1111851D1*
X702020Y1115553D1*
X703590Y1118676D1*
X702864Y1120000D1*
X701384Y1123593D1*
X700484Y1127373D1*
X700186Y1131248D1*
X700499Y1135121D1*
X701413Y1138898D1*
X702907Y1142485D1*
X703613Y1143633D1*
X702864Y1145000D1*
X701384Y1148593D1*
X700484Y1152373D1*
X700186Y1156248D1*
X700499Y1160121D1*
X701413Y1163898D1*
X702907Y1167485D1*
X703613Y1168633D1*
X702864Y1170000D1*
X701384Y1173593D1*
X700484Y1177373D1*
X700186Y1181248D1*
X700499Y1185121D1*
X701413Y1188898D1*
X702907Y1192485D1*
X704944Y1195795D1*
X707473Y1198745D1*
X710432Y1201263D1*
X713750Y1203287D1*
X717343Y1204767D1*
X721123Y1205667D1*
X724997Y1205965D1*
X728871Y1205652D1*
X732647Y1204738D1*
X736235Y1203244D1*
X739544Y1201207D1*
X742494Y1198678D1*
X745012Y1195718D1*
X747036Y1192401D1*
X748516Y1188808D1*
X749416Y1185028D1*
X749714Y1181201D1*
X749402Y1177280D1*
X748487Y1173504D1*
X746993Y1169916D1*
X746287Y1168769D1*
X747036Y1167401D1*
X748516Y1163808D1*
X749416Y1160028D1*
X749714Y1156201D1*
X749402Y1152280D1*
X748487Y1148504D1*
X746993Y1144916D1*
X746287Y1143769D1*
X747036Y1142401D1*
X748516Y1138808D1*
X749416Y1135028D1*
X749714Y1131201D1*
X749402Y1127280D1*
X748487Y1123504D1*
X746993Y1119916D1*
X746287Y1118769D1*
X747777Y1115802D1*
X748998Y1112113D1*
X749627Y1108278D1*
X749714Y1106201D1*
X749402Y1102280D1*
X748487Y1098504D1*
X746993Y1094916D1*
X746287Y1093769D1*
X747036Y1092401D1*
X748516Y1088808D1*
X749416Y1085028D1*
X749714Y1081201D1*
X749402Y1077280D1*
X1168152Y1050654D2*
X1167238Y1046878D1*
X1165744Y1043290D1*
X1163707Y1039981D1*
X1161178Y1037031D1*
X1158218Y1034513D1*
X1154901Y1032489D1*
X1151308Y1031009D1*
X1147528Y1030109D1*
X1143654Y1029811D1*
X1139780Y1030123D1*
X1136004Y1031038D1*
X1132416Y1032532D1*
X1129107Y1034568D1*
X1126157Y1037098D1*
X1123639Y1040057D1*
X1121615Y1043374D1*
X1120135Y1046967D1*
X1119235Y1050747D1*
X1118937Y1054622D1*
X1119249Y1058495D1*
X1120164Y1062272D1*
X1121658Y1065859D1*
X1123694Y1069169D1*
X1126224Y1072119D1*
X1129183Y1074637D1*
X1132500Y1076661D1*
X1136093Y1078141D1*
X1139873Y1079041D1*
X1143748Y1079339D1*
X1147621Y1079026D1*
X1151398Y1078112D1*
X1154985Y1076618D1*
X1158295Y1074581D1*
X1161245Y1072052D1*
X1163763Y1069092D1*
X1165787Y1065775D1*
X1167267Y1062182D1*
X1168167Y1058402D1*
X1168465Y1054575D1*
X1168152Y1050654D1*
X1384392Y1050328D2*
X1383478Y1046551D1*
X1381984Y1042964D1*
X1379948Y1039654D1*
X1377418Y1036704D1*
X1374459Y1034186D1*
X1371141Y1032162D1*
X1367549Y1030682D1*
X1363768Y1029782D1*
X1359894Y1029484D1*
X1356021Y1029797D1*
X1352244Y1030711D1*
X1348656Y1032205D1*
X1345347Y1034241D1*
X1342397Y1036771D1*
X1339879Y1039730D1*
X1337855Y1043048D1*
X1336375Y1046640D1*
X1335475Y1050421D1*
X1335177Y1054295D1*
X1335489Y1058168D1*
X1336404Y1061945D1*
X1337898Y1065533D1*
X1339934Y1068842D1*
X1342464Y1071792D1*
X1345423Y1074310D1*
X1348740Y1076334D1*
X1352333Y1077814D1*
X1356114Y1078714D1*
X1359988Y1079012D1*
X1363861Y1078700D1*
X1367638Y1077785D1*
X1371225Y1076291D1*
X1374535Y1074255D1*
X1377485Y1071725D1*
X1380003Y1068766D1*
X1382027Y1065449D1*
X1383507Y1061856D1*
X1384407Y1058075D1*
X1384705Y1054248D1*
X1384392Y1050328D1*
X1587474Y1051885D2*
X1586559Y1048109D1*
X1585066Y1044521D1*
X1583029Y1041212D1*
X1580500Y1038262D1*
X1577540Y1035744D1*
X1574223Y1033720D1*
X1570630Y1032240D1*
X1566850Y1031340D1*
X1562975Y1031042D1*
X1559102Y1031354D1*
X1555325Y1032269D1*
X1553745Y1032927D1*
X1551879Y1032240D1*
X1548099Y1031340D1*
X1544225Y1031042D1*
X1540351Y1031354D1*
X1536574Y1032269D1*
X1534994Y1032927D1*
X1533130Y1032240D1*
X1529350Y1031340D1*
X1525475Y1031042D1*
X1521602Y1031354D1*
X1517825Y1032269D1*
X1514238Y1033763D1*
X1510928Y1035799D1*
X1507978Y1038328D1*
X1505460Y1041288D1*
X1503436Y1044605D1*
X1501956Y1048198D1*
X1501056Y1051978D1*
X1500759Y1055853D1*
X1501071Y1059726D1*
X1501985Y1063503D1*
X1503479Y1067090D1*
X1505516Y1070400D1*
X1508045Y1073350D1*
X1511005Y1075868D1*
X1514322Y1077892D1*
X1517915Y1079372D1*
X1521695Y1080272D1*
X1525569Y1080570D1*
X1529443Y1080257D1*
X1533220Y1079343D1*
X1534799Y1078685D1*
X1536664Y1079372D1*
X1540444Y1080272D1*
X1544319Y1080570D1*
X1548192Y1080257D1*
X1551969Y1079343D1*
X1553549Y1078685D1*
X1555415Y1079372D1*
X1559195Y1080272D1*
X1563069Y1080570D1*
X1566943Y1080257D1*
X1570720Y1079343D1*
X1574307Y1077849D1*
X1577616Y1075812D1*
X1580566Y1073283D1*
X1583084Y1070323D1*
X1585108Y1067006D1*
X1586589Y1063413D1*
X1587489Y1059633D1*
X1587786Y1055806D1*
X1587474Y1051885D1*
X3110159Y1051418D2*
X3109244Y1047641D1*
X3107751Y1044054D1*
X3105714Y1040745D1*
X3103185Y1037795D1*
X3100225Y1035277D1*
X3096908Y1033253D1*
X3093315Y1031772D1*
X3089535Y1030872D1*
X3085660Y1030575D1*
X3081787Y1030887D1*
X3078010Y1031801D1*
X3074423Y1033295D1*
X3071113Y1035332D1*
X3068163Y1037861D1*
X3065645Y1040821D1*
X3063621Y1044138D1*
X3062141Y1047731D1*
X3061241Y1051511D1*
X3060944Y1055386D1*
X3061256Y1059259D1*
X3062170Y1063036D1*
X3063664Y1066623D1*
X3065701Y1069932D1*
X3068230Y1072883D1*
X3071190Y1075401D1*
X3074507Y1077425D1*
X3078100Y1078905D1*
X3081880Y1079805D1*
X3085754Y1080102D1*
X3089628Y1079790D1*
X3093405Y1078876D1*
X3096992Y1077382D1*
X3100301Y1075345D1*
X3103251Y1072816D1*
X3105769Y1069856D1*
X3107793Y1066539D1*
X3109274Y1062946D1*
X3110174Y1059166D1*
X3110471Y1055339D1*
X3110159Y1051418D1*
X3326789Y1051216D2*
X3325874Y1047439D1*
X3324381Y1043852D1*
X3322344Y1040543D1*
X3319815Y1037593D1*
X3316855Y1035075D1*
X3313538Y1033050D1*
X3309945Y1031570D1*
X3306165Y1030670D1*
X3302290Y1030373D1*
X3298417Y1030685D1*
X3294640Y1031599D1*
X3291053Y1033093D1*
X3287743Y1035130D1*
X3284793Y1037659D1*
X3282275Y1040619D1*
X3280251Y1043936D1*
X3278771Y1047529D1*
X3277871Y1051309D1*
X3277574Y1055184D1*
X3277886Y1059057D1*
X3278800Y1062834D1*
X3280294Y1066421D1*
X3282331Y1069730D1*
X3284860Y1072680D1*
X3287820Y1075198D1*
X3291137Y1077223D1*
X3294730Y1078703D1*
X3298510Y1079603D1*
X3302384Y1079900D1*
X3306258Y1079588D1*
X3310035Y1078674D1*
X3313622Y1077180D1*
X3316931Y1075143D1*
X3319881Y1072614D1*
X3322399Y1069654D1*
X3324423Y1066337D1*
X3325904Y1062744D1*
X3326803Y1058964D1*
X3327101Y1055136D1*
X3326789Y1051216D1*
X2674850Y2327072D2*
X2673184Y2326385D1*
X2669403Y2325485D1*
X2665529Y2325188D1*
X2661656Y2325500D1*
X2657879Y2326414D1*
X2654292Y2327908D1*
X2650982Y2329945D1*
X2648032Y2332474D1*
X2645514Y2335434D1*
X2643490Y2338751D1*
X2642010Y2342344D1*
X2641110Y2346124D1*
X2640812Y2349999D1*
X2641125Y2353872D1*
X2642039Y2357649D1*
X2643533Y2361236D1*
X2645570Y2364545D1*
X2648099Y2367495D1*
X2651058Y2370013D1*
X2654376Y2372037D1*
X2657969Y2373518D1*
X2661749Y2374418D1*
X2665623Y2374715D1*
X2669497Y2374403D1*
X2673273Y2373489D1*
X2674853Y2372831D1*
X2676718Y2373518D1*
X2680498Y2374418D1*
X2684373Y2374715D1*
X2688246Y2374403D1*
X2692023Y2373489D1*
X2693603Y2372831D1*
X2695469Y2373518D1*
X2699249Y2374418D1*
X2703123Y2374715D1*
X2706997Y2374403D1*
X2710773Y2373489D1*
X2714361Y2371995D1*
X2717670Y2369958D1*
X2720620Y2367429D1*
X2723138Y2364469D1*
X2725162Y2361152D1*
X2726642Y2357559D1*
X2727542Y2353779D1*
X2727840Y2349951D1*
X2727528Y2346031D1*
X2726613Y2342254D1*
X2725119Y2338667D1*
X2723083Y2335358D1*
X2720553Y2332408D1*
X2717594Y2329889D1*
X2714277Y2327865D1*
X2710684Y2326385D1*
X2706903Y2325485D1*
X2703029Y2325188D1*
X2699156Y2325500D1*
X2695379Y2326414D1*
X2693799Y2327072D1*
X2691933Y2326385D1*
X2688153Y2325485D1*
X2684278Y2325188D1*
X2680405Y2325500D1*
X2676628Y2326414D1*
X2675048Y2327072D1*
X2674850D1*
X1373357Y1523438D2*
X1374782Y1526861D1*
X1376819Y1530170D1*
X1379348Y1533120D1*
X1382308Y1535638D1*
X1385625Y1537662D1*
X1389218Y1539142D1*
X1392998Y1540042D1*
X1396873Y1540340D1*
X1400746Y1540028D1*
X1404523Y1539113D1*
X1408110Y1537619D1*
X1411419Y1535583D1*
X1414369Y1533053D1*
X1416887Y1530094D1*
X1418912Y1526777D1*
X1420392Y1523184D1*
X1421292Y1519403D1*
X1421589Y1515576D1*
X1421404Y1513252D1*
X1423745Y1511178D1*
X1426263Y1508218D1*
X1428287Y1504901D1*
X1429767Y1501308D1*
X1430667Y1497528D1*
X1430965Y1493701D1*
X1430652Y1489780D1*
X1429738Y1486004D1*
X1428244Y1482416D1*
X1426207Y1479107D1*
X1423678Y1476157D1*
X1420718Y1473639D1*
X1417401Y1471615D1*
X1413808Y1470135D1*
X1410028Y1469235D1*
X1406154Y1468937D1*
X1402280Y1469249D1*
X1398504Y1470164D1*
X1394916Y1471658D1*
X1391607Y1473694D1*
X1388657Y1476224D1*
X1388581Y1476313D1*
X1385028Y1475484D1*
X1381154Y1475186D1*
X1377280Y1475499D1*
X1373504Y1476413D1*
X1369916Y1477907D1*
X1366607Y1479944D1*
X1363657Y1482473D1*
X1361139Y1485432D1*
X1359115Y1488750D1*
X1357635Y1492343D1*
X1356735Y1496123D1*
X1356437Y1499997D1*
X1356749Y1503871D1*
X1357664Y1507647D1*
X1359158Y1511235D1*
X1361194Y1514544D1*
X1363724Y1517494D1*
X1366683Y1520012D1*
X1370000Y1522036D1*
X1373330Y1523408D1*
X543799Y2027072D2*
X545379Y2026414D1*
X549156Y2025500D1*
X553029Y2025188D1*
X556903Y2025485D1*
X560684Y2026385D1*
X562548Y2027072D1*
X564128Y2026414D1*
X567905Y2025500D1*
X571778Y2025188D1*
X575653Y2025485D1*
X579433Y2026385D1*
X581299Y2027072D1*
X582879Y2026414D1*
X586656Y2025500D1*
X590529Y2025188D1*
X594403Y2025485D1*
X598184Y2026385D1*
X600048Y2027072D1*
X601628Y2026414D1*
X605405Y2025500D1*
X609278Y2025188D1*
X613153Y2025485D1*
X616933Y2026385D1*
X618799Y2027072D1*
X620379Y2026414D1*
X624156Y2025500D1*
X628029Y2025188D1*
X631903Y2025485D1*
X635684Y2026385D1*
X637548Y2027072D1*
X639128Y2026414D1*
X642905Y2025500D1*
X646778Y2025188D1*
X650653Y2025485D1*
X654433Y2026385D1*
X656302Y2027071D1*
X656411Y2027025D1*
X656880Y2026764D1*
X657635Y2023593D1*
X659115Y2020000D1*
X661139Y2016683D1*
X663657Y2013724D1*
X666607Y2011194D1*
X669916Y2009158D1*
X673504Y2007664D1*
X675868Y2007018D1*
X676385Y2004844D1*
X677072Y2002978D1*
X676414Y2001398D1*
X675500Y1997621D1*
X675188Y1993748D1*
X675485Y1989873D1*
X676385Y1986093D1*
X677072Y1984229D1*
X676414Y1982649D1*
X675500Y1978872D1*
X675188Y1974999D1*
X675485Y1971124D1*
X676385Y1967344D1*
X677072Y1965478D1*
X676414Y1963898D1*
X675500Y1960121D1*
X675188Y1956248D1*
X675485Y1952373D1*
X676385Y1948593D1*
X677865Y1945000D1*
X679889Y1941683D1*
X682408Y1938724D1*
X685358Y1936194D1*
X688667Y1934158D1*
X692254Y1932664D1*
X696031Y1931749D1*
X699904Y1931437D1*
X703779Y1931735D1*
X707559Y1932635D1*
X711152Y1934115D1*
X714469Y1936139D1*
X717429Y1938657D1*
X719958Y1941607D1*
X721995Y1944916D1*
X723489Y1948504D1*
X724403Y1952280D1*
X724715Y1956201D1*
X724418Y1960028D1*
X723518Y1963808D1*
X722831Y1965674D1*
X723489Y1967254D1*
X724403Y1971031D1*
X724715Y1974951D1*
X724418Y1978779D1*
X723518Y1982559D1*
X722831Y1984424D1*
X723489Y1986004D1*
X724403Y1989780D1*
X724715Y1993701D1*
X724418Y1997528D1*
X723518Y2001308D1*
X722831Y2003174D1*
X723489Y2004754D1*
X724403Y2008531D1*
X724715Y2012451D1*
X724418Y2016279D1*
X723518Y2020059D1*
X722037Y2023652D1*
X720013Y2026969D1*
X717495Y2029929D1*
X714545Y2032458D1*
X711236Y2034495D1*
X707649Y2035989D1*
X705285Y2036634D1*
X704767Y2038808D1*
X703287Y2042401D1*
X701263Y2045718D1*
X698745Y2048678D1*
X695795Y2051207D1*
X692485Y2053244D1*
X689897Y2054388D1*
X689142Y2057559D1*
X687662Y2061152D1*
X685638Y2064469D1*
X683120Y2067429D1*
X680170Y2069958D1*
X676861Y2071995D1*
X673273Y2073489D1*
X669497Y2074403D1*
X665623Y2074715D1*
X661749Y2074418D1*
X657969Y2073518D1*
X656103Y2072831D1*
X654523Y2073489D1*
X650746Y2074403D1*
X646873Y2074715D1*
X642998Y2074418D1*
X639218Y2073518D1*
X637353Y2072831D1*
X635773Y2073489D1*
X631997Y2074403D1*
X628123Y2074715D1*
X624249Y2074418D1*
X620469Y2073518D1*
X618603Y2072831D1*
X617023Y2073489D1*
X613246Y2074403D1*
X609373Y2074715D1*
X605498Y2074418D1*
X601718Y2073518D1*
X599853Y2072831D1*
X598273Y2073489D1*
X594497Y2074403D1*
X590623Y2074715D1*
X586749Y2074418D1*
X582969Y2073518D1*
X581103Y2072831D1*
X579523Y2073489D1*
X575746Y2074403D1*
X571873Y2074715D1*
X567998Y2074418D1*
X564218Y2073518D1*
X562353Y2072831D1*
X560773Y2073489D1*
X556997Y2074403D1*
X553123Y2074715D1*
X549249Y2074418D1*
X545469Y2073518D1*
X543603Y2072831D1*
X542023Y2073489D1*
X538246Y2074403D1*
X534373Y2074715D1*
X530498Y2074418D1*
X526718Y2073518D1*
X523125Y2072037D1*
X519808Y2070013D1*
X516848Y2067495D1*
X514319Y2064545D1*
X512282Y2061236D1*
X510788Y2057649D1*
X509946Y2054294D1*
X507500Y2053287D1*
X504183Y2051263D1*
X501224Y2048745D1*
X498694Y2045795D1*
X496658Y2042485D1*
X495164Y2038898D1*
X494518Y2036535D1*
X492344Y2036018D1*
X488751Y2034537D1*
X485434Y2032513D1*
X482474Y2029995D1*
X479945Y2027045D1*
X477908Y2023736D1*
X476414Y2020149D1*
X475500Y2016372D1*
X475188Y2012499D1*
X475485Y2008624D1*
X476385Y2004844D1*
X477072Y2002978D1*
X476414Y2001398D1*
X475500Y1997621D1*
X475188Y1993748D1*
X475485Y1989873D1*
X476385Y1986093D1*
X477072Y1984229D1*
X476414Y1982649D1*
X475500Y1978872D1*
X475188Y1974999D1*
X475485Y1971124D1*
X476385Y1967344D1*
X477072Y1965478D1*
X476414Y1963898D1*
X475500Y1960121D1*
X475188Y1956248D1*
X475485Y1952373D1*
X476385Y1948593D1*
X477865Y1945000D1*
X479889Y1941683D1*
X482408Y1938724D1*
X485358Y1936194D1*
X488667Y1934158D1*
X492254Y1932664D1*
X496031Y1931749D1*
X499904Y1931437D1*
X503779Y1931735D1*
X507559Y1932635D1*
X511152Y1934115D1*
X514469Y1936139D1*
X517429Y1938657D1*
X519958Y1941607D1*
X521995Y1944916D1*
X523489Y1948504D1*
X524403Y1952280D1*
X524715Y1956201D1*
X524418Y1960028D1*
X523518Y1963808D1*
X522831Y1965674D1*
X523489Y1967254D1*
X524403Y1971031D1*
X524715Y1974951D1*
X524418Y1978779D1*
X523518Y1982559D1*
X522831Y1984424D1*
X523489Y1986004D1*
X524403Y1989780D1*
X524715Y1993701D1*
X524418Y1997528D1*
X523518Y2001308D1*
X522831Y2003174D1*
X523489Y2004754D1*
X524036Y2007015D1*
X524134Y2007117D1*
X526308Y2007635D1*
X529901Y2009115D1*
X533218Y2011139D1*
X536178Y2013657D1*
X538707Y2016607D1*
X540744Y2019916D1*
X542238Y2023504D1*
X543080Y2026858D1*
X543599Y2027071D1*
X543799Y2027072D1*
X2299402Y839780D2*
X2298487Y836004D1*
X2296993Y832416D1*
X2294957Y829107D1*
X2292427Y826157D1*
X2289468Y823639D1*
X2286151Y821615D1*
X2282558Y820135D1*
X2278777Y819235D1*
X2274903Y818937D1*
X2271030Y819249D1*
X2267253Y820164D1*
X2263666Y821658D1*
X2260356Y823694D1*
X2257406Y826224D1*
X2254888Y829183D1*
X2252864Y832500D1*
X2251384Y836093D1*
X2250484Y839873D1*
X2250186Y843748D1*
X2250499Y847621D1*
X2251413Y851398D1*
X2252907Y854985D1*
X2254944Y858295D1*
X2257473Y861245D1*
X2260432Y863763D1*
X2263750Y865787D1*
X2267343Y867267D1*
X2271123Y868167D1*
X2274997Y868465D1*
X2278871Y868152D1*
X2282647Y867238D1*
X2286235Y865744D1*
X2289544Y863707D1*
X2292494Y861178D1*
X2295012Y858218D1*
X2297036Y854901D1*
X2298516Y851308D1*
X2299416Y847528D1*
X2299714Y843701D1*
X2299402Y839780D1*
X2515352Y905729D2*
X2514437Y901952D1*
X2512944Y898365D1*
X2510907Y895056D1*
X2508378Y892106D1*
X2505418Y889588D1*
X2502101Y887564D1*
X2498508Y886083D1*
X2494728Y885183D1*
X2490853Y884886D1*
X2486980Y885198D1*
X2483203Y886112D1*
X2479616Y887606D1*
X2476306Y889643D1*
X2473356Y892172D1*
X2470838Y895132D1*
X2468814Y898449D1*
X2467334Y902042D1*
X2466434Y905822D1*
X2466137Y909697D1*
X2466449Y913570D1*
X2467363Y917347D1*
X2468857Y920934D1*
X2470894Y924243D1*
X2473423Y927194D1*
X2476383Y929712D1*
X2479700Y931736D1*
X2483293Y933216D1*
X2487073Y934116D1*
X2490947Y934413D1*
X2494821Y934101D1*
X2498597Y933187D1*
X2502185Y931693D1*
X2505494Y929656D1*
X2508444Y927127D1*
X2510962Y924167D1*
X2512986Y920850D1*
X2514467Y917257D1*
X2515366Y913477D1*
X2515664Y909650D1*
X2515352Y905729D1*
X2636902Y861656D2*
X2635987Y857879D1*
X2634493Y854292D1*
X2632457Y850982D1*
X2629927Y848032D1*
X2626968Y845514D1*
X2623651Y843490D1*
X2620058Y842010D1*
X2616277Y841110D1*
X2612403Y840812D1*
X2608530Y841125D1*
X2604753Y842039D1*
X2601166Y843533D1*
X2597856Y845570D1*
X2594906Y848099D1*
X2592388Y851058D1*
X2590364Y854376D1*
X2588884Y857969D1*
X2587984Y861749D1*
X2587686Y865623D1*
X2587999Y869497D1*
X2588913Y873273D1*
X2590407Y876861D1*
X2592444Y880170D1*
X2594973Y883120D1*
X2597932Y885638D1*
X2601250Y887662D1*
X2604843Y889142D1*
X2608623Y890042D1*
X2612497Y890340D1*
X2616371Y890028D1*
X2620147Y889113D1*
X2623735Y887619D1*
X2627044Y885583D1*
X2629994Y883053D1*
X2632512Y880094D1*
X2634536Y876777D1*
X2636016Y873184D1*
X2636916Y869403D1*
X2637214Y865576D1*
X2636902Y861656D1*
X983777Y2224156D2*
X982863Y2220379D1*
X981369Y2216792D1*
X979332Y2213482D1*
X976803Y2210532D1*
X973843Y2208014D1*
X970526Y2205990D1*
X966933Y2204510D1*
X963153Y2203610D1*
X959278Y2203312D1*
X955405Y2203625D1*
X951628Y2204539D1*
X948041Y2206033D1*
X944732Y2208070D1*
X941782Y2210599D1*
X939263Y2213558D1*
X937239Y2216876D1*
X935759Y2220469D1*
X934859Y2224249D1*
X934562Y2228123D1*
X934874Y2231997D1*
X935788Y2235773D1*
X937282Y2239361D1*
X939319Y2242670D1*
X941848Y2245620D1*
X944808Y2248138D1*
X948125Y2250162D1*
X951718Y2251642D1*
X955498Y2252542D1*
X959373Y2252840D1*
X963246Y2252528D1*
X967023Y2251613D1*
X970610Y2250119D1*
X973919Y2248083D1*
X976869Y2245553D1*
X979387Y2242594D1*
X981412Y2239277D1*
X982892Y2235684D1*
X983792Y2231903D1*
X984089Y2228076D1*
X983777Y2224156D1*
X1388581Y1476313D2*
X1388657Y1476224D1*
X1391607Y1473694D1*
X1394916Y1471658D1*
X1398504Y1470164D1*
X1402280Y1469249D1*
X1406154Y1468937D1*
X1410028Y1469235D1*
X1413808Y1470135D1*
X1417401Y1471615D1*
X1420718Y1473639D1*
X1423678Y1476157D1*
X1426207Y1479107D1*
X1428244Y1482416D1*
X1429738Y1486004D1*
X1430652Y1489780D1*
X1430965Y1493701D1*
X1430667Y1497528D1*
X1429767Y1501308D1*
X1428287Y1504901D1*
X1426263Y1508218D1*
X1423745Y1511178D1*
X1421466Y1513132D1*
X2021277Y1905405D2*
X2020363Y1901628D1*
X2018869Y1898041D1*
X2016832Y1894732D1*
X2014303Y1891782D1*
X2011343Y1889263D1*
X2008026Y1887239D1*
X2004433Y1885759D1*
X2000653Y1884859D1*
X1996778Y1884562D1*
X1992905Y1884874D1*
X1989128Y1885788D1*
X1985541Y1887282D1*
X1982232Y1889319D1*
X1979282Y1891848D1*
X1976763Y1894808D1*
X1974739Y1898125D1*
X1973259Y1901718D1*
X1972359Y1905498D1*
X1972062Y1909373D1*
X1972374Y1913246D1*
X1973288Y1917023D1*
X1974782Y1920610D1*
X1976819Y1923919D1*
X1979348Y1926869D1*
X1982308Y1929387D1*
X1985625Y1931412D1*
X1989218Y1932892D1*
X1992998Y1933792D1*
X1996873Y1934089D1*
X2000746Y1933777D1*
X2004523Y1932863D1*
X2008110Y1931369D1*
X2011419Y1929332D1*
X2014369Y1926803D1*
X2016887Y1923843D1*
X2018912Y1920526D1*
X2020392Y1916933D1*
X2021292Y1913153D1*
X2021589Y1909325D1*
X2021277Y1905405D1*
X2161902Y2124156D2*
X2160987Y2120379D1*
X2159493Y2116792D1*
X2157457Y2113482D1*
X2154927Y2110532D1*
X2151968Y2108014D1*
X2148651Y2105990D1*
X2145058Y2104510D1*
X2141277Y2103610D1*
X2137403Y2103312D1*
X2133530Y2103625D1*
X2129753Y2104539D1*
X2126166Y2106033D1*
X2122856Y2108070D1*
X2119906Y2110599D1*
X2117388Y2113558D1*
X2115364Y2116876D1*
X2113884Y2120469D1*
X2112984Y2124249D1*
X2112686Y2128123D1*
X2112999Y2131997D1*
X2113913Y2135773D1*
X2115407Y2139361D1*
X2117444Y2142670D1*
X2119973Y2145620D1*
X2122932Y2148138D1*
X2126250Y2150162D1*
X2129843Y2151642D1*
X2133623Y2152542D1*
X2137497Y2152840D1*
X2141371Y2152528D1*
X2145147Y2151613D1*
X2148735Y2150119D1*
X2152044Y2148083D1*
X2154994Y2145553D1*
X2157512Y2142594D1*
X2159536Y2139277D1*
X2161016Y2135684D1*
X2161916Y2131903D1*
X2162214Y2128076D1*
X2161902Y2124156D1*
X2252529Y2146030D2*
X2251615Y2142253D1*
X2250121Y2138666D1*
X2248084Y2135356D1*
X2245555Y2132406D1*
X2242595Y2129888D1*
X2239278Y2127864D1*
X2235685Y2126384D1*
X2231905Y2125484D1*
X2228030Y2125186D1*
X2224157Y2125499D1*
X2220380Y2126413D1*
X2216793Y2127907D1*
X2213484Y2129944D1*
X2210534Y2132473D1*
X2208015Y2135432D1*
X2205991Y2138750D1*
X2204511Y2142343D1*
X2203611Y2146123D1*
X2203314Y2149997D1*
X2203626Y2153871D1*
X2204540Y2157647D1*
X2206034Y2161235D1*
X2208071Y2164544D1*
X2210600Y2167494D1*
X2213560Y2170012D1*
X2216877Y2172036D1*
X2220470Y2173516D1*
X2224250Y2174416D1*
X2228125Y2174714D1*
X2231998Y2174402D1*
X2235775Y2173487D1*
X2239362Y2171993D1*
X2242671Y2169957D1*
X2245621Y2167427D1*
X2248139Y2164468D1*
X2250163Y2161151D1*
X2251644Y2157558D1*
X2252544Y2153777D1*
X2252841Y2149950D1*
X2252529Y2146030D1*
X1077444Y765541D2*
X1076529Y761765D1*
X1075035Y758177D1*
X1072999Y754868D1*
X1070469Y751918D1*
X1067510Y749400D1*
X1064193Y747376D1*
X1060600Y745896D1*
X1056819Y744996D1*
X1052945Y744698D1*
X1049072Y745010D1*
X1045295Y745925D1*
X1041708Y747419D1*
X1038398Y749455D1*
X1035448Y751985D1*
X1032930Y754944D1*
X1030906Y758261D1*
X1029426Y761854D1*
X1028526Y765635D1*
X1028228Y769509D1*
X1028541Y773382D1*
X1029455Y777159D1*
X1030949Y780746D1*
X1032986Y784056D1*
X1035515Y787006D1*
X1038474Y789524D1*
X1041792Y791548D1*
X1045385Y793028D1*
X1049165Y793928D1*
X1053039Y794226D1*
X1056913Y793913D1*
X1060689Y792999D1*
X1064277Y791505D1*
X1067586Y789469D1*
X1070536Y786939D1*
X1073054Y783980D1*
X1075078Y780662D1*
X1076558Y777070D1*
X1077458Y773289D1*
X1077756Y769462D1*
X1077444Y765541D1*
X1377528Y2289780D2*
X1376613Y2286004D1*
X1375119Y2282416D1*
X1373083Y2279107D1*
X1370553Y2276157D1*
X1367594Y2273639D1*
X1364277Y2271615D1*
X1360684Y2270135D1*
X1356903Y2269235D1*
X1353029Y2268937D1*
X1349156Y2269249D1*
X1345379Y2270164D1*
X1341792Y2271658D1*
X1338482Y2273694D1*
X1335532Y2276224D1*
X1333014Y2279183D1*
X1330990Y2282500D1*
X1329510Y2286093D1*
X1328610Y2289873D1*
X1328312Y2293748D1*
X1328625Y2297621D1*
X1329539Y2301398D1*
X1331033Y2304985D1*
X1333070Y2308295D1*
X1335599Y2311245D1*
X1338558Y2313763D1*
X1341876Y2315787D1*
X1345469Y2317267D1*
X1349249Y2318167D1*
X1353123Y2318465D1*
X1356997Y2318152D1*
X1360773Y2317238D1*
X1364361Y2315744D1*
X1367670Y2313707D1*
X1370620Y2311178D1*
X1373138Y2308218D1*
X1375162Y2304901D1*
X1376642Y2301308D1*
X1377542Y2297528D1*
X1377840Y2293701D1*
X1377528Y2289780D1*
X1813213Y1825717D2*
X1812298Y1821941D1*
X1810804Y1818353D1*
X1808768Y1815044D1*
X1806238Y1812094D1*
X1803279Y1809576D1*
X1799962Y1807552D1*
X1796369Y1806072D1*
X1792589Y1805172D1*
X1788714Y1804874D1*
X1784841Y1805186D1*
X1781064Y1806101D1*
X1777477Y1807595D1*
X1774167Y1809631D1*
X1771217Y1812161D1*
X1768699Y1815120D1*
X1766675Y1818437D1*
X1765195Y1822030D1*
X1764295Y1825810D1*
X1763997Y1829685D1*
X1764310Y1833558D1*
X1765224Y1837335D1*
X1766718Y1840922D1*
X1768755Y1844232D1*
X1771284Y1847182D1*
X1774244Y1849700D1*
X1777561Y1851724D1*
X1781154Y1853204D1*
X1784934Y1854104D1*
X1788808Y1854402D1*
X1792682Y1854089D1*
X1796458Y1853175D1*
X1800046Y1851681D1*
X1803355Y1849644D1*
X1806305Y1847115D1*
X1808823Y1844155D1*
X1810847Y1840838D1*
X1812327Y1837245D1*
X1813227Y1833465D1*
X1813525Y1829638D1*
X1813213Y1825717D1*
X1812298Y1821941D1*
X1810804Y1818353D1*
X1808768Y1815044D1*
X1806238Y1812094D1*
X1803279Y1809576D1*
X1799962Y1807552D1*
X1796369Y1806072D1*
X1792589Y1805172D1*
X1788714Y1804874D1*
X1784841Y1805186D1*
X1781064Y1806101D1*
X1777477Y1807595D1*
X1774167Y1809631D1*
X1771217Y1812161D1*
X1768699Y1815120D1*
X1766675Y1818437D1*
X1765195Y1822030D1*
X1764295Y1825810D1*
X1763997Y1829685D1*
X1764310Y1833558D1*
X1765224Y1837335D1*
X1766718Y1840922D1*
X1768755Y1844232D1*
X1771284Y1847182D1*
X1774244Y1849700D1*
X1777561Y1851724D1*
X1781154Y1853204D1*
X1784934Y1854104D1*
X1788808Y1854402D1*
X1792682Y1854089D1*
X1796458Y1853175D1*
X1800046Y1851681D1*
X1803355Y1849644D1*
X1806305Y1847115D1*
X1808823Y1844155D1*
X1810847Y1840838D1*
X1812327Y1837245D1*
X1813227Y1833465D1*
X1813525Y1829638D1*
X1813213Y1825717D1*
X1443152Y896031D2*
X1442238Y892254D1*
X1440744Y888667D1*
X1438707Y885358D1*
X1436178Y882408D1*
X1433218Y879889D1*
X1429901Y877865D1*
X1426308Y876385D1*
X1422528Y875485D1*
X1418654Y875188D1*
X1414780Y875500D1*
X1411004Y876414D1*
X1407416Y877908D1*
X1404107Y879945D1*
X1401157Y882474D1*
X1398639Y885434D1*
X1396615Y888751D1*
X1395135Y892344D1*
X1394235Y896124D1*
X1393937Y899999D1*
X1394249Y903872D1*
X1395164Y907649D1*
X1396658Y911236D1*
X1398694Y914545D1*
X1401224Y917495D1*
X1404183Y920013D1*
X1407500Y922037D1*
X1411093Y923518D1*
X1414873Y924418D1*
X1418748Y924715D1*
X1422621Y924403D1*
X1426398Y923489D1*
X1429985Y921995D1*
X1433295Y919958D1*
X1436245Y917429D1*
X1438763Y914469D1*
X1440787Y911152D1*
X1442267Y907559D1*
X1443167Y903779D1*
X1443465Y899951D1*
X1443152Y896031D1*
X1511903Y896030D2*
X1510989Y892253D1*
X1509495Y888666D1*
X1507458Y885356D1*
X1504929Y882406D1*
X1501969Y879888D1*
X1498652Y877864D1*
X1495059Y876384D1*
X1491279Y875484D1*
X1487404Y875186D1*
X1483531Y875499D1*
X1479754Y876413D1*
X1476167Y877907D1*
X1472858Y879944D1*
X1469908Y882473D1*
X1467389Y885432D1*
X1465365Y888750D1*
X1463885Y892343D1*
X1462985Y896123D1*
X1462688Y899997D1*
X1463000Y903871D1*
X1463914Y907647D1*
X1465408Y911235D1*
X1467445Y914544D1*
X1469974Y917494D1*
X1472934Y920012D1*
X1476251Y922036D1*
X1479844Y923516D1*
X1483624Y924416D1*
X1487499Y924714D1*
X1491372Y924402D1*
X1495149Y923487D1*
X1498736Y921993D1*
X1502045Y919957D1*
X1504995Y917427D1*
X1507513Y914468D1*
X1509537Y911151D1*
X1511018Y907558D1*
X1511918Y903777D1*
X1512215Y899950D1*
X1511903Y896030D1*
X1971277Y1936656D2*
X1970363Y1932879D1*
X1968869Y1929292D1*
X1966832Y1925982D1*
X1964303Y1923032D1*
X1961343Y1920514D1*
X1958026Y1918490D1*
X1954433Y1917010D1*
X1950653Y1916110D1*
X1946778Y1915812D1*
X1942905Y1916125D1*
X1939128Y1917039D1*
X1935541Y1918533D1*
X1932232Y1920570D1*
X1929282Y1923099D1*
X1926763Y1926058D1*
X1924739Y1929376D1*
X1923259Y1932969D1*
X1922359Y1936749D1*
X1922062Y1940623D1*
X1922374Y1944497D1*
X1923288Y1948273D1*
X1924782Y1951861D1*
X1926819Y1955170D1*
X1929348Y1958120D1*
X1932308Y1960638D1*
X1935625Y1962662D1*
X1939218Y1964142D1*
X1942998Y1965042D1*
X1946873Y1965340D1*
X1950746Y1965028D1*
X1954523Y1964113D1*
X1958110Y1962619D1*
X1961419Y1960583D1*
X1964369Y1958053D1*
X1966887Y1955094D1*
X1968912Y1951777D1*
X1970392Y1948184D1*
X1971292Y1944403D1*
X1971589Y1940576D1*
X1971277Y1936656D1*
X2049402Y2002280D2*
X2048487Y1998504D1*
X2046993Y1994916D1*
X2044957Y1991607D1*
X2042427Y1988657D1*
X2039468Y1986139D1*
X2036151Y1984115D1*
X2032558Y1982635D1*
X2028777Y1981735D1*
X2024903Y1981437D1*
X2021030Y1981749D1*
X2017253Y1982664D1*
X2013666Y1984158D1*
X2010356Y1986194D1*
X2007406Y1988724D1*
X2004888Y1991683D1*
X2002864Y1995000D1*
X2001384Y1998593D1*
X2000484Y2002373D1*
X2000186Y2006248D1*
X2000499Y2010121D1*
X2001413Y2013898D1*
X2002907Y2017485D1*
X2004944Y2020795D1*
X2007473Y2023745D1*
X2010432Y2026263D1*
X2013750Y2028287D1*
X2017343Y2029767D1*
X2021123Y2030667D1*
X2024997Y2030965D1*
X2028871Y2030652D1*
X2032647Y2029738D1*
X2036235Y2028244D1*
X2039544Y2026207D1*
X2042494Y2023678D1*
X2045012Y2020718D1*
X2047036Y2017401D1*
X2048516Y2013808D1*
X2049416Y2010028D1*
X2049714Y2006201D1*
X2049402Y2002280D1*
X2008778Y2033530D2*
X2007864Y2029753D1*
X2006370Y2026166D1*
X2004333Y2022856D1*
X2001804Y2019906D1*
X1998844Y2017388D1*
X1995527Y2015364D1*
X1991934Y2013884D1*
X1988154Y2012984D1*
X1984280Y2012686D1*
X1980406Y2012999D1*
X1976630Y2013913D1*
X1973042Y2015407D1*
X1969733Y2017444D1*
X1966783Y2019973D1*
X1964265Y2022932D1*
X1962241Y2026250D1*
X1960760Y2029843D1*
X1959861Y2033623D1*
X1959563Y2037497D1*
X1959875Y2041371D1*
X1960790Y2045147D1*
X1962284Y2048735D1*
X1964320Y2052044D1*
X1966849Y2054994D1*
X1969809Y2057512D1*
X1973126Y2059536D1*
X1976719Y2061016D1*
X1980499Y2061916D1*
X1984374Y2062214D1*
X1988247Y2061902D1*
X1992024Y2060987D1*
X1995611Y2059493D1*
X1998921Y2057457D1*
X2001871Y2054927D1*
X2004389Y2051968D1*
X2006413Y2048651D1*
X2007893Y2045058D1*
X2008793Y2041277D1*
X2009091Y2037450D1*
X2008778Y2033530D1*
X1278290Y2236103D2*
X1277376Y2232326D1*
X1275882Y2228739D1*
X1273845Y2225430D1*
X1271316Y2222480D1*
X1268356Y2219962D1*
X1265039Y2217938D1*
X1261446Y2216457D1*
X1257666Y2215557D1*
X1253791Y2215260D1*
X1249918Y2215572D1*
X1246141Y2216486D1*
X1242554Y2217980D1*
X1239245Y2220017D1*
X1236295Y2222546D1*
X1233777Y2225506D1*
X1231753Y2228823D1*
X1230272Y2232416D1*
X1229372Y2236196D1*
X1229075Y2240071D1*
X1229387Y2243944D1*
X1230301Y2247721D1*
X1231795Y2251308D1*
X1233832Y2254618D1*
X1236361Y2257568D1*
X1239321Y2260086D1*
X1242638Y2262110D1*
X1246231Y2263590D1*
X1250011Y2264490D1*
X1253886Y2264787D1*
X1257759Y2264475D1*
X1261536Y2263561D1*
X1265123Y2262067D1*
X1268432Y2260030D1*
X1271383Y2257501D1*
X1273901Y2254541D1*
X1275925Y2251224D1*
X1277405Y2247631D1*
X1278305Y2243851D1*
X1278602Y2240024D1*
X1278290Y2236103D1*
X2005652Y911656D2*
X2004738Y907879D1*
X2003244Y904292D1*
X2001207Y900982D1*
X1998678Y898032D1*
X1995718Y895514D1*
X1992401Y893490D1*
X1988808Y892010D1*
X1985028Y891110D1*
X1981154Y890812D1*
X1977280Y891125D1*
X1973504Y892039D1*
X1969916Y893533D1*
X1966607Y895570D1*
X1963657Y898099D1*
X1961139Y901058D1*
X1959115Y904376D1*
X1957635Y907969D1*
X1956735Y911749D1*
X1956437Y915623D1*
X1956749Y919497D1*
X1957664Y923273D1*
X1959158Y926861D1*
X1961194Y930170D1*
X1963724Y933120D1*
X1966683Y935638D1*
X1970000Y937662D1*
X1973593Y939142D1*
X1977373Y940042D1*
X1981248Y940340D1*
X1985121Y940028D1*
X1988898Y939113D1*
X1992485Y937619D1*
X1995795Y935583D1*
X1998745Y933053D1*
X2001263Y930094D1*
X2003287Y926777D1*
X2004767Y923184D1*
X2005667Y919403D1*
X2005965Y915576D1*
X2005652Y911656D1*
X1236903Y2292905D2*
X1235989Y2289128D1*
X1234495Y2285541D1*
X1232458Y2282232D1*
X1229929Y2279282D1*
X1226969Y2276763D1*
X1223652Y2274739D1*
X1220059Y2273259D1*
X1216279Y2272359D1*
X1212404Y2272062D1*
X1208531Y2272374D1*
X1204754Y2273288D1*
X1201167Y2274782D1*
X1197858Y2276819D1*
X1194908Y2279348D1*
X1192389Y2282308D1*
X1190365Y2285625D1*
X1188885Y2289218D1*
X1187985Y2292998D1*
X1187688Y2296873D1*
X1188000Y2300746D1*
X1188914Y2304523D1*
X1190408Y2308110D1*
X1192445Y2311419D1*
X1194974Y2314369D1*
X1197934Y2316887D1*
X1201251Y2318912D1*
X1204844Y2320392D1*
X1208624Y2321292D1*
X1212499Y2321589D1*
X1216372Y2321277D1*
X1220149Y2320363D1*
X1223736Y2318869D1*
X1227045Y2316832D1*
X1229995Y2314303D1*
X1232513Y2311343D1*
X1234537Y2308026D1*
X1236018Y2304433D1*
X1236918Y2300653D1*
X1237215Y2296825D1*
X1236903Y2292905D1*
X1965028Y871031D2*
X1964113Y867254D1*
X1962619Y863667D1*
X1960583Y860358D1*
X1958053Y857408D1*
X1955094Y854889D1*
X1951777Y852865D1*
X1948184Y851385D1*
X1944403Y850485D1*
X1940529Y850188D1*
X1936656Y850500D1*
X1932879Y851414D1*
X1929292Y852908D1*
X1925982Y854945D1*
X1923032Y857474D1*
X1920514Y860434D1*
X1918490Y863751D1*
X1917010Y867344D1*
X1916110Y871124D1*
X1915812Y874999D1*
X1916125Y878872D1*
X1917039Y882649D1*
X1918533Y886236D1*
X1920570Y889545D1*
X1923099Y892495D1*
X1926058Y895013D1*
X1929376Y897037D1*
X1932969Y898518D1*
X1936749Y899418D1*
X1940623Y899715D1*
X1944497Y899403D1*
X1948273Y898489D1*
X1951861Y896995D1*
X1955170Y894958D1*
X1958120Y892429D1*
X1960638Y889469D1*
X1962662Y886152D1*
X1964142Y882559D1*
X1965042Y878779D1*
X1965340Y874951D1*
X1965028Y871031D1*
X1199550Y2255406D2*
X1198636Y2251630D1*
X1197142Y2248042D1*
X1195105Y2244733D1*
X1192576Y2241783D1*
X1189616Y2239265D1*
X1186299Y2237241D1*
X1182706Y2235760D1*
X1178926Y2234861D1*
X1175051Y2234563D1*
X1171178Y2234875D1*
X1167401Y2235790D1*
X1163814Y2237284D1*
X1160505Y2239320D1*
X1157554Y2241849D1*
X1155036Y2244809D1*
X1153012Y2248126D1*
X1151532Y2251719D1*
X1150632Y2255499D1*
X1150335Y2259374D1*
X1150647Y2263247D1*
X1151561Y2267024D1*
X1153055Y2270611D1*
X1155092Y2273921D1*
X1157621Y2276871D1*
X1160581Y2279389D1*
X1163898Y2281413D1*
X1167491Y2282893D1*
X1171271Y2283793D1*
X1175146Y2284091D1*
X1179019Y2283778D1*
X1182796Y2282864D1*
X1186383Y2281370D1*
X1189692Y2279333D1*
X1192642Y2276804D1*
X1195160Y2273844D1*
X1197184Y2270527D1*
X1198665Y2266934D1*
X1199565Y2263154D1*
X1199862Y2259327D1*
X1199550Y2255406D1*
X1911902Y871031D2*
X1910987Y867254D1*
X1909493Y863667D1*
X1907457Y860358D1*
X1904927Y857408D1*
X1901968Y854889D1*
X1898651Y852865D1*
X1895058Y851385D1*
X1891277Y850485D1*
X1887403Y850188D1*
X1883530Y850500D1*
X1879753Y851414D1*
X1876166Y852908D1*
X1872856Y854945D1*
X1869906Y857474D1*
X1867388Y860434D1*
X1865364Y863751D1*
X1863884Y867344D1*
X1862984Y871124D1*
X1862686Y874999D1*
X1862999Y878872D1*
X1863913Y882649D1*
X1865407Y886236D1*
X1867444Y889545D1*
X1869973Y892495D1*
X1872932Y895013D1*
X1876250Y897037D1*
X1879843Y898518D1*
X1883623Y899418D1*
X1887497Y899715D1*
X1891371Y899403D1*
X1895147Y898489D1*
X1898735Y896995D1*
X1902044Y894958D1*
X1904994Y892429D1*
X1907512Y889469D1*
X1909536Y886152D1*
X1911016Y882559D1*
X1911916Y878779D1*
X1912214Y874951D1*
X1911902Y871031D1*
X1158777Y2292905D2*
X1157863Y2289128D1*
X1156369Y2285541D1*
X1154332Y2282232D1*
X1151803Y2279282D1*
X1148843Y2276763D1*
X1145526Y2274739D1*
X1141933Y2273259D1*
X1138153Y2272359D1*
X1134278Y2272062D1*
X1130405Y2272374D1*
X1126628Y2273288D1*
X1123041Y2274782D1*
X1119732Y2276819D1*
X1116782Y2279348D1*
X1114263Y2282308D1*
X1112239Y2285625D1*
X1110759Y2289218D1*
X1109859Y2292998D1*
X1109562Y2296873D1*
X1109874Y2300746D1*
X1110788Y2304523D1*
X1112282Y2308110D1*
X1114319Y2311419D1*
X1116848Y2314369D1*
X1119808Y2316887D1*
X1123125Y2318912D1*
X1126718Y2320392D1*
X1130498Y2321292D1*
X1134373Y2321589D1*
X1138246Y2321277D1*
X1142023Y2320363D1*
X1145610Y2318869D1*
X1148919Y2316832D1*
X1151869Y2314303D1*
X1154387Y2311343D1*
X1156412Y2308026D1*
X1157892Y2304433D1*
X1158792Y2300653D1*
X1159089Y2296825D1*
X1158777Y2292905D1*
X1874402Y908528D2*
X1873487Y904752D1*
X1871993Y901164D1*
X1869957Y897855D1*
X1867427Y894905D1*
X1864468Y892387D1*
X1861151Y890363D1*
X1857558Y888883D1*
X1853777Y887983D1*
X1849903Y887685D1*
X1846030Y887997D1*
X1842253Y888912D1*
X1838666Y890406D1*
X1835356Y892442D1*
X1832406Y894972D1*
X1829888Y897931D1*
X1827864Y901248D1*
X1826384Y904841D1*
X1825484Y908621D1*
X1825186Y912496D1*
X1825499Y916369D1*
X1826413Y920146D1*
X1827907Y923733D1*
X1829944Y927043D1*
X1832473Y929993D1*
X1835432Y932511D1*
X1838750Y934535D1*
X1842343Y936015D1*
X1846123Y936915D1*
X1849997Y937213D1*
X1853871Y936900D1*
X1857647Y935986D1*
X1861235Y934492D1*
X1864544Y932455D1*
X1867494Y929926D1*
X1870012Y926966D1*
X1872036Y923649D1*
X1873516Y920056D1*
X1874416Y916276D1*
X1874714Y912449D1*
X1874402Y908528D1*
X1101125Y2256565D2*
X1100210Y2252788D1*
X1098716Y2249201D1*
X1096680Y2245892D1*
X1094151Y2242942D1*
X1091191Y2240424D1*
X1087874Y2238400D1*
X1084281Y2236919D1*
X1080501Y2236019D1*
X1076626Y2235722D1*
X1072753Y2236034D1*
X1068976Y2236948D1*
X1065389Y2238442D1*
X1062079Y2240479D1*
X1059129Y2243008D1*
X1056611Y2245968D1*
X1054587Y2249285D1*
X1053107Y2252878D1*
X1052207Y2256658D1*
X1051909Y2260533D1*
X1052222Y2264406D1*
X1053136Y2268183D1*
X1054630Y2271770D1*
X1056667Y2275079D1*
X1059196Y2278029D1*
X1062156Y2280548D1*
X1065473Y2282572D1*
X1069066Y2284052D1*
X1072846Y2284952D1*
X1076720Y2285249D1*
X1080594Y2284937D1*
X1084370Y2284023D1*
X1087958Y2282529D1*
X1091267Y2280492D1*
X1094217Y2277963D1*
X1096735Y2275003D1*
X1098759Y2271686D1*
X1100240Y2268093D1*
X1101139Y2264313D1*
X1101437Y2260486D1*
X1101125Y2256565D1*
X1836902Y871030D2*
X1835987Y867253D1*
X1834493Y863666D1*
X1832457Y860356D1*
X1829927Y857406D1*
X1826968Y854888D1*
X1823651Y852864D1*
X1820058Y851384D1*
X1816277Y850484D1*
X1812403Y850186D1*
X1808530Y850499D1*
X1804753Y851413D1*
X1801166Y852907D1*
X1797856Y854944D1*
X1794906Y857473D1*
X1792388Y860432D1*
X1790364Y863750D1*
X1788884Y867343D1*
X1787984Y871123D1*
X1787686Y874997D1*
X1787999Y878871D1*
X1788913Y882647D1*
X1790407Y886235D1*
X1792444Y889544D1*
X1794973Y892494D1*
X1797932Y895012D1*
X1801250Y897036D1*
X1804843Y898516D1*
X1808623Y899416D1*
X1812497Y899714D1*
X1816371Y899402D1*
X1820147Y898487D1*
X1823735Y896993D1*
X1827044Y894957D1*
X1829994Y892427D1*
X1832512Y889468D1*
X1834536Y886151D1*
X1836016Y882558D1*
X1836916Y878777D1*
X1837214Y874950D1*
X1836902Y871030D1*
X1061755Y2292905D2*
X1060840Y2289128D1*
X1059346Y2285541D1*
X1057310Y2282232D1*
X1054780Y2279282D1*
X1051821Y2276763D1*
X1048504Y2274739D1*
X1044911Y2273259D1*
X1041131Y2272359D1*
X1037256Y2272062D1*
X1033383Y2272374D1*
X1029606Y2273288D1*
X1026019Y2274782D1*
X1022709Y2276819D1*
X1019759Y2279348D1*
X1017241Y2282308D1*
X1015217Y2285625D1*
X1013737Y2289218D1*
X1012837Y2292998D1*
X1012539Y2296873D1*
X1012852Y2300746D1*
X1013766Y2304523D1*
X1015260Y2308110D1*
X1017297Y2311419D1*
X1019826Y2314369D1*
X1022786Y2316887D1*
X1026103Y2318912D1*
X1029696Y2320392D1*
X1033476Y2321292D1*
X1037350Y2321589D1*
X1041224Y2321277D1*
X1045000Y2320363D1*
X1048588Y2318869D1*
X1051897Y2316832D1*
X1054847Y2314303D1*
X1057365Y2311343D1*
X1059389Y2308026D1*
X1060869Y2304433D1*
X1061769Y2300653D1*
X1062067Y2296825D1*
X1061755Y2292905D1*
X1796822Y905950D2*
X1795907Y902173D1*
X1794413Y898586D1*
X1792377Y895276D1*
X1789847Y892326D1*
X1786888Y889808D1*
X1783571Y887784D1*
X1779978Y886304D1*
X1776197Y885404D1*
X1772323Y885106D1*
X1768450Y885419D1*
X1764673Y886333D1*
X1761086Y887827D1*
X1757776Y889863D1*
X1754826Y892393D1*
X1752308Y895352D1*
X1750284Y898670D1*
X1748804Y902262D1*
X1747904Y906043D1*
X1747606Y909917D1*
X1747919Y913791D1*
X1748833Y917567D1*
X1750327Y921155D1*
X1752363Y924464D1*
X1754893Y927414D1*
X1757852Y929932D1*
X1761170Y931956D1*
X1764762Y933436D1*
X1768543Y934336D1*
X1772417Y934634D1*
X1776291Y934322D1*
X1780067Y933407D1*
X1783655Y931913D1*
X1786964Y929877D1*
X1789914Y927347D1*
X1792432Y924388D1*
X1794456Y921071D1*
X1795936Y917478D1*
X1796836Y913697D1*
X1797134Y909870D1*
X1796822Y905950D1*
X1022385Y2255947D2*
X1021470Y2252170D1*
X1019976Y2248583D1*
X1017940Y2245274D1*
X1015410Y2242324D1*
X1012451Y2239805D1*
X1009134Y2237781D1*
X1005541Y2236301D1*
X1001760Y2235401D1*
X997886Y2235104D1*
X994013Y2235416D1*
X990236Y2236330D1*
X986649Y2237824D1*
X983339Y2239861D1*
X980389Y2242390D1*
X977871Y2245350D1*
X975847Y2248667D1*
X974367Y2252260D1*
X973467Y2256040D1*
X973169Y2259915D1*
X973482Y2263788D1*
X974396Y2267565D1*
X975890Y2271152D1*
X977926Y2274461D1*
X980456Y2277411D1*
X983415Y2279929D1*
X986733Y2281953D1*
X990325Y2283434D1*
X994106Y2284334D1*
X997980Y2284631D1*
X1001854Y2284319D1*
X1005630Y2283405D1*
X1009218Y2281911D1*
X1012527Y2279874D1*
X1015477Y2277345D1*
X1017995Y2274385D1*
X1020019Y2271068D1*
X1021499Y2267475D1*
X1022399Y2263695D1*
X1022697Y2259867D1*
X1022385Y2255947D1*
X1730652Y877280D2*
X1729738Y873504D1*
X1728244Y869916D1*
X1726207Y866607D1*
X1723678Y863657D1*
X1720718Y861139D1*
X1717401Y859115D1*
X1713808Y857635D1*
X1710028Y856735D1*
X1706154Y856437D1*
X1702280Y856749D1*
X1698504Y857664D1*
X1694916Y859158D1*
X1691607Y861194D1*
X1688657Y863724D1*
X1686139Y866683D1*
X1684115Y870000D1*
X1682635Y873593D1*
X1681735Y877373D1*
X1681437Y881248D1*
X1681749Y885121D1*
X1682664Y888898D1*
X1684158Y892485D1*
X1686194Y895795D1*
X1688724Y898745D1*
X1691683Y901263D1*
X1695000Y903287D1*
X1698593Y904767D1*
X1702373Y905667D1*
X1706248Y905965D1*
X1710121Y905652D1*
X1713898Y904738D1*
X1717485Y903244D1*
X1720795Y901207D1*
X1723745Y898678D1*
X1726263Y895718D1*
X1728287Y892401D1*
X1729767Y888808D1*
X1730667Y885028D1*
X1730965Y881201D1*
X1730652Y877280D1*
X983014Y2292905D2*
X982100Y2289128D1*
X980606Y2285541D1*
X978570Y2282232D1*
X976040Y2279282D1*
X973081Y2276763D1*
X969764Y2274739D1*
X966171Y2273259D1*
X962390Y2272359D1*
X958516Y2272062D1*
X954643Y2272374D1*
X950866Y2273288D1*
X947279Y2274782D1*
X943969Y2276819D1*
X941019Y2279348D1*
X938501Y2282308D1*
X936477Y2285625D1*
X934997Y2289218D1*
X934097Y2292998D1*
X933799Y2296873D1*
X934112Y2300746D1*
X935026Y2304523D1*
X936520Y2308110D1*
X938556Y2311419D1*
X941086Y2314369D1*
X944045Y2316887D1*
X947362Y2318912D1*
X950955Y2320392D1*
X954736Y2321292D1*
X958610Y2321589D1*
X962483Y2321277D1*
X966260Y2320363D1*
X969847Y2318869D1*
X973157Y2316832D1*
X976107Y2314303D1*
X978625Y2311343D1*
X980649Y2308026D1*
X982129Y2304433D1*
X983029Y2300653D1*
X983327Y2296825D1*
X983014Y2292905D1*
X1680652Y908531D2*
X1679738Y904754D1*
X1678244Y901167D1*
X1676207Y897858D1*
X1673678Y894908D1*
X1670718Y892389D1*
X1667401Y890365D1*
X1663808Y888885D1*
X1660028Y887985D1*
X1656154Y887688D1*
X1652280Y888000D1*
X1648504Y888914D1*
X1644916Y890408D1*
X1641607Y892445D1*
X1638657Y894974D1*
X1636139Y897934D1*
X1634115Y901251D1*
X1632635Y904844D1*
X1631735Y908624D1*
X1631437Y912499D1*
X1631749Y916372D1*
X1632664Y920149D1*
X1634158Y923736D1*
X1636194Y927045D1*
X1638724Y929995D1*
X1641683Y932513D1*
X1645000Y934537D1*
X1648593Y936018D1*
X1652373Y936918D1*
X1656248Y937215D1*
X1660121Y936903D1*
X1663898Y935989D1*
X1667485Y934495D1*
X1670795Y932458D1*
X1673745Y929929D1*
X1676263Y926969D1*
X1678287Y923652D1*
X1679767Y920059D1*
X1680667Y916279D1*
X1680965Y912451D1*
X1680652Y908531D1*
X2068151Y1296030D2*
X2067237Y1292253D1*
X2065743Y1288666D1*
X2063706Y1285356D1*
X2061177Y1282406D1*
X2058217Y1279888D1*
X2054900Y1277864D1*
X2051307Y1276384D1*
X2047527Y1275484D1*
X2043652Y1275186D1*
X2039779Y1275499D1*
X2036002Y1276413D1*
X2032415Y1277907D1*
X2029106Y1279944D1*
X2026156Y1282473D1*
X2023637Y1285432D1*
X2021613Y1288750D1*
X2020133Y1292343D1*
X2019233Y1296123D1*
X2018936Y1299997D1*
X2019248Y1303871D1*
X2020162Y1307647D1*
X2021656Y1311235D1*
X2023693Y1314544D1*
X2026222Y1317494D1*
X2029182Y1320012D1*
X2032499Y1322036D1*
X2036092Y1323516D1*
X2039872Y1324416D1*
X2043747Y1324714D1*
X2047620Y1324402D1*
X2051397Y1323487D1*
X2054984Y1321993D1*
X2058293Y1319957D1*
X2061243Y1317427D1*
X2063761Y1314468D1*
X2065786Y1311151D1*
X2067266Y1307558D1*
X2068166Y1303777D1*
X2068463Y1299950D1*
X2068151Y1296030D1*
X2111902Y1514780D2*
X2110987Y1511004D1*
X2109493Y1507416D1*
X2107457Y1504107D1*
X2104927Y1501157D1*
X2101968Y1498639D1*
X2098651Y1496615D1*
X2095058Y1495135D1*
X2091277Y1494235D1*
X2087403Y1493937D1*
X2083530Y1494249D1*
X2079753Y1495164D1*
X2076166Y1496658D1*
X2072856Y1498694D1*
X2069906Y1501224D1*
X2067388Y1504183D1*
X2065364Y1507500D1*
X2063884Y1511093D1*
X2062984Y1514873D1*
X2062686Y1518748D1*
X2062999Y1522621D1*
X2063913Y1526398D1*
X2065407Y1529985D1*
X2067444Y1533295D1*
X2069973Y1536245D1*
X2072932Y1538763D1*
X2076250Y1540787D1*
X2079843Y1542267D1*
X2083623Y1543167D1*
X2087497Y1543465D1*
X2091371Y1543152D1*
X2095147Y1542238D1*
X2098735Y1540744D1*
X2102044Y1538707D1*
X2104994Y1536178D1*
X2107512Y1533218D1*
X2109536Y1529901D1*
X2111016Y1526308D1*
X2111916Y1522528D1*
X2112214Y1518701D1*
X2111902Y1514780D1*
X2036902Y1339780D2*
X2035987Y1336004D1*
X2034493Y1332416D1*
X2032457Y1329107D1*
X2029927Y1326157D1*
X2026968Y1323639D1*
X2023651Y1321615D1*
X2020058Y1320135D1*
X2016277Y1319235D1*
X2012403Y1318937D1*
X2008530Y1319249D1*
X2004753Y1320164D1*
X2001166Y1321658D1*
X1997856Y1323694D1*
X1994906Y1326224D1*
X1992388Y1329183D1*
X1990364Y1332500D1*
X1988884Y1336093D1*
X1987984Y1339873D1*
X1987686Y1343748D1*
X1987999Y1347621D1*
X1988913Y1351398D1*
X1990407Y1354985D1*
X1992444Y1358295D1*
X1994973Y1361245D1*
X1997932Y1363763D1*
X2001250Y1365787D1*
X2004843Y1367267D1*
X2008623Y1368167D1*
X2012497Y1368465D1*
X2016371Y1368152D1*
X2020147Y1367238D1*
X2023735Y1365744D1*
X2027044Y1363707D1*
X2029994Y1361178D1*
X2032512Y1358218D1*
X2034536Y1354901D1*
X2036016Y1351308D1*
X2036916Y1347528D1*
X2037214Y1343701D1*
X2036902Y1339780D1*
X2086902Y1564780D2*
X2085987Y1561004D1*
X2084493Y1557416D1*
X2082457Y1554107D1*
X2079927Y1551157D1*
X2076968Y1548639D1*
X2073651Y1546615D1*
X2070058Y1545135D1*
X2066277Y1544235D1*
X2062403Y1543937D1*
X2058530Y1544249D1*
X2054753Y1545164D1*
X2051166Y1546658D1*
X2047856Y1548694D1*
X2044906Y1551224D1*
X2042388Y1554183D1*
X2040364Y1557500D1*
X2038884Y1561093D1*
X2037984Y1564873D1*
X2037686Y1568748D1*
X2037999Y1572621D1*
X2038913Y1576398D1*
X2040407Y1579985D1*
X2042444Y1583295D1*
X2044973Y1586245D1*
X2047932Y1588763D1*
X2051250Y1590787D1*
X2054843Y1592267D1*
X2058623Y1593167D1*
X2062497Y1593465D1*
X2066371Y1593152D1*
X2070147Y1592238D1*
X2073735Y1590744D1*
X2077044Y1588707D1*
X2079994Y1586178D1*
X2082512Y1583218D1*
X2084536Y1579901D1*
X2086016Y1576308D1*
X2086916Y1572528D1*
X2087214Y1568701D1*
X2086902Y1564780D1*
X3846277Y2167905D2*
X3845363Y2164128D1*
X3843869Y2160541D1*
X3841832Y2157232D1*
X3839303Y2154282D1*
X3836343Y2151763D1*
X3833026Y2149739D1*
X3829433Y2148259D1*
X3825653Y2147359D1*
X3821778Y2147062D1*
X3817905Y2147374D1*
X3814128Y2148288D1*
X3810541Y2149782D1*
X3807232Y2151819D1*
X3804282Y2154348D1*
X3801763Y2157308D1*
X3799739Y2160625D1*
X3798259Y2164218D1*
X3797359Y2167998D1*
X3797062Y2171873D1*
X3797374Y2175746D1*
X3798288Y2179523D1*
X3799782Y2183110D1*
X3801819Y2186419D1*
X3804348Y2189369D1*
X3807308Y2191887D1*
X3810625Y2193912D1*
X3814218Y2195392D1*
X3817998Y2196292D1*
X3821873Y2196589D1*
X3825746Y2196277D1*
X3829523Y2195363D1*
X3833110Y2193869D1*
X3836419Y2191832D1*
X3839369Y2189303D1*
X3841887Y2186343D1*
X3843912Y2183026D1*
X3845392Y2179433D1*
X3846292Y2175653D1*
X3846589Y2171825D1*
X3846277Y2167905D1*
X3793341Y2236846D2*
X3792427Y2233069D1*
X3790933Y2229482D1*
X3788896Y2226173D1*
X3786367Y2223222D1*
X3783407Y2220704D1*
X3780090Y2218680D1*
X3776497Y2217200D1*
X3772717Y2216300D1*
X3768843Y2216003D1*
X3764969Y2216315D1*
X3761193Y2217229D1*
X3757605Y2218723D1*
X3754296Y2220760D1*
X3751346Y2223289D1*
X3748828Y2226249D1*
X3746804Y2229566D1*
X3745323Y2233159D1*
X3744424Y2236939D1*
X3744126Y2240814D1*
X3744438Y2244687D1*
X3745353Y2248464D1*
X3746847Y2252051D1*
X3748883Y2255360D1*
X3751412Y2258310D1*
X3754372Y2260828D1*
X3757689Y2262852D1*
X3761282Y2264333D1*
X3765062Y2265233D1*
X3768937Y2265530D1*
X3772810Y2265218D1*
X3776587Y2264304D1*
X3780174Y2262810D1*
X3783484Y2260773D1*
X3786434Y2258244D1*
X3788952Y2255284D1*
X3790976Y2251967D1*
X3792456Y2248374D1*
X3793356Y2244594D1*
X3793654Y2240766D1*
X3793341Y2236846D1*
X2280652Y889780D2*
X2279738Y886004D1*
X2278244Y882416D1*
X2276207Y879107D1*
X2273678Y876157D1*
X2270718Y873639D1*
X2267401Y871615D1*
X2263808Y870135D1*
X2260028Y869235D1*
X2256154Y868937D1*
X2252280Y869249D1*
X2248504Y870164D1*
X2244916Y871658D1*
X2241607Y873694D1*
X2238657Y876224D1*
X2236139Y879183D1*
X2234115Y882500D1*
X2232635Y886093D1*
X2231735Y889873D1*
X2231437Y893748D1*
X2231749Y897621D1*
X2232664Y901398D1*
X2234158Y904985D1*
X2236194Y908295D1*
X2238724Y911245D1*
X2241683Y913763D1*
X2245000Y915787D1*
X2248593Y917267D1*
X2252373Y918167D1*
X2256248Y918465D1*
X2260121Y918152D1*
X2263898Y917238D1*
X2267485Y915744D1*
X2270795Y913707D1*
X2273745Y911178D1*
X2276263Y908218D1*
X2278287Y904901D1*
X2279767Y901308D1*
X2280667Y897528D1*
X2280965Y893701D1*
X2280652Y889780D1*
X2568151Y880406D2*
X2567237Y876630D1*
X2565743Y873042D1*
X2563706Y869733D1*
X2561177Y866783D1*
X2558217Y864265D1*
X2554900Y862241D1*
X2551307Y860760D1*
X2547527Y859861D1*
X2543652Y859563D1*
X2539779Y859875D1*
X2536002Y860790D1*
X2532415Y862284D1*
X2529106Y864320D1*
X2526156Y866849D1*
X2523637Y869809D1*
X2521613Y873126D1*
X2520133Y876719D1*
X2519233Y880499D1*
X2518936Y884374D1*
X2519248Y888247D1*
X2520162Y892024D1*
X2521656Y895611D1*
X2523693Y898921D1*
X2526222Y901871D1*
X2529182Y904389D1*
X2532499Y906413D1*
X2536092Y907893D1*
X2539872Y908793D1*
X2543747Y909091D1*
X2547620Y908778D1*
X2551397Y907864D1*
X2554984Y906370D1*
X2558293Y904333D1*
X2561243Y901804D1*
X2563761Y898844D1*
X2565786Y895527D1*
X2567266Y891934D1*
X2568166Y888154D1*
X2568463Y884327D1*
X2568151Y880406D1*
X2783777Y1683531D2*
X2782863Y1679754D1*
X2781369Y1676167D1*
X2779332Y1672858D1*
X2776803Y1669908D1*
X2773843Y1667389D1*
X2770526Y1665365D1*
X2766933Y1663885D1*
X2763153Y1662985D1*
X2759278Y1662688D1*
X2755405Y1663000D1*
X2751628Y1663914D1*
X2748041Y1665408D1*
X2744732Y1667445D1*
X2741782Y1669974D1*
X2739263Y1672934D1*
X2737239Y1676251D1*
X2735759Y1679844D1*
X2734859Y1683624D1*
X2734562Y1687499D1*
X2734874Y1691372D1*
X2735788Y1695149D1*
X2737282Y1698736D1*
X2739319Y1702045D1*
X2741848Y1704995D1*
X2744808Y1707513D1*
X2748125Y1709537D1*
X2751718Y1711018D1*
X2755498Y1711918D1*
X2759373Y1712215D1*
X2763246Y1711903D1*
X2767023Y1710989D1*
X2770610Y1709495D1*
X2773919Y1707458D1*
X2776869Y1704929D1*
X2779387Y1701969D1*
X2781412Y1698652D1*
X2782892Y1695059D1*
X2783792Y1691279D1*
X2784089Y1687451D1*
X2783777Y1683531D1*
X2702528Y1764780D2*
X2701613Y1761004D1*
X2700119Y1757416D1*
X2698083Y1754107D1*
X2695553Y1751157D1*
X2692594Y1748639D1*
X2689277Y1746615D1*
X2685684Y1745135D1*
X2681903Y1744235D1*
X2678029Y1743937D1*
X2674156Y1744249D1*
X2670379Y1745164D1*
X2666792Y1746658D1*
X2663482Y1748694D1*
X2660532Y1751224D1*
X2658014Y1754183D1*
X2655990Y1757500D1*
X2654510Y1761093D1*
X2653610Y1764873D1*
X2653312Y1768748D1*
X2653625Y1772621D1*
X2654539Y1776398D1*
X2656033Y1779985D1*
X2658070Y1783295D1*
X2660599Y1786245D1*
X2663558Y1788763D1*
X2666876Y1790787D1*
X2670469Y1792267D1*
X2674249Y1793167D1*
X2678123Y1793465D1*
X2681997Y1793152D1*
X2685773Y1792238D1*
X2689361Y1790744D1*
X2692670Y1788707D1*
X2695620Y1786178D1*
X2698138Y1783218D1*
X2700162Y1779901D1*
X2701642Y1776308D1*
X2702542Y1772528D1*
X2702840Y1768701D1*
X2702528Y1764780D1*
X2486902Y846030D2*
X2485988Y842254D1*
X2484494Y838666D1*
X2482457Y835357D1*
X2479928Y832407D1*
X2476968Y829889D1*
X2473651Y827865D1*
X2470058Y826385D1*
X2466278Y825485D1*
X2462404Y825187D1*
X2458530Y825499D1*
X2454754Y826414D1*
X2451166Y827908D1*
X2447857Y829944D1*
X2444907Y832474D1*
X2442389Y835433D1*
X2440365Y838750D1*
X2438885Y842343D1*
X2437985Y846123D1*
X2437687Y849998D1*
X2437999Y853871D1*
X2438914Y857648D1*
X2440408Y861235D1*
X2442444Y864545D1*
X2444974Y867495D1*
X2447933Y870013D1*
X2451250Y872037D1*
X2454843Y873517D1*
X2458623Y874417D1*
X2462498Y874715D1*
X2466371Y874402D1*
X2470148Y873488D1*
X2473735Y871994D1*
X2477045Y869957D1*
X2479995Y867428D1*
X2482513Y864468D1*
X2484537Y861151D1*
X2486017Y857558D1*
X2486917Y853778D1*
X2487215Y849951D1*
X2486902Y846030D1*
X3242906Y889780D2*
X3241991Y886004D1*
X3240497Y882416D1*
X3238461Y879107D1*
X3235931Y876157D1*
X3232972Y873639D1*
X3229655Y871615D1*
X3226062Y870135D1*
X3222281Y869235D1*
X3218407Y868937D1*
X3214534Y869249D1*
X3210757Y870164D1*
X3207170Y871658D1*
X3203860Y873694D1*
X3200910Y876224D1*
X3198392Y879183D1*
X3196368Y882500D1*
X3194888Y886093D1*
X3193988Y889873D1*
X3193690Y893748D1*
X3194003Y897621D1*
X3194917Y901398D1*
X3196411Y904985D1*
X3198447Y908295D1*
X3200977Y911245D1*
X3203936Y913763D1*
X3207254Y915787D1*
X3210846Y917267D1*
X3214627Y918167D1*
X3218501Y918465D1*
X3222375Y918152D1*
X3226151Y917238D1*
X3229739Y915744D1*
X3233048Y913707D1*
X3235998Y911178D1*
X3238516Y908218D1*
X3240540Y904901D1*
X3242020Y901308D1*
X3242920Y897528D1*
X3243218Y893701D1*
X3242906Y889780D1*
X3199402Y1321031D2*
X3198487Y1317254D1*
X3196993Y1313667D1*
X3194957Y1310358D1*
X3192427Y1307408D1*
X3189468Y1304889D1*
X3186151Y1302865D1*
X3182558Y1301385D1*
X3178777Y1300485D1*
X3174903Y1300188D1*
X3171030Y1300500D1*
X3167253Y1301414D1*
X3163666Y1302908D1*
X3160356Y1304945D1*
X3157406Y1307474D1*
X3154888Y1310434D1*
X3152864Y1313751D1*
X3151384Y1317344D1*
X3150484Y1321124D1*
X3150186Y1324999D1*
X3150499Y1328872D1*
X3151413Y1332649D1*
X3152907Y1336236D1*
X3154944Y1339545D1*
X3157473Y1342495D1*
X3160432Y1345013D1*
X3163750Y1347037D1*
X3167343Y1348518D1*
X3171123Y1349418D1*
X3174997Y1349715D1*
X3178871Y1349403D1*
X3182647Y1348489D1*
X3186235Y1346995D1*
X3189544Y1344958D1*
X3192494Y1342429D1*
X3195012Y1339469D1*
X3197036Y1336152D1*
X3198516Y1332559D1*
X3199416Y1328779D1*
X3199714Y1324951D1*
X3199402Y1321031D1*
X2783777Y1302280D2*
X2782863Y1298504D1*
X2781369Y1294916D1*
X2779332Y1291607D1*
X2776803Y1288657D1*
X2773843Y1286139D1*
X2770526Y1284115D1*
X2766933Y1282635D1*
X2763153Y1281735D1*
X2759278Y1281437D1*
X2755405Y1281749D1*
X2751628Y1282664D1*
X2748041Y1284158D1*
X2744732Y1286194D1*
X2741782Y1288724D1*
X2739263Y1291683D1*
X2737239Y1295000D1*
X2735759Y1298593D1*
X2734859Y1302373D1*
X2734562Y1306248D1*
X2734874Y1310121D1*
X2735788Y1313898D1*
X2737282Y1317485D1*
X2739319Y1320795D1*
X2741848Y1323745D1*
X2744808Y1326263D1*
X2748125Y1328287D1*
X2751718Y1329767D1*
X2755498Y1330667D1*
X2759373Y1330965D1*
X2763246Y1330652D1*
X2767023Y1329738D1*
X2770610Y1328244D1*
X2773919Y1326207D1*
X2776869Y1323678D1*
X2779387Y1320718D1*
X2781412Y1317401D1*
X2782892Y1313808D1*
X2783792Y1310028D1*
X2784089Y1306201D1*
X2783777Y1302280D1*
X3284434Y846129D2*
X3283520Y842353D1*
X3282026Y838765D1*
X3279990Y835456D1*
X3277460Y832506D1*
X3274501Y829988D1*
X3271183Y827964D1*
X3267591Y826484D1*
X3263810Y825584D1*
X3259936Y825286D1*
X3256062Y825598D1*
X3252286Y826513D1*
X3248698Y828007D1*
X3245389Y830043D1*
X3242439Y832573D1*
X3239921Y835532D1*
X3237897Y838849D1*
X3236417Y842442D1*
X3235517Y846223D1*
X3235219Y850097D1*
X3235531Y853970D1*
X3236446Y857747D1*
X3237940Y861334D1*
X3239976Y864644D1*
X3242506Y867594D1*
X3245465Y870112D1*
X3248782Y872136D1*
X3252375Y873616D1*
X3256156Y874516D1*
X3260030Y874814D1*
X3263903Y874501D1*
X3267680Y873587D1*
X3271267Y872093D1*
X3274577Y870056D1*
X3277527Y867527D1*
X3280045Y864568D1*
X3282069Y861250D1*
X3283549Y857657D1*
X3284449Y853877D1*
X3284747Y850050D1*
X3284434Y846129D1*
X3143152Y1302280D2*
X3142238Y1298504D1*
X3140744Y1294916D1*
X3138707Y1291607D1*
X3136178Y1288657D1*
X3133218Y1286139D1*
X3129901Y1284115D1*
X3126308Y1282635D1*
X3122528Y1281735D1*
X3118654Y1281437D1*
X3114780Y1281749D1*
X3111004Y1282664D1*
X3107416Y1284158D1*
X3104107Y1286194D1*
X3101157Y1288724D1*
X3098639Y1291683D1*
X3096615Y1295000D1*
X3095135Y1298593D1*
X3094235Y1302373D1*
X3093937Y1306248D1*
X3094249Y1310121D1*
X3095164Y1313898D1*
X3096658Y1317485D1*
X3098694Y1320795D1*
X3101224Y1323745D1*
X3104183Y1326263D1*
X3107500Y1328287D1*
X3111093Y1329767D1*
X3114873Y1330667D1*
X3118748Y1330965D1*
X3122621Y1330652D1*
X3126398Y1329738D1*
X3129985Y1328244D1*
X3133295Y1326207D1*
X3136245Y1323678D1*
X3138763Y1320718D1*
X3140787Y1317401D1*
X3142267Y1313808D1*
X3143167Y1310028D1*
X3143465Y1306201D1*
X3143152Y1302280D1*
X3357975Y887458D2*
X3357061Y883681D1*
X3355567Y880093D1*
X3353530Y876784D1*
X3351001Y873834D1*
X3348041Y871316D1*
X3344724Y869292D1*
X3341131Y867812D1*
X3337351Y866912D1*
X3333476Y866614D1*
X3329603Y866926D1*
X3325826Y867841D1*
X3322239Y869335D1*
X3318930Y871371D1*
X3315980Y873901D1*
X3313462Y876860D1*
X3311438Y880177D1*
X3309957Y883770D1*
X3309057Y887551D1*
X3308760Y891425D1*
X3309072Y895298D1*
X3309986Y899075D1*
X3311480Y902662D1*
X3313517Y905972D1*
X3316046Y908922D1*
X3319006Y911440D1*
X3322323Y913464D1*
X3325916Y914944D1*
X3329696Y915844D1*
X3333571Y916142D1*
X3337444Y915829D1*
X3341221Y914915D1*
X3344808Y913421D1*
X3348118Y911385D1*
X3351068Y908855D1*
X3353586Y905896D1*
X3355610Y902578D1*
X3357090Y898986D1*
X3357990Y895205D1*
X3358287Y891378D1*
X3357975Y887458D1*
X3480652Y952280D2*
X3479738Y948504D1*
X3478244Y944916D1*
X3476207Y941607D1*
X3473678Y938657D1*
X3470718Y936139D1*
X3467401Y934115D1*
X3463808Y932635D1*
X3460028Y931735D1*
X3456154Y931437D1*
X3452280Y931749D1*
X3448504Y932664D1*
X3444916Y934158D1*
X3441607Y936194D1*
X3438657Y938724D1*
X3436139Y941683D1*
X3434115Y945000D1*
X3432635Y948593D1*
X3431735Y952373D1*
X3431437Y956248D1*
X3431749Y960121D1*
X3432664Y963898D1*
X3434158Y967485D1*
X3436194Y970795D1*
X3438724Y973745D1*
X3441683Y976263D1*
X3445000Y978287D1*
X3448593Y979767D1*
X3452373Y980667D1*
X3456248Y980965D1*
X3460121Y980652D1*
X3463898Y979738D1*
X3467485Y978244D1*
X3470795Y976207D1*
X3473745Y973678D1*
X3476263Y970718D1*
X3478287Y967401D1*
X3479767Y963808D1*
X3480667Y960028D1*
X3480965Y956201D1*
X3480652Y952280D1*
X3418152Y871031D2*
X3417238Y867254D1*
X3415744Y863667D1*
X3413707Y860358D1*
X3411178Y857408D1*
X3408218Y854889D1*
X3404901Y852865D1*
X3401308Y851385D1*
X3397528Y850485D1*
X3393654Y850188D1*
X3389780Y850500D1*
X3386004Y851414D1*
X3382416Y852908D1*
X3379107Y854945D1*
X3376157Y857474D1*
X3373639Y860434D1*
X3371615Y863751D1*
X3370135Y867344D1*
X3369235Y871124D1*
X3368937Y874999D1*
X3369249Y878872D1*
X3370164Y882649D1*
X3371658Y886236D1*
X3373694Y889545D1*
X3376224Y892495D1*
X3379183Y895013D1*
X3382500Y897037D1*
X3386093Y898518D1*
X3389873Y899418D1*
X3393748Y899715D1*
X3397621Y899403D1*
X3401398Y898489D1*
X3404985Y896995D1*
X3408295Y894958D1*
X3411245Y892429D1*
X3413763Y889469D1*
X3415787Y886152D1*
X3417267Y882559D1*
X3418167Y878779D1*
X3418465Y874951D1*
X3418152Y871031D1*
X3558777Y1852280D2*
X3557863Y1848504D1*
X3556369Y1844916D1*
X3554332Y1841607D1*
X3551803Y1838657D1*
X3548843Y1836139D1*
X3545526Y1834115D1*
X3541933Y1832635D1*
X3538153Y1831735D1*
X3534278Y1831437D1*
X3530405Y1831749D1*
X3526628Y1832664D1*
X3523041Y1834158D1*
X3519732Y1836194D1*
X3516782Y1838724D1*
X3514263Y1841683D1*
X3512239Y1845000D1*
X3510759Y1848593D1*
X3509859Y1852373D1*
X3509562Y1856248D1*
X3509874Y1860121D1*
X3510788Y1863898D1*
X3512282Y1867485D1*
X3514319Y1870795D1*
X3516848Y1873745D1*
X3519808Y1876263D1*
X3523125Y1878287D1*
X3526718Y1879767D1*
X3530498Y1880667D1*
X3534373Y1880965D1*
X3538246Y1880652D1*
X3542023Y1879738D1*
X3545610Y1878244D1*
X3548919Y1876207D1*
X3551869Y1873678D1*
X3554387Y1870718D1*
X3556412Y1867401D1*
X3557892Y1863808D1*
X3558792Y1860028D1*
X3559089Y1856201D1*
X3558777Y1852280D1*
X3615028Y1827280D2*
X3614113Y1823504D1*
X3612619Y1819916D1*
X3610583Y1816607D1*
X3608053Y1813657D1*
X3605094Y1811139D1*
X3601777Y1809115D1*
X3598184Y1807635D1*
X3594403Y1806735D1*
X3590529Y1806437D1*
X3586656Y1806749D1*
X3582879Y1807664D1*
X3579292Y1809158D1*
X3575982Y1811194D1*
X3573032Y1813724D1*
X3570514Y1816683D1*
X3568490Y1820000D1*
X3567010Y1823593D1*
X3566110Y1827373D1*
X3565812Y1831248D1*
X3566125Y1835121D1*
X3567039Y1838898D1*
X3568533Y1842485D1*
X3570570Y1845795D1*
X3573099Y1848745D1*
X3576058Y1851263D1*
X3579376Y1853287D1*
X3582969Y1854767D1*
X3586749Y1855667D1*
X3590623Y1855965D1*
X3594497Y1855652D1*
X3598273Y1854738D1*
X3601861Y1853244D1*
X3605170Y1851207D1*
X3608120Y1848678D1*
X3610638Y1845718D1*
X3612662Y1842401D1*
X3614142Y1838808D1*
X3615042Y1835028D1*
X3615340Y1831201D1*
X3615028Y1827280D1*
X2949403Y864782D2*
X2948489Y861005D1*
X2946995Y857418D1*
X2944958Y854108D1*
X2942429Y851158D1*
X2939469Y848640D1*
X2936152Y846616D1*
X2932559Y845136D1*
X2928779Y844236D1*
X2924904Y843938D1*
X2921031Y844251D1*
X2917254Y845165D1*
X2913667Y846659D1*
X2910358Y848696D1*
X2907408Y851225D1*
X2904889Y854184D1*
X2902865Y857502D1*
X2901385Y861095D1*
X2900485Y864875D1*
X2900188Y868749D1*
X2900500Y872623D1*
X2901414Y876399D1*
X2902908Y879987D1*
X2904945Y883296D1*
X2907474Y886246D1*
X2910434Y888764D1*
X2913751Y890788D1*
X2917344Y892268D1*
X2921124Y893168D1*
X2924999Y893466D1*
X2928872Y893154D1*
X2932649Y892239D1*
X2936236Y890745D1*
X2939545Y888709D1*
X2942495Y886179D1*
X2945013Y883220D1*
X2947037Y879903D1*
X2948518Y876310D1*
X2949418Y872529D1*
X2949715Y868702D1*
X2949403Y864782D1*
X3130406Y889535D2*
X3129491Y885758D1*
X3127997Y882171D1*
X3125961Y878861D1*
X3123431Y875911D1*
X3120472Y873393D1*
X3117155Y871369D1*
X3113562Y869889D1*
X3109781Y868989D1*
X3105907Y868692D1*
X3102034Y869004D1*
X3098257Y869918D1*
X3094670Y871412D1*
X3091360Y873449D1*
X3088410Y875978D1*
X3085892Y878938D1*
X3083868Y882255D1*
X3082388Y885848D1*
X3081488Y889628D1*
X3081190Y893503D1*
X3081503Y897376D1*
X3082417Y901153D1*
X3083911Y904740D1*
X3085947Y908049D1*
X3088477Y910999D1*
X3091436Y913517D1*
X3094754Y915541D1*
X3098346Y917022D1*
X3102127Y917922D1*
X3106001Y918219D1*
X3109875Y917907D1*
X3113651Y916993D1*
X3117239Y915499D1*
X3120548Y913462D1*
X3123498Y910933D1*
X3126016Y907973D1*
X3128040Y904656D1*
X3129520Y901063D1*
X3130420Y897283D1*
X3130718Y893455D1*
X3130406Y889535D1*
X3171539Y845870D2*
X3170625Y842093D1*
X3169131Y838506D1*
X3167095Y835196D1*
X3164565Y832246D1*
X3161606Y829728D1*
X3158288Y827704D1*
X3154696Y826224D1*
X3150915Y825324D1*
X3147041Y825026D1*
X3143167Y825339D1*
X3139391Y826253D1*
X3135803Y827747D1*
X3132494Y829783D1*
X3129544Y832313D1*
X3127026Y835272D1*
X3125002Y838590D1*
X3123522Y842182D1*
X3122622Y845963D1*
X3122324Y849837D1*
X3122636Y853710D1*
X3123551Y857487D1*
X3125045Y861075D1*
X3127081Y864384D1*
X3129611Y867334D1*
X3132570Y869852D1*
X3135887Y871876D1*
X3139480Y873356D1*
X3143261Y874256D1*
X3147135Y874554D1*
X3151008Y874242D1*
X3154785Y873327D1*
X3158372Y871833D1*
X3161682Y869797D1*
X3164632Y867267D1*
X3167150Y864308D1*
X3169174Y860991D1*
X3170654Y857398D1*
X3171554Y853617D1*
X3171852Y849790D1*
X3171539Y845870D1*
X2068152Y1230406D2*
X2067238Y1226630D1*
X2065744Y1223042D1*
X2063707Y1219733D1*
X2061178Y1216783D1*
X2058218Y1214265D1*
X2054901Y1212241D1*
X2051308Y1210760D1*
X2047528Y1209861D1*
X2043654Y1209563D1*
X2039780Y1209875D1*
X2036004Y1210790D1*
X2032416Y1212284D1*
X2029107Y1214320D1*
X2026157Y1216849D1*
X2023639Y1219809D1*
X2021615Y1223126D1*
X2020135Y1226719D1*
X2019235Y1230499D1*
X2018937Y1234374D1*
X2019249Y1238247D1*
X2020164Y1242024D1*
X2021658Y1245611D1*
X2023694Y1248921D1*
X2026224Y1251871D1*
X2029183Y1254389D1*
X2032500Y1256413D1*
X2036093Y1257893D1*
X2039873Y1258793D1*
X2043748Y1259091D1*
X2047621Y1258778D1*
X2051398Y1257864D1*
X2054985Y1256370D1*
X2058295Y1254333D1*
X2061245Y1251804D1*
X2063763Y1248844D1*
X2065787Y1245527D1*
X2067267Y1241934D1*
X2068167Y1238154D1*
X2068465Y1234327D1*
X2068152Y1230406D1*
X2205652Y1914780D2*
X2204738Y1911004D1*
X2203244Y1907416D1*
X2201207Y1904107D1*
X2198678Y1901157D1*
X2195718Y1898639D1*
X2192401Y1896615D1*
X2188808Y1895135D1*
X2185028Y1894235D1*
X2181154Y1893937D1*
X2177280Y1894249D1*
X2173504Y1895164D1*
X2169916Y1896658D1*
X2166607Y1898694D1*
X2163657Y1901224D1*
X2161139Y1904183D1*
X2159115Y1907500D1*
X2157635Y1911093D1*
X2156735Y1914873D1*
X2156437Y1918748D1*
X2156749Y1922621D1*
X2157664Y1926398D1*
X2159158Y1929985D1*
X2161194Y1933295D1*
X2163724Y1936245D1*
X2166683Y1938763D1*
X2170000Y1940787D1*
X2173593Y1942267D1*
X2177373Y1943167D1*
X2181248Y1943465D1*
X2185121Y1943152D1*
X2188898Y1942238D1*
X2192485Y1940744D1*
X2195795Y1938707D1*
X2198745Y1936178D1*
X2201263Y1933218D1*
X2203287Y1929901D1*
X2204767Y1926308D1*
X2205667Y1922528D1*
X2205965Y1918701D1*
X2205652Y1914780D1*
X3871277Y2108531D2*
X3870363Y2104754D1*
X3868869Y2101167D1*
X3866832Y2097858D1*
X3864303Y2094908D1*
X3861343Y2092389D1*
X3858026Y2090365D1*
X3854433Y2088885D1*
X3850653Y2087985D1*
X3846778Y2087688D1*
X3842905Y2088000D1*
X3839128Y2088914D1*
X3835541Y2090408D1*
X3832232Y2092445D1*
X3829282Y2094974D1*
X3826763Y2097934D1*
X3824739Y2101251D1*
X3823259Y2104844D1*
X3822359Y2108624D1*
X3822062Y2112499D1*
X3822374Y2116372D1*
X3823288Y2120149D1*
X3824782Y2123736D1*
X3826819Y2127045D1*
X3829348Y2129995D1*
X3832308Y2132513D1*
X3835625Y2134537D1*
X3839218Y2136018D1*
X3842998Y2136918D1*
X3846873Y2137215D1*
X3850746Y2136903D1*
X3854523Y2135989D1*
X3858110Y2134495D1*
X3861419Y2132458D1*
X3864369Y2129929D1*
X3866887Y2126969D1*
X3868912Y2123652D1*
X3870392Y2120059D1*
X3871292Y2116279D1*
X3871589Y2112451D1*
X3871277Y2108531D1*
X4165042Y1033553D2*
X4163578Y1034942D1*
X4162994Y1036872D1*
X4162992Y1100021D1*
Y1187395D1*
X4163475Y1189291D1*
X4164863Y1190753D1*
X4166793Y1191336D1*
X4229812Y1191339D1*
X4300790D1*
X4300787Y1399987D1*
Y2588190D1*
X3239065Y2588189D1*
X3239045D1*
X3239222Y2587811D1*
X3240597Y2584134D1*
X3241675Y2580359D1*
X3242449Y2576511D1*
X3242916Y2572613D1*
X3243071Y2568701D1*
X3242914Y2564768D1*
X3242446Y2560870D1*
X3241670Y2557022D1*
X3240590Y2553248D1*
X3239214Y2549572D1*
X3237551Y2546016D1*
X3235610Y2542604D1*
X3233404Y2539357D1*
X3230947Y2536295D1*
X3228254Y2533438D1*
X3225344Y2530804D1*
X3222233Y2528410D1*
X3218941Y2526271D1*
X3215491Y2524399D1*
X3211902Y2522808D1*
X3208198Y2521507D1*
X3204403Y2520505D1*
X3200540Y2519807D1*
X3196634Y2519418D1*
X3192709Y2519341D1*
X3188790Y2519576D1*
X3184903Y2520121D1*
X3181071Y2520974D1*
X3177319Y2522128D1*
X3173670Y2523577D1*
X3170149Y2525311D1*
X3166776Y2527319D1*
X3163573Y2529589D1*
X3160561Y2532106D1*
X3157758Y2534855D1*
X3155183Y2537818D1*
X3152851Y2540976D1*
X3150777Y2544309D1*
X3148975Y2547796D1*
X3147455Y2551416D1*
X3146228Y2555145D1*
X3145301Y2558959D1*
X3144680Y2562835D1*
X3144369Y2566748D1*
X3144370Y2570674D1*
X3144683Y2574587D1*
X3145305Y2578463D1*
X3146234Y2582277D1*
X3147463Y2586005D1*
X3148379Y2588186D1*
X3139063Y2588189D1*
X3139680Y2586681D1*
X3140143Y2585451D1*
X3140572Y2584209D1*
X3140968Y2582956D1*
X3141331Y2581692D1*
X3141660Y2580420D1*
X3141955Y2579139D1*
X3142216Y2577851D1*
X3142442Y2576556D1*
X3142634Y2575256D1*
X3142791Y2573951D1*
X3142913Y2572642D1*
X3143001Y2571330D1*
X3143053Y2570017D1*
X3143071Y2568701D1*
X3143053Y2567389D1*
X3143001Y2566075D1*
X3142914Y2564764D1*
X3142791Y2563455D1*
X3142634Y2562150D1*
X3142443Y2560850D1*
X3142216Y2559555D1*
X3141956Y2558267D1*
X3141661Y2556986D1*
X3141332Y2555713D1*
X3140969Y2554450D1*
X3140573Y2553197D1*
X3140144Y2551954D1*
X3139682Y2550724D1*
X3139187Y2549506D1*
X3138660Y2548302D1*
X3138101Y2547113D1*
X3137510Y2545938D1*
X3136889Y2544780D1*
X3136237Y2543639D1*
X3135555Y2542516D1*
X3134843Y2541411D1*
X3134102Y2540325D1*
X3133332Y2539260D1*
X3132534Y2538215D1*
X3131709Y2537192D1*
X3130857Y2536192D1*
X3129978Y2535214D1*
X3129074Y2534260D1*
X3128144Y2533331D1*
X3127191Y2532426D1*
X3126213Y2531548D1*
X3125213Y2530695D1*
X3124190Y2529870D1*
X3123145Y2529072D1*
X3122080Y2528302D1*
X3120994Y2527561D1*
X3119889Y2526849D1*
X3118766Y2526167D1*
X3117625Y2525515D1*
X3116467Y2524893D1*
X3115293Y2524303D1*
X3114103Y2523744D1*
X3112899Y2523216D1*
X3111681Y2522721D1*
X3110451Y2522259D1*
X3109209Y2521830D1*
X3107956Y2521433D1*
X3106692Y2521071D1*
X3105420Y2520742D1*
X3104139Y2520447D1*
X3102851Y2520186D1*
X3101556Y2519960D1*
X3100256Y2519768D1*
X3098951Y2519611D1*
X3097642Y2519488D1*
X3096330Y2519401D1*
X3095017Y2519348D1*
X3093703Y2519331D1*
X3092389Y2519348D1*
X3091075Y2519401D1*
X3089764Y2519488D1*
X3088455Y2519610D1*
X3087150Y2519767D1*
X3085850Y2519959D1*
X3084555Y2520185D1*
X3083267Y2520446D1*
X3081986Y2520741D1*
X3080713Y2521070D1*
X3079450Y2521432D1*
X3078197Y2521828D1*
X3076954Y2522258D1*
X3075724Y2522720D1*
X3074506Y2523215D1*
X3073302Y2523742D1*
X3072113Y2524301D1*
X3070938Y2524891D1*
X3069780Y2525513D1*
X3068639Y2526165D1*
X3067516Y2526847D1*
X3066411Y2527559D1*
X3065325Y2528300D1*
X3064260Y2529070D1*
X3063215Y2529867D1*
X3062192Y2530693D1*
X3061192Y2531545D1*
X3060214Y2532424D1*
X3059260Y2533328D1*
X3058331Y2534257D1*
X3057426Y2535211D1*
X3056548Y2536188D1*
X3055695Y2537189D1*
X3054870Y2538212D1*
X3054072Y2539256D1*
X3053302Y2540322D1*
X3052561Y2541407D1*
X3051849Y2542512D1*
X3051167Y2543635D1*
X3050515Y2544777D1*
X3049893Y2545935D1*
X3049303Y2547109D1*
X3048744Y2548299D1*
X3048216Y2549503D1*
X3047721Y2550720D1*
X3047259Y2551951D1*
X3046830Y2553193D1*
X3046433Y2554446D1*
X3046071Y2555709D1*
X3045742Y2556982D1*
X3045447Y2558263D1*
X3045186Y2559551D1*
X3044960Y2560846D1*
X3044768Y2562146D1*
X3044611Y2563451D1*
X3044488Y2564760D1*
X3044401Y2566071D1*
X3044348Y2567384D1*
X3044331Y2568699D1*
X3044348Y2570013D1*
X3044401Y2571326D1*
X3044488Y2572638D1*
X3044610Y2573946D1*
X3044767Y2575251D1*
X3044959Y2576552D1*
X3045185Y2577846D1*
X3045446Y2579135D1*
X3045741Y2580416D1*
X3046070Y2581688D1*
X3046432Y2582952D1*
X3046828Y2584205D1*
X3047258Y2585447D1*
X3047720Y2586677D1*
X3048343Y2588188D1*
X3039062Y2588189D1*
X3039222Y2587811D1*
X3040597Y2584134D1*
X3041675Y2580359D1*
X3042449Y2576511D1*
X3042916Y2572613D1*
X3043071Y2568701D1*
X3042914Y2564768D1*
X3042446Y2560870D1*
X3041670Y2557022D1*
X3040590Y2553248D1*
X3039214Y2549572D1*
X3037551Y2546016D1*
X3035610Y2542604D1*
X3033404Y2539357D1*
X3030947Y2536295D1*
X3028254Y2533438D1*
X3025344Y2530804D1*
X3022233Y2528410D1*
X3018941Y2526271D1*
X3015491Y2524399D1*
X3011902Y2522808D1*
X3008198Y2521507D1*
X3004403Y2520505D1*
X3000540Y2519807D1*
X2996634Y2519418D1*
X2992709Y2519341D1*
X2988790Y2519576D1*
X2984903Y2520121D1*
X2981071Y2520974D1*
X2977319Y2522128D1*
X2973670Y2523577D1*
X2970149Y2525311D1*
X2966776Y2527319D1*
X2963573Y2529589D1*
X2960561Y2532106D1*
X2957758Y2534855D1*
X2955183Y2537818D1*
X2952851Y2540976D1*
X2950777Y2544309D1*
X2948975Y2547796D1*
X2947455Y2551416D1*
X2946228Y2555145D1*
X2945301Y2558959D1*
X2944680Y2562835D1*
X2944369Y2566748D1*
X2944370Y2570674D1*
X2944683Y2574587D1*
X2945305Y2578463D1*
X2946234Y2582277D1*
X2947463Y2586005D1*
X2948379Y2588186D1*
X2939060Y2588189D1*
X2939222Y2587811D1*
X2940597Y2584134D1*
X2941675Y2580359D1*
X2942449Y2576511D1*
X2942916Y2572613D1*
X2943071Y2568701D1*
X2942914Y2564768D1*
X2942446Y2560870D1*
X2941670Y2557022D1*
X2940590Y2553248D1*
X2939214Y2549572D1*
X2937551Y2546016D1*
X2935610Y2542604D1*
X2933404Y2539357D1*
X2930947Y2536295D1*
X2928254Y2533438D1*
X2925344Y2530804D1*
X2922233Y2528410D1*
X2918941Y2526271D1*
X2915491Y2524399D1*
X2911902Y2522808D1*
X2908198Y2521507D1*
X2904403Y2520505D1*
X2900540Y2519807D1*
X2896634Y2519418D1*
X2892709Y2519341D1*
X2888790Y2519576D1*
X2884903Y2520121D1*
X2881071Y2520974D1*
X2877319Y2522128D1*
X2873670Y2523577D1*
X2870149Y2525311D1*
X2866776Y2527319D1*
X2863573Y2529589D1*
X2860561Y2532106D1*
X2857758Y2534855D1*
X2855183Y2537818D1*
X2852851Y2540976D1*
X2850777Y2544309D1*
X2848975Y2547796D1*
X2847455Y2551416D1*
X2846228Y2555145D1*
X2845301Y2558959D1*
X2844680Y2562835D1*
X2844369Y2566748D1*
X2844370Y2570674D1*
X2844683Y2574587D1*
X2845305Y2578463D1*
X2846234Y2582277D1*
X2847463Y2586005D1*
X2848379Y2588186D1*
X2839059Y2588189D1*
X2839222Y2587811D1*
X2840597Y2584134D1*
X2841675Y2580359D1*
X2842449Y2576511D1*
X2842916Y2572613D1*
X2843071Y2568701D1*
X2842914Y2564768D1*
X2842446Y2560870D1*
X2841670Y2557022D1*
X2840590Y2553248D1*
X2839214Y2549572D1*
X2837551Y2546016D1*
X2835610Y2542604D1*
X2833404Y2539357D1*
X2830947Y2536295D1*
X2828254Y2533438D1*
X2825344Y2530804D1*
X2822233Y2528410D1*
X2818941Y2526271D1*
X2815491Y2524399D1*
X2811902Y2522808D1*
X2808198Y2521507D1*
X2804403Y2520505D1*
X2800540Y2519807D1*
X2796634Y2519418D1*
X2792709Y2519341D1*
X2788790Y2519576D1*
X2784903Y2520121D1*
X2781071Y2520974D1*
X2777319Y2522128D1*
X2773670Y2523577D1*
X2770149Y2525311D1*
X2766776Y2527319D1*
X2763573Y2529589D1*
X2760561Y2532106D1*
X2757758Y2534855D1*
X2755183Y2537818D1*
X2752851Y2540976D1*
X2750777Y2544309D1*
X2748975Y2547796D1*
X2747455Y2551416D1*
X2746228Y2555145D1*
X2745301Y2558959D1*
X2744680Y2562835D1*
X2744369Y2566748D1*
X2744370Y2570674D1*
X2744683Y2574587D1*
X2745305Y2578463D1*
X2746234Y2582277D1*
X2747463Y2586005D1*
X2748379Y2588186D1*
X2739065Y2588189D1*
X2739222Y2587811D1*
X2740597Y2584134D1*
X2741675Y2580359D1*
X2742449Y2576511D1*
X2742916Y2572613D1*
X2743071Y2568701D1*
X2742914Y2564768D1*
X2742446Y2560870D1*
X2741670Y2557022D1*
X2740590Y2553248D1*
X2739214Y2549572D1*
X2737551Y2546016D1*
X2735610Y2542604D1*
X2733404Y2539357D1*
X2730947Y2536295D1*
X2728254Y2533438D1*
X2725344Y2530804D1*
X2722233Y2528410D1*
X2718941Y2526271D1*
X2715491Y2524399D1*
X2711902Y2522808D1*
X2708198Y2521507D1*
X2704403Y2520505D1*
X2700540Y2519807D1*
X2696634Y2519418D1*
X2692709Y2519341D1*
X2688790Y2519576D1*
X2684903Y2520121D1*
X2681071Y2520974D1*
X2677319Y2522128D1*
X2673670Y2523577D1*
X2670149Y2525311D1*
X2666776Y2527319D1*
X2663573Y2529589D1*
X2660561Y2532106D1*
X2657758Y2534855D1*
X2655183Y2537818D1*
X2652851Y2540976D1*
X2650777Y2544309D1*
X2648975Y2547796D1*
X2647455Y2551416D1*
X2646228Y2555145D1*
X2645301Y2558959D1*
X2644680Y2562835D1*
X2644369Y2566748D1*
X2644370Y2570674D1*
X2644683Y2574587D1*
X2645305Y2578463D1*
X2646234Y2582277D1*
X2647463Y2586005D1*
X2648379Y2588186D1*
X2603942Y2588189D1*
X423620D1*
X423622Y2387415D1*
Y1191337D1*
X557473Y1191339D1*
X559370Y1190856D1*
X560832Y1189468D1*
X561415Y1187538D1*
X561417Y1124389D1*
Y1037015D1*
X560934Y1035118D1*
X559546Y1033656D1*
X557616Y1033073D1*
X494598Y1033071D1*
X423620D1*
X423622Y856692D1*
X842913Y856693D1*
X844862Y856177D1*
X846300Y854764D1*
X846849Y852822D1*
X846853Y423622D1*
X3877557D1*
X3877559Y852752D1*
X3878042Y854645D1*
X3879430Y856107D1*
X3881360Y856691D1*
X3944470Y856693D1*
X4300788D1*
X4300787Y1033072D1*
X4166936Y1033071D1*
X4165042Y1033553D1*
X3093701Y2568701D2*
D16*
Y2519346D1*
X3044346Y2568701D2*
X3143055D1*
D22*
X481202Y2528076D3*
D3*
X4234325D3*
D3*
X481199Y918701D3*
D3*
D27*
X3193701Y2568701D3*
X3093701D3*
X2993701D3*
X2893701D3*
X2793701D3*
X2693701D3*
M02*
