G04 DipTrace 4.0.0.4*
G04 2 - Inner 1.gbr*
%MOIN*%
G04 #@! TF.FileFunction,Copper,L2,Inr*
G04 #@! TF.Part,Single*
%ADD25C,0.066929*%
%ADD36C,0.057165*%
G04 #@! TA.AperFunction,Conductor*
%ADD15C,0.007874*%
G04 #@! TA.AperFunction,CopperBalancing*
%ADD17C,0.019685*%
%ADD19C,0.025*%
G04 #@! TA.AperFunction,ViaPad*
%ADD39C,0.017717*%
%FSLAX26Y26*%
G04*
G70*
G90*
G75*
G01*
G04 Inner1_Plane*
%LPD*%
X1012450Y806199D2*
D15*
X1081202Y874951D1*
X2274951D1*
D39*
X2274950Y843701D3*
X1143667Y1031201D3*
X724950D3*
X1360202D3*
X1143667D3*
X1676050D3*
X1360202D3*
X3615453D3*
X3301969Y1033219D3*
X2899950Y1031201D3*
X949951D3*
X724950D3*
X3085433Y1032907D3*
X3615453Y1031201D3*
X2487462Y874940D3*
X2612450Y862451D3*
Y962451D3*
X1406201Y1493701D3*
X935157Y2283631D3*
X1465576Y1237450D3*
X1099950Y1231176D3*
X1068701Y1211678D3*
X1049950Y806201D3*
X1003076Y1237451D3*
X1393701Y1543701D3*
X1332579Y2298572D3*
X1418701Y899950D3*
X1456201D3*
X1381201Y1206201D3*
X1357882Y1226673D3*
X1299951Y1203076D3*
X1286444Y1227991D3*
X1242092Y1204592D3*
X1222407Y1228618D3*
X1191228Y1204060D3*
X1156201Y1231175D3*
X1129890Y1203533D3*
X1253839Y2263030D3*
X1937450Y899950D3*
X1212450Y2262450D3*
X1906201Y899951D3*
X1175098Y2262451D3*
X1874950Y899950D3*
X1137450Y2262451D3*
X1843701Y899950D3*
X1074950Y2262450D3*
X1806201Y899950D3*
X1037449Y2263304D3*
X1774950Y899950D3*
X998073Y2262916D3*
X1743701Y899950D3*
X958563Y2263353D3*
X1712450Y899950D3*
X2018701Y1306201D3*
X2249950Y1431201D3*
X2381201Y1524950D3*
X2406201Y1512451D3*
X806201Y1312451D3*
Y1256201D3*
X1012450Y806199D3*
X2274951Y874951D3*
X2537450Y899950D3*
D3*
X2987008Y1481644D3*
X2643701Y2218701D3*
X2468701Y831201D3*
X3212451Y893701D3*
X3174950Y1324951D3*
X2662451Y1306201D3*
X3262451Y893701D3*
X3118701Y1306201D3*
X2643701Y1287451D3*
X3324950Y893701D3*
X3456201Y956201D3*
X3374950Y893701D3*
X3518701Y1868701D3*
X3568701Y1831201D3*
X3037451Y893701D3*
X3099950D3*
X3149950D3*
X3843701Y849950D3*
X3824950Y868701D3*
X3804471Y885490D3*
X3784201Y906201D3*
X2061861Y1255610D3*
X2068999Y2106201D3*
X1993701Y1281201D3*
X2306202Y1374950D3*
X806201Y1149950D3*
X2331201Y1549951D3*
X2356201Y1537451D3*
X949950Y1331201D3*
X1931955Y1465651D3*
X1906365Y1434400D3*
X1880774Y1465651D3*
X1855184Y1434400D3*
X1829593Y1465651D3*
X1804003Y1434400D3*
X1778412Y1465651D3*
X1752822Y1434400D3*
X1068701Y1487451D3*
X1085139Y1174701D3*
X1727231Y1231054D3*
X1752822Y1206054D3*
X1778412Y1231054D3*
X1804003Y1206054D3*
X1829593Y1231054D3*
X1855184Y1206054D3*
X1880774Y1231054D3*
X1906365Y1206054D3*
X962451Y2468701D3*
X1203037Y1174776D3*
X1300617Y1170908D3*
X1468701Y1174951D3*
X1199950Y2518701D3*
X1299950D3*
X1562451Y1218701D3*
X1543701Y1337450D3*
X1643701Y2318701D3*
X1756201D3*
X1862451D3*
X949951Y1462450D3*
X1549951Y1474951D3*
X1115576Y1534325D3*
X599950Y1649951D3*
X2106201Y2468701D3*
X1687451Y2174950D3*
X2012451Y2049950D3*
X2168701Y2206201D3*
X2262451Y2299950D3*
X2031201Y2068701D3*
X2137451Y2174950D3*
X2281201Y2318701D3*
X2556201Y2299950D3*
X2574950Y2281201D3*
X2662451Y2199950D3*
X2687451Y2174950D3*
X2782769Y2080348D3*
X2803076Y2059325D3*
X3031201Y1924950D3*
X2799950Y1824950D3*
X2781201Y1806201D3*
X2687451Y1712451D3*
X2656201Y1681201D3*
X2524950Y1549950D3*
X2499950Y1524950D3*
X2299950Y1549950D3*
X2274950Y1574950D3*
X2181201Y1668701D3*
X2149951Y1699950D3*
X2056201Y1793701D3*
X2037451Y1812451D3*
X2224951Y1353428D3*
X3306201Y1924950D3*
X2899950Y1331201D3*
X3518701Y1318701D3*
X3649950Y1987451D3*
X4056201Y2037451D3*
X2687451Y1374950D3*
X2824950Y1512451D3*
X2899950Y1468701D3*
X2956201Y1649951D3*
X2112451Y1212451D3*
X2037451Y1468701D3*
X1887451Y1643701D3*
X1718701Y1943701D3*
Y1806201D3*
X1799950Y2006201D3*
X1856201Y1918701D3*
X3774950Y1693701D3*
X3418701Y1481201D3*
X3606201Y1593701D3*
X3456201Y824950D3*
X2362451Y799950D3*
X787450Y874951D3*
X2412451Y799950D3*
Y974951D3*
X3668701Y1312450D3*
X618701Y943701D3*
X2462451Y799950D3*
X906202Y912451D3*
X3853076Y709325D3*
X2412451Y949951D3*
X706201Y943701D3*
X2412451Y924950D3*
X618701Y1093701D3*
X2412451Y899950D3*
X943701Y949951D3*
X2412451Y874950D3*
X456201Y1196826D3*
X2412451Y849950D3*
X456201Y1384326D3*
X2412451Y824950D3*
X449951Y1584326D3*
X599950Y1624951D3*
X456201Y1784326D3*
X943701Y874951D3*
X599950Y1599951D3*
X456201Y1984326D3*
X906202Y987451D3*
X599950Y1574951D3*
X456201Y2184326D3*
X599950Y1549951D3*
X981201Y987451D3*
X599950Y1524951D3*
X456201Y2384326D3*
X599950Y1499950D3*
X981201Y912451D3*
X599950Y1674950D3*
X456201Y2571826D3*
X724950Y1474950D3*
X981201Y837450D3*
X724950Y1449950D3*
X643701Y2581201D3*
X724950Y1424950D3*
X843701Y2581201D3*
X868701Y949951D3*
X724950Y1399950D3*
X643701Y2393701D3*
X724950Y1374950D3*
X643701Y2193701D3*
X831201Y987451D3*
X724950Y1349951D3*
X774950Y1224950D3*
X781201Y1549951D3*
X743701Y1493701D3*
X762451Y1512451D3*
X781201Y1531201D3*
X687451Y1306201D3*
X1043701Y1506201D3*
X1424950Y1762451D3*
X1599950Y1956201D3*
Y1918701D3*
X1649951Y1956201D3*
Y1912451D3*
Y1868701D3*
X1718701D3*
X1787451Y1862451D3*
Y1937451D3*
X1037450Y2468701D3*
X1199950Y2456201D3*
X1062451Y2518701D3*
X2018701Y1831201D3*
X1999950Y1849950D3*
X1243701Y2456201D3*
X1374951Y2443701D3*
X1393701Y2462451D3*
X1412451Y2481201D3*
X1043701Y2518701D3*
X1024950D3*
X1724950Y2174950D3*
X1699950Y2318701D3*
X1812451D3*
X1981201Y1868701D3*
X1962451Y1887451D3*
X2131201Y1718701D3*
X2112451Y1737451D3*
X2074951Y1774950D3*
X2543701Y1568701D3*
X2562451Y1587451D3*
X2581201Y1606201D3*
X2599950Y1624951D3*
X2618701Y1643701D3*
X2637451Y1662451D3*
X2818701Y1843701D3*
X2837451Y1862451D3*
X2856201Y1881201D3*
X2874950Y1899950D3*
X2799950Y1824950D3*
X2818701Y2043701D3*
X2837451Y2024950D3*
X2856201Y2006201D3*
X2874950Y1987451D3*
X2662451Y2174950D3*
Y2149951D3*
Y2124951D3*
Y2099951D3*
X2574951Y2256199D3*
Y2231201D3*
Y2206201D3*
Y2181201D3*
X2299950Y2337451D3*
X2318701Y2356201D3*
X2337450Y2374951D3*
X2356201Y2393701D3*
X2049950Y2049949D3*
Y2024950D3*
Y1999950D3*
Y1974950D3*
X3324950Y1924950D3*
X3343701D3*
X3362451D3*
X3381201D3*
X3681199Y2018701D3*
X3618701Y1956201D3*
X3587451Y1924950D3*
X3649948Y1924953D3*
X3681197Y1956201D3*
X3618698Y1893701D3*
X3587451Y1862450D3*
X3649950Y1862451D3*
X3681201Y1893701D3*
X4124950Y1974950D3*
X4187450Y1912451D3*
X3306201Y2043701D3*
X3331201Y1874950D3*
X3387451Y1718701D3*
X3493701Y1831201D3*
X3406201Y1943701D3*
X3199950Y2112451D3*
X3418701Y2043701D3*
X3531201D3*
X3637451D3*
X3531201Y1931201D3*
X3793701Y724950D3*
X3474950Y1987451D3*
X3581201D3*
X3337450Y837451D3*
X3493701Y1318701D3*
X3468701D3*
X2874950Y1331201D3*
X2849950D3*
X3224950Y1724950D3*
X3168701Y1668701D3*
X3112451Y1612451D3*
X3056201Y1556201D3*
X2974950D3*
X3031201Y1612451D3*
X3081201Y1668701D3*
X2893701Y1543701D3*
X2843701Y1681201D3*
X2787451Y1624951D3*
X2649951Y1493701D3*
X2712451Y1556201D3*
X2768701Y1331201D3*
X2924950Y1574950D3*
X2768701Y1418701D3*
X2574950D3*
X3093701Y1968701D3*
Y1881201D3*
X2968701Y1943701D3*
X2899950D3*
X3024950Y1993701D3*
Y1881201D3*
X3012451Y2181201D3*
X3199950D3*
X3106201D3*
X1499950Y899950D3*
X1568701D3*
X1631201D3*
X1687451Y924950D3*
X1499950Y974950D3*
X1568701D3*
X1631201D3*
X1687451Y993701D3*
X1512451Y1074950D3*
X1562451D3*
Y1137451D3*
X1490576Y1221825D3*
X2174950Y1074950D3*
X2237450D3*
X2112451Y1137451D3*
X2012451D3*
X1949950Y1074950D3*
X2012451D3*
Y1199950D3*
Y1256201D3*
X1987451Y1362451D3*
Y1412451D3*
Y1456201D3*
Y1506201D3*
X2037451Y1418701D3*
Y1374950D3*
X1968701Y981201D3*
X1974950Y906201D3*
X2199951Y849951D3*
X2143699Y849950D3*
X2087451D3*
Y793701D3*
X2031201Y849950D3*
Y906201D3*
X2087451D3*
X2143702D3*
X2199951D3*
X2256201D3*
X2143702Y793701D3*
Y731201D3*
X2199951Y793701D3*
X2187451Y731201D3*
X2249950Y993701D3*
X2362451Y706201D3*
X2462451D3*
X2499950Y831201D3*
X2549950Y774950D3*
X2540576Y859325D3*
X2574950Y968701D3*
Y918701D3*
X1662451Y1218701D3*
X1293701Y2287451D3*
Y2249951D3*
X1324951Y2268701D3*
X3024950Y1343701D3*
X2968701D3*
X3143701D3*
X3237451D3*
X3356201D3*
X3418701D3*
X2968701Y1149950D3*
X3024950D3*
X3143701D3*
X3243701D3*
X3356201D3*
X3410403Y1150678D3*
X3899951Y1443701D3*
X3883774Y1199483D3*
X456201Y865575D3*
Y1003076D3*
X618699Y1012451D3*
Y1168701D3*
X618701Y874950D3*
X543701Y2093701D3*
Y2293701D3*
Y2493701D3*
X743701D3*
X543701Y1518701D3*
Y1293701D3*
X4281201Y2568701D3*
X4243701Y2343701D3*
Y2143701D3*
Y1943701D3*
Y1743701D3*
Y1543701D3*
Y1393701D3*
Y1193701D3*
X4043701D3*
Y993701D3*
X4243701D3*
X4143701Y893701D3*
X3943701Y1093701D3*
X4143701Y1293701D3*
Y1593701D3*
X4043701Y1493701D3*
X3943701Y1393701D3*
Y1537451D3*
X3793701Y1293701D3*
X3493701Y1243701D3*
X3393701D3*
X3293701Y1193701D3*
X3093701D3*
X2893701D3*
X2693701D3*
X2493701D3*
X2393701Y1293701D3*
X2593701Y1093701D3*
X2793701D3*
X2693701Y993701D3*
X2893701D3*
X4143701Y2443701D3*
X4043701Y2543701D3*
X3843701D3*
X3643701D3*
X3443701D3*
X3243701D3*
X3943701Y2443701D3*
X3743701D3*
X3543701D3*
X3343701D3*
X3143701D3*
X2943701D3*
X3043701Y2343701D3*
X3243701D3*
X3443701D3*
X3643701D3*
X3843701D3*
X4043701D3*
X3943701Y2243701D3*
X4143701D3*
X3743701D3*
X3543701D3*
X3343701D3*
X4043701Y2143701D3*
X4143701Y2043701D3*
X3843701Y2143701D3*
X3643701D3*
X3443701D3*
X743701Y2293701D3*
Y2093701D3*
X843701Y2193701D3*
Y1993701D3*
X743701Y1893701D3*
X3343701Y743701D3*
X3393701Y843701D3*
X2393701Y2343701D3*
X2293701Y2243701D3*
X2193701Y2143701D3*
X2293701Y2043701D3*
X2393701Y1943701D3*
Y2143701D3*
X2493701Y2243701D3*
X2193701Y1943701D3*
X2293701Y1843701D3*
X2493701Y2043701D3*
X2137451Y2149951D3*
Y2124951D3*
Y2099951D3*
X2593701Y2143701D3*
X2693701Y2043701D3*
X2593701Y1943701D3*
X2493701Y1843701D3*
X2393701Y1743701D3*
X2493701Y1643701D3*
X2593701Y1743701D3*
X2693701Y1843701D3*
X2793701Y1943701D3*
X2193701Y2043701D3*
X2293701Y2143701D3*
X2393701Y2243701D3*
X2493701Y2143701D3*
X2393701Y2043701D3*
X2293701Y1943701D3*
X2393701Y1843701D3*
X2493701Y1943701D3*
X2593701Y2043701D3*
X2693701Y1943701D3*
X2593701Y1843701D3*
X2493701Y1743701D3*
X2393701Y1643701D3*
X2293701Y1743701D3*
X2193701Y1843701D3*
X2068701Y1937451D3*
X2443701Y1493701D3*
X2493701Y1543701D3*
X2137451Y2074951D3*
Y2174950D3*
X1406201Y2412450D3*
X1399951Y2343701D3*
X1437451Y2468701D3*
X1462450Y2412450D3*
X724950Y1056201D3*
X1506201Y2468701D3*
X724950Y1081201D3*
Y1106201D3*
Y1131201D3*
Y1156201D3*
Y1181201D3*
X1143701Y1049950D3*
X1359941Y1049623D3*
X1676354Y1048314D3*
X3085344Y1050559D3*
X3301756Y1047865D3*
X3594298Y1030560D3*
X3573911Y1030735D3*
X3943701Y893701D3*
X4043701Y1393701D3*
X1956201Y1437451D3*
X1987451Y1549950D3*
X2412450Y2581201D3*
X2218701D3*
X2593701D3*
X2412451Y2493701D3*
X2299951Y2531201D3*
X2487451Y2549950D3*
X774950Y1449950D3*
Y1374950D3*
Y1312451D3*
X868701Y1199950D3*
X968701D3*
X774950Y1074950D3*
X868701D3*
X2587451Y2456201D3*
X2693701Y2418701D3*
X2824950D3*
X2718701Y2324950D3*
X2787451Y2249950D3*
X2818701Y2212451D3*
X2912451Y2343701D3*
X2637451Y2393701D3*
X843701Y1518701D3*
X924950D3*
X1140576Y956201D3*
X1253076D3*
X1365576D3*
X1140576Y818701D3*
X1203076Y753076D3*
X1159325Y709325D3*
X1034325Y771825D3*
X1074950Y706201D3*
X981201Y724950D3*
X1018701Y949951D3*
X1253076Y893701D3*
X1140576D3*
X1365576D3*
X1362450Y709325D3*
X1262451D3*
X1462451D3*
X1562451Y706201D3*
X1662451D3*
X1762451D3*
X1862451D3*
X1962451D3*
X2062451D3*
X2262451D3*
X2562451D3*
X2662451D3*
X2762451D3*
X2862451D3*
X2962451D3*
X3062451D3*
X3162451D3*
X3262451D3*
X3362451D3*
X3462451D3*
X3562451D3*
X3662451D3*
X3756201Y762451D3*
X2162451Y706201D3*
X1421825Y743701D3*
X1521825Y759325D3*
X1615576Y774950D3*
X1693701Y787451D3*
X1753076Y818701D3*
X1859325Y831201D3*
X1924950Y853076D3*
X2359325Y896825D3*
X2296825Y803076D3*
X2587451Y746825D3*
X2774951Y884325D3*
X2706201D3*
X2653076Y831201D3*
X2693701Y771825D3*
X2831201Y874950D3*
X2743701Y781201D3*
X2934325Y874950D3*
X2884325D3*
X2849950Y787451D3*
X2787451Y831201D3*
X2962450D3*
X3040576D3*
X3431201Y915576D3*
X3562451D3*
X3478076Y1103076D3*
X3587451Y1243701D3*
X3478076Y993701D3*
X3571825Y828076D3*
X3790576Y793701D3*
X3762451Y837451D3*
Y881201D3*
X2590576Y806201D3*
X3768701Y749950D3*
X3781201Y737451D3*
X1006201Y2518701D3*
X987451D3*
X3853076Y759325D3*
Y812451D3*
X1549950Y1509325D3*
X1499950Y1443701D3*
X1109325Y1349951D3*
X1440576Y1353076D3*
Y1328076D3*
X1084325D3*
X1131201Y1518701D3*
X1396825Y1515576D3*
X1381201Y1499950D3*
X1549950Y1456201D3*
Y1437451D3*
X3081201Y962451D3*
X3193701D3*
X3306201D3*
X574950Y1674950D3*
X624950D3*
X574950Y1649951D3*
X624950D3*
Y1624951D3*
X574950D3*
Y1524951D3*
X624950D3*
Y1499950D3*
X574950D3*
Y1474950D3*
X599950D3*
X624950D3*
X731201Y1531201D3*
X634325Y1424950D3*
X690576Y1631201D3*
X4006201Y1740576D3*
X3587451Y1737451D3*
X3368701Y1521825D3*
X2359326Y993701D3*
X434694Y2554757D2*
D19*
X459550D1*
X540337D2*
X2625752D1*
X3249145D2*
X4181440D1*
X4262227D2*
X4289720D1*
X555050Y2529888D2*
X952024D1*
X1097888D2*
X2629054D1*
X3245843D2*
X4166727D1*
X4276921D2*
X4289720D1*
X555929Y2505020D2*
X952975D1*
X1096937D2*
X1384608D1*
X1440295D2*
X2646117D1*
X2728788D2*
X2746108D1*
X2828797D2*
X2846117D1*
X2928788D2*
X2946108D1*
X3028780D2*
X3046118D1*
X3128789D2*
X3146109D1*
X3228780D2*
X4165848D1*
X434694Y2480151D2*
X456015D1*
X543872D2*
X1361265D1*
X1449714D2*
X4177905D1*
X4265762D2*
X4289720D1*
X434694Y2455282D2*
X1339645D1*
X1438141D2*
X4289720D1*
X434694Y2430413D2*
X1340309D1*
X1409739D2*
X4289720D1*
X434694Y2405545D2*
X2318404D1*
X2391405D2*
X4289720D1*
X434694Y2380676D2*
X2291491D1*
X2390956D2*
X4289720D1*
X434694Y2355807D2*
X2267897D1*
X2368995D2*
X4289720D1*
X434694Y2330938D2*
X1317343D1*
X1347821D2*
X2246134D1*
X2345114D2*
X4289720D1*
X434694Y2306070D2*
X906075D1*
X964237D2*
X1296118D1*
X1369046D2*
X2246295D1*
X2317448D2*
X2548135D1*
X2601776D2*
X4289720D1*
X434694Y2281201D2*
X897965D1*
X1285993D2*
X1299939D1*
X1365207D2*
X2537675D1*
X2612236D2*
X4289720D1*
X434694Y2256332D2*
X911098D1*
X1290478D2*
X2537675D1*
X2612236D2*
X4289720D1*
X434694Y2231463D2*
X942174D1*
X1093259D2*
X1119155D1*
X1270939D2*
X2537675D1*
X2679680D2*
X4289720D1*
X434694Y2206594D2*
X2120503D1*
X2154390D2*
X2537675D1*
X2699094D2*
X4289720D1*
X434694Y2181726D2*
X2100839D1*
X2174072D2*
X2537675D1*
X2612236D2*
X2625842D1*
X2699076D2*
X4289720D1*
X434694Y2156857D2*
X2100856D1*
X2174036D2*
X2547615D1*
X2602296D2*
X2625860D1*
X2699040D2*
X4289720D1*
X434694Y2131988D2*
X2043155D1*
X2174018D2*
X2625896D1*
X2699022D2*
X4289720D1*
X434694Y2107119D2*
X2031726D1*
X2173983D2*
X2625914D1*
X2698986D2*
X4289720D1*
X434694Y2082251D2*
X1996667D1*
X2173965D2*
X2630005D1*
X2694895D2*
X2774421D1*
X2831740D2*
X4289720D1*
X434694Y2057382D2*
X1995805D1*
X2086425D2*
X2104929D1*
X2169964D2*
X2765844D1*
X2853181D2*
X4289720D1*
X434694Y2032513D2*
X2013496D1*
X2086407D2*
X2778422D1*
X2881457D2*
X4289720D1*
X434694Y2007644D2*
X2013532D1*
X2086371D2*
X2804779D1*
X2905769D2*
X4289720D1*
X434694Y1982776D2*
X2013550D1*
X2086335D2*
X2827996D1*
X2911923D2*
X4289720D1*
X434694Y1957907D2*
X2017121D1*
X2082765D2*
X2854101D1*
X2895811D2*
X3292570D1*
X3394816D2*
X4289720D1*
X434694Y1933038D2*
X2861727D1*
X2888186D2*
X3269874D1*
X3417531D2*
X4289720D1*
X434694Y1908169D2*
X1932003D1*
X1992893D2*
X2831728D1*
X2911241D2*
X3273229D1*
X3414176D2*
X4289720D1*
X434694Y1883301D2*
X1925419D1*
X2015267D2*
X2807111D1*
X2907994D2*
X3484622D1*
X3552779D2*
X4289720D1*
X434694Y1858432D2*
X1940777D1*
X2042844D2*
X2784683D1*
X2884992D2*
X3482972D1*
X3592843D2*
X4289720D1*
X434694Y1833563D2*
X1966775D1*
X2067604D2*
X2763745D1*
X2859317D2*
X3531505D1*
X3605905D2*
X4289720D1*
X434694Y1808694D2*
X1989687D1*
X2085887D2*
X2766705D1*
X2833193D2*
X3539687D1*
X3597724D2*
X4289720D1*
X434694Y1783825D2*
X2015183D1*
X2111078D2*
X4289720D1*
X434694Y1758957D2*
X2041558D1*
X2142297D2*
X4289720D1*
X434694Y1734088D2*
X2075325D1*
X2164904D2*
X4289720D1*
X434694Y1709219D2*
X566485D1*
X633403D2*
X2089625D1*
X2185986D2*
X2633091D1*
X2679322D2*
X4289720D1*
X434694Y1684350D2*
X538961D1*
X660944D2*
X2116358D1*
X2183546D2*
X2607918D1*
X2693334D2*
X4289720D1*
X434694Y1659482D2*
X538997D1*
X660908D2*
X2585203D1*
X2685870D2*
X4289720D1*
X434694Y1634613D2*
X539033D1*
X660872D2*
X2558631D1*
X2660805D2*
X4289720D1*
X434694Y1609744D2*
X541168D1*
X658737D2*
X2533243D1*
X2633731D2*
X4289720D1*
X434694Y1584875D2*
X564116D1*
X635789D2*
X2510403D1*
X2611178D2*
X4289720D1*
X434694Y1560007D2*
X564152D1*
X635753D2*
X745403D1*
X817004D2*
X1089622D1*
X1141541D2*
X1360476D1*
X1426928D2*
X2264147D1*
X2385179D2*
X2489159D1*
X2586328D2*
X4289720D1*
X434694Y1535138D2*
X539195D1*
X660711D2*
X733579D1*
X818260D2*
X1078301D1*
X1164363D2*
X1357480D1*
X1429906D2*
X2265978D1*
X2435076D2*
X2490971D1*
X2558930D2*
X4289720D1*
X434694Y1510269D2*
X539230D1*
X660675D2*
X710613D1*
X811478D2*
X1087954D1*
X1167449D2*
X1345476D1*
X1439290D2*
X2332004D1*
X2443419D2*
X2964750D1*
X3009277D2*
X4289720D1*
X434694Y1485400D2*
X539266D1*
X660621D2*
X689280D1*
X786826D2*
X921307D1*
X978591D2*
X1118652D1*
X1143748D2*
X1347109D1*
X1442483D2*
X1514276D1*
X1585625D2*
X1747272D1*
X1963091D2*
X2381830D1*
X2430572D2*
X2949930D1*
X3024097D2*
X4289720D1*
X434694Y1460531D2*
X540791D1*
X659096D2*
X689316D1*
X760576D2*
X912713D1*
X987185D2*
X1393220D1*
X1419177D2*
X1512930D1*
X1586971D2*
X1727356D1*
X1968869D2*
X2228748D1*
X2271139D2*
X2956874D1*
X3017153D2*
X4289720D1*
X434694Y1435663D2*
X689352D1*
X760540D2*
X925255D1*
X974643D2*
X1512715D1*
X1587186D2*
X1715568D1*
X1952075D2*
X2212959D1*
X2286946D2*
X4289720D1*
X434694Y1410794D2*
X689406D1*
X760504D2*
X1525113D1*
X1574788D2*
X1724772D1*
X1934420D2*
X2219274D1*
X2280612D2*
X4289720D1*
X434694Y1385925D2*
X689442D1*
X760451D2*
X2270696D1*
X2341705D2*
X4289720D1*
X434694Y1361056D2*
X689496D1*
X760415D2*
X2271809D1*
X2340593D2*
X2829610D1*
X2920302D2*
X4289720D1*
X434694Y1336188D2*
X690500D1*
X759392D2*
X778273D1*
X834121D2*
X1998569D1*
X2038825D2*
X2642331D1*
X2682569D2*
X2813032D1*
X2936880D2*
X3098580D1*
X3210372D2*
X3436125D1*
X3551271D2*
X4289720D1*
X434694Y1311319D2*
X768943D1*
X843469D2*
X1973808D1*
X2055601D2*
X2615902D1*
X2699363D2*
X2818917D1*
X2930995D2*
X3081805D1*
X3209457D2*
X3432214D1*
X3555201D2*
X4289720D1*
X434694Y1286450D2*
X780588D1*
X831806D2*
X1956817D1*
X2080450D2*
X2606429D1*
X2693586D2*
X3087564D1*
X3149835D2*
X3453170D1*
X3534226D2*
X4289720D1*
X434694Y1261581D2*
X769338D1*
X843074D2*
X975528D1*
X1030623D2*
X1080561D1*
X1119346D2*
X1136810D1*
X1175595D2*
X1208794D1*
X1236006D2*
X1274910D1*
X1297978D2*
X1438022D1*
X1493134D2*
X1708050D1*
X1746405D2*
X1759239D1*
X1797575D2*
X1810428D1*
X1848764D2*
X1861599D1*
X1899953D2*
X1962487D1*
X2098626D2*
X2617948D1*
X2669453D2*
X4289720D1*
X434694Y1236713D2*
X774882D1*
X837512D2*
X965804D1*
X1400409D2*
X1428297D1*
X1524515D2*
X1690413D1*
X1925287D2*
X2030165D1*
X2093566D2*
X4289720D1*
X434694Y1211844D2*
X705984D1*
X743908D2*
X977036D1*
X1418028D2*
X1439529D1*
X1526399D2*
X1695742D1*
X1943158D2*
X4289720D1*
X592172Y1186975D2*
X688150D1*
X761742D2*
X1041717D1*
X1333288D2*
X1349711D1*
X1412682D2*
X1721238D1*
X1937954D2*
X4132242D1*
X592172Y1162106D2*
X688168D1*
X841298D2*
X4132242D1*
X592172Y1137238D2*
X688186D1*
X841082D2*
X4132242D1*
X592172Y1112369D2*
X688222D1*
X761689D2*
X4132242D1*
X592172Y1087500D2*
X688240D1*
X761653D2*
X4132242D1*
X592172Y1062631D2*
X688258D1*
X761635D2*
X932557D1*
X967359D2*
X1108820D1*
X1178591D2*
X1325184D1*
X1394704D2*
X1642149D1*
X1710556D2*
X2882558D1*
X2917341D2*
X3050226D1*
X3120464D2*
X3267756D1*
X3335751D2*
X3557539D1*
X3632854D2*
X4132242D1*
X592172Y1037762D2*
X688293D1*
X761617D2*
X913287D1*
X986611D2*
X1107008D1*
X1180332D2*
X1323551D1*
X1396857D2*
X1639386D1*
X1712709D2*
X2863288D1*
X2936611D2*
X3048486D1*
X3122384D2*
X3264975D1*
X3338963D2*
X3537336D1*
X3652106D2*
X4132242D1*
X434694Y1012894D2*
X692869D1*
X757024D2*
X917880D1*
X982036D2*
X1111583D1*
X1175738D2*
X1328126D1*
X1392281D2*
X1643979D1*
X1708134D2*
X2867881D1*
X2932018D2*
X3054479D1*
X3116391D2*
X3271237D1*
X3332701D2*
X3541553D1*
X3647531D2*
X4289720D1*
X434694Y988025D2*
X477115D1*
X522790D2*
X2586369D1*
X2638521D2*
X3439660D1*
X3472739D2*
X4289720D1*
X434694Y963156D2*
X449376D1*
X550510D2*
X2575174D1*
X2649735D2*
X3419618D1*
X3492780D2*
X4289720D1*
X556951Y938287D2*
X2584934D1*
X2639975D2*
X3423888D1*
X3488510D2*
X3768269D1*
X3800128D2*
X4289720D1*
X434694Y913419D2*
X448533D1*
X551371D2*
X1384124D1*
X1490766D2*
X1677872D1*
X1972026D2*
X2502885D1*
X2572028D2*
X3006304D1*
X3406102D2*
X3747671D1*
X3827705D2*
X4289720D1*
X434694Y888550D2*
X473365D1*
X526522D2*
X1050078D1*
X2309463D2*
X2452952D1*
X2572817D2*
X2586962D1*
X2637947D2*
X3000545D1*
X3411843D2*
X3751726D1*
X3856018D2*
X4289720D1*
X867762Y863681D2*
X1025192D1*
X2310360D2*
X2452055D1*
X2522867D2*
X2575192D1*
X2649717D2*
X3017374D1*
X3057523D2*
X3079885D1*
X3170020D2*
X3192382D1*
X3282517D2*
X3304879D1*
X3395014D2*
X3774872D1*
X867762Y838812D2*
X997848D1*
X1089796D2*
X2238006D1*
X2311886D2*
X2432265D1*
X2505140D2*
X2584432D1*
X2640459D2*
X3804656D1*
X867762Y813944D2*
X976031D1*
X1086369D2*
X2254441D1*
X2295468D2*
X2435997D1*
X2501408D2*
X3856652D1*
X867762Y789075D2*
X979673D1*
X1082727D2*
X3731308D1*
X3781092D2*
X3856652D1*
X867762Y764206D2*
X3718964D1*
X3805924D2*
X3856652D1*
X867762Y739337D2*
X3727702D1*
X3827867D2*
X3856652D1*
X867762Y714469D2*
X3752588D1*
X3829374D2*
X3856652D1*
X867762Y689600D2*
X3856652D1*
X867762Y664731D2*
X3856652D1*
X867762Y639862D2*
X3856652D1*
X867762Y614993D2*
X3856652D1*
X867762Y590125D2*
X3856652D1*
X867762Y565256D2*
X3856652D1*
X867762Y540387D2*
X3856652D1*
X867762Y515518D2*
X3856652D1*
X867762Y490650D2*
X3856652D1*
X867762Y465781D2*
X3856652D1*
X867762Y440912D2*
X3856652D1*
X1940831Y1432015D2*
X1939942Y1425320D1*
X1936448Y1416939D1*
X1930904Y1409748D1*
X1923687Y1404237D1*
X1915290Y1400781D1*
X1906285Y1399617D1*
X1897285Y1400823D1*
X1888904Y1404317D1*
X1881713Y1409861D1*
X1880878Y1410954D1*
X1880659Y1410963D1*
X1879723Y1409748D1*
X1872506Y1404237D1*
X1864109Y1400781D1*
X1855104Y1399617D1*
X1846104Y1400823D1*
X1837723Y1404317D1*
X1830532Y1409861D1*
X1829697Y1410954D1*
X1829478Y1410963D1*
X1828542Y1409748D1*
X1821325Y1404237D1*
X1812928Y1400781D1*
X1803923Y1399617D1*
X1794923Y1400823D1*
X1786542Y1404317D1*
X1779350Y1409861D1*
X1778516Y1410954D1*
X1778297Y1410963D1*
X1777360Y1409748D1*
X1770144Y1404237D1*
X1761747Y1400781D1*
X1752741Y1399617D1*
X1743742Y1400823D1*
X1735361Y1404317D1*
X1728169Y1409861D1*
X1722658Y1417078D1*
X1719203Y1425475D1*
X1718038Y1434480D1*
X1719244Y1443480D1*
X1722738Y1451861D1*
X1728283Y1459052D1*
X1735499Y1464564D1*
X1743936Y1468025D1*
X1744835Y1474731D1*
X1748329Y1483112D1*
X1753873Y1490303D1*
X1761090Y1495814D1*
X1769487Y1499270D1*
X1778492Y1500434D1*
X1787492Y1499228D1*
X1795873Y1495734D1*
X1803064Y1490190D1*
X1803898Y1489098D1*
X1804118Y1489088D1*
X1805054Y1490303D1*
X1812271Y1495814D1*
X1820668Y1499270D1*
X1829673Y1500434D1*
X1838673Y1499228D1*
X1847054Y1495734D1*
X1854245Y1490190D1*
X1855080Y1489098D1*
X1855299Y1489088D1*
X1856235Y1490303D1*
X1863452Y1495814D1*
X1871849Y1499270D1*
X1880854Y1500434D1*
X1889854Y1499228D1*
X1898235Y1495734D1*
X1905426Y1490190D1*
X1906261Y1489098D1*
X1906480Y1489088D1*
X1907416Y1490303D1*
X1914633Y1495814D1*
X1923030Y1499270D1*
X1932035Y1500434D1*
X1941035Y1499228D1*
X1949416Y1495734D1*
X1956608Y1490190D1*
X1962119Y1482973D1*
X1965574Y1474576D1*
X1966739Y1465651D1*
X1965533Y1456571D1*
X1962039Y1448190D1*
X1956494Y1440999D1*
X1949278Y1435488D1*
X1941069Y1432110D1*
X1855080Y1254500D2*
X1854245Y1255593D1*
X1847054Y1261137D1*
X1838673Y1264631D1*
X1829673Y1265837D1*
X1820668Y1264673D1*
X1812271Y1261217D1*
X1805054Y1255706D1*
X1804118Y1254491D1*
X1803898Y1254500D1*
X1803064Y1255593D1*
X1795873Y1261137D1*
X1787492Y1264631D1*
X1778492Y1265837D1*
X1769487Y1264673D1*
X1761090Y1261217D1*
X1753873Y1255706D1*
X1752936Y1254491D1*
X1752717Y1254500D1*
X1751883Y1255593D1*
X1744692Y1261137D1*
X1736311Y1264631D1*
X1727311Y1265837D1*
X1718306Y1264673D1*
X1709909Y1261217D1*
X1702692Y1255706D1*
X1697148Y1248515D1*
X1693654Y1240134D1*
X1692448Y1231134D1*
X1693612Y1222129D1*
X1697068Y1213731D1*
X1702579Y1206515D1*
X1709770Y1200971D1*
X1718151Y1197476D1*
X1719144Y1197343D1*
X1719203Y1197129D1*
X1722658Y1188731D1*
X1728169Y1181515D1*
X1735361Y1175971D1*
X1743742Y1172476D1*
X1752741Y1171270D1*
X1761747Y1172435D1*
X1770144Y1175890D1*
X1777360Y1181402D1*
X1778297Y1182617D1*
X1778516Y1182607D1*
X1779350Y1181515D1*
X1786542Y1175971D1*
X1794923Y1172476D1*
X1803923Y1171270D1*
X1812928Y1172435D1*
X1821325Y1175890D1*
X1828542Y1181402D1*
X1829478Y1182617D1*
X1829697Y1182607D1*
X1830532Y1181515D1*
X1837723Y1175971D1*
X1846104Y1172476D1*
X1855104Y1171270D1*
X1864109Y1172435D1*
X1872506Y1175890D1*
X1879723Y1181402D1*
X1880659Y1182617D1*
X1880878Y1182607D1*
X1881713Y1181515D1*
X1888904Y1175971D1*
X1897285Y1172476D1*
X1906285Y1171270D1*
X1915290Y1172435D1*
X1923687Y1175890D1*
X1930904Y1181402D1*
X1936448Y1188593D1*
X1939942Y1196974D1*
X1941148Y1206054D1*
X1939984Y1214979D1*
X1936528Y1223376D1*
X1931017Y1230593D1*
X1923826Y1236137D1*
X1915445Y1239631D1*
X1914452Y1239764D1*
X1914393Y1239979D1*
X1910938Y1248376D1*
X1905426Y1255593D1*
X1898235Y1261137D1*
X1889854Y1264631D1*
X1880854Y1265837D1*
X1871849Y1264673D1*
X1863452Y1261217D1*
X1856235Y1255706D1*
X1855299Y1254491D1*
X983529Y1453370D2*
X980035Y1444989D1*
X974490Y1437798D1*
X967274Y1432287D1*
X958877Y1428831D1*
X949871Y1427667D1*
X940872Y1428873D1*
X932490Y1432367D1*
X925299Y1437911D1*
X919788Y1445128D1*
X916333Y1453525D1*
X915168Y1462530D1*
X916374Y1471530D1*
X919868Y1479911D1*
X925412Y1487102D1*
X932629Y1492613D1*
X941026Y1496069D1*
X950032Y1497234D1*
X959031Y1496028D1*
X967412Y1492533D1*
X974604Y1486989D1*
X980115Y1479772D1*
X983570Y1471375D1*
X984735Y1462450D1*
X983529Y1453370D1*
X2556675Y1536426D2*
X2555033Y1532489D1*
X2549489Y1525298D1*
X2542272Y1519787D1*
X2533875Y1516331D1*
X2524870Y1515167D1*
X2515870Y1516373D1*
X2507489Y1519867D1*
X2500298Y1525411D1*
X2494787Y1532628D1*
X2491331Y1541025D1*
X2490167Y1550030D1*
X2491373Y1559030D1*
X2494867Y1567411D1*
X2500411Y1574602D1*
X2507628Y1580113D1*
X2511425Y1581676D1*
X2511976Y1582225D1*
X2513618Y1586162D1*
X2519162Y1593353D1*
X2526378Y1598864D1*
X2530175Y1600427D1*
X2530727Y1600976D1*
X2532368Y1604912D1*
X2537912Y1612104D1*
X2545129Y1617615D1*
X2548926Y1619177D1*
X2549476Y1619725D1*
X2551118Y1623662D1*
X2556662Y1630853D1*
X2563878Y1636364D1*
X2567675Y1637927D1*
X2568226Y1638476D1*
X2569867Y1642412D1*
X2575411Y1649604D1*
X2582628Y1655115D1*
X2586425Y1656677D1*
X2586976Y1657225D1*
X2588618Y1661162D1*
X2594162Y1668353D1*
X2601378Y1673864D1*
X2605175Y1675427D1*
X2605727Y1675976D1*
X2607368Y1679912D1*
X2612912Y1687104D1*
X2620129Y1692615D1*
X2623926Y1694177D1*
X2624476Y1694725D1*
X2626118Y1698662D1*
X2631662Y1705853D1*
X2638878Y1711364D1*
X2647276Y1714820D1*
X2656281Y1715984D1*
X2665281Y1714778D1*
X2673662Y1711284D1*
X2680853Y1705740D1*
X2686364Y1698523D1*
X2689820Y1690126D1*
X2690984Y1681201D1*
X2689778Y1672121D1*
X2686284Y1663740D1*
X2680740Y1656549D1*
X2673523Y1651037D1*
X2669726Y1649475D1*
X2669176Y1648927D1*
X2667535Y1644990D1*
X2661990Y1637799D1*
X2654774Y1632288D1*
X2650977Y1630726D1*
X2650425Y1630177D1*
X2648784Y1626240D1*
X2643240Y1619049D1*
X2636023Y1613537D1*
X2632226Y1611975D1*
X2631675Y1611427D1*
X2630033Y1607490D1*
X2624489Y1600299D1*
X2617272Y1594788D1*
X2613476Y1593226D1*
X2612925Y1592677D1*
X2611284Y1588740D1*
X2605740Y1581549D1*
X2598523Y1576037D1*
X2594726Y1574475D1*
X2594176Y1573927D1*
X2592535Y1569990D1*
X2586990Y1562799D1*
X2579774Y1557288D1*
X2575977Y1555726D1*
X2575425Y1555177D1*
X2573784Y1551240D1*
X2568240Y1544049D1*
X2561023Y1538537D1*
X2557226Y1536975D1*
X730727Y1525976D2*
X732368Y1529912D1*
X737912Y1537104D1*
X745129Y1542615D1*
X747040Y1543401D1*
X747277Y1543745D1*
X746450Y1548435D1*
X747242Y1557481D1*
X750348Y1566013D1*
X755556Y1573451D1*
X762512Y1579288D1*
X770742Y1583125D1*
X779684Y1584702D1*
X788730Y1583910D1*
X797263Y1580804D1*
X804701Y1575596D1*
X810537Y1568640D1*
X814375Y1560410D1*
X815951Y1551468D1*
X815984Y1549951D1*
X814778Y1540872D1*
X814679Y1540634D1*
X814675Y1540479D1*
X814820Y1540126D1*
X815984Y1531201D1*
X814778Y1522121D1*
X811284Y1513740D1*
X805740Y1506549D1*
X798523Y1501037D1*
X794726Y1499475D1*
X794176Y1498927D1*
X792535Y1494990D1*
X786990Y1487799D1*
X779774Y1482288D1*
X775977Y1480726D1*
X775425Y1480177D1*
X773784Y1476240D1*
X768240Y1469049D1*
X761023Y1463537D1*
X757538Y1462103D1*
X757398Y1461721D1*
X758569Y1458875D1*
X759734Y1449950D1*
X758528Y1440870D1*
X757262Y1437834D1*
X757256Y1437065D1*
X758569Y1433875D1*
X759734Y1424950D1*
X758528Y1415870D1*
X757262Y1412834D1*
X757256Y1412065D1*
X758569Y1408875D1*
X759734Y1399950D1*
X758528Y1390870D1*
X757262Y1387834D1*
X757256Y1387065D1*
X758569Y1383875D1*
X759734Y1374950D1*
X758528Y1365870D1*
X757262Y1362834D1*
X757256Y1362067D1*
X758569Y1358877D1*
X759734Y1349951D1*
X758528Y1340872D1*
X755033Y1332490D1*
X749489Y1325299D1*
X742272Y1319788D1*
X733875Y1316333D1*
X724870Y1315168D1*
X715870Y1316374D1*
X707489Y1319868D1*
X700298Y1325412D1*
X694787Y1332629D1*
X691331Y1341026D1*
X690167Y1350032D1*
X691373Y1359031D1*
X692639Y1362068D1*
X692644Y1362835D1*
X691331Y1366025D1*
X690167Y1375030D1*
X691373Y1384030D1*
X692639Y1387067D1*
X692644Y1387835D1*
X691331Y1391025D1*
X690167Y1400030D1*
X691373Y1409030D1*
X692639Y1412067D1*
X692644Y1412835D1*
X691331Y1416025D1*
X690167Y1425030D1*
X691373Y1434030D1*
X692639Y1437067D1*
X692644Y1437835D1*
X691331Y1441025D1*
X690167Y1450030D1*
X691373Y1459030D1*
X692639Y1462067D1*
X692644Y1462835D1*
X691331Y1466025D1*
X690167Y1475030D1*
X691373Y1484030D1*
X694867Y1492411D1*
X700411Y1499602D1*
X707628Y1505113D1*
X711425Y1506676D1*
X711976Y1507225D1*
X713618Y1511162D1*
X719162Y1518353D1*
X726378Y1523864D1*
X730175Y1525427D1*
X2162927Y1732226D2*
X2161364Y1736023D1*
X2155853Y1743240D1*
X2148662Y1748784D1*
X2144725Y1750425D1*
X2144177Y1750977D1*
X2142615Y1754774D1*
X2137104Y1761990D1*
X2129912Y1767535D1*
X2121531Y1771029D1*
X2112532Y1772235D1*
X2109603Y1771856D1*
X2109357Y1772104D1*
X2109735Y1774950D1*
X2108570Y1783875D1*
X2105115Y1792272D1*
X2099604Y1799489D1*
X2092412Y1805033D1*
X2084031Y1808528D1*
X2075032Y1809734D1*
X2072103Y1809355D1*
X2071854Y1809587D1*
X2072235Y1812451D1*
X2071070Y1821377D1*
X2067615Y1829774D1*
X2062104Y1836990D1*
X2054912Y1842535D1*
X2050976Y1844176D1*
X2050427Y1844726D1*
X2048864Y1848523D1*
X2043353Y1855740D1*
X2036162Y1861284D1*
X2032225Y1862925D1*
X2031676Y1863476D1*
X2030113Y1867272D1*
X2024602Y1874489D1*
X2017411Y1880033D1*
X2013474Y1881675D1*
X2012927Y1882226D1*
X2011364Y1886023D1*
X2005853Y1893240D1*
X1998662Y1898784D1*
X1994725Y1900425D1*
X1994177Y1900977D1*
X1992615Y1904774D1*
X1987104Y1911990D1*
X1979912Y1917535D1*
X1971531Y1921029D1*
X1962532Y1922235D1*
X1953526Y1921070D1*
X1945129Y1917615D1*
X1937912Y1912104D1*
X1932368Y1904912D1*
X1928874Y1896531D1*
X1927668Y1887532D1*
X1928833Y1878526D1*
X1932288Y1870129D1*
X1937799Y1862912D1*
X1944990Y1857368D1*
X1948927Y1855727D1*
X1949475Y1855175D1*
X1951037Y1851378D1*
X1956549Y1844162D1*
X1963740Y1838618D1*
X1967677Y1836976D1*
X1968224Y1836425D1*
X1969787Y1832628D1*
X1975298Y1825411D1*
X1982489Y1819867D1*
X1986426Y1818226D1*
X1986975Y1817675D1*
X1988537Y1813878D1*
X1994049Y1806662D1*
X2001240Y1801118D1*
X2005177Y1799476D1*
X2005726Y1798926D1*
X2007288Y1795129D1*
X2012799Y1787912D1*
X2019990Y1782368D1*
X2028372Y1778874D1*
X2037371Y1777668D1*
X2040300Y1778047D1*
X2040539Y1777799D1*
X2040168Y1775030D1*
X2041333Y1766025D1*
X2044788Y1757628D1*
X2050299Y1750411D1*
X2057490Y1744867D1*
X2065872Y1741373D1*
X2074871Y1740167D1*
X2077800Y1740545D1*
X2078039Y1740300D1*
X2077668Y1737532D1*
X2078833Y1728526D1*
X2082288Y1720129D1*
X2087799Y1712912D1*
X2094990Y1707368D1*
X2098927Y1705727D1*
X2099475Y1705175D1*
X2101037Y1701378D1*
X2106549Y1694162D1*
X2113740Y1688618D1*
X2117677Y1686976D1*
X2118226Y1686425D1*
X2119788Y1682628D1*
X2125299Y1675411D1*
X2132490Y1669867D1*
X2140872Y1666373D1*
X2149871Y1665167D1*
X2158877Y1666331D1*
X2167274Y1669787D1*
X2174490Y1675298D1*
X2180035Y1682489D1*
X2183529Y1690870D1*
X2184735Y1699950D1*
X2183570Y1708875D1*
X2180115Y1717272D1*
X2174604Y1724489D1*
X2167412Y1730033D1*
X2163476Y1731675D1*
X1425425Y2448927D2*
X1423784Y2444990D1*
X1418240Y2437799D1*
X1411023Y2432288D1*
X1407226Y2430726D1*
X1406676Y2430177D1*
X1405035Y2426240D1*
X1399490Y2419049D1*
X1392274Y2413537D1*
X1383877Y2410082D1*
X1374871Y2408917D1*
X1365872Y2410123D1*
X1357490Y2413618D1*
X1350299Y2419162D1*
X1344788Y2426378D1*
X1341333Y2434776D1*
X1340168Y2443781D1*
X1341374Y2452781D1*
X1344868Y2461162D1*
X1350412Y2468353D1*
X1357629Y2473864D1*
X1361426Y2475427D1*
X1361976Y2475976D1*
X1363618Y2479912D1*
X1369162Y2487104D1*
X1376378Y2492615D1*
X1380175Y2494177D1*
X1380727Y2494725D1*
X1382368Y2498662D1*
X1387912Y2505853D1*
X1395129Y2511364D1*
X1403526Y2514820D1*
X1412532Y2515984D1*
X1421531Y2514778D1*
X1429912Y2511284D1*
X1437104Y2505740D1*
X1442615Y2498523D1*
X1446070Y2490126D1*
X1447235Y2481201D1*
X1446029Y2472121D1*
X1442535Y2463740D1*
X1436990Y2456549D1*
X1429774Y2451037D1*
X1425977Y2449475D1*
X1034267Y2552179D2*
X1034030Y2552278D1*
X1025030Y2553484D1*
X1016025Y2552320D1*
X1015672Y2552175D1*
X1015518Y2552179D1*
X1015281Y2552278D1*
X1006281Y2553484D1*
X997276Y2552320D1*
X996923Y2552175D1*
X996769Y2552179D1*
X996531Y2552278D1*
X987532Y2553484D1*
X978526Y2552320D1*
X970129Y2548864D1*
X962912Y2543353D1*
X957368Y2536162D1*
X953874Y2527781D1*
X952668Y2518781D1*
X953833Y2509776D1*
X957288Y2501378D1*
X962799Y2494162D1*
X969990Y2488618D1*
X978372Y2485123D1*
X987371Y2483917D1*
X996377Y2485082D1*
X996729Y2485227D1*
X996883Y2485222D1*
X997121Y2485123D1*
X1006121Y2483917D1*
X1015126Y2485082D1*
X1015479Y2485227D1*
X1015633Y2485222D1*
X1015870Y2485123D1*
X1024870Y2483917D1*
X1033875Y2485082D1*
X1034228Y2485227D1*
X1034383Y2485222D1*
X1034621Y2485123D1*
X1043621Y2483917D1*
X1052626Y2485082D1*
X1052979Y2485227D1*
X1053134Y2485222D1*
X1053372Y2485123D1*
X1062371Y2483917D1*
X1071377Y2485082D1*
X1079774Y2488537D1*
X1086990Y2494049D1*
X1092535Y2501240D1*
X1096029Y2509621D1*
X1097235Y2518701D1*
X1096070Y2527626D1*
X1092615Y2536023D1*
X1087104Y2543240D1*
X1079912Y2548784D1*
X1071531Y2552278D1*
X1062532Y2553484D1*
X1053526Y2552320D1*
X1053174Y2552175D1*
X1053018Y2552179D1*
X1052781Y2552278D1*
X1043781Y2553484D1*
X1034776Y2552320D1*
X1034423Y2552175D1*
X2786976Y1857225D2*
X2788618Y1861162D1*
X2794162Y1868353D1*
X2801378Y1873864D1*
X2805175Y1875427D1*
X2805727Y1875976D1*
X2807368Y1879912D1*
X2812912Y1887104D1*
X2820129Y1892615D1*
X2823926Y1894177D1*
X2824476Y1894725D1*
X2826118Y1898662D1*
X2831662Y1905853D1*
X2838878Y1911364D1*
X2842675Y1912927D1*
X2843226Y1913474D1*
X2844867Y1917411D1*
X2850411Y1924602D1*
X2857628Y1930113D1*
X2866025Y1933569D1*
X2875030Y1934734D1*
X2884030Y1933528D1*
X2892411Y1930033D1*
X2899602Y1924489D1*
X2905113Y1917272D1*
X2908569Y1908875D1*
X2909734Y1899950D1*
X2908528Y1890870D1*
X2905033Y1882489D1*
X2899489Y1875298D1*
X2892272Y1869787D1*
X2888476Y1868224D1*
X2887925Y1867677D1*
X2886284Y1863740D1*
X2880740Y1856549D1*
X2873523Y1851037D1*
X2869726Y1849475D1*
X2869176Y1848927D1*
X2867535Y1844990D1*
X2861990Y1837799D1*
X2854774Y1832288D1*
X2850977Y1830726D1*
X2850425Y1830177D1*
X2848784Y1826240D1*
X2843240Y1819049D1*
X2836023Y1813537D1*
X2832226Y1811975D1*
X2831675Y1811426D1*
X2830033Y1807489D1*
X2824489Y1800298D1*
X2817272Y1794787D1*
X2808875Y1791331D1*
X2799870Y1790167D1*
X2790870Y1791373D1*
X2782489Y1794867D1*
X2775298Y1800411D1*
X2769787Y1807628D1*
X2766331Y1816025D1*
X2765167Y1825030D1*
X2766373Y1834030D1*
X2769867Y1842411D1*
X2775411Y1849602D1*
X2782628Y1855113D1*
X2786425Y1856676D1*
X2782628Y1855113D1*
X2775411Y1849602D1*
X2769867Y1842411D1*
X2766373Y1834030D1*
X2765167Y1825030D1*
X2766331Y1816025D1*
X2769787Y1807628D1*
X2775298Y1800411D1*
X2782489Y1794867D1*
X2790870Y1791373D1*
X2799870Y1790167D1*
X2808875Y1791331D1*
X2817272Y1794787D1*
X2824489Y1800298D1*
X2830033Y1807489D1*
X2831675Y1811426D1*
X2850427Y2057226D2*
X2848864Y2061023D1*
X2843353Y2068240D1*
X2836162Y2073784D1*
X2834353Y2074538D1*
X2833931Y2074967D1*
X2833239Y2076648D1*
X2827728Y2083864D1*
X2820537Y2089409D1*
X2812156Y2092903D1*
X2803156Y2094109D1*
X2794151Y2092944D1*
X2785754Y2089489D1*
X2778537Y2083978D1*
X2772993Y2076786D1*
X2769499Y2068405D1*
X2768293Y2059406D1*
X2769457Y2050400D1*
X2772913Y2042003D1*
X2778424Y2034787D1*
X2785615Y2029242D1*
X2787424Y2028488D1*
X2787846Y2028059D1*
X2788537Y2026378D1*
X2794049Y2019162D1*
X2801240Y2013618D1*
X2805177Y2011976D1*
X2805726Y2011425D1*
X2807288Y2007628D1*
X2812799Y2000411D1*
X2819990Y1994867D1*
X2823927Y1993226D1*
X2824475Y1992675D1*
X2826037Y1988878D1*
X2831549Y1981662D1*
X2838740Y1976118D1*
X2842677Y1974476D1*
X2843224Y1973926D1*
X2844787Y1970129D1*
X2850298Y1962912D1*
X2857489Y1957368D1*
X2865870Y1953874D1*
X2874870Y1952668D1*
X2883875Y1953833D1*
X2892272Y1957288D1*
X2899489Y1962799D1*
X2905033Y1969990D1*
X2908528Y1978372D1*
X2909734Y1987451D1*
X2908569Y1996377D1*
X2905113Y2004774D1*
X2899602Y2011990D1*
X2892411Y2017535D1*
X2888474Y2019176D1*
X2887927Y2019726D1*
X2886364Y2023523D1*
X2880853Y2030740D1*
X2873662Y2036284D1*
X2869725Y2037925D1*
X2869177Y2038476D1*
X2867615Y2042272D1*
X2862104Y2049489D1*
X2854912Y2055033D1*
X2850976Y2056675D1*
X2675976Y2231675D2*
X2679912Y2230033D1*
X2687104Y2224489D1*
X2692615Y2217272D1*
X2696070Y2208875D1*
X2697235Y2199950D1*
X2696029Y2190870D1*
X2694763Y2187834D1*
X2694758Y2187065D1*
X2696070Y2183875D1*
X2697235Y2174950D1*
X2696029Y2165870D1*
X2694763Y2162834D1*
X2694758Y2162067D1*
X2696070Y2158877D1*
X2697235Y2149951D1*
X2696029Y2140872D1*
X2694763Y2137835D1*
X2694758Y2137067D1*
X2696070Y2133877D1*
X2697235Y2124951D1*
X2696029Y2115872D1*
X2694763Y2112835D1*
X2694758Y2112067D1*
X2696070Y2108877D1*
X2697235Y2099951D1*
X2696029Y2090872D1*
X2692535Y2082490D1*
X2686990Y2075299D1*
X2679774Y2069788D1*
X2671377Y2066333D1*
X2662371Y2065168D1*
X2653372Y2066374D1*
X2644990Y2069868D1*
X2637799Y2075412D1*
X2632288Y2082629D1*
X2628833Y2091026D1*
X2627668Y2100032D1*
X2628874Y2109031D1*
X2630140Y2112068D1*
X2630145Y2112836D1*
X2628833Y2116026D1*
X2627668Y2125032D1*
X2628874Y2134031D1*
X2630140Y2137068D1*
X2630145Y2137836D1*
X2628833Y2141026D1*
X2627668Y2150032D1*
X2628874Y2159031D1*
X2630140Y2162068D1*
X2630145Y2162835D1*
X2628833Y2166025D1*
X2627668Y2175030D1*
X2628874Y2184030D1*
X2629997Y2186723D1*
X2629866Y2187106D1*
X2626240Y2188618D1*
X2619049Y2194162D1*
X2613537Y2201378D1*
X2610082Y2209776D1*
X2608917Y2218781D1*
X2610123Y2227781D1*
X2613618Y2236162D1*
X2619162Y2243353D1*
X2626378Y2248864D1*
X2634776Y2252320D1*
X2643781Y2253484D1*
X2652781Y2252278D1*
X2661162Y2248784D1*
X2668353Y2243240D1*
X2673864Y2236023D1*
X2675427Y2232226D1*
X2542644Y2269086D2*
X2541331Y2272276D1*
X2540167Y2281281D1*
X2541373Y2290281D1*
X2544867Y2298662D1*
X2550411Y2305853D1*
X2557628Y2311364D1*
X2566025Y2314820D1*
X2575030Y2315984D1*
X2584030Y2314778D1*
X2592411Y2311284D1*
X2599602Y2305740D1*
X2605113Y2298523D1*
X2608569Y2290126D1*
X2609734Y2281201D1*
X2608528Y2272121D1*
X2607262Y2269084D1*
X2607258Y2268315D1*
X2608570Y2265125D1*
X2609735Y2256199D1*
X2608529Y2247120D1*
X2607263Y2244083D1*
X2607258Y2243316D1*
X2608570Y2240126D1*
X2609735Y2231201D1*
X2608529Y2222121D1*
X2607263Y2219084D1*
X2607258Y2218316D1*
X2608570Y2215126D1*
X2609735Y2206201D1*
X2608529Y2197121D1*
X2607263Y2194084D1*
X2607258Y2193316D1*
X2608570Y2190126D1*
X2609735Y2181201D1*
X2608529Y2172121D1*
X2605035Y2163740D1*
X2599490Y2156549D1*
X2592274Y2151037D1*
X2583877Y2147582D1*
X2574871Y2146417D1*
X2565872Y2147623D1*
X2557490Y2151118D1*
X2550299Y2156662D1*
X2544788Y2163878D1*
X2541333Y2172276D1*
X2540168Y2181281D1*
X2541374Y2190281D1*
X2542640Y2193317D1*
X2542645Y2194086D1*
X2541333Y2197276D1*
X2540168Y2206281D1*
X2541374Y2215281D1*
X2542640Y2218317D1*
X2542645Y2219086D1*
X2541333Y2222276D1*
X2540168Y2231281D1*
X2541374Y2240281D1*
X2542640Y2243317D1*
X2542645Y2244084D1*
X2541333Y2247274D1*
X2540168Y2256280D1*
X2541374Y2265279D1*
X2542640Y2268316D1*
X2331675Y2323927D2*
X2330033Y2319990D1*
X2324489Y2312799D1*
X2317272Y2307288D1*
X2313476Y2305726D1*
X2312925Y2305177D1*
X2311284Y2301240D1*
X2305740Y2294049D1*
X2298523Y2288537D1*
X2290126Y2285082D1*
X2281121Y2283917D1*
X2272121Y2285123D1*
X2263740Y2288618D1*
X2256549Y2294162D1*
X2251037Y2301378D1*
X2247582Y2309776D1*
X2246417Y2318781D1*
X2247623Y2327781D1*
X2251118Y2336162D1*
X2256662Y2343353D1*
X2263878Y2348864D1*
X2267675Y2350427D1*
X2268226Y2350976D1*
X2269867Y2354912D1*
X2275411Y2362104D1*
X2282628Y2367615D1*
X2286425Y2369177D1*
X2286976Y2369725D1*
X2288618Y2373662D1*
X2294162Y2380853D1*
X2301378Y2386364D1*
X2305175Y2387927D1*
X2305726Y2388476D1*
X2307367Y2392412D1*
X2312911Y2399604D1*
X2320128Y2405115D1*
X2323925Y2406677D1*
X2324476Y2407225D1*
X2326118Y2411162D1*
X2331662Y2418353D1*
X2338878Y2423864D1*
X2347276Y2427320D1*
X2356281Y2428484D1*
X2365281Y2427278D1*
X2373662Y2423784D1*
X2380853Y2418240D1*
X2386364Y2411023D1*
X2389820Y2402626D1*
X2390984Y2393701D1*
X2389778Y2384621D1*
X2386284Y2376240D1*
X2380740Y2369049D1*
X2373523Y2363537D1*
X2369726Y2361975D1*
X2369175Y2361427D1*
X2367533Y2357490D1*
X2361989Y2350299D1*
X2354772Y2344788D1*
X2350976Y2343226D1*
X2350425Y2342677D1*
X2348784Y2338740D1*
X2343240Y2331549D1*
X2336023Y2326037D1*
X2332226Y2324475D1*
X2105145Y2162835D2*
X2103833Y2166025D1*
X2102668Y2175030D1*
X2103874Y2184030D1*
X2107368Y2192411D1*
X2112912Y2199602D1*
X2120129Y2205113D1*
X2128526Y2208569D1*
X2137532Y2209734D1*
X2146531Y2208528D1*
X2154912Y2205033D1*
X2162104Y2199489D1*
X2167615Y2192272D1*
X2171070Y2183875D1*
X2172235Y2174950D1*
X2171029Y2165870D1*
X2169763Y2162834D1*
X2171029Y2165870D1*
X2172235Y2174950D1*
X2171070Y2183875D1*
X2167615Y2192272D1*
X2162104Y2199489D1*
X2154912Y2205033D1*
X2146531Y2208528D1*
X2137532Y2209734D1*
X2128526Y2208569D1*
X2120129Y2205113D1*
X2112912Y2199602D1*
X2107368Y2192411D1*
X2103874Y2184030D1*
X2102668Y2175030D1*
X2103833Y2166025D1*
X2105145Y2162835D1*
X2105140Y2162068D1*
X2103874Y2159031D1*
X2102668Y2150032D1*
X2103833Y2141026D1*
X2105145Y2137836D1*
X2105140Y2137068D1*
X2103874Y2134031D1*
X2102668Y2125032D1*
X2103833Y2116026D1*
X2105145Y2112836D1*
X2104450Y2110943D1*
X2103916Y2109186D1*
X2103704Y2108380D1*
X2103605Y2109709D1*
X2103371Y2111531D1*
X2103042Y2113339D1*
X2102618Y2115126D1*
X2099162Y2123523D1*
X2093651Y2130740D1*
X2086460Y2136284D1*
X2078079Y2139778D1*
X2069079Y2140984D1*
X2060073Y2139820D1*
X2051676Y2136364D1*
X2044460Y2130853D1*
X2038915Y2123662D1*
X2035421Y2115281D1*
X2034215Y2106281D1*
X2034599Y2103317D1*
X2034348Y2103073D1*
X2031281Y2103484D1*
X2022276Y2102320D1*
X2013878Y2098864D1*
X2006662Y2093353D1*
X2001118Y2086162D1*
X1997623Y2077781D1*
X1996417Y2068781D1*
X1997582Y2059776D1*
X2001037Y2051378D1*
X2006549Y2044162D1*
X2013740Y2038618D1*
X2017366Y2037106D1*
X2017495Y2036723D1*
X2016373Y2034030D1*
X2015167Y2025030D1*
X2016331Y2016025D1*
X2017644Y2012835D1*
X2017639Y2012067D1*
X2016373Y2009030D1*
X2015167Y2000030D1*
X2016331Y1991025D1*
X2017644Y1987835D1*
X2017639Y1987067D1*
X2016373Y1984030D1*
X2015167Y1975030D1*
X2016331Y1966025D1*
X2019787Y1957628D1*
X2025298Y1950411D1*
X2032489Y1944867D1*
X2040870Y1941373D1*
X2049870Y1940167D1*
X2058875Y1941331D1*
X2067272Y1944787D1*
X2074489Y1950298D1*
X2080033Y1957489D1*
X2083528Y1965870D1*
X2084734Y1974950D1*
X2083569Y1983875D1*
X2082256Y1987065D1*
X2082262Y1987834D1*
X2083528Y1990870D1*
X2084734Y1999950D1*
X2083569Y2008875D1*
X2082256Y2012065D1*
X2082262Y2012834D1*
X2083528Y2015870D1*
X2084734Y2024950D1*
X2083569Y2033875D1*
X2082256Y2037065D1*
X2082262Y2037832D1*
X2083528Y2040869D1*
X2084734Y2049949D1*
X2083569Y2058874D1*
X2080113Y2067271D1*
X2076351Y2072197D1*
X2076526Y2072401D1*
X2077924Y2072582D1*
X2086321Y2076037D1*
X2093538Y2081549D1*
X2099082Y2088740D1*
X2102576Y2097121D1*
X2102714Y2098158D1*
X2102845Y2096443D1*
X2103079Y2094621D1*
X2103408Y2092814D1*
X2103833Y2091026D1*
X2105145Y2087836D1*
X2105140Y2087068D1*
X2103874Y2084031D1*
X2102668Y2075032D1*
X2103833Y2066026D1*
X2107288Y2057629D1*
X2112799Y2050412D1*
X2119990Y2044868D1*
X2128372Y2041374D1*
X2137371Y2040168D1*
X2146377Y2041333D1*
X2154774Y2044788D1*
X2161990Y2050299D1*
X2167535Y2057490D1*
X2171029Y2065872D1*
X2172235Y2074951D1*
X2171070Y2083877D1*
X2169758Y2087067D1*
X2169763Y2087835D1*
X2171029Y2090872D1*
X2172235Y2099951D1*
X2172202Y2101468D1*
X2170625Y2110410D1*
X2169805Y2112170D1*
X2169763Y2112835D1*
X2171029Y2115872D1*
X2172235Y2124951D1*
X2171070Y2133877D1*
X2169758Y2137067D1*
X2169763Y2137835D1*
X2171029Y2140872D1*
X2172235Y2149951D1*
X2171070Y2158877D1*
X2169758Y2162067D1*
X3353174Y1958424D2*
X3353526Y1958569D1*
X3362532Y1959734D1*
X3371531Y1958528D1*
X3371769Y1958429D1*
X3371923Y1958424D1*
X3372276Y1958569D1*
X3381281Y1959734D1*
X3390281Y1958528D1*
X3398662Y1955033D1*
X3405853Y1949489D1*
X3411364Y1942272D1*
X3414820Y1933875D1*
X3415984Y1924950D1*
X3414778Y1915870D1*
X3411284Y1907489D1*
X3405740Y1900298D1*
X3398523Y1894787D1*
X3390126Y1891331D1*
X3381121Y1890167D1*
X3372121Y1891373D1*
X3371883Y1891472D1*
X3371729Y1891476D1*
X3371377Y1891331D1*
X3362371Y1890167D1*
X3353372Y1891373D1*
X3353134Y1891472D1*
X3352979Y1891476D1*
X3352626Y1891331D1*
X3343621Y1890167D1*
X3334621Y1891373D1*
X3334383Y1891472D1*
X3334228Y1891476D1*
X3333875Y1891331D1*
X3324870Y1890167D1*
X3315870Y1891373D1*
X3315633Y1891472D1*
X3315479Y1891476D1*
X3315126Y1891331D1*
X3306121Y1890167D1*
X3297121Y1891373D1*
X3288740Y1894867D1*
X3281549Y1900411D1*
X3276037Y1907628D1*
X3272582Y1916025D1*
X3271417Y1925030D1*
X3272623Y1934030D1*
X3276118Y1942411D1*
X3281662Y1949602D1*
X3288878Y1955113D1*
X3297276Y1958569D1*
X3306281Y1959734D1*
X3315281Y1958528D1*
X3315518Y1958429D1*
X3315672Y1958424D1*
X3316025Y1958569D1*
X3325030Y1959734D1*
X3334030Y1958528D1*
X3334267Y1958429D1*
X3334423Y1958424D1*
X3334776Y1958569D1*
X3343781Y1959734D1*
X3352781Y1958528D1*
X3353018Y1958429D1*
X3505816Y1286395D2*
X3502626Y1285082D1*
X3493621Y1283917D1*
X3484621Y1285123D1*
X3481584Y1286389D1*
X3480816Y1286395D1*
X3477626Y1285082D1*
X3468621Y1283917D1*
X3459621Y1285123D1*
X3451240Y1288618D1*
X3444049Y1294162D1*
X3438537Y1301378D1*
X3435082Y1309776D1*
X3433917Y1318781D1*
X3435123Y1327781D1*
X3438618Y1336162D1*
X3444162Y1343353D1*
X3451378Y1348864D1*
X3459776Y1352320D1*
X3468781Y1353484D1*
X3477781Y1352278D1*
X3480817Y1351012D1*
X3481586Y1351007D1*
X3484776Y1352320D1*
X3493781Y1353484D1*
X3502781Y1352278D1*
X3505817Y1351012D1*
X3506586Y1351007D1*
X3509776Y1352320D1*
X3518781Y1353484D1*
X3527781Y1352278D1*
X3536162Y1348784D1*
X3543353Y1343240D1*
X3548864Y1336023D1*
X3552320Y1327626D1*
X3553484Y1318701D1*
X3552278Y1309621D1*
X3548784Y1301240D1*
X3543240Y1294049D1*
X3536023Y1288537D1*
X3527626Y1285082D1*
X3518621Y1283917D1*
X3509621Y1285123D1*
X3506584Y1286389D1*
X2887065Y1298895D2*
X2883875Y1297582D1*
X2874870Y1296417D1*
X2865870Y1297623D1*
X2862834Y1298889D1*
X2862065Y1298895D1*
X2858875Y1297582D1*
X2849870Y1296417D1*
X2840870Y1297623D1*
X2832489Y1301118D1*
X2825298Y1306662D1*
X2819787Y1313878D1*
X2816331Y1322276D1*
X2815167Y1331281D1*
X2816373Y1340281D1*
X2819867Y1348662D1*
X2825411Y1355853D1*
X2832628Y1361364D1*
X2841025Y1364820D1*
X2850030Y1365984D1*
X2859030Y1364778D1*
X2862067Y1363512D1*
X2862835Y1363507D1*
X2866025Y1364820D1*
X2875030Y1365984D1*
X2884030Y1364778D1*
X2887067Y1363512D1*
X2887835Y1363507D1*
X2891025Y1364820D1*
X2900030Y1365984D1*
X2909030Y1364778D1*
X2917411Y1361284D1*
X2924602Y1355740D1*
X2930113Y1348523D1*
X2933569Y1340126D1*
X2934734Y1331201D1*
X2933528Y1322121D1*
X2930033Y1313740D1*
X2924489Y1306549D1*
X2917272Y1301037D1*
X2908875Y1297582D1*
X2899870Y1296417D1*
X2890870Y1297623D1*
X2887834Y1298889D1*
X692644Y1044086D2*
X691331Y1047276D1*
X690167Y1056281D1*
X691373Y1065281D1*
X692639Y1068317D1*
X692644Y1069086D1*
X691331Y1072276D1*
X690167Y1081281D1*
X691373Y1090281D1*
X692639Y1093317D1*
X692644Y1094086D1*
X691331Y1097276D1*
X690167Y1106281D1*
X691373Y1115281D1*
X692639Y1118317D1*
X692644Y1119086D1*
X691331Y1122276D1*
X690167Y1131281D1*
X691373Y1140281D1*
X692639Y1143317D1*
X692644Y1144086D1*
X691331Y1147276D1*
X690167Y1156281D1*
X691373Y1165281D1*
X692639Y1168317D1*
X692644Y1169086D1*
X691331Y1172276D1*
X690167Y1181281D1*
X691373Y1190281D1*
X694867Y1198662D1*
X700411Y1205853D1*
X707628Y1211364D1*
X716025Y1214820D1*
X725030Y1215984D1*
X734030Y1214778D1*
X742411Y1211284D1*
X749602Y1205740D1*
X755113Y1198523D1*
X758569Y1190126D1*
X759734Y1181201D1*
X758528Y1172121D1*
X757262Y1169084D1*
X757256Y1168316D1*
X758569Y1165126D1*
X759734Y1156201D1*
X758528Y1147121D1*
X757262Y1144084D1*
X757256Y1143316D1*
X758569Y1140126D1*
X759734Y1131201D1*
X758528Y1122121D1*
X757262Y1119084D1*
X757256Y1118316D1*
X758569Y1115126D1*
X759734Y1106201D1*
X758528Y1097121D1*
X757262Y1094084D1*
X757256Y1093316D1*
X758569Y1090126D1*
X759734Y1081201D1*
X758528Y1072121D1*
X757262Y1069084D1*
X757256Y1068316D1*
X758569Y1065126D1*
X759734Y1056201D1*
X758528Y1047121D1*
X757262Y1044084D1*
X757256Y1043316D1*
X758569Y1040126D1*
X759734Y1031201D1*
X758528Y1022121D1*
X755033Y1013740D1*
X749489Y1006549D1*
X742272Y1001037D1*
X733875Y997582D1*
X724870Y996417D1*
X715870Y997623D1*
X707489Y1001118D1*
X700298Y1006662D1*
X694787Y1013878D1*
X691331Y1022276D1*
X690167Y1031281D1*
X691373Y1040281D1*
X692639Y1043317D1*
X691373Y1040281D1*
X690167Y1031281D1*
X691331Y1022276D1*
X694787Y1013878D1*
X700298Y1006662D1*
X707489Y1001118D1*
X715870Y997623D1*
X724870Y996417D1*
X733875Y997582D1*
X742272Y1001037D1*
X749489Y1006549D1*
X755033Y1013740D1*
X758528Y1022121D1*
X759734Y1031201D1*
X758569Y1040126D1*
X757256Y1043316D1*
X1110207Y1040721D2*
X1110082Y1041025D1*
X1108917Y1050030D1*
X1110123Y1059030D1*
X1113618Y1067411D1*
X1119162Y1074602D1*
X1126378Y1080113D1*
X1134776Y1083569D1*
X1143781Y1084734D1*
X1152781Y1083528D1*
X1161162Y1080033D1*
X1168353Y1074489D1*
X1173864Y1067272D1*
X1177320Y1058875D1*
X1178484Y1049950D1*
X1177278Y1040870D1*
X1177159Y1040584D1*
X1177161Y1040429D1*
X1177286Y1040126D1*
X1178450Y1031201D1*
X1177244Y1022121D1*
X1173750Y1013740D1*
X1168206Y1006549D1*
X1160989Y1001037D1*
X1152592Y997582D1*
X1143587Y996417D1*
X1134587Y997623D1*
X1126206Y1001118D1*
X1119014Y1006662D1*
X1113503Y1013878D1*
X1110048Y1022276D1*
X1108883Y1031281D1*
X1110089Y1040281D1*
X1110209Y1040567D1*
X1110089Y1040281D1*
X1108883Y1031281D1*
X1110048Y1022276D1*
X1113503Y1013878D1*
X1119014Y1006662D1*
X1126206Y1001118D1*
X1134587Y997623D1*
X1143587Y996417D1*
X1152592Y997582D1*
X1160989Y1001037D1*
X1168206Y1006549D1*
X1173750Y1013740D1*
X1177244Y1022121D1*
X1178450Y1031201D1*
X1177286Y1040126D1*
X1177161Y1040429D1*
X1642573Y1040646D2*
X1641571Y1048394D1*
X1642777Y1057394D1*
X1646271Y1065775D1*
X1651815Y1072966D1*
X1659032Y1078477D1*
X1667429Y1081933D1*
X1676434Y1083097D1*
X1685434Y1081891D1*
X1693815Y1078397D1*
X1701007Y1072853D1*
X1706518Y1065636D1*
X1709973Y1057239D1*
X1711138Y1048314D1*
X1709908Y1039176D1*
X1709831Y1038880D1*
X1710833Y1031201D1*
X1709627Y1022121D1*
X1706133Y1013740D1*
X1700589Y1006549D1*
X1693372Y1001037D1*
X1684975Y997582D1*
X1675970Y996417D1*
X1666970Y997623D1*
X1658589Y1001118D1*
X1651398Y1006662D1*
X1645887Y1013878D1*
X1642431Y1022276D1*
X1641266Y1031281D1*
X1642496Y1040338D1*
X3605495Y997876D2*
X3603223Y996941D1*
X3594218Y995777D1*
X3585218Y996983D1*
X3584064Y997464D1*
X3583648Y997450D1*
X3582836Y997116D1*
X3573831Y995952D1*
X3564831Y997157D1*
X3556450Y1000652D1*
X3549259Y1006196D1*
X3543747Y1013413D1*
X3540292Y1021810D1*
X3539127Y1030815D1*
X3540333Y1039815D1*
X3543828Y1048196D1*
X3549372Y1055387D1*
X3556588Y1060898D1*
X3564985Y1064354D1*
X3573991Y1065518D1*
X3582991Y1064312D1*
X3584145Y1063831D1*
X3584561Y1063845D1*
X3585373Y1064179D1*
X3594378Y1065344D1*
X3603378Y1064138D1*
X3603779Y1063971D1*
X3604256Y1063885D1*
X3606527Y1064820D1*
X3615533Y1065984D1*
X3624533Y1064778D1*
X3632914Y1061284D1*
X3640105Y1055740D1*
X3645616Y1048523D1*
X3649072Y1040126D1*
X3650236Y1031201D1*
X3649030Y1022121D1*
X3650236Y1031201D1*
X3649072Y1040126D1*
X3645616Y1048523D1*
X3640105Y1055740D1*
X3632914Y1061284D1*
X3624533Y1064778D1*
X3615533Y1065984D1*
X3606527Y1064820D1*
X3604256Y1063885D1*
X3786253Y779963D2*
X3793353Y774489D1*
X3798665Y767533D1*
X3805853Y761990D1*
X3811165Y755035D1*
X3818353Y749489D1*
X3823864Y742272D1*
X3827320Y733875D1*
X3828484Y724950D1*
X3827278Y715870D1*
X3823784Y707489D1*
X3818240Y700298D1*
X3811023Y694787D1*
X3802626Y691331D1*
X3793621Y690167D1*
X3784621Y691373D1*
X3776240Y694867D1*
X3769049Y700411D1*
X3763737Y707367D1*
X3756549Y712912D1*
X3751237Y719868D1*
X3744049Y725411D1*
X3738737Y732367D1*
X3731549Y737912D1*
X3726037Y745129D1*
X3722582Y753526D1*
X3721417Y762532D1*
X3722623Y771531D1*
X3726118Y779912D1*
X3731662Y787104D1*
X3738878Y792615D1*
X3747276Y796070D1*
X3756281Y797235D1*
X3765281Y796029D1*
X3773662Y792535D1*
X3780853Y786990D1*
X3786165Y780035D1*
X1100346Y1503059D2*
X1101037Y1501378D1*
X1106549Y1494162D1*
X1113740Y1488618D1*
X1122121Y1485123D1*
X1131121Y1483917D1*
X1140126Y1485082D1*
X1148523Y1488537D1*
X1155740Y1494049D1*
X1161284Y1501240D1*
X1164778Y1509621D1*
X1165984Y1518701D1*
X1164820Y1527626D1*
X1161364Y1536023D1*
X1155853Y1543240D1*
X1148662Y1548784D1*
X1146853Y1549538D1*
X1146431Y1549967D1*
X1145739Y1551648D1*
X1140228Y1558864D1*
X1133037Y1564409D1*
X1124656Y1567903D1*
X1115656Y1569109D1*
X1106651Y1567944D1*
X1098254Y1564489D1*
X1091037Y1558978D1*
X1085493Y1551786D1*
X1081999Y1543405D1*
X1080793Y1534406D1*
X1081957Y1525400D1*
X1085413Y1517003D1*
X1090924Y1509787D1*
X1098115Y1504242D1*
X1099924Y1503488D1*
X1385509Y1465734D2*
X1381121Y1465167D1*
X1372121Y1466373D1*
X1363740Y1469867D1*
X1356549Y1475411D1*
X1351037Y1482628D1*
X1347582Y1491025D1*
X1346417Y1500030D1*
X1347623Y1509030D1*
X1351118Y1517411D1*
X1356662Y1524602D1*
X1362236Y1528859D1*
X1362373Y1529208D1*
X1360082Y1534776D1*
X1358917Y1543781D1*
X1360123Y1552781D1*
X1363618Y1561162D1*
X1369162Y1568353D1*
X1376378Y1573864D1*
X1384776Y1577320D1*
X1393781Y1578484D1*
X1402781Y1577278D1*
X1411162Y1573784D1*
X1418353Y1568240D1*
X1423864Y1561023D1*
X1427320Y1552626D1*
X1428484Y1543701D1*
X1427278Y1534621D1*
X1426736Y1533319D1*
X1426833Y1533103D1*
X1426989Y1532898D1*
X1430444Y1524501D1*
X1431323Y1517764D1*
X1431569Y1517302D1*
X1436364Y1511023D1*
X1439820Y1502626D1*
X1440984Y1493701D1*
X1439778Y1484621D1*
X1436284Y1476240D1*
X1430740Y1469049D1*
X1423523Y1463537D1*
X1415126Y1460082D1*
X1406121Y1458917D1*
X1397121Y1460123D1*
X1388740Y1463618D1*
X1386247Y1465540D1*
X1516472Y1465518D2*
X1516373Y1465281D1*
X1515167Y1456281D1*
X1516331Y1447276D1*
X1516476Y1446923D1*
X1516472Y1446769D1*
X1516373Y1446531D1*
X1515167Y1437532D1*
X1516331Y1428526D1*
X1519787Y1420129D1*
X1525298Y1412912D1*
X1532489Y1407368D1*
X1540870Y1403874D1*
X1549870Y1402668D1*
X1558875Y1403833D1*
X1567272Y1407288D1*
X1574489Y1412799D1*
X1580033Y1419990D1*
X1583528Y1428372D1*
X1584734Y1437451D1*
X1583569Y1446377D1*
X1583424Y1446729D1*
X1583429Y1446883D1*
X1583528Y1447121D1*
X1584734Y1456201D1*
X1583569Y1465126D1*
X1583424Y1465479D1*
X1583430Y1465634D1*
X1583529Y1465872D1*
X1584735Y1474951D1*
X1583570Y1483877D1*
X1580115Y1492274D1*
X1574604Y1499490D1*
X1567412Y1505035D1*
X1559031Y1508529D1*
X1550032Y1509735D1*
X1541026Y1508570D1*
X1532629Y1505115D1*
X1525412Y1499604D1*
X1519868Y1492412D1*
X1516374Y1484031D1*
X1515168Y1475032D1*
X1516333Y1466026D1*
X1516478Y1465674D1*
X542639Y1512067D2*
X541373Y1509030D1*
X540167Y1500030D1*
X541331Y1491025D1*
X542644Y1487835D1*
X542639Y1487067D1*
X541373Y1484030D1*
X540167Y1475030D1*
X541331Y1466025D1*
X544787Y1457628D1*
X550298Y1450411D1*
X557489Y1444867D1*
X565870Y1441373D1*
X574870Y1440167D1*
X583875Y1441331D1*
X587065Y1442644D1*
X587834Y1442639D1*
X590870Y1441373D1*
X599870Y1440167D1*
X608875Y1441331D1*
X612065Y1442644D1*
X612834Y1442639D1*
X615870Y1441373D1*
X624870Y1440167D1*
X633875Y1441331D1*
X642272Y1444787D1*
X649489Y1450298D1*
X655033Y1457489D1*
X658528Y1465870D1*
X659734Y1474950D1*
X658569Y1483875D1*
X657256Y1487065D1*
X657262Y1487834D1*
X658528Y1490870D1*
X659734Y1499950D1*
X658569Y1508875D1*
X657256Y1512065D1*
X657262Y1512835D1*
X658528Y1515872D1*
X659734Y1524951D1*
X658569Y1533877D1*
X655113Y1542274D1*
X649602Y1549490D1*
X642411Y1555035D1*
X634030Y1558529D1*
X633652Y1558580D1*
X633600Y1558641D1*
X633569Y1558877D1*
X632256Y1562067D1*
X632262Y1562835D1*
X633528Y1565872D1*
X634734Y1574951D1*
X633569Y1583877D1*
X632256Y1587067D1*
X632262Y1587835D1*
X633528Y1590872D1*
X633578Y1591253D1*
X633638Y1591302D1*
X633875Y1591333D1*
X642272Y1594788D1*
X649489Y1600299D1*
X655033Y1607490D1*
X658528Y1615872D1*
X659734Y1624951D1*
X658569Y1633877D1*
X657256Y1637067D1*
X657262Y1637835D1*
X658528Y1640872D1*
X659734Y1649951D1*
X658569Y1658877D1*
X657256Y1662067D1*
X657262Y1662834D1*
X658528Y1665870D1*
X659734Y1674950D1*
X658569Y1683875D1*
X655113Y1692272D1*
X649602Y1699489D1*
X642411Y1705033D1*
X634030Y1708528D1*
X625030Y1709734D1*
X616025Y1708569D1*
X612835Y1707256D1*
X612067Y1707262D1*
X609030Y1708528D1*
X600030Y1709734D1*
X591025Y1708569D1*
X587835Y1707256D1*
X587067Y1707262D1*
X584030Y1708528D1*
X575030Y1709734D1*
X566025Y1708569D1*
X557628Y1705113D1*
X550411Y1699602D1*
X544867Y1692411D1*
X541373Y1684030D1*
X540167Y1675030D1*
X541331Y1666025D1*
X542644Y1662835D1*
X542639Y1662068D1*
X541373Y1659031D1*
X540167Y1650032D1*
X541331Y1641026D1*
X542644Y1637836D1*
X542639Y1637068D1*
X541373Y1634031D1*
X540167Y1625032D1*
X541331Y1616026D1*
X544787Y1607629D1*
X550298Y1600412D1*
X557489Y1594868D1*
X565870Y1591374D1*
X566248Y1591323D1*
X566301Y1591264D1*
X566331Y1591026D1*
X567644Y1587836D1*
X567639Y1587068D1*
X566373Y1584031D1*
X565167Y1575032D1*
X566331Y1566026D1*
X567644Y1562836D1*
X567639Y1562068D1*
X566373Y1559031D1*
X566322Y1558653D1*
X566262Y1558601D1*
X566025Y1558570D1*
X557628Y1555115D1*
X550411Y1549604D1*
X544867Y1542412D1*
X541373Y1534031D1*
X540167Y1525032D1*
X541331Y1516026D1*
X542644Y1512836D1*
X553686Y2506433D2*
X551368Y2497483D1*
X547571Y2489054D1*
X542404Y2481387D1*
X536015Y2474704D1*
X528589Y2469197D1*
X520339Y2465025D1*
X511503Y2462306D1*
X502334Y2461120D1*
X493097Y2461501D1*
X484057Y2463437D1*
X475474Y2466873D1*
X467595Y2471710D1*
X460647Y2477809D1*
X454830Y2484995D1*
X450311Y2493060D1*
X447219Y2501773D1*
X445645Y2510884D1*
X445633Y2520129D1*
X447184Y2529243D1*
X450253Y2537964D1*
X454751Y2546041D1*
X460550Y2553241D1*
X467482Y2559358D1*
X475349Y2564216D1*
X483923Y2567674D1*
X492958Y2569633D1*
X502194Y2570037D1*
X511366Y2568875D1*
X520209Y2566179D1*
X528470Y2562027D1*
X535910Y2556540D1*
X542316Y2549873D1*
X547503Y2542220D1*
X551322Y2533800D1*
X553663Y2524857D1*
X554459Y2515576D1*
X553686Y2506433D1*
X551368Y2497483D1*
X547571Y2489054D1*
X542404Y2481387D1*
X536015Y2474704D1*
X528589Y2469197D1*
X520339Y2465025D1*
X511503Y2462306D1*
X502334Y2461120D1*
X493097Y2461501D1*
X484057Y2463437D1*
X475474Y2466873D1*
X467595Y2471710D1*
X460647Y2477809D1*
X454830Y2484995D1*
X450311Y2493060D1*
X447219Y2501773D1*
X445645Y2510884D1*
X445633Y2520129D1*
X447184Y2529243D1*
X450253Y2537964D1*
X454751Y2546041D1*
X460550Y2553241D1*
X467482Y2559358D1*
X475349Y2564216D1*
X483923Y2567674D1*
X492958Y2569633D1*
X502194Y2570037D1*
X511366Y2568875D1*
X520209Y2566179D1*
X528470Y2562027D1*
X535910Y2556540D1*
X542316Y2549873D1*
X547503Y2542220D1*
X551322Y2533800D1*
X553663Y2524857D1*
X554459Y2515576D1*
X553686Y2506433D1*
X4275561D2*
X4273243Y2497483D1*
X4269446Y2489054D1*
X4264279Y2481387D1*
X4257890Y2474704D1*
X4250464Y2469197D1*
X4242214Y2465025D1*
X4233378Y2462306D1*
X4224209Y2461120D1*
X4214972Y2461501D1*
X4205932Y2463437D1*
X4197349Y2466873D1*
X4189470Y2471710D1*
X4182522Y2477809D1*
X4176705Y2484995D1*
X4172186Y2493060D1*
X4169094Y2501773D1*
X4167520Y2510884D1*
X4167508Y2520129D1*
X4169059Y2529243D1*
X4172128Y2537964D1*
X4176626Y2546041D1*
X4182425Y2553241D1*
X4189357Y2559358D1*
X4197224Y2564216D1*
X4205798Y2567674D1*
X4214833Y2569633D1*
X4224069Y2570037D1*
X4233241Y2568875D1*
X4242084Y2566179D1*
X4250345Y2562027D1*
X4257785Y2556540D1*
X4264191Y2549873D1*
X4269378Y2542220D1*
X4273197Y2533800D1*
X4275538Y2524857D1*
X4276334Y2515576D1*
X4275561Y2506433D1*
X4273243Y2497483D1*
X4269446Y2489054D1*
X4264279Y2481387D1*
X4257890Y2474704D1*
X4250464Y2469197D1*
X4242214Y2465025D1*
X4233378Y2462306D1*
X4224209Y2461120D1*
X4214972Y2461501D1*
X4205932Y2463437D1*
X4197349Y2466873D1*
X4189470Y2471710D1*
X4182522Y2477809D1*
X4176705Y2484995D1*
X4172186Y2493060D1*
X4169094Y2501773D1*
X4167520Y2510884D1*
X4167508Y2520129D1*
X4169059Y2529243D1*
X4172128Y2537964D1*
X4176626Y2546041D1*
X4182425Y2553241D1*
X4189357Y2559358D1*
X4197224Y2564216D1*
X4205798Y2567674D1*
X4214833Y2569633D1*
X4224069Y2570037D1*
X4233241Y2568875D1*
X4242084Y2566179D1*
X4250345Y2562027D1*
X4257785Y2556540D1*
X4264191Y2549873D1*
X4269378Y2542220D1*
X4273197Y2533800D1*
X4275538Y2524857D1*
X4276334Y2515576D1*
X4275561Y2506433D1*
X553686Y928308D2*
X551368Y919358D1*
X547571Y910929D1*
X542404Y903262D1*
X536015Y896579D1*
X528589Y891072D1*
X520339Y886900D1*
X511503Y884181D1*
X502334Y882995D1*
X493097Y883376D1*
X484057Y885312D1*
X475474Y888748D1*
X467595Y893585D1*
X460647Y899684D1*
X454830Y906870D1*
X450311Y914935D1*
X447219Y923648D1*
X445645Y932759D1*
X445633Y942004D1*
X447184Y951118D1*
X450253Y959839D1*
X454751Y967916D1*
X460550Y975116D1*
X467482Y981233D1*
X475349Y986091D1*
X483923Y989549D1*
X492958Y991508D1*
X502194Y991912D1*
X511366Y990750D1*
X520209Y988054D1*
X528470Y983902D1*
X535910Y978415D1*
X542316Y971748D1*
X547503Y964095D1*
X551322Y955675D1*
X553663Y946732D1*
X554459Y937451D1*
X553686Y928308D1*
X551368Y919358D1*
X547571Y910929D1*
X542404Y903262D1*
X536015Y896579D1*
X528589Y891072D1*
X520339Y886900D1*
X511503Y884181D1*
X502334Y882995D1*
X493097Y883376D1*
X484057Y885312D1*
X475474Y888748D1*
X467595Y893585D1*
X460647Y899684D1*
X454830Y906870D1*
X450311Y914935D1*
X447219Y923648D1*
X445645Y932759D1*
X445633Y942004D1*
X447184Y951118D1*
X450253Y959839D1*
X454751Y967916D1*
X460550Y975116D1*
X467482Y981233D1*
X475349Y986091D1*
X483923Y989549D1*
X492958Y991508D1*
X502194Y991912D1*
X511366Y990750D1*
X520209Y988054D1*
X528470Y983902D1*
X535910Y978415D1*
X542316Y971748D1*
X547503Y964095D1*
X551322Y955675D1*
X553663Y946732D1*
X554459Y937451D1*
X553686Y928308D1*
X1326565Y1039832D2*
X1325419Y1031281D1*
X1326583Y1022276D1*
X1330039Y1013878D1*
X1335550Y1006662D1*
X1342741Y1001118D1*
X1351122Y997623D1*
X1360122Y996417D1*
X1369127Y997582D1*
X1377524Y1001037D1*
X1384741Y1006549D1*
X1390285Y1013740D1*
X1393780Y1022121D1*
X1394986Y1031201D1*
X1393821Y1040126D1*
X1393568Y1040741D1*
X1393821Y1040126D1*
X1394986Y1031201D1*
X1393780Y1022121D1*
X1390285Y1013740D1*
X1384741Y1006549D1*
X1377524Y1001037D1*
X1369127Y997582D1*
X1360122Y996417D1*
X1351122Y997623D1*
X1342741Y1001118D1*
X1335550Y1006662D1*
X1330039Y1013878D1*
X1326583Y1022276D1*
X1325419Y1031281D1*
X1326565Y1039832D1*
X1326575Y1040083D1*
X1326322Y1040698D1*
X1325158Y1049703D1*
X1326364Y1058703D1*
X1329858Y1067084D1*
X1335402Y1074276D1*
X1342619Y1079787D1*
X1351016Y1083242D1*
X1360021Y1084407D1*
X1369021Y1083201D1*
X1377402Y1079707D1*
X1384593Y1074162D1*
X1390104Y1066946D1*
X1393560Y1058549D1*
X1394724Y1049623D1*
X1393578Y1040996D1*
X3649030Y1022121D2*
X3645536Y1013740D1*
X3639992Y1006549D1*
X3632775Y1001037D1*
X3624378Y997582D1*
X3615373Y996417D1*
X3606373Y997623D1*
X3605972Y997791D1*
X3606373Y997623D1*
X3615373Y996417D1*
X3624378Y997582D1*
X3632775Y1001037D1*
X3639992Y1006549D1*
X3645536Y1013740D1*
X3649030Y1022121D1*
X3268008Y1039443D2*
X3267185Y1033299D1*
X3268350Y1024294D1*
X3271805Y1015897D1*
X3277316Y1008680D1*
X3284507Y1003136D1*
X3292889Y999642D1*
X3301888Y998436D1*
X3310894Y999600D1*
X3319291Y1003056D1*
X3326507Y1008567D1*
X3332052Y1015758D1*
X3335546Y1024139D1*
X3336752Y1033219D1*
X3335782Y1040654D1*
X3335714Y1041649D1*
X3336539Y1047865D1*
X3335375Y1056790D1*
X3331919Y1065187D1*
X3326408Y1072404D1*
X3319217Y1077948D1*
X3310836Y1081442D1*
X3301836Y1082648D1*
X3292831Y1081484D1*
X3284434Y1078028D1*
X3277217Y1072517D1*
X3271673Y1065326D1*
X3268178Y1056945D1*
X3266973Y1047945D1*
X3267943Y1040443D1*
X2933528Y1022121D2*
X2930033Y1013740D1*
X2924489Y1006549D1*
X2917272Y1001037D1*
X2908875Y997582D1*
X2899870Y996417D1*
X2890870Y997623D1*
X2882489Y1001118D1*
X2875298Y1006662D1*
X2869787Y1013878D1*
X2866331Y1022276D1*
X2865167Y1031281D1*
X2866373Y1040281D1*
X2869867Y1048662D1*
X2875411Y1055853D1*
X2882628Y1061364D1*
X2891025Y1064820D1*
X2900030Y1065984D1*
X2909030Y1064778D1*
X2917411Y1061284D1*
X2924602Y1055740D1*
X2930113Y1048523D1*
X2933569Y1040126D1*
X2934734Y1031201D1*
X2933528Y1022121D1*
X983529D2*
X980035Y1013740D1*
X974490Y1006549D1*
X967274Y1001037D1*
X958877Y997582D1*
X949871Y996417D1*
X940872Y997623D1*
X932490Y1001118D1*
X925299Y1006662D1*
X919788Y1013878D1*
X916333Y1022276D1*
X915168Y1031281D1*
X916374Y1040281D1*
X919868Y1048662D1*
X925412Y1055853D1*
X932629Y1061364D1*
X941026Y1064820D1*
X950032Y1065984D1*
X959031Y1064778D1*
X967412Y1061284D1*
X974604Y1055740D1*
X980115Y1048523D1*
X983570Y1040126D1*
X984735Y1031201D1*
X983529Y1022121D1*
X3119028Y1041889D2*
X3120217Y1032907D1*
X3119011Y1023827D1*
X3115516Y1015446D1*
X3109972Y1008255D1*
X3102755Y1002744D1*
X3094358Y999288D1*
X3085353Y998123D1*
X3076353Y999329D1*
X3067972Y1002824D1*
X3060781Y1008368D1*
X3055270Y1015584D1*
X3051814Y1023982D1*
X3050650Y1032987D1*
X3051781Y1041433D1*
X3051725Y1041634D1*
X3050560Y1050639D1*
X3051766Y1059639D1*
X3055261Y1068020D1*
X3060805Y1075211D1*
X3068021Y1080722D1*
X3076419Y1084178D1*
X3085424Y1085342D1*
X3094424Y1084136D1*
X3102805Y1080642D1*
X3109996Y1075098D1*
X3115507Y1067881D1*
X3118963Y1059484D1*
X3120127Y1050559D1*
X3118995Y1042038D1*
X2646028Y853372D2*
X2642533Y844990D1*
X2636989Y837799D1*
X2629772Y832288D1*
X2621375Y828833D1*
X2612370Y827668D1*
X2603370Y828874D1*
X2594989Y832368D1*
X2587798Y837912D1*
X2582287Y845129D1*
X2578831Y853526D1*
X2577667Y862532D1*
X2578873Y871531D1*
X2582367Y879912D1*
X2587911Y887104D1*
X2595128Y892615D1*
X2603525Y896070D1*
X2612530Y897235D1*
X2621530Y896029D1*
X2629911Y892535D1*
X2637102Y886990D1*
X2642613Y879774D1*
X2646069Y871377D1*
X2647234Y862451D1*
X2646028Y853372D1*
Y953372D2*
X2642533Y944990D1*
X2636989Y937799D1*
X2629772Y932288D1*
X2621375Y928833D1*
X2612370Y927668D1*
X2603370Y928874D1*
X2594989Y932368D1*
X2587798Y937912D1*
X2582287Y945129D1*
X2578831Y953526D1*
X2577667Y962532D1*
X2578873Y971531D1*
X2582367Y979912D1*
X2587911Y987104D1*
X2595128Y992615D1*
X2603525Y996070D1*
X2612530Y997235D1*
X2621530Y996029D1*
X2629911Y992535D1*
X2637102Y986990D1*
X2642613Y979774D1*
X2646069Y971377D1*
X2647234Y962451D1*
X2646028Y953372D1*
X1461163Y1203247D2*
X1456496Y1203873D1*
X1448115Y1207367D1*
X1440924Y1212911D1*
X1435413Y1220128D1*
X1431957Y1228525D1*
X1430793Y1237530D1*
X1431999Y1246530D1*
X1435493Y1254911D1*
X1441037Y1262102D1*
X1448254Y1267613D1*
X1456651Y1271069D1*
X1465656Y1272234D1*
X1474656Y1271028D1*
X1483037Y1267533D1*
X1490228Y1261989D1*
X1494507Y1256386D1*
X1494989Y1256028D1*
X1499656Y1255403D1*
X1508037Y1251909D1*
X1515228Y1246364D1*
X1520739Y1239148D1*
X1524195Y1230751D1*
X1525360Y1221825D1*
X1524154Y1212746D1*
X1520659Y1204364D1*
X1515115Y1197173D1*
X1507898Y1191662D1*
X1499501Y1188207D1*
X1490496Y1187042D1*
X1481496Y1188248D1*
X1473115Y1191742D1*
X1465924Y1197287D1*
X1461645Y1202889D1*
X1036654Y1228372D2*
X1033159Y1219990D1*
X1027615Y1212799D1*
X1020398Y1207288D1*
X1012001Y1203833D1*
X1002996Y1202668D1*
X993996Y1203874D1*
X985615Y1207368D1*
X978424Y1212912D1*
X972913Y1220129D1*
X969457Y1228526D1*
X968293Y1237532D1*
X969499Y1246531D1*
X972993Y1254912D1*
X978537Y1262104D1*
X985754Y1267615D1*
X994151Y1271070D1*
X1003156Y1272235D1*
X1012156Y1271029D1*
X1020537Y1267535D1*
X1027728Y1261990D1*
X1033239Y1254774D1*
X1036695Y1246377D1*
X1037860Y1237451D1*
X1036654Y1228372D1*
X1366156Y2289492D2*
X1362662Y2281111D1*
X1357118Y2273920D1*
X1349901Y2268409D1*
X1341504Y2264953D1*
X1332499Y2263789D1*
X1323499Y2264995D1*
X1315118Y2268489D1*
X1307927Y2274033D1*
X1302415Y2281250D1*
X1298960Y2289647D1*
X1297795Y2298652D1*
X1299001Y2307652D1*
X1302495Y2316033D1*
X1308040Y2323224D1*
X1315256Y2328735D1*
X1323653Y2332191D1*
X1332659Y2333356D1*
X1341659Y2332150D1*
X1350040Y2328655D1*
X1357231Y2323111D1*
X1362742Y2315895D1*
X1366198Y2307497D1*
X1367362Y2298572D1*
X1366156Y2289492D1*
X1321020Y1230754D2*
X1320840Y1233163D1*
X1318330Y1241889D1*
X1313646Y1249669D1*
X1307108Y1255970D1*
X1299163Y1260365D1*
X1290350Y1262554D1*
X1281271Y1262388D1*
X1272545Y1259877D1*
X1264766Y1255193D1*
X1258464Y1248656D1*
X1254631Y1241726D1*
X1254396Y1241504D1*
X1252570Y1245940D1*
X1247059Y1253157D1*
X1239868Y1258701D1*
X1231487Y1262196D1*
X1222487Y1263401D1*
X1213482Y1262237D1*
X1205084Y1258781D1*
X1197868Y1253270D1*
X1192324Y1246079D1*
X1189822Y1240080D1*
X1186364Y1248497D1*
X1180853Y1255713D1*
X1173662Y1261258D1*
X1165281Y1264752D1*
X1156281Y1265958D1*
X1147276Y1264793D1*
X1138878Y1261338D1*
X1131662Y1255827D1*
X1128245Y1251395D1*
X1127901D1*
X1124602Y1255715D1*
X1117411Y1261259D1*
X1109030Y1264753D1*
X1100030Y1265959D1*
X1091025Y1264795D1*
X1082628Y1261339D1*
X1075411Y1255828D1*
X1069867Y1248637D1*
X1068963Y1246468D1*
X1059776Y1245297D1*
X1051378Y1241842D1*
X1044162Y1236331D1*
X1038618Y1229139D1*
X1035123Y1220758D1*
X1033917Y1211759D1*
X1035082Y1202753D1*
X1038537Y1194356D1*
X1044049Y1187140D1*
X1051240Y1181595D1*
X1059621Y1178101D1*
X1068621Y1176895D1*
X1077626Y1178060D1*
X1086023Y1181515D1*
X1093240Y1187026D1*
X1097079Y1192005D1*
X1097361Y1191959D1*
X1099726Y1186210D1*
X1105238Y1178994D1*
X1112429Y1173450D1*
X1120810Y1169955D1*
X1129810Y1168749D1*
X1138815Y1169914D1*
X1147212Y1173369D1*
X1154429Y1178881D1*
X1159973Y1186072D1*
X1160597Y1187570D1*
X1160751Y1187501D1*
X1161065Y1186738D1*
X1166576Y1179521D1*
X1173767Y1173977D1*
X1182148Y1170483D1*
X1191148Y1169277D1*
X1200154Y1170441D1*
X1208551Y1173897D1*
X1215767Y1179408D1*
X1216791Y1180735D1*
X1216971Y1180666D1*
X1217440Y1180053D1*
X1224631Y1174509D1*
X1233012Y1171014D1*
X1242012Y1169808D1*
X1251017Y1170973D1*
X1259414Y1174429D1*
X1266631Y1179940D1*
X1270361Y1184778D1*
X1270612Y1184676D1*
X1275299Y1178537D1*
X1282490Y1172993D1*
X1290872Y1169499D1*
X1299871Y1168293D1*
X1308877Y1169457D1*
X1317274Y1172913D1*
X1324490Y1178424D1*
X1330035Y1185615D1*
X1333529Y1193996D1*
X1334453Y1200957D1*
X1334669Y1201024D1*
X1340421Y1196590D1*
X1348802Y1193096D1*
X1348987Y1193071D1*
X1349360Y1192954D1*
X1351037Y1188878D1*
X1356549Y1181662D1*
X1363740Y1176118D1*
X1372121Y1172623D1*
X1381121Y1171417D1*
X1390126Y1172582D1*
X1398523Y1176037D1*
X1405740Y1181549D1*
X1411284Y1188740D1*
X1414778Y1197121D1*
X1415984Y1206201D1*
X1414820Y1215126D1*
X1411364Y1223523D1*
X1405853Y1230740D1*
X1398662Y1236284D1*
X1390281Y1239778D1*
X1390096Y1239803D1*
X1389800Y1239908D1*
X1389025Y1242164D1*
X1383955Y1249697D1*
X1377107Y1255661D1*
X1368950Y1259649D1*
X1360038Y1261390D1*
X1350979Y1260765D1*
X1342391Y1257817D1*
X1334858Y1252746D1*
X1328895Y1245899D1*
X1324906Y1237741D1*
X1323158Y1228730D1*
X1321155Y1230274D1*
X1060073Y896054D2*
X1003885Y839865D1*
X1003525Y839818D1*
X995128Y836363D1*
X987911Y830852D1*
X982367Y823660D1*
X978873Y815279D1*
X977667Y806280D1*
X978831Y797274D1*
X982287Y788877D1*
X987798Y781661D1*
X994989Y776116D1*
X1003370Y772622D1*
X1012370Y771416D1*
X1021375Y772581D1*
X1029772Y776036D1*
X1031048Y777010D1*
X1031344Y777000D1*
X1032489Y776118D1*
X1040870Y772623D1*
X1049870Y771417D1*
X1058875Y772582D1*
X1067272Y776037D1*
X1074489Y781549D1*
X1080033Y788740D1*
X1083528Y797121D1*
X1084734Y806201D1*
X1083569Y815126D1*
X1080113Y823523D1*
X1076599Y828125D1*
X1093567Y845089D1*
X2240342Y845090D1*
X2240167Y843781D1*
X2241331Y834776D1*
X2244787Y826378D1*
X2250298Y819162D1*
X2257489Y813618D1*
X2265870Y810123D1*
X2274870Y808917D1*
X2283875Y810082D1*
X2292272Y813537D1*
X2299489Y819049D1*
X2305033Y826240D1*
X2308528Y834621D1*
X2309734Y843701D1*
X2308569Y852626D1*
X2305906Y859096D1*
X2305905Y859578D1*
X2308529Y865872D1*
X2309735Y874951D1*
X2308570Y883877D1*
X2305115Y892274D1*
X2299604Y899490D1*
X2292412Y905035D1*
X2284031Y908529D1*
X2275032Y909735D1*
X2266026Y908570D1*
X2257629Y905115D1*
X2257241Y904819D1*
X2128443Y904814D1*
X1971722Y904811D1*
X1970025Y912146D1*
X1965759Y920161D1*
X1959563Y926800D1*
X1951861Y931608D1*
X1943176Y934259D1*
X1934101Y934572D1*
X1925254Y932525D1*
X1922147Y930871D1*
X1921672Y930947D1*
X1920611Y931609D1*
X1911927Y934260D1*
X1902852Y934573D1*
X1894005Y932527D1*
X1890882Y930864D1*
X1890284Y930878D1*
X1887669Y932325D1*
X1878857Y934514D1*
X1869778Y934347D1*
X1861052Y931836D1*
X1859540Y930926D1*
X1859035Y930878D1*
X1856420Y932325D1*
X1847607Y934514D1*
X1838528Y934347D1*
X1829802Y931836D1*
X1825221Y929078D1*
X1824681Y929068D1*
X1820611Y931608D1*
X1811927Y934259D1*
X1802852Y934572D1*
X1794005Y932525D1*
X1790882Y930863D1*
X1790421Y930946D1*
X1789361Y931608D1*
X1780676Y934259D1*
X1771601Y934572D1*
X1762754Y932525D1*
X1759631Y930863D1*
X1759075Y930904D1*
X1752781Y933528D1*
X1743781Y934734D1*
X1734776Y933569D1*
X1728306Y930906D1*
X1727824Y930904D1*
X1721530Y933528D1*
X1712530Y934734D1*
X1703525Y933569D1*
X1695128Y930113D1*
X1687911Y924602D1*
X1682367Y917411D1*
X1678873Y909030D1*
X1678309Y904820D1*
X1595634Y904814D1*
X1490351Y904805D1*
X1489820Y908875D1*
X1486364Y917272D1*
X1480853Y924489D1*
X1473662Y930033D1*
X1465281Y933528D1*
X1456281Y934734D1*
X1447276Y933569D1*
X1438878Y930113D1*
X1437617Y929150D1*
X1437306Y929151D1*
X1436162Y930033D1*
X1427781Y933528D1*
X1418781Y934734D1*
X1409776Y933569D1*
X1401378Y930113D1*
X1394162Y924602D1*
X1388618Y917411D1*
X1385123Y909030D1*
X1384559Y904820D1*
X1301671Y904814D1*
X1081202D1*
X1079252Y904750D1*
X1070321Y902761D1*
X1062405Y898154D1*
X1233000Y2290508D2*
X1236516Y2293193D1*
X1244913Y2296649D1*
X1253919Y2297814D1*
X1262919Y2296608D1*
X1271300Y2293113D1*
X1278491Y2287569D1*
X1284002Y2280353D1*
X1287457Y2271955D1*
X1288622Y2263030D1*
X1287416Y2253950D1*
X1283922Y2245569D1*
X1278378Y2238378D1*
X1271161Y2232867D1*
X1262764Y2229411D1*
X1253759Y2228247D1*
X1244759Y2229453D1*
X1236378Y2232947D1*
X1233758Y2234966D1*
X1233289Y2234972D1*
X1229772Y2232287D1*
X1221375Y2228831D1*
X1212370Y2227667D1*
X1203370Y2228873D1*
X1194989Y2232367D1*
X1193915Y2233195D1*
X1193626Y2233208D1*
X1192421Y2232288D1*
X1184024Y2228833D1*
X1175018Y2227668D1*
X1166018Y2228874D1*
X1157637Y2232368D1*
X1156422Y2233305D1*
X1156104D1*
X1154772Y2232288D1*
X1146375Y2228833D1*
X1137370Y2227668D1*
X1128370Y2228874D1*
X1119989Y2232368D1*
X1112798Y2237912D1*
X1107287Y2245129D1*
X1106332Y2247450D1*
X1106060Y2247453D1*
X1105033Y2244989D1*
X1099489Y2237798D1*
X1092272Y2232287D1*
X1083875Y2228831D1*
X1074870Y2227667D1*
X1065870Y2228873D1*
X1057489Y2232367D1*
X1055740Y2233715D1*
X1055441Y2233652D1*
X1054771Y2233141D1*
X1046374Y2229686D1*
X1037369Y2228521D1*
X1028369Y2229727D1*
X1019988Y2233221D1*
X1018239Y2234569D1*
X1017813Y2234599D1*
X1015396Y2232753D1*
X1006999Y2229297D1*
X997993Y2228133D1*
X988994Y2229339D1*
X980612Y2232833D1*
X978232Y2234668D1*
X977795Y2234648D1*
X975885Y2233190D1*
X967488Y2229734D1*
X958483Y2228570D1*
X949483Y2229776D1*
X941102Y2233270D1*
X933911Y2238814D1*
X928400Y2246031D1*
X926824Y2249860D1*
X926438Y2250006D1*
X926078Y2250054D1*
X917696Y2253548D1*
X910505Y2259092D1*
X904994Y2266309D1*
X901539Y2274706D1*
X900374Y2283711D1*
X901580Y2292711D1*
X905074Y2301092D1*
X910619Y2308283D1*
X917835Y2313795D1*
X926232Y2317250D1*
X935238Y2318415D1*
X944237Y2317209D1*
X952619Y2313714D1*
X959810Y2308170D1*
X965321Y2300954D1*
X966897Y2297124D1*
X967283Y2296979D1*
X967643Y2296930D1*
X976024Y2293436D1*
X978405Y2291601D1*
X978841Y2291621D1*
X980751Y2293079D1*
X989148Y2296535D1*
X998154Y2297699D1*
X1007153Y2296493D1*
X1015535Y2292999D1*
X1017283Y2291651D1*
X1017709Y2291622D1*
X1020126Y2293468D1*
X1028524Y2296923D1*
X1037529Y2298088D1*
X1046529Y2296882D1*
X1054910Y2293388D1*
X1056658Y2292040D1*
X1056958Y2292102D1*
X1057628Y2292613D1*
X1066025Y2296069D1*
X1075030Y2297234D1*
X1084030Y2296028D1*
X1092411Y2292533D1*
X1099602Y2286989D1*
X1105113Y2279772D1*
X1106068Y2277452D1*
X1106257Y2277607D1*
X1110601Y2284565D1*
X1117239Y2290760D1*
X1125254Y2295027D1*
X1134101Y2297073D1*
X1143176Y2296760D1*
X1151861Y2294109D1*
X1156005Y2291522D1*
X1156444Y2291598D1*
X1157776Y2292615D1*
X1166173Y2296070D1*
X1175178Y2297235D1*
X1184178Y2296029D1*
X1192559Y2292535D1*
X1193634Y2291706D1*
X1193923Y2291693D1*
X1195128Y2292613D1*
X1203525Y2296069D1*
X1212530Y2297234D1*
X1221530Y2296028D1*
X1229911Y2292533D1*
X1232531Y2290514D1*
X2283528Y1422121D2*
X2280033Y1413740D1*
X2274489Y1406549D1*
X2267272Y1401037D1*
X2258875Y1397582D1*
X2249870Y1396417D1*
X2240870Y1397623D1*
X2232489Y1401118D1*
X2225298Y1406662D1*
X2219787Y1413878D1*
X2216331Y1422276D1*
X2215167Y1431281D1*
X2216373Y1440281D1*
X2219867Y1448662D1*
X2225411Y1455853D1*
X2232628Y1461364D1*
X2241025Y1464820D1*
X2250030Y1465984D1*
X2259030Y1464778D1*
X2267411Y1461284D1*
X2274602Y1455740D1*
X2280113Y1448523D1*
X2283569Y1440126D1*
X2284734Y1431201D1*
X2283528Y1422121D1*
X2379810Y1490189D2*
X2381549Y1487912D1*
X2388740Y1482368D1*
X2397121Y1478874D1*
X2406121Y1477668D1*
X2415126Y1478833D1*
X2423523Y1482288D1*
X2430740Y1487799D1*
X2436284Y1494990D1*
X2439778Y1503372D1*
X2440984Y1512451D1*
X2439820Y1521377D1*
X2436364Y1529774D1*
X2430853Y1536990D1*
X2423662Y1542535D1*
X2415281Y1546029D1*
X2408118Y1546989D1*
X2407591Y1547213D1*
X2405853Y1549489D1*
X2398662Y1555033D1*
X2390281Y1558528D1*
X2383118Y1559487D1*
X2382602Y1559700D1*
X2380853Y1561990D1*
X2373662Y1567535D1*
X2365281Y1571029D1*
X2358118Y1571989D1*
X2357602Y1572200D1*
X2355853Y1574490D1*
X2348662Y1580035D1*
X2340281Y1583529D1*
X2331281Y1584735D1*
X2322276Y1583570D1*
X2315806Y1580908D1*
X2315324Y1580904D1*
X2309030Y1583528D1*
X2300030Y1584734D1*
X2291025Y1583569D1*
X2282628Y1580113D1*
X2275411Y1574602D1*
X2269867Y1567411D1*
X2266373Y1559030D1*
X2265167Y1550030D1*
X2266331Y1541025D1*
X2269787Y1532628D1*
X2275298Y1525411D1*
X2282489Y1519867D1*
X2290870Y1516373D1*
X2299870Y1515167D1*
X2308875Y1516331D1*
X2315345Y1518994D1*
X2315827Y1518998D1*
X2322121Y1516374D1*
X2329284Y1515414D1*
X2329799Y1515203D1*
X2331549Y1512912D1*
X2338740Y1507368D1*
X2347121Y1503874D1*
X2354284Y1502914D1*
X2354799Y1502702D1*
X2356549Y1500411D1*
X2363740Y1494867D1*
X2372121Y1491373D1*
X2379284Y1490413D1*
X785980Y1284496D2*
X781549Y1287912D1*
X776037Y1295129D1*
X772582Y1303526D1*
X771417Y1312532D1*
X772623Y1321531D1*
X776118Y1329912D1*
X781662Y1337104D1*
X788878Y1342615D1*
X797276Y1346070D1*
X806281Y1347235D1*
X815281Y1346029D1*
X823662Y1342535D1*
X830853Y1336990D1*
X836364Y1329774D1*
X839820Y1321377D1*
X840984Y1312451D1*
X839778Y1303372D1*
X836284Y1294990D1*
X830740Y1287799D1*
X826420Y1284500D1*
X826422Y1284156D1*
X830853Y1280740D1*
X836364Y1273523D1*
X839820Y1265126D1*
X840984Y1256201D1*
X839778Y1247121D1*
X836284Y1238740D1*
X830740Y1231549D1*
X823523Y1226037D1*
X815126Y1222582D1*
X806121Y1221417D1*
X797121Y1222623D1*
X788740Y1226118D1*
X781549Y1231662D1*
X776037Y1238878D1*
X772582Y1247276D1*
X771417Y1256281D1*
X772623Y1265281D1*
X776118Y1273662D1*
X781662Y1280853D1*
X785982Y1284152D1*
X2503445Y905840D2*
X2503873Y909030D1*
X2507367Y917411D1*
X2512911Y924602D1*
X2520128Y930113D1*
X2528525Y933569D1*
X2537530Y934734D1*
X2546530Y933528D1*
X2554911Y930033D1*
X2562102Y924489D1*
X2567613Y917272D1*
X2571069Y908875D1*
X2572234Y899950D1*
X2571028Y890870D1*
X2572234Y899950D1*
X2571069Y908875D1*
X2567613Y917272D1*
X2562102Y924489D1*
X2554911Y930033D1*
X2546530Y933528D1*
X2537530Y934734D1*
X2528525Y933569D1*
X2520128Y930113D1*
X2512911Y924602D1*
X2507367Y917411D1*
X2503873Y909030D1*
X2503445Y905840D1*
X2503163Y905757D1*
X2496542Y908517D1*
X2487542Y909723D1*
X2478537Y908559D1*
X2470140Y905103D1*
X2462923Y899592D1*
X2457379Y892401D1*
X2453885Y884020D1*
X2452679Y875020D1*
X2453843Y866014D1*
X2455014Y863169D1*
X2454864Y862798D1*
X2451378Y861364D1*
X2444162Y855853D1*
X2438618Y848662D1*
X2435123Y840281D1*
X2433917Y831281D1*
X2435082Y822276D1*
X2438537Y813878D1*
X2444049Y806662D1*
X2451240Y801118D1*
X2459621Y797623D1*
X2468621Y796417D1*
X2477626Y797582D1*
X2486023Y801037D1*
X2493240Y806549D1*
X2498784Y813740D1*
X2502278Y822121D1*
X2503484Y831201D1*
X2502320Y840126D1*
X2501149Y842972D1*
X2501299Y843342D1*
X2504784Y844776D1*
X2512001Y850287D1*
X2517545Y857479D1*
X2521039Y865860D1*
X2521465Y869061D1*
X2521749Y869133D1*
X2528370Y866373D1*
X2537370Y865167D1*
X2546375Y866331D1*
X2554772Y869787D1*
X2561989Y875298D1*
X2567533Y882489D1*
X2571028Y890870D1*
X2567533Y882489D1*
X2561989Y875298D1*
X2554772Y869787D1*
X2546375Y866331D1*
X2537370Y865167D1*
X2528370Y866373D1*
X2521749Y869133D1*
X3020585Y1472564D2*
X3017091Y1464183D1*
X3011547Y1456992D1*
X3004330Y1451481D1*
X2995933Y1448025D1*
X2986928Y1446861D1*
X2977928Y1448067D1*
X2969547Y1451561D1*
X2962356Y1457105D1*
X2956845Y1464322D1*
X2953389Y1472719D1*
X2952225Y1481724D1*
X2953430Y1490724D1*
X2956925Y1499105D1*
X2962469Y1506297D1*
X2969686Y1511808D1*
X2978083Y1515263D1*
X2987088Y1516428D1*
X2996088Y1515222D1*
X3004469Y1511728D1*
X3011660Y1506183D1*
X3017171Y1498967D1*
X3020627Y1490570D1*
X3021791Y1481644D1*
X3020585Y1472564D1*
X3237506Y917826D2*
X3237912Y918353D1*
X3245129Y923864D1*
X3253526Y927320D1*
X3262532Y928484D1*
X3271531Y927278D1*
X3279912Y923784D1*
X3287104Y918240D1*
X3292615Y911023D1*
X3293570Y908702D1*
X3293757Y908856D1*
X3298101Y915814D1*
X3304739Y922010D1*
X3312754Y926276D1*
X3321601Y928323D1*
X3330676Y928010D1*
X3339361Y925359D1*
X3347063Y920550D1*
X3349744Y917679D1*
X3350005Y917826D1*
X3350411Y918353D1*
X3357628Y923864D1*
X3366025Y927320D1*
X3375030Y928484D1*
X3384030Y927278D1*
X3392411Y923784D1*
X3399602Y918240D1*
X3405113Y911023D1*
X3408569Y902626D1*
X3409734Y893701D1*
X3408528Y884621D1*
X3405033Y876240D1*
X3399489Y869049D1*
X3392272Y863537D1*
X3383875Y860082D1*
X3374870Y858917D1*
X3365870Y860123D1*
X3357489Y863618D1*
X3350298Y869162D1*
X3349991Y869564D1*
X3349895Y869575D1*
X3349489Y869049D1*
X3342272Y863537D1*
X3333875Y860082D1*
X3324870Y858917D1*
X3315870Y860123D1*
X3307489Y863618D1*
X3300298Y869162D1*
X3294787Y876378D1*
X3293832Y878699D1*
X3293562Y878703D1*
X3292535Y876240D1*
X3286990Y869049D1*
X3279774Y863537D1*
X3271377Y860082D1*
X3262371Y858917D1*
X3253372Y860123D1*
X3244990Y863618D1*
X3237799Y869162D1*
X3237493Y869564D1*
X3237396Y869575D1*
X3236990Y869049D1*
X3229774Y863537D1*
X3221377Y860082D1*
X3212371Y858917D1*
X3203372Y860123D1*
X3194990Y863618D1*
X3187799Y869162D1*
X3182288Y876378D1*
X3181333Y878699D1*
X3181060Y878703D1*
X3180033Y876240D1*
X3174489Y869049D1*
X3167272Y863537D1*
X3158875Y860082D1*
X3149870Y858917D1*
X3140870Y860123D1*
X3132489Y863618D1*
X3125298Y869162D1*
X3124991Y869564D1*
X3124895Y869575D1*
X3124489Y869049D1*
X3117272Y863537D1*
X3108875Y860082D1*
X3099870Y858917D1*
X3090870Y860123D1*
X3082489Y863618D1*
X3075298Y869162D1*
X3069787Y876378D1*
X3068832Y878699D1*
X3068562Y878703D1*
X3067535Y876240D1*
X3061990Y869049D1*
X3054774Y863537D1*
X3046377Y860082D1*
X3037371Y858917D1*
X3028372Y860123D1*
X3019990Y863618D1*
X3012799Y869162D1*
X3007288Y876378D1*
X3003833Y884776D1*
X3002668Y893781D1*
X3003874Y902781D1*
X3007368Y911162D1*
X3012912Y918353D1*
X3020129Y923864D1*
X3028526Y927320D1*
X3037532Y928484D1*
X3046531Y927278D1*
X3054912Y923784D1*
X3062104Y918240D1*
X3067615Y911023D1*
X3068570Y908702D1*
X3068757Y908856D1*
X3073101Y915814D1*
X3079739Y922010D1*
X3087754Y926276D1*
X3096601Y928323D1*
X3105676Y928010D1*
X3114361Y925359D1*
X3122063Y920550D1*
X3124744Y917679D1*
X3125005Y917826D1*
X3125411Y918353D1*
X3132628Y923864D1*
X3141025Y927320D1*
X3150030Y928484D1*
X3159030Y927278D1*
X3167411Y923784D1*
X3174602Y918240D1*
X3180113Y911023D1*
X3181068Y908702D1*
X3181258Y908856D1*
X3185602Y915814D1*
X3192240Y922010D1*
X3200256Y926276D1*
X3209102Y928323D1*
X3218177Y928010D1*
X3226862Y925359D1*
X3234565Y920550D1*
X3237245Y917679D1*
X3152451Y1298424D2*
X3152278Y1297121D1*
X3148784Y1288740D1*
X3143240Y1281549D1*
X3136023Y1276037D1*
X3127626Y1272582D1*
X3118621Y1271417D1*
X3109621Y1272623D1*
X3101240Y1276118D1*
X3094049Y1281662D1*
X3088537Y1288878D1*
X3085082Y1297276D1*
X3083917Y1306281D1*
X3085123Y1315281D1*
X3088618Y1323662D1*
X3094162Y1330853D1*
X3101378Y1336364D1*
X3109776Y1339820D1*
X3118781Y1340984D1*
X3127781Y1339778D1*
X3136162Y1336284D1*
X3141000Y1332554D1*
X3141197Y1332722D1*
X3141373Y1334031D1*
X3144867Y1342412D1*
X3150411Y1349604D1*
X3157628Y1355115D1*
X3166025Y1358570D1*
X3175030Y1359735D1*
X3184030Y1358529D1*
X3192411Y1355035D1*
X3199602Y1349490D1*
X3205113Y1342274D1*
X3208569Y1333877D1*
X3209734Y1324951D1*
X3208528Y1315872D1*
X3205033Y1307490D1*
X3199489Y1300299D1*
X3192272Y1294788D1*
X3183875Y1291333D1*
X3174870Y1290168D1*
X3165870Y1291374D1*
X3157489Y1294868D1*
X3152651Y1298599D1*
X2675425Y1273927D2*
X2673784Y1269990D1*
X2668240Y1262799D1*
X2661023Y1257288D1*
X2652626Y1253833D1*
X2643621Y1252668D1*
X2634621Y1253874D1*
X2626240Y1257368D1*
X2619049Y1262912D1*
X2613537Y1270129D1*
X2610082Y1278526D1*
X2608917Y1287532D1*
X2610123Y1296531D1*
X2613618Y1304912D1*
X2619162Y1312104D1*
X2626378Y1317615D1*
X2630175Y1319177D1*
X2630727Y1319725D1*
X2632368Y1323662D1*
X2637912Y1330853D1*
X2645129Y1336364D1*
X2653526Y1339820D1*
X2662532Y1340984D1*
X2671531Y1339778D1*
X2679912Y1336284D1*
X2687104Y1330740D1*
X2692615Y1323523D1*
X2696070Y1315126D1*
X2697235Y1306201D1*
X2696029Y1297121D1*
X2692535Y1288740D1*
X2686990Y1281549D1*
X2679774Y1276037D1*
X2675977Y1274475D1*
X3489778Y947121D2*
X3486284Y938740D1*
X3480740Y931549D1*
X3473523Y926037D1*
X3465126Y922582D1*
X3456121Y921417D1*
X3447121Y922623D1*
X3438740Y926118D1*
X3431549Y931662D1*
X3426037Y938878D1*
X3422582Y947276D1*
X3421417Y956281D1*
X3422623Y965281D1*
X3426118Y973662D1*
X3431662Y980853D1*
X3438878Y986364D1*
X3447276Y989820D1*
X3456281Y990984D1*
X3465281Y989778D1*
X3473662Y986284D1*
X3480853Y980740D1*
X3486364Y973523D1*
X3489820Y965126D1*
X3490984Y956201D1*
X3489778Y947121D1*
X3552829Y1861984D2*
X3560008Y1864880D1*
X3569021Y1865983D1*
X3578012Y1864715D1*
X3586369Y1861163D1*
X3593522Y1855569D1*
X3598983Y1848314D1*
X3602380Y1839894D1*
X3603484Y1831201D1*
X3602278Y1822121D1*
X3598784Y1813740D1*
X3593240Y1806549D1*
X3586023Y1801037D1*
X3577626Y1797582D1*
X3568621Y1796417D1*
X3559621Y1797623D1*
X3551240Y1801118D1*
X3544049Y1806662D1*
X3538537Y1813878D1*
X3535082Y1822276D1*
X3533917Y1831281D1*
X3534799Y1837864D1*
X3534583Y1837937D1*
X3527549Y1835061D1*
X3518541Y1833918D1*
X3509544Y1835144D1*
X3501171Y1838658D1*
X3493992Y1844219D1*
X3488498Y1851448D1*
X3485061Y1859853D1*
X3483918Y1868861D1*
X3485144Y1877858D1*
X3488658Y1886231D1*
X3494219Y1893409D1*
X3501448Y1898904D1*
X3509853Y1902340D1*
X3518861Y1903484D1*
X3527858Y1902257D1*
X3536231Y1898744D1*
X3543409Y1893183D1*
X3548904Y1885954D1*
X3552340Y1877549D1*
X3553484Y1868701D1*
X3552600Y1862042D1*
X2032812Y1274413D2*
X2031778Y1273071D1*
X2028283Y1264690D1*
X2027078Y1255690D1*
X2028242Y1246685D1*
X2031698Y1238288D1*
X2037209Y1231071D1*
X2044400Y1225527D1*
X2052781Y1222033D1*
X2061781Y1220827D1*
X2070786Y1221991D1*
X2079183Y1225447D1*
X2086400Y1230958D1*
X2091944Y1238149D1*
X2095438Y1246530D1*
X2096644Y1255610D1*
X2095480Y1264536D1*
X2092024Y1272933D1*
X2086513Y1280149D1*
X2079322Y1285693D1*
X2070941Y1289188D1*
X2061941Y1290394D1*
X2052936Y1289229D1*
X2047778Y1287107D1*
X2047750Y1287398D1*
X2048784Y1288740D1*
X2052278Y1297121D1*
X2053484Y1306201D1*
X2052320Y1315126D1*
X2048864Y1323523D1*
X2043353Y1330740D1*
X2036162Y1336284D1*
X2027781Y1339778D1*
X2018781Y1340984D1*
X2009776Y1339820D1*
X2001378Y1336364D1*
X1994162Y1330853D1*
X1988618Y1323662D1*
X1985123Y1315281D1*
X1985073Y1314903D1*
X1985013Y1314850D1*
X1984776Y1314820D1*
X1976378Y1311364D1*
X1969162Y1305853D1*
X1963618Y1298662D1*
X1960123Y1290281D1*
X1958917Y1281281D1*
X1960082Y1272276D1*
X1963537Y1263878D1*
X1969049Y1256662D1*
X1976240Y1251118D1*
X1984621Y1247623D1*
X1993621Y1246417D1*
X2002626Y1247582D1*
X2011023Y1251037D1*
X2018240Y1256549D1*
X2023784Y1263740D1*
X2027278Y1272121D1*
X2027329Y1272502D1*
X2027389Y1272551D1*
X2027626Y1272582D1*
X2032784Y1274705D1*
X2339780Y1365870D2*
X2336285Y1357489D1*
X2330741Y1350298D1*
X2323524Y1344787D1*
X2315127Y1341331D1*
X2306122Y1340167D1*
X2297122Y1341373D1*
X2288741Y1344867D1*
X2281550Y1350411D1*
X2276039Y1357628D1*
X2272583Y1366025D1*
X2271419Y1375030D1*
X2272625Y1384030D1*
X2276119Y1392411D1*
X2281663Y1399602D1*
X2288880Y1405113D1*
X2297277Y1408569D1*
X2306282Y1409734D1*
X2315282Y1408528D1*
X2323663Y1405033D1*
X2330854Y1399489D1*
X2336365Y1392272D1*
X2339821Y1383875D1*
X2340986Y1374950D1*
X2339780Y1365870D1*
X839778Y1140870D2*
X836284Y1132489D1*
X830740Y1125298D1*
X823523Y1119787D1*
X815126Y1116331D1*
X806121Y1115167D1*
X797121Y1116373D1*
X788740Y1119867D1*
X781549Y1125411D1*
X776037Y1132628D1*
X772582Y1141025D1*
X771417Y1150030D1*
X772623Y1159030D1*
X776118Y1167411D1*
X781662Y1174602D1*
X788878Y1180113D1*
X797276Y1183569D1*
X806281Y1184734D1*
X815281Y1183528D1*
X823662Y1180033D1*
X830853Y1174489D1*
X836364Y1167272D1*
X839820Y1158875D1*
X840984Y1149950D1*
X839778Y1140870D1*
X4135528Y1191755D2*
X4138882Y1196693D1*
X4144139Y1199510D1*
X4147244Y1199902D1*
X4292224Y1199905D1*
X4292215Y2579626D1*
X3238696D1*
X3240711Y2576226D1*
X3244098Y2567788D1*
X3246157Y2558932D1*
X3246840Y2549950D1*
X3246131Y2540800D1*
X3244046Y2531950D1*
X3240635Y2523522D1*
X3235978Y2515713D1*
X3230183Y2508706D1*
X3223386Y2502666D1*
X3215747Y2497735D1*
X3207445Y2494027D1*
X3198674Y2491631D1*
X3189640Y2490601D1*
X3180555Y2490962D1*
X3171631Y2492706D1*
X3163078Y2495792D1*
X3155096Y2500147D1*
X3147873Y2505669D1*
X3141578Y2512229D1*
X3137525Y2518009D1*
X3135852Y2515536D1*
X3134017Y2513090D1*
X3132057Y2510741D1*
X3129980Y2508497D1*
X3127789Y2506363D1*
X3125492Y2504344D1*
X3123094Y2502446D1*
X3120601Y2500674D1*
X3118021Y2499033D1*
X3115359Y2497526D1*
X3112623Y2496159D1*
X3109821Y2494935D1*
X3106959Y2493856D1*
X3104045Y2492926D1*
X3101088Y2492147D1*
X3098094Y2491522D1*
X3095072Y2491052D1*
X3092030Y2490737D1*
X3088976Y2490580D1*
X3085918D1*
X3082863Y2490738D1*
X3079821Y2491052D1*
X3076799Y2491523D1*
X3073806Y2492149D1*
X3070848Y2492928D1*
X3067935Y2493858D1*
X3065073Y2494937D1*
X3062271Y2496162D1*
X3059535Y2497530D1*
X3056874Y2499036D1*
X3054293Y2500678D1*
X3051801Y2502450D1*
X3049403Y2504348D1*
X3047106Y2506367D1*
X3044916Y2508502D1*
X3042838Y2510746D1*
X3040879Y2513095D1*
X3039044Y2515541D1*
X3037365Y2518039D1*
X3035978Y2515713D1*
X3030183Y2508706D1*
X3023386Y2502666D1*
X3015747Y2497735D1*
X3007445Y2494027D1*
X2998674Y2491631D1*
X2989640Y2490601D1*
X2980555Y2490962D1*
X2971631Y2492706D1*
X2963078Y2495792D1*
X2955096Y2500147D1*
X2947873Y2505669D1*
X2941578Y2512229D1*
X2937525Y2518009D1*
X2937365Y2518039D1*
X2935978Y2515713D1*
X2930183Y2508706D1*
X2923386Y2502666D1*
X2915747Y2497735D1*
X2907445Y2494027D1*
X2898674Y2491631D1*
X2889640Y2490601D1*
X2880555Y2490962D1*
X2871631Y2492706D1*
X2863078Y2495792D1*
X2855096Y2500147D1*
X2847873Y2505669D1*
X2841578Y2512229D1*
X2837525Y2518009D1*
X2837365Y2518039D1*
X2835978Y2515713D1*
X2830183Y2508706D1*
X2823386Y2502666D1*
X2815747Y2497735D1*
X2807445Y2494027D1*
X2798674Y2491631D1*
X2789640Y2490601D1*
X2780555Y2490962D1*
X2771631Y2492706D1*
X2763078Y2495792D1*
X2755096Y2500147D1*
X2747873Y2505669D1*
X2741578Y2512229D1*
X2737525Y2518009D1*
X2737365Y2518039D1*
X2735978Y2515713D1*
X2730183Y2508706D1*
X2723386Y2502666D1*
X2715747Y2497735D1*
X2707445Y2494027D1*
X2698674Y2491631D1*
X2689640Y2490601D1*
X2680555Y2490962D1*
X2671631Y2492706D1*
X2663078Y2495792D1*
X2655096Y2500147D1*
X2647873Y2505669D1*
X2641578Y2512229D1*
X2636357Y2519674D1*
X2632334Y2527828D1*
X2629603Y2536501D1*
X2628228Y2545489D1*
X2628241Y2554581D1*
X2629642Y2563565D1*
X2632398Y2572230D1*
X2636076Y2579633D1*
X2605273Y2579626D1*
X432185Y2579622D1*
X432193Y1199902D1*
X577153D1*
X581525Y1199117D1*
X586457Y1195764D1*
X589274Y1190507D1*
X589665Y1187402D1*
Y1037023D1*
X588881Y1032649D1*
X585527Y1027717D1*
X580271Y1024900D1*
X577165Y1024508D1*
X432185Y1024503D1*
X432179Y865256D1*
X852756D1*
X858548Y863833D1*
X863021Y859889D1*
X865157Y854315D1*
X865256Y852694D1*
X865250Y432185D1*
X3859154Y432179D1*
X3859162Y819021D1*
X3852626Y816331D1*
X3843621Y815167D1*
X3834621Y816373D1*
X3826240Y819867D1*
X3819049Y825411D1*
X3813537Y832628D1*
X3811975Y836425D1*
X3811426Y836976D1*
X3807489Y838618D1*
X3800298Y844162D1*
X3794787Y851378D1*
X3794459Y852174D1*
X3794221Y852400D1*
X3787010Y855406D1*
X3779819Y860951D1*
X3774308Y868167D1*
X3772070Y873604D1*
X3771610Y874087D1*
X3766740Y876118D1*
X3759549Y881662D1*
X3754037Y888878D1*
X3750582Y897276D1*
X3749417Y906281D1*
X3750623Y915281D1*
X3754118Y923662D1*
X3759662Y930853D1*
X3766878Y936364D1*
X3775276Y939820D1*
X3784281Y940984D1*
X3793281Y939778D1*
X3801662Y936284D1*
X3808853Y930740D1*
X3814364Y923523D1*
X3816601Y918086D1*
X3817062Y917603D1*
X3821932Y915573D1*
X3829123Y910028D1*
X3834634Y902812D1*
X3834962Y902016D1*
X3835200Y901790D1*
X3842411Y898784D1*
X3849602Y893240D1*
X3855113Y886023D1*
X3856676Y882226D1*
X3857225Y881675D1*
X3861162Y880033D1*
X3868353Y874489D1*
X3873864Y867272D1*
X3874691Y865263D1*
X3917421Y865256D1*
X4292224Y865261D1*
X4292217Y1024508D1*
X4147256D1*
X4142885Y1025293D1*
X4137953Y1028646D1*
X4135136Y1033903D1*
X4134744Y1037008D1*
Y1187386D1*
X3087450Y2549950D2*
D17*
Y2490596D1*
D25*
X3187450Y2549950D3*
X3087450D3*
X2987450D3*
X2887450D3*
X2787450D3*
X2687450D3*
D36*
X499951Y2515576D3*
D3*
X4221826D3*
D3*
X499951Y937451D3*
D3*
M02*
