G04 DipTrace 4.0.0.4*
G04 4 - Bottom.gbr*
%MOIN*%
G04 #@! TF.FileFunction,Copper,L4,Bot*
G04 #@! TF.Part,Single*
G04 #@! TA.AperFunction,CopperBalancing*
%ADD15C,0.007874*%
%ADD16C,0.011811*%
G04 #@! TA.AperFunction,Conductor*
%ADD17C,0.03937*%
G04 #@! TA.AperFunction,ComponentPad*
%ADD22C,0.045354*%
%ADD25R,0.070866X0.255906*%
G04 #@! TA.AperFunction,ComponentPad*
%ADD26R,0.066929X0.066929*%
%ADD28C,0.066929*%
%ADD37R,0.023622X0.11811*%
G04 #@! TA.AperFunction,ViaPad*
%ADD38C,0.017717*%
%FSLAX26Y26*%
G04*
G70*
G90*
G75*
G01*
G04 Bottom*
%LPD*%
X2274950Y843701D2*
D15*
Y806201D1*
X2212450Y743701D1*
Y549951D1*
X724950Y1181201D2*
D17*
Y1156201D1*
Y1131201D1*
Y1106201D1*
Y1081201D1*
Y1056202D1*
X912450Y868702D1*
Y768701D1*
D16*
X918701D1*
X912450Y762450D1*
D17*
Y549951D1*
X724950Y1081201D2*
D3*
Y1106201D2*
D3*
Y1131201D2*
D3*
Y1156201D2*
D3*
X3896825Y2028740D2*
D16*
Y2149951D1*
X2312450Y549951D2*
D17*
Y731199D1*
X2337451Y756201D1*
X2387451D1*
X2412450Y731202D1*
Y549951D1*
X2534325Y806201D2*
D15*
Y803076D1*
X2612450Y724951D1*
Y549951D1*
X2609325Y759325D2*
Y849951D1*
X2587451Y871825D1*
X1471825Y1506201D2*
X1496825Y1531201D1*
Y1697996D1*
X1440576Y1754245D1*
X2203076Y2053076D2*
X2678076D1*
X2821825Y2196825D1*
X3740576D1*
X3796825Y2140576D1*
Y2028740D1*
X1171825Y2065576D2*
X1034325D1*
X996825Y2103076D1*
X765576D1*
X1171825Y2065576D2*
X1718701D1*
X1724950Y2071825D1*
X1840576D1*
X1843701Y2068701D1*
X2256201Y1981202D2*
X2681202D1*
X2849951Y2149951D1*
X3615575D1*
X3646825Y2118701D1*
Y2028740D1*
X1112451Y2090575D2*
X1103077Y2081201D1*
X1043701D1*
X996825Y2128076D1*
X721824D1*
X1112451Y2090575D2*
X1646824D1*
X1668701Y2112451D1*
X1787450D1*
X1790576Y2109325D1*
X2203076Y2003076D2*
X2678076D1*
X2840576Y2165576D1*
X3659325D1*
X3696825Y2128076D1*
Y2028740D1*
X1049950Y2106201D2*
X1003075Y2153076D1*
X765576D1*
X1049950Y2106201D2*
X1053075Y2109325D1*
X1634325D1*
X1681201Y2156201D1*
X1840576D1*
X1846825Y2149951D1*
X2256201Y2031201D2*
X2681201D1*
X2831201Y2181201D1*
X3696825D1*
X3746825Y2131201D1*
Y2028740D1*
X1112450Y549951D2*
Y711927D1*
X1057067Y767310D1*
X1428075Y1537450D2*
X1426625Y1536000D1*
Y1696825D1*
X1821825Y1756201D2*
X1993701D1*
X2321825Y1428076D1*
X3421827D1*
X3446825Y1453075D1*
Y1658661D1*
X1212450Y549951D2*
Y693701D1*
X1418701Y899951D1*
X1353076Y2153076D2*
X1653076D1*
X1674950Y2174950D1*
X1868702D1*
X1953076Y2090576D1*
X2273253D1*
X1312450Y549951D2*
Y731199D1*
X1478076Y896825D1*
X1306201Y2174950D2*
X1649950D1*
X1665576Y2190576D1*
X1874950D1*
X1959325Y2106201D1*
X2228631D1*
X2253568Y2131138D1*
Y2146785D1*
X1259325Y2196825D2*
X1649950D1*
X1659325Y2206201D1*
X1887451D1*
X1968701Y2124951D1*
X2206202D1*
X1212450Y2218701D2*
X1649951D1*
X1653076Y2221825D1*
X1893701D1*
X1974950Y2140576D1*
X2188442D1*
X2214198Y2166332D1*
Y2180327D1*
X721824Y1924950D2*
X949951D1*
X1074950Y1799951D1*
X1912451D1*
X1928076Y1815576D1*
X765576Y1953075D2*
X946825D1*
X1049950Y1849950D1*
X1693701D1*
X1699951Y1856201D1*
X1865575D1*
X765576Y2053076D2*
X990576D1*
X1053076Y1990576D1*
X1843701D1*
X1846825Y1993701D1*
X721825Y2028076D2*
X993699D1*
X1046825Y1974950D1*
X1893701D1*
X721824Y1978076D2*
X946825D1*
X1031201Y1893701D1*
X1799950D1*
X1362450Y1556201D2*
X1112451D1*
X962451Y1706201D1*
Y1737450D1*
X949951Y1749950D1*
X765576D1*
X1806201Y1559325D2*
X1937451D1*
X2315576Y1181201D1*
X3465576D1*
X3796825Y1512450D1*
Y1658661D1*
X1165576Y2240576D2*
X1896825D1*
X1981509Y2155892D1*
X2164867D1*
X2168642Y2159667D1*
X1118701Y2262450D2*
X1896827D1*
X1987451Y2171825D1*
X2124949D1*
X2174950Y2221827D1*
X1318701Y1587450D2*
X1106202D1*
X981201Y1712451D1*
Y1743699D1*
X949950Y1774950D1*
X721825D1*
X1859165Y1580243D2*
X1938408D1*
X2321825Y1196825D1*
X3440576D1*
X3746825Y1503075D1*
Y1658661D1*
X1274950Y1618701D2*
X1099950D1*
X999950Y1718701D1*
Y1749950D1*
X949950Y1799950D1*
X765576D1*
X1778076Y1599950D2*
X1940575D1*
X2328075Y1212450D1*
X3415575D1*
X3696825Y1493701D1*
Y1658661D1*
X1231201Y1649950D2*
X1093702D1*
X1018701Y1724951D1*
Y1756199D1*
X949950Y1824950D1*
X721825D1*
X1828075Y1618701D2*
X1943701D1*
X2334325Y1228076D1*
X3390576D1*
X3646825Y1484325D1*
Y1658661D1*
X1187451Y1681202D2*
X1087449D1*
X1037450Y1731201D1*
Y1762450D1*
X949950Y1849950D1*
X765576D1*
X1749950Y1640576D2*
X1943701D1*
X2203076Y1381201D1*
X3487451D1*
X3596825Y1490575D1*
Y1658661D1*
X1143702Y1712451D2*
X1081201D1*
X1056201Y1737451D1*
Y1768699D1*
X949950Y1874950D1*
X721825D1*
X1824950Y1681201D2*
X1865576D1*
X1890576Y1656201D1*
X1949950D1*
X2209325Y1396825D1*
X3465576D1*
X3546825Y1478075D1*
Y1658661D1*
X1099951Y1743701D2*
Y1749949D1*
X949950Y1899950D1*
X765576D1*
X1903076Y1718701D2*
X2009324D1*
X2315575Y1412450D1*
X3443701D1*
X3496825Y1465575D1*
Y1658661D1*
X1259325Y2046825D2*
X1028076D1*
X996825Y2078076D1*
X721824D1*
X1259325Y2046825D2*
X1718701D1*
X1734325Y2031201D1*
X1812450D1*
X2203076Y1953075D2*
X2678076D1*
X2859327Y2134325D1*
X3524951D1*
X3546825Y2112451D1*
Y2028740D1*
X1710091Y1836688D2*
X1709327Y1837451D1*
X1934325D1*
X2228076Y1543701D1*
X2340576D1*
X2568701Y1771825D1*
X3265576D1*
X3296825Y1740576D1*
Y1658661D1*
X2112450Y549951D2*
Y756202D1*
X1981201Y887451D1*
X1746825Y1874950D2*
X1918701D1*
X2228075Y1565576D1*
X2287451D1*
X2340576D1*
X2562451Y1787451D1*
X3318701D1*
X3346825Y1759327D1*
Y1658661D1*
X2012450Y549951D2*
Y774953D1*
X1940576Y846827D1*
X1709325Y1918701D2*
X1896825D1*
X2221825Y1593701D1*
X2340576D1*
X2549951Y1803076D1*
X3349950D1*
X3396825Y1756201D1*
Y1658661D1*
X1912450Y549951D2*
Y784327D1*
X1874951Y821825D1*
Y846827D1*
X1746825Y1956201D2*
X1918701D1*
X2068701Y1806201D1*
Y1768701D1*
X2221827Y1615575D1*
X2287451D1*
X2340575D1*
X2543701Y1818701D1*
X3315576D1*
X3446825Y1949950D1*
Y2028740D1*
X1812450Y549951D2*
Y790575D1*
X1846825Y824950D1*
Y887450D1*
X1709327Y2012451D2*
X1884325D1*
X2253076Y1643701D1*
X2340576D1*
X2531201Y1834325D1*
X3296825D1*
X3396825Y1934325D1*
Y2028740D1*
X1712450Y549951D2*
Y698307D1*
X1752558Y738415D1*
Y780684D1*
X1818701Y846827D1*
X2287451Y1665575D2*
X2253076D1*
X1868701Y2049950D1*
X1746825D1*
Y2053076D1*
X2287451Y1665575D2*
X2340575D1*
X2524951Y1849951D1*
X3274951D1*
X3346825Y1921825D1*
Y2028740D1*
X1612450Y549951D2*
Y687450D1*
X1774951Y849951D1*
Y887451D1*
X1773921Y886421D1*
X2340576Y1693701D2*
X2246825D1*
X1849950Y2090576D1*
X1712450D1*
X1710486Y2092541D1*
X2340576Y1693701D2*
X2346825D1*
X2518701Y1865576D1*
X3215576D1*
X3296825Y1946825D1*
Y2028740D1*
X1512450Y549951D2*
Y687450D1*
X1671827Y846827D1*
X1743701D1*
X2287451Y1724950D2*
X2237451D1*
X1831201Y2131201D1*
X1746825D1*
Y2132675D1*
X2287451Y1724950D2*
X2356201D1*
X2512451Y1881201D1*
X3178076D1*
X3246825Y1949950D1*
Y2028740D1*
X1412450Y549951D2*
Y687450D1*
X1609327Y884327D1*
X1699950D1*
X1025556Y1355594D2*
X1062450Y1318701D1*
X1478042D1*
X2012450D1*
X3846825Y1658661D2*
Y1809325D1*
X3943701Y1906201D1*
Y2156202D1*
X3787451Y2312451D1*
X3896825Y1658661D2*
Y1837450D1*
X3959325Y1899950D1*
Y2171825D1*
X3787450Y2343701D1*
X3674950D1*
X765576Y2003076D2*
X996825D1*
X1062450Y1937451D1*
X1846825D1*
X1124950Y1956201D2*
D16*
X1537451D1*
X2293465Y909325D2*
D15*
X2043701D1*
X2006201Y946825D1*
X1134325D1*
X1012450Y824950D1*
Y549951D1*
X2656201Y812451D2*
X2712450Y756202D1*
Y549951D1*
X2512450D2*
Y762451D1*
X2468465Y806437D1*
X3112450Y549951D2*
Y762450D1*
X3196825Y846825D1*
Y878075D1*
X3212451Y893701D1*
X3203076Y1453076D2*
X3193701D1*
X3156201Y1490576D1*
X2946825D1*
X2931201Y1506201D1*
X3212450Y549951D2*
Y793701D1*
X3259325Y840576D1*
Y874951D1*
Y1453076D2*
X3237450D1*
X3184325Y1506201D1*
X3006201D1*
X2990576Y1521825D1*
X2987451D1*
X3312450Y549951D2*
Y881201D1*
X3324950Y893701D1*
X3340575Y909325D1*
X3506201D1*
X3318701Y1453076D2*
X3290575D1*
X3221825Y1521825D1*
X3024950D1*
X2999950Y1546825D1*
X2953076D1*
X2946825Y1553076D1*
X3412450Y549951D2*
Y856202D1*
X3393701Y874951D1*
X3381201Y1453076D2*
X3349951D1*
X3265576Y1537451D1*
X3034325D1*
X3003076Y1568701D1*
X3578076Y1831201D2*
X3531202D1*
X3499951Y1862451D1*
X2812450Y549951D2*
Y721824D1*
X2924951Y834325D1*
Y868702D1*
X2912450Y549951D2*
Y731199D1*
X3040576Y859325D1*
X3065575D1*
X3099950Y893701D1*
X3012450Y549951D2*
Y739072D1*
X3148640Y875262D1*
X3671825Y1056201D2*
Y1049951D1*
X2849951D1*
X2784327Y1115576D1*
X3693701D2*
Y1046825D1*
X3681201Y1034325D1*
X2784327D1*
X2762451Y1056201D1*
X3721825D2*
Y1049950D1*
X3690576Y1018701D1*
X2765576D1*
X2734327Y1049950D1*
Y1115576D1*
X3743701D2*
Y1046825D1*
X3699951Y1003076D1*
X2756201D1*
X2712451Y1046825D1*
Y1056201D1*
X3856201Y1115576D2*
Y1049950D1*
X3746827Y940576D1*
X2712450D1*
X2612450Y1040576D1*
Y1056201D1*
X3812450Y549951D2*
X3824950D1*
Y868699D1*
X3834325Y1056201D2*
Y1049950D1*
X3740576Y956201D1*
X2724951D1*
X2634327Y1046825D1*
Y1115576D1*
X3712450Y549951D2*
Y787450D1*
X3831201Y906201D1*
Y918701D1*
X3806201Y1115576D2*
Y1046825D1*
X3731201Y971825D1*
X2737451D1*
X2662450Y1046827D1*
Y1056201D1*
X3612450Y549951D2*
Y724951D1*
X3756201Y868702D1*
X3784325Y1056201D2*
Y1046825D1*
X3724951Y987451D1*
X2746825D1*
X2684327Y1049950D1*
Y1115576D1*
X3512450Y549951D2*
Y703075D1*
X3728076Y918701D1*
X3774950D1*
X2206201Y1209325D2*
X2024950Y1390576D1*
X3496825Y2028740D2*
Y2112451D1*
X3493701Y2115576D1*
X3596825Y2028740D2*
Y2128076D1*
X3593701Y2131201D1*
X3846825Y2028740D2*
Y2224951D1*
D38*
X2274950Y843701D3*
X724950Y1056202D3*
D3*
X2534325Y806201D3*
X1471825Y1506201D3*
X1440576Y1754245D3*
X1057067Y767310D3*
X1428075Y1537450D3*
X1426625Y1696825D3*
X1418701Y899951D3*
X2273253Y2090576D3*
X1478076Y896825D3*
X2253568Y2146785D3*
X2206202Y2124951D3*
X2214198Y2180327D3*
X2168642Y2159667D3*
X2174950Y2221827D3*
X1710091Y1836688D3*
X1981201Y887451D3*
X1746825Y1874950D3*
X1940576Y846827D3*
X1709325Y1918701D3*
X1874951Y846827D3*
X1746825Y1956201D3*
X1846825Y887450D3*
X1709327Y2012451D3*
X1818701Y846827D3*
X1746825Y2053076D3*
X1773921Y886421D3*
X1710486Y2092541D3*
X1743701Y846827D3*
X1746825Y2132675D3*
X1699950Y884327D3*
X1025556Y1355594D3*
X2012450Y1318701D3*
X1478042D3*
X3787451Y2312451D3*
X3674950Y2343701D3*
X2293465Y909325D3*
X2656201Y812451D3*
X2468465Y806437D3*
X3212451Y893701D3*
X3259325Y874951D3*
X3324950Y893701D3*
X3506201Y909325D3*
X3393701Y874951D3*
X2924951Y868702D3*
X3099950Y893701D3*
X3148640Y875262D3*
X3824950Y868699D3*
X3831201Y918701D3*
X3756201Y868702D3*
X3774950Y918701D3*
X2206201Y1209325D3*
X2024950Y1390576D3*
X3846825Y2224951D3*
X2706201Y2378076D3*
X2693701Y2365576D3*
X2353076Y2353076D3*
X2371825D3*
X2390575D3*
X2681201D3*
X1118701Y2262450D3*
X3543701Y2243701D3*
X1165576Y2240576D3*
X3321825Y2221825D3*
X1212450Y2218701D3*
X1259325Y2196825D3*
X1306201Y2174950D3*
X765576Y2153076D3*
X1353076D3*
X1846825Y2149951D3*
X3896825D3*
X3593701Y2131201D3*
X3896825Y2131202D3*
X721824Y2128076D3*
X1068701D3*
X1540576D3*
X3493701Y2115576D3*
X3896825Y2112450D3*
X1790576Y2109325D3*
X1824951D3*
X1049950Y2106201D3*
X765576Y2103076D3*
X1112451Y2090575D3*
X721824Y2078076D3*
X1843701Y2068701D3*
X1171825Y2065576D3*
X765576Y2053076D3*
X2203076D3*
X2915576Y2049950D3*
X2934325D3*
X2953076D3*
X1259325Y2046825D3*
X3078076Y2043701D3*
X1812450Y2031201D3*
X1965576D3*
X2256201D3*
X3090576D3*
X721825Y2028076D3*
X1546825D3*
X4046825D3*
X1084325Y2018701D3*
X3103076D3*
X1293701Y2015576D3*
X1399950D3*
X2074951D3*
X1493701Y2009325D3*
X1512451D3*
X1531201D3*
X765576Y2003076D3*
X2203076D3*
X1846825Y1993701D3*
X2256201Y1981202D3*
X721824Y1978076D3*
X984325D3*
X1893701Y1974950D3*
X765576Y1953075D3*
X2203076D3*
X3546825Y1946825D3*
X3646825D3*
X2946825Y1943701D3*
X1846825Y1937451D3*
X2993701Y1934325D3*
X721824Y1924950D3*
X2981201Y1921825D3*
X1090576Y1915576D3*
X2968701Y1909327D3*
X4046825Y1909325D3*
X3131201Y1906201D3*
X765576Y1899950D3*
X3009325D3*
X1799950Y1893701D3*
X1871825D3*
X721825Y1874950D3*
X1968701D3*
X3646825Y1871825D3*
X3499951Y1862451D3*
X3418701Y1859325D3*
X1865575Y1856201D3*
X765576Y1849950D3*
X3578076Y1831201D3*
X721825Y1824950D3*
X1928076Y1815576D3*
X765576Y1799950D3*
X1546273Y1781201D3*
X2087451D3*
X1140576Y1778076D3*
X721825Y1774950D3*
X3418701Y1774951D3*
X1324951Y1771825D3*
X2099951Y1768701D3*
X534325Y1763406D3*
X553076D3*
X571825D3*
X590576D3*
X609325D3*
X628076D3*
X646825D3*
X665576D3*
X1821825Y1756201D3*
X2112451D3*
X765576Y1749950D3*
X518701Y1744655D3*
X681201D3*
X1099951Y1743701D3*
X3237451Y1740576D3*
X1703076Y1737451D3*
X1943701D3*
X1837451Y1728076D3*
X499951Y1725906D3*
X699951D3*
X2287451Y1724950D3*
X1703076Y1718702D3*
X1903076Y1718701D3*
X1143702Y1712451D3*
X499951Y1707154D3*
X699951D3*
X1703076Y1699950D3*
X1373209Y1717640D3*
X2340576Y1693701D3*
X499951Y1688406D3*
X699951D3*
X1187451Y1681202D3*
X1824950Y1681201D3*
X1965576Y1678076D3*
X499951Y1669654D3*
X699951D3*
X2287451Y1665575D3*
X1771825Y1659325D3*
X1843701D3*
X3096825Y1653075D3*
X3115576D3*
X3134327D3*
X1231201Y1649950D3*
X2340576Y1643701D3*
X1749950Y1640576D3*
X3140576Y1621825D3*
X1274950Y1618701D3*
X1828075D3*
X2287451Y1615575D3*
X2078076Y1612451D3*
X2962451Y1606201D3*
X1778076Y1599950D3*
X2078076Y1593701D3*
X2340576D3*
X1318701Y1587450D3*
X1859165Y1580243D3*
X2078076Y1574950D3*
X3003076Y1568701D3*
X2287451Y1565576D3*
X1806201Y1559325D3*
X1362450Y1556201D3*
X3068563Y1556226D3*
X2946825Y1553076D3*
X2340576Y1543701D3*
X1524950Y1537451D3*
X1709325D3*
X1921825Y1534327D3*
X2987451Y1521825D3*
X843701Y1518701D3*
X1018701D3*
X2931201Y1506201D3*
X1524950Y1499950D3*
X1709325D3*
X1884325D3*
X3203076Y1453076D3*
X3259325D3*
X3318701D3*
X3381201D3*
X1084487Y1447394D3*
X1202756Y1446913D3*
X1301281Y1446782D3*
X1418701Y1446825D3*
X578075Y1393699D3*
X599950D3*
X621825D3*
X871825Y1374950D3*
X890576D3*
X909325D3*
X578075Y1371828D3*
X599950D3*
X621825D3*
X2966945Y1356169D3*
X3026356Y1355993D3*
X3144579D3*
X3361118D3*
X3242895Y1355819D3*
X3420457D3*
X2412451Y1353076D3*
X2431201D3*
X2615576D3*
X2470459Y1351280D3*
X578075Y1349953D3*
X599950D3*
X621825D3*
X2412450Y1334325D3*
X2431201D3*
X2615576D3*
X2470459Y1332529D3*
X2849950Y1331201D3*
X2874950D3*
X2899950D3*
X599950Y1328077D3*
X2274950Y1318701D3*
X2293701D3*
X2312450D3*
X2615576Y1315576D3*
X2470459Y1313780D3*
X2343701Y1312450D3*
X599950Y1303076D3*
Y1278076D3*
X2318701Y1271825D3*
X578075Y1256201D3*
X599950D3*
X621825D3*
X2390576Y1253076D3*
X578075Y1234327D3*
X599950D3*
X621825D3*
X578075Y1212450D3*
X599950D3*
X621825D3*
X2246825Y1199950D3*
X724950Y1181201D3*
X618699Y1168701D3*
X2831201Y1159325D3*
X2849951D3*
X2868701D3*
X724950Y1156201D3*
X3143913Y1152500D3*
X3360601Y1152438D3*
X3410403Y1152378D3*
X3243276Y1152075D3*
X2968701Y1149950D3*
X3024950D3*
X724950Y1131201D3*
X2349950Y1121825D3*
X2534325D3*
X2587451D3*
X2446825Y1115576D3*
X2634327D3*
X2684327D3*
X2734327D3*
X2784327D3*
X3693701D3*
X3743701D3*
X3806201D3*
X3856201D3*
X724950Y1106201D3*
X618701Y1093701D3*
X2315576Y1084325D3*
X724950Y1081201D3*
X2262451D3*
X768702Y1118699D3*
X868701Y1074950D3*
X2412451D3*
X2899950Y1068701D3*
X1301228Y1060854D3*
X1419606Y1059920D3*
X1084325Y1059325D3*
X1202597Y1059007D3*
X2612450Y1056201D3*
X2662450D3*
X2712451D3*
X2762451D3*
X3671825D3*
X3721825D3*
X3784325D3*
X3834325D3*
X2412451Y1049950D3*
X679091Y1026045D3*
X2412451Y1024950D3*
X618699Y1012451D3*
X453076Y1009325D3*
X2356201Y1003076D3*
X2534325D3*
X1140576Y999951D3*
X1253076Y999950D3*
X1362451D3*
X2412451D3*
X716592Y988545D3*
X874950Y968701D3*
X1006201Y1049951D3*
X2412451Y974951D3*
X754092Y951045D3*
X918701Y924950D3*
X1018701Y949951D3*
X2412451D3*
X618701Y943701D3*
X2412451Y924950D3*
X791592Y913545D3*
X962451Y881201D3*
X2412451Y899950D3*
X2359325Y896825D3*
X2534325Y887451D3*
X2631201D3*
X2724951D3*
X453076Y878076D3*
X829092Y876043D3*
X618701Y874950D3*
X962451Y818701D3*
X2412451Y874950D3*
X2831201D3*
X2884325D3*
X2587451Y871825D3*
X3453076Y862451D3*
X3515576D3*
X1631201Y856201D3*
X2193701Y793701D3*
X2412451Y849950D3*
X1140576Y837451D3*
X3337450D3*
X3393701D3*
X3581201D3*
X2787451Y831201D3*
X2962450D3*
X3040576D3*
X2412451Y824950D3*
X2874951Y815576D3*
X1287451Y812451D3*
X1033088Y806346D3*
X2362451Y799950D3*
X2412451D3*
X2193701Y856201D3*
X2578076Y790576D3*
X1861988Y781980D3*
X2743701Y781201D3*
X2912451D3*
X3162451D3*
X3265576D3*
X3362451D3*
X3440576D3*
X1966524Y780736D3*
X3743701Y774951D3*
X2287807Y766499D3*
X1782654Y766113D3*
X2824951Y765576D3*
X1462147Y765308D3*
X3756201Y762451D3*
X2609325Y759325D3*
X2659325D3*
X2084126Y750247D3*
X3768701Y749950D3*
X1412451Y746825D3*
X1230697Y742539D3*
X1711160Y739185D3*
X3781201Y737451D3*
X1616517Y732824D3*
X2131201Y731201D3*
X2193701D3*
X3793701Y724950D3*
X1271825Y715576D3*
X1353076Y712451D3*
X2043681Y711668D3*
X1941324Y711357D3*
X1844255Y707934D3*
X1757442Y706789D3*
X1562451Y706201D3*
X2762451D3*
X2862451D3*
X2962451D3*
X3062451D3*
X3162451D3*
X3262451D3*
X3362451D3*
X3462451D3*
X3562451D3*
X3662451D3*
X1462751Y705329D3*
X2262451Y704076D3*
X1159325Y703076D3*
X2565576D3*
X2659325D3*
X2362451Y702436D3*
X2462451D3*
X2162451Y701646D3*
X1071390Y698987D3*
X1664898Y698870D3*
X443701Y1243701D3*
Y1393701D3*
Y1543701D3*
Y1693701D3*
Y1843701D3*
Y1993701D3*
Y2143701D3*
Y2293701D3*
Y2443701D3*
X593701D3*
X743701D3*
X893701D3*
X1043701D3*
X1193701D3*
X1343701D3*
X1493701D3*
Y2293701D3*
X1343701D3*
X1193701D3*
X1043701D3*
X893701D3*
X743701D3*
X593701D3*
Y2143701D3*
Y1993701D3*
Y1843701D3*
X1643701Y2293701D3*
X1793701D3*
X1943701D3*
X4293701Y2443701D3*
X4143701D3*
X3993701D3*
X3843701D3*
X3693701D3*
X3543701D3*
X3393701D3*
X3243701D3*
X3093701D3*
X2943701D3*
X2793701D3*
X2643701D3*
X2493701D3*
X2343701D3*
X4293701Y2293701D3*
X4143701D3*
X3993701D3*
X4293701Y2143701D3*
X4143701D3*
Y1993701D3*
X4293701D3*
Y1843701D3*
Y1693701D3*
Y1543701D3*
X4143701D3*
X4293701Y1393701D3*
X4143701D3*
X4293701Y1243701D3*
X4143701D3*
X3993701Y1393701D3*
Y1243701D3*
Y1093701D3*
X4143701D3*
X3993701Y943701D3*
X4143701D3*
X4293701D3*
X3643701Y793701D3*
Y1093701D3*
X3493701D3*
X3593701Y1193701D3*
X3643701Y1293701D3*
X3743701Y1393701D3*
X3843701Y1493701D3*
X3943701Y1593701D3*
Y1693701D3*
X4018701D3*
X3231201Y843701D3*
X3193701Y918701D3*
X2593701Y981201D3*
X2131201Y793701D3*
Y856201D3*
X1993701Y1081201D3*
Y968701D3*
Y918701D3*
X2256201Y931201D3*
X1981201Y856201D3*
X2031201Y806201D3*
X1518701Y906201D3*
X1668701D3*
X1518701Y981201D3*
X1668701D3*
X1518701Y1056201D3*
X1718701D3*
X1518701Y1118701D3*
X1781201D3*
X1856201Y1206201D3*
X1518701D3*
Y1268701D3*
X1931201Y1256201D3*
X2018701D3*
X1393701Y1243701D3*
X1231201D3*
X1056201D3*
X906201D3*
X806201Y1381201D3*
X843701Y1668701D3*
X943701D3*
X1518701Y1343701D3*
X1618701D3*
X1718701D3*
X1818701D3*
X1918701D3*
X2006201D3*
X1518701Y1443701D3*
X1618701D3*
X1718701D3*
X1818701D3*
X1918701D3*
X1968701Y1493701D3*
X2043701Y1418701D3*
X1618701Y1268701D3*
X1718701D3*
X1818701D3*
X1718701Y1206201D3*
X1618701D3*
X2968701Y1256201D3*
X3106201D3*
X3243701D3*
X3368701D3*
X3468701Y1356201D3*
X2818701Y1256201D3*
X3406201Y1518701D3*
X3618701Y1743701D3*
X3793701D3*
X3306201Y1918701D3*
X2293701Y1506201D3*
X2393701D3*
X2481201D3*
X2568701D3*
X2656201D3*
X2743701D3*
X2456201Y1593701D3*
X2568701D3*
X2656201D3*
X2531201Y1681201D3*
X2656201D3*
X2793701Y1568701D3*
Y1643701D3*
Y1743701D3*
X2656201D3*
X2793701Y2018701D3*
Y1918701D3*
X2693701D3*
X2593701D3*
X2506201D3*
X2431201D3*
X2381201D3*
X2256201D3*
X1464550Y1916154D3*
X2093701Y1918701D3*
X2206201Y1843701D3*
X2293701D3*
X2318701Y1768701D3*
X2418701Y1843701D3*
X2306201Y2218701D3*
X2381201D3*
X2306201Y2156201D3*
X2381201D3*
X2306201Y2093701D3*
X2381201D3*
X2443701Y2218701D3*
Y2156201D3*
Y2093701D3*
X2518701D3*
Y2156201D3*
Y2218701D3*
X2593701D3*
Y2093701D3*
Y2156201D3*
X2668701Y2218701D3*
Y2093701D3*
Y2156201D3*
X2743701Y2218701D3*
Y2156201D3*
X2718701Y1631201D3*
X2731201Y1681201D3*
X1107860Y1829169D3*
X1138593Y1871287D3*
X1546801Y1872657D3*
X1464066Y1826772D3*
X1461068Y1535343D3*
X1460692Y1692415D3*
X1793701Y1818701D3*
X831201Y1012451D3*
X943701Y999950D3*
X787451Y1056201D3*
X862451Y818701D3*
Y699951D3*
X962451Y712451D3*
X3649950Y918701D3*
X781201Y1212451D3*
X674950Y1249950D3*
X531201Y1243701D3*
X668701Y1362451D3*
X487451D3*
X1618701Y1118701D3*
X1593701Y981201D3*
X1618701Y1056201D3*
X1593701Y906201D3*
X3862451Y837450D3*
X3862450Y706201D3*
X1124950Y1956201D3*
X1537451D3*
X2856201Y2268701D3*
X2968701D3*
X3074950D3*
X3395366Y2113583D3*
X424413Y2482021D2*
D15*
X4299999D1*
X424413Y2474278D2*
X1656498D1*
X1662149D2*
X1756500D1*
X1762150D2*
X1856501D1*
X1862152D2*
X1956503D1*
X1962146D2*
X2056505D1*
X2062147D2*
X2109170D1*
X2209485D2*
X4299999D1*
X424413Y2466535D2*
X1631931D1*
X1686724D2*
X1731932D1*
X1786726D2*
X1831926D1*
X1886720D2*
X1931927D1*
X1986721D2*
X2031929D1*
X2086723D2*
X2109170D1*
X2209485D2*
X4299999D1*
X424413Y2458793D2*
X1622596D1*
X1696059D2*
X1722589D1*
X1796061D2*
X1822591D1*
X1896062D2*
X1922592D1*
X1996056D2*
X2022594D1*
X2096058D2*
X2109170D1*
X2209485D2*
X4299999D1*
X424413Y2451050D2*
X483985D1*
X515918D2*
X1616628D1*
X1702018D2*
X1716630D1*
X1802020D2*
X1816632D1*
X1902022D2*
X1916633D1*
X2002023D2*
X2016635D1*
X2102017D2*
X2109170D1*
X2209485D2*
X4205865D1*
X4237790D2*
X4299999D1*
X424413Y2443307D2*
X472336D1*
X527568D2*
X1612707D1*
X1705940D2*
X1712708D1*
X1805942D2*
X1812710D1*
X1905943D2*
X1912711D1*
X2005945D2*
X2012705D1*
X2209485D2*
X4194208D1*
X4249439D2*
X4299999D1*
X424413Y2435564D2*
X466161D1*
X533742D2*
X1610323D1*
X2209485D2*
X4188033D1*
X4255614D2*
X4299999D1*
X424413Y2427822D2*
X462578D1*
X537325D2*
X1609254D1*
X2209485D2*
X4184450D1*
X4259197D2*
X4299999D1*
X424413Y2420079D2*
X460848D1*
X539056D2*
X1609408D1*
X2209485D2*
X4182719D1*
X4260935D2*
X4299999D1*
X424413Y2412336D2*
X460717D1*
X539186D2*
X1610808D1*
X2209485D2*
X4182589D1*
X4261058D2*
X4299999D1*
X424413Y2404593D2*
X462178D1*
X537725D2*
X1613560D1*
X1705094D2*
X1713562D1*
X1805088D2*
X1813563D1*
X1905090D2*
X1913557D1*
X2005091D2*
X2013559D1*
X2105093D2*
X2109170D1*
X2209485D2*
X4184050D1*
X4259597D2*
X4299999D1*
X424413Y2396850D2*
X465430D1*
X534473D2*
X1617943D1*
X1700704D2*
X1717945D1*
X1800705D2*
X1817946D1*
X1900707D2*
X1917948D1*
X2000708D2*
X2017942D1*
X2100710D2*
X2109170D1*
X2209485D2*
X2689263D1*
X2723134D2*
X4187302D1*
X4256345D2*
X4299999D1*
X424413Y2389108D2*
X471090D1*
X528813D2*
X1624587D1*
X1694068D2*
X1724589D1*
X1794061D2*
X1824590D1*
X1894063D2*
X1924584D1*
X1994064D2*
X2024586D1*
X2094066D2*
X2109170D1*
X2209485D2*
X2683242D1*
X2729162D2*
X4192970D1*
X4250685D2*
X4299999D1*
X424413Y2381365D2*
X481325D1*
X518579D2*
X1635352D1*
X1683302D2*
X1735346D1*
X1783304D2*
X1835348D1*
X1883305D2*
X1935349D1*
X1983299D2*
X2035351D1*
X2083301D2*
X2109170D1*
X2209485D2*
X2673838D1*
X2731531D2*
X4203204D1*
X4240450D2*
X4299999D1*
X424413Y2373622D2*
X2338462D1*
X2405190D2*
X2666587D1*
X2731346D2*
X4299999D1*
X424413Y2365879D2*
X2331088D1*
X2412556D2*
X2659213D1*
X2728539D2*
X3663150D1*
X3686755D2*
X4299999D1*
X424413Y2358136D2*
X2328050D1*
X2415601D2*
X2656175D1*
X2721673D2*
X3654045D1*
X3801851D2*
X4299999D1*
X424413Y2350394D2*
X2327674D1*
X2415978D2*
X2655799D1*
X2714053D2*
X3650324D1*
X3809610D2*
X4299999D1*
X424413Y2342651D2*
X2329827D1*
X2413825D2*
X2657952D1*
X2704448D2*
X3649424D1*
X3817353D2*
X4299999D1*
X424413Y2334908D2*
X2335463D1*
X2408189D2*
X2663588D1*
X2698820D2*
X3651016D1*
X3825088D2*
X4299999D1*
X424413Y2327165D2*
X3655729D1*
X3832832D2*
X4299999D1*
X424413Y2319423D2*
X3669286D1*
X3680619D2*
X3762905D1*
X3840575D2*
X4299999D1*
X424413Y2311680D2*
X3761913D1*
X3848318D2*
X4299999D1*
X424413Y2303937D2*
X3763413D1*
X3856062D2*
X4299999D1*
X424413Y2296194D2*
X3767980D1*
X3863805D2*
X4299999D1*
X424413Y2288451D2*
X3780560D1*
X3871548D2*
X4299999D1*
X424413Y2280709D2*
X1101180D1*
X1905382D2*
X3790349D1*
X3879291D2*
X4299999D1*
X424413Y2272966D2*
X1095490D1*
X1915163D2*
X3798085D1*
X3887035D2*
X4299999D1*
X424413Y2265223D2*
X1093306D1*
X1922906D2*
X3805828D1*
X3894778D2*
X4299999D1*
X424413Y2257480D2*
X1093652D1*
X1930649D2*
X3813571D1*
X3902521D2*
X4299999D1*
X424413Y2249738D2*
X1096659D1*
X1938385D2*
X3821314D1*
X3910265D2*
X4299999D1*
X424413Y2241995D2*
X1103956D1*
X1133444D2*
X1140066D1*
X1946128D2*
X2159789D1*
X2190107D2*
X3306674D1*
X3336984D2*
X3828073D1*
X3918008D2*
X4299999D1*
X424413Y2234252D2*
X1140843D1*
X1953872D2*
X2152738D1*
X2197159D2*
X3299615D1*
X3344035D2*
X3823091D1*
X3925751D2*
X4299999D1*
X424413Y2226509D2*
X1144411D1*
X1961615D2*
X2149847D1*
X2200058D2*
X3296724D1*
X3346927D2*
X3821322D1*
X3933495D2*
X4299999D1*
X424413Y2218766D2*
X1153061D1*
X1178097D2*
X1186903D1*
X1969358D2*
X2143042D1*
X2200311D2*
X3296462D1*
X3347188D2*
X3822060D1*
X3941230D2*
X4299999D1*
X424413Y2211024D2*
X1188117D1*
X1977102D2*
X2135299D1*
X2198020D2*
X2807174D1*
X3755222D2*
X3825559D1*
X3948973D2*
X4299999D1*
X424413Y2203281D2*
X1192285D1*
X1984845D2*
X2127555D1*
X2192145D2*
X2204119D1*
X2224279D2*
X2799430D1*
X3762973D2*
X3826197D1*
X3956717D2*
X4299999D1*
X424413Y2195538D2*
X1202904D1*
X1221996D2*
X1233808D1*
X1992588D2*
X2119812D1*
X2177512D2*
X2193869D1*
X2234530D2*
X2791687D1*
X3770716D2*
X3826197D1*
X3964460D2*
X4299999D1*
X424413Y2187795D2*
X1235477D1*
X2169769D2*
X2189801D1*
X2238597D2*
X2783944D1*
X3778452D2*
X3826197D1*
X3972203D2*
X4299999D1*
X424413Y2180052D2*
X1240321D1*
X2183487D2*
X2188648D1*
X2239751D2*
X2776200D1*
X3786195D2*
X3826197D1*
X3978170D2*
X4299999D1*
X424413Y2172310D2*
X749187D1*
X1008744D2*
X1255039D1*
X1263611D2*
X1280791D1*
X2238413D2*
X2768457D1*
X3793938D2*
X3826197D1*
X3979947D2*
X4299999D1*
X424413Y2164567D2*
X742851D1*
X1020432D2*
X1282929D1*
X2271593D2*
X2760721D1*
X3801682D2*
X3826197D1*
X3979954D2*
X4299999D1*
X424413Y2156824D2*
X740314D1*
X1028175D2*
X1288542D1*
X2276991D2*
X2752978D1*
X3809425D2*
X3826197D1*
X3979954D2*
X4299999D1*
X424413Y2149081D2*
X707918D1*
X735729D2*
X740352D1*
X1035918D2*
X1327850D1*
X2279013D2*
X2745235D1*
X3815538D2*
X3826197D1*
X3979954D2*
X4299999D1*
X424413Y2141339D2*
X700121D1*
X1043662D2*
X1330480D1*
X2278513D2*
X2737492D1*
X3817437D2*
X3826197D1*
X3979954D2*
X4299999D1*
X424413Y2133596D2*
X696899D1*
X1051405D2*
X1337001D1*
X1866204D2*
X1881208D1*
X2275314D2*
X2729748D1*
X3817453D2*
X3826197D1*
X3979954D2*
X4299999D1*
X424413Y2125853D2*
X696376D1*
X1865397D2*
X1888951D1*
X2273484D2*
X2722005D1*
X3817453D2*
X3826197D1*
X3979954D2*
X4299999D1*
X424413Y2118110D2*
X698368D1*
X1873140D2*
X1896694D1*
X2269324D2*
X2714262D1*
X3817453D2*
X3826197D1*
X3979954D2*
X4299999D1*
X424413Y2110367D2*
X703727D1*
X1880883D2*
X1904438D1*
X2288925D2*
X2706518D1*
X2864220D2*
X3468706D1*
X3817453D2*
X3826197D1*
X3979954D2*
X4299999D1*
X424413Y2102625D2*
X717776D1*
X725871D2*
X740029D1*
X1888627D2*
X1912181D1*
X2295676D2*
X2698775D1*
X2856477D2*
X3218322D1*
X3979954D2*
X4299999D1*
X424413Y2094882D2*
X702850D1*
X1896370D2*
X1919924D1*
X2298429D2*
X2691032D1*
X2848734D2*
X3218322D1*
X3979954D2*
X4299999D1*
X424413Y2087139D2*
X697991D1*
X1904113D2*
X1927667D1*
X2298567D2*
X2683288D1*
X2840990D2*
X3218322D1*
X3979954D2*
X4299999D1*
X424413Y2079396D2*
X696307D1*
X1911856D2*
X1935403D1*
X2296138D2*
X2675545D1*
X2833247D2*
X3218322D1*
X3979954D2*
X4299999D1*
X424413Y2071654D2*
X697122D1*
X1919600D2*
X1946314D1*
X2825504D2*
X2902861D1*
X2965790D2*
X3218322D1*
X3979954D2*
X4299999D1*
X424413Y2063911D2*
X700728D1*
X1927343D2*
X2180020D1*
X2817760D2*
X2894334D1*
X2974318D2*
X3218322D1*
X3979954D2*
X4299999D1*
X424413Y2056168D2*
X709494D1*
X734153D2*
X740221D1*
X1935086D2*
X2177721D1*
X2810017D2*
X2890820D1*
X2977832D2*
X3218322D1*
X3979954D2*
X4299999D1*
X424413Y2048425D2*
X706926D1*
X1942822D2*
X1946999D1*
X1984153D2*
X2177967D1*
X2802274D2*
X2890074D1*
X2978578D2*
X3218322D1*
X3979954D2*
X4299999D1*
X424413Y2040682D2*
X699721D1*
X1989243D2*
X2180851D1*
X2794530D2*
X2891827D1*
X2976825D2*
X3218322D1*
X3979954D2*
X4299999D1*
X424413Y2032940D2*
X696753D1*
X1991066D2*
X2187871D1*
X2218274D2*
X2230709D1*
X2786787D2*
X2896794D1*
X2971857D2*
X3218322D1*
X3979954D2*
X4299999D1*
X424413Y2025197D2*
X696445D1*
X1047306D2*
X1246481D1*
X1272170D2*
X1473904D1*
X1550997D2*
X1687310D1*
X1990389D2*
X2191155D1*
X2214998D2*
X2231386D1*
X2779044D2*
X2914065D1*
X2917089D2*
X2951566D1*
X2954583D2*
X3218322D1*
X3979954D2*
X4299999D1*
X424413Y2017454D2*
X698667D1*
X1055050D2*
X1469521D1*
X1555380D2*
X1684288D1*
X1986959D2*
X2182127D1*
X2771308D2*
X3218322D1*
X3979954D2*
X4299999D1*
X424413Y2009711D2*
X704427D1*
X1981538D2*
X2178429D1*
X2763565D2*
X3218322D1*
X3979954D2*
X4299999D1*
X424413Y2001969D2*
X714523D1*
X729124D2*
X740052D1*
X1989282D2*
X2177552D1*
X2755822D2*
X3218322D1*
X3979954D2*
X4299999D1*
X424413Y1994226D2*
X702266D1*
X1997025D2*
X2179159D1*
X2748078D2*
X3218322D1*
X3979954D2*
X4299999D1*
X424413Y1986483D2*
X697745D1*
X2004768D2*
X2183904D1*
X2740335D2*
X3218322D1*
X3979954D2*
X4299999D1*
X424413Y1978740D2*
X696284D1*
X2012512D2*
X2197706D1*
X2208447D2*
X2230771D1*
X2732592D2*
X3218322D1*
X3979954D2*
X4299999D1*
X424413Y1970997D2*
X697306D1*
X2020255D2*
X2185203D1*
X2724849D2*
X3218322D1*
X3979954D2*
X4299999D1*
X424413Y1963255D2*
X701197D1*
X2027998D2*
X2179713D1*
X2717105D2*
X3218322D1*
X3979954D2*
X4299999D1*
X424413Y1955512D2*
X710832D1*
X732815D2*
X740144D1*
X998240D2*
X1015543D1*
X2035741D2*
X2177644D1*
X2709362D2*
X2980094D1*
X3007306D2*
X3218322D1*
X3979954D2*
X4299999D1*
X424413Y1947769D2*
X711417D1*
X732230D2*
X740598D1*
X1005983D2*
X1023286D1*
X2043485D2*
X2178098D1*
X2701619D2*
X2972113D1*
X3015287D2*
X3215792D1*
X3317453D2*
X3326197D1*
X3467336D2*
X3923069D1*
X3979954D2*
X4299999D1*
X424413Y1940026D2*
X701389D1*
X1013726D2*
X1031029D1*
X2051228D2*
X2181243D1*
X2693875D2*
X2963623D1*
X3018586D2*
X3208056D1*
X3316253D2*
X3326197D1*
X3464798D2*
X3923069D1*
X3979954D2*
X4299999D1*
X424413Y1932283D2*
X697383D1*
X1021470D2*
X1038773D1*
X2058964D2*
X2188833D1*
X2217313D2*
X2957964D1*
X3019171D2*
X3200313D1*
X3311132D2*
X3326197D1*
X3458009D2*
X3923069D1*
X3979954D2*
X4299999D1*
X424413Y1924541D2*
X696276D1*
X1029213D2*
X1046508D1*
X2066707D2*
X2948375D1*
X3017241D2*
X3192570D1*
X3303389D2*
X3320692D1*
X3450265D2*
X3923069D1*
X3979954D2*
X4299999D1*
X424413Y1916798D2*
X697652D1*
X1036956D2*
X1683850D1*
X2074450D2*
X2944300D1*
X3011981D2*
X3184826D1*
X3295645D2*
X3312948D1*
X3442522D2*
X3923069D1*
X3979954D2*
X4299999D1*
X424413Y1909055D2*
X702051D1*
X2082193D2*
X2943154D1*
X3003207D2*
X3177083D1*
X3287902D2*
X3305205D1*
X3434779D2*
X3917710D1*
X3979954D2*
X4299999D1*
X424413Y1901312D2*
X713654D1*
X729993D2*
X740060D1*
X2089937D2*
X2944484D1*
X2995864D2*
X3169340D1*
X3280159D2*
X3297462D1*
X3427035D2*
X3909966D1*
X3979954D2*
X4299999D1*
X424413Y1893570D2*
X704711D1*
X2097680D2*
X2495973D1*
X3272416D2*
X3289718D1*
X3419292D2*
X3902223D1*
X3978901D2*
X4299999D1*
X424413Y1885827D2*
X698790D1*
X2105423D2*
X2488230D1*
X3264672D2*
X3281975D1*
X3411549D2*
X3490990D1*
X3508913D2*
X3894480D1*
X3974049D2*
X4299999D1*
X424413Y1878084D2*
X696476D1*
X2113167D2*
X2480486D1*
X3256937D2*
X3274232D1*
X3403806D2*
X3479956D1*
X3519947D2*
X3886736D1*
X3966306D2*
X4299999D1*
X424413Y1870341D2*
X696707D1*
X1058410D2*
X1685242D1*
X2120910D2*
X2472743D1*
X3249193D2*
X3266489D1*
X3396062D2*
X3475688D1*
X3524215D2*
X3878993D1*
X3958562D2*
X4299999D1*
X424413Y1862598D2*
X699575D1*
X2128653D2*
X2465000D1*
X3388327D2*
X3474404D1*
X3528652D2*
X3871250D1*
X3950827D2*
X4299999D1*
X424413Y1854856D2*
X706564D1*
X2136397D2*
X2457257D1*
X3380583D2*
X3475596D1*
X3536395D2*
X3569961D1*
X3586192D2*
X3863507D1*
X3943083D2*
X4299999D1*
X424413Y1847113D2*
X709986D1*
X733661D2*
X740191D1*
X2144140D2*
X2449513D1*
X3372840D2*
X3479725D1*
X3597842D2*
X3855763D1*
X3935340D2*
X4299999D1*
X424413Y1839370D2*
X700905D1*
X2151883D2*
X2441770D1*
X3365097D2*
X3490191D1*
X3602240D2*
X3848020D1*
X3927597D2*
X4299999D1*
X424413Y1831627D2*
X697191D1*
X2159626D2*
X2434027D1*
X3357353D2*
X3501925D1*
X3603624D2*
X3840277D1*
X3919853D2*
X4299999D1*
X424413Y1823885D2*
X696299D1*
X1079864D2*
X1688102D1*
X2167370D2*
X2426283D1*
X3349610D2*
X3509668D1*
X3602524D2*
X3832533D1*
X3917454D2*
X4299999D1*
X424413Y1816142D2*
X697891D1*
X2175105D2*
X2418540D1*
X3365735D2*
X3517496D1*
X3598526D2*
X3827404D1*
X3917454D2*
X4299999D1*
X424413Y1808399D2*
X702620D1*
X2182849D2*
X2410804D1*
X3373478D2*
X3567631D1*
X3588522D2*
X3826197D1*
X3917454D2*
X4299999D1*
X424413Y1800656D2*
X716238D1*
X727417D2*
X740037D1*
X2190592D2*
X2403061D1*
X3381222D2*
X3826197D1*
X3917454D2*
X4299999D1*
X424413Y1792913D2*
X703989D1*
X2198335D2*
X2395318D1*
X3388965D2*
X3826197D1*
X3917454D2*
X4299999D1*
X424413Y1785171D2*
X521725D1*
X678173D2*
X698483D1*
X2206079D2*
X2387575D1*
X3396708D2*
X3826197D1*
X3917454D2*
X4299999D1*
X424413Y1777428D2*
X513128D1*
X686778D2*
X696399D1*
X1101325D2*
X1431082D1*
X1450073D2*
X1808281D1*
X2213822D2*
X2379831D1*
X3404444D2*
X3826197D1*
X3917454D2*
X4299999D1*
X424413Y1769685D2*
X509583D1*
X690315D2*
X696837D1*
X1109061D2*
X1420424D1*
X1460723D2*
X1800268D1*
X2221565D2*
X2372088D1*
X3412172D2*
X3826197D1*
X3917454D2*
X4299999D1*
X424413Y1761942D2*
X500179D1*
X1117488D2*
X1416249D1*
X1464898D2*
X1698621D1*
X1707532D2*
X1796947D1*
X2229308D2*
X2364345D1*
X3416608D2*
X3826197D1*
X3917454D2*
X4299999D1*
X424413Y1754199D2*
X495066D1*
X736129D2*
X740390D1*
X1123171D2*
X1415026D1*
X1469474D2*
X1684050D1*
X1722103D2*
X1796354D1*
X2237052D2*
X2356601D1*
X3417454D2*
X3826197D1*
X3917454D2*
X4299999D1*
X424413Y1746457D2*
X485346D1*
X714552D2*
X740275D1*
X1125347D2*
X1416279D1*
X1477217D2*
X1679221D1*
X1726932D2*
X1798269D1*
X2244795D2*
X2274386D1*
X2300513D2*
X2348858D1*
X2572182D2*
X3262098D1*
X3417454D2*
X3826197D1*
X3917454D2*
X4299999D1*
X424413Y1738714D2*
X477972D1*
X543531D2*
X550399D1*
X555749D2*
X569146D1*
X574504D2*
X587901D1*
X593251D2*
X606648D1*
X612006D2*
X625402D1*
X630752D2*
X644149D1*
X649499D2*
X656375D1*
X721934D2*
X742720D1*
X1124993D2*
X1420501D1*
X1484960D2*
X1677560D1*
X1728593D2*
X1803506D1*
X2564439D2*
X3269841D1*
X3417454D2*
X3826197D1*
X3917454D2*
X4299999D1*
X424413Y1730971D2*
X474927D1*
X540124D2*
X659774D1*
X724979D2*
X748880D1*
X1160926D2*
X1431328D1*
X1492696D2*
X1678390D1*
X1727763D2*
X1880777D1*
X2556695D2*
X3218322D1*
X3925328D2*
X4299999D1*
X424413Y1723228D2*
X474542D1*
X531904D2*
X667994D1*
X725356D2*
X941824D1*
X1166785D2*
X1442747D1*
X1500439D2*
X1677944D1*
X1728209D2*
X1877940D1*
X2548952D2*
X3218322D1*
X3925328D2*
X4299999D1*
X424413Y1715486D2*
X475842D1*
X524061D2*
X675845D1*
X724057D2*
X941824D1*
X1169069D2*
X1409559D1*
X1443691D2*
X1450490D1*
X1508182D2*
X1677737D1*
X1728416D2*
X1877732D1*
X2541209D2*
X3218322D1*
X3925328D2*
X4299999D1*
X424413Y1707743D2*
X474404D1*
X525499D2*
X674407D1*
X725494D2*
X941824D1*
X1168800D2*
X1403607D1*
X1449642D2*
X1458233D1*
X1514895D2*
X1678782D1*
X1727371D2*
X1880085D1*
X2533465D2*
X3218322D1*
X3925328D2*
X4299999D1*
X424413Y1700000D2*
X475458D1*
X524446D2*
X675453D1*
X724449D2*
X942816D1*
X1204356D2*
X1401277D1*
X1451972D2*
X1465969D1*
X1517356D2*
X1677521D1*
X1728624D2*
X1808042D1*
X1872717D2*
X1886052D1*
X2525722D2*
X3218322D1*
X3925328D2*
X4299999D1*
X424413Y1692257D2*
X474704D1*
X525199D2*
X674699D1*
X725202D2*
X947545D1*
X1210400D2*
X1401500D1*
X1451749D2*
X1473712D1*
X1517456D2*
X1678752D1*
X1727401D2*
X1802006D1*
X1883367D2*
X1944484D1*
X1986667D2*
X2006915D1*
X2517979D2*
X3218322D1*
X3925328D2*
X4299999D1*
X424413Y1684514D2*
X474712D1*
X525191D2*
X674707D1*
X725195D2*
X955288D1*
X1212784D2*
X1404353D1*
X1448897D2*
X1476196D1*
X1517456D2*
X1682927D1*
X1723226D2*
X1799622D1*
X1891110D2*
X1940878D1*
X1990274D2*
X2014658D1*
X2510235D2*
X3218322D1*
X3925328D2*
X4299999D1*
X424413Y1676772D2*
X475442D1*
X524461D2*
X675445D1*
X724456D2*
X963031D1*
X1212607D2*
X1405991D1*
X1447251D2*
X1476196D1*
X1517456D2*
X1693569D1*
X1712584D2*
X1799799D1*
X1898854D2*
X1940063D1*
X1991096D2*
X2022402D1*
X2502492D2*
X3088846D1*
X3142302D2*
X3218322D1*
X3925328D2*
X4299999D1*
X424413Y1669029D2*
X474412D1*
X525491D2*
X674407D1*
X725494D2*
X970775D1*
X1247779D2*
X1405991D1*
X1447251D2*
X1476196D1*
X1517456D2*
X1802598D1*
X1989412D2*
X2030145D1*
X2494757D2*
X3077097D1*
X3154052D2*
X3218322D1*
X3925328D2*
X4299999D1*
X424413Y1661286D2*
X475857D1*
X524046D2*
X675860D1*
X724049D2*
X978518D1*
X1254007D2*
X1405991D1*
X1447251D2*
X1476196D1*
X1517456D2*
X1735585D1*
X1764319D2*
X1809442D1*
X1984568D2*
X2037888D1*
X2487013D2*
X3072675D1*
X3158481D2*
X3218322D1*
X3925328D2*
X4299999D1*
X424413Y1653543D2*
X480356D1*
X519547D2*
X680359D1*
X719543D2*
X986261D1*
X1256491D2*
X1405991D1*
X1447251D2*
X1476196D1*
X1517456D2*
X1728064D1*
X1981454D2*
X2045632D1*
X2479270D2*
X3071276D1*
X3159873D2*
X3218322D1*
X3925328D2*
X4299999D1*
X424413Y1645801D2*
X492513D1*
X507390D2*
X692508D1*
X707393D2*
X994005D1*
X1256398D2*
X1405991D1*
X1447251D2*
X1476196D1*
X1517456D2*
X1724958D1*
X1989197D2*
X2053375D1*
X2471527D2*
X3072368D1*
X3158788D2*
X3218322D1*
X3925328D2*
X4299999D1*
X424413Y1638058D2*
X1001748D1*
X1291186D2*
X1405991D1*
X1447251D2*
X1476196D1*
X1517456D2*
X1724527D1*
X1996940D2*
X2061118D1*
X2463783D2*
X3076343D1*
X3154805D2*
X3218322D1*
X3925328D2*
X4299999D1*
X424413Y1630315D2*
X1009491D1*
X1297606D2*
X1405991D1*
X1447251D2*
X1476196D1*
X1517456D2*
X1726626D1*
X2004684D2*
X2068861D1*
X2456040D2*
X3086278D1*
X3144870D2*
X3218322D1*
X3925328D2*
X4299999D1*
X424413Y1622572D2*
X1017234D1*
X1300198D2*
X1405991D1*
X1447251D2*
X1476196D1*
X1517456D2*
X1732163D1*
X2012427D2*
X2076605D1*
X2448297D2*
X3218322D1*
X3925328D2*
X4299999D1*
X424413Y1614829D2*
X1024970D1*
X1300198D2*
X1405991D1*
X1447251D2*
X1476196D1*
X1517456D2*
X1757492D1*
X2020170D2*
X2084348D1*
X2440553D2*
X3218322D1*
X3925328D2*
X4299999D1*
X424413Y1607087D2*
X1032713D1*
X1334577D2*
X1405991D1*
X1447251D2*
X1476196D1*
X1517456D2*
X1753578D1*
X2027914D2*
X2092091D1*
X2432810D2*
X3218322D1*
X3925328D2*
X4299999D1*
X424413Y1599344D2*
X1040457D1*
X1341206D2*
X1405991D1*
X1447251D2*
X1476196D1*
X1517456D2*
X1752532D1*
X2035657D2*
X2099835D1*
X2425067D2*
X3218322D1*
X3925328D2*
X4299999D1*
X424413Y1591601D2*
X1048200D1*
X1343905D2*
X1405991D1*
X1447251D2*
X1476196D1*
X1517456D2*
X1753978D1*
X2043400D2*
X2107578D1*
X2417324D2*
X2992866D1*
X3013288D2*
X3218322D1*
X3925328D2*
X4299999D1*
X424413Y1583858D2*
X1055943D1*
X1343989D2*
X1405991D1*
X1447251D2*
X1476196D1*
X1517456D2*
X1758468D1*
X2051143D2*
X2115321D1*
X2409580D2*
X2982709D1*
X3023446D2*
X3218322D1*
X3925328D2*
X4299999D1*
X424413Y1576115D2*
X1063686D1*
X1341505D2*
X1346943D1*
X1377954D2*
X1405991D1*
X1447251D2*
X1476196D1*
X1517456D2*
X1770572D1*
X2058887D2*
X2123057D1*
X2401837D2*
X2936956D1*
X2956694D2*
X2978664D1*
X3027491D2*
X3426199D1*
X3617457D2*
X3626194D1*
X3817453D2*
X4299999D1*
X424413Y1568373D2*
X1071430D1*
X1384805D2*
X1405991D1*
X1447251D2*
X1476196D1*
X1517456D2*
X1782360D1*
X2066630D2*
X2130800D1*
X2394094D2*
X2926560D1*
X2967090D2*
X2977526D1*
X3032250D2*
X3426199D1*
X3617457D2*
X3626194D1*
X3817453D2*
X4299999D1*
X424413Y1560630D2*
X1079173D1*
X1387604D2*
X1405991D1*
X1447251D2*
X1476196D1*
X1517456D2*
X1780683D1*
X2074373D2*
X2138543D1*
X2386350D2*
X2922454D1*
X3039994D2*
X3426199D1*
X3617457D2*
X3626194D1*
X3817453D2*
X4299999D1*
X424413Y1552887D2*
X1086916D1*
X1387781D2*
X1405991D1*
X1448228D2*
X1476196D1*
X1517456D2*
X1781498D1*
X2082117D2*
X2146287D1*
X2378615D2*
X2921278D1*
X3278829D2*
X3426199D1*
X3617457D2*
X3626194D1*
X3817453D2*
X4299999D1*
X424413Y1545144D2*
X1094660D1*
X1385397D2*
X1403746D1*
X1452403D2*
X1476196D1*
X1517456D2*
X1785112D1*
X2089852D2*
X2154030D1*
X2370872D2*
X2922577D1*
X3286733D2*
X3426199D1*
X3617457D2*
X3626194D1*
X3817453D2*
X4299999D1*
X424413Y1537402D2*
X1105317D1*
X1379361D2*
X1402523D1*
X1453626D2*
X1474181D1*
X1517456D2*
X1793901D1*
X1818506D2*
X1930528D1*
X2097596D2*
X2161773D1*
X2365312D2*
X2926868D1*
X3294477D2*
X3426199D1*
X3617457D2*
X3626194D1*
X3817453D2*
X4299999D1*
X424413Y1529659D2*
X1403784D1*
X1452372D2*
X1463101D1*
X1517394D2*
X1938271D1*
X2105339D2*
X2169517D1*
X2361760D2*
X2922477D1*
X3302220D2*
X3426199D1*
X3617457D2*
X3626194D1*
X3817453D2*
X4299999D1*
X424413Y1521916D2*
X1408006D1*
X1515149D2*
X1946015D1*
X2113082D2*
X2177260D1*
X2256837D2*
X2328012D1*
X2353140D2*
X2911274D1*
X2951127D2*
X2961901D1*
X3309963D2*
X3426199D1*
X3617457D2*
X3626194D1*
X3817453D2*
X4299999D1*
X424413Y1514173D2*
X1418832D1*
X1437316D2*
X1447591D1*
X1508644D2*
X1953758D1*
X2120825D2*
X2185003D1*
X2264580D2*
X2906967D1*
X2955433D2*
X2963116D1*
X3317707D2*
X3426199D1*
X3617457D2*
X3626194D1*
X3817453D2*
X4299999D1*
X424413Y1506430D2*
X1446276D1*
X1500900D2*
X1961501D1*
X2128569D2*
X2192747D1*
X2272323D2*
X2905653D1*
X3325450D2*
X3426199D1*
X3617457D2*
X3626194D1*
X3816522D2*
X4299999D1*
X424413Y1498688D2*
X1447445D1*
X1496210D2*
X1969237D1*
X2136312D2*
X2200490D1*
X2280067D2*
X2906814D1*
X3333185D2*
X3426199D1*
X3617457D2*
X3626194D1*
X3811909D2*
X4299999D1*
X424413Y1490945D2*
X1451528D1*
X1492119D2*
X1976980D1*
X2144055D2*
X2208233D1*
X2287802D2*
X2910904D1*
X3340929D2*
X3426199D1*
X3617457D2*
X3624595D1*
X3804165D2*
X4299999D1*
X424413Y1483202D2*
X1461855D1*
X1481792D2*
X1984723D1*
X2151799D2*
X2215976D1*
X2295545D2*
X2921231D1*
X3348672D2*
X3426199D1*
X3796430D2*
X4299999D1*
X424413Y1475459D2*
X1992467D1*
X2159542D2*
X2223720D1*
X2303289D2*
X2933181D1*
X3356415D2*
X3369820D1*
X3392579D2*
X3426199D1*
X3788686D2*
X4299999D1*
X424413Y1467717D2*
X2000210D1*
X2167285D2*
X2231463D1*
X2311032D2*
X3150208D1*
X3401960D2*
X3426199D1*
X3780943D2*
X4299999D1*
X424413Y1459974D2*
X2007953D1*
X2175028D2*
X2239199D1*
X2318775D2*
X3157952D1*
X3405774D2*
X3424876D1*
X3773200D2*
X4299999D1*
X424413Y1452231D2*
X2015697D1*
X2182772D2*
X2246942D1*
X2326519D2*
X3165695D1*
X3406735D2*
X3417133D1*
X3765457D2*
X4299999D1*
X424413Y1444488D2*
X2023440D1*
X2190515D2*
X2254685D1*
X3757713D2*
X4299999D1*
X424413Y1436745D2*
X2031183D1*
X2198258D2*
X2262428D1*
X3749970D2*
X4299999D1*
X424413Y1429003D2*
X2038926D1*
X2205994D2*
X2270172D1*
X3742227D2*
X4299999D1*
X424413Y1421260D2*
X2046670D1*
X2213737D2*
X2277915D1*
X3734483D2*
X4299999D1*
X424413Y1413517D2*
X562441D1*
X637465D2*
X2014835D1*
X2035065D2*
X2054413D1*
X3726740D2*
X4299999D1*
X424413Y1405774D2*
X555666D1*
X644232D2*
X2004608D1*
X2045292D2*
X2062156D1*
X3718997D2*
X4299999D1*
X424413Y1398031D2*
X552906D1*
X646993D2*
X862069D1*
X919084D2*
X2000548D1*
X2049352D2*
X2069900D1*
X3711254D2*
X4299999D1*
X424413Y1390289D2*
X552760D1*
X647139D2*
X851596D1*
X929558D2*
X1999403D1*
X2054088D2*
X2077643D1*
X3703510D2*
X4299999D1*
X424413Y1382546D2*
X554967D1*
X644940D2*
X847466D1*
X933679D2*
X2000740D1*
X2061832D2*
X2085378D1*
X3695767D2*
X4299999D1*
X424413Y1374803D2*
X552706D1*
X647200D2*
X846274D1*
X934879D2*
X1009137D1*
X1041970D2*
X2005070D1*
X2069575D2*
X2093122D1*
X3688024D2*
X4299999D1*
X424413Y1367060D2*
X552990D1*
X646916D2*
X847566D1*
X933587D2*
X1002817D1*
X1048291D2*
X2016404D1*
X2077318D2*
X2100865D1*
X3680288D2*
X4299999D1*
X424413Y1359318D2*
X554359D1*
X645539D2*
X851834D1*
X929319D2*
X1000287D1*
X1050828D2*
X2027361D1*
X2085054D2*
X2108608D1*
X2231931D2*
X2387698D1*
X2455955D2*
X2590823D1*
X2640326D2*
X3492966D1*
X3672545D2*
X4299999D1*
X424413Y1351575D2*
X552575D1*
X647323D2*
X862861D1*
X918285D2*
X1000333D1*
X1058425D2*
X2035105D1*
X2092797D2*
X2116352D1*
X2239674D2*
X2386944D1*
X2456709D2*
X2590069D1*
X2641079D2*
X2835086D1*
X2914817D2*
X3485223D1*
X3664801D2*
X4299999D1*
X424413Y1343832D2*
X553290D1*
X646608D2*
X1002978D1*
X1066169D2*
X2042848D1*
X2100541D2*
X2124095D1*
X2247417D2*
X2388690D1*
X2454964D2*
X2591815D1*
X2639334D2*
X2827866D1*
X2922037D2*
X3477480D1*
X3657058D2*
X4299999D1*
X424413Y1336089D2*
X556766D1*
X643133D2*
X1009514D1*
X2030866D2*
X2050591D1*
X2108284D2*
X2131838D1*
X2330871D2*
X2386959D1*
X2456686D2*
X2590084D1*
X2641064D2*
X2824890D1*
X2925013D2*
X3469737D1*
X3649315D2*
X4299999D1*
X424413Y1328346D2*
X565186D1*
X634713D2*
X1023955D1*
X2036049D2*
X2058327D1*
X2116027D2*
X2139582D1*
X2336046D2*
X2387628D1*
X2456017D2*
X2590761D1*
X2640395D2*
X2824567D1*
X2925336D2*
X3462001D1*
X3641572D2*
X4299999D1*
X424413Y1320604D2*
X575551D1*
X624347D2*
X1031698D1*
X2037925D2*
X2066070D1*
X2123770D2*
X2147325D1*
X2337930D2*
X2391050D1*
X2452603D2*
X2590538D1*
X2640610D2*
X2826782D1*
X2923121D2*
X3454258D1*
X3633828D2*
X4299999D1*
X424413Y1312861D2*
X576413D1*
X623486D2*
X1039442D1*
X2037302D2*
X2073814D1*
X2131514D2*
X2155068D1*
X2337299D2*
X2399316D1*
X2444337D2*
X2590177D1*
X2640979D2*
X2832526D1*
X2917377D2*
X3446514D1*
X3626085D2*
X4299999D1*
X424413Y1305118D2*
X574482D1*
X625416D2*
X1047185D1*
X2033942D2*
X2081557D1*
X2139257D2*
X2162811D1*
X2333947D2*
X2592345D1*
X2638811D2*
X3438771D1*
X3618342D2*
X4299999D1*
X424413Y1297375D2*
X575067D1*
X624839D2*
X1464669D1*
X1491419D2*
X1999072D1*
X2025830D2*
X2089300D1*
X2147000D2*
X2170555D1*
X2325827D2*
X2597997D1*
X2633159D2*
X3431028D1*
X3610598D2*
X4299999D1*
X424413Y1289633D2*
X577258D1*
X622640D2*
X2097043D1*
X2154744D2*
X2178298D1*
X2301620D2*
X3423284D1*
X3602855D2*
X4299999D1*
X424413Y1281890D2*
X574698D1*
X625208D2*
X2104787D1*
X2162487D2*
X2186041D1*
X2309363D2*
X3415541D1*
X3595112D2*
X4299999D1*
X424413Y1274147D2*
X560226D1*
X639680D2*
X2112530D1*
X2170230D2*
X2193785D1*
X2317107D2*
X3407798D1*
X3587369D2*
X4299999D1*
X424413Y1266404D2*
X554721D1*
X645178D2*
X2120273D1*
X2177974D2*
X2201520D1*
X2324850D2*
X3400055D1*
X3579625D2*
X4299999D1*
X424413Y1258661D2*
X552644D1*
X647254D2*
X2128017D1*
X2185717D2*
X2209264D1*
X2332586D2*
X3392311D1*
X3571882D2*
X4299999D1*
X424413Y1250919D2*
X553090D1*
X646808D2*
X2135760D1*
X2193460D2*
X2217007D1*
X2340329D2*
X3384568D1*
X3564146D2*
X4299999D1*
X424413Y1243176D2*
X554159D1*
X645739D2*
X2143503D1*
X2201196D2*
X2224750D1*
X3556403D2*
X4299999D1*
X424413Y1235433D2*
X552552D1*
X647354D2*
X2151246D1*
X2208939D2*
X2232493D1*
X3548660D2*
X4299999D1*
X424413Y1227690D2*
X553429D1*
X646470D2*
X2158990D1*
X2223603D2*
X2240237D1*
X3540916D2*
X4299999D1*
X424413Y1219948D2*
X553682D1*
X646216D2*
X2166733D1*
X2229355D2*
X2247980D1*
X3533173D2*
X4299999D1*
X424413Y1212205D2*
X552521D1*
X647377D2*
X706688D1*
X743211D2*
X2174469D1*
X2231584D2*
X2255723D1*
X3525430D2*
X4299999D1*
X424413Y1204462D2*
X553844D1*
X646055D2*
X697229D1*
X752677D2*
X2181135D1*
X2231269D2*
X2263467D1*
X3517687D2*
X4299999D1*
X424413Y1196719D2*
X558165D1*
X641741D2*
X692131D1*
X757767D2*
X2184096D1*
X2228301D2*
X2271210D1*
X3509943D2*
X4299999D1*
X562201Y1188976D2*
X569400D1*
X586753D2*
X591276D1*
X608622D2*
X613153D1*
X630499D2*
X689432D1*
X760466D2*
X2191301D1*
X2221104D2*
X2278953D1*
X3502200D2*
X4162204D1*
X562209Y1181234D2*
X688571D1*
X761327D2*
X2286696D1*
X3494457D2*
X4162204D1*
X562209Y1173491D2*
X688571D1*
X761327D2*
X2294440D1*
X3486713D2*
X4162204D1*
X562209Y1165748D2*
X688571D1*
X761327D2*
X2302345D1*
X3478809D2*
X4162204D1*
X562209Y1158005D2*
X688571D1*
X761327D2*
X2805682D1*
X2894217D2*
X4162204D1*
X562209Y1150262D2*
X688571D1*
X761327D2*
X2807366D1*
X2892533D2*
X4162204D1*
X562209Y1142520D2*
X688571D1*
X761327D2*
X2812225D1*
X2887673D2*
X4162204D1*
X562209Y1134777D2*
X688571D1*
X761327D2*
X2617897D1*
X2650753D2*
X2667902D1*
X2700750D2*
X2717899D1*
X2750754D2*
X2767903D1*
X2800751D2*
X2827158D1*
X2835246D2*
X2845905D1*
X2853993D2*
X2864652D1*
X2872748D2*
X3677275D1*
X3710131D2*
X3727272D1*
X3760128D2*
X3789772D1*
X3822628D2*
X3839777D1*
X3872625D2*
X4162204D1*
X562209Y1127034D2*
X688571D1*
X761327D2*
X2611584D1*
X2657066D2*
X2661589D1*
X2707070D2*
X2711586D1*
X2757067D2*
X2761583D1*
X2807064D2*
X3670962D1*
X3716444D2*
X3720959D1*
X3766441D2*
X3783459D1*
X3828941D2*
X3833456D1*
X3878945D2*
X4162204D1*
X562209Y1119291D2*
X688571D1*
X761327D2*
X2609054D1*
X2809594D2*
X3668432D1*
X3768971D2*
X3780929D1*
X3881475D2*
X4162204D1*
X562209Y1111549D2*
X688571D1*
X761327D2*
X2609108D1*
X2817207D2*
X3668479D1*
X3768925D2*
X3780975D1*
X3881421D2*
X4162204D1*
X562209Y1103806D2*
X688571D1*
X761327D2*
X2611753D1*
X2656904D2*
X2661750D1*
X2706901D2*
X2711755D1*
X2756898D2*
X2761752D1*
X2824950D2*
X3671124D1*
X3716275D2*
X3721128D1*
X3766279D2*
X3783628D1*
X3828779D2*
X3833625D1*
X3878776D2*
X4162204D1*
X562209Y1096063D2*
X688571D1*
X761327D2*
X2613699D1*
X2654959D2*
X2663696D1*
X2704956D2*
X2713700D1*
X2754960D2*
X2768296D1*
X2832686D2*
X3673069D1*
X3714329D2*
X3723074D1*
X3764334D2*
X3785574D1*
X3826834D2*
X3835571D1*
X3876831D2*
X4162204D1*
X562209Y1088320D2*
X688571D1*
X761327D2*
X2613699D1*
X2654959D2*
X2663696D1*
X2704956D2*
X2713700D1*
X2754960D2*
X2782736D1*
X2840429D2*
X3673069D1*
X3714329D2*
X3723074D1*
X3764334D2*
X3785574D1*
X3826834D2*
X3835571D1*
X3876831D2*
X4162204D1*
X562209Y1080577D2*
X688571D1*
X761327D2*
X2607301D1*
X2767602D2*
X2790480D1*
X2848172D2*
X3666679D1*
X3764334D2*
X3779176D1*
X3876831D2*
X4162204D1*
X562209Y1072835D2*
X688571D1*
X761327D2*
X2593314D1*
X2781581D2*
X2798223D1*
X2855916D2*
X3652692D1*
X3876831D2*
X4162204D1*
X562209Y1065092D2*
X688571D1*
X767179D2*
X2588547D1*
X2786349D2*
X2805959D1*
X3876831D2*
X4162204D1*
X562209Y1057349D2*
X688571D1*
X774922D2*
X2586924D1*
X2790155D2*
X2813702D1*
X3876831D2*
X4162204D1*
X562209Y1049606D2*
X689186D1*
X782666D2*
X2587793D1*
X3876831D2*
X4162204D1*
X562209Y1041864D2*
X691585D1*
X790409D2*
X2591469D1*
X3875108D2*
X4162204D1*
X562201Y1034121D2*
X696253D1*
X798152D2*
X2592899D1*
X3869218D2*
X4162204D1*
X424413Y1026378D2*
X703658D1*
X805896D2*
X2597797D1*
X3861475D2*
X4299999D1*
X424413Y1018635D2*
X711393D1*
X813639D2*
X2605540D1*
X3853732D2*
X4299999D1*
X424413Y1010892D2*
X719137D1*
X821382D2*
X2613284D1*
X3845988D2*
X4299999D1*
X424413Y1003150D2*
X726880D1*
X829125D2*
X2621027D1*
X3838253D2*
X4299999D1*
X424413Y995407D2*
X734623D1*
X836869D2*
X2628770D1*
X3830510D2*
X4299999D1*
X424413Y987664D2*
X742367D1*
X844612D2*
X2636513D1*
X3822766D2*
X4299999D1*
X424413Y979921D2*
X750110D1*
X852348D2*
X2644257D1*
X3815023D2*
X4299999D1*
X424413Y972178D2*
X757853D1*
X860091D2*
X2652000D1*
X3807280D2*
X4299999D1*
X424413Y964436D2*
X479564D1*
X520332D2*
X765597D1*
X867834D2*
X1124395D1*
X2016133D2*
X2659743D1*
X3799536D2*
X4299999D1*
X424413Y956693D2*
X470198D1*
X529697D2*
X773340D1*
X875577D2*
X1115344D1*
X2025184D2*
X2667487D1*
X3791793D2*
X4299999D1*
X424413Y948950D2*
X464908D1*
X534996D2*
X781083D1*
X883321D2*
X1107601D1*
X2032927D2*
X2675230D1*
X3784050D2*
X4299999D1*
X424413Y941207D2*
X461901D1*
X538002D2*
X788826D1*
X891064D2*
X1099858D1*
X2040670D2*
X2682973D1*
X3786064D2*
X3820084D1*
X3842321D2*
X4299999D1*
X424413Y933465D2*
X460648D1*
X539256D2*
X796570D1*
X898807D2*
X1092114D1*
X2048414D2*
X2287150D1*
X2299782D2*
X2690709D1*
X3795622D2*
X3810534D1*
X3851871D2*
X4299999D1*
X424413Y925722D2*
X460971D1*
X538933D2*
X804313D1*
X906551D2*
X1084371D1*
X1142071D2*
X1998457D1*
X2312808D2*
X2698506D1*
X3799482D2*
X3806666D1*
X3855739D2*
X4299999D1*
X424413Y917979D2*
X462916D1*
X536987D2*
X812056D1*
X914294D2*
X1076628D1*
X1134328D2*
X1400939D1*
X1436463D2*
X1464415D1*
X1491742D2*
X2006200D1*
X2317453D2*
X3094283D1*
X3105616D2*
X3206787D1*
X3218120D2*
X3319284D1*
X3530190D2*
X3698506D1*
X3800490D2*
X3805659D1*
X3856738D2*
X4299999D1*
X424413Y910236D2*
X466776D1*
X533127D2*
X819800D1*
X922037D2*
X1068885D1*
X1126585D2*
X1395387D1*
X1442014D2*
X1456472D1*
X1499686D2*
X1766342D1*
X1781497D2*
X1836340D1*
X1857307D2*
X1970713D1*
X1991688D2*
X2013943D1*
X2318998D2*
X3080726D1*
X3119172D2*
X3193231D1*
X3231677D2*
X3305728D1*
X3531735D2*
X3690763D1*
X3799013D2*
X3806389D1*
X3855262D2*
X4299999D1*
X424413Y902493D2*
X473381D1*
X526514D2*
X827535D1*
X929781D2*
X1061141D1*
X1118842D2*
X1392396D1*
X1444121D2*
X1453181D1*
X1502969D2*
X1600557D1*
X1717567D2*
X1754293D1*
X1793546D2*
X1826366D1*
X1867281D2*
X1960740D1*
X2001662D2*
X2021687D1*
X2318053D2*
X3076013D1*
X3123886D2*
X3188517D1*
X3236390D2*
X3301014D1*
X3530789D2*
X3683019D1*
X3794461D2*
X3798646D1*
X3851479D2*
X4299999D1*
X424413Y894751D2*
X486515D1*
X513388D2*
X835279D1*
X937524D2*
X1053398D1*
X1111098D2*
X1384653D1*
X1503538D2*
X1590900D1*
X1723203D2*
X1749810D1*
X1798029D2*
X1822376D1*
X1871279D2*
X1956749D1*
X2005653D2*
X2029445D1*
X2314269D2*
X2577297D1*
X2597603D2*
X3072153D1*
X3125478D2*
X3132576D1*
X3164709D2*
X3184650D1*
X3237982D2*
X3243666D1*
X3274984D2*
X3297170D1*
X3527006D2*
X3675276D1*
X3732976D2*
X3767865D1*
X3782035D2*
X3790903D1*
X3848195D2*
X4299999D1*
X424413Y887008D2*
X843022D1*
X943760D2*
X1045662D1*
X1103355D2*
X1376909D1*
X1501600D2*
X1583156D1*
X1725356D2*
X1748380D1*
X1799467D2*
X1821276D1*
X1872371D2*
X1955657D1*
X2010497D2*
X2281944D1*
X2304980D2*
X2567101D1*
X2607799D2*
X2907483D1*
X2942414D2*
X3064409D1*
X3171230D2*
X3178321D1*
X3281743D2*
X3292687D1*
X3349579D2*
X3371281D1*
X3416116D2*
X3494681D1*
X3517717D2*
X3667533D1*
X3725233D2*
X3738737D1*
X3773669D2*
X3783159D1*
X3842413D2*
X4299999D1*
X424413Y879265D2*
X850765D1*
X947228D2*
X1037919D1*
X1095612D2*
X1369166D1*
X1496325D2*
X1575413D1*
X1724979D2*
X1749426D1*
X1798414D2*
X1822668D1*
X1870987D2*
X1957041D1*
X2018232D2*
X2563041D1*
X2611859D2*
X2901769D1*
X2948135D2*
X3056666D1*
X3284496D2*
X3291818D1*
X3345858D2*
X3368528D1*
X3418877D2*
X3659789D1*
X3717490D2*
X3733016D1*
X3848134D2*
X4299999D1*
X424413Y871522D2*
X858508D1*
X948720D2*
X1030176D1*
X1087868D2*
X1361423D1*
X1419123D2*
X1423923D1*
X1481623D2*
X1567670D1*
X1721934D2*
X1741075D1*
X1746325D2*
X1753355D1*
X1795584D2*
X1816078D1*
X1821328D2*
X1826197D1*
X1867457D2*
X1872326D1*
X1877577D2*
X1937948D1*
X1943199D2*
X1961455D1*
X2025976D2*
X2561903D1*
X2616604D2*
X2899562D1*
X2950342D2*
X3023924D1*
X3111752D2*
X3116052D1*
X3224256D2*
X3234016D1*
X3284642D2*
X3291818D1*
X3336753D2*
X3368389D1*
X3425982D2*
X3652046D1*
X3709746D2*
X3730171D1*
X3850341D2*
X4299999D1*
X424413Y863780D2*
X866252D1*
X948827D2*
X1022432D1*
X1080125D2*
X1353679D1*
X1411380D2*
X1416179D1*
X1473880D2*
X1559934D1*
X1617627D2*
X1660728D1*
X1795584D2*
X1799861D1*
X1893794D2*
X1921739D1*
X1959416D2*
X1973143D1*
X2033719D2*
X2259668D1*
X2290232D2*
X2563240D1*
X2624347D2*
X2899893D1*
X2950012D2*
X3016181D1*
X3098880D2*
X3108308D1*
X3171368D2*
X3176199D1*
X3217459D2*
X3236438D1*
X3282212D2*
X3291818D1*
X3333078D2*
X3370812D1*
X3431580D2*
X3644303D1*
X3702003D2*
X3722428D1*
X3850010D2*
X4299999D1*
X857476Y856037D2*
X873995D1*
X948827D2*
X1014689D1*
X1072389D2*
X1345936D1*
X1403636D2*
X1408436D1*
X1466136D2*
X1552191D1*
X1609883D2*
X1652185D1*
X1898723D2*
X1916802D1*
X1964352D2*
X1983770D1*
X2041462D2*
X2252694D1*
X2297206D2*
X2567585D1*
X2628999D2*
X2902884D1*
X2947020D2*
X3008438D1*
X3091136D2*
X3100565D1*
X3165040D2*
X3176199D1*
X3217459D2*
X3238699D1*
X3279959D2*
X3291818D1*
X3333078D2*
X3376932D1*
X3433079D2*
X3636560D1*
X3694260D2*
X3714685D1*
X3847019D2*
X3866928D1*
X857492Y848294D2*
X876071D1*
X948827D2*
X1006946D1*
X1064646D2*
X1338193D1*
X1395893D2*
X1400693D1*
X1458393D2*
X1544447D1*
X1602140D2*
X1644441D1*
X1900461D2*
X1915072D1*
X1967959D2*
X1991505D1*
X2049206D2*
X2249825D1*
X2300075D2*
X2578950D1*
X2629953D2*
X2904322D1*
X2945582D2*
X3000694D1*
X3083393D2*
X3092822D1*
X3150522D2*
X3169447D1*
X3217459D2*
X3238191D1*
X3279959D2*
X3291818D1*
X3333078D2*
X3391512D1*
X3433079D2*
X3628824D1*
X3686517D2*
X3706941D1*
X3845581D2*
X3866936D1*
X857507Y840551D2*
X876071D1*
X948827D2*
X999203D1*
X1056903D2*
X1330450D1*
X1388150D2*
X1392950D1*
X1450650D2*
X1536704D1*
X1594397D2*
X1636706D1*
X1899692D2*
X1915833D1*
X1975702D2*
X1999249D1*
X2056949D2*
X2249602D1*
X2300298D2*
X2588693D1*
X2629953D2*
X2902331D1*
X2945582D2*
X2992951D1*
X3072782D2*
X3085079D1*
X3142779D2*
X3161704D1*
X3216436D2*
X3230448D1*
X3279959D2*
X3291818D1*
X3333078D2*
X3391819D1*
X3433079D2*
X3621081D1*
X3678773D2*
X3699198D1*
X3845581D2*
X3866944D1*
X857515Y832808D2*
X876071D1*
X948827D2*
X993443D1*
X1049160D2*
X1322706D1*
X1380406D2*
X1385206D1*
X1442906D2*
X1528961D1*
X1586661D2*
X1628962D1*
X1896154D2*
X1919378D1*
X1983445D2*
X2006992D1*
X2064692D2*
X2251925D1*
X2297975D2*
X2588693D1*
X2629953D2*
X2641312D1*
X2671091D2*
X2894587D1*
X2945521D2*
X2985208D1*
X3042908D2*
X3077335D1*
X3135036D2*
X3153961D1*
X3211661D2*
X3222712D1*
X3278375D2*
X3291818D1*
X3333078D2*
X3391819D1*
X3433079D2*
X3613337D1*
X3671030D2*
X3691455D1*
X3845581D2*
X3866951D1*
X857530Y825066D2*
X876071D1*
X948827D2*
X991821D1*
X1041416D2*
X1314963D1*
X1372663D2*
X1377471D1*
X1435163D2*
X1521218D1*
X1578918D2*
X1621219D1*
X1678912D2*
X1721213D1*
X1900561D2*
X1927967D1*
X1991189D2*
X2014735D1*
X2072436D2*
X2254324D1*
X2295584D2*
X2451359D1*
X2485568D2*
X2517496D1*
X2551159D2*
X2588693D1*
X2629953D2*
X2634107D1*
X2678296D2*
X2886844D1*
X2943291D2*
X2977464D1*
X3035165D2*
X3069592D1*
X3127292D2*
X3146218D1*
X3203918D2*
X3214969D1*
X3272662D2*
X3291818D1*
X3333078D2*
X3391819D1*
X3433079D2*
X3605594D1*
X3663287D2*
X3683719D1*
X3845581D2*
X3866959D1*
X857546Y817323D2*
X876071D1*
X948827D2*
X991821D1*
X1033673D2*
X1307220D1*
X1364920D2*
X1369727D1*
X1427420D2*
X1513474D1*
X1571174D2*
X1613476D1*
X1671168D2*
X1713477D1*
X1908304D2*
X1941232D1*
X1998932D2*
X2022479D1*
X2080179D2*
X2254324D1*
X2295584D2*
X2445438D1*
X2491496D2*
X2511413D1*
X2557241D2*
X2588693D1*
X2681265D2*
X2879101D1*
X2936801D2*
X2969721D1*
X3027421D2*
X3061849D1*
X3119549D2*
X3138474D1*
X3196174D2*
X3207226D1*
X3264918D2*
X3291818D1*
X3333078D2*
X3391819D1*
X3433079D2*
X3597851D1*
X3655551D2*
X3675976D1*
X3845581D2*
X3866967D1*
X857561Y809580D2*
X876071D1*
X948827D2*
X991821D1*
X1033081D2*
X1299484D1*
X1357177D2*
X1361984D1*
X1419677D2*
X1505731D1*
X1563431D2*
X1605732D1*
X1663433D2*
X1705734D1*
X1916047D2*
X1948975D1*
X2006675D2*
X2030222D1*
X2087922D2*
X2249479D1*
X2295584D2*
X2443116D1*
X2494172D2*
X2509007D1*
X2559648D2*
X2588693D1*
X2687924D2*
X2871357D1*
X2929058D2*
X2961978D1*
X3019678D2*
X3054105D1*
X3111806D2*
X3130731D1*
X3188431D2*
X3199482D1*
X3257175D2*
X3291818D1*
X3333078D2*
X3391819D1*
X3433079D2*
X3590107D1*
X3647808D2*
X3668232D1*
X3845581D2*
X3866975D1*
X857576Y801837D2*
X876071D1*
X948827D2*
X991821D1*
X1033081D2*
X1291741D1*
X1349433D2*
X1354241D1*
X1411933D2*
X1497988D1*
X1555688D2*
X1597989D1*
X1655689D2*
X1697991D1*
X1852563D2*
X1866090D1*
X1923790D2*
X1956718D1*
X2014419D2*
X2037965D1*
X2095665D2*
X2241736D1*
X2295092D2*
X2443346D1*
X2501915D2*
X2509160D1*
X2564415D2*
X2588693D1*
X2695667D2*
X2863614D1*
X2921314D2*
X2954242D1*
X3011935D2*
X3046370D1*
X3104062D2*
X3122988D1*
X3180688D2*
X3193562D1*
X3249439D2*
X3291818D1*
X3333078D2*
X3391819D1*
X3433079D2*
X3582364D1*
X3640064D2*
X3660489D1*
X3845581D2*
X3866982D1*
X857592Y794094D2*
X876071D1*
X948827D2*
X991821D1*
X1033081D2*
X1283997D1*
X1341690D2*
X1346497D1*
X1404198D2*
X1490244D1*
X1547945D2*
X1590246D1*
X1647946D2*
X1690247D1*
X1844820D2*
X1873834D1*
X1930511D2*
X1964462D1*
X2022154D2*
X2045709D1*
X2103409D2*
X2233993D1*
X2291462D2*
X2446207D1*
X2572159D2*
X2588693D1*
X2629953D2*
X2638790D1*
X2703410D2*
X2855871D1*
X2913571D2*
X2946499D1*
X3004192D2*
X3038627D1*
X3096319D2*
X3115244D1*
X3172945D2*
X3191824D1*
X3241696D2*
X3291818D1*
X3333078D2*
X3391819D1*
X3433079D2*
X3574621D1*
X3632321D2*
X3652746D1*
X3845581D2*
X3866990D1*
X857607Y786352D2*
X876071D1*
X948827D2*
X991821D1*
X1033081D2*
X1040449D1*
X1073689D2*
X1276254D1*
X1333947D2*
X1338754D1*
X1396454D2*
X1482501D1*
X1540201D2*
X1582503D1*
X1640203D2*
X1682504D1*
X1787072D2*
X1791818D1*
X1837076D2*
X1881577D1*
X1932979D2*
X1972205D1*
X2029482D2*
X2053452D1*
X2111152D2*
X2226250D1*
X2283950D2*
X2317754D1*
X2407150D2*
X2453189D1*
X2579902D2*
X2588693D1*
X2629953D2*
X2653453D1*
X2711146D2*
X2848128D1*
X2905828D2*
X2938756D1*
X2996448D2*
X3030883D1*
X3088576D2*
X3107501D1*
X3165201D2*
X3191824D1*
X3233953D2*
X3291818D1*
X3333078D2*
X3391819D1*
X3433079D2*
X3566878D1*
X3624578D2*
X3645003D1*
X3845581D2*
X3866998D1*
X857623Y778609D2*
X876071D1*
X948827D2*
X991821D1*
X1079887D2*
X1268511D1*
X1326211D2*
X1331011D1*
X1388711D2*
X1474758D1*
X1532458D2*
X1574759D1*
X1632460D2*
X1674761D1*
X1779328D2*
X1791818D1*
X1833078D2*
X1889320D1*
X1933079D2*
X1979948D1*
X2032743D2*
X2061195D1*
X2118895D2*
X2218506D1*
X2276206D2*
X2308742D1*
X2416162D2*
X2467445D1*
X2525145D2*
X2529945D1*
X2629953D2*
X2661197D1*
X2718889D2*
X2840384D1*
X2898085D2*
X2931012D1*
X2988705D2*
X3023140D1*
X3080832D2*
X3099758D1*
X3157458D2*
X3191824D1*
X3233084D2*
X3291818D1*
X3333078D2*
X3391819D1*
X3433079D2*
X3559134D1*
X3616835D2*
X3637259D1*
X3845581D2*
X3867005D1*
X857638Y770866D2*
X876071D1*
X948827D2*
X991821D1*
X1082363D2*
X1260768D1*
X1318468D2*
X1323268D1*
X1380968D2*
X1467014D1*
X1524715D2*
X1567016D1*
X1624716D2*
X1667018D1*
X1724718D2*
X1731924D1*
X1773185D2*
X1791818D1*
X1833078D2*
X1891819D1*
X1933079D2*
X1987684D1*
X2033081D2*
X2068938D1*
X2126639D2*
X2210763D1*
X2268463D2*
X2300999D1*
X2423906D2*
X2475188D1*
X2531205D2*
X2537688D1*
X2632021D2*
X2668940D1*
X2726632D2*
X2832641D1*
X2890341D2*
X2923269D1*
X2980969D2*
X3015397D1*
X3073097D2*
X3093691D1*
X3149715D2*
X3191824D1*
X3233084D2*
X3291818D1*
X3333078D2*
X3391819D1*
X3433079D2*
X3551391D1*
X3609091D2*
X3629516D1*
X3687216D2*
X3691824D1*
X3845581D2*
X3867013D1*
X857653Y763123D2*
X876079D1*
X948820D2*
X991821D1*
X1090106D2*
X1253024D1*
X1310725D2*
X1315524D1*
X1373225D2*
X1459271D1*
X1516971D2*
X1559273D1*
X1616973D2*
X1659274D1*
X1716975D2*
X1731924D1*
X1773185D2*
X1791818D1*
X1833078D2*
X1891819D1*
X1933079D2*
X1991821D1*
X2033081D2*
X2076682D1*
X2131837D2*
X2203027D1*
X2260720D2*
X2293256D1*
X2431649D2*
X2482932D1*
X2533065D2*
X2545432D1*
X2634582D2*
X2676683D1*
X2731831D2*
X2824898D1*
X2882598D2*
X2915526D1*
X2973226D2*
X3007653D1*
X3065354D2*
X3091830D1*
X3141971D2*
X3191824D1*
X3233084D2*
X3291818D1*
X3333078D2*
X3391819D1*
X3433079D2*
X3543648D1*
X3601348D2*
X3621773D1*
X3679473D2*
X3691824D1*
X3845581D2*
X3867021D1*
X857669Y755381D2*
X876071D1*
X948827D2*
X991821D1*
X1097842D2*
X1245281D1*
X1302981D2*
X1307781D1*
X1365481D2*
X1451528D1*
X1509228D2*
X1551529D1*
X1609230D2*
X1651531D1*
X1709231D2*
X1731924D1*
X1773185D2*
X1791818D1*
X1833078D2*
X1891819D1*
X1933079D2*
X1991821D1*
X2033081D2*
X2084425D1*
X2133082D2*
X2195622D1*
X2252977D2*
X2285551D1*
X2439354D2*
X2490675D1*
X2533081D2*
X2553175D1*
X2634559D2*
X2684419D1*
X2733084D2*
X2817154D1*
X2874855D2*
X2907783D1*
X2965483D2*
X2999910D1*
X3057610D2*
X3091822D1*
X3134228D2*
X3191824D1*
X3233084D2*
X3291818D1*
X3333078D2*
X3391819D1*
X3433079D2*
X3535904D1*
X3593605D2*
X3614029D1*
X3671730D2*
X3691824D1*
X3845581D2*
X3867028D1*
X857676Y747638D2*
X876071D1*
X948827D2*
X991821D1*
X1033081D2*
X1041241D1*
X1105585D2*
X1237538D1*
X1295238D2*
X1300038D1*
X1357738D2*
X1443792D1*
X1501485D2*
X1543786D1*
X1601486D2*
X1643788D1*
X1701488D2*
X1731924D1*
X1773185D2*
X1791818D1*
X1833078D2*
X1891819D1*
X1933079D2*
X1991821D1*
X2033081D2*
X2091822D1*
X2133082D2*
X2192216D1*
X2245233D2*
X2280099D1*
X2444806D2*
X2491821D1*
X2533081D2*
X2560918D1*
X2631944D2*
X2691824D1*
X2733084D2*
X2809411D1*
X2867111D2*
X2900039D1*
X2957739D2*
X2993766D1*
X3049867D2*
X3091822D1*
X3133082D2*
X3191824D1*
X3233084D2*
X3291818D1*
X3333078D2*
X3391819D1*
X3433079D2*
X3528161D1*
X3585861D2*
X3606286D1*
X3663986D2*
X3691824D1*
X3845581D2*
X3867036D1*
X857692Y739895D2*
X876071D1*
X948827D2*
X991821D1*
X1033081D2*
X1055636D1*
X1113328D2*
X1229794D1*
X1287495D2*
X1293825D1*
X1349995D2*
X1436049D1*
X1493742D2*
X1536043D1*
X1593743D2*
X1636044D1*
X1693745D2*
X1725188D1*
X1773185D2*
X1791818D1*
X1833078D2*
X1891819D1*
X1933079D2*
X1991821D1*
X2033081D2*
X2091822D1*
X2133082D2*
X2191824D1*
X2237490D2*
X2277154D1*
X2447751D2*
X2491821D1*
X2533081D2*
X2568654D1*
X2626354D2*
X2691824D1*
X2733084D2*
X2801676D1*
X2859368D2*
X2893826D1*
X2949996D2*
X2991836D1*
X3042124D2*
X3091822D1*
X3133082D2*
X3191824D1*
X3233084D2*
X3291818D1*
X3333078D2*
X3391819D1*
X3433079D2*
X3520418D1*
X3578118D2*
X3598543D1*
X3656243D2*
X3691824D1*
X3845581D2*
X3867044D1*
X857707Y732152D2*
X876071D1*
X948827D2*
X991821D1*
X1033081D2*
X1063379D1*
X1121071D2*
X1222051D1*
X1279751D2*
X1291841D1*
X1342251D2*
X1428306D1*
X1485998D2*
X1528300D1*
X1586000D2*
X1628301D1*
X1686001D2*
X1717445D1*
X1772177D2*
X1791818D1*
X1833078D2*
X1891819D1*
X1933079D2*
X1991821D1*
X2033081D2*
X2091822D1*
X2133082D2*
X2191824D1*
X2233084D2*
X2276085D1*
X2448812D2*
X2491821D1*
X2533081D2*
X2576397D1*
X2631729D2*
X2691824D1*
X2733084D2*
X2794717D1*
X2851625D2*
X2891842D1*
X2942253D2*
X2991821D1*
X3034380D2*
X3091822D1*
X3133082D2*
X3191824D1*
X3233084D2*
X3291818D1*
X3333078D2*
X3391819D1*
X3433079D2*
X3512682D1*
X3570375D2*
X3593176D1*
X3648500D2*
X3691824D1*
X3845581D2*
X3867051D1*
X857723Y724409D2*
X876071D1*
X948827D2*
X991821D1*
X1033081D2*
X1071115D1*
X1128661D2*
X1214308D1*
X1272008D2*
X1291818D1*
X1334508D2*
X1420562D1*
X1478255D2*
X1520564D1*
X1578256D2*
X1620558D1*
X1678258D2*
X1709702D1*
X1767402D2*
X1791818D1*
X1833078D2*
X1891819D1*
X1933079D2*
X1991821D1*
X2033081D2*
X2091822D1*
X2133082D2*
X2191824D1*
X2233084D2*
X2276070D1*
X2448827D2*
X2491821D1*
X2533081D2*
X2584140D1*
X2633082D2*
X2691824D1*
X2733084D2*
X2791987D1*
X2843881D2*
X2891819D1*
X2934510D2*
X2991821D1*
X3033081D2*
X3091822D1*
X3133082D2*
X3191824D1*
X3233084D2*
X3291818D1*
X3333078D2*
X3391819D1*
X3433079D2*
X3504939D1*
X3562631D2*
X3591822D1*
X3640756D2*
X3691824D1*
X3845581D2*
X3867059D1*
X857738Y716667D2*
X876071D1*
X948827D2*
X991821D1*
X1033081D2*
X1078858D1*
X1132506D2*
X1206564D1*
X1264265D2*
X1291818D1*
X1333078D2*
X1412819D1*
X1470519D2*
X1512821D1*
X1570513D2*
X1612814D1*
X1670515D2*
X1701959D1*
X1759659D2*
X1791818D1*
X1833078D2*
X1891819D1*
X1933079D2*
X1991821D1*
X2033081D2*
X2091822D1*
X2133082D2*
X2191824D1*
X2233084D2*
X2276070D1*
X2448827D2*
X2491821D1*
X2533081D2*
X2591822D1*
X2633082D2*
X2691824D1*
X2733084D2*
X2791818D1*
X2836138D2*
X2891819D1*
X2933079D2*
X2991821D1*
X3033081D2*
X3091822D1*
X3133082D2*
X3191824D1*
X3233084D2*
X3291818D1*
X3333078D2*
X3391819D1*
X3433079D2*
X3497203D1*
X3554888D2*
X3591822D1*
X3633082D2*
X3691824D1*
X3845581D2*
X3867067D1*
X857753Y708924D2*
X876071D1*
X948827D2*
X991821D1*
X1033081D2*
X1086601D1*
X1133082D2*
X1198821D1*
X1256521D2*
X1291818D1*
X1333078D2*
X1405076D1*
X1462776D2*
X1505077D1*
X1562770D2*
X1605071D1*
X1662771D2*
X1694900D1*
X1751915D2*
X1791818D1*
X1833078D2*
X1891819D1*
X1933079D2*
X1991821D1*
X2033081D2*
X2091822D1*
X2133082D2*
X2191824D1*
X2233084D2*
X2276070D1*
X2448827D2*
X2491821D1*
X2533081D2*
X2591822D1*
X2633082D2*
X2691824D1*
X2733084D2*
X2791818D1*
X2833078D2*
X2891819D1*
X2933079D2*
X2991821D1*
X3033081D2*
X3091822D1*
X3133082D2*
X3191824D1*
X3233084D2*
X3291818D1*
X3333078D2*
X3391819D1*
X3433079D2*
X3492705D1*
X3547145D2*
X3591822D1*
X3633082D2*
X3691824D1*
X3845581D2*
X3867074D1*
X857769Y701181D2*
X876071D1*
X948827D2*
X991821D1*
X1033081D2*
X1091822D1*
X1133082D2*
X1193285D1*
X1248778D2*
X1291818D1*
X1333078D2*
X1397340D1*
X1455033D2*
X1497342D1*
X1555027D2*
X1597336D1*
X1655028D2*
X1692031D1*
X1744172D2*
X1791818D1*
X1833078D2*
X1891819D1*
X1933079D2*
X1991821D1*
X2033081D2*
X2091822D1*
X2133082D2*
X2191824D1*
X2233084D2*
X2276070D1*
X2448827D2*
X2491821D1*
X2533081D2*
X2591822D1*
X2633082D2*
X2691824D1*
X2733084D2*
X2791818D1*
X2833078D2*
X2891819D1*
X2933079D2*
X2991821D1*
X3033081D2*
X3091822D1*
X3133082D2*
X3191824D1*
X3233084D2*
X3291818D1*
X3333078D2*
X3391819D1*
X3433079D2*
X3491821D1*
X3539409D2*
X3591822D1*
X3633082D2*
X3691824D1*
X3845581D2*
X3867082D1*
X538333Y2411647D2*
X537739Y2407784D1*
X536757Y2404001D1*
X535397Y2400337D1*
X533673Y2396830D1*
X531603Y2393514D1*
X529209Y2390425D1*
X526514Y2387594D1*
X523547Y2385051D1*
X520337Y2382820D1*
X516919Y2380926D1*
X513326Y2379387D1*
X509596Y2378220D1*
X505767Y2377436D1*
X501879Y2377043D1*
X497970Y2377046D1*
X494082Y2377444D1*
X490254Y2378233D1*
X486526Y2379406D1*
X482936Y2380950D1*
X479520Y2382849D1*
X476313Y2385084D1*
X473350Y2387632D1*
X470659Y2390466D1*
X468269Y2393559D1*
X466204Y2396877D1*
X464485Y2400387D1*
X463130Y2404053D1*
X462153Y2407837D1*
X461564Y2411701D1*
X461369Y2415604D1*
X461569Y2419508D1*
X462164Y2423370D1*
X463146Y2427153D1*
X464506Y2430818D1*
X466230Y2434325D1*
X468300Y2437641D1*
X470694Y2440730D1*
X473389Y2443560D1*
X476356Y2446104D1*
X479565Y2448335D1*
X482984Y2450229D1*
X486577Y2451768D1*
X490307Y2452935D1*
X494136Y2453719D1*
X498024Y2454112D1*
X501933Y2454109D1*
X505821Y2453711D1*
X509648Y2452922D1*
X513377Y2451749D1*
X516967Y2450205D1*
X520383Y2448306D1*
X523589Y2446071D1*
X526553Y2443523D1*
X529244Y2440689D1*
X531634Y2437596D1*
X533699Y2434278D1*
X535418Y2430768D1*
X536773Y2427102D1*
X537750Y2423318D1*
X538339Y2419454D1*
X538534Y2415577D1*
X538333Y2411647D1*
X537739Y2407784D1*
X536757Y2404001D1*
X535397Y2400337D1*
X533673Y2396830D1*
X531603Y2393514D1*
X529209Y2390425D1*
X526514Y2387594D1*
X523547Y2385051D1*
X520337Y2382820D1*
X516919Y2380926D1*
X513326Y2379387D1*
X509596Y2378220D1*
X505767Y2377436D1*
X501879Y2377043D1*
X497970Y2377046D1*
X494082Y2377444D1*
X490254Y2378233D1*
X486526Y2379406D1*
X482936Y2380950D1*
X479520Y2382849D1*
X476313Y2385084D1*
X473350Y2387632D1*
X470659Y2390466D1*
X468269Y2393559D1*
X466204Y2396877D1*
X464485Y2400387D1*
X463130Y2404053D1*
X462153Y2407837D1*
X461564Y2411701D1*
X461369Y2415604D1*
X461569Y2419508D1*
X462164Y2423370D1*
X463146Y2427153D1*
X464506Y2430818D1*
X466230Y2434325D1*
X468300Y2437641D1*
X470694Y2440730D1*
X473389Y2443560D1*
X476356Y2446104D1*
X479565Y2448335D1*
X482984Y2450229D1*
X486577Y2451768D1*
X490307Y2452935D1*
X494136Y2453719D1*
X498024Y2454112D1*
X501933Y2454109D1*
X505821Y2453711D1*
X509648Y2452922D1*
X513377Y2451749D1*
X516967Y2450205D1*
X520383Y2448306D1*
X523589Y2446071D1*
X526553Y2443523D1*
X529244Y2440689D1*
X531634Y2437596D1*
X533699Y2434278D1*
X535418Y2430768D1*
X536773Y2427102D1*
X537750Y2423318D1*
X538339Y2419454D1*
X538534Y2415577D1*
X538333Y2411647D1*
X537739Y2407784D1*
X536757Y2404001D1*
X535397Y2400337D1*
X533673Y2396830D1*
X531603Y2393514D1*
X529209Y2390425D1*
X526514Y2387594D1*
X523547Y2385051D1*
X520337Y2382820D1*
X516919Y2380926D1*
X513326Y2379387D1*
X509596Y2378220D1*
X505767Y2377436D1*
X501879Y2377043D1*
X497970Y2377046D1*
X494082Y2377444D1*
X490254Y2378233D1*
X486526Y2379406D1*
X482936Y2380950D1*
X479520Y2382849D1*
X476313Y2385084D1*
X473350Y2387632D1*
X470659Y2390466D1*
X468269Y2393559D1*
X466204Y2396877D1*
X464485Y2400387D1*
X463130Y2404053D1*
X462153Y2407837D1*
X461564Y2411701D1*
X461369Y2415604D1*
X461569Y2419508D1*
X462164Y2423370D1*
X463146Y2427153D1*
X464506Y2430818D1*
X466230Y2434325D1*
X468300Y2437641D1*
X470694Y2440730D1*
X473389Y2443560D1*
X476356Y2446104D1*
X479565Y2448335D1*
X482984Y2450229D1*
X486577Y2451768D1*
X490307Y2452935D1*
X494136Y2453719D1*
X498024Y2454112D1*
X501933Y2454109D1*
X505821Y2453711D1*
X509648Y2452922D1*
X513377Y2451749D1*
X516967Y2450205D1*
X520383Y2448306D1*
X523589Y2446071D1*
X526553Y2443523D1*
X529244Y2440689D1*
X531634Y2437596D1*
X533699Y2434278D1*
X535418Y2430768D1*
X536773Y2427102D1*
X537750Y2423318D1*
X538339Y2419454D1*
X538534Y2415577D1*
X538333Y2411647D1*
X4260207D2*
X4259613Y2407784D1*
X4258631Y2404001D1*
X4257271Y2400337D1*
X4255547Y2396830D1*
X4253477Y2393514D1*
X4251083Y2390425D1*
X4248388Y2387594D1*
X4245421Y2385051D1*
X4242211Y2382820D1*
X4238793Y2380926D1*
X4235200Y2379387D1*
X4231470Y2378220D1*
X4227641Y2377436D1*
X4223753Y2377043D1*
X4219844Y2377046D1*
X4215956Y2377444D1*
X4212129Y2378233D1*
X4208400Y2379406D1*
X4204810Y2380950D1*
X4201394Y2382849D1*
X4198187Y2385084D1*
X4195224Y2387632D1*
X4192533Y2390466D1*
X4190143Y2393559D1*
X4188078Y2396877D1*
X4186359Y2400387D1*
X4185004Y2404053D1*
X4184027Y2407837D1*
X4183438Y2411701D1*
X4183243Y2415604D1*
X4183443Y2419508D1*
X4184038Y2423370D1*
X4185020Y2427153D1*
X4186380Y2430818D1*
X4188104Y2434325D1*
X4190174Y2437641D1*
X4192568Y2440730D1*
X4195263Y2443560D1*
X4198230Y2446104D1*
X4201440Y2448335D1*
X4204858Y2450229D1*
X4208451Y2451768D1*
X4212181Y2452935D1*
X4216010Y2453719D1*
X4219898Y2454112D1*
X4223807Y2454109D1*
X4227695Y2453711D1*
X4231522Y2452922D1*
X4235251Y2451749D1*
X4238841Y2450205D1*
X4242257Y2448306D1*
X4245463Y2446071D1*
X4248427Y2443523D1*
X4251118Y2440689D1*
X4253508Y2437596D1*
X4255573Y2434278D1*
X4257292Y2430768D1*
X4258647Y2427102D1*
X4259624Y2423318D1*
X4260213Y2419454D1*
X4260408Y2415577D1*
X4260207Y2411647D1*
X4259613Y2407784D1*
X4258631Y2404001D1*
X4257271Y2400337D1*
X4255547Y2396830D1*
X4253477Y2393514D1*
X4251083Y2390425D1*
X4248388Y2387594D1*
X4245421Y2385051D1*
X4242211Y2382820D1*
X4238793Y2380926D1*
X4235200Y2379387D1*
X4231470Y2378220D1*
X4227641Y2377436D1*
X4223753Y2377043D1*
X4219844Y2377046D1*
X4215956Y2377444D1*
X4212129Y2378233D1*
X4208400Y2379406D1*
X4204810Y2380950D1*
X4201394Y2382849D1*
X4198187Y2385084D1*
X4195224Y2387632D1*
X4192533Y2390466D1*
X4190143Y2393559D1*
X4188078Y2396877D1*
X4186359Y2400387D1*
X4185004Y2404053D1*
X4184027Y2407837D1*
X4183438Y2411701D1*
X4183243Y2415604D1*
X4183443Y2419508D1*
X4184038Y2423370D1*
X4185020Y2427153D1*
X4186380Y2430818D1*
X4188104Y2434325D1*
X4190174Y2437641D1*
X4192568Y2440730D1*
X4195263Y2443560D1*
X4198230Y2446104D1*
X4201440Y2448335D1*
X4204858Y2450229D1*
X4208451Y2451768D1*
X4212181Y2452935D1*
X4216010Y2453719D1*
X4219898Y2454112D1*
X4223807Y2454109D1*
X4227695Y2453711D1*
X4231522Y2452922D1*
X4235251Y2451749D1*
X4238841Y2450205D1*
X4242257Y2448306D1*
X4245463Y2446071D1*
X4248427Y2443523D1*
X4251118Y2440689D1*
X4253508Y2437596D1*
X4255573Y2434278D1*
X4257292Y2430768D1*
X4258647Y2427102D1*
X4259624Y2423318D1*
X4260213Y2419454D1*
X4260408Y2415577D1*
X4260207Y2411647D1*
X4259613Y2407784D1*
X4258631Y2404001D1*
X4257271Y2400337D1*
X4255547Y2396830D1*
X4253477Y2393514D1*
X4251083Y2390425D1*
X4248388Y2387594D1*
X4245421Y2385051D1*
X4242211Y2382820D1*
X4238793Y2380926D1*
X4235200Y2379387D1*
X4231470Y2378220D1*
X4227641Y2377436D1*
X4223753Y2377043D1*
X4219844Y2377046D1*
X4215956Y2377444D1*
X4212129Y2378233D1*
X4208400Y2379406D1*
X4204810Y2380950D1*
X4201394Y2382849D1*
X4198187Y2385084D1*
X4195224Y2387632D1*
X4192533Y2390466D1*
X4190143Y2393559D1*
X4188078Y2396877D1*
X4186359Y2400387D1*
X4185004Y2404053D1*
X4184027Y2407837D1*
X4183438Y2411701D1*
X4183243Y2415604D1*
X4183443Y2419508D1*
X4184038Y2423370D1*
X4185020Y2427153D1*
X4186380Y2430818D1*
X4188104Y2434325D1*
X4190174Y2437641D1*
X4192568Y2440730D1*
X4195263Y2443560D1*
X4198230Y2446104D1*
X4201440Y2448335D1*
X4204858Y2450229D1*
X4208451Y2451768D1*
X4212181Y2452935D1*
X4216010Y2453719D1*
X4219898Y2454112D1*
X4223807Y2454109D1*
X4227695Y2453711D1*
X4231522Y2452922D1*
X4235251Y2451749D1*
X4238841Y2450205D1*
X4242257Y2448306D1*
X4245463Y2446071D1*
X4248427Y2443523D1*
X4251118Y2440689D1*
X4253508Y2437596D1*
X4255573Y2434278D1*
X4257292Y2430768D1*
X4258647Y2427102D1*
X4259624Y2423318D1*
X4260213Y2419454D1*
X4260408Y2415577D1*
X4260207Y2411647D1*
X538332Y927271D2*
X537738Y923408D1*
X536755Y919625D1*
X535395Y915961D1*
X533672Y912453D1*
X531602Y909138D1*
X529207Y906049D1*
X526513Y903218D1*
X523545Y900674D1*
X520336Y898444D1*
X516917Y896549D1*
X513325Y895010D1*
X509595Y893843D1*
X505766Y893059D1*
X501877Y892666D1*
X497969Y892669D1*
X494081Y893067D1*
X490253Y893857D1*
X486525Y895029D1*
X482934Y896573D1*
X479518Y898472D1*
X476312Y900707D1*
X473348Y903255D1*
X470658Y906090D1*
X468267Y909182D1*
X466202Y912500D1*
X464484Y916010D1*
X463129Y919676D1*
X462152Y923461D1*
X461563Y927324D1*
X461367Y931228D1*
X461568Y935131D1*
X462163Y938994D1*
X463145Y942777D1*
X464505Y946441D1*
X466229Y949949D1*
X468298Y953264D1*
X470693Y956353D1*
X473387Y959184D1*
X476355Y961728D1*
X479564Y963958D1*
X482983Y965852D1*
X486575Y967391D1*
X490305Y968559D1*
X494134Y969343D1*
X498023Y969735D1*
X501931Y969733D1*
X505819Y969334D1*
X509647Y968545D1*
X513375Y967372D1*
X516966Y965829D1*
X520382Y963929D1*
X523588Y961695D1*
X526552Y959147D1*
X529243Y956312D1*
X531633Y953220D1*
X533698Y949901D1*
X535417Y946391D1*
X536771Y942725D1*
X537748Y938941D1*
X538338Y935077D1*
X538533Y931201D1*
X538332Y927271D1*
X537738Y923408D1*
X536755Y919625D1*
X535395Y915961D1*
X533672Y912453D1*
X531602Y909138D1*
X529207Y906049D1*
X526513Y903218D1*
X523545Y900674D1*
X520336Y898444D1*
X516917Y896549D1*
X513325Y895010D1*
X509595Y893843D1*
X505766Y893059D1*
X501877Y892666D1*
X497969Y892669D1*
X494081Y893067D1*
X490253Y893857D1*
X486525Y895029D1*
X482934Y896573D1*
X479518Y898472D1*
X476312Y900707D1*
X473348Y903255D1*
X470658Y906090D1*
X468267Y909182D1*
X466202Y912500D1*
X464484Y916010D1*
X463129Y919676D1*
X462152Y923461D1*
X461563Y927324D1*
X461367Y931228D1*
X461568Y935131D1*
X462163Y938994D1*
X463145Y942777D1*
X464505Y946441D1*
X466229Y949949D1*
X468298Y953264D1*
X470693Y956353D1*
X473387Y959184D1*
X476355Y961728D1*
X479564Y963958D1*
X482983Y965852D1*
X486575Y967391D1*
X490305Y968559D1*
X494134Y969343D1*
X498023Y969735D1*
X501931Y969733D1*
X505819Y969334D1*
X509647Y968545D1*
X513375Y967372D1*
X516966Y965829D1*
X520382Y963929D1*
X523588Y961695D1*
X526552Y959147D1*
X529243Y956312D1*
X531633Y953220D1*
X533698Y949901D1*
X535417Y946391D1*
X536771Y942725D1*
X537748Y938941D1*
X538338Y935077D1*
X538533Y931201D1*
X538332Y927271D1*
X537738Y923408D1*
X536755Y919625D1*
X535395Y915961D1*
X533672Y912453D1*
X531602Y909138D1*
X529207Y906049D1*
X526513Y903218D1*
X523545Y900674D1*
X520336Y898444D1*
X516917Y896549D1*
X513325Y895010D1*
X509595Y893843D1*
X505766Y893059D1*
X501877Y892666D1*
X497969Y892669D1*
X494081Y893067D1*
X490253Y893857D1*
X486525Y895029D1*
X482934Y896573D1*
X479518Y898472D1*
X476312Y900707D1*
X473348Y903255D1*
X470658Y906090D1*
X468267Y909182D1*
X466202Y912500D1*
X464484Y916010D1*
X463129Y919676D1*
X462152Y923461D1*
X461563Y927324D1*
X461367Y931228D1*
X461568Y935131D1*
X462163Y938994D1*
X463145Y942777D1*
X464505Y946441D1*
X466229Y949949D1*
X468298Y953264D1*
X470693Y956353D1*
X473387Y959184D1*
X476355Y961728D1*
X479564Y963958D1*
X482983Y965852D1*
X486575Y967391D1*
X490305Y968559D1*
X494134Y969343D1*
X498023Y969735D1*
X501931Y969733D1*
X505819Y969334D1*
X509647Y968545D1*
X513375Y967372D1*
X516966Y965829D1*
X520382Y963929D1*
X523588Y961695D1*
X526552Y959147D1*
X529243Y956312D1*
X531633Y953220D1*
X533698Y949901D1*
X535417Y946391D1*
X536771Y942725D1*
X537748Y938941D1*
X538338Y935077D1*
X538533Y931201D1*
X538332Y927271D1*
X1692608Y698288D2*
X1692604Y693810D1*
X1646868D1*
X1683177Y730115D1*
X1732715Y779651D1*
X1732714Y746633D1*
X1698419Y712338D1*
X1696300Y709836D1*
X1694345Y706427D1*
X1693100Y702699D1*
X1692614Y698794D1*
X3432293Y856183D2*
X3432289Y693810D1*
X3492604D1*
X3492608Y703057D1*
X3492614Y703566D1*
X3493100Y707466D1*
X3494345Y711194D1*
X3496300Y714604D1*
X3498419Y717106D1*
X3702051Y920734D1*
X3528158Y920737D1*
X3528287Y920526D1*
X3529767Y916933D1*
X3530667Y913153D1*
X3530965Y909325D1*
X3530652Y905405D1*
X3529738Y901628D1*
X3528244Y898041D1*
X3526207Y894732D1*
X3523678Y891782D1*
X3520718Y889263D1*
X3517401Y887239D1*
X3513808Y885759D1*
X3510028Y884859D1*
X3506154Y884562D1*
X3502280Y884874D1*
X3498504Y885788D1*
X3494916Y887282D1*
X3491607Y889319D1*
X3491414Y889484D1*
X3413750D1*
X3415787Y886152D1*
X3417267Y882559D1*
X3418167Y878779D1*
X3418186Y878528D1*
X3426481Y870233D1*
X3428971Y867192D1*
X3430814Y863720D1*
X3431935Y859949D1*
X3663791Y693810D2*
X3692607Y693808D1*
X3692609Y777049D1*
X3632293Y716733D1*
X3632289Y693810D1*
X3663789Y693806D1*
X2113893Y2474320D2*
X2208696D1*
Y2375580D1*
X2109956D1*
Y2474320D1*
X2113893D1*
X2108678Y2423638D2*
X2108626Y2422325D1*
X2108538Y2421013D1*
X2108416Y2419704D1*
X2108259Y2418400D1*
X2108067Y2417099D1*
X2107841Y2415804D1*
X2107580Y2414516D1*
X2107286Y2413235D1*
X2106957Y2411963D1*
X2106594Y2410699D1*
X2106198Y2409446D1*
X2105769Y2408204D1*
X2105306Y2406973D1*
X2104812Y2405756D1*
X2104284Y2404552D1*
X2103725Y2403362D1*
X2103135Y2402188D1*
X2102514Y2401030D1*
X2101862Y2399888D1*
X2101179Y2398765D1*
X2100467Y2397660D1*
X2099726Y2396575D1*
X2098957Y2395509D1*
X2098159Y2394465D1*
X2097334Y2393442D1*
X2096481Y2392441D1*
X2095603Y2391463D1*
X2094698Y2390509D1*
X2093769Y2389580D1*
X2092815Y2388676D1*
X2091838Y2387797D1*
X2090837Y2386945D1*
X2089814Y2386119D1*
X2088770Y2385321D1*
X2087704Y2384552D1*
X2086619Y2383811D1*
X2085514Y2383099D1*
X2084391Y2382416D1*
X2083250Y2381764D1*
X2082091Y2381142D1*
X2080917Y2380552D1*
X2079728Y2379993D1*
X2078524Y2379466D1*
X2077306Y2378971D1*
X2076076Y2378508D1*
X2074833Y2378079D1*
X2073580Y2377683D1*
X2072317Y2377320D1*
X2071044Y2376991D1*
X2069763Y2376696D1*
X2068475Y2376435D1*
X2067180Y2376209D1*
X2065880Y2376017D1*
X2064575Y2375860D1*
X2063267Y2375738D1*
X2061955Y2375650D1*
X2060642Y2375598D1*
X2059328Y2375580D1*
X2058013Y2375597D1*
X2056700Y2375650D1*
X2055388Y2375737D1*
X2054080Y2375860D1*
X2052775Y2376017D1*
X2051475Y2376208D1*
X2050180Y2376435D1*
X2048892Y2376695D1*
X2047611Y2376990D1*
X2046338Y2377319D1*
X2045075Y2377682D1*
X2043821Y2378078D1*
X2042579Y2378507D1*
X2041349Y2378969D1*
X2040131Y2379464D1*
X2038927Y2379991D1*
X2037737Y2380550D1*
X2036563Y2381141D1*
X2035405Y2381762D1*
X2034264Y2382414D1*
X2033140Y2383096D1*
X2032035Y2383808D1*
X2030950Y2384549D1*
X2029884Y2385319D1*
X2028840Y2386117D1*
X2027817Y2386942D1*
X2026816Y2387794D1*
X2025839Y2388673D1*
X2024885Y2389577D1*
X2023955Y2390507D1*
X2023051Y2391460D1*
X2022172Y2392438D1*
X2021320Y2393438D1*
X2020495Y2394461D1*
X2019697Y2395506D1*
X2018927Y2396571D1*
X2018186Y2397657D1*
X2017474Y2398761D1*
X2016792Y2399885D1*
X2016139Y2401026D1*
X2015518Y2402184D1*
X2014927Y2403358D1*
X2014368Y2404548D1*
X2013841Y2405752D1*
X2013346Y2406970D1*
X2012884Y2408200D1*
X2012454Y2409442D1*
X2012058Y2410695D1*
X2011695Y2411959D1*
X2011366Y2413231D1*
X2011071Y2414512D1*
X2010811Y2415800D1*
X2010584Y2417095D1*
X2010392Y2418395D1*
X2010235Y2419700D1*
X2010113Y2421009D1*
X2010025Y2422320D1*
X2009973Y2423634D1*
X2009955Y2424948D1*
X2009973Y2426262D1*
X2010025Y2427576D1*
X2010113Y2428887D1*
X2010235Y2430196D1*
X2010392Y2431501D1*
X2010584Y2432801D1*
X2010810Y2434096D1*
X2011071Y2435384D1*
X2011365Y2436665D1*
X2011694Y2437938D1*
X2012057Y2439201D1*
X2012453Y2440454D1*
X2012882Y2441696D1*
X2013345Y2442927D1*
X2013839Y2444144D1*
X2014366Y2445349D1*
X2014925Y2446538D1*
X2015516Y2447712D1*
X2016137Y2448871D1*
X2016789Y2450012D1*
X2017472Y2451135D1*
X2018184Y2452240D1*
X2018925Y2453326D1*
X2019694Y2454391D1*
X2020492Y2455436D1*
X2021317Y2456459D1*
X2022170Y2457459D1*
X2023048Y2458437D1*
X2023952Y2459391D1*
X2024882Y2460320D1*
X2025836Y2461225D1*
X2026813Y2462103D1*
X2027814Y2462956D1*
X2028837Y2463781D1*
X2029881Y2464579D1*
X2030946Y2465349D1*
X2032032Y2466090D1*
X2033137Y2466802D1*
X2034260Y2467484D1*
X2035401Y2468136D1*
X2036559Y2468758D1*
X2037734Y2469348D1*
X2038923Y2469907D1*
X2040127Y2470435D1*
X2041345Y2470930D1*
X2042575Y2471392D1*
X2043817Y2471821D1*
X2045071Y2472218D1*
X2046334Y2472580D1*
X2047607Y2472909D1*
X2048887Y2473204D1*
X2050176Y2473465D1*
X2051470Y2473691D1*
X2052771Y2473883D1*
X2054076Y2474040D1*
X2055384Y2474163D1*
X2056696Y2474250D1*
X2058009Y2474303D1*
X2059323Y2474320D1*
X2060638Y2474303D1*
X2061951Y2474250D1*
X2063262Y2474163D1*
X2064571Y2474041D1*
X2065876Y2473884D1*
X2067176Y2473692D1*
X2068471Y2473466D1*
X2069759Y2473205D1*
X2071040Y2472910D1*
X2072313Y2472581D1*
X2073576Y2472219D1*
X2074829Y2471823D1*
X2076072Y2471393D1*
X2077302Y2470931D1*
X2078520Y2470436D1*
X2079724Y2469909D1*
X2080913Y2469350D1*
X2082088Y2468760D1*
X2083246Y2468138D1*
X2084387Y2467486D1*
X2085511Y2466804D1*
X2086616Y2466092D1*
X2087701Y2465351D1*
X2088766Y2464581D1*
X2089811Y2463784D1*
X2090834Y2462958D1*
X2091835Y2462106D1*
X2092812Y2461227D1*
X2093766Y2460323D1*
X2094696Y2459394D1*
X2095600Y2458440D1*
X2096479Y2457462D1*
X2097331Y2456462D1*
X2098156Y2455439D1*
X2098954Y2454395D1*
X2099724Y2453329D1*
X2100465Y2452244D1*
X2101177Y2451139D1*
X2101859Y2450015D1*
X2102512Y2448874D1*
X2103133Y2447716D1*
X2103724Y2446542D1*
X2104283Y2445352D1*
X2104810Y2444148D1*
X2105305Y2442931D1*
X2105767Y2441700D1*
X2106197Y2440458D1*
X2106593Y2439205D1*
X2106956Y2437942D1*
X2107285Y2436669D1*
X2107580Y2435388D1*
X2107840Y2434100D1*
X2108067Y2432805D1*
X2108258Y2431505D1*
X2108416Y2430200D1*
X2108538Y2428891D1*
X2108625Y2427580D1*
X2108678Y2426266D1*
X2108696Y2424950D1*
X2108678Y2423638D1*
X2008539Y2421017D2*
X2008071Y2417120D1*
X2007294Y2413272D1*
X2006215Y2409497D1*
X2004839Y2405821D1*
X2003175Y2402265D1*
X2001234Y2398853D1*
X1999028Y2395606D1*
X1996572Y2392544D1*
X1993879Y2389688D1*
X1990968Y2387054D1*
X1987857Y2384660D1*
X1984566Y2382520D1*
X1981115Y2380649D1*
X1977527Y2379058D1*
X1973823Y2377757D1*
X1970028Y2376754D1*
X1966165Y2376056D1*
X1962258Y2375667D1*
X1958333Y2375590D1*
X1954415Y2375825D1*
X1950527Y2376370D1*
X1946696Y2377223D1*
X1942944Y2378377D1*
X1939295Y2379826D1*
X1935773Y2381560D1*
X1932400Y2383568D1*
X1929198Y2385838D1*
X1926186Y2388356D1*
X1923383Y2391104D1*
X1920807Y2394067D1*
X1918476Y2397225D1*
X1916402Y2400558D1*
X1914600Y2404045D1*
X1913080Y2407665D1*
X1911853Y2411394D1*
X1910926Y2415208D1*
X1910305Y2419085D1*
X1909994Y2422998D1*
X1909995Y2426923D1*
X1910308Y2430836D1*
X1910930Y2434712D1*
X1911859Y2438526D1*
X1913087Y2442255D1*
X1914608Y2445874D1*
X1916412Y2449360D1*
X1918487Y2452693D1*
X1920820Y2455850D1*
X1923397Y2458811D1*
X1926201Y2461559D1*
X1929214Y2464075D1*
X1932418Y2466343D1*
X1935792Y2468350D1*
X1939314Y2470083D1*
X1942963Y2471530D1*
X1946716Y2472683D1*
X1950548Y2473534D1*
X1954436Y2474077D1*
X1958354Y2474311D1*
X1962279Y2474232D1*
X1966185Y2473841D1*
X1970048Y2473142D1*
X1973843Y2472138D1*
X1977546Y2470835D1*
X1981134Y2469242D1*
X1984584Y2467370D1*
X1987874Y2465229D1*
X1990984Y2462833D1*
X1993894Y2460198D1*
X1996585Y2457340D1*
X1999041Y2454278D1*
X2001245Y2451029D1*
X2003185Y2447616D1*
X2004847Y2444060D1*
X2006221Y2440383D1*
X2007299Y2436608D1*
X2008074Y2432760D1*
X2008540Y2428862D1*
X2008696Y2424950D1*
X2008539Y2421017D1*
X1908539D2*
X1908071Y2417120D1*
X1907294Y2413272D1*
X1906215Y2409497D1*
X1904839Y2405821D1*
X1903175Y2402265D1*
X1901234Y2398853D1*
X1899028Y2395606D1*
X1896572Y2392544D1*
X1893879Y2389688D1*
X1890968Y2387054D1*
X1887857Y2384660D1*
X1884566Y2382520D1*
X1881115Y2380649D1*
X1877527Y2379058D1*
X1873823Y2377757D1*
X1870028Y2376754D1*
X1866165Y2376056D1*
X1862258Y2375667D1*
X1858333Y2375590D1*
X1854415Y2375825D1*
X1850527Y2376370D1*
X1846696Y2377223D1*
X1842944Y2378377D1*
X1839295Y2379826D1*
X1835773Y2381560D1*
X1832400Y2383568D1*
X1829198Y2385838D1*
X1826186Y2388356D1*
X1823383Y2391104D1*
X1820807Y2394067D1*
X1818476Y2397225D1*
X1816402Y2400558D1*
X1814600Y2404045D1*
X1813080Y2407665D1*
X1811853Y2411394D1*
X1810926Y2415208D1*
X1810305Y2419085D1*
X1809994Y2422998D1*
X1809995Y2426923D1*
X1810308Y2430836D1*
X1810930Y2434712D1*
X1811859Y2438526D1*
X1813087Y2442255D1*
X1814608Y2445874D1*
X1816412Y2449360D1*
X1818487Y2452693D1*
X1820820Y2455850D1*
X1823397Y2458811D1*
X1826201Y2461559D1*
X1829214Y2464075D1*
X1832418Y2466343D1*
X1835792Y2468350D1*
X1839314Y2470083D1*
X1842963Y2471530D1*
X1846716Y2472683D1*
X1850548Y2473534D1*
X1854436Y2474077D1*
X1858354Y2474311D1*
X1862279Y2474232D1*
X1866185Y2473841D1*
X1870048Y2473142D1*
X1873843Y2472138D1*
X1877546Y2470835D1*
X1881134Y2469242D1*
X1884584Y2467370D1*
X1887874Y2465229D1*
X1890984Y2462833D1*
X1893894Y2460198D1*
X1896585Y2457340D1*
X1899041Y2454278D1*
X1901245Y2451029D1*
X1903185Y2447616D1*
X1904847Y2444060D1*
X1906221Y2440383D1*
X1907299Y2436608D1*
X1908074Y2432760D1*
X1908540Y2428862D1*
X1908696Y2424950D1*
X1908539Y2421017D1*
X1808539D2*
X1808071Y2417120D1*
X1807294Y2413272D1*
X1806215Y2409497D1*
X1804839Y2405821D1*
X1803175Y2402265D1*
X1801234Y2398853D1*
X1799028Y2395606D1*
X1796572Y2392544D1*
X1793879Y2389688D1*
X1790968Y2387054D1*
X1787857Y2384660D1*
X1784566Y2382520D1*
X1781115Y2380649D1*
X1777527Y2379058D1*
X1773823Y2377757D1*
X1770028Y2376754D1*
X1766165Y2376056D1*
X1762258Y2375667D1*
X1758333Y2375590D1*
X1754415Y2375825D1*
X1750527Y2376370D1*
X1746696Y2377223D1*
X1742944Y2378377D1*
X1739295Y2379826D1*
X1735773Y2381560D1*
X1732400Y2383568D1*
X1729198Y2385838D1*
X1726186Y2388356D1*
X1723383Y2391104D1*
X1720807Y2394067D1*
X1718476Y2397225D1*
X1716402Y2400558D1*
X1714600Y2404045D1*
X1713080Y2407665D1*
X1711853Y2411394D1*
X1710926Y2415208D1*
X1710305Y2419085D1*
X1709994Y2422998D1*
X1709995Y2426923D1*
X1710308Y2430836D1*
X1710930Y2434712D1*
X1711859Y2438526D1*
X1713087Y2442255D1*
X1714608Y2445874D1*
X1716412Y2449360D1*
X1718487Y2452693D1*
X1720820Y2455850D1*
X1723397Y2458811D1*
X1726201Y2461559D1*
X1729214Y2464075D1*
X1732418Y2466343D1*
X1735792Y2468350D1*
X1739314Y2470083D1*
X1742963Y2471530D1*
X1746716Y2472683D1*
X1750548Y2473534D1*
X1754436Y2474077D1*
X1758354Y2474311D1*
X1762279Y2474232D1*
X1766185Y2473841D1*
X1770048Y2473142D1*
X1773843Y2472138D1*
X1777546Y2470835D1*
X1781134Y2469242D1*
X1784584Y2467370D1*
X1787874Y2465229D1*
X1790984Y2462833D1*
X1793894Y2460198D1*
X1796585Y2457340D1*
X1799041Y2454278D1*
X1801245Y2451029D1*
X1803185Y2447616D1*
X1804847Y2444060D1*
X1806221Y2440383D1*
X1807299Y2436608D1*
X1808074Y2432760D1*
X1808540Y2428862D1*
X1808696Y2424950D1*
X1808539Y2421017D1*
X1708539D2*
X1708071Y2417120D1*
X1707294Y2413272D1*
X1706215Y2409497D1*
X1704839Y2405821D1*
X1703175Y2402265D1*
X1701234Y2398853D1*
X1699028Y2395606D1*
X1696572Y2392544D1*
X1693879Y2389688D1*
X1690968Y2387054D1*
X1687857Y2384660D1*
X1684566Y2382520D1*
X1681115Y2380649D1*
X1677527Y2379058D1*
X1673823Y2377757D1*
X1670028Y2376754D1*
X1666165Y2376056D1*
X1662258Y2375667D1*
X1658333Y2375590D1*
X1654415Y2375825D1*
X1650527Y2376370D1*
X1646696Y2377223D1*
X1642944Y2378377D1*
X1639295Y2379826D1*
X1635773Y2381560D1*
X1632400Y2383568D1*
X1629198Y2385838D1*
X1626186Y2388356D1*
X1623383Y2391104D1*
X1620807Y2394067D1*
X1618476Y2397225D1*
X1616402Y2400558D1*
X1614600Y2404045D1*
X1613080Y2407665D1*
X1611853Y2411394D1*
X1610926Y2415208D1*
X1610305Y2419085D1*
X1609994Y2422998D1*
X1609995Y2426923D1*
X1610308Y2430836D1*
X1610930Y2434712D1*
X1611859Y2438526D1*
X1613087Y2442255D1*
X1614608Y2445874D1*
X1616412Y2449360D1*
X1618487Y2452693D1*
X1620820Y2455850D1*
X1623397Y2458811D1*
X1626201Y2461559D1*
X1629214Y2464075D1*
X1632418Y2466343D1*
X1635792Y2468350D1*
X1639314Y2470083D1*
X1642963Y2471530D1*
X1646716Y2472683D1*
X1650548Y2473534D1*
X1654436Y2474077D1*
X1658354Y2474311D1*
X1662279Y2474232D1*
X1666185Y2473841D1*
X1670048Y2473142D1*
X1673843Y2472138D1*
X1677546Y2470835D1*
X1681134Y2469242D1*
X1684584Y2467370D1*
X1687874Y2465229D1*
X1690984Y2462833D1*
X1693894Y2460198D1*
X1696585Y2457340D1*
X1699041Y2454278D1*
X1701245Y2451029D1*
X1703185Y2447616D1*
X1704847Y2444060D1*
X1706221Y2440383D1*
X1707299Y2436608D1*
X1708074Y2432760D1*
X1708540Y2428862D1*
X1708696Y2424950D1*
X1708539Y2421017D1*
X2716345Y2355555D2*
X2717401Y2355990D1*
X2720718Y2358014D1*
X2723678Y2360532D1*
X2726207Y2363482D1*
X2728244Y2366792D1*
X2729738Y2370379D1*
X2730652Y2374156D1*
X2730965Y2378076D1*
X2730667Y2381903D1*
X2729767Y2385684D1*
X2728287Y2389277D1*
X2726263Y2392594D1*
X2723745Y2395553D1*
X2720795Y2398083D1*
X2717485Y2400119D1*
X2713898Y2401613D1*
X2710121Y2402528D1*
X2706248Y2402840D1*
X2702373Y2402542D1*
X2698593Y2401642D1*
X2695000Y2400162D1*
X2691683Y2398138D1*
X2688724Y2395620D1*
X2686194Y2392670D1*
X2684158Y2389361D1*
X2683683Y2388222D1*
X2683556Y2388097D1*
X2682500Y2387662D1*
X2679183Y2385638D1*
X2676224Y2383120D1*
X2673694Y2380170D1*
X2671658Y2376861D1*
X2671183Y2375722D1*
X2671056Y2375597D1*
X2670000Y2375162D1*
X2666683Y2373138D1*
X2663724Y2370620D1*
X2661194Y2367670D1*
X2659158Y2364361D1*
X2657664Y2360773D1*
X2656749Y2356997D1*
X2656437Y2353123D1*
X2656735Y2349249D1*
X2657635Y2345469D1*
X2659115Y2341876D1*
X2661139Y2338558D1*
X2663657Y2335599D1*
X2666607Y2333070D1*
X2669916Y2331033D1*
X2673504Y2329539D1*
X2677280Y2328625D1*
X2681154Y2328312D1*
X2685028Y2328610D1*
X2688808Y2329510D1*
X2692401Y2330990D1*
X2695718Y2333014D1*
X2698678Y2335532D1*
X2701207Y2338482D1*
X2703244Y2341792D1*
X2703718Y2342930D1*
X2703845Y2343055D1*
X2704901Y2343490D1*
X2708218Y2345514D1*
X2711178Y2348032D1*
X2713707Y2350982D1*
X2715744Y2354292D1*
X2716218Y2355430D1*
X2381100Y2330196D2*
X2379433Y2329510D1*
X2375653Y2328610D1*
X2371778Y2328312D1*
X2367905Y2328625D1*
X2364128Y2329539D1*
X2362548Y2330197D1*
X2362350Y2330196D1*
X2360684Y2329510D1*
X2356903Y2328610D1*
X2353029Y2328312D1*
X2349156Y2328625D1*
X2345379Y2329539D1*
X2341792Y2331033D1*
X2338482Y2333070D1*
X2335532Y2335599D1*
X2333014Y2338558D1*
X2330990Y2341876D1*
X2329510Y2345469D1*
X2328610Y2349249D1*
X2328312Y2353123D1*
X2328625Y2356997D1*
X2329539Y2360773D1*
X2331033Y2364361D1*
X2333070Y2367670D1*
X2335599Y2370620D1*
X2338558Y2373138D1*
X2341876Y2375162D1*
X2345469Y2376642D1*
X2349249Y2377542D1*
X2353123Y2377840D1*
X2356997Y2377528D1*
X2360773Y2376613D1*
X2362353Y2375955D1*
X2362551Y2375956D1*
X2364218Y2376642D1*
X2367998Y2377542D1*
X2371873Y2377840D1*
X2375746Y2377528D1*
X2379523Y2376613D1*
X2381103Y2375955D1*
X2381301Y2375956D1*
X2382967Y2376642D1*
X2386747Y2377542D1*
X2390622Y2377840D1*
X2394495Y2377528D1*
X2398272Y2376613D1*
X2401859Y2375119D1*
X2405169Y2373083D1*
X2408119Y2370553D1*
X2410637Y2367594D1*
X2412661Y2364277D1*
X2414141Y2360684D1*
X2415041Y2356903D1*
X2415339Y2353076D1*
X2415026Y2349156D1*
X2414112Y2345379D1*
X2412618Y2341792D1*
X2410581Y2338482D1*
X2408052Y2335532D1*
X2405092Y2333014D1*
X2401775Y2330990D1*
X2398182Y2329510D1*
X2394402Y2328610D1*
X2390528Y2328312D1*
X2386654Y2328625D1*
X2382878Y2329539D1*
X2381298Y2330197D1*
X1359248Y2129168D2*
X1360684Y2129510D1*
X1364277Y2130990D1*
X1367594Y2133014D1*
X1367851Y2133233D1*
X1630171D1*
X1626104Y2129168D1*
X1359533D1*
X2943600Y2027070D2*
X2941933Y2026384D1*
X2938153Y2025484D1*
X2934278Y2025186D1*
X2930405Y2025499D1*
X2926628Y2026413D1*
X2925048Y2027071D1*
X2924850Y2027070D1*
X2923184Y2026384D1*
X2919403Y2025484D1*
X2915529Y2025186D1*
X2911656Y2025499D1*
X2907879Y2026413D1*
X2904292Y2027907D1*
X2900982Y2029944D1*
X2898032Y2032473D1*
X2895514Y2035432D1*
X2893490Y2038750D1*
X2892010Y2042343D1*
X2891110Y2046123D1*
X2890812Y2049997D1*
X2891125Y2053871D1*
X2892039Y2057647D1*
X2893533Y2061235D1*
X2895570Y2064544D1*
X2898099Y2067494D1*
X2901058Y2070012D1*
X2904376Y2072036D1*
X2907969Y2073516D1*
X2911749Y2074416D1*
X2915623Y2074714D1*
X2919497Y2074402D1*
X2923273Y2073487D1*
X2924853Y2072829D1*
X2925051Y2072830D1*
X2926718Y2073516D1*
X2930498Y2074416D1*
X2934373Y2074714D1*
X2938246Y2074402D1*
X2942023Y2073487D1*
X2943603Y2072829D1*
X2943802Y2072830D1*
X2945469Y2073516D1*
X2949249Y2074416D1*
X2953123Y2074714D1*
X2956997Y2074402D1*
X2960773Y2073487D1*
X2964361Y2071993D1*
X2967670Y2069957D1*
X2970620Y2067427D1*
X2973138Y2064468D1*
X2975162Y2061151D1*
X2976642Y2057558D1*
X2977542Y2053777D1*
X2977840Y2049950D1*
X2977528Y2046030D1*
X2976613Y2042253D1*
X2975119Y2038666D1*
X2973083Y2035356D1*
X2970553Y2032406D1*
X2967594Y2029888D1*
X2964277Y2027864D1*
X2960684Y2026384D1*
X2956903Y2025484D1*
X2953029Y2025186D1*
X2949156Y2025499D1*
X2945379Y2026413D1*
X2943799Y2027071D1*
X1469022Y2010420D2*
X1469249Y2013246D1*
X1470164Y2017023D1*
X1471658Y2020610D1*
X1473694Y2023919D1*
X1476224Y2026869D1*
X1476359Y2026985D1*
X1423469Y2026983D1*
X1274100Y2026982D1*
X1273843Y2026763D1*
X1270526Y2024739D1*
X1266933Y2023259D1*
X1263153Y2022359D1*
X1259278Y2022062D1*
X1255405Y2022374D1*
X1251628Y2023288D1*
X1248041Y2024782D1*
X1244732Y2026819D1*
X1244539Y2026984D1*
X1044730Y2026983D1*
X1061292Y2010419D1*
X1468965D1*
X656100Y1740526D2*
X654433Y1739839D1*
X650653Y1738939D1*
X646778Y1738642D1*
X642905Y1738954D1*
X639128Y1739868D1*
X637548Y1740526D1*
X637350D1*
X635684Y1739839D1*
X631903Y1738939D1*
X628029Y1738642D1*
X624156Y1738954D1*
X620379Y1739868D1*
X618799Y1740526D1*
X618600D1*
X616933Y1739839D1*
X613153Y1738939D1*
X609278Y1738642D1*
X605405Y1738954D1*
X601628Y1739868D1*
X600048Y1740526D1*
X599850D1*
X598184Y1739839D1*
X594403Y1738939D1*
X590529Y1738642D1*
X586656Y1738954D1*
X582879Y1739868D1*
X581299Y1740526D1*
X581100D1*
X579433Y1739839D1*
X575653Y1738939D1*
X571778Y1738642D1*
X567905Y1738954D1*
X564128Y1739868D1*
X562548Y1740526D1*
X562350D1*
X560684Y1739839D1*
X556903Y1738939D1*
X553029Y1738642D1*
X549156Y1738954D1*
X545379Y1739868D1*
X543799Y1740526D1*
X543599Y1740525D1*
X543080Y1740312D1*
X543028Y1740222D1*
X542238Y1736958D1*
X540744Y1733370D1*
X538707Y1730061D1*
X536178Y1727111D1*
X533218Y1724593D1*
X529901Y1722569D1*
X526308Y1721089D1*
X524134Y1720571D1*
X524036Y1720469D1*
X523489Y1718208D1*
X522831Y1716628D1*
Y1716428D1*
X523518Y1714761D1*
X524418Y1710981D1*
X524715Y1707154D1*
X524403Y1703233D1*
X523489Y1699456D1*
X522831Y1697876D1*
Y1697680D1*
X523518Y1696013D1*
X524418Y1692233D1*
X524715Y1688406D1*
X524403Y1684485D1*
X523489Y1680708D1*
X522831Y1679128D1*
Y1678928D1*
X523518Y1677261D1*
X524418Y1673481D1*
X524715Y1669654D1*
X524403Y1665733D1*
X523489Y1661956D1*
X521995Y1658369D1*
X519958Y1655060D1*
X517429Y1652110D1*
X514469Y1649592D1*
X511152Y1647568D1*
X507559Y1646087D1*
X503779Y1645187D1*
X499904Y1644890D1*
X496031Y1645202D1*
X492254Y1646116D1*
X488667Y1647610D1*
X485358Y1649647D1*
X482408Y1652176D1*
X479889Y1655136D1*
X477865Y1658453D1*
X476385Y1662046D1*
X475485Y1665826D1*
X475188Y1669701D1*
X475500Y1673574D1*
X476414Y1677351D1*
X477072Y1678931D1*
Y1679131D1*
X476385Y1680798D1*
X475485Y1684578D1*
X475188Y1688453D1*
X475500Y1692326D1*
X476414Y1696103D1*
X477072Y1697683D1*
Y1697879D1*
X476385Y1699546D1*
X475485Y1703326D1*
X475188Y1707201D1*
X475500Y1711074D1*
X476414Y1714851D1*
X477072Y1716431D1*
Y1716631D1*
X476385Y1718298D1*
X475485Y1722078D1*
X475188Y1725953D1*
X475500Y1729826D1*
X476414Y1733603D1*
X477908Y1737190D1*
X479945Y1740499D1*
X482474Y1743449D1*
X485434Y1745967D1*
X488751Y1747992D1*
X492344Y1749472D1*
X494518Y1749989D1*
X494616Y1750091D1*
X495164Y1752352D1*
X496658Y1755939D1*
X498694Y1759249D1*
X501224Y1762199D1*
X504183Y1764717D1*
X507500Y1766741D1*
X509946Y1767748D1*
X509998Y1767839D1*
X510788Y1771103D1*
X512282Y1774690D1*
X514319Y1777999D1*
X516848Y1780949D1*
X519808Y1783467D1*
X523125Y1785492D1*
X526718Y1786972D1*
X530498Y1787872D1*
X534373Y1788169D1*
X538246Y1787857D1*
X542023Y1786943D1*
X543603Y1786285D1*
X543802D1*
X545469Y1786972D1*
X549249Y1787872D1*
X553123Y1788169D1*
X556997Y1787857D1*
X560773Y1786943D1*
X562353Y1786285D1*
X562551D1*
X564218Y1786972D1*
X567998Y1787872D1*
X571873Y1788169D1*
X575746Y1787857D1*
X579523Y1786943D1*
X581103Y1786285D1*
X581302D1*
X582969Y1786972D1*
X586749Y1787872D1*
X590623Y1788169D1*
X594497Y1787857D1*
X598273Y1786943D1*
X599853Y1786285D1*
X600051D1*
X601718Y1786972D1*
X605498Y1787872D1*
X609373Y1788169D1*
X613246Y1787857D1*
X617023Y1786943D1*
X618603Y1786285D1*
X618802D1*
X620469Y1786972D1*
X624249Y1787872D1*
X628123Y1788169D1*
X631997Y1787857D1*
X635773Y1786943D1*
X637353Y1786285D1*
X637551D1*
X639218Y1786972D1*
X642998Y1787872D1*
X646873Y1788169D1*
X650746Y1787857D1*
X654523Y1786943D1*
X656103Y1786285D1*
X656302D1*
X657969Y1786972D1*
X661749Y1787872D1*
X665623Y1788169D1*
X669497Y1787857D1*
X673273Y1786943D1*
X676861Y1785449D1*
X680170Y1783412D1*
X683120Y1780883D1*
X685638Y1777923D1*
X687662Y1774606D1*
X689142Y1771013D1*
X689897Y1767842D1*
X689952Y1767753D1*
X692485Y1766698D1*
X695795Y1764661D1*
X698745Y1762132D1*
X701263Y1759172D1*
X703287Y1755855D1*
X704767Y1752262D1*
X705285Y1750088D1*
X705380Y1749992D1*
X707649Y1749443D1*
X711236Y1747949D1*
X714545Y1745912D1*
X717495Y1743383D1*
X720013Y1740423D1*
X722037Y1737106D1*
X723518Y1733513D1*
X724418Y1729733D1*
X724715Y1725906D1*
X724403Y1721985D1*
X723489Y1718208D1*
X722831Y1716628D1*
Y1716428D1*
X723518Y1714761D1*
X724418Y1710981D1*
X724715Y1707154D1*
X724403Y1703233D1*
X723489Y1699456D1*
X722831Y1697876D1*
Y1697680D1*
X723518Y1696013D1*
X724418Y1692233D1*
X724715Y1688406D1*
X724403Y1684485D1*
X723489Y1680708D1*
X722831Y1679128D1*
Y1678928D1*
X723518Y1677261D1*
X724418Y1673481D1*
X724715Y1669654D1*
X724403Y1665733D1*
X723489Y1661956D1*
X721995Y1658369D1*
X719958Y1655060D1*
X717429Y1652110D1*
X714469Y1649592D1*
X711152Y1647568D1*
X707559Y1646087D1*
X703779Y1645187D1*
X699904Y1644890D1*
X696031Y1645202D1*
X692254Y1646116D1*
X688667Y1647610D1*
X685358Y1649647D1*
X682408Y1652176D1*
X679889Y1655136D1*
X677865Y1658453D1*
X676385Y1662046D1*
X675485Y1665826D1*
X675188Y1669701D1*
X675500Y1673574D1*
X676414Y1677351D1*
X677072Y1678931D1*
Y1679131D1*
X676385Y1680798D1*
X675485Y1684578D1*
X675188Y1688453D1*
X675500Y1692326D1*
X676414Y1696103D1*
X677072Y1697683D1*
Y1697879D1*
X676385Y1699546D1*
X675485Y1703326D1*
X675188Y1707201D1*
X675500Y1711074D1*
X676414Y1714851D1*
X677072Y1716431D1*
Y1716631D1*
X676385Y1718298D1*
X675868Y1720472D1*
X675772Y1720569D1*
X673504Y1721118D1*
X669916Y1722612D1*
X666607Y1724648D1*
X663657Y1727178D1*
X661139Y1730137D1*
X659115Y1733454D1*
X657635Y1737047D1*
X656880Y1740218D1*
X656823Y1740308D1*
X656302Y1740525D1*
X1680197Y1709227D2*
X1679539Y1707647D1*
X1678625Y1703871D1*
X1678312Y1699997D1*
X1678610Y1696123D1*
X1679510Y1692343D1*
X1680990Y1688750D1*
X1683014Y1685432D1*
X1685532Y1682473D1*
X1688482Y1679944D1*
X1691792Y1677907D1*
X1695379Y1676413D1*
X1699156Y1675499D1*
X1703029Y1675186D1*
X1706903Y1675484D1*
X1710684Y1676384D1*
X1714277Y1677864D1*
X1717594Y1679888D1*
X1720553Y1682406D1*
X1723083Y1685356D1*
X1725119Y1688666D1*
X1726613Y1692253D1*
X1727528Y1696030D1*
X1727840Y1699950D1*
X1727542Y1703777D1*
X1726642Y1707558D1*
X1725956Y1709224D1*
X1725955Y1709425D1*
X1726613Y1711005D1*
X1727528Y1714782D1*
X1727840Y1718702D1*
X1727542Y1722529D1*
X1726642Y1726310D1*
X1725956Y1727976D1*
X1725955Y1728174D1*
X1726613Y1729754D1*
X1727528Y1733531D1*
X1727840Y1737451D1*
X1727542Y1741279D1*
X1726642Y1745059D1*
X1725162Y1748652D1*
X1723138Y1751969D1*
X1720620Y1754929D1*
X1717670Y1757458D1*
X1714361Y1759495D1*
X1710773Y1760989D1*
X1706997Y1761903D1*
X1703123Y1762215D1*
X1699249Y1761918D1*
X1695469Y1761018D1*
X1691876Y1759537D1*
X1688558Y1757513D1*
X1685599Y1754995D1*
X1683070Y1752045D1*
X1681033Y1748736D1*
X1679539Y1745149D1*
X1678625Y1741372D1*
X1678312Y1737499D1*
X1678610Y1733624D1*
X1679510Y1729844D1*
X1680196Y1728177D1*
X1680197Y1727979D1*
X1679539Y1726399D1*
X1678625Y1722623D1*
X1678312Y1718749D1*
X1678610Y1714875D1*
X1679510Y1711095D1*
X1680196Y1709428D1*
X3106100Y1630195D2*
X3104433Y1629509D1*
X3100653Y1628609D1*
X3096778Y1628311D1*
X3092905Y1628623D1*
X3089128Y1629538D1*
X3085541Y1631032D1*
X3082232Y1633068D1*
X3079282Y1635598D1*
X3076763Y1638557D1*
X3074739Y1641874D1*
X3073259Y1645467D1*
X3072359Y1649247D1*
X3072062Y1653122D1*
X3072374Y1656995D1*
X3073288Y1660772D1*
X3074782Y1664359D1*
X3076819Y1667669D1*
X3079348Y1670619D1*
X3082308Y1673137D1*
X3085625Y1675161D1*
X3089218Y1676641D1*
X3092998Y1677541D1*
X3096873Y1677839D1*
X3100746Y1677526D1*
X3104523Y1676612D1*
X3106103Y1675954D1*
X3106302D1*
X3107969Y1676641D1*
X3111749Y1677541D1*
X3115623Y1677839D1*
X3119497Y1677526D1*
X3123273Y1676612D1*
X3124853Y1675954D1*
X3125053D1*
X3126719Y1676641D1*
X3130499Y1677541D1*
X3134374Y1677839D1*
X3138247Y1677526D1*
X3142024Y1676612D1*
X3145611Y1675118D1*
X3148921Y1673081D1*
X3151871Y1670552D1*
X3154389Y1667592D1*
X3156413Y1664275D1*
X3157893Y1660682D1*
X3158793Y1656902D1*
X3159091Y1653075D1*
X3158778Y1649154D1*
X3157864Y1645378D1*
X3156370Y1641790D1*
X3154333Y1638481D1*
X3151804Y1635531D1*
X3148844Y1633013D1*
X3145527Y1630989D1*
X3141934Y1629509D1*
X3138154Y1628609D1*
X3134280Y1628311D1*
X3130406Y1628623D1*
X3126630Y1629538D1*
X3125050Y1630196D1*
X3124850Y1630195D1*
X3123184Y1629509D1*
X3119403Y1628609D1*
X3115529Y1628311D1*
X3111656Y1628623D1*
X3107879Y1629538D1*
X3106299Y1630196D1*
X2945886Y1528332D2*
X2945205Y1528365D1*
X2944420Y1528429D1*
X2943638Y1528518D1*
X2942858Y1528632D1*
X2942083Y1528771D1*
X2941313Y1528934D1*
X2940611Y1529105D1*
X2941191Y1528860D1*
X2941906Y1528531D1*
X2942611Y1528179D1*
X2943304Y1527805D1*
X2943985Y1527410D1*
X2944652Y1526993D1*
X2945307Y1526554D1*
X2945947Y1526096D1*
X2946572Y1525617D1*
X2949420Y1522973D1*
X2951819Y1519917D1*
X2953711Y1516522D1*
X2955048Y1512874D1*
X2955531Y1510420D1*
X2965490Y1510421D1*
X2965365Y1510625D1*
X2963885Y1514218D1*
X2962985Y1517998D1*
X2962688Y1521873D1*
X2963000Y1525746D1*
X2963299Y1526981D1*
X2953094Y1526983D1*
X2952585Y1526989D1*
X2948681Y1527476D1*
X3279621Y1551469D2*
X3358168Y1472919D1*
X3366426D1*
X3366683Y1473138D1*
X3370000Y1475162D1*
X3373593Y1476642D1*
X3377373Y1477542D1*
X3381248Y1477840D1*
X3385121Y1477528D1*
X3388898Y1476613D1*
X3392485Y1475119D1*
X3395795Y1473083D1*
X3398745Y1470553D1*
X3401263Y1467594D1*
X3403287Y1464277D1*
X3404767Y1460684D1*
X3405667Y1456903D1*
X3405965Y1453076D1*
X3405652Y1449156D1*
X3405353Y1447920D1*
X3413610Y1447921D1*
X3426983Y1461292D1*
X3426979Y1583700D1*
X3385172Y1583701D1*
X3219109D1*
Y1733622D1*
X3275718D1*
X3257359Y1751983D1*
X2576918Y1751981D1*
X2365055Y1540121D1*
X2365028Y1539780D1*
X2364113Y1536004D1*
X2362619Y1532416D1*
X2360583Y1529107D1*
X2358053Y1526157D1*
X2355094Y1523639D1*
X2351777Y1521615D1*
X2348184Y1520135D1*
X2344403Y1519235D1*
X2340529Y1518937D1*
X2336656Y1519249D1*
X2332879Y1520164D1*
X2329292Y1521658D1*
X2325982Y1523694D1*
X2325789Y1523860D1*
X2254105Y1523858D1*
X2330041Y1447919D1*
X3170796Y1447920D1*
X3147983Y1470733D1*
X2946335Y1470740D1*
X2942434Y1471225D1*
X2938706Y1472471D1*
X2935297Y1474426D1*
X2932795Y1476545D1*
X2927617Y1481722D1*
X2927280Y1481749D1*
X2923504Y1482664D1*
X2919916Y1484158D1*
X2916607Y1486194D1*
X2913657Y1488724D1*
X2911139Y1491683D1*
X2909115Y1495000D1*
X2907635Y1498593D1*
X2906735Y1502373D1*
X2906437Y1506248D1*
X2906749Y1510121D1*
X2907664Y1513898D1*
X2909158Y1517485D1*
X2911194Y1520795D1*
X2913724Y1523745D1*
X2916683Y1526263D1*
X2920000Y1528287D1*
X2923593Y1529767D1*
X2927373Y1530667D1*
X2931248Y1530965D1*
X2932035Y1530951D1*
X2932822Y1530911D1*
X2933606Y1530847D1*
X2934389Y1530759D1*
X2935168Y1530645D1*
X2935943Y1530506D1*
X2936713Y1530343D1*
X2937415Y1530172D1*
X2936835Y1530417D1*
X2936120Y1530746D1*
X2935415Y1531098D1*
X2934722Y1531471D1*
X2934042Y1531867D1*
X2933374Y1532284D1*
X2932720Y1532722D1*
X2932080Y1533181D1*
X2931455Y1533660D1*
X2928607Y1536304D1*
X2926207Y1539360D1*
X2924315Y1542754D1*
X2922978Y1546403D1*
X2922227Y1550216D1*
X2922083Y1554099D1*
X2922547Y1557957D1*
X2923610Y1561695D1*
X2925244Y1565220D1*
X2927409Y1568447D1*
X2930053Y1571295D1*
X2933109Y1573694D1*
X2936504Y1575586D1*
X2940152Y1576924D1*
X2943965Y1577674D1*
X2947848Y1577819D1*
X2951706Y1577354D1*
X2955444Y1576292D1*
X2958970Y1574658D1*
X2962196Y1572492D1*
X2965044Y1569849D1*
X2967444Y1566792D1*
X2967512Y1566669D1*
X2978438D1*
X2978342Y1569912D1*
X2978836Y1573766D1*
X2979927Y1577496D1*
X2981588Y1581009D1*
X2983778Y1584219D1*
X2986443Y1587047D1*
X2989517Y1589423D1*
X2992926Y1591289D1*
X2996585Y1592599D1*
X3000403Y1593320D1*
X3004287Y1593435D1*
X3008142Y1592941D1*
X3011871Y1591850D1*
X3015384Y1590189D1*
X3018594Y1587999D1*
X3021422Y1585334D1*
X3023798Y1582259D1*
X3025664Y1578851D1*
X3026974Y1575192D1*
X3027516Y1572325D1*
X3042543Y1557294D1*
X3265576D1*
X3269487Y1556905D1*
X3273245Y1555752D1*
X3276705Y1553879D1*
X881100Y1352070D2*
X879433Y1351384D1*
X875653Y1350484D1*
X871778Y1350186D1*
X867905Y1350499D1*
X864128Y1351413D1*
X860541Y1352907D1*
X857232Y1354944D1*
X854282Y1357473D1*
X851763Y1360432D1*
X849739Y1363750D1*
X848259Y1367343D1*
X847359Y1371123D1*
X847062Y1374997D1*
X847374Y1378871D1*
X848288Y1382647D1*
X849782Y1386235D1*
X851819Y1389544D1*
X854348Y1392494D1*
X857308Y1395012D1*
X860625Y1397036D1*
X864218Y1398516D1*
X867998Y1399416D1*
X871873Y1399714D1*
X875746Y1399402D1*
X879523Y1398487D1*
X881103Y1397829D1*
X881302Y1397830D1*
X882969Y1398516D1*
X886749Y1399416D1*
X890623Y1399714D1*
X894497Y1399402D1*
X898273Y1398487D1*
X899853Y1397829D1*
X900051Y1397830D1*
X901718Y1398516D1*
X905498Y1399416D1*
X909373Y1399714D1*
X913246Y1399402D1*
X917023Y1398487D1*
X920610Y1396993D1*
X923919Y1394957D1*
X926869Y1392427D1*
X929387Y1389468D1*
X931412Y1386151D1*
X932892Y1382558D1*
X933792Y1378777D1*
X934089Y1374950D1*
X933777Y1371030D1*
X932863Y1367253D1*
X931369Y1363666D1*
X929332Y1360356D1*
X926803Y1357406D1*
X923843Y1354888D1*
X920526Y1352864D1*
X916933Y1351384D1*
X913153Y1350484D1*
X909278Y1350186D1*
X905405Y1350499D1*
X901628Y1351413D1*
X900048Y1352071D1*
X899850Y1352070D1*
X898184Y1351384D1*
X894403Y1350484D1*
X890529Y1350186D1*
X886656Y1350499D1*
X882879Y1351413D1*
X881299Y1352071D1*
X3491198Y1361716D2*
X3494969Y1362837D1*
X3498441Y1364680D1*
X3501482Y1367170D1*
X3610843Y1476531D1*
X3613255Y1479449D1*
X3615126Y1482906D1*
X3616279Y1486664D1*
X3616668Y1490575D1*
Y1583701D1*
X3626983Y1583702D1*
X3626985Y1492547D1*
X3382354Y1247919D1*
X2342542Y1247921D1*
X2296321Y1294142D1*
X2297528Y1294235D1*
X2301308Y1295135D1*
X2302975Y1295821D1*
X2303173Y1295822D1*
X2304753Y1295164D1*
X2308530Y1294249D1*
X2312403Y1293937D1*
X2316277Y1294235D1*
X2320058Y1295135D1*
X2323651Y1296615D1*
X2326968Y1298639D1*
X2329927Y1301157D1*
X2332457Y1304107D1*
X2334493Y1307416D1*
X2335987Y1311004D1*
X2336902Y1314780D1*
X2337214Y1318701D1*
X2336916Y1322528D1*
X2336016Y1326308D1*
X2334536Y1329901D1*
X2332512Y1333218D1*
X2329994Y1336178D1*
X2327044Y1338707D1*
X2323735Y1340744D1*
X2320147Y1342238D1*
X2316371Y1343152D1*
X2312497Y1343465D1*
X2308623Y1343167D1*
X2304843Y1342267D1*
X2303176Y1341580D1*
X2302978D1*
X2301398Y1342238D1*
X2297621Y1343152D1*
X2293748Y1343465D1*
X2289873Y1343167D1*
X2286093Y1342267D1*
X2284427Y1341580D1*
X2284227D1*
X2282647Y1342238D1*
X2278871Y1343152D1*
X2274997Y1343465D1*
X2271123Y1343167D1*
X2267343Y1342267D1*
X2263750Y1340787D1*
X2260432Y1338763D1*
X2257473Y1336245D1*
X2255969Y1334490D1*
X2250046Y1340417D1*
X2229102Y1361358D1*
X2389158D1*
X2388914Y1360773D1*
X2388000Y1356997D1*
X2387688Y1353123D1*
X2387985Y1349249D1*
X2388885Y1345469D1*
X2389572Y1343802D1*
X2389571Y1343603D1*
X2388913Y1342023D1*
X2387999Y1338246D1*
X2387686Y1334373D1*
X2387984Y1330498D1*
X2388884Y1326718D1*
X2390364Y1323125D1*
X2392388Y1319808D1*
X2394906Y1316848D1*
X2397856Y1314319D1*
X2401166Y1312282D1*
X2404753Y1310788D1*
X2408530Y1309874D1*
X2412403Y1309562D1*
X2416277Y1309859D1*
X2420058Y1310759D1*
X2421724Y1311446D1*
X2421924D1*
X2423504Y1310788D1*
X2427280Y1309874D1*
X2431154Y1309562D1*
X2435028Y1309859D1*
X2438808Y1310759D1*
X2442401Y1312239D1*
X2445718Y1314263D1*
X2448678Y1316782D1*
X2451207Y1319732D1*
X2453244Y1323041D1*
X2454738Y1326628D1*
X2455652Y1330405D1*
X2455965Y1334325D1*
X2455667Y1338153D1*
X2454767Y1341933D1*
X2454080Y1343600D1*
Y1343799D1*
X2454738Y1345379D1*
X2455652Y1349156D1*
X2455965Y1353076D1*
X2455667Y1356903D1*
X2454767Y1360684D1*
X2454488Y1361361D1*
X2475638Y1361358D1*
X2592283D1*
X2592039Y1360773D1*
X2591125Y1356997D1*
X2590812Y1353123D1*
X2591110Y1349249D1*
X2592010Y1345469D1*
X2592696Y1343802D1*
X2592697Y1343603D1*
X2592039Y1342023D1*
X2591125Y1338246D1*
X2590812Y1334373D1*
X2591110Y1330498D1*
X2592010Y1326718D1*
X2592696Y1325051D1*
X2592697Y1324853D1*
X2592039Y1323273D1*
X2591125Y1319497D1*
X2590812Y1315623D1*
X2591110Y1311749D1*
X2592010Y1307969D1*
X2593490Y1304376D1*
X2595514Y1301058D1*
X2598032Y1298099D1*
X2600982Y1295570D1*
X2604292Y1293533D1*
X2607879Y1292039D1*
X2611656Y1291125D1*
X2615529Y1290812D1*
X2619403Y1291110D1*
X2623184Y1292010D1*
X2626777Y1293490D1*
X2630094Y1295514D1*
X2633053Y1298032D1*
X2635583Y1300982D1*
X2637619Y1304292D1*
X2639113Y1307879D1*
X2640028Y1311656D1*
X2640340Y1315576D1*
X2640042Y1319403D1*
X2639142Y1323184D1*
X2638456Y1324850D1*
X2638455Y1325048D1*
X2639113Y1326628D1*
X2640028Y1330405D1*
X2640340Y1334325D1*
X2640042Y1338153D1*
X2639142Y1341933D1*
X2638456Y1343600D1*
X2638455Y1343799D1*
X2639113Y1345379D1*
X2640028Y1349156D1*
X2640340Y1353076D1*
X2640042Y1356903D1*
X2639142Y1360684D1*
X2638863Y1361361D1*
X2664614Y1361358D1*
X3487432D1*
X2887378Y1309864D2*
X2886151Y1309115D1*
X2882558Y1307635D1*
X2878777Y1306735D1*
X2874903Y1306437D1*
X2871030Y1306749D1*
X2867253Y1307664D1*
X2863666Y1309158D1*
X2862518Y1309864D1*
X2862378D1*
X2861151Y1309115D1*
X2857558Y1307635D1*
X2853777Y1306735D1*
X2849903Y1306437D1*
X2846030Y1306749D1*
X2842253Y1307664D1*
X2838666Y1309158D1*
X2835356Y1311194D1*
X2832406Y1313724D1*
X2829888Y1316683D1*
X2827864Y1320000D1*
X2826384Y1323593D1*
X2825484Y1327373D1*
X2825186Y1331248D1*
X2825499Y1335121D1*
X2826413Y1338898D1*
X2827907Y1342485D1*
X2829944Y1345795D1*
X2832473Y1348745D1*
X2835432Y1351263D1*
X2838750Y1353287D1*
X2842343Y1354767D1*
X2846123Y1355667D1*
X2849997Y1355965D1*
X2853871Y1355652D1*
X2857647Y1354738D1*
X2861235Y1353244D1*
X2862382Y1352538D1*
X2862522D1*
X2863750Y1353287D1*
X2867343Y1354767D1*
X2871123Y1355667D1*
X2874997Y1355965D1*
X2878871Y1355652D1*
X2882647Y1354738D1*
X2886235Y1353244D1*
X2887382Y1352538D1*
X2887522D1*
X2888750Y1353287D1*
X2892343Y1354767D1*
X2896123Y1355667D1*
X2899997Y1355965D1*
X2903871Y1355652D1*
X2907647Y1354738D1*
X2911235Y1353244D1*
X2914544Y1351207D1*
X2917494Y1348678D1*
X2920012Y1345718D1*
X2922036Y1342401D1*
X2923516Y1338808D1*
X2924416Y1335028D1*
X2924714Y1331201D1*
X2924402Y1327280D1*
X2923487Y1323504D1*
X2921993Y1319916D1*
X2919957Y1316607D1*
X2917427Y1313657D1*
X2914468Y1311139D1*
X2911151Y1309115D1*
X2907558Y1307635D1*
X2903777Y1306735D1*
X2899903Y1306437D1*
X2896030Y1306749D1*
X2892253Y1307664D1*
X2888666Y1309158D1*
X2887518Y1309864D1*
X555899Y1245178D2*
X555109Y1243592D1*
X553943Y1239885D1*
X553370Y1236042D1*
X553406Y1232156D1*
X554050Y1228324D1*
X555285Y1224639D1*
X555897Y1223465D1*
X555873Y1223353D1*
X554538Y1220147D1*
X553623Y1216371D1*
X553311Y1212497D1*
X553609Y1208623D1*
X554509Y1204843D1*
X555989Y1201250D1*
X558013Y1197932D1*
X560531Y1194973D1*
X563481Y1192444D1*
X566790Y1190407D1*
X570378Y1188913D1*
X574154Y1187999D1*
X578028Y1187686D1*
X581902Y1187984D1*
X585682Y1188884D1*
X588984Y1190244D1*
X589047Y1190248D1*
X592253Y1188913D1*
X596030Y1187999D1*
X599903Y1187686D1*
X603777Y1187984D1*
X607558Y1188884D1*
X610859Y1190244D1*
X610923Y1190248D1*
X614128Y1188913D1*
X617905Y1187999D1*
X621778Y1187686D1*
X625653Y1187984D1*
X629433Y1188884D1*
X633026Y1190364D1*
X636343Y1192388D1*
X639303Y1194906D1*
X641832Y1197856D1*
X643869Y1201166D1*
X645363Y1204753D1*
X646277Y1208530D1*
X646589Y1212450D1*
X646517Y1214339D1*
X645918Y1218179D1*
X644725Y1221877D1*
X644003Y1223302D1*
X644028Y1223424D1*
X645363Y1226630D1*
X646277Y1230406D1*
X646589Y1234327D1*
X646531Y1236028D1*
X645960Y1239872D1*
X644796Y1243579D1*
X644000Y1245179D1*
X644028Y1245298D1*
X645363Y1248504D1*
X646277Y1252280D1*
X646589Y1256201D1*
X646517Y1258090D1*
X645918Y1261929D1*
X644725Y1265628D1*
X642968Y1269094D1*
X640691Y1272243D1*
X637949Y1274996D1*
X634810Y1277287D1*
X631352Y1279059D1*
X627659Y1280268D1*
X624568Y1280764D1*
X623848Y1284568D1*
X622538Y1288226D1*
X621290Y1290506D1*
X621287Y1290644D1*
X621993Y1291792D1*
X623487Y1295379D1*
X624402Y1299156D1*
X624714Y1303076D1*
X624416Y1306903D1*
X623516Y1310684D1*
X622036Y1314277D1*
X621287Y1315504D1*
Y1315646D1*
X621993Y1316793D1*
X623487Y1320380D1*
X624402Y1324157D1*
X624495Y1325332D1*
X624567Y1325403D1*
X625653Y1325487D1*
X629433Y1326386D1*
X633026Y1327867D1*
X636343Y1329891D1*
X639303Y1332409D1*
X641832Y1335359D1*
X643869Y1338668D1*
X645363Y1342256D1*
X646277Y1346032D1*
X646589Y1349953D1*
X646517Y1351842D1*
X645918Y1355681D1*
X644725Y1359380D1*
X644003Y1360805D1*
X644028Y1360925D1*
X645363Y1364131D1*
X646277Y1367908D1*
X646589Y1371828D1*
X646464Y1374314D1*
X645772Y1378138D1*
X644490Y1381806D1*
X644010Y1382698D1*
X644028Y1382797D1*
X645363Y1386002D1*
X646277Y1389779D1*
X646589Y1393699D1*
X646517Y1395589D1*
X645918Y1399428D1*
X644725Y1403126D1*
X642968Y1406592D1*
X640691Y1409741D1*
X637949Y1412495D1*
X634810Y1414786D1*
X631352Y1416558D1*
X627659Y1417766D1*
X623822Y1418383D1*
X619936Y1418391D1*
X616097Y1417792D1*
X612399Y1416599D1*
X610974Y1415877D1*
X610807Y1415874D1*
X608745Y1416849D1*
X605016Y1417940D1*
X601161Y1418434D1*
X597277Y1418319D1*
X593459Y1417597D1*
X589800Y1416288D1*
X589071Y1415888D1*
X588932Y1415874D1*
X587514Y1416594D1*
X583817Y1417788D1*
X579978Y1418390D1*
X576092Y1418384D1*
X572255Y1417770D1*
X568561Y1416563D1*
X565101Y1414793D1*
X561961Y1412504D1*
X559218Y1409752D1*
X556939Y1406604D1*
X555181Y1403139D1*
X553986Y1399441D1*
X553384Y1395602D1*
X553391Y1391716D1*
X554005Y1387879D1*
X555211Y1384186D1*
X555898Y1382844D1*
X555897Y1382679D1*
X555181Y1381268D1*
X553986Y1377570D1*
X553384Y1373731D1*
X553391Y1369845D1*
X554005Y1366008D1*
X555211Y1362314D1*
X555898Y1360973D1*
X555873Y1360855D1*
X554538Y1357650D1*
X553623Y1353873D1*
X553311Y1350000D1*
X553609Y1346125D1*
X554509Y1342345D1*
X555989Y1338752D1*
X558013Y1335435D1*
X560531Y1332475D1*
X563481Y1329946D1*
X566790Y1327909D1*
X570378Y1326416D1*
X574154Y1325501D1*
X575331Y1325406D1*
X575401Y1325336D1*
X575484Y1324250D1*
X576384Y1320470D1*
X577864Y1316877D1*
X578613Y1315649D1*
Y1315508D1*
X577907Y1314361D1*
X576413Y1310773D1*
X575499Y1306997D1*
X575186Y1303123D1*
X575484Y1299249D1*
X576384Y1295469D1*
X577864Y1291876D1*
X578613Y1290648D1*
X578584Y1290563D1*
X578462Y1290384D1*
X576801Y1286871D1*
X575710Y1283142D1*
X575412Y1280819D1*
X575331Y1280763D1*
X572255Y1280271D1*
X568561Y1279064D1*
X565101Y1277294D1*
X561961Y1275005D1*
X559218Y1272253D1*
X556939Y1269105D1*
X555181Y1265640D1*
X553986Y1261943D1*
X553384Y1258104D1*
X553391Y1254218D1*
X554005Y1250381D1*
X555211Y1246687D1*
X555898Y1245346D1*
X1516311Y1701743D2*
X1515189Y1705514D1*
X1513347Y1708986D1*
X1510856Y1712027D1*
X1465062Y1757822D1*
X1465042Y1758073D1*
X1464142Y1761853D1*
X1462662Y1765446D1*
X1460638Y1768763D1*
X1458120Y1771723D1*
X1455170Y1774252D1*
X1451861Y1776289D1*
X1448273Y1777783D1*
X1444497Y1778697D1*
X1440623Y1779009D1*
X1436749Y1778712D1*
X1432969Y1777812D1*
X1429376Y1776331D1*
X1426058Y1774307D1*
X1423099Y1771789D1*
X1420570Y1768839D1*
X1418533Y1765530D1*
X1417039Y1761943D1*
X1416125Y1758166D1*
X1415812Y1754293D1*
X1416110Y1750418D1*
X1417010Y1746638D1*
X1418490Y1743045D1*
X1420514Y1739728D1*
X1423032Y1736768D1*
X1425982Y1734239D1*
X1429292Y1732202D1*
X1432879Y1730708D1*
X1436656Y1729794D1*
X1436992Y1729767D1*
X1476983Y1689780D1*
X1476984Y1539421D1*
X1468252Y1530686D1*
X1467998Y1530667D1*
X1464218Y1529767D1*
X1460625Y1528287D1*
X1457308Y1526263D1*
X1454348Y1523745D1*
X1451819Y1520795D1*
X1449782Y1517485D1*
X1448288Y1513898D1*
X1447374Y1510121D1*
X1447062Y1506248D1*
X1447359Y1502373D1*
X1448259Y1498593D1*
X1449739Y1495000D1*
X1451763Y1491683D1*
X1454282Y1488724D1*
X1457232Y1486194D1*
X1460541Y1484158D1*
X1464128Y1482664D1*
X1467905Y1481749D1*
X1471778Y1481437D1*
X1475653Y1481735D1*
X1479433Y1482635D1*
X1483026Y1484115D1*
X1486343Y1486139D1*
X1489303Y1488657D1*
X1491832Y1491607D1*
X1493869Y1494916D1*
X1495363Y1498504D1*
X1496277Y1502280D1*
X1496304Y1502621D1*
X1510844Y1517158D1*
X1513255Y1520075D1*
X1515126Y1523532D1*
X1516279Y1527290D1*
X1516668Y1531201D1*
Y1697977D1*
X3975753Y1888821D2*
X3977626Y1892281D1*
X3978779Y1896039D1*
X3979168Y1899950D1*
Y2171806D1*
X3978810Y2175576D1*
X3977689Y2179343D1*
X3975847Y2182815D1*
X3973356Y2185856D1*
X3801495Y2357718D1*
X3798576Y2360131D1*
X3795119Y2362002D1*
X3791361Y2363154D1*
X3787450Y2363543D1*
X3689737Y2363542D1*
X3689544Y2363707D1*
X3686235Y2365744D1*
X3682647Y2367238D1*
X3678871Y2368152D1*
X3674997Y2368465D1*
X3671123Y2368167D1*
X3667343Y2367267D1*
X3663750Y2365787D1*
X3660432Y2363763D1*
X3657473Y2361245D1*
X3654944Y2358295D1*
X3652907Y2354985D1*
X3651413Y2351398D1*
X3650499Y2347621D1*
X3650186Y2343748D1*
X3650484Y2339873D1*
X3651384Y2336093D1*
X3652864Y2332500D1*
X3654888Y2329183D1*
X3657406Y2326224D1*
X3660356Y2323694D1*
X3663666Y2321658D1*
X3667253Y2320164D1*
X3671030Y2319249D1*
X3674903Y2318937D1*
X3678777Y2319235D1*
X3682558Y2320135D1*
X3686151Y2321615D1*
X3689468Y2323639D1*
X3689725Y2323858D1*
X3765482Y2323856D1*
X3765408Y2323736D1*
X3763914Y2320149D1*
X3763000Y2316372D1*
X3762688Y2312499D1*
X3762985Y2308624D1*
X3763885Y2304844D1*
X3765365Y2301251D1*
X3767389Y2297934D1*
X3769908Y2294974D1*
X3772858Y2292445D1*
X3776167Y2290408D1*
X3779754Y2288914D1*
X3783531Y2288000D1*
X3783868Y2287973D1*
X3829346Y2242492D1*
X3826819Y2239545D1*
X3824782Y2236236D1*
X3823288Y2232649D1*
X3822374Y2228872D1*
X3822062Y2224999D1*
X3822359Y2221124D1*
X3823259Y2217344D1*
X3824739Y2213751D1*
X3826763Y2210434D1*
X3826982Y2210177D1*
X3826981Y2103701D1*
X3816665D1*
X3816668Y2112960D1*
Y2140576D1*
X3816397Y2143843D1*
X3815369Y2147637D1*
X3813614Y2151154D1*
X3811196Y2154258D1*
X3810313Y2155150D1*
X3754607Y2210856D1*
X3752105Y2212975D1*
X3748696Y2214931D1*
X3744968Y2216176D1*
X3741063Y2216662D1*
X3739138Y2216668D1*
X3345978Y2216669D1*
X3346277Y2217905D1*
X3346589Y2221825D1*
X3346292Y2225653D1*
X3345392Y2229433D1*
X3343912Y2233026D1*
X3341887Y2236343D1*
X3339369Y2239303D1*
X3336419Y2241832D1*
X3333110Y2243869D1*
X3329523Y2245363D1*
X3325746Y2246277D1*
X3321873Y2246589D1*
X3317998Y2246292D1*
X3314218Y2245392D1*
X3310625Y2243912D1*
X3307308Y2241887D1*
X3304348Y2239369D1*
X3301819Y2236419D1*
X3299782Y2233110D1*
X3298288Y2229523D1*
X3297374Y2225746D1*
X3297062Y2221873D1*
X3297359Y2217998D1*
X3297677Y2216665D1*
X3258823Y2216668D1*
X2821825D1*
X2818558Y2216397D1*
X2814765Y2215369D1*
X2811248Y2213614D1*
X2808144Y2211196D1*
X2806004Y2209066D1*
X2669856Y2072919D1*
X2290595Y2072917D1*
X2290731Y2073032D1*
X2293260Y2075982D1*
X2295297Y2079292D1*
X2296790Y2082879D1*
X2297705Y2086656D1*
X2298017Y2090576D1*
X2297720Y2094403D1*
X2296820Y2098184D1*
X2295339Y2101777D1*
X2293315Y2105094D1*
X2290797Y2108053D1*
X2287847Y2110583D1*
X2284538Y2112619D1*
X2280951Y2114113D1*
X2277174Y2115028D1*
X2273300Y2115340D1*
X2269426Y2115042D1*
X2265646Y2114142D1*
X2263923Y2113433D1*
X2267587Y2117095D1*
X2269998Y2120012D1*
X2271869Y2123469D1*
X2273022Y2127227D1*
X2273411Y2131138D1*
X2273409Y2131998D1*
X2273575Y2132191D1*
X2275611Y2135500D1*
X2277105Y2139088D1*
X2278020Y2142864D1*
X2278332Y2146785D1*
X2278166Y2149645D1*
X2277416Y2153458D1*
X2276078Y2157106D1*
X2274187Y2160501D1*
X2271787Y2163557D1*
X2268939Y2166201D1*
X2265712Y2168366D1*
X2262187Y2170000D1*
X2258449Y2171063D1*
X2254591Y2171527D1*
X2250708Y2171383D1*
X2246895Y2170632D1*
X2243247Y2169295D1*
X2239852Y2167403D1*
X2236796Y2165004D1*
X2236225Y2164461D1*
X2235672Y2163901D1*
X2235137Y2163323D1*
X2234620Y2162729D1*
X2234123Y2162119D1*
X2233645Y2161493D1*
X2233322Y2161040D1*
X2233481Y2161652D1*
X2233652Y2162425D1*
X2234024Y2165523D1*
X2234205Y2165733D1*
X2236241Y2169042D1*
X2237735Y2172630D1*
X2238650Y2176406D1*
X2238962Y2180327D1*
X2238664Y2184154D1*
X2237764Y2187934D1*
X2236284Y2191527D1*
X2234260Y2194844D1*
X2231742Y2197804D1*
X2228792Y2200333D1*
X2225483Y2202370D1*
X2221895Y2203864D1*
X2218119Y2204778D1*
X2214245Y2205091D1*
X2210371Y2204793D1*
X2206591Y2203893D1*
X2202998Y2202413D1*
X2199681Y2200389D1*
X2196721Y2197871D1*
X2194192Y2194921D1*
X2192155Y2191611D1*
X2190661Y2188024D1*
X2189747Y2184247D1*
X2189434Y2180374D1*
X2189732Y2176499D1*
X2190632Y2172719D1*
X2191183Y2171382D1*
X2190706Y2170903D1*
X2188704Y2174184D1*
X2186186Y2177144D1*
X2183236Y2179673D1*
X2179926Y2181710D1*
X2176339Y2183204D1*
X2172562Y2184118D1*
X2168689Y2184430D1*
X2165363Y2184175D1*
X2178524Y2197341D1*
X2178777Y2197361D1*
X2182558Y2198260D1*
X2186151Y2199741D1*
X2189468Y2201765D1*
X2192427Y2204283D1*
X2194957Y2207233D1*
X2196993Y2210542D1*
X2198487Y2214130D1*
X2199402Y2217906D1*
X2199714Y2221827D1*
X2199416Y2225654D1*
X2198516Y2229434D1*
X2197036Y2233027D1*
X2195012Y2236344D1*
X2192494Y2239304D1*
X2189544Y2241833D1*
X2186235Y2243870D1*
X2182647Y2245364D1*
X2178871Y2246278D1*
X2174997Y2246591D1*
X2171123Y2246293D1*
X2167343Y2245393D1*
X2163750Y2243913D1*
X2160432Y2241889D1*
X2157473Y2239371D1*
X2154944Y2236421D1*
X2152907Y2233111D1*
X2151413Y2229524D1*
X2150499Y2225747D1*
X2150472Y2225411D1*
X2116728Y2191668D1*
X1995672Y2191666D1*
X1910858Y2276481D1*
X1908356Y2278600D1*
X1904946Y2280555D1*
X1901218Y2281801D1*
X1897314Y2282286D1*
X1894284Y2282293D1*
X1133488Y2282291D1*
X1133295Y2282457D1*
X1129985Y2284493D1*
X1126398Y2285987D1*
X1122621Y2286902D1*
X1118748Y2287214D1*
X1114873Y2286916D1*
X1111093Y2286016D1*
X1107500Y2284536D1*
X1104183Y2282512D1*
X1101224Y2279994D1*
X1098694Y2277044D1*
X1096658Y2273735D1*
X1095164Y2270147D1*
X1094249Y2266371D1*
X1093937Y2262497D1*
X1094235Y2258623D1*
X1095135Y2254843D1*
X1096615Y2251250D1*
X1098639Y2247932D1*
X1101157Y2244973D1*
X1104107Y2242444D1*
X1107416Y2240407D1*
X1111004Y2238913D1*
X1114780Y2237999D1*
X1118654Y2237686D1*
X1122528Y2237984D1*
X1126308Y2238884D1*
X1129901Y2240364D1*
X1133218Y2242388D1*
X1133476Y2242607D1*
X1140972Y2242609D1*
X1140812Y2240623D1*
X1141110Y2236749D1*
X1142010Y2232969D1*
X1143490Y2229376D1*
X1145514Y2226058D1*
X1148032Y2223099D1*
X1150982Y2220570D1*
X1154292Y2218533D1*
X1157879Y2217039D1*
X1161656Y2216125D1*
X1165529Y2215812D1*
X1169403Y2216110D1*
X1173184Y2217010D1*
X1176777Y2218490D1*
X1180094Y2220514D1*
X1180351Y2220733D1*
X1187846Y2220734D1*
X1187686Y2218748D1*
X1187984Y2214873D1*
X1188884Y2211093D1*
X1190364Y2207500D1*
X1192388Y2204183D1*
X1194906Y2201224D1*
X1197856Y2198694D1*
X1201166Y2196658D1*
X1204753Y2195164D1*
X1208530Y2194249D1*
X1212403Y2193937D1*
X1216277Y2194235D1*
X1220058Y2195135D1*
X1223651Y2196615D1*
X1226968Y2198639D1*
X1227225Y2198858D1*
X1234722D1*
X1234562Y2196873D1*
X1234859Y2192998D1*
X1235759Y2189218D1*
X1237239Y2185625D1*
X1239263Y2182308D1*
X1241782Y2179348D1*
X1244732Y2176819D1*
X1248041Y2174782D1*
X1251628Y2173288D1*
X1255405Y2172374D1*
X1259278Y2172062D1*
X1263153Y2172359D1*
X1266933Y2173259D1*
X1270526Y2174739D1*
X1273843Y2176763D1*
X1274100Y2176982D1*
X1281597Y2176983D1*
X1281437Y2174997D1*
X1281735Y2171123D1*
X1282635Y2167343D1*
X1284115Y2163750D1*
X1286139Y2160432D1*
X1288657Y2157473D1*
X1291607Y2154944D1*
X1294916Y2152907D1*
X1298504Y2151413D1*
X1302280Y2150499D1*
X1306154Y2150186D1*
X1310028Y2150484D1*
X1313808Y2151384D1*
X1317401Y2152864D1*
X1320718Y2154888D1*
X1320976Y2155107D1*
X1328472Y2155109D1*
X1328312Y2153123D1*
X1328610Y2149249D1*
X1329510Y2145469D1*
X1330990Y2141876D1*
X1333014Y2138558D1*
X1335532Y2135599D1*
X1338482Y2133070D1*
X1341792Y2131033D1*
X1345379Y2129539D1*
X1346910Y2129168D1*
X1059017D1*
X1057647Y2129738D1*
X1053871Y2130652D1*
X1053534Y2130679D1*
X1017118Y2167094D1*
X1014201Y2169506D1*
X1010744Y2171377D1*
X1006986Y2172529D1*
X1003075Y2172919D1*
X780363Y2172917D1*
X780170Y2173083D1*
X776861Y2175119D1*
X773273Y2176613D1*
X769497Y2177528D1*
X765623Y2177840D1*
X761749Y2177542D1*
X757969Y2176642D1*
X754376Y2175162D1*
X751058Y2173138D1*
X748099Y2170620D1*
X745570Y2167670D1*
X743533Y2164361D1*
X742039Y2160773D1*
X741125Y2156997D1*
X740812Y2153123D1*
X741110Y2149249D1*
X741427Y2147916D1*
X736611Y2147917D1*
X736418Y2148083D1*
X733109Y2150119D1*
X729521Y2151613D1*
X725745Y2152528D1*
X721871Y2152840D1*
X717997Y2152542D1*
X714217Y2151642D1*
X710624Y2150162D1*
X707307Y2148138D1*
X704347Y2145620D1*
X701818Y2142670D1*
X699781Y2139361D1*
X698287Y2135773D1*
X697373Y2131997D1*
X697060Y2128123D1*
X697358Y2124249D1*
X698258Y2120469D1*
X699738Y2116876D1*
X701762Y2113558D1*
X704280Y2110599D1*
X707230Y2108070D1*
X710540Y2106033D1*
X714127Y2104539D1*
X717904Y2103625D1*
X721777Y2103312D1*
X725652Y2103610D1*
X729432Y2104510D1*
X733025Y2105990D1*
X736342Y2108014D1*
X736599Y2108233D1*
X741424Y2108232D1*
X741125Y2106997D1*
X740812Y2103123D1*
X741110Y2099249D1*
X741427Y2097916D1*
X736611Y2097917D1*
X736418Y2098083D1*
X733109Y2100119D1*
X729521Y2101613D1*
X725745Y2102528D1*
X721871Y2102840D1*
X717997Y2102542D1*
X714217Y2101642D1*
X710624Y2100162D1*
X707307Y2098138D1*
X704347Y2095620D1*
X701818Y2092670D1*
X699781Y2089361D1*
X698287Y2085773D1*
X697373Y2081997D1*
X697060Y2078123D1*
X697358Y2074249D1*
X698258Y2070469D1*
X699738Y2066876D1*
X701762Y2063558D1*
X704280Y2060599D1*
X707230Y2058070D1*
X710540Y2056033D1*
X714127Y2054539D1*
X717904Y2053625D1*
X721777Y2053312D1*
X725652Y2053610D1*
X729432Y2054510D1*
X733025Y2055990D1*
X736342Y2058014D1*
X736599Y2058233D1*
X741424Y2058232D1*
X741125Y2056997D1*
X740812Y2053123D1*
X741110Y2049249D1*
X741427Y2047916D1*
X736612Y2047917D1*
X736419Y2048083D1*
X733110Y2050119D1*
X729523Y2051613D1*
X725746Y2052528D1*
X721873Y2052840D1*
X717998Y2052542D1*
X714218Y2051642D1*
X710625Y2050162D1*
X707308Y2048138D1*
X704348Y2045620D1*
X701819Y2042670D1*
X699782Y2039361D1*
X698288Y2035773D1*
X697374Y2031997D1*
X697062Y2028123D1*
X697359Y2024249D1*
X698259Y2020469D1*
X699739Y2016876D1*
X701763Y2013558D1*
X704282Y2010599D1*
X707232Y2008070D1*
X710541Y2006033D1*
X714128Y2004539D1*
X717905Y2003625D1*
X721778Y2003312D1*
X725653Y2003610D1*
X729433Y2004510D1*
X733026Y2005990D1*
X736343Y2008014D1*
X736600Y2008233D1*
X741424Y2008232D1*
X741125Y2006997D1*
X740812Y2003123D1*
X741110Y1999249D1*
X741427Y1997916D1*
X736611Y1997917D1*
X736418Y1998083D1*
X733109Y2000119D1*
X729521Y2001613D1*
X725745Y2002528D1*
X721871Y2002840D1*
X717997Y2002542D1*
X714217Y2001642D1*
X710624Y2000162D1*
X707307Y1998138D1*
X704347Y1995620D1*
X701818Y1992670D1*
X699781Y1989361D1*
X698287Y1985773D1*
X697373Y1981997D1*
X697060Y1978123D1*
X697358Y1974249D1*
X698258Y1970469D1*
X699738Y1966876D1*
X701762Y1963558D1*
X704280Y1960599D1*
X707230Y1958070D1*
X710540Y1956033D1*
X714127Y1954539D1*
X717904Y1953625D1*
X721777Y1953312D1*
X725652Y1953610D1*
X729432Y1954510D1*
X733025Y1955990D1*
X736342Y1958014D1*
X736599Y1958233D1*
X741424Y1958231D1*
X741125Y1956995D1*
X740812Y1953122D1*
X741110Y1949247D1*
X742010Y1945467D1*
X742289Y1944790D1*
X736611Y1944791D1*
X736418Y1944957D1*
X733109Y1946993D1*
X729521Y1948487D1*
X725745Y1949402D1*
X721871Y1949714D1*
X717997Y1949416D1*
X714217Y1948516D1*
X710624Y1947036D1*
X707307Y1945012D1*
X704347Y1942494D1*
X701818Y1939544D1*
X699781Y1936235D1*
X698287Y1932647D1*
X697373Y1928871D1*
X697060Y1924997D1*
X697358Y1921123D1*
X698258Y1917343D1*
X699738Y1913750D1*
X701762Y1910432D1*
X704280Y1907473D1*
X707230Y1904944D1*
X710540Y1902907D1*
X714127Y1901413D1*
X717904Y1900499D1*
X721777Y1900186D1*
X725652Y1900484D1*
X729432Y1901384D1*
X733025Y1902864D1*
X736342Y1904888D1*
X736599Y1905107D1*
X741424Y1905106D1*
X741125Y1903871D1*
X740812Y1899997D1*
X741110Y1896123D1*
X741427Y1894790D1*
X736612Y1894791D1*
X736419Y1894957D1*
X733110Y1896993D1*
X729523Y1898487D1*
X725746Y1899402D1*
X721873Y1899714D1*
X717998Y1899416D1*
X714218Y1898516D1*
X710625Y1897036D1*
X707308Y1895012D1*
X704348Y1892494D1*
X701819Y1889544D1*
X699782Y1886235D1*
X698288Y1882647D1*
X697374Y1878871D1*
X697062Y1874997D1*
X697359Y1871123D1*
X698259Y1867343D1*
X699739Y1863750D1*
X701763Y1860432D1*
X704282Y1857473D1*
X707232Y1854944D1*
X710541Y1852907D1*
X714128Y1851413D1*
X717905Y1850499D1*
X721778Y1850186D1*
X725653Y1850484D1*
X729433Y1851384D1*
X733026Y1852864D1*
X736343Y1854888D1*
X736600Y1855107D1*
X741424Y1855106D1*
X741125Y1853871D1*
X740812Y1849997D1*
X741110Y1846123D1*
X741427Y1844790D1*
X736612Y1844791D1*
X736419Y1844957D1*
X733110Y1846993D1*
X729523Y1848487D1*
X725746Y1849402D1*
X721873Y1849714D1*
X717998Y1849416D1*
X714218Y1848516D1*
X710625Y1847036D1*
X707308Y1845012D1*
X704348Y1842494D1*
X701819Y1839544D1*
X699782Y1836235D1*
X698288Y1832647D1*
X697374Y1828871D1*
X697062Y1824997D1*
X697359Y1821123D1*
X698259Y1817343D1*
X699739Y1813750D1*
X701763Y1810432D1*
X704282Y1807473D1*
X707232Y1804944D1*
X710541Y1802907D1*
X714128Y1801413D1*
X717905Y1800499D1*
X721778Y1800186D1*
X725653Y1800484D1*
X729433Y1801384D1*
X733026Y1802864D1*
X736343Y1804888D1*
X736600Y1805107D1*
X741424Y1805106D1*
X741125Y1803871D1*
X740812Y1799997D1*
X741110Y1796123D1*
X741427Y1794790D1*
X736612Y1794791D1*
X736419Y1794957D1*
X733110Y1796993D1*
X729523Y1798487D1*
X725746Y1799402D1*
X721873Y1799714D1*
X717998Y1799416D1*
X714218Y1798516D1*
X710625Y1797036D1*
X707308Y1795012D1*
X704348Y1792494D1*
X701819Y1789544D1*
X699782Y1786235D1*
X698288Y1782647D1*
X697374Y1778871D1*
X697062Y1774997D1*
X697359Y1771123D1*
X698259Y1767343D1*
X699739Y1763750D1*
X701763Y1760432D1*
X704282Y1757473D1*
X707232Y1754944D1*
X710541Y1752907D1*
X714128Y1751413D1*
X717905Y1750499D1*
X721778Y1750186D1*
X725653Y1750484D1*
X729433Y1751384D1*
X733026Y1752864D1*
X736343Y1754888D1*
X736600Y1755107D1*
X741424Y1755106D1*
X741125Y1753871D1*
X740812Y1749997D1*
X741110Y1746123D1*
X742010Y1742343D1*
X743490Y1738750D1*
X745514Y1735432D1*
X748032Y1732473D1*
X750982Y1729944D1*
X754292Y1727907D1*
X757879Y1726413D1*
X761656Y1725499D1*
X765529Y1725186D1*
X769403Y1725484D1*
X773184Y1726384D1*
X776777Y1727864D1*
X780094Y1729888D1*
X780351Y1730107D1*
X941731Y1730108D1*
X942609Y1729235D1*
Y1706201D1*
X942880Y1702933D1*
X943908Y1699140D1*
X945663Y1695623D1*
X948081Y1692519D1*
X950881Y1689710D1*
X1098421Y1542170D1*
X1100923Y1540051D1*
X1104332Y1538095D1*
X1108060Y1536850D1*
X1111964Y1536364D1*
X1114449Y1536358D1*
X1347663Y1536360D1*
X1347856Y1536194D1*
X1351166Y1534158D1*
X1354753Y1532664D1*
X1358530Y1531749D1*
X1362403Y1531437D1*
X1366277Y1531735D1*
X1370058Y1532635D1*
X1373651Y1534115D1*
X1376968Y1536139D1*
X1379927Y1538657D1*
X1382457Y1541607D1*
X1384493Y1544916D1*
X1385987Y1548504D1*
X1386902Y1552280D1*
X1387214Y1556201D1*
X1386916Y1560028D1*
X1386016Y1563808D1*
X1384536Y1567401D1*
X1382512Y1570718D1*
X1379994Y1573678D1*
X1377044Y1576207D1*
X1373735Y1578244D1*
X1370147Y1579738D1*
X1366371Y1580652D1*
X1362497Y1580965D1*
X1358623Y1580667D1*
X1354843Y1579767D1*
X1351250Y1578287D1*
X1347932Y1576263D1*
X1347675Y1576044D1*
X1340670Y1576046D1*
X1340744Y1576166D1*
X1342238Y1579753D1*
X1343152Y1583530D1*
X1343465Y1587450D1*
X1343167Y1591277D1*
X1342267Y1595058D1*
X1340787Y1598651D1*
X1338763Y1601968D1*
X1336245Y1604927D1*
X1333295Y1607457D1*
X1329985Y1609493D1*
X1326398Y1610987D1*
X1322621Y1611902D1*
X1318748Y1612214D1*
X1314873Y1611916D1*
X1311093Y1611016D1*
X1307500Y1609536D1*
X1304183Y1607512D1*
X1303926Y1607293D1*
X1296916Y1607290D1*
X1296993Y1607416D1*
X1298487Y1611004D1*
X1299402Y1614780D1*
X1299714Y1618701D1*
X1299416Y1622528D1*
X1298516Y1626308D1*
X1297036Y1629901D1*
X1295012Y1633218D1*
X1292494Y1636178D1*
X1289544Y1638707D1*
X1286235Y1640744D1*
X1282647Y1642238D1*
X1278871Y1643152D1*
X1274997Y1643465D1*
X1271123Y1643167D1*
X1267343Y1642267D1*
X1263750Y1640787D1*
X1260432Y1638763D1*
X1260175Y1638544D1*
X1253170Y1638546D1*
X1253244Y1638666D1*
X1254738Y1642253D1*
X1255652Y1646030D1*
X1255965Y1649950D1*
X1255667Y1653777D1*
X1254767Y1657558D1*
X1253287Y1661151D1*
X1251263Y1664468D1*
X1248745Y1667427D1*
X1245795Y1669957D1*
X1242485Y1671993D1*
X1238898Y1673487D1*
X1235121Y1674402D1*
X1231248Y1674714D1*
X1227373Y1674416D1*
X1223593Y1673516D1*
X1220000Y1672036D1*
X1216683Y1670012D1*
X1216426Y1669793D1*
X1209417Y1669792D1*
X1209495Y1669918D1*
X1210989Y1673505D1*
X1211903Y1677282D1*
X1212215Y1681202D1*
X1211918Y1685029D1*
X1211018Y1688810D1*
X1209537Y1692403D1*
X1207513Y1695720D1*
X1204995Y1698679D1*
X1202045Y1701209D1*
X1198736Y1703245D1*
X1195149Y1704739D1*
X1191372Y1705654D1*
X1187499Y1705966D1*
X1183624Y1705668D1*
X1179844Y1704768D1*
X1176251Y1703288D1*
X1172934Y1701264D1*
X1172677Y1701045D1*
X1165672Y1701047D1*
X1165745Y1701167D1*
X1167239Y1704754D1*
X1168154Y1708531D1*
X1168466Y1712451D1*
X1168168Y1716279D1*
X1167268Y1720059D1*
X1165788Y1723652D1*
X1163764Y1726969D1*
X1161246Y1729929D1*
X1158296Y1732458D1*
X1154987Y1734495D1*
X1151399Y1735989D1*
X1147623Y1736903D1*
X1143749Y1737215D1*
X1139875Y1736918D1*
X1136095Y1736018D1*
X1132502Y1734537D1*
X1129184Y1732513D1*
X1128927Y1732295D1*
X1121921Y1732297D1*
X1121995Y1732416D1*
X1123489Y1736004D1*
X1124403Y1739780D1*
X1124715Y1743701D1*
X1124418Y1747528D1*
X1123518Y1751308D1*
X1122037Y1754901D1*
X1120013Y1758218D1*
X1117495Y1761178D1*
X1114545Y1763707D1*
X1113792Y1764171D1*
X1097856Y1780109D1*
X1815654D1*
X1814218Y1779767D1*
X1810625Y1778287D1*
X1807308Y1776263D1*
X1804348Y1773745D1*
X1801819Y1770795D1*
X1799782Y1767485D1*
X1798288Y1763898D1*
X1797374Y1760121D1*
X1797062Y1756248D1*
X1797359Y1752373D1*
X1798259Y1748593D1*
X1799739Y1745000D1*
X1801763Y1741683D1*
X1804282Y1738724D1*
X1807232Y1736194D1*
X1810541Y1734158D1*
X1814128Y1732664D1*
X1817905Y1731749D1*
X1821778Y1731437D1*
X1825653Y1731735D1*
X1829433Y1732635D1*
X1833026Y1734115D1*
X1836343Y1736139D1*
X1836600Y1736358D1*
X1885735Y1736360D1*
X1885599Y1736245D1*
X1883070Y1733295D1*
X1881033Y1729985D1*
X1879539Y1726398D1*
X1878625Y1722621D1*
X1878312Y1718748D1*
X1878610Y1714873D1*
X1879510Y1711093D1*
X1880990Y1707500D1*
X1883014Y1704183D1*
X1885532Y1701224D1*
X1888482Y1698694D1*
X1891792Y1696658D1*
X1895379Y1695164D1*
X1899156Y1694249D1*
X1903029Y1693937D1*
X1906903Y1694235D1*
X1910684Y1695135D1*
X1914277Y1696615D1*
X1917594Y1698639D1*
X1917851Y1698858D1*
X1952241Y1698860D1*
X1951058Y1698138D1*
X1948099Y1695620D1*
X1945570Y1692670D1*
X1943533Y1689361D1*
X1942039Y1685773D1*
X1941125Y1681997D1*
X1940812Y1678123D1*
X1940972Y1676046D1*
X1898797Y1676043D1*
X1879607Y1695232D1*
X1877105Y1697351D1*
X1873695Y1699306D1*
X1869967Y1700551D1*
X1866063Y1701037D1*
X1864446Y1701043D1*
X1839737Y1701042D1*
X1839544Y1701207D1*
X1836235Y1703244D1*
X1832647Y1704738D1*
X1828871Y1705652D1*
X1824997Y1705965D1*
X1821123Y1705667D1*
X1817343Y1704767D1*
X1813750Y1703287D1*
X1810432Y1701263D1*
X1807473Y1698745D1*
X1804944Y1695795D1*
X1802907Y1692485D1*
X1801413Y1688898D1*
X1800499Y1685121D1*
X1800186Y1681248D1*
X1800484Y1677373D1*
X1801384Y1673593D1*
X1802864Y1670000D1*
X1804888Y1666683D1*
X1807406Y1663724D1*
X1810356Y1661194D1*
X1811613Y1660421D1*
X1764644Y1660418D1*
X1762734Y1661785D1*
X1759259Y1663524D1*
X1755554Y1664697D1*
X1751712Y1665277D1*
X1747826Y1665249D1*
X1743993Y1664613D1*
X1740306Y1663385D1*
X1736857Y1661595D1*
X1733730Y1659288D1*
X1731002Y1656520D1*
X1728741Y1653360D1*
X1727002Y1649885D1*
X1725829Y1646180D1*
X1725249Y1642338D1*
X1725278Y1638452D1*
X1725914Y1634619D1*
X1727142Y1630932D1*
X1728931Y1627483D1*
X1731238Y1624356D1*
X1734006Y1621628D1*
X1737166Y1619367D1*
X1740642Y1617628D1*
X1744346Y1616455D1*
X1748188Y1615875D1*
X1752074Y1615904D1*
X1755908Y1616540D1*
X1756669Y1616741D1*
X1757423Y1616967D1*
X1758170Y1617216D1*
X1758908Y1617489D1*
X1759638Y1617786D1*
X1760357Y1618105D1*
X1761067Y1618448D1*
X1761764Y1618812D1*
X1762638Y1619312D1*
X1761891Y1618693D1*
X1761304Y1618169D1*
X1760733Y1617627D1*
X1760180Y1617066D1*
X1759645Y1616489D1*
X1759128Y1615894D1*
X1756867Y1612734D1*
X1755128Y1609259D1*
X1753955Y1605554D1*
X1753375Y1601712D1*
X1753404Y1597826D1*
X1754040Y1593993D1*
X1755267Y1590306D1*
X1757057Y1586857D1*
X1759364Y1583730D1*
X1762132Y1581002D1*
X1765292Y1578741D1*
X1768768Y1577002D1*
X1772472Y1575829D1*
X1776314Y1575249D1*
X1780200Y1575278D1*
X1784034Y1575914D1*
X1784795Y1576115D1*
X1785549Y1576341D1*
X1786296Y1576590D1*
X1787034Y1576863D1*
X1787764Y1577160D1*
X1788483Y1577479D1*
X1789192Y1577822D1*
X1789890Y1578186D1*
X1790757Y1578680D1*
X1790474Y1578454D1*
X1789874Y1577945D1*
X1789290Y1577416D1*
X1788724Y1576869D1*
X1786194Y1573919D1*
X1784158Y1570610D1*
X1782664Y1567023D1*
X1781749Y1563246D1*
X1781437Y1559373D1*
X1781735Y1555498D1*
X1782635Y1551718D1*
X1784115Y1548125D1*
X1786139Y1544808D1*
X1788657Y1541848D1*
X1791607Y1539319D1*
X1794916Y1537282D1*
X1798504Y1535788D1*
X1802280Y1534874D1*
X1806154Y1534562D1*
X1810028Y1534859D1*
X1813808Y1535759D1*
X1817401Y1537239D1*
X1820718Y1539263D1*
X1820976Y1539482D1*
X1929234Y1539481D1*
X2301532Y1167184D1*
X2304450Y1164771D1*
X2307907Y1162900D1*
X2311665Y1161748D1*
X2315576Y1161358D1*
X2806597D1*
X2806437Y1159373D1*
X2806735Y1155498D1*
X2807635Y1151718D1*
X2809115Y1148125D1*
X2811139Y1144808D1*
X2813657Y1141848D1*
X2816607Y1139319D1*
X2819916Y1137282D1*
X2823504Y1135788D1*
X2827280Y1134874D1*
X2831154Y1134562D1*
X2835028Y1134859D1*
X2838808Y1135759D1*
X2840475Y1136446D1*
X2840674D1*
X2842254Y1135788D1*
X2846031Y1134874D1*
X2849904Y1134562D1*
X2853779Y1134859D1*
X2857559Y1135759D1*
X2859226Y1136446D1*
X2859424D1*
X2861004Y1135788D1*
X2864780Y1134874D1*
X2868654Y1134562D1*
X2872528Y1134859D1*
X2876308Y1135759D1*
X2879901Y1137239D1*
X2883218Y1139263D1*
X2886178Y1141782D1*
X2888707Y1144732D1*
X2890744Y1148041D1*
X2892238Y1151628D1*
X2893152Y1155405D1*
X2893465Y1159325D1*
X2893307Y1161355D1*
X2906520Y1161358D1*
X3465557D1*
X3469327Y1161716D1*
X3473094Y1162837D1*
X3476566Y1164680D1*
X3479607Y1167170D1*
X3810843Y1498406D1*
X3813255Y1501324D1*
X3815126Y1504781D1*
X3816279Y1508539D1*
X3816668Y1512450D1*
Y1583701D1*
X3924542D1*
Y1733622D1*
X3916668Y1733620D1*
X3916667Y1829230D1*
X3973342Y1885905D1*
X1406781Y1549953D2*
X1406032Y1548735D1*
X1404538Y1545147D1*
X1403623Y1541371D1*
X1403311Y1537497D1*
X1403609Y1533623D1*
X1404509Y1529843D1*
X1405989Y1526250D1*
X1408013Y1522932D1*
X1410531Y1519973D1*
X1413481Y1517444D1*
X1416790Y1515407D1*
X1420378Y1513913D1*
X1424154Y1512999D1*
X1428028Y1512686D1*
X1431902Y1512984D1*
X1435682Y1513884D1*
X1439275Y1515364D1*
X1442592Y1517388D1*
X1445552Y1519906D1*
X1448081Y1522856D1*
X1450118Y1526166D1*
X1451612Y1529753D1*
X1452526Y1533530D1*
X1452839Y1537450D1*
X1452541Y1541277D1*
X1451641Y1545058D1*
X1450161Y1548651D1*
X1448137Y1551968D1*
X1446467Y1553930D1*
X1446466Y1682039D1*
X1446631Y1682232D1*
X1448668Y1685541D1*
X1450162Y1689128D1*
X1451076Y1692905D1*
X1451388Y1696825D1*
X1451091Y1700653D1*
X1450191Y1704433D1*
X1448711Y1708026D1*
X1446687Y1711343D1*
X1444169Y1714303D1*
X1441219Y1716832D1*
X1437909Y1718869D1*
X1434322Y1720363D1*
X1430545Y1721277D1*
X1426672Y1721589D1*
X1422797Y1721292D1*
X1419017Y1720392D1*
X1415424Y1718912D1*
X1412107Y1716887D1*
X1409147Y1714369D1*
X1406618Y1711419D1*
X1404581Y1708110D1*
X1403088Y1704523D1*
X1402173Y1700746D1*
X1401861Y1696873D1*
X1402158Y1692998D1*
X1403058Y1689218D1*
X1404539Y1685625D1*
X1406563Y1682308D1*
X1406782Y1682051D1*
Y1550091D1*
X1292607Y731183D2*
X1292604Y693810D1*
X1240617D1*
X1248992Y702181D1*
X1422315Y875504D1*
X1425329Y876091D1*
X1426084Y876314D1*
X1426832Y876561D1*
X1427571Y876831D1*
X1428302Y877125D1*
X1429022Y877441D1*
X1429733Y877781D1*
X1430432Y878143D1*
X1431120Y878527D1*
X1431794Y878932D1*
X1432456Y879359D1*
X1432743Y879554D1*
X1298419Y745230D1*
X1296300Y742728D1*
X1294345Y739319D1*
X1293099Y735591D1*
X1292614Y731686D1*
X2229974Y2154297D2*
X2229812Y2153775D1*
X2229601Y2153016D1*
X2229415Y2152251D1*
X2229254Y2151481D1*
X2229117Y2150705D1*
X2228805Y2146832D1*
X2229102Y2142957D1*
X2230002Y2139177D1*
X2231036Y2136668D1*
X2228940Y2134570D1*
X2228288Y2136152D1*
X2226264Y2139469D1*
X2223746Y2142429D1*
X2220850Y2144922D1*
X2228216Y2152289D1*
X2229695Y2153939D2*
X2229191Y2153334D1*
X2228663Y2152749D1*
X1690901Y1873858D2*
X1054103D1*
X1058170Y1869793D1*
X1685484Y1869795D1*
X1686272Y1870575D1*
X1689377Y1872991D1*
X1979043Y1698858D2*
X2001104Y1698859D1*
X2283298Y1416668D1*
X2217543Y1416670D1*
X1977674Y1656538D1*
X1980094Y1658014D1*
X1983053Y1660532D1*
X1985583Y1663482D1*
X1987619Y1666792D1*
X1989113Y1670379D1*
X1990028Y1674156D1*
X1990340Y1678076D1*
X1990042Y1681903D1*
X1989142Y1685684D1*
X1987662Y1689277D1*
X1985638Y1692594D1*
X1983120Y1695553D1*
X1980170Y1698083D1*
X1978913Y1698856D1*
X1941947Y2074149D2*
X1945407Y2072275D1*
X1949165Y2071123D1*
X1953076Y2070733D1*
X2185735Y2070736D1*
X2185599Y2070620D1*
X2183070Y2067670D1*
X2181033Y2064361D1*
X2179539Y2060773D1*
X2178625Y2056997D1*
X2178312Y2053123D1*
X2178610Y2049249D1*
X2179510Y2045469D1*
X2180990Y2041876D1*
X2183014Y2038558D1*
X2185532Y2035599D1*
X2188482Y2033070D1*
X2191792Y2031033D1*
X2195379Y2029539D1*
X2199156Y2028625D1*
X2203029Y2028312D1*
X2206903Y2028610D1*
X2210684Y2029510D1*
X2214277Y2030990D1*
X2217594Y2033014D1*
X2217851Y2033233D1*
X2231597Y2033234D1*
X2231437Y2031248D1*
X2231735Y2027373D1*
X2232635Y2023593D1*
X2232914Y2022916D1*
X2217863Y2022917D1*
X2217670Y2023083D1*
X2214361Y2025119D1*
X2210773Y2026613D1*
X2206997Y2027528D1*
X2203123Y2027840D1*
X2199249Y2027542D1*
X2195469Y2026642D1*
X2191876Y2025162D1*
X2188558Y2023138D1*
X2185599Y2020620D1*
X2183070Y2017670D1*
X2181033Y2014361D1*
X2179539Y2010773D1*
X2178625Y2006997D1*
X2178312Y2003123D1*
X2178610Y1999249D1*
X2179510Y1995469D1*
X2180990Y1991876D1*
X2183014Y1988558D1*
X2185532Y1985599D1*
X2188482Y1983070D1*
X2191792Y1981033D1*
X2195379Y1979539D1*
X2199156Y1978625D1*
X2203029Y1978312D1*
X2206903Y1978610D1*
X2210684Y1979510D1*
X2214277Y1980990D1*
X2217594Y1983014D1*
X2217851Y1983233D1*
X2231597Y1983235D1*
X2231437Y1981249D1*
X2231735Y1977375D1*
X2232635Y1973595D1*
X2232914Y1972917D1*
X2217863Y1972916D1*
X2217670Y1973081D1*
X2214361Y1975118D1*
X2210773Y1976612D1*
X2206997Y1977526D1*
X2203123Y1977839D1*
X2199249Y1977541D1*
X2195469Y1976641D1*
X2191876Y1975161D1*
X2188558Y1973137D1*
X2185599Y1970619D1*
X2183070Y1967669D1*
X2181033Y1964359D1*
X2179539Y1960772D1*
X2178625Y1956995D1*
X2178312Y1953122D1*
X2178610Y1949247D1*
X2179510Y1945467D1*
X2180990Y1941874D1*
X2183014Y1938557D1*
X2185532Y1935598D1*
X2188482Y1933068D1*
X2191792Y1931032D1*
X2195379Y1929538D1*
X2199156Y1928623D1*
X2203029Y1928311D1*
X2206903Y1928609D1*
X2210684Y1929509D1*
X2214277Y1930989D1*
X2217594Y1933013D1*
X2217851Y1933232D1*
X2678057D1*
X2681827Y1933590D1*
X2685594Y1934711D1*
X2689066Y1936554D1*
X2692107Y1939044D1*
X2867543Y2114483D1*
X3469025Y2114484D1*
X3469235Y2111749D1*
X3470135Y2107969D1*
X3471615Y2104376D1*
X3472028Y2103699D1*
X3424542Y2103701D1*
X3374542Y2103697D1*
X3370290Y2103701D1*
X3274542D1*
X3219109D1*
Y1953779D1*
X3222593D1*
X3169860Y1901043D1*
X2994536Y1901042D1*
X2995718Y1901763D1*
X2998678Y1904282D1*
X3001207Y1907232D1*
X3003244Y1910541D1*
X3003718Y1911680D1*
X3003845Y1911804D1*
X3004901Y1912239D1*
X3008218Y1914263D1*
X3011178Y1916782D1*
X3013707Y1919732D1*
X3015744Y1923041D1*
X3017238Y1926628D1*
X3018152Y1930405D1*
X3018465Y1934325D1*
X3018167Y1938153D1*
X3017267Y1941933D1*
X3015787Y1945526D1*
X3013763Y1948843D1*
X3011245Y1951803D1*
X3008295Y1954332D1*
X3004985Y1956369D1*
X3001398Y1957863D1*
X2997621Y1958777D1*
X2993748Y1959089D1*
X2989873Y1958792D1*
X2986093Y1957892D1*
X2982500Y1956412D1*
X2979183Y1954387D1*
X2976224Y1951869D1*
X2973694Y1948919D1*
X2971658Y1945610D1*
X2971183Y1944471D1*
X2971056Y1944347D1*
X2970000Y1943912D1*
X2966683Y1941887D1*
X2963724Y1939369D1*
X2961194Y1936419D1*
X2959158Y1933110D1*
X2958683Y1931971D1*
X2958556Y1931848D1*
X2957500Y1931413D1*
X2954183Y1929389D1*
X2951224Y1926871D1*
X2948694Y1923921D1*
X2946658Y1920611D1*
X2945164Y1917024D1*
X2944249Y1913247D1*
X2943937Y1909374D1*
X2944235Y1905499D1*
X2945135Y1901719D1*
X2945414Y1901042D1*
X2512451Y1901043D1*
X2509184Y1900773D1*
X2505391Y1899745D1*
X2501874Y1897989D1*
X2498770Y1895572D1*
X2498074Y1894885D1*
X2347985Y1744793D1*
X2302238Y1744791D1*
X2302045Y1744957D1*
X2298736Y1746993D1*
X2295149Y1748487D1*
X2291372Y1749402D1*
X2287499Y1749714D1*
X2283624Y1749416D1*
X2279844Y1748516D1*
X2276251Y1747036D1*
X2272934Y1745012D1*
X2272677Y1744793D1*
X2245672Y1744791D1*
X1979618Y2010848D1*
X1980094Y2011139D1*
X1983053Y2013657D1*
X1985583Y2016607D1*
X1987619Y2019916D1*
X1989113Y2023504D1*
X1990028Y2027280D1*
X1990340Y2031201D1*
X1990042Y2035028D1*
X1989142Y2038808D1*
X1987662Y2042401D1*
X1985638Y2045718D1*
X1983120Y2048678D1*
X1980170Y2051207D1*
X1976861Y2053244D1*
X1973273Y2054738D1*
X1969497Y2055652D1*
X1965623Y2055965D1*
X1961749Y2055667D1*
X1957969Y2054767D1*
X1954376Y2053287D1*
X1951058Y2051263D1*
X1948099Y2048745D1*
X1945570Y2045795D1*
X1945225Y2045236D1*
X1860892Y2129571D1*
X1860867Y2129599D1*
X1861343Y2129889D1*
X1864303Y2132408D1*
X1866832Y2135358D1*
X1868869Y2138667D1*
X1870363Y2142254D1*
X1870942Y2144648D1*
X1939032Y2076559D1*
X1692052Y1819791D2*
X1690029Y1822170D1*
X1688005Y1825487D1*
X1686524Y1829080D1*
X1686279Y1830110D1*
X1662216Y1830108D1*
X1072854Y1830109D1*
X1083166Y1819794D1*
X1691987D1*
X3460843Y1935906D2*
X3347853Y1822919D1*
X3350441Y1822913D1*
X3354342Y1822427D1*
X3358070Y1821181D1*
X3361479Y1819226D1*
X3363981Y1817107D1*
X3411199Y1769880D1*
X3413614Y1766778D1*
X3415369Y1763262D1*
X3416397Y1759468D1*
X3416668Y1756201D1*
X3416664Y1733622D1*
X3458479D1*
X3826983Y1733619D1*
X3826989Y1809816D1*
X3827475Y1813717D1*
X3828720Y1817445D1*
X3830676Y1820854D1*
X3832795Y1823356D1*
X3923858Y1914417D1*
X3923862Y1953779D1*
X3819109D1*
X3769109Y1953783D1*
X3758794Y1953779D1*
X3669109D1*
X3619109Y1953783D1*
X3608794Y1953779D1*
X3519109D1*
X3469109Y1953783D1*
X3466670Y1953779D1*
X3466668Y1949950D1*
X3466279Y1946039D1*
X3465126Y1942281D1*
X3463253Y1938821D1*
X1860933Y807782D2*
X1892608Y776110D1*
X1892604Y693810D1*
X1832289D1*
X1832293Y704017D1*
X1832292Y782355D1*
X1859416Y809479D1*
X1860581Y808144D2*
X1860575Y808149D1*
X1684723Y2010421D2*
X1684563Y2012499D1*
X1684875Y2016372D1*
X1685790Y2020149D1*
X1687284Y2023736D1*
X1689275Y2026983D1*
X1548534D1*
X1548745Y2026803D1*
X1551263Y2023843D1*
X1553287Y2020526D1*
X1554767Y2016933D1*
X1555667Y2013153D1*
X1555879Y2010421D1*
X1635730Y2010419D1*
X1684647D1*
X1768985Y727286D2*
X1770858Y730746D1*
X1772011Y734503D1*
X1772400Y738415D1*
X1772398Y772462D1*
X1792733Y792797D1*
X1792607Y790575D1*
X1792604Y693810D1*
X1736011D1*
X1766575Y724370D1*
X1594344Y695566D2*
X1596301Y698979D1*
X1598419Y701481D1*
X1723925Y826984D1*
X1680046D1*
X1546868Y693810D1*
X1593657D1*
X3310843Y1932781D2*
X3247853Y1869794D1*
X3266733D1*
X3326983Y1930046D1*
X3326987Y1953779D1*
X3316670D1*
X3316668Y1946825D1*
X3316279Y1942914D1*
X3315126Y1939156D1*
X3313253Y1935697D1*
X1493657Y693810D2*
X1446868D1*
X1495348Y742287D1*
X1617545Y864484D1*
X1662775D1*
X1661249Y863615D1*
X1658145Y861198D1*
X1657065Y860126D1*
X1498419Y701481D1*
X1496300Y698979D1*
X1494344Y695566D1*
X1051321Y1302273D2*
X1054781Y1300400D1*
X1058539Y1299247D1*
X1062450Y1298858D1*
X1463255Y1298860D1*
X1463448Y1298694D1*
X1466758Y1296658D1*
X1470345Y1295164D1*
X1474122Y1294249D1*
X1477995Y1293937D1*
X1481869Y1294235D1*
X1485650Y1295135D1*
X1489243Y1296615D1*
X1492560Y1298639D1*
X1492817Y1298858D1*
X1997663Y1298860D1*
X1997856Y1298694D1*
X2001166Y1296658D1*
X2004753Y1295164D1*
X2008530Y1294249D1*
X2012403Y1293937D1*
X2016277Y1294235D1*
X2020058Y1295135D1*
X2023651Y1296615D1*
X2026968Y1298639D1*
X2029927Y1301157D1*
X2032457Y1304107D1*
X2034493Y1307416D1*
X2035987Y1311004D1*
X2036902Y1314780D1*
X2037214Y1318701D1*
X2036916Y1322528D1*
X2036016Y1326308D1*
X2034536Y1329901D1*
X2032512Y1333218D1*
X2029994Y1336178D1*
X2027044Y1338707D1*
X2023735Y1340744D1*
X2020147Y1342238D1*
X2016371Y1343152D1*
X2012497Y1343465D1*
X2008623Y1343167D1*
X2004843Y1342267D1*
X2001250Y1340787D1*
X1997932Y1338763D1*
X1997675Y1338544D1*
X1492829Y1338542D1*
X1492636Y1338707D1*
X1489326Y1340744D1*
X1485739Y1342238D1*
X1481962Y1343152D1*
X1478089Y1343465D1*
X1474215Y1343167D1*
X1470434Y1342267D1*
X1466841Y1340787D1*
X1463524Y1338763D1*
X1463267Y1338544D1*
X1070668Y1338545D1*
X1050042Y1359171D1*
X1050023Y1359422D1*
X1049123Y1363202D1*
X1047642Y1366795D1*
X1045618Y1370112D1*
X1043100Y1373072D1*
X1040150Y1375601D1*
X1036841Y1377638D1*
X1033254Y1379132D1*
X1029477Y1380046D1*
X1025604Y1380358D1*
X1021729Y1380061D1*
X1017949Y1379161D1*
X1014356Y1377681D1*
X1011039Y1375656D1*
X1008079Y1373138D1*
X1005550Y1370188D1*
X1003513Y1366879D1*
X1002019Y1363292D1*
X1001105Y1359515D1*
X1000793Y1355642D1*
X1001090Y1351767D1*
X1001990Y1347987D1*
X1003470Y1344394D1*
X1005494Y1341077D1*
X1008013Y1338117D1*
X1010963Y1335588D1*
X1014272Y1333551D1*
X1017859Y1332057D1*
X1021636Y1331143D1*
X1021973Y1331116D1*
X1048406Y1304683D1*
X1051321Y1921024D2*
X1054781Y1919151D1*
X1058539Y1917998D1*
X1062450Y1917609D1*
X1684649D1*
X1684859Y1914873D1*
X1685177Y1913541D1*
X1668981Y1913543D1*
X1039418Y1913545D1*
X996423Y1956538D1*
X998843Y1958014D1*
X1001803Y1960532D1*
X1004332Y1963482D1*
X1005866Y1965974D1*
X1048406Y1923434D1*
X3390117Y850473D2*
X3389780Y850500D1*
X3386004Y851414D1*
X3382416Y852908D1*
X3379107Y854945D1*
X3376157Y857474D1*
X3373639Y860434D1*
X3371615Y863751D1*
X3370135Y867344D1*
X3369235Y871124D1*
X3368937Y874999D1*
X3369249Y878872D1*
X3370164Y882649D1*
X3371658Y886236D1*
X3373647Y889483D1*
X3349329Y889482D1*
X3348487Y886004D1*
X3346993Y882416D1*
X3344957Y879107D1*
X3342427Y876157D1*
X3339468Y873639D1*
X3336151Y871615D1*
X3332558Y870135D1*
X3332296Y870072D1*
X3332293Y857572D1*
X3332289Y693810D1*
X3392604D1*
X3392607Y703484D1*
X3392609Y847981D1*
X3390146Y850444D1*
X3530715Y1811365D2*
X3526811Y1811850D1*
X3523082Y1813096D1*
X3519673Y1815051D1*
X3517171Y1817170D1*
X3496318Y1838023D1*
X3495071Y1838173D1*
X3491333Y1839236D1*
X3487807Y1840870D1*
X3484581Y1843035D1*
X3481733Y1845679D1*
X3479333Y1848735D1*
X3477441Y1852130D1*
X3476104Y1855778D1*
X3475353Y1859591D1*
X3475209Y1863474D1*
X3475673Y1867332D1*
X3476736Y1871070D1*
X3478370Y1874596D1*
X3480535Y1877822D1*
X3483179Y1880670D1*
X3486235Y1883070D1*
X3489630Y1884962D1*
X3493278Y1886299D1*
X3497091Y1887049D1*
X3500974Y1887194D1*
X3504832Y1886729D1*
X3508570Y1885667D1*
X3512096Y1884033D1*
X3515322Y1881868D1*
X3518170Y1879224D1*
X3520570Y1876167D1*
X3522462Y1872773D1*
X3523799Y1869125D1*
X3524402Y1866060D1*
X3539418Y1851043D1*
X3563301Y1851044D1*
X3563558Y1851263D1*
X3566876Y1853287D1*
X3570469Y1854767D1*
X3574249Y1855667D1*
X3578123Y1855965D1*
X3581997Y1855652D1*
X3585773Y1854738D1*
X3589361Y1853244D1*
X3592670Y1851207D1*
X3595620Y1848678D1*
X3598138Y1845718D1*
X3600162Y1842401D1*
X3601642Y1838808D1*
X3602542Y1835028D1*
X3602840Y1831201D1*
X3602528Y1827280D1*
X3601613Y1823504D1*
X3600119Y1819916D1*
X3598083Y1816607D1*
X3595553Y1813657D1*
X3592594Y1811139D1*
X3589277Y1809115D1*
X3585684Y1807635D1*
X3581903Y1806735D1*
X3578029Y1806437D1*
X3574156Y1806749D1*
X3570379Y1807664D1*
X3566792Y1809158D1*
X3563482Y1811194D1*
X3563289Y1811360D1*
X3531220Y1811358D1*
X2198433Y757746D2*
X2255107Y814422D1*
Y828926D1*
X2254888Y829183D1*
X2252864Y832500D1*
X2251384Y836093D1*
X2250484Y839873D1*
X2250186Y843748D1*
X2250499Y847621D1*
X2251413Y851398D1*
X2252907Y854985D1*
X2254944Y858295D1*
X2257473Y861245D1*
X2260432Y863763D1*
X2263750Y865787D1*
X2267343Y867267D1*
X2271123Y868167D1*
X2274997Y868465D1*
X2278871Y868152D1*
X2282647Y867238D1*
X2286235Y865744D1*
X2289544Y863707D1*
X2292494Y861178D1*
X2295012Y858218D1*
X2297036Y854901D1*
X2298516Y851308D1*
X2299416Y847528D1*
X2299714Y843701D1*
X2299402Y839780D1*
X2298487Y836004D1*
X2296993Y832416D1*
X2294957Y829107D1*
X2294791Y828914D1*
X2294793Y806216D1*
X2294787Y805710D1*
X2294301Y801810D1*
X2293056Y798081D1*
X2291100Y794672D1*
X2288981Y792170D1*
X2232293Y735485D1*
X2232289Y693809D1*
X2276856D1*
X2276859Y703498D1*
Y731178D1*
X2276966Y733952D1*
X2277487Y737853D1*
X2278435Y741672D1*
X2279799Y745363D1*
X2281562Y748881D1*
X2283703Y752183D1*
X2286195Y755228D1*
X2287284Y756366D1*
X2312270Y781352D1*
X2314307Y783238D1*
X2317433Y785628D1*
X2320804Y787658D1*
X2324379Y789304D1*
X2328113Y790544D1*
X2331961Y791365D1*
X2335877Y791757D1*
X2337451Y791791D1*
X2387430D1*
X2390204Y791685D1*
X2394105Y791164D1*
X2397924Y790216D1*
X2401615Y788852D1*
X2405133Y787089D1*
X2408435Y784948D1*
X2411480Y782456D1*
X2412618Y781367D1*
X2437601Y756384D1*
X2439488Y754347D1*
X2441877Y751220D1*
X2443907Y747849D1*
X2445553Y744275D1*
X2446794Y740541D1*
X2447615Y736692D1*
X2448006Y732777D1*
X2448041Y731202D1*
X2448037Y693809D1*
X2492604D1*
X2492608Y703493D1*
X2492606Y754234D1*
X2464881Y781958D1*
X2464544Y781986D1*
X2460767Y782900D1*
X2457180Y784394D1*
X2453871Y786430D1*
X2450921Y788960D1*
X2448403Y791919D1*
X2446379Y795236D1*
X2444898Y798829D1*
X2443998Y802610D1*
X2443701Y806484D1*
X2444013Y810357D1*
X2444927Y814134D1*
X2446421Y817721D1*
X2448458Y821031D1*
X2450987Y823981D1*
X2453947Y826499D1*
X2457264Y828523D1*
X2460857Y830003D1*
X2464637Y830903D1*
X2468512Y831201D1*
X2472385Y830888D1*
X2476162Y829974D1*
X2479749Y828480D1*
X2483058Y826444D1*
X2486008Y823914D1*
X2488527Y820955D1*
X2490551Y817638D1*
X2492031Y814045D1*
X2492931Y810264D1*
X2492950Y810014D1*
X2526481Y776482D1*
X2528971Y773441D1*
X2530813Y769969D1*
X2531935Y766198D1*
X2532293Y762432D1*
X2532289Y693809D1*
X2592604D1*
X2592607Y703535D1*
X2592609Y716731D1*
X2526691Y782648D1*
X2526628Y782664D1*
X2523041Y784158D1*
X2519732Y786194D1*
X2516782Y788724D1*
X2514263Y791683D1*
X2512239Y795000D1*
X2510759Y798593D1*
X2509859Y802373D1*
X2509562Y806248D1*
X2509874Y810121D1*
X2510788Y813898D1*
X2512282Y817485D1*
X2514319Y820795D1*
X2516848Y823745D1*
X2519808Y826263D1*
X2523125Y828287D1*
X2526718Y829767D1*
X2530498Y830667D1*
X2534373Y830965D1*
X2538246Y830652D1*
X2542023Y829738D1*
X2545610Y828244D1*
X2548919Y826207D1*
X2551869Y823678D1*
X2554387Y820718D1*
X2556412Y817401D1*
X2557892Y813808D1*
X2558792Y810028D1*
X2559074Y806391D1*
X2589482Y775981D1*
X2589480Y841735D1*
X2583868Y847347D1*
X2583531Y847374D1*
X2579754Y848288D1*
X2576167Y849782D1*
X2572858Y851819D1*
X2569908Y854348D1*
X2567389Y857308D1*
X2565365Y860625D1*
X2563885Y864218D1*
X2562985Y867998D1*
X2562688Y871873D1*
X2563000Y875746D1*
X2563914Y879523D1*
X2565408Y883110D1*
X2567445Y886419D1*
X2569974Y889369D1*
X2572934Y891887D1*
X2576251Y893912D1*
X2579844Y895392D1*
X2583624Y896292D1*
X2587499Y896589D1*
X2591372Y896277D1*
X2595149Y895363D1*
X2598736Y893869D1*
X2602045Y891832D1*
X2604995Y889303D1*
X2607513Y886343D1*
X2609537Y883026D1*
X2611018Y879433D1*
X2611918Y875653D1*
X2611937Y875402D1*
X2623356Y863982D1*
X2625847Y860941D1*
X2627689Y857469D1*
X2628811Y853698D1*
X2629168Y849933D1*
X2629169Y774100D1*
X2629387Y773843D1*
X2631412Y770526D1*
X2632892Y766933D1*
X2633792Y763153D1*
X2634089Y759325D1*
X2633777Y755405D1*
X2632863Y751628D1*
X2631369Y748041D1*
X2629332Y744732D1*
X2626803Y741782D1*
X2625118Y740348D1*
X2626824Y738631D1*
X2629238Y735529D1*
X2630994Y732013D1*
X2632022Y728219D1*
X2632293Y724951D1*
X2632289Y693809D1*
X2692604D1*
X2692608Y703524D1*
Y747982D1*
X2652617Y787973D1*
X2652280Y788000D1*
X2648504Y788914D1*
X2644916Y790408D1*
X2641607Y792445D1*
X2638657Y794974D1*
X2636139Y797934D1*
X2634115Y801251D1*
X2632635Y804844D1*
X2631735Y808624D1*
X2631437Y812499D1*
X2631749Y816372D1*
X2632664Y820149D1*
X2634158Y823736D1*
X2636194Y827045D1*
X2638724Y829995D1*
X2641683Y832513D1*
X2645000Y834537D1*
X2648593Y836018D1*
X2652373Y836918D1*
X2656248Y837215D1*
X2660121Y836903D1*
X2663898Y835989D1*
X2667485Y834495D1*
X2670795Y832458D1*
X2673745Y829929D1*
X2676263Y826969D1*
X2678287Y823652D1*
X2679767Y820059D1*
X2680667Y816279D1*
X2680686Y816028D1*
X2726470Y770244D1*
X2726824Y769881D1*
X2729238Y766780D1*
X2730994Y763263D1*
X2732022Y759469D1*
X2732293Y756202D1*
X2732289Y693809D1*
X2792604D1*
X2792608Y703464D1*
X2792614Y722315D1*
X2793100Y726216D1*
X2794345Y729944D1*
X2796301Y733353D1*
X2798419Y735855D1*
X2905109Y842542D1*
X2905108Y853927D1*
X2904889Y854184D1*
X2902865Y857502D1*
X2901385Y861095D1*
X2900485Y864875D1*
X2900188Y868749D1*
X2900500Y872623D1*
X2901414Y876399D1*
X2902908Y879987D1*
X2904945Y883296D1*
X2907474Y886246D1*
X2910434Y888764D1*
X2913751Y890788D1*
X2917344Y892268D1*
X2921124Y893168D1*
X2924999Y893466D1*
X2928872Y893154D1*
X2932649Y892239D1*
X2936236Y890745D1*
X2939545Y888709D1*
X2942495Y886179D1*
X2945013Y883220D1*
X2947037Y879903D1*
X2948518Y876310D1*
X2949418Y872529D1*
X2949715Y868702D1*
X2949403Y864782D1*
X2948489Y861005D1*
X2946995Y857418D1*
X2944958Y854108D1*
X2944793Y853915D1*
X2944794Y834325D1*
X2944405Y830414D1*
X2943252Y826656D1*
X2941379Y823197D1*
X2938969Y820281D1*
X2832293Y713608D1*
X2832289Y693809D1*
X2892608Y693813D1*
X2892614Y731691D1*
X2893100Y735591D1*
X2894345Y739319D1*
X2896301Y742729D1*
X2898419Y745230D1*
X3026897Y873699D1*
X3029998Y876114D1*
X3033515Y877869D1*
X3037309Y878897D1*
X3040576Y879168D1*
X3057358Y879171D1*
X3075472Y897285D1*
X3075499Y897621D1*
X3076413Y901398D1*
X3077907Y904985D1*
X3079944Y908295D1*
X3082473Y911245D1*
X3085432Y913763D1*
X3088750Y915787D1*
X3092343Y917267D1*
X3096123Y918167D1*
X3099997Y918465D1*
X3103871Y918152D1*
X3107647Y917238D1*
X3111235Y915744D1*
X3114544Y913707D1*
X3117494Y911178D1*
X3120012Y908218D1*
X3122036Y904901D1*
X3123516Y901308D1*
X3124416Y897528D1*
X3124714Y893701D1*
X3124402Y889780D1*
X3123487Y886004D1*
X3121993Y882416D1*
X3119957Y879107D1*
X3117427Y876157D1*
X3114468Y873639D1*
X3111151Y871615D1*
X3107558Y870135D1*
X3103777Y869235D1*
X3103524Y869215D1*
X3079606Y845295D1*
X3076565Y842804D1*
X3073093Y840962D1*
X3069322Y839840D1*
X3065563Y839483D1*
X3048796D1*
X2932293Y722980D1*
X2932289Y693810D1*
X2992604D1*
X2992608Y703498D1*
X2992614Y739563D1*
X2993100Y743464D1*
X2994345Y747192D1*
X2996300Y750601D1*
X2998419Y753103D1*
X3124162Y878846D1*
X3124189Y879183D1*
X3125103Y882960D1*
X3126597Y886547D1*
X3128634Y889856D1*
X3131163Y892806D1*
X3134123Y895324D1*
X3137440Y897349D1*
X3141033Y898829D1*
X3144813Y899729D1*
X3148688Y900026D1*
X3152561Y899714D1*
X3156338Y898800D1*
X3159925Y897306D1*
X3163234Y895269D1*
X3166184Y892740D1*
X3168702Y889780D1*
X3170726Y886463D1*
X3172207Y882870D1*
X3173107Y879090D1*
X3173404Y875262D1*
X3173092Y871342D1*
X3172178Y867565D1*
X3170684Y863978D1*
X3168647Y860669D1*
X3166118Y857719D1*
X3163158Y855200D1*
X3159841Y853176D1*
X3156248Y851696D1*
X3152468Y850796D1*
X3152214Y850777D1*
X3032293Y730853D1*
X3032289Y693810D1*
X3092604D1*
X3092608Y703493D1*
X3092614Y762941D1*
X3093100Y766842D1*
X3094345Y770570D1*
X3096300Y773979D1*
X3098419Y776481D1*
X3176983Y855042D1*
X3176989Y878566D1*
X3177475Y882466D1*
X3178720Y886194D1*
X3180676Y889604D1*
X3182795Y892106D1*
X3187973Y897285D1*
X3188000Y897621D1*
X3188914Y901398D1*
X3190408Y904985D1*
X3192445Y908295D1*
X3194974Y911245D1*
X3197934Y913763D1*
X3201251Y915787D1*
X3204844Y917267D1*
X3208624Y918167D1*
X3212499Y918465D1*
X3216372Y918152D1*
X3220149Y917238D1*
X3223736Y915744D1*
X3227045Y913707D1*
X3229995Y911178D1*
X3232513Y908218D1*
X3234537Y904901D1*
X3236018Y901308D1*
X3236918Y897528D1*
X3237215Y893701D1*
X3236903Y889780D1*
X3235989Y886004D1*
X3234495Y882416D1*
X3232458Y879107D1*
X3229929Y876157D1*
X3226969Y873639D1*
X3223652Y871615D1*
X3220059Y870135D1*
X3216666Y869327D1*
X3216668Y846825D1*
X3216279Y842914D1*
X3215126Y839156D1*
X3213253Y835697D1*
X3210843Y832781D1*
X3132293Y754228D1*
X3132289Y693810D1*
X3192604D1*
X3192607Y703489D1*
X3192614Y794192D1*
X3193099Y798092D1*
X3194345Y801820D1*
X3196300Y805230D1*
X3198419Y807732D1*
X3239483Y848793D1*
X3239482Y860177D1*
X3239263Y860434D1*
X3237239Y863751D1*
X3235759Y867344D1*
X3234859Y871124D1*
X3234562Y874999D1*
X3234874Y878872D1*
X3235788Y882649D1*
X3237282Y886236D1*
X3239319Y889545D1*
X3241848Y892495D1*
X3244808Y895013D1*
X3248125Y897037D1*
X3251718Y898518D1*
X3255498Y899418D1*
X3259373Y899715D1*
X3263246Y899403D1*
X3267023Y898489D1*
X3270610Y896995D1*
X3273919Y894958D1*
X3276869Y892429D1*
X3279387Y889469D1*
X3281412Y886152D1*
X3282892Y882559D1*
X3283792Y878779D1*
X3284089Y874951D1*
X3283777Y871031D1*
X3282863Y867254D1*
X3281369Y863667D1*
X3279332Y860358D1*
X3279167Y860165D1*
X3279168Y840652D1*
X3279162Y840085D1*
X3278676Y836185D1*
X3277431Y832457D1*
X3275475Y829047D1*
X3273356Y826545D1*
X3232293Y785482D1*
X3232289Y693810D1*
X3292604D1*
X3292608Y703501D1*
X3292614Y881692D1*
X3293100Y885592D1*
X3294345Y889320D1*
X3296301Y892730D1*
X3298419Y895232D1*
X3300472Y897285D1*
X3300499Y897621D1*
X3301413Y901398D1*
X3302907Y904985D1*
X3304944Y908295D1*
X3307473Y911245D1*
X3310432Y913763D1*
X3313750Y915787D1*
X3317343Y917267D1*
X3321123Y918167D1*
X3321376Y918186D1*
X3323921Y920734D1*
X2711959Y920740D1*
X2708059Y921226D1*
X2704331Y922471D1*
X2700921Y924426D1*
X2698419Y926545D1*
X2598076Y1026897D1*
X2595662Y1029998D1*
X2593906Y1033515D1*
X2592878Y1037309D1*
X2592608Y1040576D1*
X2592607Y1041426D1*
X2592388Y1041683D1*
X2590364Y1045000D1*
X2588884Y1048593D1*
X2587984Y1052373D1*
X2587686Y1056248D1*
X2587999Y1060121D1*
X2588913Y1063898D1*
X2590407Y1067485D1*
X2592444Y1070795D1*
X2594973Y1073745D1*
X2597932Y1076263D1*
X2601250Y1078287D1*
X2604843Y1079767D1*
X2608623Y1080667D1*
X2612497Y1080965D1*
X2614483Y1080804D1*
X2614484Y1100801D1*
X2614265Y1101058D1*
X2612241Y1104376D1*
X2610760Y1107969D1*
X2609861Y1111749D1*
X2609563Y1115623D1*
X2609875Y1119497D1*
X2610790Y1123273D1*
X2612284Y1126861D1*
X2614320Y1130170D1*
X2616849Y1133120D1*
X2619809Y1135638D1*
X2623126Y1137662D1*
X2626719Y1139142D1*
X2630499Y1140042D1*
X2634374Y1140340D1*
X2638247Y1140028D1*
X2642024Y1139113D1*
X2645611Y1137619D1*
X2648921Y1135583D1*
X2651871Y1133053D1*
X2654389Y1130094D1*
X2656413Y1126777D1*
X2657893Y1123184D1*
X2658793Y1119403D1*
X2659091Y1115576D1*
X2658778Y1111656D1*
X2657864Y1107879D1*
X2656370Y1104292D1*
X2654333Y1100982D1*
X2654168Y1100789D1*
X2654172Y1079491D1*
X2654843Y1079767D1*
X2658623Y1080667D1*
X2662497Y1080965D1*
X2664483Y1080804D1*
X2664484Y1100801D1*
X2664265Y1101058D1*
X2662241Y1104376D1*
X2660760Y1107969D1*
X2659861Y1111749D1*
X2659563Y1115623D1*
X2659875Y1119497D1*
X2660790Y1123273D1*
X2662284Y1126861D1*
X2664320Y1130170D1*
X2666849Y1133120D1*
X2669809Y1135638D1*
X2673126Y1137662D1*
X2676719Y1139142D1*
X2680499Y1140042D1*
X2684374Y1140340D1*
X2688247Y1140028D1*
X2692024Y1139113D1*
X2695611Y1137619D1*
X2698921Y1135583D1*
X2701871Y1133053D1*
X2704389Y1130094D1*
X2706413Y1126777D1*
X2707893Y1123184D1*
X2708793Y1119403D1*
X2709091Y1115576D1*
X2708778Y1111656D1*
X2707864Y1107879D1*
X2706370Y1104292D1*
X2704333Y1100982D1*
X2704168Y1100789D1*
X2704167Y1079488D1*
X2704844Y1079767D1*
X2708624Y1080667D1*
X2712499Y1080965D1*
X2714484Y1080804D1*
Y1100801D1*
X2714265Y1101058D1*
X2712241Y1104376D1*
X2710760Y1107969D1*
X2709861Y1111749D1*
X2709563Y1115623D1*
X2709875Y1119497D1*
X2710790Y1123273D1*
X2712284Y1126861D1*
X2714320Y1130170D1*
X2716849Y1133120D1*
X2719809Y1135638D1*
X2723126Y1137662D1*
X2726719Y1139142D1*
X2730499Y1140042D1*
X2734374Y1140340D1*
X2738247Y1140028D1*
X2742024Y1139113D1*
X2745611Y1137619D1*
X2748921Y1135583D1*
X2751871Y1133053D1*
X2754389Y1130094D1*
X2756413Y1126777D1*
X2757893Y1123184D1*
X2758793Y1119403D1*
X2759091Y1115576D1*
X2758778Y1111656D1*
X2757864Y1107879D1*
X2756370Y1104292D1*
X2754333Y1100982D1*
X2754168Y1100789D1*
X2754167Y1079488D1*
X2754844Y1079767D1*
X2758624Y1080667D1*
X2762499Y1080965D1*
X2766372Y1080652D1*
X2770149Y1079738D1*
X2773736Y1078244D1*
X2777045Y1076207D1*
X2779995Y1073678D1*
X2782513Y1070718D1*
X2784537Y1067401D1*
X2786018Y1063808D1*
X2786918Y1060028D1*
X2786937Y1059778D1*
X2792547Y1054168D1*
X2817671Y1054170D1*
X2780743Y1091097D1*
X2780406Y1091125D1*
X2776630Y1092039D1*
X2773042Y1093533D1*
X2769733Y1095570D1*
X2766783Y1098099D1*
X2764265Y1101058D1*
X2762241Y1104376D1*
X2760760Y1107969D1*
X2759861Y1111749D1*
X2759563Y1115623D1*
X2759875Y1119497D1*
X2760790Y1123273D1*
X2762284Y1126861D1*
X2764320Y1130170D1*
X2766849Y1133120D1*
X2769809Y1135638D1*
X2773126Y1137662D1*
X2776719Y1139142D1*
X2780499Y1140042D1*
X2784374Y1140340D1*
X2788247Y1140028D1*
X2792024Y1139113D1*
X2795611Y1137619D1*
X2798921Y1135583D1*
X2801871Y1133053D1*
X2804389Y1130094D1*
X2806413Y1126777D1*
X2807893Y1123184D1*
X2808793Y1119403D1*
X2808812Y1119153D1*
X2858167Y1069794D1*
X3651204Y1069796D1*
X3651819Y1070795D1*
X3654348Y1073745D1*
X3657308Y1076263D1*
X3660625Y1078287D1*
X3664218Y1079767D1*
X3667998Y1080667D1*
X3671873Y1080965D1*
X3673858Y1080804D1*
Y1100801D1*
X3673639Y1101058D1*
X3671615Y1104376D1*
X3670135Y1107969D1*
X3669235Y1111749D1*
X3668937Y1115623D1*
X3669249Y1119497D1*
X3670164Y1123273D1*
X3671658Y1126861D1*
X3673694Y1130170D1*
X3676224Y1133120D1*
X3679183Y1135638D1*
X3682500Y1137662D1*
X3686093Y1139142D1*
X3689873Y1140042D1*
X3693748Y1140340D1*
X3697621Y1140028D1*
X3701398Y1139113D1*
X3704985Y1137619D1*
X3708295Y1135583D1*
X3711245Y1133053D1*
X3713763Y1130094D1*
X3715787Y1126777D1*
X3717267Y1123184D1*
X3718167Y1119403D1*
X3718465Y1115576D1*
X3718152Y1111656D1*
X3717238Y1107879D1*
X3715744Y1104292D1*
X3713707Y1100982D1*
X3713542Y1100789D1*
X3713541Y1079488D1*
X3714218Y1079767D1*
X3717998Y1080667D1*
X3721873Y1080965D1*
X3723858Y1080804D1*
Y1100801D1*
X3723639Y1101058D1*
X3721615Y1104376D1*
X3720135Y1107969D1*
X3719235Y1111749D1*
X3718937Y1115623D1*
X3719249Y1119497D1*
X3720164Y1123273D1*
X3721658Y1126861D1*
X3723694Y1130170D1*
X3726224Y1133120D1*
X3729183Y1135638D1*
X3732500Y1137662D1*
X3736093Y1139142D1*
X3739873Y1140042D1*
X3743748Y1140340D1*
X3747621Y1140028D1*
X3751398Y1139113D1*
X3754985Y1137619D1*
X3758295Y1135583D1*
X3761245Y1133053D1*
X3763763Y1130094D1*
X3765787Y1126777D1*
X3767267Y1123184D1*
X3768167Y1119403D1*
X3768465Y1115576D1*
X3768152Y1111656D1*
X3767238Y1107879D1*
X3765744Y1104292D1*
X3763707Y1100982D1*
X3763542Y1100789D1*
X3763545Y1069537D1*
X3764319Y1070795D1*
X3766848Y1073745D1*
X3769808Y1076263D1*
X3773125Y1078287D1*
X3776718Y1079767D1*
X3780498Y1080667D1*
X3784373Y1080965D1*
X3786358Y1080804D1*
Y1100801D1*
X3786139Y1101058D1*
X3784115Y1104376D1*
X3782635Y1107969D1*
X3781735Y1111749D1*
X3781437Y1115623D1*
X3781749Y1119497D1*
X3782664Y1123273D1*
X3784158Y1126861D1*
X3786194Y1130170D1*
X3788724Y1133120D1*
X3791683Y1135638D1*
X3795000Y1137662D1*
X3798593Y1139142D1*
X3802373Y1140042D1*
X3806248Y1140340D1*
X3810121Y1140028D1*
X3813898Y1139113D1*
X3817485Y1137619D1*
X3820795Y1135583D1*
X3823745Y1133053D1*
X3826263Y1130094D1*
X3828287Y1126777D1*
X3829767Y1123184D1*
X3830667Y1119403D1*
X3830965Y1115576D1*
X3830652Y1111656D1*
X3829738Y1107879D1*
X3828244Y1104292D1*
X3826207Y1100982D1*
X3826042Y1100789D1*
X3826041Y1079488D1*
X3826718Y1079767D1*
X3830498Y1080667D1*
X3834373Y1080965D1*
X3836358Y1080804D1*
Y1100801D1*
X3836139Y1101058D1*
X3834115Y1104376D1*
X3832635Y1107969D1*
X3831735Y1111749D1*
X3831437Y1115623D1*
X3831749Y1119497D1*
X3832664Y1123273D1*
X3834158Y1126861D1*
X3836194Y1130170D1*
X3838724Y1133120D1*
X3841683Y1135638D1*
X3845000Y1137662D1*
X3848593Y1139142D1*
X3852373Y1140042D1*
X3856248Y1140340D1*
X3860121Y1140028D1*
X3863898Y1139113D1*
X3867485Y1137619D1*
X3870795Y1135583D1*
X3873745Y1133053D1*
X3876263Y1130094D1*
X3878287Y1126777D1*
X3879767Y1123184D1*
X3880667Y1119403D1*
X3880965Y1115576D1*
X3880652Y1111656D1*
X3879738Y1107879D1*
X3878244Y1104292D1*
X3876207Y1100982D1*
X3876042Y1100789D1*
X3876043Y1049964D1*
X3876037Y1049459D1*
X3875551Y1045559D1*
X3874306Y1041831D1*
X3872350Y1038421D1*
X3870232Y1035919D1*
X3777573Y943257D1*
X3778871Y943152D1*
X3782647Y942238D1*
X3786235Y940744D1*
X3789544Y938707D1*
X3792494Y936178D1*
X3795012Y933218D1*
X3797036Y929901D1*
X3798516Y926308D1*
X3799416Y922528D1*
X3799714Y918701D1*
X3799402Y914780D1*
X3798487Y911004D1*
X3796993Y907416D1*
X3794957Y904107D1*
X3792427Y901157D1*
X3789468Y898639D1*
X3786151Y896615D1*
X3782558Y895135D1*
X3778777Y894235D1*
X3774903Y893937D1*
X3771030Y894249D1*
X3767253Y895164D1*
X3763666Y896658D1*
X3760356Y898694D1*
X3760163Y898860D1*
X3736295Y898858D1*
X3532293Y694855D1*
X3532289Y693810D1*
X3592604D1*
X3592608Y703535D1*
X3592614Y725443D1*
X3593100Y729343D1*
X3594345Y733071D1*
X3596301Y736480D1*
X3598419Y738982D1*
X3731722Y872286D1*
X3731749Y872623D1*
X3732664Y876399D1*
X3734158Y879987D1*
X3736194Y883296D1*
X3738724Y886246D1*
X3741683Y888764D1*
X3745000Y890788D1*
X3748593Y892268D1*
X3752373Y893168D1*
X3756248Y893466D1*
X3760121Y893154D1*
X3763898Y892239D1*
X3767485Y890745D1*
X3770795Y888709D1*
X3773745Y886179D1*
X3776263Y883220D1*
X3777739Y880800D1*
X3807752Y910809D1*
X3807635Y911093D1*
X3806735Y914873D1*
X3806437Y918748D1*
X3806749Y922621D1*
X3807664Y926398D1*
X3809158Y929985D1*
X3811194Y933295D1*
X3813724Y936245D1*
X3816683Y938763D1*
X3820000Y940787D1*
X3823593Y942267D1*
X3827373Y943167D1*
X3831248Y943465D1*
X3835121Y943152D1*
X3838898Y942238D1*
X3842485Y940744D1*
X3845795Y938707D1*
X3848745Y936178D1*
X3851263Y933218D1*
X3853287Y929901D1*
X3854767Y926308D1*
X3855667Y922528D1*
X3855965Y918701D1*
X3855652Y914780D1*
X3854738Y911004D1*
X3853244Y907416D1*
X3851207Y904107D1*
X3850889Y903735D1*
X3850551Y901810D1*
X3849306Y898081D1*
X3847351Y894672D1*
X3845232Y892170D1*
X3840740Y887681D1*
X3842494Y886177D1*
X3845012Y883217D1*
X3847036Y879900D1*
X3848516Y876307D1*
X3849416Y872527D1*
X3849714Y868699D1*
X3849402Y864779D1*
X3848487Y861002D1*
X3846993Y857415D1*
X3844957Y854106D1*
X3844791Y853913D1*
X3844793Y693810D1*
X3863789D1*
X3863785Y688262D1*
X3867884Y688261D1*
X3867717Y852743D1*
X3868200Y854645D1*
X3869588Y856107D1*
X3871518Y856691D1*
X3934646Y856693D1*
X4300787Y856691D1*
X4300785Y1033071D1*
X4166936D1*
X4165040Y1033554D1*
X4163578Y1034942D1*
X4162994Y1036872D1*
X4162992Y1100021D1*
Y1187395D1*
X4163475Y1189291D1*
X4164863Y1190753D1*
X4166793Y1191336D1*
X4229812Y1191339D1*
X4300787Y1191340D1*
X4300788Y2489764D1*
X423622Y2489762D1*
X423624Y1191339D1*
X557473D1*
X559370Y1190856D1*
X560832Y1189468D1*
X561415Y1187538D1*
X561417Y1124389D1*
Y1037015D1*
X560934Y1035118D1*
X559546Y1033656D1*
X557616Y1033073D1*
X494598Y1033071D1*
X423622Y1033073D1*
X423626Y856693D1*
X852756D1*
X854705Y856177D1*
X856143Y854764D1*
X856692Y852822D1*
X857003Y688262D1*
X861112D1*
Y693810D1*
X876860Y693808D1*
Y762450D1*
X877019Y765332D1*
X877022Y765845D1*
X876894Y767126D1*
X876860Y768701D1*
X876857Y853962D1*
X699784Y1031036D1*
X697159Y1033968D1*
X694875Y1037172D1*
X692958Y1040608D1*
X691432Y1044235D1*
X690316Y1048009D1*
X689623Y1051882D1*
X689362Y1055812D1*
X689360Y1106221D1*
Y1181201D1*
X689577Y1185130D1*
X690227Y1189011D1*
X691301Y1192796D1*
X692787Y1196440D1*
X694666Y1199897D1*
X696915Y1203126D1*
X699507Y1206087D1*
X702410Y1208744D1*
X705588Y1211064D1*
X709003Y1213019D1*
X712613Y1214585D1*
X716374Y1215743D1*
X720240Y1216478D1*
X724163Y1216783D1*
X728096Y1216652D1*
X731990Y1216088D1*
X735798Y1215098D1*
X739474Y1213693D1*
X742972Y1211891D1*
X746250Y1209714D1*
X749268Y1207188D1*
X751988Y1204345D1*
X754378Y1201219D1*
X756408Y1197848D1*
X758053Y1194273D1*
X759294Y1190539D1*
X760115Y1186691D1*
X760506Y1182775D1*
X760541Y1181201D1*
X760543Y1070942D1*
X937602Y893883D1*
X939488Y891846D1*
X941878Y888720D1*
X943908Y885349D1*
X945553Y881775D1*
X946794Y878040D1*
X947615Y874192D1*
X948006Y870277D1*
X948041Y868702D1*
Y768701D1*
X947881Y765819D1*
X947878Y765306D1*
X948006Y764025D1*
X948041Y762450D1*
X948037Y693810D1*
X992604D1*
X992608Y699549D1*
Y824950D1*
X992997Y828861D1*
X994149Y832619D1*
X996023Y836079D1*
X998433Y838994D1*
X1120295Y960856D1*
X1123336Y963347D1*
X1126808Y965189D1*
X1130579Y966311D1*
X1134345Y966668D1*
X2006201D1*
X2010112Y966279D1*
X2013870Y965126D1*
X2017330Y963253D1*
X2020245Y960843D1*
X2051921Y929168D1*
X2278690Y929169D1*
X2278947Y929387D1*
X2282264Y931412D1*
X2285857Y932892D1*
X2289637Y933792D1*
X2293512Y934089D1*
X2297385Y933777D1*
X2301162Y932863D1*
X2304749Y931369D1*
X2308058Y929332D1*
X2311008Y926803D1*
X2313527Y923843D1*
X2315551Y920526D1*
X2317031Y916933D1*
X2317931Y913153D1*
X2318228Y909325D1*
X2317916Y905405D1*
X2317002Y901628D1*
X2315508Y898041D1*
X2313471Y894732D1*
X2310942Y891782D1*
X2307982Y889263D1*
X2304665Y887239D1*
X2301072Y885759D1*
X2297292Y884859D1*
X2293417Y884562D1*
X2289544Y884874D1*
X2285767Y885788D1*
X2282180Y887282D1*
X2278871Y889319D1*
X2278678Y889484D1*
X2043716Y889483D1*
X2043210Y889489D1*
X2039309Y889975D1*
X2035581Y891220D1*
X2032172Y893176D1*
X2029670Y895295D1*
X1997979Y926983D1*
X1142544D1*
X1032293Y816735D1*
X1032289Y693810D1*
X1092604D1*
X1092608Y699477D1*
Y703707D1*
X1053483Y742831D1*
X1053146Y742858D1*
X1049370Y743773D1*
X1045782Y745266D1*
X1042473Y747303D1*
X1039523Y749832D1*
X1037005Y752792D1*
X1034981Y756109D1*
X1033501Y759702D1*
X1032601Y763482D1*
X1032303Y767357D1*
X1032615Y771230D1*
X1033530Y775007D1*
X1035024Y778594D1*
X1037060Y781904D1*
X1039590Y784854D1*
X1042549Y787372D1*
X1045866Y789396D1*
X1049459Y790876D1*
X1053240Y791776D1*
X1057114Y792073D1*
X1060987Y791761D1*
X1064764Y790847D1*
X1068351Y789353D1*
X1071661Y787316D1*
X1074611Y784787D1*
X1077129Y781827D1*
X1079153Y778510D1*
X1080633Y774917D1*
X1081533Y771137D1*
X1081553Y770887D1*
X1126481Y725957D1*
X1128971Y722916D1*
X1130813Y719444D1*
X1131935Y715673D1*
X1132293Y711908D1*
X1132289Y693810D1*
X1192612D1*
X1192614Y694192D1*
X1193100Y698092D1*
X1194345Y701820D1*
X1196300Y705230D1*
X1198419Y707732D1*
X1394274Y903586D1*
X1394432Y904878D1*
X1395502Y908614D1*
X1397142Y912137D1*
X1399314Y915359D1*
X1401963Y918202D1*
X1405024Y920596D1*
X1408422Y922481D1*
X1412073Y923812D1*
X1415887Y924555D1*
X1419771Y924692D1*
X1423628Y924220D1*
X1427364Y923151D1*
X1430886Y921510D1*
X1434108Y919338D1*
X1436952Y916689D1*
X1439345Y913628D1*
X1441231Y910230D1*
X1442561Y906579D1*
X1443304Y902765D1*
X1443465Y899951D1*
X1443152Y896031D1*
X1442238Y892254D1*
X1440744Y888667D1*
X1440374Y887972D1*
X1439982Y887289D1*
X1439569Y886619D1*
X1439099Y885910D1*
X1453597Y900409D1*
X1453625Y900746D1*
X1454539Y904523D1*
X1456033Y908110D1*
X1458070Y911419D1*
X1460599Y914369D1*
X1463558Y916887D1*
X1466876Y918912D1*
X1470469Y920392D1*
X1474249Y921292D1*
X1478123Y921589D1*
X1481997Y921277D1*
X1485773Y920363D1*
X1489361Y918869D1*
X1492670Y916832D1*
X1495620Y914303D1*
X1498138Y911343D1*
X1500162Y908026D1*
X1501642Y904433D1*
X1502542Y900653D1*
X1502840Y896825D1*
X1502528Y892905D1*
X1501613Y889128D1*
X1500119Y885541D1*
X1498083Y882232D1*
X1495553Y879282D1*
X1492594Y876763D1*
X1489277Y874739D1*
X1485684Y873259D1*
X1481903Y872359D1*
X1481650Y872340D1*
X1364072Y754759D1*
X1332293Y722980D1*
X1332289Y693810D1*
X1393657D1*
X1394345Y695570D1*
X1396301Y698979D1*
X1398419Y701481D1*
X1595647Y898701D1*
X1598749Y901115D1*
X1602266Y902871D1*
X1606060Y903899D1*
X1609327Y904169D1*
X1685175Y904170D1*
X1685432Y904389D1*
X1688750Y906413D1*
X1692343Y907893D1*
X1696123Y908793D1*
X1699997Y909091D1*
X1703871Y908778D1*
X1707647Y907864D1*
X1711235Y906370D1*
X1714544Y904333D1*
X1717494Y901804D1*
X1720012Y898844D1*
X1722036Y895527D1*
X1723516Y891934D1*
X1724416Y888154D1*
X1724714Y884327D1*
X1724402Y880406D1*
X1723487Y876630D1*
X1721993Y873042D1*
X1719957Y869733D1*
X1717427Y866783D1*
X1717292Y866667D1*
X1728926Y866670D1*
X1729183Y866889D1*
X1732500Y868913D1*
X1736093Y870393D1*
X1739873Y871293D1*
X1743748Y871591D1*
X1747621Y871278D1*
X1751398Y870364D1*
X1754985Y868870D1*
X1755111Y868792D1*
Y870432D1*
X1753859Y871904D1*
X1751835Y875221D1*
X1750355Y878814D1*
X1749455Y882594D1*
X1749158Y886468D1*
X1749470Y890342D1*
X1750384Y894118D1*
X1751878Y897706D1*
X1753915Y901015D1*
X1756444Y903965D1*
X1759404Y906483D1*
X1762721Y908507D1*
X1766314Y909988D1*
X1770094Y910887D1*
X1773968Y911185D1*
X1777842Y910873D1*
X1781618Y909958D1*
X1785206Y908465D1*
X1788515Y906428D1*
X1791465Y903899D1*
X1793983Y900939D1*
X1796007Y897622D1*
X1797488Y894029D1*
X1798387Y890249D1*
X1798685Y886421D1*
X1798373Y882501D1*
X1797458Y878724D1*
X1795965Y875137D1*
X1794793Y873233D1*
X1794794Y853279D1*
X1794971Y853907D1*
X1795208Y854658D1*
X1795469Y855401D1*
X1795753Y856135D1*
X1796061Y856860D1*
X1796391Y857575D1*
X1796744Y858279D1*
X1797119Y858971D1*
X1797516Y859651D1*
X1799783Y862807D1*
X1802516Y865570D1*
X1805647Y867871D1*
X1809100Y869654D1*
X1812789Y870875D1*
X1816624Y871503D1*
X1820510Y871524D1*
X1824351Y870937D1*
X1826987Y870097D1*
X1826983Y872636D1*
X1826572Y873201D1*
X1824592Y876545D1*
X1823160Y880157D1*
X1822310Y883949D1*
X1822065Y887827D1*
X1822428Y891696D1*
X1823393Y895460D1*
X1824934Y899027D1*
X1827015Y902309D1*
X1829583Y905225D1*
X1832576Y907704D1*
X1835920Y909683D1*
X1839532Y911116D1*
X1843324Y911965D1*
X1847202Y912211D1*
X1851071Y911847D1*
X1854836Y910883D1*
X1858403Y909341D1*
X1861685Y907261D1*
X1864601Y904692D1*
X1867079Y901699D1*
X1869059Y898355D1*
X1870491Y894743D1*
X1871340Y890951D1*
X1871589Y887450D1*
X1871277Y883530D1*
X1870363Y879753D1*
X1868869Y876166D1*
X1866832Y872856D1*
X1866667Y872663D1*
X1866668Y870163D1*
X1867478Y870436D1*
X1868233Y870662D1*
X1868994Y870863D1*
X1872827Y871499D1*
X1876713Y871528D1*
X1880556Y870948D1*
X1884260Y869774D1*
X1887735Y868036D1*
X1890896Y865775D1*
X1893663Y863047D1*
X1895971Y859920D1*
X1897760Y856471D1*
X1898988Y852784D1*
X1899624Y848951D1*
X1899715Y846827D1*
X1899403Y842906D1*
X1898489Y839130D1*
X1896995Y835542D1*
X1894958Y832233D1*
X1894793Y832040D1*
X1894795Y830043D1*
X1926481Y798358D1*
X1928971Y795317D1*
X1930813Y791845D1*
X1931935Y788074D1*
X1932293Y784308D1*
X1932289Y693810D1*
X1992604D1*
X1992607Y703437D1*
Y766734D1*
X1936992Y822348D1*
X1936656Y822375D1*
X1932879Y823290D1*
X1929292Y824784D1*
X1925982Y826820D1*
X1923032Y829349D1*
X1920514Y832309D1*
X1918490Y835626D1*
X1917010Y839219D1*
X1916110Y842999D1*
X1915812Y846874D1*
X1916125Y850747D1*
X1917039Y854524D1*
X1918533Y858111D1*
X1920570Y861421D1*
X1923099Y864371D1*
X1926058Y866889D1*
X1929376Y868913D1*
X1932969Y870393D1*
X1936749Y871293D1*
X1940623Y871591D1*
X1944497Y871278D1*
X1948273Y870364D1*
X1951861Y868870D1*
X1955170Y866833D1*
X1958120Y864304D1*
X1960638Y861344D1*
X1962662Y858027D1*
X1964142Y854434D1*
X1965042Y850654D1*
X1965062Y850404D1*
X2026481Y788984D1*
X2028971Y785943D1*
X2030814Y782471D1*
X2031935Y778700D1*
X2032293Y774934D1*
X2032289Y693810D1*
X2092604D1*
X2092608Y703524D1*
X2092610Y747980D1*
X1977617Y862973D1*
X1977280Y863000D1*
X1973504Y863914D1*
X1969916Y865408D1*
X1966607Y867445D1*
X1963657Y869974D1*
X1961139Y872934D1*
X1959115Y876251D1*
X1957635Y879844D1*
X1956735Y883624D1*
X1956437Y887499D1*
X1956749Y891372D1*
X1957664Y895149D1*
X1959158Y898736D1*
X1961194Y902045D1*
X1963724Y904995D1*
X1966683Y907513D1*
X1970000Y909537D1*
X1973593Y911018D1*
X1977373Y911918D1*
X1981248Y912215D1*
X1985121Y911903D1*
X1988898Y910989D1*
X1992485Y909495D1*
X1995795Y907458D1*
X1998745Y904929D1*
X2001263Y901969D1*
X2003287Y898652D1*
X2004767Y895059D1*
X2005667Y891279D1*
X2005686Y891028D1*
X2126481Y770233D1*
X2128971Y767192D1*
X2130813Y763720D1*
X2131935Y759949D1*
X2132293Y756183D1*
X2132289Y693810D1*
X2192607Y693809D1*
Y743701D1*
X2192997Y747612D1*
X2194149Y751370D1*
X2196023Y754830D1*
X2021366Y1366097D2*
X2021030Y1366125D1*
X2017253Y1367039D1*
X2013666Y1368533D1*
X2010356Y1370570D1*
X2007406Y1373099D1*
X2004888Y1376058D1*
X2002864Y1379376D1*
X2001384Y1382969D1*
X2000484Y1386749D1*
X2000186Y1390623D1*
X2000499Y1394497D1*
X2001413Y1398273D1*
X2002907Y1401861D1*
X2004944Y1405170D1*
X2007473Y1408120D1*
X2010432Y1410638D1*
X2013750Y1412662D1*
X2017343Y1414142D1*
X2021123Y1415042D1*
X2024997Y1415340D1*
X2028871Y1415028D1*
X2032647Y1414113D1*
X2036235Y1412619D1*
X2039544Y1410583D1*
X2042494Y1408053D1*
X2045012Y1405094D1*
X2047036Y1401777D1*
X2048516Y1398184D1*
X2049416Y1394403D1*
X2049436Y1394153D1*
X2209785Y1233804D1*
X2210121Y1233777D1*
X2213898Y1232863D1*
X2217485Y1231369D1*
X2220795Y1229332D1*
X2223745Y1226803D1*
X2226263Y1223843D1*
X2228287Y1220526D1*
X2229767Y1216933D1*
X2230667Y1213153D1*
X2230965Y1209325D1*
X2230652Y1205405D1*
X2229738Y1201628D1*
X2228244Y1198041D1*
X2226207Y1194732D1*
X2223678Y1191782D1*
X2220718Y1189263D1*
X2217401Y1187239D1*
X2213808Y1185759D1*
X2210028Y1184859D1*
X2206154Y1184562D1*
X2202280Y1184874D1*
X2198504Y1185788D1*
X2194916Y1187282D1*
X2191607Y1189319D1*
X2188657Y1191848D1*
X2186139Y1194808D1*
X2184115Y1198125D1*
X2182635Y1201718D1*
X2181735Y1205498D1*
X2181715Y1205752D1*
X2053013Y1334451D1*
X2021398Y1366066D1*
X2059325Y2474305D2*
D16*
Y2375595D1*
X2009971Y2424950D2*
X2108680D1*
X3246825Y1583716D2*
Y1733607D1*
Y1658661D2*
X3219124D1*
D22*
X499951Y2415577D3*
D3*
X4221825D3*
D3*
X499950Y931201D3*
D3*
D25*
X912450Y549951D3*
X1012450D3*
X1112450D3*
X1212450D3*
X1312450D3*
X1412450D3*
X1512450D3*
X1612450D3*
X1712450D3*
X1812450D3*
X1912450D3*
X2012450D3*
X2112450D3*
X2212450D3*
X2312450D3*
X2412450D3*
X2512450D3*
X2612450D3*
X2712450D3*
X2812450D3*
X2912450D3*
X3012450D3*
X3112450D3*
X3212450D3*
X3312450D3*
X3412450D3*
X3512450D3*
X3612450D3*
X3712450D3*
X3812450D3*
D26*
X2159325Y2424950D3*
D28*
X2059325D3*
X1959325D3*
X1859325D3*
X1759325D3*
X1659325D3*
D37*
X3896825Y1658661D3*
X3846825D3*
X3796825D3*
X3746825D3*
X3696825D3*
X3646825D3*
X3596825D3*
X3546825D3*
X3496825D3*
X3446825D3*
X3396825D3*
X3346825D3*
X3296825D3*
X3246825D3*
Y2028740D3*
X3296825D3*
X3346825D3*
X3396825D3*
X3446825D3*
X3496825D3*
X3546825D3*
X3596825D3*
X3646825D3*
X3696825D3*
X3746825D3*
X3796825D3*
X3846825D3*
X3896825D3*
M02*
