G04 DipTrace 2.4.0.2*
%INBottom.gbr*%
%MOIN*%
%ADD13C,0.0157*%
%ADD14C,0.0118*%
%ADD15C,0.0394*%
%ADD16C,0.0059*%
%ADD17C,0.025*%
%ADD19R,0.0748X0.0748*%
%ADD20C,0.0748*%
%ADD21R,0.0354X0.0276*%
%ADD22R,0.063X0.063*%
%ADD23C,0.063*%
%ADD24R,0.0276X0.0354*%
%ADD25R,0.063X0.0709*%
%ADD26R,0.0709X0.2559*%
%ADD27R,0.0669X0.0669*%
%ADD28C,0.0669*%
%ADD30R,0.0118X0.063*%
%ADD31R,0.063X0.0118*%
%ADD33R,0.0236X0.1181*%
%ADD39C,0.0276*%
%FSLAX44Y44*%
G04*
G70*
G90*
G75*
G01*
%LNBottom*%
%LPD*%
X16687Y10562D2*
D13*
X14562D1*
X12000D1*
X9982D1*
X9107Y9687D1*
X7062D1*
X6750Y10000D1*
Y11938D1*
Y15813D1*
X8437Y17501D1*
X9687D1*
X14000Y21814D1*
X21876D1*
X33248D1*
X33687Y21375D1*
Y17312D1*
X34187Y16812D1*
X35316D1*
X35812Y16316D1*
Y12063D1*
Y10000D1*
X34565D1*
X33250D1*
X31062D1*
X21876Y21814D2*
D3*
X21000Y12500D2*
X21268D1*
Y13501D1*
X21251D1*
X20250Y15062D2*
X20437D1*
X21251Y14248D1*
Y13501D1*
X33687Y17375D2*
Y17312D1*
X26018Y16149D2*
D14*
X27181D1*
D13*
Y17087D1*
X28262D1*
X29049D1*
X30383D1*
Y16346D1*
X29453D1*
Y14771D1*
Y13793D1*
X29467Y13779D1*
Y13687D1*
X29062D1*
Y12883D1*
X27656D1*
X27178Y13361D1*
Y14968D1*
D14*
X26018D1*
Y13393D2*
Y13395D1*
X27144D1*
X27178Y13361D1*
X29837Y11937D2*
Y12330D1*
D13*
Y12883D1*
X29062D1*
X29049Y11937D2*
D14*
X29062D1*
Y12330D1*
D13*
Y12883D1*
X32081Y14771D2*
D14*
X29453D1*
X32081Y16346D2*
X30383D1*
X29049Y18000D2*
Y17087D1*
X28262Y18000D2*
Y17087D1*
X32081Y13590D2*
Y13589D1*
X30785D1*
X30581Y13793D1*
X29453D1*
X30383Y17087D2*
D13*
Y17055D1*
X35815Y12063D2*
X35812D1*
X8312Y10937D2*
Y11438D1*
X7812Y11938D1*
X6750D1*
X34565Y10426D2*
Y10000D1*
X12000Y10750D2*
Y10562D1*
X9186Y5399D2*
Y9375D1*
X6874D1*
X6437Y9813D1*
Y15938D1*
X8312Y17813D1*
X9500D1*
X13813Y22126D1*
X24876D1*
X33373D1*
X34002Y21497D1*
Y17501D1*
X34379Y17125D1*
X35441D1*
X36127Y16438D1*
Y9375D1*
X36441D1*
X38128Y7687D1*
Y7437D1*
X38187D1*
X16687Y9937D2*
X14562D1*
X12000D1*
X9812D1*
X9250Y9375D1*
X9186D1*
X31062D2*
X33250D1*
X34550D1*
X35502D1*
X36127D1*
X24876Y22126D2*
D3*
X6437Y15938D2*
Y16251D1*
X6499D1*
X9312Y12125D2*
X8960D1*
X8147Y12937D1*
X35502Y9375D2*
D3*
X12000Y9750D2*
Y9937D1*
X34550Y9375D2*
Y8901D1*
X34565Y8887D1*
X23186Y5399D2*
D15*
X24186D1*
X13312Y13736D2*
D14*
X13250D1*
Y12500D1*
X13125Y12375D1*
Y11812D1*
D13*
Y12312D1*
X9250Y14000D2*
Y12937D1*
X10143D1*
X10343Y12738D1*
X11268Y11812D1*
X13125D1*
X10343Y11767D2*
Y12738D1*
X9437Y17126D2*
X8125Y15813D1*
Y14022D1*
X8147Y14000D1*
X9437Y18251D2*
X13625Y22439D1*
X38060D1*
X42687Y17812D1*
X26625Y7687D2*
D16*
Y7812D1*
X30230Y11418D1*
Y11937D1*
X26186Y5399D2*
D15*
X27186D1*
X18001Y15688D2*
D16*
X17812Y15877D1*
Y17437D1*
X21063Y18189D2*
X23061D1*
X24875Y16375D1*
X25989D1*
X26018Y16346D1*
X14062Y12750D2*
X14312Y13000D1*
Y13736D1*
X14062Y12750D2*
Y14812D1*
X13812Y15062D1*
Y16125D1*
X17313Y19689D2*
X17813Y20189D1*
X25810D1*
X27500Y18500D1*
Y18025D1*
X27474Y18000D1*
X13562Y12875D2*
Y16187D1*
X13437Y16312D1*
X13562D1*
X13687Y16437D1*
X14687D1*
X14812Y16562D1*
Y17437D1*
X27687Y18015D2*
X27671Y18000D1*
X16938Y19689D2*
X16875D1*
X17500Y20314D1*
X25935D1*
X27687Y18562D1*
Y18015D1*
X12750Y12563D2*
X13063Y12875D1*
Y16438D1*
X13124Y16500D1*
X13062D1*
X13125D2*
X13250Y16625D1*
X14250D1*
X14312Y16687D1*
Y17437D1*
X16562Y19687D2*
Y19813D1*
X17188Y20439D1*
X26185D1*
X27437Y19187D1*
X28852Y18000D2*
Y18647D1*
X28812Y18687D1*
X11186Y5399D2*
Y7686D1*
X11250Y7749D1*
X17750Y12875D2*
X18500D1*
Y12812D1*
X17750Y12875D2*
X17562Y13062D1*
Y16500D1*
X17312Y16750D1*
Y17437D1*
X20751Y18439D2*
X22998D1*
X24875Y16562D1*
X25999D1*
X26018Y16543D1*
X12186Y5399D2*
Y6873D1*
X12337Y7024D1*
X12837D1*
X13688Y7875D1*
X16438D1*
X18126Y9563D1*
X18438D1*
X23439D2*
X26500D1*
X27875Y10937D1*
Y11930D1*
X27868Y11937D1*
X13812Y17437D2*
Y18125D1*
X13937Y18250D1*
X15125D1*
X16062Y19187D1*
Y19687D1*
Y20000D1*
X16625Y20564D1*
X26560D1*
X27875Y19250D1*
Y18006D1*
X27868Y18000D1*
X13186Y5399D2*
Y6998D1*
X13750Y7562D1*
X16500D1*
X18188Y9250D1*
X23126Y9188D2*
X26313D1*
X28065Y10940D1*
Y11937D1*
X13312Y17437D2*
Y18187D1*
X13500Y18375D1*
X15062D1*
X15812Y19125D1*
Y19875D1*
X15750Y19937D1*
X15686D1*
X16438Y20689D1*
X26623D1*
X28062Y19250D1*
Y18002D1*
X28065Y18000D1*
X15437Y19687D2*
Y20000D1*
X16251Y20814D1*
X27185D1*
X29437Y18562D1*
Y18005D1*
X29443Y18000D1*
X15125Y19937D2*
X15061D1*
X16063Y20939D1*
X27248D1*
X29640Y18547D1*
Y18000D1*
X20437Y17437D2*
X21252D1*
X21313Y17376D1*
X23314D1*
X25501Y15188D1*
X25994D1*
X26018Y15165D1*
X12437Y11500D2*
X13437D1*
X13561Y11375D1*
X19311D1*
X19625Y11062D1*
X23500Y11750D2*
X24062D1*
X24125Y11687D1*
Y11000D1*
X24625Y10500D1*
X26687D1*
X27081Y10893D1*
Y11937D1*
X12750Y11187D2*
X18875D1*
X19312Y10750D1*
X23875Y11500D2*
Y11062D1*
X24562Y10375D1*
X26750D1*
X27278Y10903D1*
Y11937D1*
X14187Y19687D2*
Y20001D1*
X15500Y21314D1*
X27439D1*
X30230Y18523D1*
Y18000D1*
X13875Y19937D2*
Y20000D1*
X15314Y21439D1*
X27502D1*
X30427Y18513D1*
Y18000D1*
X13062Y10875D2*
X18562D1*
X19000Y10437D1*
X23500Y11250D2*
X24500Y10250D1*
X26812D1*
X27470Y10907D1*
Y11941D1*
X27474Y11937D1*
X16625Y12750D2*
X16687D1*
X16812Y12875D1*
Y13736D1*
Y14625D1*
X21063Y18689D2*
X22935D1*
X24875Y16750D1*
X26008D1*
X26018Y16740D1*
X14812Y19687D2*
Y20001D1*
X15875Y21064D1*
X27310D1*
X29830Y18544D1*
Y18006D1*
X29837Y18000D1*
X14500Y19937D2*
X14436D1*
X15688Y21189D1*
X27373D1*
X30029Y18533D1*
Y18004D1*
X30033Y18000D1*
X20438Y17938D2*
X21251D1*
X21563Y17626D1*
X23439D1*
X25314Y15751D1*
X26013D1*
X26018Y15755D1*
X20750Y17687D2*
X21315D1*
X21501Y17501D1*
X23376D1*
X25314Y15563D1*
X26013D1*
X26018Y15559D1*
X16312Y12500D2*
Y12937D1*
X16375Y13000D1*
X16500D1*
X16562Y13062D1*
Y14687D1*
X16437Y14812D1*
X16812Y15187D1*
Y17437D1*
X20751Y18939D2*
X22873D1*
X24875Y16937D1*
X26018D1*
X15875Y12875D2*
Y12937D1*
X15812Y13000D1*
Y13736D1*
Y14750D1*
X16062Y15000D1*
X21063Y19189D2*
X22810D1*
X24875Y17125D1*
X26009D1*
X26018Y17133D1*
X15625Y12437D2*
Y12937D1*
X15562Y13000D1*
Y15062D1*
X15687Y15187D1*
X15750D1*
X16312Y15750D1*
Y17437D1*
X20751Y19439D2*
X20813Y19501D1*
X22685D1*
X24875Y17312D1*
X26000D1*
X26018Y17330D1*
X15312Y12750D2*
Y13736D1*
Y15375D1*
X20376Y19564D2*
Y19689D1*
X25435D1*
X26687Y18437D1*
Y18000D1*
X15000Y12437D2*
Y12937D1*
X15062Y13000D1*
Y15187D1*
X14937Y15312D1*
Y15562D1*
X15062Y15687D1*
X15625D1*
X15812Y15875D1*
Y17437D1*
X20001Y19564D2*
X20251Y19814D1*
X25498D1*
X26875Y18437D1*
Y18009D1*
X26884Y18000D1*
X14687Y12750D2*
Y12812D1*
X14812Y12937D1*
Y13736D1*
Y15125D1*
X14562Y15375D1*
Y15750D1*
X19626Y19689D2*
X19876Y19939D1*
X25560D1*
X27062Y18437D1*
Y18018D1*
X27081Y18000D1*
X14375Y12437D2*
Y12812D1*
X14562Y13000D1*
Y15062D1*
X14187Y15437D1*
Y15937D1*
X14312D1*
X14375Y16000D1*
X15187D1*
X15312Y16125D1*
Y17437D1*
X19251Y19751D2*
X19563Y20064D1*
X25623D1*
X27250Y18437D1*
Y18028D1*
X27278Y18000D1*
X21186Y5399D2*
Y10499D1*
X22560Y11873D1*
Y13625D1*
X22562D1*
X23562Y14625D1*
Y16812D1*
X23123Y17251D1*
X20751D1*
X19937Y16437D1*
X19437D1*
X19312Y16562D1*
Y17437D1*
X26018Y13000D2*
X25315D1*
X24189Y14126D1*
X20186Y5399D2*
Y9686D1*
X22312Y11812D1*
Y13751D1*
X22560Y14000D1*
X22562D1*
X23437Y14875D1*
Y16750D1*
X23061Y17126D1*
X20813D1*
X20000Y16312D1*
X18937D1*
X18812Y16437D1*
Y17437D1*
X26018Y13590D2*
X25287D1*
X24501Y14376D1*
X19186Y5399D2*
Y8874D1*
X22187Y11874D1*
Y14001D1*
X22560Y14375D1*
X22562D1*
X23312Y15125D1*
Y16687D1*
X22998Y17001D1*
X20876D1*
X20062Y16187D1*
X18500D1*
X18312Y16375D1*
Y17437D1*
X24189Y14626D2*
X24626D1*
X24814Y14438D1*
Y14376D1*
X25376Y13813D1*
X25992D1*
X26018Y13787D1*
X18186Y5399D2*
Y8061D1*
X22062Y11937D1*
Y14251D1*
X22560Y14750D1*
X22562D1*
X23187Y15375D1*
Y16625D1*
X22937Y16875D1*
X20937D1*
X18750Y14687D1*
X18187D1*
X17812Y14312D1*
Y13736D1*
X24501Y14876D2*
X24751D1*
X24939Y14688D1*
Y14501D1*
X25439Y14001D1*
X26001D1*
X26018Y13984D1*
X17186Y5399D2*
Y7249D1*
X21937Y12000D1*
Y14501D1*
X22560Y15125D1*
X22562D1*
X23062Y15625D1*
Y16562D1*
X22875Y16750D1*
X21000D1*
X18812Y14562D1*
X18625D1*
X18312Y14250D1*
Y13736D1*
X24189Y15126D2*
X24751D1*
X25064Y14813D1*
Y14626D1*
X25501Y14188D1*
X26010D1*
X26018Y14181D1*
X16186Y5399D2*
Y6436D1*
X21812Y12062D1*
Y14751D1*
X22560Y15500D1*
X22937Y15876D1*
Y16500D1*
X22812Y16625D1*
X21062D1*
X18875Y14437D1*
Y14375D1*
X18812Y14312D1*
Y13736D1*
X24501Y15376D2*
X24751D1*
X25189Y14938D1*
Y14751D1*
X25564Y14376D1*
X26016D1*
X26018Y14377D1*
X15186Y5399D2*
Y6686D1*
X15437Y6937D1*
X16500D1*
X21687Y12125D1*
Y15001D1*
X22560Y15875D1*
X22562D1*
X22812Y16125D1*
Y16437D1*
X22750Y16500D1*
X21125D1*
X19375Y14750D1*
Y13799D1*
X19312Y13736D1*
X24189Y15626D2*
X24689D1*
X25314Y15001D1*
Y14813D1*
X25564Y14563D1*
X26007D1*
X26018Y14574D1*
X14186Y5399D2*
Y6749D1*
X14500Y7062D1*
X16437D1*
X21562Y12187D1*
Y14438D1*
Y15251D1*
X22560Y16250D1*
X21562Y14438D2*
X21501D1*
X20563Y15376D1*
X20188D1*
X19812Y15000D1*
Y13736D1*
X24189Y16001D2*
X24501D1*
X25564Y14938D1*
Y14813D1*
X25626Y14751D1*
X25997D1*
X26018Y14771D1*
X23312Y7687D2*
X23562Y7937D1*
X25187D1*
X25625Y8375D1*
X26062D1*
X28187Y10500D1*
X28812Y11062D2*
X28852D1*
Y11937D1*
X20375Y13562D2*
Y13189D1*
X20683Y12880D1*
X20955D1*
X23001Y12813D2*
X26007D1*
X26018Y12803D1*
X23001Y12813D2*
Y13501D1*
X13562Y19687D2*
Y20000D1*
X15126Y21564D1*
X27564D1*
X30625Y18503D1*
Y18000D1*
X30624D1*
X29810Y16021D2*
D13*
X31303D1*
D14*
X31431Y16149D1*
X32081D1*
X31303Y16021D2*
D13*
Y15219D1*
D14*
X31357Y15165D1*
X32081D1*
X29789Y13478D2*
D13*
X30575D1*
X30792Y13261D1*
X31198D1*
X31250Y13312D1*
X32081Y13393D2*
D14*
X31426D1*
X31345Y13312D1*
X31250D1*
X26018Y13196D2*
X26525D1*
X26665Y13056D1*
X29640Y11937D2*
Y12297D1*
X29375Y12562D1*
X28656Y11937D2*
Y12330D1*
D13*
Y12429D1*
X28485Y12599D1*
X27122D1*
X26665Y13056D1*
X26018Y15952D2*
D14*
X26411D1*
D13*
X26573D1*
X26747Y15779D1*
Y15596D1*
X26705Y15555D1*
X26018Y15362D2*
D14*
X26411D1*
D13*
X26512D1*
X26705Y15555D1*
X7312Y10937D2*
Y10376D1*
X7564Y10124D1*
X8936D1*
X10125Y11312D1*
X10286D1*
X10343Y11255D1*
X17313Y12250D2*
X17063Y12500D1*
Y12938D1*
X32081Y13393D2*
D14*
X32474D1*
D13*
X32672D1*
X33565Y12500D1*
Y12313D1*
X28459Y18000D2*
D14*
Y18393D1*
D13*
Y18544D1*
X28377Y18626D1*
X35190Y13063D2*
Y13501D1*
X35315Y13626D1*
Y14501D1*
X28627Y12563D2*
X28656Y12429D1*
X17751Y9625D2*
X16875Y8750D1*
X28656Y18000D2*
D14*
Y18390D1*
D13*
X28581Y18465D1*
X28538D1*
X28377Y18626D1*
X34565Y10938D2*
Y11438D1*
X12000Y11262D2*
X11262D1*
X10875Y10875D1*
X10343Y11255D2*
X10495D1*
X10875Y10875D1*
X19812Y17437D2*
Y18125D1*
X19813Y18126D1*
X13000Y22564D2*
X8375D1*
X8562Y22751D1*
X38815D1*
X39128Y22439D1*
X38878D1*
X12000Y9238D2*
X11199D1*
X11000Y9438D1*
X34940Y8813D2*
Y8375D1*
X34565D1*
X17614Y12188D2*
D16*
X17313D1*
Y12250D1*
X32627Y10625D2*
Y11000D1*
X32565D1*
X17751Y9625D2*
D13*
X16313Y8187D1*
X13250D1*
X13188Y8250D1*
X23750Y7687D2*
D16*
X25125D1*
X25625Y8187D1*
X26250D1*
X28459Y10396D1*
Y11937D1*
X10186Y5399D2*
Y7686D1*
X11313Y8813D1*
X16563D1*
X17688Y9938D1*
X18876D1*
X23751D2*
X26187D1*
X26688D1*
X27671Y10921D1*
Y11937D1*
X26187Y9937D2*
Y9938D1*
X25750Y7687D2*
X26125D1*
X29443Y11005D1*
Y11937D1*
X32081Y17330D2*
X33356D1*
X34250Y16437D1*
X35000D1*
X35066D1*
X35565Y15938D1*
Y10500D1*
X35502D1*
X32081Y15755D2*
X33556D1*
X34500Y14812D1*
X34937D1*
X35000Y14750D1*
X25186Y5399D2*
Y7561D1*
X25687Y8062D1*
X26312D1*
X29246Y10996D1*
Y11937D1*
X32081Y14574D2*
X33366D1*
X34252Y13688D1*
Y12688D1*
X34190Y12625D1*
X32081Y14377D2*
X33250D1*
X33877Y13751D1*
Y12938D1*
X32081Y14181D2*
X33135D1*
X33627Y13688D1*
Y13313D1*
X33565Y13250D1*
X32081Y13984D2*
X33019D1*
X33252Y13751D1*
Y13563D1*
X31350Y11000D2*
Y11278D1*
X31215Y11413D1*
Y11937D1*
X30752Y11000D2*
Y11250D1*
X30821Y11319D1*
Y11937D1*
X30189Y11000D2*
X30427Y11238D1*
Y11937D1*
X30314Y12625D2*
X30502D1*
X30627Y12500D1*
Y11939D1*
X30624Y11937D1*
X30939Y12625D2*
Y12500D1*
X31018Y12422D1*
Y11937D1*
X31502Y12625D2*
Y12500D1*
X31411Y12410D1*
Y11937D1*
X31186Y5399D2*
Y6875D1*
X30750Y7312D1*
Y8752D1*
X30437Y9065D1*
Y10312D1*
X30812Y10687D1*
X31501D1*
X32565Y11750D1*
Y12559D1*
X32500Y12625D1*
X32062D1*
X32081Y12606D1*
Y16937D2*
X33375D1*
X34375Y15937D1*
X34937D1*
X35000Y15875D1*
X32186Y5399D2*
Y7000D1*
X32062Y7125D1*
X31125D1*
X30875Y7375D1*
Y8815D1*
X30562Y9127D1*
Y10250D1*
X30875Y10562D1*
X31564D1*
X32690Y11688D1*
Y12622D1*
X32500Y12812D1*
X32071D1*
X32081Y12803D1*
Y17133D2*
X33366D1*
X34312Y16187D1*
X34625D1*
X33186Y5399D2*
Y7063D1*
X33000Y7250D1*
X31187D1*
X31000Y7437D1*
Y8877D1*
X30687Y9190D1*
Y10187D1*
X30937Y10437D1*
X31626D1*
X31844Y10655D1*
X32815Y11625D1*
Y12684D1*
X32500Y13000D1*
X32081D1*
X31844Y10655D2*
X31877Y10688D1*
X32053D1*
X32115Y10625D1*
X32081Y16740D2*
X33384D1*
X34500Y15625D1*
X34625D1*
X34186Y5399D2*
Y6813D1*
X33625Y7375D1*
X31250D1*
X31125Y7500D1*
Y8937D1*
X30812Y9250D1*
Y10125D1*
X31000Y10312D1*
X32876D1*
X33252Y10688D1*
Y12434D1*
X32500Y13187D1*
X32090D1*
X32081Y13196D1*
Y16543D2*
X33331D1*
X34562Y15312D1*
X35000D1*
X32081Y15952D2*
X33734D1*
X34625Y15062D1*
X32081Y15559D2*
X33565D1*
X34625Y14500D1*
X32081Y14968D2*
X33594D1*
X34625Y13937D1*
X32081Y15362D2*
X33387D1*
X34500Y14250D1*
X34937D1*
X35000Y14187D1*
X28186Y5399D2*
Y7186D1*
X28312Y7312D1*
X29186Y5399D2*
Y7312D1*
X29187D1*
X30375Y7062D2*
Y6937D1*
X30186Y6749D1*
Y5399D1*
X38186D2*
Y6750D1*
X37687Y7249D1*
Y7437D1*
X37186Y5399D2*
Y7063D1*
X36812Y7437D1*
X36186Y5399D2*
Y7250D1*
X36000Y7437D1*
X35186Y5399D2*
Y7375D1*
X35125Y7437D1*
X29375Y13187D2*
X30596D1*
X30761Y13023D1*
X31449D1*
Y13030D1*
X32750Y13687D2*
Y13812D1*
X32056D1*
X32081Y13787D1*
X22186Y5399D2*
Y7310D1*
X23814Y8938D1*
X26250D1*
X28262Y10949D1*
Y11937D1*
X13636Y11812D2*
X13812D1*
X14062Y11562D1*
X19562D1*
X20000Y11125D1*
X20250D1*
X20812Y11687D1*
Y12125D1*
X23875Y12500D2*
X25562D1*
X25687Y12625D1*
X25999D1*
X26018Y12606D1*
X20812Y12125D2*
X19752D1*
X19688Y12188D1*
X19176D2*
X18126D1*
Y12375D1*
X17938Y12563D1*
X17438D1*
X17313Y12688D1*
Y13735D1*
X17312Y13736D1*
X16312D2*
Y13187D1*
X16187Y13062D1*
Y12750D1*
X16000Y12562D1*
Y12314D1*
X16375Y11938D1*
X20311D1*
X20437Y11812D1*
X23500Y12250D2*
X24000D1*
X24375Y11875D1*
Y11125D1*
X24750Y10750D1*
X26562D1*
X26687Y10874D1*
Y11937D1*
X13812Y13736D2*
Y12563D1*
X14626Y11750D1*
X19812D1*
X20062Y11500D1*
X13812Y12563D2*
Y12488D1*
X13636Y12312D1*
X23875Y12000D2*
X24000D1*
X24250Y11750D1*
Y11062D1*
X24687Y10625D1*
X26625D1*
X26875Y10875D1*
Y11927D1*
X26884Y11937D1*
X32125Y21000D2*
Y19500D1*
X31215Y18590D1*
Y18000D1*
X31125Y21000D2*
Y18811D1*
X31013Y18700D1*
Y18004D1*
X31018Y18000D1*
X33125Y21000D2*
Y20250D1*
X31404Y18529D1*
Y17992D1*
X31411Y18000D1*
X30125Y21000D2*
Y19249D1*
X30812Y18562D1*
Y18008D1*
X30821Y18000D1*
D39*
X11250Y7749D3*
X38187Y7437D3*
X6499Y16251D3*
X14562Y10562D3*
X16687D3*
X14562Y9937D3*
X16687D3*
X31062Y9375D3*
Y10000D3*
X33250D3*
Y9375D3*
X28312Y7312D3*
X29187D3*
X30375Y7062D3*
X22560Y16250D3*
Y15875D3*
Y15500D3*
Y15125D3*
Y14750D3*
Y14375D3*
Y14000D3*
Y13625D3*
X24876Y22126D3*
X21876Y21814D3*
X21000Y12500D3*
X20250Y15062D3*
X18313Y19939D3*
X8750Y7312D3*
X21251Y13501D3*
X28812Y11062D3*
X17750Y12875D3*
X18500Y12812D3*
X13437Y16312D3*
X13812Y16125D3*
X14187Y15937D3*
X14562Y15750D3*
X14937Y15562D3*
X15312Y15375D3*
X15687Y15187D3*
X16062Y15000D3*
X16437Y14812D3*
X16812Y14625D3*
X9750Y12375D3*
X13062Y16500D3*
X18001Y15688D3*
X12750Y12563D3*
X13562Y12875D3*
X14062Y12750D3*
X14375Y12437D3*
X14687Y12750D3*
X15000Y12437D3*
X15312Y12750D3*
X15625Y12437D3*
X15875Y12875D3*
X16312Y12500D3*
X16625Y12750D3*
X12812Y14438D3*
X35502Y9375D3*
X35125Y7437D3*
X36000D3*
X36812D3*
X37687D3*
X24189Y16001D3*
Y15626D3*
X24501Y15376D3*
X24189Y15126D3*
X33252Y13563D3*
X24501Y14876D3*
X24189Y14626D3*
X24501Y14376D3*
X24189Y14126D3*
X9437Y18251D3*
Y17126D3*
X16938Y19689D3*
X17313D3*
X19251Y19751D3*
X19626Y19689D3*
X20001Y19564D3*
X20376D3*
X20751Y19439D3*
X21063Y19189D3*
X20751Y18939D3*
X21063Y18689D3*
X16562Y19687D3*
X20751Y18439D3*
X21063Y18189D3*
X20812Y12125D3*
X20437Y11812D3*
X20062Y11500D3*
X19625Y11062D3*
X19312Y10750D3*
X19000Y10437D3*
X12437Y11500D3*
X12750Y11187D3*
X13062Y10875D3*
X23875Y12500D3*
X23500Y12250D3*
X23875Y12000D3*
X23500Y11750D3*
X23875Y11500D3*
X23500Y11250D3*
X18876Y9938D3*
X18438Y9563D3*
X18188Y9250D3*
X15125Y19937D3*
X15437Y19687D3*
X15750Y19937D3*
X16062Y19687D3*
X14812D3*
X14500Y19937D3*
X23751Y9938D3*
X23439Y9563D3*
X23126Y9188D3*
X13875Y19937D3*
X14187Y19687D3*
X13562D3*
X9312Y12125D3*
X33565Y13250D3*
X35815Y12063D3*
X33877Y12938D3*
X34190Y12625D3*
X23001Y13501D3*
X28187Y10500D3*
X20375Y13562D3*
X20955Y12880D3*
X23312Y7687D3*
X23750D3*
X25750D3*
X26625D3*
X23001Y12813D3*
X27437Y19187D3*
X28812Y18687D3*
X26187Y9937D3*
X34625Y13937D3*
X35000Y14187D3*
X34625Y14500D3*
X35000Y14750D3*
X34625Y15062D3*
X35000Y15312D3*
X34625Y15625D3*
X35000Y15875D3*
X34625Y16187D3*
X35000Y16437D3*
X35502Y10500D3*
X12812Y15438D3*
X17313Y12250D3*
X18626Y12500D3*
X20251Y12938D3*
X20750Y17687D3*
X20437Y17437D3*
X20438Y17938D3*
X32750Y13687D3*
X10000Y13563D3*
Y16063D3*
X12750Y19189D3*
X14375Y21439D3*
X29375Y13187D3*
X31449Y13030D3*
X33687Y17375D3*
X30383Y17055D3*
X33279Y17743D3*
X26705Y15555D3*
X26665Y13056D3*
X29375Y12562D3*
X31250Y13312D3*
X29810Y16021D3*
X29789Y13478D3*
X30314Y12625D3*
X30939D3*
X31502D3*
X30189Y11000D3*
X30752D3*
X31350D3*
X8562Y15001D3*
X8625Y11875D3*
X7249Y15626D3*
Y12438D3*
X17063Y12938D3*
X17188Y16188D3*
Y15001D3*
X18563Y15376D3*
X22188Y16251D3*
X19813Y18126D3*
X23251Y19376D3*
X26126Y17813D3*
X28189Y21439D3*
X30627Y20439D3*
X31564D3*
X32627Y20376D3*
X33190Y19564D3*
X31940Y17813D3*
X38878Y22439D3*
X42566Y18626D3*
X33190Y7937D3*
X38628Y7250D3*
X33690Y10500D3*
X35065D3*
X35190Y13063D3*
X33565Y12313D3*
X29752Y14438D3*
X31314Y16938D3*
X24001Y13188D3*
X34940Y8813D3*
X10687Y7750D3*
X28377Y18626D3*
X35315Y14501D3*
X28252Y15001D3*
X31564Y14501D3*
X28627Y12563D3*
X26251Y12188D3*
X24751Y11188D3*
X17063Y10313D3*
X18376Y10438D3*
X12938Y9500D3*
X13188Y8250D3*
X9750Y7312D3*
X8312Y8750D3*
X23939Y8375D3*
X25189Y8562D3*
X23376Y10750D3*
X4562Y18376D3*
X8687Y22564D3*
X37128Y13188D3*
X13000Y22564D3*
X9187Y18814D3*
X11125Y20626D3*
X8500Y20876D3*
X24439Y18689D3*
X25314Y18501D3*
X26689Y14188D3*
X27189Y7250D3*
X29627Y10188D3*
Y8562D3*
X18688Y8062D3*
X19688Y7875D3*
Y8813D3*
X20688Y7812D3*
Y8813D3*
X24564Y12188D3*
X34565Y11438D3*
X4562Y8813D3*
Y10188D3*
Y12250D3*
Y15313D3*
X5937Y13501D3*
X5874Y16813D3*
X11250Y22564D3*
X11687Y12125D3*
X10875Y10875D3*
X11000Y9438D3*
X24251Y7250D3*
X22564Y7312D3*
X8875Y10125D3*
X30377Y10625D3*
X39128Y8750D3*
X42941D3*
Y10250D3*
X41315Y10313D3*
Y12188D3*
X42941D3*
Y17001D3*
X39128Y11938D3*
X40753Y20501D3*
X40315Y16438D3*
X41941Y14313D3*
X35690Y17813D3*
X34002Y22126D3*
X37565D3*
X34377Y19814D3*
X36252Y19876D3*
X38565Y17688D3*
X40003Y19689D3*
X6624Y20626D3*
X37065Y9875D3*
X38253D3*
X26689Y16501D3*
X27001Y17376D3*
X30627Y19439D3*
X31564D3*
X21626Y10375D3*
X28502Y8813D3*
X20751Y13375D3*
X17751Y9625D3*
X32565Y11000D3*
X29814Y19751D3*
X18563Y18251D3*
X21688Y7312D3*
X23064Y8688D3*
X21626Y8938D3*
X29939Y16751D3*
X27627Y16626D3*
X27564Y13501D3*
X6874Y18751D3*
X28752Y13501D3*
X29127Y15126D3*
X31627Y11250D3*
X8327Y22440D2*
D17*
X13117D1*
X38569D2*
X39050D1*
X8077Y22192D2*
X12867D1*
X38819D2*
X39300D1*
X7831Y21943D2*
X12617D1*
X34065D2*
X38046D1*
X39065D2*
X39546D1*
X7581Y21694D2*
X12371D1*
X34307D2*
X38292D1*
X39315D2*
X39796D1*
X7335Y21446D2*
X12121D1*
X14143D2*
X14566D1*
X28124D2*
X29699D1*
X34370D2*
X38542D1*
X39565D2*
X40042D1*
X7085Y21197D2*
X11871D1*
X13893D2*
X14320D1*
X28374D2*
X29535D1*
X34370D2*
X38792D1*
X39811D2*
X40292D1*
X6835Y20948D2*
X11624D1*
X13647D2*
X14070D1*
X28620D2*
X29503D1*
X34370D2*
X39039D1*
X40061D2*
X40542D1*
X6589Y20699D2*
X11374D1*
X13397D2*
X13820D1*
X28870D2*
X29582D1*
X34370D2*
X39289D1*
X40311D2*
X40789D1*
X6339Y20451D2*
X11124D1*
X13147D2*
X13574D1*
X29120D2*
X29804D1*
X30444D2*
X30804D1*
X31444D2*
X31804D1*
X32444D2*
X32804D1*
X34370D2*
X39539D1*
X40557D2*
X41039D1*
X6089Y20202D2*
X10878D1*
X12901D2*
X13324D1*
X29366D2*
X29804D1*
X30444D2*
X30804D1*
X31444D2*
X31804D1*
X32444D2*
X32636D1*
X34370D2*
X39785D1*
X40807D2*
X41289D1*
X5842Y19953D2*
X10628D1*
X12651D2*
X13234D1*
X29616D2*
X29804D1*
X30444D2*
X30804D1*
X31444D2*
X31804D1*
X34370D2*
X40035D1*
X41057D2*
X41535D1*
X5592Y19705D2*
X10378D1*
X12401D2*
X13136D1*
X17772D2*
X18828D1*
X30444D2*
X30804D1*
X31444D2*
X31804D1*
X33022D2*
X33320D1*
X34370D2*
X40285D1*
X41303D2*
X41785D1*
X5342Y19456D2*
X10132D1*
X12155D2*
X13207D1*
X17667D2*
X18953D1*
X30444D2*
X30804D1*
X31444D2*
X31640D1*
X32772D2*
X33320D1*
X34370D2*
X40531D1*
X41553D2*
X42035D1*
X5096Y19207D2*
X9882D1*
X11905D2*
X15453D1*
X16382D2*
X19789D1*
X23421D2*
X25476D1*
X30608D2*
X30804D1*
X32522D2*
X33320D1*
X34370D2*
X40781D1*
X41803D2*
X42281D1*
X4846Y18959D2*
X9632D1*
X11655D2*
X15207D1*
X16276D2*
X20324D1*
X23671D2*
X25726D1*
X32276D2*
X33320D1*
X34370D2*
X41031D1*
X42049D2*
X42531D1*
X4596Y18710D2*
X9386D1*
X11409D2*
X14957D1*
X16026D2*
X20394D1*
X23917D2*
X25972D1*
X32026D2*
X33320D1*
X34370D2*
X41277D1*
X42299D2*
X42781D1*
X4350Y18461D2*
X9070D1*
X11159D2*
X13144D1*
X15776D2*
X20324D1*
X24167D2*
X26222D1*
X31776D2*
X33320D1*
X34370D2*
X41527D1*
X42549D2*
X43027D1*
X4337Y18213D2*
X9011D1*
X10909D2*
X12906D1*
X19721D2*
X20117D1*
X24417D2*
X26339D1*
X31760D2*
X33320D1*
X34370D2*
X41777D1*
X4337Y17964D2*
X7953D1*
X10663D2*
X12906D1*
X19721D2*
X20011D1*
X24663D2*
X26339D1*
X31760D2*
X33320D1*
X34370D2*
X42023D1*
X4337Y17715D2*
X7703D1*
X10413D2*
X12906D1*
X19721D2*
X20078D1*
X24913D2*
X26339D1*
X31760D2*
X33320D1*
X34370D2*
X42023D1*
X4337Y17467D2*
X7453D1*
X10163D2*
X12906D1*
X19721D2*
X20011D1*
X35499D2*
X42023D1*
X4337Y17218D2*
X7207D1*
X9905D2*
X12906D1*
X19721D2*
X20074D1*
X26624D2*
X26839D1*
X30776D2*
X31476D1*
X35858D2*
X42023D1*
X4337Y16969D2*
X6957D1*
X8417D2*
X8769D1*
X9835D2*
X12906D1*
X19721D2*
X20027D1*
X26624D2*
X26812D1*
X30799D2*
X31476D1*
X36108D2*
X43042D1*
X4337Y16720D2*
X6707D1*
X8167D2*
X8519D1*
X9542D2*
X12699D1*
X26624D2*
X26812D1*
X27549D2*
X30015D1*
X30753D2*
X31476D1*
X36354D2*
X43042D1*
X4337Y16472D2*
X6136D1*
X7921D2*
X8273D1*
X9296D2*
X12636D1*
X27549D2*
X29109D1*
X36495D2*
X43042D1*
X4337Y16223D2*
X6070D1*
X7671D2*
X8023D1*
X9046D2*
X12742D1*
X27549D2*
X29085D1*
X36495D2*
X43042D1*
X4337Y15974D2*
X6070D1*
X7421D2*
X7796D1*
X8796D2*
X12742D1*
X21042D2*
X21843D1*
X27503D2*
X29085D1*
X29823D2*
X31476D1*
X36495D2*
X43042D1*
X4337Y15726D2*
X6070D1*
X7174D2*
X7757D1*
X8549D2*
X12742D1*
X18424D2*
X19347D1*
X20792D2*
X21597D1*
X26624D2*
X29085D1*
X29823D2*
X31476D1*
X36495D2*
X43042D1*
X4337Y15477D2*
X6070D1*
X7120D2*
X7757D1*
X8495D2*
X12742D1*
X18370D2*
X19097D1*
X20905D2*
X21347D1*
X26624D2*
X29085D1*
X29823D2*
X31476D1*
X36495D2*
X43042D1*
X4337Y15228D2*
X6070D1*
X7120D2*
X7757D1*
X8495D2*
X12742D1*
X17882D2*
X18851D1*
X27428D2*
X29085D1*
X29823D2*
X31476D1*
X36495D2*
X43042D1*
X4337Y14980D2*
X6070D1*
X7120D2*
X7757D1*
X8495D2*
X12742D1*
X17046D2*
X17242D1*
X17882D2*
X18132D1*
X27546D2*
X29085D1*
X36495D2*
X43042D1*
X4337Y14731D2*
X6070D1*
X7120D2*
X7757D1*
X8495D2*
X12742D1*
X27546D2*
X29085D1*
X36495D2*
X43042D1*
X4337Y14482D2*
X6070D1*
X7120D2*
X7542D1*
X9854D2*
X12742D1*
X20221D2*
X20507D1*
X26624D2*
X26808D1*
X27546D2*
X29085D1*
X36495D2*
X43042D1*
X4337Y14234D2*
X6070D1*
X7120D2*
X7542D1*
X9854D2*
X12742D1*
X20221D2*
X20753D1*
X23612D2*
X23776D1*
X26624D2*
X26808D1*
X27546D2*
X29085D1*
X29823D2*
X31476D1*
X36495D2*
X43042D1*
X4337Y13985D2*
X6070D1*
X7120D2*
X7542D1*
X9854D2*
X12742D1*
X20221D2*
X20882D1*
X23362D2*
X23785D1*
X26624D2*
X26808D1*
X27546D2*
X28867D1*
X30874D2*
X31476D1*
X36495D2*
X43042D1*
X4337Y13736D2*
X6070D1*
X7120D2*
X7542D1*
X9854D2*
X12742D1*
X23354D2*
X24062D1*
X26624D2*
X26808D1*
X27546D2*
X28699D1*
X34999D2*
X35246D1*
X36495D2*
X43042D1*
X4337Y13488D2*
X6070D1*
X7120D2*
X7542D1*
X9854D2*
X12742D1*
X23428D2*
X24386D1*
X27561D2*
X28695D1*
X34573D2*
X35246D1*
X36495D2*
X43042D1*
X4337Y13239D2*
X6070D1*
X7120D2*
X7542D1*
X10331D2*
X12742D1*
X23331D2*
X24632D1*
X27811D2*
X28695D1*
X34573D2*
X35246D1*
X36495D2*
X43042D1*
X4337Y12990D2*
X6070D1*
X7120D2*
X7542D1*
X10600D2*
X12738D1*
X26624D2*
X27039D1*
X34573D2*
X35246D1*
X36495D2*
X43042D1*
X4337Y12741D2*
X6070D1*
X7120D2*
X7542D1*
X10850D2*
X12363D1*
X18921D2*
X20382D1*
X26624D2*
X27289D1*
X34600D2*
X35246D1*
X36495D2*
X43042D1*
X4337Y12493D2*
X6070D1*
X7120D2*
X7542D1*
X11100D2*
X12328D1*
X20155D2*
X20574D1*
X33565D2*
X33785D1*
X34596D2*
X35246D1*
X36495D2*
X43042D1*
X4337Y12244D2*
X6070D1*
X7991D2*
X8328D1*
X9721D2*
X9976D1*
X11346D2*
X12480D1*
X16647D2*
X17660D1*
X22882D2*
X23074D1*
X25733D2*
X26339D1*
X31760D2*
X32246D1*
X33573D2*
X34035D1*
X34342D2*
X35246D1*
X36495D2*
X43042D1*
X5885Y11995D2*
X6070D1*
X8264D2*
X8578D1*
X9717D2*
X9914D1*
X22882D2*
X23156D1*
X24667D2*
X26339D1*
X31760D2*
X32246D1*
X33573D2*
X35246D1*
X36495D2*
X41480D1*
X5901Y11747D2*
X6070D1*
X8514D2*
X9148D1*
X9475D2*
X9914D1*
X22850D2*
X23074D1*
X24694D2*
X26339D1*
X31760D2*
X32121D1*
X33573D2*
X35246D1*
X36495D2*
X41480D1*
X5901Y11498D2*
X6070D1*
X7120D2*
X7707D1*
X8917D2*
X9914D1*
X10772D2*
X11105D1*
X22628D2*
X23160D1*
X24694D2*
X26339D1*
X33573D2*
X35246D1*
X36495D2*
X41480D1*
X5901Y11249D2*
X6070D1*
X7120D2*
X7707D1*
X8917D2*
X12097D1*
X22378D2*
X23074D1*
X24694D2*
X26367D1*
X33573D2*
X35246D1*
X36495D2*
X41480D1*
X5901Y11001D2*
X6070D1*
X7120D2*
X7707D1*
X8917D2*
X11574D1*
X22128D2*
X23160D1*
X32632D2*
X32933D1*
X33573D2*
X35246D1*
X36495D2*
X41480D1*
X5901Y10752D2*
X6070D1*
X7120D2*
X7707D1*
X8917D2*
X9660D1*
X21882D2*
X23554D1*
X32581D2*
X32874D1*
X33573D2*
X34136D1*
X34991D2*
X35164D1*
X36495D2*
X41480D1*
X5901Y10503D2*
X6070D1*
X7120D2*
X7707D1*
X8917D2*
X9414D1*
X17112D2*
X18492D1*
X21632D2*
X23804D1*
X29757D2*
X30187D1*
X33507D2*
X34136D1*
X36495D2*
X41480D1*
X4337Y10255D2*
X6070D1*
X7120D2*
X9164D1*
X16971D2*
X18601D1*
X21507D2*
X23476D1*
X29507D2*
X30117D1*
X36495D2*
X43042D1*
X4337Y10006D2*
X6070D1*
X17108D2*
X17316D1*
X21507D2*
X23328D1*
X29260D2*
X30117D1*
X36495D2*
X43042D1*
X4337Y9757D2*
X6074D1*
X20698D2*
X20867D1*
X21507D2*
X23062D1*
X29010D2*
X30117D1*
X36495D2*
X43042D1*
X4337Y9509D2*
X6230D1*
X9893D2*
X11574D1*
X12428D2*
X16816D1*
X20507D2*
X20867D1*
X21507D2*
X22859D1*
X28760D2*
X30117D1*
X36819D2*
X43042D1*
X4337Y9260D2*
X6480D1*
X9647D2*
X16570D1*
X20507D2*
X20867D1*
X21507D2*
X22707D1*
X28514D2*
X30117D1*
X37065D2*
X43042D1*
X4337Y9011D2*
X8816D1*
X9553D2*
X11070D1*
X20507D2*
X20867D1*
X21507D2*
X22738D1*
X28264D2*
X30124D1*
X31436D2*
X33050D1*
X33448D2*
X34136D1*
X34991D2*
X35304D1*
X35698D2*
X36292D1*
X37315D2*
X43042D1*
X4337Y8762D2*
X8816D1*
X9553D2*
X10820D1*
X19514D2*
X19867D1*
X20507D2*
X20867D1*
X21507D2*
X23199D1*
X28014D2*
X30296D1*
X31444D2*
X34136D1*
X34991D2*
X36542D1*
X37565D2*
X43042D1*
X9553Y8514D2*
X10574D1*
X11456D2*
X16636D1*
X19507D2*
X19867D1*
X20507D2*
X20867D1*
X21507D2*
X22949D1*
X23831D2*
X25324D1*
X27768D2*
X30429D1*
X31444D2*
X34136D1*
X34991D2*
X36789D1*
X37811D2*
X38664D1*
X9553Y8265D2*
X10324D1*
X11206D2*
X16386D1*
X19507D2*
X19867D1*
X20507D2*
X20867D1*
X21507D2*
X22699D1*
X23581D2*
X25074D1*
X27518D2*
X30429D1*
X31444D2*
X37039D1*
X38061D2*
X38664D1*
X9553Y8016D2*
X10074D1*
X11577D2*
X13386D1*
X18581D2*
X18867D1*
X19507D2*
X19867D1*
X20507D2*
X20867D1*
X21507D2*
X22453D1*
X27268D2*
X30429D1*
X31444D2*
X37289D1*
X38311D2*
X38664D1*
X9553Y7768D2*
X9878D1*
X11678D2*
X13140D1*
X18507D2*
X18867D1*
X19507D2*
X19867D1*
X20507D2*
X20867D1*
X21507D2*
X22203D1*
X27046D2*
X30429D1*
X31444D2*
X34871D1*
X35378D2*
X35746D1*
X36253D2*
X36558D1*
X37065D2*
X37433D1*
X38487D2*
X38664D1*
X9553Y7519D2*
X9867D1*
X10507D2*
X10867D1*
X11604D2*
X12890D1*
X18507D2*
X18867D1*
X19507D2*
X19867D1*
X20507D2*
X20867D1*
X21507D2*
X21953D1*
X27014D2*
X27941D1*
X28682D2*
X28816D1*
X29557D2*
X30429D1*
X33921D2*
X34707D1*
X9553Y7270D2*
X9867D1*
X10507D2*
X10867D1*
X11507D2*
X12152D1*
X18507D2*
X18867D1*
X19507D2*
X19867D1*
X20507D2*
X20867D1*
X21507D2*
X21867D1*
X22589D2*
X24867D1*
X25507D2*
X27878D1*
X29612D2*
X30003D1*
X34171D2*
X34734D1*
X42536Y18451D2*
X43068D1*
X41953Y19562D1*
X38827Y22688D1*
X38296Y22689D1*
X42532Y18453D1*
X43064Y17173D2*
X42048D1*
Y17966D1*
X37917Y22096D1*
X33892Y22095D1*
X34245Y21740D1*
X34316Y21637D1*
X34346Y21497D1*
Y17641D1*
X34519Y17470D1*
X35441Y17468D1*
X35564Y17446D1*
X35684Y17368D1*
X36370Y16681D1*
X36441Y16579D1*
X36471Y16438D1*
Y9716D1*
X36505Y9712D1*
X36621Y9667D1*
X36772Y9529D1*
X38371Y7930D1*
X38442Y7824D1*
X38496Y7695D1*
X38560Y7589D1*
X38590Y7437D1*
X38570Y7314D1*
X38501Y7189D1*
X38691Y7188D1*
X38690Y8500D1*
X38751Y8605D1*
X38815Y8625D1*
X43066D1*
Y10375D1*
X41628D1*
X41523Y10436D1*
X41503Y10500D1*
Y11938D1*
X41564Y12043D1*
X41628Y12063D1*
X43066D1*
Y17176D1*
X8650Y11517D2*
X8892D1*
Y10357D1*
X7732D1*
Y11517D1*
X7744D1*
X7669Y11595D1*
X7089Y11594D1*
X7093Y11188D1*
Y10145D1*
X7205Y10030D1*
X8964Y10031D1*
X9739Y10805D1*
X9842Y10876D1*
X9982Y10906D1*
X11596D1*
X11597Y11192D1*
X12179D1*
X12118Y11253D1*
X12058Y11362D1*
X12038Y11465D1*
X11375Y11468D1*
X11268D1*
X11146Y11491D1*
X11025Y11569D1*
X10746Y11848D1*
X10745Y11325D1*
X9940D1*
Y12209D1*
X9999D1*
Y12591D1*
X9827Y12593D1*
X9829Y12318D1*
X9661D1*
X9685Y12276D1*
X9715Y12125D1*
X9695Y12001D1*
X9640Y11890D1*
X9552Y11801D1*
X9442Y11743D1*
X9320Y11722D1*
X9196Y11739D1*
X9109Y11781D1*
X8960D1*
X8837Y11803D1*
X8717Y11881D1*
X8283Y12315D1*
X7567Y12318D1*
X7571Y13556D1*
X7567Y13505D1*
Y14619D1*
X7782D1*
X7781Y15813D1*
X7803Y15936D1*
X7882Y16056D1*
X8984Y17158D1*
X8582Y17157D1*
X7092Y15670D1*
X7093Y12278D1*
X7625Y12282D1*
X7812D1*
X7934Y12259D1*
X8055Y12181D1*
X8555Y11681D1*
X8627Y11575D1*
X8598Y11627D1*
X12403Y9595D2*
Y9308D1*
X11597D1*
Y9593D1*
X9957D1*
X9527Y9166D1*
X9530Y8250D1*
Y7246D1*
X9894Y7247D1*
X9892Y7686D1*
X9920Y7810D1*
X9978Y7894D1*
X11104Y9021D1*
X11212Y9089D1*
X11313Y9107D1*
X16443Y9109D1*
X17480Y10146D1*
X17588Y10214D1*
X17688Y10232D1*
X18598D1*
X18640Y10261D1*
X18621Y10300D1*
X18598Y10426D1*
X18437Y10580D1*
X17089D1*
X17070Y10439D1*
X17015Y10328D1*
X16941Y10253D1*
X16996Y10195D1*
X17060Y10089D1*
X17090Y9937D1*
X17070Y9814D1*
X17015Y9703D1*
X16927Y9614D1*
X16817Y9556D1*
X16695Y9534D1*
X16571Y9551D1*
X16484Y9593D1*
X14769D1*
X14692Y9556D1*
X14570Y9534D1*
X14446Y9551D1*
X14359Y9593D1*
X12402D1*
X34967Y9028D2*
Y8445D1*
X34162D1*
Y9035D1*
X33460Y9031D1*
X33380Y8993D1*
X33257Y8972D1*
X33134Y8989D1*
X33046Y9031D1*
X31402D1*
X31419Y8937D1*
Y7667D1*
X33625Y7669D1*
X33749Y7641D1*
X33833Y7583D1*
X34217Y7199D1*
X34801Y7196D1*
X34746Y7300D1*
X34722Y7422D1*
X34737Y7545D1*
X34788Y7659D1*
X34872Y7751D1*
X34980Y7813D1*
X35102Y7839D1*
X35226Y7827D1*
X35340Y7777D1*
X35434Y7695D1*
X35498Y7589D1*
X35527Y7437D1*
X35508Y7314D1*
X35482Y7262D1*
X35562Y7194D1*
X35676D1*
X35621Y7300D1*
X35597Y7422D1*
X35612Y7545D1*
X35663Y7659D1*
X35747Y7751D1*
X35855Y7813D1*
X35977Y7839D1*
X36101Y7827D1*
X36215Y7777D1*
X36309Y7695D1*
X36373Y7589D1*
X36402Y7451D1*
X36424Y7545D1*
X36476Y7659D1*
X36560Y7751D1*
X36668Y7813D1*
X36789Y7839D1*
X36913Y7827D1*
X37027Y7777D1*
X37121Y7695D1*
X37185Y7589D1*
X37214Y7451D1*
X37285Y7422D1*
X37299Y7545D1*
X37351Y7659D1*
X37435Y7751D1*
X37526Y7803D1*
X36296Y9033D1*
X35709Y9031D1*
X35633Y8994D1*
X35510Y8972D1*
X35387Y8989D1*
X35299Y9031D1*
X34967D1*
X34287Y10868D2*
X34967D1*
Y10341D1*
X35131Y10343D1*
X35100Y10485D1*
X35115Y10609D1*
X35166Y10722D1*
X35250Y10814D1*
X35274Y10828D1*
X35270Y11500D1*
Y13887D1*
X35130Y13806D1*
X34996Y13786D1*
X34952Y13703D1*
X34865Y13614D1*
X34755Y13556D1*
X34632Y13534D1*
X34543Y13547D1*
X34547Y12809D1*
X34563Y12777D1*
X34592Y12625D1*
X34573Y12502D1*
X34517Y12391D1*
X34430Y12302D1*
X34320Y12244D1*
X34197Y12223D1*
X34074Y12240D1*
X33962Y12293D1*
X33871Y12379D1*
X33811Y12488D1*
X33800Y12545D1*
X33761Y12552D1*
X33649Y12606D1*
X33559Y12692D1*
X33499Y12801D1*
X33487Y12858D1*
X33449Y12865D1*
X33337Y12919D1*
X33246Y13004D1*
X33186Y13113D1*
X33175Y13170D1*
X33136Y13177D1*
X33024Y13231D1*
X32928Y13327D1*
X32880Y13306D1*
X32807Y13293D1*
X33460Y12643D1*
X33528Y12535D1*
X33547Y12434D1*
Y10688D1*
X33518Y10563D1*
X33460Y10480D1*
X33364Y10383D1*
X33500Y10343D1*
X34160D1*
X34162Y10868D1*
X34287D1*
X32557Y10954D2*
Y10610D1*
X32757Y10609D1*
X32958Y10813D1*
Y11356D1*
X32556Y10950D1*
X9828Y13556D2*
X9829Y13279D1*
X10143Y13281D1*
X10266Y13258D1*
X10386Y13180D1*
X11412Y12155D1*
X12682Y12159D1*
X12634Y12177D1*
X12522Y12231D1*
X12431Y12316D1*
X12371Y12426D1*
X12348Y12548D1*
X12362Y12671D1*
X12414Y12785D1*
X12498Y12877D1*
X12606Y12939D1*
X12739Y12964D1*
X12768Y13000D1*
Y16223D1*
X12683Y16362D1*
X12660Y16484D1*
X12674Y16608D1*
X12726Y16721D1*
X12810Y16813D1*
X12929Y16878D1*
Y18292D1*
X13034D1*
X13104Y18395D1*
X13291Y18583D1*
X13399Y18651D1*
X13500Y18669D1*
X14942Y18671D1*
X15518Y19250D1*
Y19292D1*
X15445Y19284D1*
X15321Y19301D1*
X15209Y19355D1*
X15127Y19433D1*
X15052Y19364D1*
X14942Y19306D1*
X14820Y19284D1*
X14696Y19301D1*
X14584Y19355D1*
X14502Y19433D1*
X14427Y19364D1*
X14317Y19306D1*
X14195Y19284D1*
X14071Y19301D1*
X13959Y19355D1*
X13877Y19433D1*
X13802Y19364D1*
X13692Y19306D1*
X13570Y19284D1*
X13446Y19301D1*
X13334Y19355D1*
X13243Y19441D1*
X13183Y19550D1*
X13160Y19672D1*
X13174Y19795D1*
X13226Y19909D1*
X13265Y19952D1*
X13294Y20121D1*
X13354Y20208D1*
X14616Y21470D1*
X14145D1*
X11857Y19184D1*
X9880Y17216D1*
X9839Y17156D1*
X9821Y17003D1*
X9765Y16892D1*
X9678Y16803D1*
X9567Y16745D1*
X9533Y16739D1*
X8468Y15670D1*
Y14622D1*
X8727Y14615D1*
X8670Y14619D1*
X9829D1*
X9825Y13380D1*
X30624Y20672D2*
X30528Y20556D1*
X30416Y20477D1*
X30419Y19371D1*
X30833Y18958D1*
X30830Y20478D1*
X30728Y20550D1*
X30626Y20672D1*
X29833Y20476D2*
X29728Y20550D1*
X29644Y20642D1*
X29580Y20749D1*
X29540Y20867D1*
X29525Y20991D1*
X29536Y21115D1*
X29573Y21235D1*
X29634Y21344D1*
X29715Y21438D1*
X29756Y21468D1*
X28072Y21470D1*
X29830Y19714D1*
Y20480D1*
X31624Y20672D2*
X31528Y20556D1*
X31416Y20477D1*
X31419Y19207D1*
X31832Y19624D1*
X31830Y20478D1*
X31728Y20550D1*
X31626Y20672D1*
X32624D2*
X32528Y20556D1*
X32416Y20477D1*
X32419Y19957D1*
X32828Y20370D1*
X32830Y20478D1*
X32728Y20550D1*
X32626Y20672D1*
X19371Y12591D2*
X20130D1*
Y12423D1*
X20537Y12419D1*
X20597Y12460D1*
X20610Y12596D1*
X20513Y12640D1*
X20210Y12937D1*
X20195Y12952D1*
Y12881D1*
X19429Y12885D1*
X19320Y12881D1*
X18929Y12885D1*
X18894Y12881D1*
X18902Y12812D1*
X18883Y12689D1*
X18832Y12588D1*
X19618Y12591D1*
Y12587D1*
X11633Y7626D2*
X11577Y7515D1*
X11480Y7421D1*
Y7245D1*
X12137Y7242D1*
X12172Y7268D1*
X12287Y7314D1*
X12716Y7318D1*
X13479Y8083D1*
X13587Y8151D1*
X13688Y8169D1*
X16318Y8172D1*
X16696Y8550D1*
X16613Y8522D1*
X16188Y8518D1*
X11432Y8516D1*
X10480Y7561D1*
Y7245D1*
X10894D1*
X10892Y7567D1*
X10871Y7612D1*
X10847Y7734D1*
X10862Y7858D1*
X10913Y7971D1*
X10997Y8063D1*
X11105Y8125D1*
X11227Y8152D1*
X11351Y8139D1*
X11465Y8090D1*
X11559Y8008D1*
X11623Y7901D1*
X11652Y7749D1*
X11633Y7626D1*
X6145Y16434D2*
X6163Y16473D1*
X6247Y16565D1*
X6355Y16627D1*
X6477Y16653D1*
X6600Y16641D1*
X6640Y16624D1*
X8069Y18056D1*
X8171Y18127D1*
X8312Y18157D1*
X9042D1*
X9035Y18236D1*
X9049Y18359D1*
X9101Y18473D1*
X9185Y18565D1*
X9293Y18627D1*
X9335Y18636D1*
X13385Y22684D1*
X13253Y22689D1*
X8554D1*
X4312Y18450D1*
Y12063D1*
X5749D1*
X5855Y12002D1*
X5874Y11938D1*
Y10500D1*
X5813Y10395D1*
X5749Y10375D1*
X4312D1*
Y8625D1*
X8562D1*
X8667Y8564D1*
X8687Y8500D1*
Y7250D1*
X8840Y7249D1*
X8842Y8024D1*
Y9028D1*
X8311Y9031D1*
X6874D1*
X6752Y9054D1*
X6631Y9132D1*
X6194Y9570D1*
X6123Y9672D1*
X6093Y9813D1*
Y16251D1*
X6117Y16376D1*
X27910Y7293D2*
X27924Y7420D1*
X27976Y7534D1*
X28060Y7626D1*
X28168Y7688D1*
X28289Y7714D1*
X28413Y7702D1*
X28527Y7652D1*
X28621Y7570D1*
X28685Y7464D1*
X28715Y7312D1*
X28698Y7208D1*
X28785Y7297D1*
X28799Y7420D1*
X28851Y7534D1*
X28935Y7626D1*
X29043Y7688D1*
X29164Y7714D1*
X29288Y7702D1*
X29402Y7652D1*
X29496Y7570D1*
X29560Y7464D1*
X29590Y7312D1*
X29573Y7208D1*
X29996Y7206D1*
X30038Y7284D1*
X30122Y7376D1*
X30230Y7438D1*
X30352Y7464D1*
X30456Y7454D1*
X30453Y8633D1*
X30229Y8857D1*
X30161Y8965D1*
X30143Y9065D1*
Y10312D1*
X30171Y10436D1*
X30229Y10520D1*
X30331Y10622D1*
X30197Y10598D1*
X30074Y10615D1*
X29961Y10668D1*
X29930Y10698D1*
X29201Y9972D1*
X27016Y7787D1*
X27027Y7687D1*
X27008Y7564D1*
X26952Y7453D1*
X26865Y7364D1*
X26755Y7306D1*
X26632Y7284D1*
X26509Y7301D1*
X26396Y7355D1*
X26300Y7451D1*
X26174Y7397D1*
X26027Y7393D1*
X25880Y7306D1*
X25757Y7284D1*
X25634Y7301D1*
X25521Y7355D1*
X25479Y7395D1*
X25480Y7213D1*
X27894Y7210D1*
X20338Y14674D2*
X20257Y14659D1*
X20134Y14676D1*
X20109Y14688D1*
X20106Y14589D1*
X20195Y14592D1*
Y13924D1*
X20352Y13964D1*
X20476Y13952D1*
X20590Y13902D1*
X20684Y13820D1*
X20748Y13714D1*
X20777Y13562D1*
X20758Y13439D1*
X20702Y13328D1*
X20678Y13303D1*
X20811Y13256D1*
X20913Y13278D1*
X20872Y13363D1*
X20848Y13485D1*
X20863Y13609D1*
X20907Y13705D1*
Y14106D1*
X20342Y14671D1*
X17010Y14973D2*
X17121Y14883D1*
X17185Y14776D1*
X17215Y14625D1*
X17209Y14590D1*
X17268Y14687D1*
X17265Y16380D1*
X17106Y16539D1*
Y15187D1*
X17078Y15063D1*
X17020Y14979D1*
X17012Y14971D1*
X18384Y15565D2*
X18328Y15454D1*
X18241Y15365D1*
X18131Y15307D1*
X18008Y15286D1*
X17885Y15303D1*
X17853Y15318D1*
X17856Y14769D1*
X17979Y14895D1*
X18087Y14963D1*
X18187Y14981D1*
X18630Y14984D1*
X19538Y15892D1*
X18500Y15893D1*
X18375Y15921D1*
X18291Y15979D1*
X18106Y16164D1*
X18216Y16029D1*
X18310Y15946D1*
X18374Y15840D1*
X18403Y15688D1*
X18384Y15565D1*
X16683Y12352D2*
X16640Y12265D1*
X16610Y12235D1*
X17625Y12232D1*
X17684D1*
X17563Y12268D1*
X17438D1*
X17311Y12297D1*
X17230Y12355D1*
X17105Y12480D1*
X17008Y12626D1*
X16952Y12515D1*
X16865Y12426D1*
X16755Y12368D1*
X16690Y12357D1*
X23873Y14377D2*
X23816Y14478D1*
X23770Y14416D1*
X23204Y13850D1*
X23310Y13759D1*
X23374Y13652D1*
X23404Y13501D1*
X23385Y13378D1*
X23329Y13266D1*
X23293Y13230D1*
X23296Y13106D1*
X24794Y13107D1*
X24176Y13722D1*
X24073Y13740D1*
X23961Y13794D1*
X23870Y13879D1*
X23810Y13988D1*
X23786Y14110D1*
X23801Y14234D1*
X23853Y14347D1*
X23876Y14373D1*
X17120Y19335D2*
X17068Y19308D1*
X16946Y19286D1*
X16822Y19303D1*
X16756Y19335D1*
X16692Y19306D1*
X16570Y19284D1*
X16446Y19301D1*
X16359Y19343D1*
X16356Y19187D1*
X16328Y19063D1*
X16270Y18979D1*
X15582Y18291D1*
X16195Y18289D1*
X16304Y18292D1*
X16695Y18289D1*
X16804Y18292D1*
X17195Y18289D1*
X17304Y18292D1*
X17695Y18289D1*
X17804Y18292D1*
X18195Y18289D1*
X18304Y18292D1*
X18695Y18289D1*
X18804Y18292D1*
X19195Y18289D1*
X19304Y18292D1*
X19695D1*
Y16734D1*
X19817D1*
X20196Y17112D1*
X20118Y17190D1*
X20058Y17300D1*
X20035Y17422D1*
X20049Y17545D1*
X20101Y17659D1*
X20124Y17685D1*
X20060Y17801D1*
X20036Y17923D1*
X20050Y18047D1*
X20102Y18160D1*
X20186Y18252D1*
X20294Y18314D1*
X20366Y18330D1*
X20348Y18423D1*
X20363Y18547D1*
X20415Y18660D1*
X20438Y18686D1*
X20372Y18801D1*
X20348Y18923D1*
X20363Y19047D1*
X20417Y19163D1*
X20260Y19178D1*
X20193Y19210D1*
X20131Y19183D1*
X20008Y19161D1*
X19885Y19178D1*
X19773Y19232D1*
X19708Y19293D1*
X19633Y19286D1*
X19510Y19303D1*
X19384Y19370D1*
X19258Y19349D1*
X19135Y19365D1*
X19023Y19419D1*
X18932Y19505D1*
X18872Y19614D1*
X18848Y19736D1*
X18863Y19860D1*
X18877Y19891D1*
X17931Y19894D1*
X17715Y19674D1*
X17696Y19566D1*
X17641Y19454D1*
X17553Y19366D1*
X17443Y19308D1*
X17321Y19286D1*
X17197Y19303D1*
X17131Y19335D1*
X23184Y12000D2*
X23121Y12112D1*
X23097Y12234D1*
X23112Y12358D1*
X23149Y12439D1*
X23009Y12410D1*
X22885Y12427D1*
X22854Y12442D1*
X22855Y11873D1*
X22826Y11749D1*
X22769Y11665D1*
X21480Y10374D1*
Y7221D1*
X21894Y7222D1*
X21892Y7310D1*
X21920Y7434D1*
X21978Y7518D1*
X23273Y8814D1*
X23134Y8785D1*
X23010Y8802D1*
X22898Y8856D1*
X22808Y8941D1*
X22748Y9050D1*
X22724Y9172D1*
X22738Y9296D1*
X22790Y9409D1*
X22874Y9501D1*
X22982Y9563D1*
X23039Y9576D1*
X23051Y9671D1*
X23102Y9784D1*
X23186Y9876D1*
X23294Y9939D1*
X23351Y9951D1*
X23363Y10046D1*
X23415Y10159D1*
X23499Y10251D1*
X23607Y10314D1*
X23728Y10340D1*
X23852Y10327D1*
X23967Y10278D1*
X24016Y10234D1*
X24026Y10306D1*
X23488Y10845D1*
X23384Y10864D1*
X23271Y10918D1*
X23181Y11003D1*
X23121Y11112D1*
X23097Y11234D1*
X23112Y11358D1*
X23163Y11471D1*
X23187Y11497D1*
X23121Y11612D1*
X23097Y11734D1*
X23112Y11858D1*
X23163Y11971D1*
X23187Y11997D1*
X23528Y7351D2*
X23442Y7306D1*
X23320Y7284D1*
X23196Y7301D1*
X23084Y7355D1*
X22993Y7441D1*
X22933Y7550D1*
X22918Y7630D1*
X22511Y7218D1*
X23687Y7219D1*
X24894Y7216D1*
X24892Y7395D1*
X24250Y7393D1*
X24027D1*
X23880Y7306D1*
X23757Y7284D1*
X23634Y7301D1*
X23532Y7350D1*
X28428Y18576D2*
X28410Y18672D1*
X28424Y18795D1*
X28476Y18909D1*
X28577Y19011D1*
X28359Y19224D1*
X28356Y18582D1*
X28389Y18575D1*
X30767Y16932D2*
X30726Y16837D1*
Y16669D1*
X31505Y16670D1*
X31501Y16867D1*
Y17260D1*
Y17416D1*
X31087Y17420D1*
X30694D1*
X30553D1*
X30598Y17396D1*
X30692Y17314D1*
X30756Y17207D1*
X30786Y17055D1*
X30767Y16932D1*
X27011Y17421D2*
X26601Y17420D1*
X26598Y17006D1*
Y16613D1*
Y16469D1*
X26834Y16473D1*
X26837Y17087D1*
X26860Y17210D1*
X26924Y17316D1*
X27026Y17393D1*
X27030Y17420D1*
X26757Y17424D1*
X26595Y17420D1*
X26598Y16809D1*
Y16471D1*
Y16545D1*
X26363Y17658D2*
Y18345D1*
X25310Y19394D1*
X23205D1*
X23954Y18649D1*
X25000Y17606D1*
X25441D1*
X25438Y17654D1*
X26364D1*
X27095Y17420D2*
X26708D1*
X26598Y17260D1*
Y16617D1*
X31735Y18443D2*
Y17654D1*
X32661D1*
Y17627D1*
X33343Y17625D1*
Y20050D1*
X31734Y18442D1*
X31501Y16671D2*
Y17423D1*
X31020Y17420D1*
X30645D1*
X31501Y16670D2*
X31505Y17064D1*
X31501Y17006D1*
X31503Y17420D1*
X30891Y17424D1*
X30948Y17420D1*
X30555D1*
X31502Y15431D2*
X31501Y16026D1*
X31081Y16022D1*
X30499D1*
X30383Y16002D1*
X29801D1*
X29797Y15596D1*
Y15092D1*
X30453Y15095D1*
X31505D1*
X31501Y15292D1*
Y15686D1*
Y15883D1*
X31505D1*
X31501Y13915D2*
Y14448D1*
X29796Y14447D1*
X29797Y14119D1*
X30581Y14117D1*
X30703Y14093D1*
X30810Y14022D1*
X30918Y13914D1*
X31505D1*
X31501Y14111D1*
Y14308D1*
Y14428D1*
X32274Y12282D2*
X31735D1*
Y11357D1*
X31630D1*
X31644Y11274D1*
X31735Y11337D1*
X32270Y11875D1*
Y12285D1*
X26390Y11357D2*
X26363D1*
Y12282D1*
X25758D1*
X25727Y12256D1*
X25612Y12209D1*
X25187Y12205D1*
X24457D1*
X24583Y12083D1*
X24651Y11975D1*
X24669Y11875D1*
X24671Y11244D1*
X24875Y11044D1*
X26394D1*
X26393Y11355D1*
X26597Y12930D2*
X26598Y12676D1*
X26595Y12516D1*
X27208Y12512D1*
X27150Y12516D1*
X27741Y12515D1*
X28389Y12516D1*
X28720D1*
X28687Y12540D1*
X27656D1*
X27534Y12562D1*
X27413Y12640D1*
X26985Y13068D1*
X26594Y13069D1*
X26598Y12513D1*
X27011Y12516D1*
X27405D1*
X27798D1*
X28192D1*
X28586D1*
X28717D1*
X28653D1*
X26598Y14644D2*
X26594Y14250D1*
X26598Y14308D1*
Y13716D1*
X26834Y13719D1*
Y14646D1*
X26594Y14644D1*
X26598Y14447D1*
Y14053D1*
Y13857D1*
Y13736D1*
Y15825D2*
Y15288D1*
X27061Y15292D1*
X27138Y15309D1*
X27262Y15301D1*
X27375Y15249D1*
X27463Y15161D1*
X27513Y15047D1*
X27522Y14843D1*
Y13503D1*
X27800Y13226D1*
X28722Y13227D1*
X28718Y13633D1*
Y13687D1*
X28741Y13809D1*
X28805Y13916D1*
X28903Y13992D1*
X29026Y14028D1*
X29113Y14031D1*
X29109Y14418D1*
Y16346D1*
X29132Y16468D1*
X29196Y16574D1*
X29295Y16651D1*
X29417Y16687D1*
X30035Y16690D1*
X30039Y16740D1*
X29508Y16744D1*
X27524D1*
X27525Y16149D1*
X27502Y16027D1*
X27438Y15921D1*
X27340Y15844D1*
X27221Y15808D1*
X27079Y15824D1*
X26594Y15825D1*
X26598Y15293D1*
X26594Y15431D1*
X20892Y7223D2*
Y9973D1*
X20480Y9561D1*
Y7229D1*
X20894Y7224D1*
X19892Y7223D2*
Y9161D1*
X19480Y8749D1*
Y7229D1*
X19894Y7226D1*
X18892Y7231D2*
Y8348D1*
X18480Y7936D1*
Y7229D1*
X18894Y7228D1*
X22097Y16205D2*
X21244Y16203D1*
X20684Y15642D1*
X20772Y15584D1*
X21266Y15089D1*
X21268Y15251D1*
X21296Y15375D1*
X21354Y15459D1*
X22102Y16208D1*
X23687Y8231D2*
X25067Y8234D1*
X25460Y8619D1*
X25500Y8643D1*
X23933Y8641D1*
X23522Y8229D1*
X23687Y8231D1*
D19*
X42687Y17812D3*
D20*
X34616D3*
D22*
X8312Y10937D3*
D23*
X7312D3*
D24*
X10343Y11767D3*
Y11255D3*
X12000Y10750D3*
Y11262D3*
Y9750D3*
Y9238D3*
X34565Y8887D3*
Y8375D3*
Y10426D3*
Y10938D3*
D21*
X18126Y12188D3*
X17614D3*
X32627Y10625D3*
X32115D3*
D25*
X9250Y12937D3*
X8147D3*
X9250Y14000D3*
X8147D3*
D26*
X9186Y5399D3*
X10186D3*
X11186D3*
X12186D3*
X13186D3*
X14186D3*
X15186D3*
X16186D3*
X17186D3*
X18186D3*
X19186D3*
X20186D3*
X21186D3*
X22186D3*
X23186D3*
X24186D3*
X25186D3*
X26186D3*
X27186D3*
X28186D3*
X29186D3*
X30186D3*
X31186D3*
X32186D3*
X33186D3*
X34186D3*
X35186D3*
X36186D3*
X37186D3*
X38186D3*
D27*
X29125Y21000D3*
D28*
X30125D3*
X31125D3*
X32125D3*
X33125D3*
D21*
X13125Y11812D3*
X13636D3*
X13125Y12312D3*
X13636D3*
X19688Y12188D3*
X19176D3*
D30*
X26687Y18000D3*
X26884D3*
X27081D3*
X27278D3*
X27474D3*
X27671D3*
X27868D3*
X28065D3*
X28262D3*
X28459D3*
X28656D3*
X28852D3*
X29049D3*
X29246D3*
X29443D3*
X29640D3*
X29837D3*
X30033D3*
X30230D3*
X30427D3*
X30624D3*
X30821D3*
X31018D3*
X31215D3*
X31411D3*
D31*
X32081Y17330D3*
Y17133D3*
Y16937D3*
Y16740D3*
Y16543D3*
Y16346D3*
Y16149D3*
Y15952D3*
Y15755D3*
Y15559D3*
Y15362D3*
Y15165D3*
Y14968D3*
Y14771D3*
Y14574D3*
Y14377D3*
Y14181D3*
Y13984D3*
Y13787D3*
Y13590D3*
Y13393D3*
Y13196D3*
Y13000D3*
Y12803D3*
Y12606D3*
D30*
X31411Y11937D3*
X31215D3*
X31018D3*
X30821D3*
X30624D3*
X30427D3*
X30230D3*
X30033D3*
X29837D3*
X29640D3*
X29443D3*
X29246D3*
X29049D3*
X28852D3*
X28656D3*
X28459D3*
X28262D3*
X28065D3*
X27868D3*
X27671D3*
X27474D3*
X27278D3*
X27081D3*
X26884D3*
X26687D3*
D31*
X26018Y12606D3*
Y12803D3*
Y13000D3*
Y13196D3*
Y13393D3*
Y13590D3*
Y13787D3*
Y13984D3*
Y14181D3*
Y14377D3*
Y14574D3*
Y14771D3*
Y14968D3*
Y15165D3*
Y15362D3*
Y15559D3*
Y15755D3*
Y15952D3*
Y16149D3*
Y16346D3*
Y16543D3*
Y16740D3*
Y16937D3*
Y17133D3*
Y17330D3*
D33*
X13312Y17437D3*
X13812D3*
X14312D3*
X14812D3*
X15312D3*
X15812D3*
X16312D3*
X16812D3*
X17312D3*
X17812D3*
X18312D3*
X18812D3*
X19312D3*
X19812D3*
Y13736D3*
X19312D3*
X18812D3*
X18312D3*
X17812D3*
X17312D3*
X16812D3*
X16312D3*
X15812D3*
X15312D3*
X14812D3*
X14312D3*
X13812D3*
X13312D3*
M02*
