G04 DipTrace 2.4.0.2*
%INBottom.gbr*%
%MOIN*%
%ADD13C,0.0059*%
%ADD14C,0.0157*%
%ADD15C,0.0118*%
%ADD16C,0.0394*%
%ADD17C,0.025*%
%ADD19R,0.0748X0.0748*%
%ADD20C,0.0669*%
%ADD21R,0.0787X0.1575*%
%ADD22R,0.0354X0.0276*%
%ADD23R,0.063X0.063*%
%ADD24C,0.063*%
%ADD25R,0.0276X0.0354*%
%ADD26R,0.063X0.0709*%
%ADD27R,0.0709X0.2559*%
%ADD28R,0.0118X0.063*%
%ADD29R,0.063X0.0118*%
%ADD34R,0.0236X0.1181*%
%ADD37C,0.0276*%
%FSLAX44Y44*%
G04*
G70*
G90*
G75*
G01*
%LNBottom*%
%LPD*%
X22083Y11076D2*
D13*
Y10357D1*
X22249Y10190D1*
Y9750D1*
X22186Y5399D2*
Y8685D1*
X22249Y8748D1*
Y9238D1*
X14438Y10313D2*
D14*
Y10063D1*
X12313D1*
Y10313D1*
X29877Y10125D2*
Y9875D1*
X27752D1*
Y10125D1*
X30315Y18126D2*
X32065Y16376D1*
Y9875D1*
X31690D1*
X29877D1*
X8062D2*
Y9938D1*
X8187Y10063D1*
X12313D1*
X14438D2*
X16063D1*
Y10313D1*
X18501Y12563D2*
X18751D1*
Y12688D1*
X16688Y13688D2*
X17313D1*
X18439Y12563D1*
X18501D1*
X18439D2*
X19564Y11438D1*
X16063Y10063D2*
X17438D1*
Y10250D1*
Y10313D1*
X25232Y11076D2*
D15*
Y11978D1*
D14*
X26807D1*
X28234D1*
X28502Y12247D1*
Y13320D1*
X28600Y13418D1*
D15*
X29346D1*
X26807Y11076D2*
Y11978D1*
X23264Y11076D2*
Y11801D1*
D14*
X23252Y11813D1*
Y12563D1*
X24648D1*
X25232Y11978D1*
X20921Y13222D2*
D15*
X22405D1*
D14*
X23064Y12563D1*
X23252D1*
X20921Y15190D2*
D15*
X22376D1*
D14*
Y14751D1*
Y13205D1*
X23064Y12563D1*
X20921Y17159D2*
D15*
X22376D1*
D14*
Y15190D1*
X22625D1*
X22626Y15188D1*
X25232Y19501D2*
D15*
Y18958D1*
D14*
X25502Y18689D1*
Y18564D1*
Y17159D1*
X22376D1*
X26413Y19501D2*
D15*
Y17159D1*
D14*
X25502D1*
X29346Y14993D2*
D15*
X28307D1*
D14*
X28252Y14938D1*
X27752D1*
X27564Y14751D1*
X22376D1*
X25689Y18376D2*
X25502Y18564D1*
X23189Y20064D2*
D15*
X23264D1*
Y19501D1*
X32002Y10125D2*
D14*
X32065Y9875D1*
X31690Y10375D2*
Y9875D1*
X29346Y16962D2*
D15*
X28604D1*
X28377Y17188D1*
X27752D1*
D14*
X27564Y17001D1*
X26552D1*
X26413Y17159D1*
X14438Y9688D2*
X12313D1*
X9186Y5399D2*
Y9688D1*
Y9000D1*
X7000D1*
X6437Y9563D1*
Y14813D1*
X6750Y15126D1*
X27752Y9500D2*
X29877D1*
X30315Y18564D2*
X32377Y16501D1*
Y9500D1*
X36315D1*
X38128Y7687D1*
Y7437D1*
X38187D1*
X12313Y9688D2*
X9186D1*
X8688Y16313D2*
X7648D1*
Y15626D1*
X29877Y9500D2*
X31690D1*
X32377D1*
X17438D2*
Y9688D1*
X12313D1*
X31690Y9500D2*
Y9437D1*
X14438Y9688D2*
X17688D1*
X17751Y9625D1*
X32002Y9500D2*
X32377D1*
X23186Y5399D2*
D16*
X24186D1*
X8750Y13438D2*
D14*
Y12938D1*
Y14563D2*
Y15626D1*
Y14563D2*
Y13438D1*
Y12938D2*
Y12188D1*
X10250Y11737D2*
X8825D1*
X8750Y11813D1*
Y12188D1*
X8312Y17876D2*
X7062Y16626D1*
Y14563D1*
X7648D1*
X30315Y19001D2*
X32690Y16626D1*
Y14938D1*
X34690Y12938D1*
X35378D1*
Y11500D1*
X39323D1*
X39816D1*
X41378Y13063D1*
X35393Y12543D2*
Y11500D1*
X39323Y12543D2*
Y11500D1*
X24752Y9238D2*
D13*
Y8938D1*
X26189Y7500D1*
Y5402D1*
X26186Y5399D1*
X24445Y11076D2*
Y10370D1*
X24752Y10063D1*
Y9750D1*
X25877Y7375D2*
X24439Y8813D1*
Y9938D1*
X24252Y10125D1*
Y11072D1*
X24248Y11076D1*
X14250Y15438D2*
Y14564D1*
X14313Y14501D1*
X14250Y15438D2*
Y16125D1*
X14563Y16438D1*
X17001D1*
X17376Y16063D1*
Y14626D1*
X18189Y13813D1*
X18814D1*
X19007Y13620D1*
X20917D1*
X20921Y13615D1*
X11875Y12688D2*
Y12813D1*
X11500Y13188D1*
Y16251D1*
X12063Y16813D1*
Y17001D1*
X11750Y11737D2*
Y12563D1*
X11875Y12688D1*
X12063Y17001D2*
X13008Y17946D1*
X20921D1*
X11500Y12813D2*
X11250Y13063D1*
Y14624D1*
Y16313D1*
X11688Y16751D1*
Y17001D1*
X11250Y15438D2*
Y14624D1*
X11688Y17001D2*
X12830Y18143D1*
X20921D1*
X11313Y16876D2*
X11000Y16563D1*
Y12813D1*
X11125Y12688D1*
X11250Y11737D2*
Y12563D1*
X11125Y12688D1*
X11313Y16876D2*
Y17001D1*
X12652Y18340D1*
X20921D1*
X11186Y5399D2*
X11188Y7937D1*
X14751Y14501D2*
Y15438D1*
X14750D1*
Y16125D1*
X14938Y16313D1*
X16938D1*
X17226Y16026D1*
Y14588D1*
X18126Y13688D1*
X18751D1*
X18939Y13501D1*
X20064D1*
X20146Y13418D1*
X20921D1*
X12186Y5399D2*
Y6686D1*
X13000Y7500D1*
X14438D1*
X15001Y8062D1*
X19689Y12313D2*
X20126D1*
X20202Y12237D1*
X20921D1*
X23854Y19501D2*
Y18023D1*
X23877Y18001D1*
X13186Y5399D2*
Y6686D1*
X13813Y7312D1*
X14626D1*
X15376Y8062D1*
X20001Y12063D2*
Y12041D1*
X20921D1*
X24051Y19501D2*
Y18389D1*
X24127Y18314D1*
X24248Y19501D2*
Y18567D1*
X24439Y18376D1*
Y18001D1*
X16376Y7437D2*
Y7500D1*
X15938Y7937D1*
X24445Y19501D2*
Y18620D1*
X24752Y18314D1*
X24689D1*
X22673Y19501D2*
Y18642D1*
X22876Y18439D1*
Y18001D1*
X21689Y19501D2*
Y18376D1*
X21626Y18314D1*
X22083Y19501D2*
Y18357D1*
X22126Y18314D1*
X23657Y19501D2*
Y18344D1*
X23627Y18314D1*
X23067Y19501D2*
Y18748D1*
X23377Y18439D1*
Y18001D1*
X22476Y19501D2*
Y18589D1*
X22626Y18439D1*
Y18314D1*
X13750Y11737D2*
Y12438D1*
X14001Y12688D1*
X14126D1*
X14438Y13000D1*
X14376D1*
Y13250D1*
X14001Y13626D1*
Y14126D1*
X13501Y14626D1*
Y16126D1*
X14063Y16688D1*
X17126D1*
X17626Y16188D1*
Y14751D1*
X17876Y14501D1*
X18501D1*
X18599Y14403D1*
X20921D1*
X24642Y19501D2*
Y18736D1*
X24939Y18439D1*
Y18001D1*
X25035Y19501D2*
Y18717D1*
X25189Y18564D1*
Y18314D1*
X21886Y19501D2*
Y18073D1*
X21876Y18063D1*
Y18001D1*
X22279Y19501D2*
Y18536D1*
X22376Y18439D1*
Y18001D1*
X14626Y13313D2*
Y13813D1*
X13751Y14688D1*
Y15438D1*
X13750D1*
Y16125D1*
X14188Y16563D1*
X17063D1*
X17501Y16126D1*
Y14688D1*
X18251Y13938D1*
X18814D1*
X19001Y14126D1*
X19751D1*
X19868Y14009D1*
X20921D1*
X13751Y7750D2*
X14188D1*
X14251Y7812D1*
X13938Y12938D2*
Y13375D1*
X13751Y13563D1*
Y14126D1*
X13250Y14626D1*
Y15438D1*
Y16125D1*
X13938Y16813D1*
X17251D1*
X17751Y16313D1*
Y15063D1*
X18001Y14813D1*
X18523D1*
X18586Y14876D1*
X18934D1*
X19014Y14796D1*
X20921D1*
X13438Y12938D2*
Y13188D1*
X12938Y13688D1*
Y13813D1*
X12750Y15438D2*
Y14501D1*
X12938Y14313D1*
Y13813D1*
X12750Y15438D2*
Y16126D1*
X13688Y17063D1*
X17376D1*
X18126Y16313D1*
X18564D1*
X18702Y16174D1*
X20921D1*
X12625Y14001D2*
Y13563D1*
X13125Y13063D1*
Y12688D1*
X12750Y11737D2*
Y12313D1*
X13125Y12688D1*
X12625Y14001D2*
Y14376D1*
X12500Y14501D1*
Y16126D1*
X13563Y17188D1*
X17438D1*
X18063Y16563D1*
X18564D1*
X18689Y16688D1*
X18939D1*
X19059Y16568D1*
X20921D1*
X12813Y12938D2*
X12313Y13438D1*
Y14188D1*
X12250Y15438D2*
Y14251D1*
X12313Y14188D1*
X12250Y15438D2*
Y16126D1*
X13480Y17355D1*
X20921D1*
X12500Y12688D2*
Y13000D1*
X12000Y13501D1*
Y14376D1*
X12250Y11737D2*
Y12438D1*
X12500Y12688D1*
X12000Y14376D2*
Y16188D1*
X13364Y17552D1*
X20921D1*
X12188Y12938D2*
X11750Y13375D1*
Y14699D1*
Y16251D1*
X12438Y16938D1*
Y17001D1*
X11750Y15438D2*
Y14699D1*
X12438Y16938D2*
X13250Y17751D1*
X20919D1*
X20921Y17749D1*
X19189Y13876D2*
X19751D1*
X19815Y13812D1*
X20921D1*
X20626Y8500D2*
Y7312D1*
X21186Y6752D1*
Y5399D1*
X16250Y15438D2*
X16188D1*
Y14876D1*
X16126Y14813D1*
Y13751D1*
X16563Y13313D1*
X17251D1*
X19126Y11438D1*
Y10000D1*
X20626Y8500D1*
X18439Y14188D2*
Y14251D1*
X19876D1*
X19921Y14206D1*
X20921D1*
X20251Y8375D2*
Y7754D1*
X20186Y7690D1*
Y5399D1*
X15750Y15438D2*
Y13939D1*
X16501Y13188D1*
X17188D1*
X19001Y11375D1*
Y9625D1*
X20251Y8375D1*
X18753Y14642D2*
Y14600D1*
X20921D1*
X19186Y5399D2*
Y7435D1*
X19876Y8125D1*
Y8250D1*
X15250Y15438D2*
Y14251D1*
X16438Y13063D1*
X17126D1*
X18876Y11313D1*
Y9250D1*
X19876Y8250D1*
X18439Y15063D2*
Y15051D1*
X19130D1*
X19188Y14993D1*
X20921D1*
X18186Y5399D2*
Y6685D1*
X19439Y7937D1*
Y8062D1*
X19501Y8125D1*
X14750Y11737D2*
Y12437D1*
X15251Y12938D1*
X17063D1*
X18751Y11250D1*
Y8875D1*
X19501Y8125D1*
X18439Y15501D2*
Y15387D1*
X20921D1*
X17186Y5399D2*
Y6685D1*
X17313Y6812D1*
X17501D1*
X18063Y7375D1*
X18564D1*
X19189Y8000D1*
X19126D1*
X15250Y11737D2*
Y12437D1*
X15626Y12813D1*
X17001D1*
X18626Y11188D1*
Y8500D1*
X19126Y8000D1*
X18376Y15938D2*
X18534Y15781D1*
X20921D1*
X16186Y5399D2*
Y6685D1*
X16438Y6937D1*
X17438D1*
X18001Y7500D1*
X18314D1*
X18751Y7937D1*
X15750Y11737D2*
Y12375D1*
X16063Y12688D1*
X16938D1*
X18501Y11125D1*
Y8187D1*
X18751Y7937D1*
X18814Y16438D2*
Y16371D1*
X20921D1*
X15186Y5399D2*
Y6686D1*
X15563Y7062D1*
X17376D1*
X17938Y7625D1*
X18189D1*
X18376Y7812D1*
Y7937D1*
X16250Y11737D2*
Y12375D1*
X16438Y12563D1*
X16876D1*
X18376Y11063D1*
Y7937D1*
Y16813D2*
X19064D1*
X19112Y16765D1*
X20921D1*
X14186Y5399D2*
Y6686D1*
X14688Y7187D1*
X17251D1*
X18001Y7937D1*
X16750Y11737D2*
X17514D1*
X18251Y11000D1*
Y8250D1*
X18001Y8000D1*
Y7937D1*
X22875Y9750D2*
Y10065D1*
X22673Y10266D1*
Y11076D1*
X22814Y7375D2*
Y9238D1*
X22875D1*
X10750Y15438D2*
Y16751D1*
X12500Y18501D1*
X20376D1*
X20412Y18537D1*
X20921D1*
X10250Y15438D2*
Y16501D1*
X12375Y18626D1*
X20251D1*
X20359Y18733D1*
X20921D1*
X19439Y12563D2*
X20064D1*
X20192Y12434D1*
X20921D1*
X19189Y13250D2*
Y12188D1*
X20251Y11125D1*
Y9750D1*
X19189Y13250D2*
X19626D1*
X20049Y12828D1*
X20921D1*
X22870Y19501D2*
Y18633D1*
X23127Y18376D1*
Y18314D1*
X29346Y16765D2*
D15*
X30016D1*
X30065Y16813D1*
X18751Y13200D2*
D14*
X18677D1*
X18439Y13438D1*
X29346Y15387D2*
D15*
X29740D1*
D14*
X29940D1*
Y16688D1*
X30065Y16813D1*
X29346Y13222D2*
D15*
X29719D1*
X29940Y13000D1*
X26610Y11076D2*
Y11580D1*
X26502Y11688D1*
D14*
X26314D1*
X20921Y15584D2*
D15*
X21315D1*
D14*
X21543D1*
X21564Y15563D1*
X20921Y13025D2*
D15*
X21315D1*
D14*
X21852D1*
X22626Y12250D1*
X22814D1*
X22876Y12188D1*
X20921Y16962D2*
D15*
X21315D1*
D14*
X21478D1*
X21564Y16876D1*
X20921Y16962D2*
D15*
X20527D1*
D14*
X20040D1*
X19939Y17063D1*
X23461Y11076D2*
D15*
Y10682D1*
D14*
Y10541D1*
X23627Y10375D1*
X23461Y19501D2*
D15*
Y19960D1*
X23564Y20064D1*
D14*
X25627D1*
D15*
X24925D1*
X24838Y19977D1*
D14*
Y19501D1*
X26610D2*
D15*
Y20080D1*
D14*
X26252Y20439D1*
X26002D1*
X21513Y9250D2*
Y7988D1*
X21939Y7562D1*
Y7625D1*
X29252Y11125D2*
Y11313D1*
X29377Y11438D1*
X29877D1*
X30502Y10813D1*
Y10625D1*
X30627Y10500D1*
X29346Y16765D2*
D15*
X28238D1*
X28127Y16876D1*
X16376Y14126D2*
D14*
X17313D1*
X18001Y13438D1*
X18439D1*
X29346Y13222D2*
D15*
X28911D1*
X28815Y13125D1*
X25627Y20064D2*
D14*
X26002Y20439D1*
X30440Y19751D2*
X30190D1*
X29940Y19501D1*
Y18001D1*
X30065Y17876D1*
X30440Y19751D2*
Y19314D1*
X32940Y16813D1*
Y15063D1*
X34628Y13375D1*
X34753D1*
X15938Y8375D2*
X11125D1*
X11063Y8312D1*
X30065Y17876D2*
X30127D1*
X31752Y16251D1*
X31690D1*
X11063Y8312D2*
X11000D1*
X10563Y7875D1*
Y7500D1*
X10438Y7375D1*
X21939Y7625D2*
Y7875D1*
X20939Y8875D1*
X20564D1*
X19501Y9938D1*
Y10875D1*
X17063Y10563D2*
Y10625D1*
X15251D1*
X13375D1*
X7562D1*
X7125Y10188D1*
Y9938D1*
X7062Y9875D1*
X17438Y10824D2*
X17325D1*
X17063Y10563D1*
X13375Y10500D2*
Y10625D1*
X15251Y10500D2*
Y10625D1*
X24838Y11076D2*
D15*
Y10682D1*
D14*
Y10538D1*
X25002Y10375D1*
X25377D1*
X27231Y8521D1*
X31195D1*
Y8926D1*
X31690D1*
X23189Y7375D2*
D13*
Y10125D1*
X22870Y10444D1*
Y11076D1*
X25035D2*
Y11505D1*
X24865Y11675D1*
X24627D1*
X10186Y5399D2*
Y7874D1*
X10938Y8625D1*
X17626D1*
X18126Y9125D1*
Y10000D1*
X18001D1*
X27004Y11076D2*
Y10627D1*
X26877Y10500D1*
X27186Y5399D2*
Y6940D1*
X26752Y7375D1*
X25377Y9238D2*
Y8750D1*
X26752Y7375D1*
X24642Y11076D2*
Y10423D1*
X24980Y10084D1*
X25225D1*
X25377Y9933D1*
Y9750D1*
X24127D2*
X24051D1*
Y11076D1*
X25377Y7375D2*
X24127Y8625D1*
Y9238D1*
X30752Y16813D2*
X30690Y16751D1*
Y13063D1*
X31614Y12139D1*
Y11661D1*
X29346Y17552D2*
X30076D1*
X30690Y16938D1*
Y16813D1*
X30752D1*
X29346Y16174D2*
X28113D1*
X28099Y16188D1*
X27502D1*
X23502Y9750D2*
Y10063D1*
X23067Y10497D1*
Y11076D1*
X25186Y5399D2*
Y7128D1*
X23502Y8813D1*
Y9238D1*
X29346Y12237D2*
X30364D1*
X30752Y12625D1*
X31186Y5399D2*
Y6753D1*
X30565Y7375D1*
X29690D1*
X28940Y10938D2*
Y10813D1*
X28752Y10625D1*
X28627D1*
X28565Y10688D1*
Y11062D1*
X28579Y11076D1*
X29346Y17355D2*
X28710D1*
X28440Y17626D1*
X27002D1*
Y17563D1*
X32186Y5399D2*
Y6753D1*
X31565Y7375D1*
X31065D1*
X29627Y10938D2*
Y10688D1*
X29440Y10500D1*
X28440D1*
X28377Y10563D1*
Y11071D1*
X28382Y11076D1*
X29346Y17159D2*
X28657D1*
X28377Y17438D1*
X27314D1*
Y17313D1*
X33186Y5399D2*
Y6753D1*
X32565Y7375D1*
X32065D1*
Y7993D1*
X32770Y8698D1*
X30190Y10625D2*
X29940Y10375D1*
X27127D1*
X26939Y10188D1*
X25939D1*
X25439Y10688D1*
Y11066D1*
X25429Y11076D1*
X29346Y16568D2*
X27997D1*
X27877Y16688D1*
X27439D1*
X29346Y12434D2*
X30061D1*
X30502Y12875D1*
X34186Y5399D2*
Y6941D1*
X33753Y7375D1*
X33003D1*
X30815Y11000D2*
X30002Y11813D1*
X29377D1*
X29346Y11844D1*
Y16371D2*
X27997D1*
X27930Y16438D1*
X27752D1*
X29346Y15978D2*
X28166D1*
X28127Y15938D1*
X27877D1*
X29346Y15781D2*
X28282D1*
X28190Y15688D1*
X27564D1*
X29346Y17749D2*
X28754D1*
X28752Y17751D1*
X29346Y12041D2*
X30667D1*
X31002Y12375D1*
X29346Y12631D2*
X29945D1*
X30252Y12938D1*
Y13250D1*
X30377Y13375D1*
X30440D1*
X29346Y13615D2*
X28367D1*
X28190Y13438D1*
Y13250D1*
X29346Y14403D2*
X28592D1*
X28315Y14126D1*
X27940D1*
X29346Y14796D2*
X28548D1*
X28377Y14626D1*
X28002D1*
X29346Y15584D2*
X28335D1*
X28190Y15438D1*
X27877D1*
X29346Y15190D2*
X28191D1*
X28190Y15188D1*
X27564D1*
X28186Y5399D2*
Y6753D1*
X27564Y7375D1*
X27439D1*
X29346Y14600D2*
X28601D1*
X28377Y14376D1*
X27627D1*
X29186Y5399D2*
Y6753D1*
X28565Y7375D1*
X28190D1*
X29346Y14206D2*
X28582D1*
X28190Y13813D1*
X27690D1*
X27627Y13876D1*
X28940Y7375D2*
X29377Y6937D1*
X30002D1*
X30186Y6753D1*
Y5399D1*
X38186D2*
Y6750D1*
X37566Y7371D1*
Y7500D1*
X37186Y5399D2*
Y6629D1*
X36315Y7500D1*
X36186Y5399D2*
Y6754D1*
X35440Y7500D1*
X35186Y5399D2*
Y6879D1*
X34565Y7500D1*
X25689Y12438D2*
X27002D1*
X28565Y14001D1*
X29346D1*
Y14009D1*
X21513Y9813D2*
Y10137D1*
X21689Y10313D1*
Y11076D1*
X21001Y9813D2*
Y9250D1*
X14250Y11737D2*
Y10938D1*
X16876D1*
X17188Y11250D1*
X17813D1*
X18063Y11000D1*
Y10813D1*
X18001Y10750D1*
X9262Y13438D2*
X10000D1*
X11000Y12438D1*
Y11063D1*
X11125Y10938D1*
X14250D1*
X20814Y10438D2*
X20939Y10313D1*
Y9813D1*
X21001D1*
X13250Y11737D2*
Y12375D1*
X13688Y12813D1*
Y13125D1*
X13250Y13563D1*
Y14313D1*
X13000Y14563D1*
Y16188D1*
X13751Y16938D1*
X17313D1*
X18063Y16188D1*
X18501D1*
X18712Y15978D1*
X20921D1*
X10750Y11737D2*
Y11000D1*
X10938Y10813D1*
X16938D1*
X17251Y11125D1*
X17688D1*
X17751Y11063D1*
Y10500D1*
X17876Y10375D1*
X10750Y11737D2*
Y12500D1*
X10313Y12938D1*
X9262D1*
X21886Y11076D2*
Y10134D1*
X21876Y10125D1*
X28382Y19501D2*
Y19943D1*
X28815Y20376D1*
X28939D1*
X29002Y20439D1*
X28185Y19501D2*
Y20256D1*
X28002Y20439D1*
X28579Y19501D2*
Y19828D1*
X28690Y19939D1*
X29502D1*
X30002Y20439D1*
X27988Y19501D2*
Y19890D1*
X27940Y19939D1*
X27502D1*
X27002Y20439D1*
D37*
X25689Y12438D3*
X11188Y7937D3*
X38187Y7437D3*
X6750Y15126D3*
X12313Y10313D3*
X14438D3*
X12313Y9688D3*
X14438D3*
X27752Y9500D3*
Y10125D3*
X29877D3*
Y9500D3*
X27439Y7375D3*
X28190D3*
X28940D3*
X19876Y8250D3*
X19439Y12563D3*
X14751Y14501D3*
X18001Y10750D3*
X19189Y13250D3*
X19689Y12313D3*
X25689Y18376D3*
X21876Y10125D3*
X17876Y10375D3*
X20814Y10438D3*
X19189Y13876D3*
X18439Y14188D3*
X18753Y14642D3*
X18439Y15063D3*
Y15501D3*
X18376Y15938D3*
X11500Y12813D3*
X11875Y12688D3*
X12188Y12938D3*
X12500Y12688D3*
X12313Y14188D3*
X13125Y12688D3*
X13438Y12938D3*
X13938D3*
X14376Y13000D3*
X14626Y13313D3*
X20501Y10750D3*
X13751Y13563D3*
X12938Y13813D3*
X12813Y12938D3*
X11125Y12688D3*
X12625Y14001D3*
X12000Y14376D3*
X12438Y17001D3*
X12063D3*
X11688D3*
X11313Y16876D3*
X16063Y10313D3*
X17751Y9625D3*
X16376Y7437D3*
X15938Y7937D3*
X18814Y16438D3*
X32002Y9500D3*
X34565Y7500D3*
X35440D3*
X36315D3*
X37566D3*
X18376Y16813D3*
X23877Y18001D3*
X24127Y18314D3*
X14313Y14501D3*
X26877Y10500D3*
X28940Y10938D3*
X13751Y7750D3*
X14251Y7812D3*
X20251Y9750D3*
X15001Y14188D3*
X8312Y17876D3*
X20001Y12063D3*
X19564Y11438D3*
X16688Y13688D3*
X29627Y10938D3*
X30190Y10625D3*
X24627Y11675D3*
X30815Y11000D3*
X31002Y12375D3*
X30752Y12625D3*
X30502Y12875D3*
X30440Y13375D3*
X28190Y13250D3*
X18501Y12563D3*
X26503Y8033D3*
X26752Y7375D3*
X29690D3*
X31065D3*
X32065D3*
X33003D3*
X21626Y18314D3*
X22126D3*
X22626D3*
X27627Y13876D3*
X27940Y14126D3*
X27627Y14376D3*
X28002Y14626D3*
X27564Y15188D3*
X27877Y15438D3*
X18001Y10000D3*
X15001Y8062D3*
X15376D3*
X24689Y18314D3*
X24439Y18001D3*
X27564Y15688D3*
X27877Y15938D3*
X24939Y18001D3*
X25189Y18314D3*
X27502Y16188D3*
X27752Y16438D3*
X27439Y16688D3*
X23377Y18001D3*
X23627Y18314D3*
X23127D3*
X8688Y16313D3*
X27314Y17313D3*
X32002Y10125D3*
X27002Y17563D3*
X31690Y14938D3*
X10375Y18439D3*
X28752Y17751D3*
X29940Y13000D3*
X26314Y11688D3*
X22814Y7375D3*
X23189D3*
X25377D3*
X25877D3*
X22626Y15188D3*
X21564Y15563D3*
X21376Y10813D3*
X22876Y12188D3*
X19939Y17063D3*
X21564Y16876D3*
X23627Y10375D3*
X43004Y8688D3*
X31690Y16251D3*
X36565Y12563D3*
X38128D3*
X19501Y10875D3*
X23189Y20064D3*
X30315Y18126D3*
Y18564D3*
Y19001D3*
X15751Y13375D3*
X21376Y7250D3*
X21939Y7625D3*
X22376Y18001D3*
X22876D3*
X21876D3*
X35190Y8875D3*
X37316Y7937D3*
X32725Y8090D3*
X31287Y8834D3*
X27127Y9813D3*
X25803Y9919D3*
X17938Y8437D3*
X30065Y16813D3*
X15938Y8375D3*
X18439Y13438D3*
X17001Y7625D3*
X17126Y9125D3*
X15688Y9375D3*
X11688D3*
X9750Y7375D3*
X8750D3*
X17063Y10563D3*
X13375Y10500D3*
X15251D3*
X7187Y13375D3*
X31315Y11438D3*
X30627Y10500D3*
X29252Y11125D3*
X28127Y16876D3*
X11438Y19501D3*
X16376Y14126D3*
X9750Y12125D3*
X13375Y9375D3*
X13438Y18939D3*
X28815Y13125D3*
X23689Y7375D3*
X24439D3*
X4375Y14563D3*
Y8688D3*
X6500D3*
X6562Y16688D3*
X30440Y19751D3*
X40316Y12875D3*
X30065Y17876D3*
X43004Y13313D3*
X7937Y18063D3*
X34753Y13375D3*
X8750Y8312D3*
X9625Y9375D3*
X11063Y8312D3*
X11688Y10500D3*
X29002Y19376D3*
X29752D3*
X31752Y12688D3*
X8250Y12813D3*
X10438Y7375D3*
X38628Y7250D3*
X4375Y10313D3*
Y12125D3*
X43004D3*
Y10313D3*
X14938Y13063D3*
X14688Y18939D3*
X32753Y9938D3*
X19501Y8125D3*
X19126Y8000D3*
X18751Y7937D3*
X18376D3*
X18001D3*
X20626Y8500D3*
X20251Y8375D3*
X31614Y11661D3*
X30752Y16813D3*
X10327Y20565D2*
D17*
X26391D1*
X10081Y20316D2*
X22851D1*
X23526D2*
X26391D1*
X9831Y20068D2*
X21340D1*
X9581Y19819D2*
X21340D1*
X29823D2*
X30476D1*
X9335Y19570D2*
X21340D1*
X28929D2*
X30476D1*
X9085Y19322D2*
X21340D1*
X28929D2*
X30047D1*
X8835Y19073D2*
X21340D1*
X28929D2*
X29894D1*
X8589Y18824D2*
X12133D1*
X8339Y18576D2*
X11883D1*
X8089Y18327D2*
X11637D1*
X8687Y18078D2*
X11387D1*
X7593Y17830D2*
X7753D1*
X8737D2*
X11137D1*
X7343Y17581D2*
X7510D1*
X8612D2*
X10891D1*
X7097Y17332D2*
X7261D1*
X8280D2*
X10641D1*
X6847Y17083D2*
X7011D1*
X8030D2*
X10391D1*
X29952D2*
X30105D1*
X6597Y16835D2*
X6768D1*
X7780D2*
X10144D1*
X29952D2*
X30324D1*
X6351Y16586D2*
X6695D1*
X9007D2*
X9945D1*
X29952D2*
X30371D1*
X31109D2*
X31344D1*
X6101Y16337D2*
X6695D1*
X9112D2*
X9930D1*
X29952D2*
X30371D1*
X31011D2*
X31594D1*
X5851Y16089D2*
X6695D1*
X9355D2*
X9844D1*
X29952D2*
X30371D1*
X31011D2*
X31695D1*
X5605Y15840D2*
X6695D1*
X9355D2*
X9844D1*
X16659D2*
X16906D1*
X29952D2*
X30371D1*
X31011D2*
X31695D1*
X5355Y15591D2*
X6695D1*
X9355D2*
X9844D1*
X16659D2*
X16906D1*
X29952D2*
X30371D1*
X31011D2*
X31695D1*
X5105Y15343D2*
X6387D1*
X9355D2*
X9844D1*
X16659D2*
X16906D1*
X29952D2*
X30371D1*
X31011D2*
X31695D1*
X4859Y15094D2*
X6207D1*
X9355D2*
X9844D1*
X16659D2*
X16906D1*
X29952D2*
X30371D1*
X31011D2*
X31695D1*
X4609Y14845D2*
X6070D1*
X9355D2*
X9844D1*
X16659D2*
X16906D1*
X29952D2*
X30371D1*
X31011D2*
X31695D1*
X4359Y14597D2*
X6070D1*
X9355D2*
X9844D1*
X16659D2*
X16906D1*
X29952D2*
X30371D1*
X31011D2*
X31695D1*
X4337Y14348D2*
X6070D1*
X9355D2*
X10680D1*
X16444D2*
X17023D1*
X29952D2*
X30371D1*
X31011D2*
X31695D1*
X4337Y14099D2*
X6070D1*
X6808D2*
X7043D1*
X9355D2*
X10680D1*
X14808D2*
X14973D1*
X16444D2*
X17273D1*
X29952D2*
X30371D1*
X31011D2*
X31695D1*
X32745D2*
X33019D1*
X4337Y13851D2*
X6070D1*
X6808D2*
X8383D1*
X9120D2*
X10680D1*
X14944D2*
X15211D1*
X29952D2*
X30371D1*
X31011D2*
X31695D1*
X32745D2*
X33266D1*
X4337Y13602D2*
X6070D1*
X6808D2*
X8281D1*
X10276D2*
X10680D1*
X14944D2*
X15457D1*
X29952D2*
X30082D1*
X31011D2*
X31695D1*
X32745D2*
X33516D1*
X4337Y13353D2*
X6070D1*
X6808D2*
X8281D1*
X10526D2*
X10680D1*
X15050D2*
X15707D1*
X18159D2*
X18644D1*
X31011D2*
X31695D1*
X32745D2*
X33766D1*
X36077D2*
X38641D1*
X40007D2*
X40715D1*
X42042D2*
X43043D1*
X4337Y13104D2*
X6070D1*
X6808D2*
X8281D1*
X31089D2*
X31695D1*
X32745D2*
X34012D1*
X36077D2*
X38641D1*
X40007D2*
X40715D1*
X42042D2*
X43043D1*
X4337Y12856D2*
X6070D1*
X6808D2*
X8281D1*
X31339D2*
X31695D1*
X32745D2*
X34262D1*
X36077D2*
X38641D1*
X40007D2*
X40660D1*
X42042D2*
X43043D1*
X4337Y12607D2*
X6070D1*
X6808D2*
X8281D1*
X9730D2*
X10203D1*
X32745D2*
X34574D1*
X36077D2*
X38641D1*
X40007D2*
X40410D1*
X42042D2*
X43043D1*
X4337Y12358D2*
X6070D1*
X6808D2*
X8281D1*
X9218D2*
X9844D1*
X32745D2*
X34711D1*
X36077D2*
X38641D1*
X40007D2*
X40164D1*
X41187D2*
X43043D1*
X4337Y12110D2*
X6070D1*
X6808D2*
X8281D1*
X9218D2*
X9844D1*
X32745D2*
X34711D1*
X36077D2*
X38641D1*
X40937D2*
X43043D1*
X5901Y11861D2*
X6070D1*
X6808D2*
X8281D1*
X30929D2*
X31238D1*
X32745D2*
X34711D1*
X36077D2*
X38641D1*
X40687D2*
X41480D1*
X5901Y11612D2*
X6070D1*
X6808D2*
X8445D1*
X30644D2*
X31187D1*
X32745D2*
X34711D1*
X40441D2*
X41480D1*
X5901Y11364D2*
X6070D1*
X6808D2*
X9844D1*
X20452D2*
X21340D1*
X28929D2*
X30012D1*
X31015D2*
X31316D1*
X32745D2*
X35039D1*
X40191D2*
X41480D1*
X5901Y11115D2*
X6070D1*
X6808D2*
X9844D1*
X20569D2*
X21340D1*
X30015D2*
X30258D1*
X31226D2*
X31695D1*
X32745D2*
X41480D1*
X5901Y10866D2*
X6070D1*
X6808D2*
X10465D1*
X19444D2*
X19934D1*
X20569D2*
X21340D1*
X31218D2*
X31695D1*
X32745D2*
X41480D1*
X5901Y10618D2*
X6070D1*
X6808D2*
X10691D1*
X19444D2*
X19934D1*
X21198D2*
X21340D1*
X30964D2*
X31262D1*
X32745D2*
X41480D1*
X4337Y10369D2*
X6070D1*
X6808D2*
X7457D1*
X19444D2*
X19934D1*
X30526D2*
X31262D1*
X32745D2*
X43043D1*
X4337Y10120D2*
X6070D1*
X6808D2*
X7457D1*
X19448D2*
X19934D1*
X32745D2*
X43043D1*
X4337Y9872D2*
X6070D1*
X6808D2*
X7457D1*
X19694D2*
X19844D1*
X25804D2*
X27383D1*
X32745D2*
X43043D1*
X4337Y9623D2*
X6070D1*
X6890D2*
X7457D1*
X25804D2*
X27344D1*
X36702D2*
X43043D1*
X4337Y9374D2*
X6125D1*
X7136D2*
X7457D1*
X21468D2*
X21820D1*
X25804D2*
X27344D1*
X36952D2*
X43043D1*
X4337Y9125D2*
X6363D1*
X9554D2*
X17012D1*
X21468D2*
X21820D1*
X25804D2*
X27578D1*
X27925D2*
X29703D1*
X30050D2*
X31262D1*
X32175D2*
X36180D1*
X37202D2*
X43043D1*
X4337Y8877D2*
X6613D1*
X9554D2*
X10762D1*
X21468D2*
X21820D1*
X25804D2*
X32305D1*
X33237D2*
X36430D1*
X37448D2*
X43043D1*
X4337Y8628D2*
X8816D1*
X9554D2*
X10500D1*
X21034D2*
X21867D1*
X25941D2*
X32258D1*
X33237D2*
X36676D1*
X37698D2*
X43043D1*
X9554Y8379D2*
X10250D1*
X21034D2*
X21867D1*
X26187D2*
X32012D1*
X33237D2*
X36926D1*
X37948D2*
X38664D1*
X9554Y8131D2*
X10004D1*
X11566D2*
X13594D1*
X16316D2*
X17621D1*
X20944D2*
X21867D1*
X23507D2*
X23742D1*
X26437D2*
X31781D1*
X32644D2*
X37176D1*
X38194D2*
X38664D1*
X9554Y7882D2*
X9867D1*
X10636D2*
X10765D1*
X11612D2*
X13344D1*
X16437D2*
X17504D1*
X20944D2*
X21867D1*
X23507D2*
X23992D1*
X26687D2*
X31746D1*
X32394D2*
X34414D1*
X34718D2*
X35289D1*
X35593D2*
X36164D1*
X36468D2*
X37414D1*
X38437D2*
X38664D1*
X9554Y7633D2*
X9867D1*
X10507D2*
X10867D1*
X11507D2*
X12691D1*
X16753D2*
X17254D1*
X20944D2*
X21867D1*
X23523D2*
X24238D1*
X33917D2*
X34160D1*
X36722D2*
X37160D1*
X9554Y7385D2*
X9867D1*
X10507D2*
X10867D1*
X11507D2*
X12445D1*
X20995D2*
X21867D1*
X23616D2*
X24488D1*
X36870D2*
X37156D1*
X42017Y13378D2*
Y12424D1*
X41224D1*
X40059Y11257D1*
X39956Y11187D1*
X39816Y11157D1*
X35378D1*
X35256Y11179D1*
X35149Y11244D1*
X35073Y11342D1*
X35037Y11464D1*
X35043Y11424D1*
X34927Y11491D1*
X34734D1*
Y12596D1*
X34690Y12594D1*
X34568Y12617D1*
X34447Y12695D1*
X32721Y14421D1*
Y9841D1*
X33377Y9844D1*
X36315D1*
X36438Y9821D1*
X36558Y9743D1*
X38371Y7930D1*
X38443Y7824D1*
X38496Y7695D1*
X38561Y7589D1*
X38590Y7437D1*
X38571Y7314D1*
X38501Y7189D1*
X38692Y7188D1*
X38691Y8500D1*
X38752Y8605D1*
X38816Y8625D1*
X43066D1*
Y10375D1*
X41628D1*
X41523Y10436D1*
X41503Y10500D1*
Y11938D1*
X41565Y12043D1*
X41628Y12063D1*
X43066D1*
Y13376D1*
X42015D1*
X40740Y12912D2*
Y13373D1*
X40218Y13376D1*
X40134Y13359D1*
X39982D1*
Y12154D1*
X40741Y12912D1*
X38664Y11846D2*
Y13362D1*
X37884Y13359D1*
X36052D1*
Y11841D1*
X37503Y11844D1*
X38663D1*
X7608Y10455D2*
X8642D1*
Y10404D1*
X10812Y10406D1*
X11918D1*
X11969Y10517D1*
X10938Y10518D1*
X10813Y10547D1*
X10730Y10605D1*
X10505Y10839D1*
X10383Y10882D1*
X9867D1*
Y11394D1*
X8825D1*
X8703Y11416D1*
X8582Y11494D1*
X8462Y11625D1*
X8430Y11688D1*
X8415Y11737D1*
X8308Y11785D1*
X8312Y12591D1*
X8308Y12535D1*
X8312Y13341D1*
X8308Y13285D1*
Y13841D1*
X8405D1*
X8406Y13942D1*
X8170Y13948D1*
X8228Y13944D1*
X7068D1*
X7062Y14219D1*
X6940Y14242D1*
X6831Y14309D1*
X6862Y14284D1*
X6781Y14313D1*
Y9708D1*
X7142Y9344D1*
X7480D1*
X7483Y10455D1*
X7608D1*
X9192Y12532D2*
Y12079D1*
X9868Y12081D1*
X9867Y12593D1*
X10238D1*
X10188Y12644D1*
X9707D1*
X9704Y12535D1*
X9188D1*
X17036Y10406D2*
Y10538D1*
X16938Y10518D1*
X16411D1*
X16450Y10407D1*
X17036Y10406D1*
X17642Y9058D2*
X17036D1*
Y9343D1*
X14645Y9344D1*
X14568Y9307D1*
X14446Y9285D1*
X14322Y9302D1*
X14235Y9344D1*
X12520D1*
X12443Y9307D1*
X12320Y9285D1*
X12197Y9302D1*
X12109Y9344D1*
X9528D1*
X9530Y8188D1*
Y7246D1*
X9895Y7247D1*
X9892Y7874D1*
X9920Y7998D1*
X9978Y8082D1*
X10730Y8833D1*
X10838Y8901D1*
X10938Y8919D1*
X17506Y8922D1*
X17641Y9057D1*
X18360Y13130D2*
X18805D1*
X18788Y13247D1*
X18730Y13292D1*
X18626Y13394D1*
X18122D1*
X18175Y13312D1*
X18360Y13127D1*
X32093Y9110D2*
Y8995D1*
X31287D1*
Y9155D1*
X30084Y9156D1*
X30007Y9119D1*
X29885Y9097D1*
X29761Y9114D1*
X29674Y9156D1*
X27959D1*
X27882Y9119D1*
X27760Y9097D1*
X27636Y9114D1*
X27524Y9168D1*
X27433Y9254D1*
X27373Y9363D1*
X27350Y9485D1*
X27364Y9609D1*
X27416Y9722D1*
X27434Y9742D1*
X27408Y9875D1*
Y9918D1*
X27373Y9988D1*
X27355Y10083D1*
X27247Y10079D1*
X27148Y9979D1*
X27040Y9912D1*
X26939Y9893D1*
X25939D1*
X25815Y9922D1*
X25880Y9900D1*
X25779Y9817D1*
X25776Y9308D1*
X25779Y9055D1*
Y8796D1*
X25744D1*
X26764Y7779D1*
X26853Y7765D1*
X26967Y7715D1*
X27061Y7633D1*
X27091Y7583D1*
X27187Y7689D1*
X27295Y7751D1*
X27417Y7777D1*
X27541Y7765D1*
X27655Y7715D1*
X27748Y7633D1*
X27787Y7570D1*
X27853Y7597D1*
X27937Y7689D1*
X28045Y7751D1*
X28167Y7777D1*
X28291Y7765D1*
X28405Y7715D1*
X28455Y7672D1*
X28624Y7662D1*
X28795Y7751D1*
X28917Y7777D1*
X29041Y7765D1*
X29155Y7715D1*
X29249Y7633D1*
X29314Y7523D1*
X29354Y7597D1*
X29437Y7689D1*
X29545Y7751D1*
X29667Y7777D1*
X29791Y7765D1*
X29905Y7715D1*
X29955Y7672D1*
X30565Y7669D1*
X30689Y7641D1*
X30736Y7614D1*
X30812Y7689D1*
X30920Y7751D1*
X31042Y7777D1*
X31166Y7765D1*
X31280Y7715D1*
X31330Y7672D1*
X31565Y7669D1*
X31689Y7641D1*
X31736Y7614D1*
X31771Y7750D1*
Y7993D1*
X31799Y8117D1*
X31857Y8201D1*
X32329Y8674D1*
X32328Y9101D1*
X33212D1*
Y8295D1*
X32786D1*
X32359Y7868D1*
Y7669D1*
X32565D1*
X32689Y7641D1*
X32624Y7662D1*
X32750Y7689D1*
X32858Y7751D1*
X32980Y7777D1*
X33104Y7765D1*
X33218Y7715D1*
X33268Y7672D1*
X33753Y7669D1*
X33877Y7641D1*
X33961Y7583D1*
X34187Y7363D1*
X34163Y7485D1*
X34177Y7608D1*
X34229Y7722D1*
X34313Y7814D1*
X34421Y7876D1*
X34542Y7902D1*
X34666Y7890D1*
X34781Y7840D1*
X34874Y7758D1*
X34938Y7651D1*
X34967Y7514D1*
X35038Y7485D1*
X35052Y7608D1*
X35104Y7722D1*
X35188Y7814D1*
X35296Y7876D1*
X35418Y7902D1*
X35541Y7890D1*
X35656Y7840D1*
X35749Y7758D1*
X35813Y7651D1*
X35842Y7514D1*
X35913Y7485D1*
X35928Y7608D1*
X35979Y7722D1*
X36063Y7814D1*
X36171Y7876D1*
X36293Y7902D1*
X36417Y7890D1*
X36531Y7840D1*
X36624Y7758D1*
X36689Y7651D1*
X36718Y7514D1*
X37040Y7192D1*
X37309Y7190D1*
X37247Y7253D1*
X37187Y7363D1*
X37163Y7485D1*
X37178Y7608D1*
X37229Y7722D1*
X37313Y7814D1*
X37421Y7876D1*
X37448Y7882D1*
X36175Y9154D1*
X33565Y9156D1*
X32210D1*
X32133Y9119D1*
X32091Y9112D1*
X31412Y10817D2*
X31721D1*
Y11270D1*
X31621Y11258D1*
X31498Y11275D1*
X31386Y11329D1*
X31295Y11414D1*
X31235Y11523D1*
X31211Y11646D1*
X31226Y11769D1*
X31277Y11882D1*
X31317Y11926D1*
Y12019D1*
X31265Y12072D1*
X31133Y11994D1*
X31014Y11973D1*
X30876Y11832D1*
X30768Y11764D1*
X30667Y11746D1*
X30484D1*
X30826Y11405D1*
X30916Y11390D1*
X31030Y11341D1*
X31124Y11258D1*
X31188Y11152D1*
X31218Y11000D1*
X31198Y10877D1*
X31142Y10766D1*
X31055Y10677D1*
X30945Y10619D1*
X30822Y10598D1*
X30699Y10615D1*
X30590Y10667D1*
X30592Y10625D1*
X30573Y10502D1*
X30517Y10391D1*
X30430Y10302D1*
X30320Y10244D1*
X30262Y10234D1*
X30377Y10219D1*
X31287D1*
Y10817D1*
X31412D1*
X21444Y9407D2*
Y8847D1*
X20830D1*
X20935Y8758D1*
X20999Y8652D1*
X21029Y8500D1*
X21010Y8377D1*
X20954Y8266D1*
X20918Y8230D1*
X20923Y7432D1*
X21130Y7225D1*
X21895Y7222D1*
X21892Y8274D1*
X21893Y8704D1*
X21902Y8796D1*
X21847D1*
Y9410D1*
X21440D1*
X9088Y16245D2*
X9330D1*
X9326Y15006D1*
X9330Y15057D1*
Y13944D1*
X9094Y13938D1*
Y13840D1*
X9192Y13837D1*
X9445Y13841D1*
X9704D1*
Y13735D1*
X10000Y13733D1*
X10124Y13704D1*
X10208Y13646D1*
X10708Y13146D1*
X10706Y14582D1*
X9867Y14583D1*
Y16294D1*
X9957D1*
X9956Y16501D1*
X9984Y16625D1*
X10042Y16709D1*
X12167Y18834D1*
X12275Y18902D1*
X12375Y18920D1*
X20129D1*
X20233Y19000D1*
X20333Y19026D1*
X20341Y19057D1*
X21369D1*
X21365Y19921D1*
Y20081D1*
X22013Y20077D1*
X22259Y20081D1*
X22407Y20077D1*
X22652Y20081D1*
X22791D1*
X22801Y20172D1*
X22853Y20285D1*
X22937Y20378D1*
X23045Y20440D1*
X23166Y20466D1*
X23290Y20454D1*
X23404Y20404D1*
X23498Y20322D1*
X23562Y20215D1*
X23591Y20082D1*
X24178Y20077D1*
X24424Y20081D1*
X24572Y20077D1*
X24818Y20081D1*
X24966Y20077D1*
X25211Y20081D1*
X25359Y20077D1*
X25605Y20081D1*
X25753Y20077D1*
X25999Y20081D1*
X26147Y20077D1*
X26392Y20081D1*
X26523D1*
X26457Y20188D1*
X26417Y20306D1*
X26402Y20430D1*
X26414Y20554D1*
X26450Y20674D1*
X26511Y20783D1*
X26539Y20815D1*
X15752Y20814D1*
X10553D1*
X4312Y14574D1*
Y12063D1*
X5750D1*
X5855Y12002D1*
X5875Y11938D1*
Y10500D1*
X5813Y10395D1*
X5750Y10375D1*
X4312D1*
Y8625D1*
X8562D1*
X8668Y8564D1*
X8687Y8500D1*
X8688Y7250D1*
X8840Y7249D1*
X8843Y8024D1*
Y8653D1*
X8311Y8656D1*
X7000D1*
X6878Y8679D1*
X6757Y8757D1*
X6194Y9320D1*
X6124Y9422D1*
X6094Y9563D1*
Y14813D1*
X6116Y14935D1*
X6194Y15056D1*
X6357Y15219D1*
X6414Y15347D1*
X6497Y15440D1*
X6605Y15502D1*
X6716Y15525D1*
X6719Y16188D1*
Y16626D1*
X6741Y16748D1*
X6819Y16869D1*
X7921Y17971D1*
X7976Y18098D1*
X8060Y18190D1*
X8168Y18252D1*
X8290Y18278D1*
X8414Y18266D1*
X8528Y18216D1*
X8621Y18134D1*
X8686Y18027D1*
X8715Y17876D1*
X8696Y17753D1*
X8640Y17642D1*
X8553Y17553D1*
X8443Y17495D1*
X8408Y17489D1*
X7569Y16647D1*
X7648Y16657D1*
X8480D1*
X8543Y16689D1*
X8665Y16715D1*
X8789Y16703D1*
X8903Y16654D1*
X8997Y16572D1*
X9061Y16465D1*
X9090Y16313D1*
X9080Y16248D1*
X30501Y20111D2*
X30405Y19995D1*
X30304Y19921D1*
X30190Y19870D1*
X30068Y19843D1*
X29944Y19842D1*
X29841Y19863D1*
X29710Y19730D1*
X29602Y19663D1*
X29502Y19644D1*
X28904D1*
X28903Y19054D1*
X29766Y19057D1*
X29916D1*
X29927Y19110D1*
X29979Y19223D1*
X30062Y19315D1*
X30170Y19377D1*
X30292Y19403D1*
X30416Y19391D1*
X30505Y19352D1*
X30502Y20107D1*
X11571Y7814D2*
X11515Y7703D1*
X11480Y7667D1*
X11482Y7246D1*
X12324Y7242D1*
X12792Y7708D1*
X12900Y7776D1*
X13000Y7794D1*
X13348D1*
X13363Y7858D1*
X13414Y7972D1*
X13498Y8064D1*
X13606Y8126D1*
X13728Y8152D1*
X13852Y8140D1*
X13962Y8092D1*
X13998Y8126D1*
X14106Y8188D1*
X14228Y8214D1*
X14352Y8202D1*
X14466Y8153D1*
X14560Y8071D1*
X14574Y8047D1*
X14597Y8075D1*
X14613Y8171D1*
X14665Y8284D1*
X14709Y8333D1*
X13126Y8331D1*
X11289Y8327D1*
X11403Y8278D1*
X11497Y8196D1*
X11561Y8089D1*
X11590Y7937D1*
X11571Y7814D1*
X10895Y7667D2*
X10869Y7691D1*
X10809Y7800D1*
X10785Y7922D1*
X10800Y8046D1*
X10821Y8092D1*
X10481Y7749D1*
Y7245D1*
X10895D1*
X10893Y7661D1*
X14967Y14165D2*
X14881Y14120D1*
X14754Y14099D1*
X14834Y14021D1*
X14902Y13913D1*
X14920Y13813D1*
Y13590D1*
X14999Y13465D1*
X15028Y13313D1*
X15009Y13190D1*
X14953Y13079D1*
X14866Y12990D1*
X14773Y12941D1*
X14807Y12911D1*
X15042Y13146D1*
X15151Y13214D1*
X15251Y13232D1*
X15856D1*
X15042Y14043D1*
X14974Y14151D1*
X15005Y14090D1*
X14870Y13978D1*
X14916Y13863D1*
X20543Y10731D2*
X20561Y10752D1*
X20669Y10814D1*
X20791Y10840D1*
X20915Y10827D1*
X21029Y10778D1*
X21123Y10696D1*
X21187Y10589D1*
X21216Y10438D1*
X21229Y10362D1*
X21233Y10231D1*
X21247Y10261D1*
X21232Y10305D1*
X21273Y10307D1*
X21394Y10438D1*
Y10496D1*
X21365D1*
Y11523D1*
X20501Y11520D1*
X20341D1*
Y11744D1*
X20253Y11746D1*
X20112Y11678D1*
X20459Y11333D1*
X20527Y11225D1*
X20546Y11125D1*
Y10739D1*
X16465Y7828D2*
X16591Y7778D1*
X16685Y7696D1*
X16749Y7589D1*
X16775Y7479D1*
X17131Y7484D1*
X17598Y7951D1*
X17613Y8046D1*
X17665Y8159D1*
X17749Y8251D1*
X17857Y8313D1*
X17906Y8324D1*
X17957Y8375D1*
Y8543D1*
X17834Y8417D1*
X17726Y8349D1*
X17626Y8331D1*
X16039Y8327D1*
X16154Y8278D1*
X16247Y8196D1*
X16311Y8089D1*
X16340Y7952D1*
X16459Y7834D1*
X28905Y11337D2*
X29041Y11328D1*
X29155Y11278D1*
X29249Y11196D1*
X29279Y11146D1*
X29375Y11252D1*
X29483Y11314D1*
X29604Y11340D1*
X29728Y11328D1*
X29843Y11278D1*
X29936Y11196D1*
X30000Y11089D1*
X30023Y10995D1*
X30167Y11027D1*
X30291Y11015D1*
X30414Y10958D1*
X30413Y10989D1*
X29877Y11518D1*
X28899Y11520D1*
X28903Y11339D1*
X19858Y9685D2*
X19849Y9735D1*
X19863Y9859D1*
X19915Y9972D1*
X19954Y10015D1*
X19957Y11004D1*
X19825Y11135D1*
X19804Y11115D1*
X19694Y11057D1*
X19571Y11035D1*
X19448Y11052D1*
X19423Y11064D1*
X19421Y10121D1*
X19851Y9692D1*
X16418Y13982D2*
X16436Y14002D1*
X16544Y14064D1*
X16666Y14090D1*
X16789Y14078D1*
X16893Y14033D1*
X17317Y14031D1*
X17299Y14099D1*
X17018Y14380D1*
X16950Y14488D1*
X16932Y14588D1*
X16930Y15906D1*
X16813Y16019D1*
X16630D1*
X16633Y15169D1*
Y14583D1*
X16418D1*
X16420Y13989D1*
X23573Y7252D2*
X23563Y7219D1*
X24684Y7217D1*
X23484Y8414D1*
X23483Y7653D1*
X23562Y7526D1*
X23592Y7375D1*
X23573Y7252D1*
X29925Y15120D2*
Y14727D1*
Y14333D1*
Y13939D1*
X29926Y13492D1*
X30050Y13465D1*
X30104Y13597D1*
X30187Y13689D1*
X30295Y13751D1*
X30398Y13773D1*
X30395Y14813D1*
Y16629D1*
X30374Y16676D1*
X30350Y16798D1*
X30357Y16856D1*
X29951Y17258D1*
X29924D1*
X29922Y17228D1*
X29926Y16983D1*
X29922Y16835D1*
X29926Y16638D1*
Y16244D1*
Y15850D1*
Y15457D1*
Y15260D1*
Y14866D1*
Y14472D1*
Y14079D1*
Y13685D1*
Y13291D1*
X29958Y13264D1*
X29987Y13377D1*
X30047Y13461D1*
X29986Y13375D1*
X29926Y13367D1*
X29922Y13094D1*
X29926Y13025D1*
X29958Y13063D1*
Y13250D1*
X29984Y13372D1*
X31153Y16802D2*
X31136Y16690D1*
X31080Y16579D1*
X30982Y16485D1*
X30984Y13184D1*
X31724Y12445D1*
X31721Y13625D1*
Y16231D1*
X31156Y16798D1*
X12707Y10406D2*
X14049Y10410D1*
X14094Y10517D1*
X12688Y10518D1*
X12652Y10521D1*
X12686Y10464D1*
X12699Y10407D1*
X12688Y10518D1*
X12661D1*
X14833Y10406D2*
X15674Y10410D1*
X15719Y10517D1*
X14777Y10521D1*
X14811Y10464D1*
X14825Y10407D1*
X14813Y10518D1*
X14786D1*
X25595Y18440D2*
X28541D1*
X25599Y18191D2*
X28541D1*
X25372Y17943D2*
X26842D1*
X27161D2*
X28373D1*
X25224Y17694D2*
X26595D1*
X21714Y17445D2*
X26592D1*
X21833Y17196D2*
X26810D1*
X21985Y16948D2*
X27107D1*
X21950Y16699D2*
X27013D1*
X21714Y16450D2*
X27092D1*
X21714Y16202D2*
X27076D1*
X21714Y15953D2*
X27150D1*
X21966Y15704D2*
X27138D1*
X21978Y15456D2*
X27213D1*
X21774Y15207D2*
X27138D1*
X21714Y14958D2*
X27209D1*
X21714Y14710D2*
X27377D1*
X21714Y14461D2*
X27209D1*
X21714Y14212D2*
X27232D1*
X21714Y13964D2*
X27209D1*
X21714Y13715D2*
X27232D1*
X21714Y13466D2*
X27588D1*
X22169Y13217D2*
X27342D1*
X22419Y12969D2*
X27092D1*
X22669Y12720D2*
X25377D1*
X27724D2*
X28541D1*
X23188Y12471D2*
X25263D1*
X27478D2*
X28541D1*
X23302Y12223D2*
X25326D1*
X27228D2*
X28541D1*
X23243Y11974D2*
X24330D1*
X24923D2*
X26006D1*
X26716D2*
X28541D1*
X24152Y17714D2*
X24117Y17678D1*
X24007Y17620D1*
X23884Y17598D1*
X23761Y17615D1*
X23649Y17669D1*
X23629Y17688D1*
X23507Y17620D1*
X23384Y17598D1*
X23261Y17615D1*
X23149Y17669D1*
X23129Y17688D1*
X23007Y17620D1*
X22884Y17598D1*
X22761Y17615D1*
X22648Y17669D1*
X22629Y17688D1*
X22507Y17620D1*
X22384Y17598D1*
X22261Y17615D1*
X22148Y17669D1*
X22129Y17688D1*
X22007Y17620D1*
X21884Y17598D1*
X21761Y17615D1*
X21687Y17651D1*
X21689Y17255D1*
X21779Y17216D1*
X21873Y17134D1*
X21937Y17027D1*
X21967Y16876D1*
X21947Y16753D1*
X21891Y16642D1*
X21804Y16553D1*
X21690Y16494D1*
X21689Y15942D1*
X21779Y15904D1*
X21873Y15821D1*
X21937Y15715D1*
X21967Y15563D1*
X21947Y15440D1*
X21891Y15329D1*
X21804Y15240D1*
X21690Y15181D1*
Y13368D1*
X21852D1*
X21974Y13346D1*
X22095Y13268D1*
X22766Y12597D1*
X22978Y12578D1*
X23092Y12528D1*
X23186Y12446D1*
X23250Y12339D1*
X23279Y12188D1*
X23260Y12065D1*
X23204Y11954D1*
X23125Y11873D1*
X24279Y11875D1*
X24374Y11989D1*
X24482Y12051D1*
X24604Y12078D1*
X24728Y12065D1*
X24842Y12016D1*
X24898Y11967D1*
X25035Y11916D1*
X25081Y11875D1*
X25958D1*
X25978Y11910D1*
X26062Y12002D1*
X26170Y12064D1*
X26292Y12090D1*
X26416Y12078D1*
X26526Y12030D1*
X26624Y12009D1*
X26730Y11944D1*
X26785Y11874D1*
X28565Y11875D1*
Y12809D1*
X28496Y12879D1*
X28457Y12951D1*
X28430Y12927D1*
X28320Y12869D1*
X28197Y12848D1*
X28074Y12865D1*
X27962Y12919D1*
X27930Y12948D1*
X27210Y12230D1*
X27102Y12162D1*
X27002Y12143D1*
X25967D1*
X25819Y12057D1*
X25697Y12035D1*
X25574Y12052D1*
X25461Y12106D1*
X25371Y12191D1*
X25311Y12301D1*
X25287Y12423D1*
X25301Y12546D1*
X25353Y12660D1*
X25437Y12752D1*
X25545Y12814D1*
X25667Y12840D1*
X25790Y12828D1*
X25905Y12778D1*
X25954Y12735D1*
X26882Y12734D1*
X27620Y13472D1*
X27511Y13490D1*
X27399Y13544D1*
X27308Y13629D1*
X27248Y13738D1*
X27225Y13860D1*
X27239Y13984D1*
X27291Y14097D1*
X27314Y14123D1*
X27248Y14238D1*
X27225Y14360D1*
X27239Y14484D1*
X27291Y14597D1*
X27375Y14689D1*
X27483Y14752D1*
X27604Y14778D1*
X27572Y14786D1*
X27449Y14802D1*
X27336Y14856D1*
X27246Y14942D1*
X27186Y15051D1*
X27162Y15173D1*
X27177Y15297D1*
X27228Y15410D1*
X27252Y15436D1*
X27186Y15551D1*
X27162Y15673D1*
X27177Y15797D1*
X27223Y15899D1*
X27183Y15942D1*
X27123Y16051D1*
X27100Y16173D1*
X27114Y16297D1*
X27161Y16399D1*
X27121Y16442D1*
X27061Y16551D1*
X27037Y16673D1*
X27052Y16797D1*
X27103Y16910D1*
X27143Y16953D1*
X27086Y16981D1*
X26996Y17067D1*
X26942Y17166D1*
X26886Y17178D1*
X26774Y17232D1*
X26683Y17317D1*
X26623Y17426D1*
X26599Y17548D1*
X26614Y17672D1*
X26666Y17785D1*
X26750Y17877D1*
X26857Y17939D1*
X26979Y17966D1*
X27103Y17953D1*
X27178Y17921D1*
X28387Y17920D1*
X28416Y17973D1*
X28500Y18065D1*
X28564Y18102D1*
X28565Y18689D1*
X25459D1*
X25498Y18572D1*
X25562Y18465D1*
X25592Y18314D1*
X25573Y18191D1*
X25517Y18079D1*
X25430Y17990D1*
X25337Y17941D1*
X25323Y17878D1*
X25267Y17767D1*
X25180Y17678D1*
X25069Y17620D1*
X24947Y17598D1*
X24823Y17615D1*
X24711Y17669D1*
X24691Y17688D1*
X24569Y17620D1*
X24447Y17598D1*
X24323Y17615D1*
X24211Y17669D1*
X24163Y17714D1*
D19*
X41378Y13063D3*
D20*
X33308D3*
D21*
X39323Y12543D3*
X35393D3*
D23*
X8062Y9875D3*
D24*
X7062D3*
D22*
X8750Y12188D3*
X9262D3*
D25*
X17438Y10313D3*
Y10824D3*
Y9500D3*
Y8988D3*
X18751Y12688D3*
Y13200D3*
X31690Y9437D3*
Y8926D3*
Y10375D3*
Y10887D3*
D22*
X21001Y9250D3*
X21513D3*
X33282Y8698D3*
X32770D3*
D26*
X8750Y15626D3*
X7648D3*
X8750Y14563D3*
X7648D3*
D27*
X9186Y5399D3*
X10186D3*
X11186D3*
X12186D3*
X13186D3*
X14186D3*
X15186D3*
X16186D3*
X17186D3*
X18186D3*
X19186D3*
X20186D3*
X21186D3*
X22186D3*
X23186D3*
X24186D3*
X25186D3*
X26186D3*
X27186D3*
X28186D3*
X29186D3*
X30186D3*
X31186D3*
X32186D3*
X33186D3*
X34186D3*
X35186D3*
X36186D3*
X37186D3*
X38186D3*
G36*
X25667Y20773D2*
X26336D1*
Y20104D1*
X25667D1*
Y20773D1*
G37*
D20*
X27002Y20439D3*
X28002D3*
X29002D3*
X30002D3*
D22*
X8750Y13438D3*
X9262D3*
X8750Y12938D3*
X9262D3*
X21001Y9813D3*
X21513D3*
D25*
X22249Y9750D3*
Y9238D3*
X22875Y9750D3*
Y9238D3*
X23502Y9750D3*
Y9238D3*
X24127Y9750D3*
Y9238D3*
X24752Y9750D3*
Y9238D3*
X25377Y9750D3*
Y9238D3*
D28*
X21689Y19501D3*
X21886D3*
X22083D3*
X22279D3*
X22476D3*
X22673D3*
X22870D3*
X23067D3*
X23264D3*
X23461D3*
X23657D3*
X23854D3*
X24051D3*
X24248D3*
X24445D3*
X24642D3*
X24838D3*
X25035D3*
X25232D3*
X25429D3*
X25626D3*
X25823D3*
X26020D3*
X26216D3*
X26413D3*
X26610D3*
X26807D3*
X27004D3*
X27201D3*
X27398D3*
X27594D3*
X27791D3*
X27988D3*
X28185D3*
X28382D3*
X28579D3*
D29*
X29346Y18733D3*
Y18537D3*
Y18340D3*
Y18143D3*
Y17946D3*
Y17749D3*
Y17552D3*
Y17355D3*
Y17159D3*
Y16962D3*
Y16765D3*
Y16568D3*
Y16371D3*
Y16174D3*
Y15978D3*
Y15781D3*
Y15584D3*
Y15387D3*
Y15190D3*
Y14993D3*
Y14796D3*
Y14600D3*
Y14403D3*
Y14206D3*
Y14009D3*
Y13812D3*
Y13615D3*
Y13418D3*
Y13222D3*
Y13025D3*
Y12828D3*
Y12631D3*
Y12434D3*
Y12237D3*
Y12041D3*
Y11844D3*
D28*
X28579Y11076D3*
X28382D3*
X28185D3*
X27988D3*
X27791D3*
X27594D3*
X27398D3*
X27201D3*
X27004D3*
X26807D3*
X26610D3*
X26413D3*
X26216D3*
X26020D3*
X25823D3*
X25626D3*
X25429D3*
X25232D3*
X25035D3*
X24838D3*
X24642D3*
X24445D3*
X24248D3*
X24051D3*
X23854D3*
X23657D3*
X23461D3*
X23264D3*
X23067D3*
X22870D3*
X22673D3*
X22476D3*
X22279D3*
X22083D3*
X21886D3*
X21689D3*
D29*
X20921Y11844D3*
Y12041D3*
Y12237D3*
Y12434D3*
Y12631D3*
Y12828D3*
Y13025D3*
Y13222D3*
Y13418D3*
Y13615D3*
Y13812D3*
Y14009D3*
Y14206D3*
Y14403D3*
Y14600D3*
Y14796D3*
Y14993D3*
Y15190D3*
Y15387D3*
Y15584D3*
Y15781D3*
Y15978D3*
Y16174D3*
Y16371D3*
Y16568D3*
Y16765D3*
Y16962D3*
Y17159D3*
Y17355D3*
Y17552D3*
Y17749D3*
Y17946D3*
Y18143D3*
Y18340D3*
Y18537D3*
Y18733D3*
D34*
X10250Y15438D3*
X10750D3*
X11250D3*
X11750D3*
X12250D3*
X12750D3*
X13250D3*
X13750D3*
X14250D3*
X14750D3*
X15250D3*
X15750D3*
X16250D3*
X16750D3*
Y11737D3*
X16250D3*
X15750D3*
X15250D3*
X14750D3*
X14250D3*
X13750D3*
X13250D3*
X12750D3*
X12250D3*
X11750D3*
X11250D3*
X10750D3*
X10250D3*
M02*
