G04 DipTrace 4.0.0.4*
G04 BottomMask.gbr*
%MOIN*%
G04 #@! TF.FileFunction,Soldermask,Bot*
G04 #@! TF.Part,Single*
%ADD37C,0.072913*%
%ADD40C,0.045354*%
%ADD53R,0.027559X0.122047*%
%ADD63C,0.070866*%
%ADD67R,0.070866X0.070866*%
%ADD69R,0.074803X0.259843*%
%FSLAX26Y26*%
G04*
G70*
G90*
G75*
G01*
G04 BotMask*
%LPD*%
D69*
X912450Y549951D3*
X1012450D3*
X1112450D3*
X1212450D3*
X1312450D3*
X1412450D3*
X1512450D3*
X1612450D3*
X1712450D3*
X1812450D3*
X1912450D3*
X2012450D3*
X2112450D3*
X2212450D3*
X2312450D3*
X2412450D3*
X2512450D3*
X2612450D3*
X2712450D3*
X2812450D3*
X2912450D3*
X3012450D3*
X3112450D3*
X3212450D3*
X3312450D3*
X3412450D3*
X3512450D3*
X3612450D3*
X3712450D3*
X3812450D3*
D67*
X3187450Y2549950D3*
D63*
X3087450D3*
X2987450D3*
X2887450D3*
X2787450D3*
X2687450D3*
D53*
X1074951Y2031866D3*
X1124951D3*
X1174951D3*
X1224951D3*
X1274951D3*
X1324951D3*
X1374951D3*
X1424951D3*
X1474951D3*
X1524951D3*
X1574951D3*
X1624951D3*
X1674951D3*
X1724951D3*
Y1661787D3*
X1674951D3*
X1624951D3*
X1574951D3*
X1524951D3*
X1474951D3*
X1424951D3*
X1374951D3*
X1324951D3*
X1274951D3*
X1224951D3*
X1174951D3*
X1124951D3*
X1074951D3*
D37*
X499951Y2515576D3*
D3*
D40*
D3*
D37*
X4221826D3*
D3*
D40*
D3*
D37*
X499951Y937451D3*
D3*
D40*
D3*
M02*
