G04 DipTrace 2.4.0.2*
%INBottomMask.gbr*%
%MOIN*%
%ADD19R,0.0748X0.0748*%
%ADD20C,0.0748*%
%ADD52R,0.0315X0.126*%
%ADD56R,0.0709X0.0197*%
%ADD58R,0.0197X0.0709*%
%ADD62R,0.0787X0.2638*%
%ADD64R,0.0709X0.0787*%
%ADD66R,0.0354X0.0433*%
%ADD68C,0.0709*%
%ADD70R,0.0709X0.0709*%
%ADD72R,0.0433X0.0354*%
%ADD74C,0.0827*%
%ADD75R,0.0827X0.0827*%
%FSLAX44Y44*%
G04*
G70*
G90*
G75*
G01*
%LNBotMask*%
%LPD*%
D75*
X42687Y17812D3*
D74*
X34616D3*
D70*
X8312Y10937D3*
D68*
X7312D3*
D66*
X10343Y11767D3*
Y11255D3*
X12000Y10750D3*
Y11262D3*
Y9750D3*
Y9238D3*
X34565Y8887D3*
Y8375D3*
Y10426D3*
Y10938D3*
D72*
X18126Y12188D3*
X17614D3*
X32627Y10625D3*
X32115D3*
D64*
X9250Y12937D3*
X8147D3*
X9250Y14000D3*
X8147D3*
D62*
X9186Y5399D3*
X10186D3*
X11186D3*
X12186D3*
X13186D3*
X14186D3*
X15186D3*
X16186D3*
X17186D3*
X18186D3*
X19186D3*
X20186D3*
X21186D3*
X22186D3*
X23186D3*
X24186D3*
X25186D3*
X26186D3*
X27186D3*
X28186D3*
X29186D3*
X30186D3*
X31186D3*
X32186D3*
X33186D3*
X34186D3*
X35186D3*
X36186D3*
X37186D3*
X38186D3*
D19*
X29125Y21000D3*
D20*
X30125D3*
X31125D3*
X32125D3*
X33125D3*
D72*
X13125Y11812D3*
X13636D3*
X13125Y12312D3*
X13636D3*
X19688Y12188D3*
X19176D3*
D58*
X26687Y18000D3*
X26884D3*
X27081D3*
X27278D3*
X27474D3*
X27671D3*
X27868D3*
X28065D3*
X28262D3*
X28459D3*
X28656D3*
X28852D3*
X29049D3*
X29246D3*
X29443D3*
X29640D3*
X29837D3*
X30033D3*
X30230D3*
X30427D3*
X30624D3*
X30821D3*
X31018D3*
X31215D3*
X31411D3*
D56*
X32081Y17330D3*
Y17133D3*
Y16937D3*
Y16740D3*
Y16543D3*
Y16346D3*
Y16149D3*
Y15952D3*
Y15755D3*
Y15559D3*
Y15362D3*
Y15165D3*
Y14968D3*
Y14771D3*
Y14574D3*
Y14377D3*
Y14181D3*
Y13984D3*
Y13787D3*
Y13590D3*
Y13393D3*
Y13196D3*
Y13000D3*
Y12803D3*
Y12606D3*
D58*
X31411Y11937D3*
X31215D3*
X31018D3*
X30821D3*
X30624D3*
X30427D3*
X30230D3*
X30033D3*
X29837D3*
X29640D3*
X29443D3*
X29246D3*
X29049D3*
X28852D3*
X28656D3*
X28459D3*
X28262D3*
X28065D3*
X27868D3*
X27671D3*
X27474D3*
X27278D3*
X27081D3*
X26884D3*
X26687D3*
D56*
X26018Y12606D3*
Y12803D3*
Y13000D3*
Y13196D3*
Y13393D3*
Y13590D3*
Y13787D3*
Y13984D3*
Y14181D3*
Y14377D3*
Y14574D3*
Y14771D3*
Y14968D3*
Y15165D3*
Y15362D3*
Y15559D3*
Y15755D3*
Y15952D3*
Y16149D3*
Y16346D3*
Y16543D3*
Y16740D3*
Y16937D3*
Y17133D3*
Y17330D3*
D52*
X13312Y17437D3*
X13812D3*
X14312D3*
X14812D3*
X15312D3*
X15812D3*
X16312D3*
X16812D3*
X17312D3*
X17812D3*
X18312D3*
X18812D3*
X19312D3*
X19812D3*
Y13736D3*
X19312D3*
X18812D3*
X18312D3*
X17812D3*
X17312D3*
X16812D3*
X16312D3*
X15812D3*
X15312D3*
X14812D3*
X14312D3*
X13812D3*
X13312D3*
M02*
