G04 DipTrace 4.0.0.4*
G04 BottomSilk.gbr*
%MOIN*%
G04 #@! TF.FileFunction,Legend,Bot*
G04 #@! TF.Part,Single*
%ADD10C,0.009843*%
%ADD75C,0.00772*%
%ADD77C,0.006176*%
%ADD78C,0.017498*%
%FSLAX26Y26*%
G04*
G70*
G90*
G75*
G01*
G04 BotSilk*
%LPD*%
X2637478Y2599953D2*
D10*
Y2499950D1*
X3237423D1*
Y2599953D1*
X2637478D1*
X1041703Y1972828D2*
X1758199D1*
X1041703Y1720825D2*
X1758199D1*
Y1972828D2*
Y1720825D1*
X1041703Y1972828D2*
Y1878315D1*
Y1815339D2*
Y1720825D1*
Y1878315D2*
G02X1041703Y1815339I-34J-31488D01*
G01*
X2669768Y2473530D2*
D77*
X2709960D1*
X2669768Y2486927D2*
Y2460133D1*
Y2447781D2*
X2709960D1*
Y2434384D1*
X2708014Y2428636D1*
X2704212Y2424789D1*
X2700365Y2422888D1*
X2694661Y2420987D1*
X2685066D1*
X2679318Y2422888D1*
X2675516Y2424789D1*
X2671669Y2428636D1*
X2669768Y2434384D1*
Y2447781D1*
Y2397139D2*
X2671669Y2400986D1*
X2675516Y2404788D1*
X2679318Y2406734D1*
X2685066Y2408635D1*
X2694661D1*
X2700365Y2406734D1*
X2704212Y2404788D1*
X2708014Y2400986D1*
X2709960Y2397139D1*
Y2389490D1*
X2708014Y2385687D1*
X2704212Y2381841D1*
X2700365Y2379939D1*
X2694661Y2378038D1*
X2685066D1*
X2679318Y2379939D1*
X2675516Y2381841D1*
X2671669Y2385687D1*
X2669768Y2389490D1*
Y2397139D1*
X2769074Y2471629D2*
X2809266D1*
X2769074Y2485026D2*
Y2458231D1*
X2778625Y2417184D2*
X2774822Y2419085D1*
X2770975Y2422932D1*
X2769074Y2426735D1*
Y2434384D1*
X2770975Y2438231D1*
X2774822Y2442033D1*
X2778625Y2443979D1*
X2784373Y2445880D1*
X2793967D1*
X2799671Y2443979D1*
X2803518Y2442033D1*
X2807321Y2438231D1*
X2809266Y2434384D1*
Y2426735D1*
X2807321Y2422932D1*
X2803518Y2419085D1*
X2799671Y2417184D1*
X2769074Y2404833D2*
X2809266D1*
X2769074Y2378038D2*
X2795869Y2404833D1*
X2786274Y2395282D2*
X2809266Y2378038D1*
X2868380Y2442933D2*
X2908572D1*
X2868380Y2456330D2*
Y2429535D1*
Y2417184D2*
X2908572D1*
Y2403787D1*
X2906627Y2398039D1*
X2902824Y2394192D1*
X2898978Y2392291D1*
X2893274Y2390389D1*
X2883679D1*
X2877931Y2392291D1*
X2874128Y2394192D1*
X2870282Y2398039D1*
X2868380Y2403787D1*
Y2417184D1*
Y2378038D2*
X2908572D1*
X2967687Y2473530D2*
X3007879D1*
X2967687Y2486927D2*
Y2460133D1*
X3007879Y2417184D2*
X2967687D1*
X3007879Y2432483D1*
X2967687Y2447781D1*
X3007879D1*
X2973435Y2378038D2*
X2969588Y2381841D1*
X2967687Y2387589D1*
Y2395238D1*
X2969588Y2400986D1*
X2973435Y2404833D1*
X2977237D1*
X2981084Y2402887D1*
X2982985Y2400986D1*
X2984887Y2397183D1*
X2988733Y2385687D1*
X2990635Y2381841D1*
X2992580Y2379939D1*
X2996383Y2378038D1*
X3002131D1*
X3005933Y2381841D1*
X3007879Y2387589D1*
Y2395238D1*
X3005933Y2400986D1*
X3002131Y2404833D1*
X3076544Y2456330D2*
X3072741Y2458231D1*
X3068894Y2462078D1*
X3066993Y2465881D1*
Y2473530D1*
X3068894Y2477377D1*
X3072741Y2481179D1*
X3076544Y2483125D1*
X3082292Y2485026D1*
X3091886D1*
X3097590Y2483125D1*
X3101437Y2481179D1*
X3105240Y2477377D1*
X3107185Y2473530D1*
Y2465881D1*
X3105240Y2462078D1*
X3101437Y2458231D1*
X3097590Y2456330D1*
X3091886D1*
Y2465881D1*
X3066993Y2417184D2*
X3107185D1*
X3066993Y2443979D1*
X3107185D1*
X3066993Y2404833D2*
X3107185D1*
Y2391435D1*
X3105240Y2385687D1*
X3101437Y2381841D1*
X3097590Y2379939D1*
X3091886Y2378038D1*
X3082292D1*
X3076544Y2379939D1*
X3072741Y2381841D1*
X3068894Y2385687D1*
X3066993Y2391435D1*
Y2404833D1*
X3166299Y2486927D2*
X3206491Y2471629D1*
X3166299Y2456330D1*
Y2443979D2*
X3206491D1*
Y2430581D1*
X3204546Y2424833D1*
X3200743Y2420987D1*
X3196897Y2419085D1*
X3191193Y2417184D1*
X3181598D1*
X3175850Y2419085D1*
X3172047Y2420987D1*
X3168201Y2424833D1*
X3166299Y2430581D1*
Y2443979D1*
Y2404833D2*
X3206491D1*
Y2391435D1*
X3204546Y2385687D1*
X3200743Y2381841D1*
X3196897Y2379939D1*
X3191193Y2378038D1*
X3181598D1*
X3175850Y2379939D1*
X3172047Y2381841D1*
X3168201Y2385687D1*
X3166299Y2391435D1*
Y2404833D1*
X2570790Y1304618D2*
D78*
Y1224234D1*
X2536302D1*
X2524806Y1228125D1*
X2521003Y1231928D1*
X2517201Y1239533D1*
Y1251029D1*
X2521003Y1258723D1*
X2524806Y1262525D1*
X2536302Y1266328D1*
X2524806Y1270219D1*
X2521003Y1274021D1*
X2517201Y1281626D1*
Y1289320D1*
X2521003Y1296925D1*
X2524806Y1300816D1*
X2536302Y1304618D1*
X2570790D1*
Y1266328D2*
X2536302D1*
X2420922Y1224234D2*
X2451608Y1304618D1*
X2482205Y1224234D1*
X2470709Y1251029D2*
X2432418D1*
X2328535Y1285517D2*
X2332337Y1293122D1*
X2340031Y1300816D1*
X2347636Y1304618D1*
X2362934D1*
X2370628Y1300816D1*
X2378233Y1293122D1*
X2382124Y1285517D1*
X2385927Y1274021D1*
Y1254832D1*
X2382124Y1243424D1*
X2378233Y1235730D1*
X2370628Y1228125D1*
X2362934Y1224234D1*
X2347636D1*
X2340031Y1228125D1*
X2332337Y1235730D1*
X2328535Y1243424D1*
X2293539Y1304618D2*
Y1224234D1*
X2239950Y1304618D2*
X2293539Y1251029D1*
X2274438Y1270219D2*
X2239950Y1224234D1*
X3306201Y2576762D2*
D75*
Y2538516D1*
X3308578Y2531331D1*
X3311010Y2528954D1*
X3315763Y2526522D1*
X3320571D1*
X3325324Y2528954D1*
X3327701Y2531331D1*
X3330133Y2538516D1*
Y2543269D1*
X3288330Y2564769D2*
Y2567146D1*
X3285954Y2571954D1*
X3283577Y2574331D1*
X3278768Y2576707D1*
X3269207D1*
X3264454Y2574331D1*
X3262077Y2571954D1*
X3259645Y2567146D1*
Y2562392D1*
X3262077Y2557584D1*
X3266830Y2550454D1*
X3290762Y2526522D1*
X3257269D1*
X968480Y1889228D2*
X1004350D1*
X1011535Y1886851D1*
X1016288Y1882043D1*
X1018720Y1874858D1*
Y1870105D1*
X1016288Y1862920D1*
X1011535Y1858111D1*
X1004350Y1855735D1*
X968480D1*
X1018720Y1816364D2*
X968536D1*
X1001974Y1840295D1*
Y1804426D1*
M02*
