G04 DipTrace 4.0.0.5*
G04 BottomSilk.gbr*
%MOIN*%
G04 #@! TF.FileFunction,Legend,Bot*
G04 #@! TF.Part,Single*
%ADD10C,0.009843*%
%ADD79C,0.00772*%
%ADD81C,0.006176*%
%FSLAX26Y26*%
G04*
G70*
G90*
G75*
G01*
G04 BotSilk*
%LPD*%
X2643728Y2618703D2*
D10*
Y2518701D1*
X3243673D1*
Y2618703D1*
X2643728D1*
X3930073Y1717699D2*
X3213577D1*
X3930073Y1969702D2*
X3213577D1*
Y1717699D2*
Y1969702D1*
X3930073Y1717699D2*
Y1812213D1*
Y1875189D2*
Y1969702D1*
Y1812213D2*
G02X3930073Y1875189I34J31488D01*
G01*
X2669768Y2492279D2*
D81*
X2709960D1*
X2669768Y2505677D2*
Y2478882D1*
Y2466531D2*
X2709960D1*
Y2453133D1*
X2708014Y2447385D1*
X2704212Y2443538D1*
X2700365Y2441637D1*
X2694661Y2439736D1*
X2685066D1*
X2679318Y2441637D1*
X2675516Y2443538D1*
X2671669Y2447385D1*
X2669768Y2453133D1*
Y2466531D1*
Y2415888D2*
X2671669Y2419735D1*
X2675516Y2423538D1*
X2679318Y2425483D1*
X2685066Y2427385D1*
X2694661D1*
X2700365Y2425483D1*
X2704212Y2423538D1*
X2708014Y2419735D1*
X2709960Y2415888D1*
Y2408239D1*
X2708014Y2404437D1*
X2704212Y2400590D1*
X2700365Y2398689D1*
X2694661Y2396787D1*
X2685066D1*
X2679318Y2398689D1*
X2675516Y2400590D1*
X2671669Y2404437D1*
X2669768Y2408239D1*
Y2415888D1*
X2769074Y2490378D2*
X2809266D1*
X2769074Y2503775D2*
Y2476981D1*
X2778625Y2435933D2*
X2774822Y2437835D1*
X2770975Y2441681D1*
X2769074Y2445484D1*
Y2453133D1*
X2770975Y2456980D1*
X2774822Y2460783D1*
X2778625Y2462728D1*
X2784373Y2464629D1*
X2793967D1*
X2799671Y2462728D1*
X2803518Y2460783D1*
X2807321Y2456980D1*
X2809266Y2453133D1*
Y2445484D1*
X2807321Y2441681D1*
X2803518Y2437835D1*
X2799671Y2435933D1*
X2769074Y2423582D2*
X2809266D1*
X2769074Y2396787D2*
X2795869Y2423582D1*
X2786274Y2414031D2*
X2809266Y2396787D1*
X2868380Y2461682D2*
X2908572D1*
X2868380Y2475079D2*
Y2448285D1*
Y2435933D2*
X2908572D1*
Y2422536D1*
X2906627Y2416788D1*
X2902824Y2412941D1*
X2898978Y2411040D1*
X2893274Y2409139D1*
X2883679D1*
X2877931Y2411040D1*
X2874128Y2412941D1*
X2870282Y2416788D1*
X2868380Y2422536D1*
Y2435933D1*
Y2396787D2*
X2908572D1*
X2967687Y2492279D2*
X3007879D1*
X2967687Y2505677D2*
Y2478882D1*
X3007879Y2435933D2*
X2967687D1*
X3007879Y2451232D1*
X2967687Y2466531D1*
X3007879D1*
X2973435Y2396787D2*
X2969588Y2400590D1*
X2967687Y2406338D1*
Y2413987D1*
X2969588Y2419735D1*
X2973435Y2423582D1*
X2977237D1*
X2981084Y2421637D1*
X2982985Y2419735D1*
X2984887Y2415933D1*
X2988733Y2404437D1*
X2990635Y2400590D1*
X2992580Y2398689D1*
X2996383Y2396787D1*
X3002131D1*
X3005933Y2400590D1*
X3007879Y2406338D1*
Y2413987D1*
X3005933Y2419735D1*
X3002131Y2423582D1*
X3076544Y2475079D2*
X3072741Y2476981D1*
X3068894Y2480827D1*
X3066993Y2484630D1*
Y2492279D1*
X3068894Y2496126D1*
X3072741Y2499929D1*
X3076544Y2501874D1*
X3082292Y2503775D1*
X3091886D1*
X3097590Y2501874D1*
X3101437Y2499929D1*
X3105240Y2496126D1*
X3107185Y2492279D1*
Y2484630D1*
X3105240Y2480827D1*
X3101437Y2476981D1*
X3097590Y2475079D1*
X3091886D1*
Y2484630D1*
X3066993Y2435933D2*
X3107185D1*
X3066993Y2462728D1*
X3107185D1*
X3066993Y2423582D2*
X3107185D1*
Y2410185D1*
X3105240Y2404437D1*
X3101437Y2400590D1*
X3097590Y2398689D1*
X3091886Y2396787D1*
X3082292D1*
X3076544Y2398689D1*
X3072741Y2400590D1*
X3068894Y2404437D1*
X3066993Y2410185D1*
Y2423582D1*
X3166299Y2505677D2*
X3206491Y2490378D1*
X3166299Y2475079D1*
Y2462728D2*
X3206491D1*
Y2449331D1*
X3204546Y2443583D1*
X3200743Y2439736D1*
X3196897Y2437835D1*
X3191193Y2435933D1*
X3181598D1*
X3175850Y2437835D1*
X3172047Y2439736D1*
X3168201Y2443583D1*
X3166299Y2449331D1*
Y2462728D1*
Y2423582D2*
X3206491D1*
Y2410185D1*
X3204546Y2404437D1*
X3200743Y2400590D1*
X3196897Y2398689D1*
X3191193Y2396787D1*
X3181598D1*
X3175850Y2398689D1*
X3172047Y2400590D1*
X3168201Y2404437D1*
X3166299Y2410185D1*
Y2423582D1*
X4003297Y1801300D2*
D79*
X3967427D1*
X3960242Y1803676D1*
X3955488Y1808485D1*
X3953057Y1815670D1*
Y1820423D1*
X3955488Y1827608D1*
X3960242Y1832416D1*
X3967427Y1834793D1*
X4003297D1*
X3953057Y1874164D2*
X4003241D1*
X3969803Y1850232D1*
Y1886102D1*
M02*
