M48
INCH
T01C0.0079
T02C0.0433
T03C0.0454
T04C0.2165
%
T01
X+009500Y+013312
X+008937Y+013437
X+007812Y+013125
X+007812Y+012000
X+007250Y+011812
X+007250Y+011562
X+007250Y+011312
X+007250Y+011062
X+007250Y+010812
X+007250Y+010572
X+006750Y+010375
X+006875Y+009875
X+007250Y+009500
X+006875Y+009125
X+007250Y+008750
X+007625Y+009125
X+008000Y+008750
X+008687Y+008500
X+008687Y+007875
X+008687Y+007250
X+009812Y+007250
X+009812Y+007875
X+009812Y+008500
X+009437Y+008875
X+009062Y+009250
X+009437Y+009625
X+009062Y+010000
X+008687Y+009625
X+008312Y+010000
X+008625Y+010562
X+008812Y+010562
X+009000Y+010562
X+009812Y+010000
X+010187Y+009625
X+009812Y+009250
X+010187Y+008875
X+011403Y+008979
X+011407Y+008041
X+010530Y+007695
X+011562Y+007000
X+012562Y+007000
X+013562Y+007000
X+014625Y+007000
X+015250Y+007437
X+015625Y+007687
X+016437Y+007000
X+016812Y+007812
X+017562Y+007875
X+017500Y+007000
X+018437Y+007000
X+019500Y+007000
X+020437Y+007000
X+020812Y+007687
X+021375Y+007437
X+021875Y+007437
X+021625Y+007000
X+022625Y+007000
X+022843Y+007843
X+022750Y+008437
X+022562Y+008937
X+022000Y+008625
X+022000Y+008000
X+021062Y+008437
X+019937Y+008625
X+019812Y+009156
X+020312Y+009312
X+019562Y+010000
X+019562Y+010937
X+018812Y+012187
X+018812Y+012781
X+017437Y+012781
X+017437Y+012187
X+016281Y+011937
X+015625Y+011375
X+015630Y+010558
X+015443Y+010558
X+015255Y+010558
X+014750Y+010125
X+015187Y+009437
X+014875Y+009000
X+015500Y+008750
X+016187Y+008750
X+016562Y+009125
X+017000Y+009437
X+017062Y+008812
X+017724Y+009099
X+018125Y+008750
X+018500Y+009124
X+018875Y+008750
X+019406Y+008750
X+019375Y+008187
X+018437Y+008062
X+018250Y+010125
X+016875Y+010125
X+015812Y+010125
X+016000Y+009437
X+014187Y+009000
X+013656Y+008937
X+013653Y+009970
X+013599Y+010542
X+012541Y+009968
X+012531Y+008937
X+012937Y+008062
X+011401Y+009968
X+011437Y+010546
X+010875Y+012375
X+011125Y+013312
X+010625Y+013468
X+009500Y+014593
X+009312Y+014593
X+009125Y+014593
X+009250Y+015187
X+008437Y+015187
X+007812Y+014437
X+006437Y+014437
X+006250Y+014750
X+006250Y+015000
X+006000Y+015000
X+005750Y+015000
X+005750Y+014750
X+006000Y+014750
X+006000Y+015250
X+006000Y+015500
X+006000Y+015750
X+006000Y+016000
X+006000Y+016250
X+006000Y+016500
X+006000Y+016750
X+005750Y+016750
X+005750Y+016500
X+005750Y+016250
X+006250Y+016250
X+006250Y+016500
X+006250Y+016750
X+006250Y+015250
X+005750Y+015250
X+004437Y+014437
X+005437Y+013437
X+004437Y+012437
X+005937Y+011875
X+005937Y+011125
X+005937Y+010375
X+006125Y+009875
X+006500Y+009500
X+006125Y+009125
X+006500Y+008750
X+005750Y+008750
X+005750Y+009500
X+005375Y+009875
X+004750Y+009875
X+004341Y+010196
X+004341Y+008656
X+006750Y+011125
X+006750Y+011875
X+006437Y+012437
X+007812Y+011000
X+008750Y+012000
X+009687Y+012000
X+012625Y+012375
X+012625Y+013312
X+014062Y+013312
X+014593Y+013488
X+015437Y+013375
X+015437Y+012656
X+014375Y+012375
X+014750Y+014562
X+015312Y+014562
X+015500Y+014562
X+015687Y+014562
X+015750Y+014875
X+016343Y+015531
X+017000Y+014875
X+017528Y+014344
X+018040Y+014344
X+018552Y+014344
X+019064Y+014344
X+019625Y+014312
X+019906Y+014000
X+020125Y+014500
X+020125Y+014687
X+020875Y+015187
X+021125Y+015437
X+020625Y+015687
X+019593Y+015968
X+019312Y+015500
X+018812Y+015312
X+018281Y+015093
X+017781Y+014875
X+016406Y+013937
X+015062Y+015875
X+015531Y+016343
X+013968Y+015875
X+013968Y+015156
X+013812Y+015000
X+014062Y+014937
X+013968Y+016906
X+013968Y+017593
X+015281Y+019062
X+015906Y+018437
X+016500Y+017843
X+017250Y+018593
X+017593Y+018937
X+017888Y+018296
X+016656Y+019187
X+017000Y+019531
X+016406Y+020187
X+016031Y+019812
X+017250Y+020812
X+017656Y+021187
X+018312Y+021281
X+017687Y+020468
X+018187Y+019843
X+018906Y+019593
X+019468Y+019406
X+019968Y+019093
X+020000Y+018406
X+019875Y+018281
X+020187Y+018406
X+020968Y+019156
X+021531Y+019156
X+021812Y+019187
X+022437Y+019156
X+022437Y+018656
X+022437Y+018156
X+022437Y+017656
X+023062Y+017906
X+023062Y+018406
X+023062Y+018906
X+023437Y+019156
X+024312Y+019156
X+025187Y+019156
X+025750Y+019156
X+026875Y+019156
X+028000Y+019156
X+029187Y+019687
X+029562Y+020093
X+029875Y+019562
X+030062Y+019562
X+030250Y+019562
X+030156Y+019187
X+029562Y+019187
X+030500Y+020093
X+030343Y+021937
X+029812Y+021937
X+029312Y+022250
X+029125Y+022250
X+028937Y+022250
X+028937Y+022500
X+028875Y+023375
X+029125Y+023812
X+030187Y+023375
X+030437Y+023812
X+031500Y+023375
X+031750Y+023812
X+032812Y+023375
X+033062Y+023812
X+033375Y+023437
X+033687Y+023875
X+034322Y+023378
X+035062Y+023875
X+035625Y+023375
X+036312Y+023000
X+037000Y+023562
X+037689Y+022408
X+038187Y+022437
X+038218Y+021718
X+038031Y+021281
X+038468Y+021125
X+038968Y+021062
X+038968Y+021250
X+038968Y+021437
X+040000Y+022500
X+039000Y+023562
X+040000Y+024625
X+039000Y+025687
X+038000Y+024625
X+037000Y+025687
X+036000Y+024625
X+035000Y+025687
X+034000Y+024968
X+033000Y+025687
X+031000Y+022500
X+032125Y+021125
X+033437Y+021125
X+034125Y+021125
X+034963Y+021031
X+035500Y+021656
X+035937Y+021031
X+035468Y+019468
X+035968Y+019031
X+036468Y+018718
X+035906Y+018312
X+035343Y+018562
X+034687Y+018875
X+034687Y+018031
X+033937Y+017687
X+033750Y+018406
X+035750Y+017687
X+036468Y+019468
X+036843Y+015687
X+035781Y+015687
X+034718Y+015687
X+033625Y+014562
X+032593Y+014500
X+032375Y+013437
X+031750Y+013250
X+031437Y+013437
X+031187Y+013062
X+030250Y+013437
X+029687Y+013437
X+029000Y+013312
X+028750Y+013312
X+028500Y+013312
X+028468Y+012843
X+027593Y+013062
X+027031Y+013437
X+026375Y+014593
X+026250Y+014718
X+026125Y+014843
X+026218Y+015531
X+027031Y+015750
X+027156Y+015625
X+027281Y+015500
X+027187Y+016500
X+027593Y+016875
X+027968Y+017250
X+028375Y+017031
X+028500Y+016906
X+028625Y+016781
X+029187Y+015781
X+029187Y+014875
X+030125Y+014875
X+030875Y+015875
X+030312Y+016687
X+031687Y+016687
X+031468Y+014500
X+033562Y+013437
X+034187Y+013437
X+034687Y+013187
X+034937Y+013187
X+035187Y+013187
X+034937Y+012437
X+035875Y+012437
X+036687Y+012937
X+037000Y+012125
X+037937Y+012937
X+038812Y+012125
X+039500Y+012937
X+040437Y+013937
X+039687Y+015062
X+039656Y+015750
X+040437Y+015781
X+041062Y+015312
X+042000Y+016343
X+042937Y+015312
X+042000Y+014218
X+042937Y+013187
X+042000Y+012093
X+041437Y+012937
X+040437Y+011937
X+041437Y+010937
X+040437Y+009937
X+041437Y+008937
X+042437Y+009937
X+039437Y+008937
X+038281Y+008562
X+037812Y+008062
X+037812Y+007875
X+037812Y+007687
X+037812Y+007500
X+037812Y+007312
X+037406Y+007125
X+037406Y+007750
X+037375Y+008062
X+037375Y+008375
X+037375Y+008687
X+036906Y+008437
X+036906Y+007687
X+036343Y+007875
X+035718Y+008281
X+035625Y+009156
X+036250Y+010062
X+035812Y+011125
X+034937Y+010562
X+034750Y+010562
X+034562Y+010562
X+034187Y+010062
X+034562Y+009562
X+033937Y+008750
X+033937Y+008250
X+033625Y+007812
X+033375Y+008250
X+033335Y+008914
X+033062Y+009187
X+032600Y+008500
X+032185Y+008937
X+031937Y+009187
X+031471Y+008498
X+031060Y+008935
X+030812Y+009187
X+030812Y+010062
X+030857Y+010553
X+031937Y+010062
X+033062Y+010062
X+033023Y+010551
X+033562Y+011937
X+033937Y+012437
X+034750Y+011250
X+032437Y+011937
X+031437Y+011937
X+030250Y+011937
X+028937Y+011937
X+027500Y+011937
X+027500Y+011000
X+028033Y+010567
X+028220Y+010567
X+028404Y+010569
X+028937Y+009937
X+028843Y+008750
X+029250Y+008687
X+029625Y+008312
X+029125Y+007812
X+028750Y+008156
X+028250Y+007656
X+027875Y+008312
X+027750Y+008843
X+028312Y+008750
X+027062Y+008843
X+026531Y+008312
X+026125Y+008656
X+025906Y+008062
X+025875Y+007468
X+025625Y+007000
X+025375Y+007750
X+024625Y+008000
X+024375Y+008000
X+024125Y+008000
X+024125Y+008250
X+024125Y+008500
X+024125Y+008750
X+024125Y+009000
X+024125Y+009250
X+024125Y+009500
X+024125Y+009750
X+024125Y+010000
X+023562Y+010000
X+022500Y+010187
X+022500Y+009656
X+022000Y+009312
X+023468Y+008437
X+023625Y+008000
X+023875Y+008000
X+024625Y+008500
X+024909Y+009096
X+025437Y+008843
X+025750Y+009281
X+026125Y+009656
X+025750Y+010031
X+025250Y+011031
X+025843Y+011468
X+024625Y+011843
X+024218Y+011031
X+023250Y+011468
X+022437Y+013437
X+021218Y+013656
X+020937Y+012781
X+020437Y+013000
X+020125Y+013437
X+020437Y+012343
X+020937Y+012187
X+021812Y+014750
X+022419Y+015860
X+022544Y+015985
X+022669Y+016110
X+023093Y+016250
X+023593Y+016750
X+024093Y+017218
X+024593Y+017656
X+025093Y+017218
X+025593Y+017656
X+026093Y+017218
X+025593Y+016750
X+025093Y+016250
X+024593Y+015750
X+024093Y+016250
X+024593Y+016750
X+023593Y+015750
X+024093Y+015250
X+023625Y+014750
X+023625Y+014093
X+023093Y+015250
X+022093Y+016250
X+022593Y+016750
X+023062Y+017406
X+021562Y+017125
X+021375Y+017125
X+021187Y+017125
X+019256Y+017430
X+018250Y+016500
X+020250Y+020062
X+019843Y+020375
X+019937Y+021031
X+019750Y+021031
X+020125Y+021031
X+020375Y+020812
X+020500Y+021468
X+020937Y+022000
X+021062Y+021874
X+021187Y+021750
X+021281Y+022218
X+021625Y+022593
X+022125Y+022093
X+022281Y+021500
X+022625Y+021687
X+023125Y+022093
X+023625Y+021687
X+024125Y+022093
X+024625Y+021687
X+025125Y+022093
X+025687Y+021718
X+026125Y+022281
X+025625Y+022593
X+024624Y+022593
X+024125Y+023093
X+023625Y+022593
X+023125Y+023093
X+022562Y+023125
X+022437Y+023250
X+022312Y+023375
X+022156Y+023125
X+022656Y+023625
X+023156Y+024125
X+023656Y+023625
X+024156Y+024125
X+024656Y+023625
X+023625Y+024687
X+023875Y+025312
X+023312Y+025312
X+022750Y+025812
X+022187Y+025812
X+020375Y+024906
X+020187Y+024906
X+020000Y+024906
X+019500Y+023718
X+019640Y+022726
X+018312Y+023468
X+018125Y+023468
X+017937Y+023468
X+018187Y+024906
X+016156Y+024906
X+015531Y+025000
X+014500Y+025000
X+014000Y+024687
X+013875Y+024562
X+013750Y+024437
X+014062Y+024281
X+014750Y+024250
X+014000Y+023437
X+013531Y+022937
X+013093Y+022500
X+012781Y+022937
X+012538Y+022400
X+012125Y+022968
X+011751Y+022593
X+011343Y+022968
X+010767Y+022605
X+010373Y+022968
X+009979Y+022599
X+009593Y+022281
X+009586Y+022968
X+008437Y+021937
X+007437Y+022937
X+006437Y+021937
X+007437Y+020937
X+006812Y+020312
X+006656Y+020500
X+006468Y+020500
X+006281Y+020500
X+006093Y+020500
X+005906Y+020500
X+005718Y+020500
X+005531Y+020500
X+005343Y+020500
X+005187Y+020312
X+005000Y+020125
X+005000Y+019937
X+005000Y+019750
X+005000Y+019562
X+004437Y+019937
X+004875Y+018687
X+006000Y+018687
X+007125Y+018687
X+007000Y+019562
X+007000Y+019750
X+007000Y+019937
X+007000Y+020125
X+008437Y+019937
X+009437Y+020937
X+010437Y+019937
X+009437Y+018937
X+008500Y+018000
X+007812Y+016375
X+011125Y+015250
X+011312Y+015062
X+004312Y+017312
X+005437Y+020937
X+004437Y+021937
X+005437Y+022937
X+004437Y+023937
X+005437Y+024937
X+004437Y+025800
X+006437Y+025800
X+007437Y+024937
X+008437Y+025800
X+009625Y+024562
X+010375Y+024562
X+010437Y+025000
X+010250Y+025000
X+010625Y+025000
X+011250Y+024562
X+011875Y+024562
X+012500Y+024562
X+012000Y+025187
X+013125Y+025187
X+016437Y+023468
X+016906Y+022125
X+017093Y+022125
X+017281Y+022125
X+021156Y+020812
X+021375Y+021281
X+022156Y+020812
X+023156Y+020812
X+024156Y+020812
X+025156Y+020812
X+025750Y+020812
X+026593Y+020812
X+027468Y+020812
X+026625Y+021718
X+027562Y+022750
X+027031Y+023500
X+026843Y+023500
X+026656Y+023500
X+026125Y+025812
X+025562Y+025812
X+025000Y+025812
X+024437Y+025812
X+022625Y+022593
X+026781Y+017687
X+025343Y+014625
X+025093Y+012875
X+026937Y+009937
X+026875Y+007781
X+027437Y+007812
X+027625Y+007000
X+026625Y+007000
X+028625Y+007000
X+029625Y+007000
X+030125Y+007687
X+030406Y+008312
X+030625Y+007000
X+031625Y+007000
X+031875Y+007750
X+032656Y+007812
X+032625Y+007000
X+033625Y+007000
X+034625Y+007000
X+035625Y+007000
X+036625Y+007000
X+038250Y+007562
X+038281Y+007875
X+039437Y+010937
X+039000Y+014281
X+038968Y+015093
X+039906Y+017406
X+040468Y+019093
X+040468Y+020281
X+041000Y+021437
X+042000Y+020375
X+042937Y+021437
X+041999Y+022500
X+042937Y+023562
X+042000Y+024625
X+042937Y+025687
X+041000Y+025687
X+041000Y+023562
X+042937Y+019312
X+042937Y+017437
X+036437Y+014375
X+034562Y+008250
X+024625Y+007000
X+023625Y+007000
X+006437Y+023937
T02
X+031937Y+025687
X+030937Y+025687
X+029937Y+025687
X+028937Y+025687
X+027937Y+025687
X+026937Y+025687
T00
M30
