M48
INCH
T01C0.0079
T02C0.0433
T03C0.0454
%
T01
X+027062Y+023781
X+026937Y+023656
X+026812Y+023531
X+026437Y+024437
X+024937Y+024437
X+023906Y+023531
X+023718Y+023531
X+023531Y+023531
X+023437Y+024437
X+023062Y+022187
X+023062Y+021562
X+022536Y+021468
X+022142Y+021803
X+021686Y+021597
X+022062Y+021250
X+022031Y+020531
X+022031Y+020031
X+022031Y+019531
X+022562Y+019812
X+022562Y+020312
X+022733Y+020906
X+023062Y+020937
X+023812Y+020937
X+023812Y+021562
X+023812Y+022187
X+024437Y+022187
X+024437Y+021562
X+024437Y+020937
X+025187Y+020937
X+025187Y+021562
X+025187Y+022187
X+025937Y+022187
X+025937Y+021562
X+025937Y+020937
X+026687Y+020937
X+026687Y+021562
X+026687Y+022187
X+027437Y+022187
X+027437Y+021562
X+027937Y+020187
X+027937Y+019187
X+026937Y+019187
X+025937Y+019187
X+025062Y+019187
X+024312Y+019187
X+023812Y+019187
X+024187Y+018437
X+022937Y+018437
X+023187Y+017687
X+022875Y+017250
X+022875Y+016656
X+022875Y+016156
X+022875Y+015656
X+023406Y+015437
X+023406Y+015937
X+023406Y+016437
X+023406Y+016937
X+024562Y+015937
X+024812Y+015062
X+025687Y+015062
X+026562Y+015062
X+026562Y+015937
X+027187Y+016312
X+027312Y+016812
X+027937Y+016437
X+027937Y+015687
X+027437Y+015062
X+029312Y+015062
X+029468Y+015531
X+029875Y+015218
X+030031Y+015687
X+029625Y+016062
X+030686Y+015562
X+031406Y+016218
X+031343Y+016531
X+031156Y+016531
X+030968Y+016531
X+032375Y+017406
X+034187Y+017750
X+034187Y+018593
X+035000Y+018625
X+035781Y+018312
X+036468Y+018718
X+036468Y+019468
X+035468Y+019468
X+034937Y+021156
X+033954Y+021136
X+033218Y+022218
X+035437Y+022437
X+035937Y+021312
X+036750Y+023437
X+036937Y+024437
X+038437Y+024437
X+037875Y+023125
X+038468Y+022250
X+038968Y+021500
X+038968Y+021312
X+038968Y+021125
X+040468Y+020281
X+041437Y+019937
X+040468Y+019093
X+040187Y+016937
X+039437Y+016937
X+039437Y+015937
X+038437Y+014937
X+037437Y+013937
X+036437Y+012937
X+035937Y+011937
X+036437Y+010937
X+036718Y+010562
X+037218Y+010562
X+037843Y+010562
X+038343Y+010562
X+038562Y+011156
X+038062Y+011156
X+037437Y+011156
X+036937Y+011156
X+034937Y+010937
X+034104Y+011524
X+033606Y+011524
X+033687Y+012562
X+033611Y+013560
X+034205Y+013558
X+034687Y+013562
X+033812Y+014531
X+033187Y+014531
X+032593Y+014531
X+032031Y+014531
X+032429Y+013558
X+031446Y+013560
X+031062Y+012562
X+031439Y+011525
X+032433Y+011521
X+032437Y+012562
X+030264Y+013560
X+029669Y+013562
X+029000Y+013312
X+028750Y+013312
X+028500Y+013312
X+028187Y+012562
X+028312Y+011593
X+028500Y+011593
X+028687Y+011593
X+027843Y+011156
X+027343Y+011156
X+026843Y+011156
X+026343Y+011156
X+025875Y+011218
X+025343Y+011218
X+024468Y+011156
X+024125Y+010750
X+024125Y+010500
X+024125Y+010250
X+024125Y+010000
X+024125Y+009750
X+024125Y+009500
X+024125Y+009250
X+024125Y+009000
X+024125Y+008750
X+024125Y+008500
X+024125Y+008250
X+024125Y+008000
X+023625Y+008000
X+022878Y+007665
X+022625Y+007041
X+021937Y+007312
X+021625Y+007016
X+021312Y+007312
X+020841Y+007502
X+020437Y+007117
X+020312Y+008062
X+019665Y+007807
X+019406Y+008468
X+019812Y+008562
X+019812Y+008875
X+019937Y+009187
X+019937Y+009687
X+019937Y+010812
X+020187Y+012562
X+020125Y+013187
X+020062Y+013437
X+020250Y+013906
X+020437Y+014187
X+019687Y+014937
X+019218Y+015343
X+018843Y+015000
X+019187Y+014437
X+019187Y+013437
X+019312Y+012562
X+018562Y+012062
X+018187Y+012687
X+018187Y+013437
X+018187Y+014437
X+017187Y+014437
X+017093Y+015000
X+017093Y+015375
X+017781Y+016000
X+018062Y+015593
X+018592Y+015802
X+018281Y+016187
X+018437Y+016593
X+018250Y+016812
X+018375Y+017281
X+018218Y+017562
X+017937Y+018187
X+017468Y+018750
X+017101Y+018367
X+017093Y+019187
X+017468Y+019562
X+017093Y+020125
X+017468Y+020531
X+017105Y+020925
X+017468Y+021327
X+017906Y+021093
X+018250Y+021093
X+018437Y+020687
X+018125Y+020312
X+018468Y+019937
X+018937Y+019750
X+018468Y+019375
X+018718Y+018937
X+018656Y+018562
X+019281Y+018156
X+019687Y+018750
X+020937Y+019187
X+020750Y+020156
X+019656Y+020312
X+018468Y+021500
X+017937Y+022937
X+016437Y+022937
X+014937Y+022937
X+014937Y+024437
X+013437Y+024437
X+011937Y+024437
X+010437Y+024437
X+008937Y+024437
X+007437Y+024437
X+005937Y+024437
X+004437Y+024437
X+004437Y+022937
X+004437Y+021437
X+004437Y+019937
X+004437Y+018437
X+005343Y+017634
X+005531Y+017634
X+005718Y+017634
X+005906Y+017634
X+006093Y+017634
X+006281Y+017634
X+006468Y+017634
X+006656Y+017634
X+006812Y+017447
X+007000Y+017259
X+007000Y+017072
X+007000Y+016884
X+007000Y+016697
X+007656Y+017500
X+007656Y+018000
X+007656Y+018500
X+007656Y+019000
X+007218Y+018750
X+007218Y+018250
X+007218Y+017750
X+005937Y+018437
X+005187Y+017447
X+005000Y+017259
X+005000Y+017072
X+005000Y+016884
X+005000Y+016697
X+004437Y+016937
X+004437Y+015437
X+004437Y+013937
X+004875Y+013625
X+005781Y+013718
X+005781Y+013937
X+006000Y+013937
X+006000Y+013718
X+006000Y+013500
X+005781Y+013500
X+006000Y+013281
X+006000Y+013031
X+006000Y+012781
X+006000Y+012562
X+006000Y+012343
X+005781Y+012343
X+005781Y+012562
X+006218Y+012562
X+006218Y+012343
X+006218Y+012125
X+006000Y+012125
X+005781Y+012125
X+005312Y+012437
X+004437Y+012437
X+006187Y+011687
X+006187Y+010937
X+006187Y+010125
X+006791Y+010260
X+007166Y+009885
X+007541Y+009510
X+007916Y+009135
X+008291Y+008760
X+008625Y+008187
X+009625Y+008187
X+009625Y+008812
X+009187Y+009250
X+008750Y+009687
X+008312Y+010125
X+007875Y+010562
X+007250Y+010562
X+007250Y+010812
X+007250Y+011062
X+007250Y+011312
X+007250Y+011562
X+007250Y+011812
X+007812Y+012125
X+007687Y+011187
X+008687Y+010750
X+009437Y+010000
X+010062Y+010500
X+010843Y+010593
X+011406Y+010000
X+012026Y+010590
X+012531Y+010000
X+013012Y+010609
X+013625Y+010000
X+014196Y+010599
X+015187Y+010562
X+015187Y+011187
X+015187Y+012062
X+015187Y+012687
X+014780Y+013187
X+015187Y+013437
X+016187Y+013437
X+016187Y+012687
X+016187Y+012062
X+016187Y+011187
X+016187Y+010562
X+015937Y+009812
X+015187Y+009812
X+015187Y+009062
X+014781Y+008968
X+014187Y+009000
X+014621Y+007653
X+014125Y+007468
X+014628Y+007053
X+015625Y+007062
X+016165Y+007328
X+016649Y+006989
X+017112Y+007392
X+017574Y+007068
X+017827Y+007661
X+018620Y+007820
X+018750Y+008468
X+018468Y+008875
X+018187Y+008468
X+017739Y+008864
X+017437Y+008468
X+017000Y+008843
X+016687Y+009062
X+016312Y+008562
X+015937Y+009062
X+016687Y+009812
X+017187Y+010562
X+017812Y+011187
X+017187Y+012062
X+017187Y+012687
X+017187Y+013437
X+016187Y+014437
X+015187Y+014437
X+015250Y+015000
X+015250Y+015375
X+014718Y+015062
X+014611Y+015353
X+014281Y+015375
X+013625Y+015562
X+013187Y+015875
X+012750Y+016187
X+012312Y+016500
X+011875Y+016812
X+011437Y+017125
X+011000Y+017437
X+011406Y+017781
X+011079Y+018292
X+011386Y+018713
X+010906Y+019156
X+011250Y+019562
X+010843Y+020187
X+011125Y+020906
X+010687Y+021281
X+010500Y+021062
X+011718Y+020656
X+012593Y+020468
X+012937Y+020156
X+014000Y+020156
X+014937Y+020093
X+015125Y+020093
X+015312Y+020093
X+015468Y+020281
X+015375Y+019562
X+014645Y+019162
X+014641Y+018268
X+014406Y+017542
X+014266Y+016968
X+014607Y+016924
X+013732Y+017176
X+013250Y+017718
X+015463Y+017812
X+015468Y+018727
X+017031Y+017375
X+017031Y+017187
X+017031Y+017000
X+017500Y+016406
X+017718Y+016593
X+019031Y+017187
X+019437Y+017375
X+019656Y+016781
X+020781Y+016125
X+020781Y+015937
X+020781Y+015750
X+021125Y+017562
X+021000Y+017687
X+020875Y+017812
X+022062Y+018437
X+022562Y+019187
X+021750Y+022218
X+019437Y+022937
X+018000Y+018937
X+015406Y+021281
X+013531Y+021531
X+013062Y+021750
X+012593Y+021968
X+012125Y+022187
X+011656Y+022406
X+011187Y+022625
X+010437Y+022937
X+008937Y+022937
X+007437Y+022937
X+007656Y+021531
X+007656Y+021031
X+007656Y+020531
X+007656Y+020031
X+007656Y+019531
X+007218Y+019781
X+007218Y+020281
X+007218Y+020781
X+007218Y+021281
X+005937Y+021437
X+005937Y+022937
X+005937Y+019937
X+007218Y+019250
X+009843Y+019781
X+009437Y+016687
X+008437Y+016687
X+008437Y+015187
X+008062Y+013812
X+008718Y+013750
X+008906Y+013750
X+009093Y+013750
X+010256Y+013556
X+010845Y+014474
X+010187Y+015187
X+012028Y+014469
X+013013Y+014468
X+014187Y+014468
X+013937Y+012437
X+012312Y+012437
X+010562Y+012437
X+009062Y+012437
X+006750Y+012500
X+006687Y+013625
X+006218Y+013718
X+006218Y+013937
X+006218Y+013500
X+004531Y+010093
X+004531Y+008781
X+006187Y+008750
X+006187Y+009437
X+008625Y+007000
X+009625Y+007125
X+010571Y+007673
X+010331Y+008063
X+011406Y+008375
X+012307Y+007425
X+012718Y+007156
X+013531Y+007125
X+012875Y+008125
X+011593Y+007031
X+010714Y+006990
X+010187Y+009500
X+018443Y+007079
X+019413Y+007114
X+021312Y+007937
X+021937Y+007937
X+021937Y+008562
X+021312Y+008562
X+022750Y+008437
X+022935Y+009093
X+022562Y+009312
X+023593Y+008968
X+023562Y+010031
X+023156Y+010843
X+023500Y+011218
X+022625Y+010812
X+022468Y+012000
X+022062Y+012093
X+023187Y+012718
X+023125Y+013187
X+022937Y+013187
X+022750Y+013187
X+023437Y+013125
X+024125Y+013343
X+024312Y+013343
X+024312Y+013531
X+024125Y+013531
X+024705Y+013513
X+024705Y+013325
X+024705Y+013138
X+023906Y+012531
X+026156Y+013156
X+026156Y+013343
X+026156Y+013531
X+025687Y+015937
X+025312Y+016812
X+026562Y+016812
X+026562Y+017437
X+027937Y+017437
X+029687Y+019093
X+029812Y+019218
X+029937Y+019343
X+030093Y+019000
X+029468Y+019437
X+029531Y+020500
X+029343Y+020500
X+029156Y+020500
X+030781Y+020437
X+030906Y+020312
X+031031Y+020187
X+031312Y+019062
X+033062Y+019187
X+036187Y+017437
X+037937Y+017437
X+041437Y+015437
X+042937Y+015437
X+042937Y+016937
X+042937Y+018437
X+042937Y+019937
X+042937Y+021437
X+042937Y+022937
X+041437Y+022937
X+041437Y+021437
X+039937Y+022937
X+039937Y+024437
X+041437Y+024437
X+042937Y+024437
X+035437Y+024437
X+033937Y+024437
X+032437Y+024437
X+030937Y+024437
X+029437Y+024437
X+027937Y+024437
X+028562Y+022687
X+029687Y+022687
X+030750Y+022687
X+034062Y+015187
X+029687Y+012562
X+029687Y+011500
X+030250Y+011500
X+029000Y+010687
X+027625Y+010562
X+027125Y+010562
X+026625Y+010562
X+026125Y+010562
X+025937Y+009812
X+025343Y+010031
X+025343Y+008875
X+025875Y+008718
X+026312Y+008875
X+026562Y+008125
X+026593Y+007593
X+026093Y+007593
X+025781Y+007906
X+025343Y+008062
X+024685Y+008064
X+024625Y+007024
X+023625Y+007024
X+025656Y+007031
X+026593Y+007031
X+027625Y+007062
X+027437Y+007812
X+027875Y+008312
X+028312Y+008750
X+028843Y+008750
X+029250Y+008687
X+029625Y+008312
X+029125Y+007812
X+028750Y+008156
X+028250Y+007656
X+028625Y+007062
X+029625Y+007062
X+030625Y+007062
X+031625Y+007062
X+031625Y+007812
X+032312Y+008437
X+032593Y+008750
X+032125Y+008937
X+031937Y+009187
X+031486Y+008753
X+031000Y+008937
X+030406Y+008312
X+032656Y+007812
X+032625Y+007062
X+033625Y+007062
X+033625Y+007812
X+033375Y+008375
X+033937Y+008375
X+033937Y+008750
X+034531Y+008625
X+035156Y+008625
X+035062Y+009093
X+035812Y+008375
X+036437Y+007937
X+036625Y+007062
X+035625Y+007062
X+034625Y+007062
X+034406Y+007812
X+033250Y+008937
X+036500Y+009187
X+037562Y+008687
X+037750Y+009187
X+038312Y+009187
X+038250Y+008687
X+038625Y+008375
X+037687Y+007500
X+037812Y+007375
X+037937Y+007250
X+037562Y+007625
X+037437Y+007750
X+038625Y+007062
X+039937Y+009437
X+041437Y+009437
X+041437Y+010937
X+039937Y+010937
X+039937Y+012437
X+041437Y+012437
X+041437Y+013937
X+042937Y+013937
X+042937Y+012437
X+042937Y+009437
X+039937Y+013937
X+027250Y+008875
X+023937Y+015062
X+022937Y+015062
X+013437Y+022937
X+011937Y+022937
T02
X+021593Y+024250
X+020593Y+024250
X+019593Y+024250
X+018593Y+024250
X+017593Y+024250
X+016593Y+024250
T00
M30
