M48
INCH
T01C0.0079
T02C0.0433
T03C0.0454
%
T01
X+009500Y+013312
X+010031Y+012375
X+009687Y+012000
X+008687Y+012000
X+008062Y+011500
X+007750Y+012250
X+008062Y+012562
X+008062Y+013125
X+007750Y+013125
X+007750Y+013750
X+007250Y+013750
X+007250Y+013500
X+007250Y+014000
X+007250Y+014250
X+007250Y+014500
X+007250Y+014750
X+007437Y+014937
X+007625Y+015125
X+007812Y+015312
X+007812Y+015500
X+007312Y+015312
X+007750Y+014500
X+008437Y+015187
X+009250Y+015187
X+009500Y+014625
X+010437Y+015062
X+010687Y+014875
X+011156Y+015343
X+011312Y+015187
X+011093Y+013500
X+010843Y+013281
X+011000Y+012312
X+010687Y+012117
X+010851Y+011747
X+011299Y+012035
X+011562Y+012312
X+011912Y+012041
X+012030Y+011748
X+012421Y+012046
X+012224Y+012286
X+012864Y+012280
X+013000Y+012031
X+013006Y+011709
X+013579Y+012267
X+013812Y+012062
X+014406Y+012343
X+014656Y+012125
X+014687Y+011750
X+015625Y+011375
X+015625Y+010750
X+015125Y+010750
X+015000Y+009750
X+015687Y+009750
X+016312Y+009750
X+016375Y+010312
X+016562Y+010312
X+016750Y+010312
X+016875Y+009937
X+016875Y+009250
X+017125Y+009000
X+017437Y+009000
X+017750Y+009000
X+018062Y+009000
X+018437Y+009000
X+018750Y+009000
X+019062Y+009000
X+019375Y+009000
X+019750Y+009062
X+020312Y+009062
X+020312Y+008500
X+020875Y+008500
X+021437Y+008500
X+021437Y+007937
X+022000Y+007937
X+022000Y+008500
X+022000Y+009062
X+021437Y+009062
X+020875Y+009062
X+020875Y+007937
X+021437Y+007312
X+021625Y+007062
X+021875Y+007312
X+022625Y+007062
X+023625Y+007062
X+023625Y+008000
X+024125Y+008000
X+024125Y+008250
X+024125Y+008500
X+024125Y+008750
X+024125Y+009000
X+024125Y+009250
X+024125Y+009500
X+024125Y+009750
X+023593Y+009937
X+023593Y+008968
X+022750Y+008750
X+022750Y+008437
X+022968Y+008031
X+022562Y+009062
X+022562Y+009937
X+022375Y+010750
X+021750Y+010750
X+021125Y+011375
X+021562Y+011656
X+020619Y+012056
X+020125Y+012000
X+020125Y+012562
X+019937Y+012812
X+020187Y+013062
X+019875Y+013625
X+019875Y+014125
X+019562Y+014375
X+019875Y+014562
X+019875Y+015062
X+019875Y+015500
X+019343Y+015093
X+018812Y+015093
X+018281Y+015093
X+017781Y+014875
X+017528Y+014344
X+018040Y+014344
X+018552Y+014344
X+019064Y+014344
X+020375Y+014187
X+020375Y+013750
X+020375Y+014687
X+022468Y+014343
X+022687Y+013906
X+023062Y+013750
X+022250Y+013534
X+023781Y+012781
X+024218Y+013625
X+024218Y+014656
X+025000Y+015250
X+025250Y+015500
X+025437Y+015687
X+025625Y+015875
X+025812Y+016062
X+026000Y+016250
X+026187Y+016437
X+026375Y+016625
X+026562Y+016812
X+026875Y+017125
X+025937Y+017437
X+025500Y+016593
X+024781Y+016656
X+024250Y+016156
X+024500Y+015906
X+024062Y+015656
X+023843Y+015781
X+023437Y+015437
X+023156Y+015375
X+023000Y+015343
X+023031Y+015500
X+022875Y+015468
X+022750Y+015750
X+022437Y+016031
X+022125Y+016343
X+021812Y+016687
X+021500Y+017000
X+021312Y+017187
X+021125Y+017375
X+020750Y+017750
X+020562Y+017937
X+020375Y+018125
X+020187Y+018312
X+020000Y+018500
X+019812Y+018687
X+019625Y+018875
X+019281Y+019187
X+018750Y+019437
X+018000Y+019437
X+018000Y+020062
X+017187Y+019437
X+016500Y+019562
X+016500Y+019125
X+016500Y+018687
X+017187Y+018687
X+017187Y+018062
X+017875Y+018625
X+019406Y+019843
X+019781Y+020218
X+020187Y+020500
X+020343Y+020718
X+020468Y+020593
X+020593Y+020468
X+020687Y+020312
X+020687Y+020125
X+021312Y+019562
X+021937Y+020437
X+021375Y+020750
X+021375Y+021000
X+021375Y+021250
X+021375Y+021500
X+021375Y+021750
X+021687Y+022062
X+021937Y+021437
X+022937Y+021437
X+022937Y+022437
X+022625Y+023000
X+022812Y+023187
X+023000Y+023375
X+023187Y+023562
X+023375Y+023750
X+023562Y+023937
X+023937Y+023437
X+023937Y+022437
X+023937Y+021437
X+024937Y+021437
X+025750Y+021812
X+025750Y+022062
X+025750Y+022312
X+025750Y+022562
X+025750Y+022812
X+025562Y+023000
X+024937Y+022437
X+025937Y+021437
X+026625Y+021500
X+026625Y+021750
X+026875Y+021750
X+026625Y+022000
X+026437Y+022187
X+026625Y+021250
X+026625Y+021000
X+026937Y+020437
X+027828Y+020803
X+028031Y+020593
X+028187Y+020437
X+028375Y+020250
X+028562Y+020062
X+028750Y+019875
X+029000Y+019437
X+028750Y+019000
X+028562Y+018812
X+028375Y+018625
X+028187Y+018437
X+028000Y+018250
X+027812Y+018062
X+026937Y+018437
X+026937Y+019437
X+025937Y+019437
X+024937Y+019437
X+024937Y+020437
X+025937Y+020437
X+025937Y+018437
X+024937Y+018437
X+023937Y+018437
X+023937Y+019437
X+023937Y+020437
X+022937Y+020437
X+022937Y+019437
X+022375Y+018468
X+021500Y+018468
X+021187Y+018062
X+022781Y+016468
X+023156Y+016843
X+023593Y+017312
X+024937Y+017437
X+027125Y+015562
X+026500Y+014937
X+025750Y+014187
X+026875Y+013750
X+026625Y+013062
X+026437Y+012875
X+026937Y+011937
X+025937Y+010937
X+025750Y+009687
X+026125Y+009625
X+025750Y+009187
X+025375Y+009000
X+025406Y+008593
X+025000Y+008312
X+024687Y+008312
X+024625Y+008000
X+024890Y+008765
X+025500Y+007750
X+025875Y+007468
X+025625Y+007062
X+024625Y+007062
X+025906Y+008062
X+026125Y+008625
X+026531Y+008312
X+026937Y+007718
X+027437Y+007812
X+027875Y+008312
X+027750Y+008843
X+028312Y+008750
X+028843Y+008750
X+029250Y+008687
X+029625Y+008312
X+029125Y+007812
X+028750Y+008156
X+028250Y+007656
X+028625Y+007062
X+027625Y+007062
X+026625Y+007062
X+027062Y+008843
X+026937Y+009937
X+027937Y+010937
X+028625Y+010312
X+028812Y+010312
X+029000Y+010312
X+028937Y+009937
X+029687Y+011500
X+030250Y+011500
X+030937Y+011937
X+031437Y+011500
X+032437Y+011500
X+032937Y+011937
X+033562Y+011500
X+034104Y+011507
X+034781Y+011031
X+034781Y+009937
X+034562Y+009562
X+034312Y+009156
X+033937Y+008750
X+033937Y+008375
X+033375Y+008375
X+033250Y+008937
X+032593Y+008750
X+032125Y+008937
X+031486Y+008753
X+031000Y+008937
X+030812Y+009625
X+030854Y+010329
X+030853Y+010506
X+031937Y+009625
X+033062Y+009625
X+033020Y+010332
X+033018Y+010479
X+033937Y+012437
X+034937Y+012437
X+034937Y+013187
X+035187Y+013187
X+034687Y+013187
X+034187Y+013437
X+033562Y+013437
X+032375Y+013437
X+031750Y+013250
X+031437Y+013437
X+031187Y+013062
X+030250Y+013437
X+029687Y+013437
X+029000Y+013312
X+028750Y+013312
X+028500Y+013312
X+027687Y+013312
X+027687Y+014187
X+028250Y+015125
X+028937Y+015437
X+029250Y+015750
X+029750Y+015562
X+029870Y+014816
X+029000Y+014687
X+030562Y+015562
X+030312Y+016125
X+030812Y+016687
X+031125Y+016125
X+031687Y+016687
X+032250Y+017250
X+033875Y+017187
X+034937Y+018312
X+035187Y+018687
X+035687Y+018312
X+035875Y+018625
X+036187Y+018937
X+035875Y+019250
X+036187Y+019562
X+036499Y+019250
X+036812Y+019562
X+036500Y+019875
X+036812Y+020187
X+036375Y+020437
X+035812Y+019875
X+035312Y+020437
X+034750Y+019875
X+034187Y+020437
X+034062Y+019437
X+033812Y+019250
X+033625Y+019250
X+033437Y+019250
X+033250Y+019250
X+033062Y+019250
X+033312Y+018750
X+033062Y+020437
X+032000Y+021125
X+032000Y+021812
X+031062Y+021812
X+030125Y+021812
X+030437Y+023437
X+029125Y+023437
X+029437Y+024437
X+028250Y+024187
X+026937Y+024187
X+026375Y+023937
X+025875Y+024562
X+025937Y+025812
X+024875Y+025500
X+024125Y+025812
X+024125Y+024937
X+023000Y+025312
X+022187Y+025812
X+021062Y+024687
X+018625Y+023187
X+018125Y+023187
X+017562Y+023187
X+017000Y+023187
X+016437Y+023187
X+016875Y+021750
X+017250Y+021750
X+016000Y+019562
X+016000Y+019187
X+014750Y+017937
X+014437Y+018250
X+015500Y+015750
X+015500Y+014750
X+015500Y+014562
X+015500Y+014375
X+015000Y+014437
X+014062Y+014937
X+013968Y+015156
X+013812Y+015000
X+013937Y+015437
X+014406Y+013531
X+014406Y+013281
X+015437Y+013375
X+015625Y+012187
X+016625Y+012187
X+017272Y+012311
X+017528Y+012061
X+017784Y+012311
X+018040Y+012061
X+018296Y+012311
X+018552Y+012061
X+018808Y+012311
X+019064Y+012061
X+020125Y+011375
X+020125Y+010750
X+019500Y+010750
X+019687Y+009812
X+019250Y+008531
X+018593Y+008312
X+017531Y+008187
X+016937Y+007875
X+016156Y+007750
X+016625Y+007062
X+015625Y+007062
X+015218Y+007593
X+014625Y+007093
X+014218Y+007437
X+013625Y+007093
X+012625Y+007093
X+012031Y+007531
X+011593Y+007093
X+010687Y+007093
X+010343Y+007718
X+010500Y+008062
X+010125Y+008468
X+009812Y+008375
X+009437Y+008750
X+009062Y+009125
X+009437Y+009500
X+009062Y+009875
X+009125Y+010312
X+009312Y+010312
X+009500Y+010312
X+009812Y+009875
X+010187Y+009500
X+009812Y+009125
X+010218Y+008906
X+011406Y+008937
X+011406Y+009562
X+011437Y+010312
X+011437Y+010500
X+012531Y+009562
X+012531Y+008937
X+013656Y+008937
X+014187Y+009000
X+014562Y+009000
X+015000Y+009000
X+015687Y+009000
X+016312Y+009000
X+017625Y+007062
X+018625Y+007062
X+019625Y+007062
X+020625Y+007062
X+024937Y+011937
X+028937Y+011937
X+030406Y+008312
X+030625Y+007062
X+029625Y+007062
X+031625Y+007062
X+031625Y+007812
X+032656Y+007812
X+032625Y+007062
X+033625Y+007062
X+033625Y+007812
X+034562Y+008250
X+035718Y+008281
X+036562Y+008093
X+036906Y+007687
X+037437Y+007750
X+037562Y+007625
X+037687Y+007500
X+037812Y+007375
X+037937Y+007250
X+038531Y+007093
X+038531Y+007593
X+038531Y+008125
X+038421Y+008515
X+037906Y+008281
X+037343Y+008562
X+037750Y+009187
X+038312Y+009187
X+039437Y+008937
X+040437Y+009937
X+041437Y+008937
X+042437Y+009937
X+042437Y+011937
X+041437Y+012937
X+040437Y+013937
X+039437Y+013937
X+039000Y+014437
X+039437Y+015375
X+040437Y+014937
X+041437Y+015937
X+042437Y+015437
X+042437Y+013937
X+040437Y+011937
X+039437Y+010937
X+038838Y+011995
X+037937Y+012937
X+036687Y+013125
X+035875Y+012437
X+035943Y+010306
X+035739Y+010307
X+036155Y+010312
X+035625Y+009156
X+035625Y+007062
X+034625Y+007062
X+036625Y+007062
X+034187Y+014812
X+033687Y+015218
X+036062Y+015937
X+035875Y+017375
X+036500Y+018625
X+036812Y+018937
X+035312Y+019312
X+034437Y+021437
X+035437Y+022437
X+036437Y+023437
X+035437Y+024437
X+036437Y+025437
X+037437Y+024437
X+038437Y+025437
X+039437Y+024437
X+038437Y+023437
X+039437Y+022437
X+038437Y+021437
X+037437Y+022437
X+036437Y+021437
X+034437Y+023437
X+033437Y+022437
X+032437Y+023437
X+033437Y+024437
X+032437Y+025437
X+031437Y+024437
X+034437Y+025437
X+040437Y+025437
X+041437Y+024437
X+040437Y+023437
X+041437Y+022437
X+040437Y+021437
X+040562Y+020375
X+041437Y+020437
X+041250Y+019750
X+041875Y+019125
X+042437Y+019437
X+042437Y+017437
X+040062Y+017406
X+037750Y+016937
X+042437Y+021437
X+042437Y+023437
X+042812Y+025687
X+030937Y+019687
X+030250Y+019937
X+030312Y+019250
X+030250Y+018812
X+030937Y+018812
X+029687Y+019437
X+027937Y+019437
X+028437Y+016812
X+027875Y+016250
X+029562Y+016500
X+028187Y+022125
X+027875Y+022500
X+027187Y+023250
X+020593Y+021187
X+018875Y+016437
X+013599Y+010496
X+013602Y+010312
X+013656Y+009562
X+011406Y+008187
X+009812Y+007250
X+007875Y+008750
X+007062Y+009437
X+006187Y+009437
X+006187Y+008750
X+006187Y+010125
X+006187Y+010937
X+006187Y+011687
X+007250Y+011562
X+007250Y+011312
X+007250Y+011062
X+007250Y+010812
X+007250Y+010562
X+007250Y+010312
X+007750Y+010750
X+008687Y+010750
X+008312Y+009875
X+008687Y+009500
X+007250Y+011812
X+006875Y+013062
X+006343Y+014250
X+006250Y+014750
X+006000Y+014750
X+006000Y+015000
X+005750Y+015000
X+005750Y+014750
X+005750Y+015250
X+006000Y+015250
X+006000Y+015500
X+006000Y+015750
X+006000Y+016000
X+006000Y+016250
X+005750Y+016250
X+005750Y+016500
X+005750Y+016750
X+006000Y+016750
X+006000Y+016500
X+006250Y+016500
X+006250Y+016750
X+006250Y+016250
X+006906Y+016312
X+006250Y+015250
X+006250Y+015000
X+005437Y+015187
X+004343Y+015843
X+004562Y+017843
X+005000Y+019562
X+005000Y+019750
X+005000Y+019937
X+005000Y+020125
X+005187Y+020312
X+005343Y+020500
X+005531Y+020500
X+005718Y+020500
X+005906Y+020500
X+006093Y+020500
X+006281Y+020500
X+006468Y+020500
X+006656Y+020500
X+006812Y+020312
X+007000Y+020125
X+007000Y+019937
X+007000Y+019750
X+007000Y+019562
X+007437Y+018937
X+008437Y+019937
X+007437Y+020937
X+006437Y+021937
X+007437Y+022937
X+008437Y+021937
X+009312Y+022343
X+009586Y+022843
X+010062Y+022343
X+010373Y+022843
X+011062Y+022312
X+011343Y+022843
X+011812Y+022343
X+012125Y+022843
X+012538Y+022336
X+012937Y+022500
X+013250Y+022687
X+013326Y+022986
X+012937Y+022875
X+014000Y+023437
X+014062Y+024125
X+013750Y+024437
X+013937Y+024625
X+014125Y+024812
X+014375Y+024687
X+014625Y+024125
X+015062Y+024687
X+013000Y+025187
X+012437Y+024562
X+012000Y+024562
X+012000Y+025187
X+010625Y+025187
X+010437Y+025187
X+010250Y+025187
X+010062Y+025187
X+009875Y+025187
X+009625Y+024687
X+010375Y+024687
X+008437Y+025812
X+007437Y+024937
X+006437Y+025812
X+005437Y+024937
X+004562Y+025718
X+004562Y+023843
X+005437Y+022937
X+004562Y+021843
X+005437Y+020937
X+004562Y+019843
X+006437Y+023937
X+004562Y+013843
X+005437Y+012937
X+004562Y+011968
X+004562Y+010031
X+004562Y+008656
T02
X+031875Y+025500
X+030875Y+025500
X+029875Y+025500
X+028875Y+025500
X+027875Y+025500
X+026875Y+025500
T00
M30
