M48
INCH
T01C0.0118
T02C0.0354
T03C0.0433
%
T01
X+011250Y+007749
X+010687Y+007750
X+009750Y+007312
X+008750Y+007312
X+008312Y+008750
X+008875Y+010125
X+008625Y+011875
X+009312Y+012125
X+009750Y+012375
X+010000Y+013563
X+008562Y+015001
X+007249Y+015626
X+006499Y+016251
X+005874Y+016813
X+004562Y+015313
X+005937Y+013501
X+007249Y+012438
X+004562Y+012250
X+004562Y+010188
X+004562Y+008813
X+011000Y+009438
X+010875Y+010875
X+011687Y+012125
X+012437Y+011500
X+012750Y+011187
X+013062Y+010875
X+012938Y+009500
X+013188Y+008250
X+014562Y+009937
X+014562Y+010562
X+014375Y+012437
X+014687Y+012750
X+015000Y+012437
X+015312Y+012750
X+015625Y+012437
X+015875Y+012875
X+016312Y+012500
X+016625Y+012750
X+017063Y+012938
X+017750Y+012875
X+018500Y+012812
X+018626Y+012500
X+017313Y+012250
X+016687Y+010562
X+017063Y+010313
X+016687Y+009937
X+017751Y+009625
X+018188Y+009250
X+018438Y+009563
X+018876Y+009938
X+019000Y+010437
X+019312Y+010750
X+019625Y+011062
X+020062Y+011500
X+020437Y+011812
X+020812Y+012125
X+021000Y+012500
X+020955Y+012880
X+020751Y+013375
X+020375Y+013562
X+020251Y+012938
X+021251Y+013501
X+022560Y+013625
X+022560Y+014000
X+022560Y+014375
X+022560Y+014750
X+022560Y+015125
X+022560Y+015500
X+022560Y+015875
X+022560Y+016250
X+022188Y+016251
X+024189Y+016001
X+024189Y+015626
X+024501Y+015376
X+024189Y+015126
X+024501Y+014876
X+024189Y+014626
X+024501Y+014376
X+024189Y+014126
X+024001Y+013188
X+023875Y+012500
X+023500Y+012250
X+023875Y+012000
X+023500Y+011750
X+023875Y+011500
X+023500Y+011250
X+023376Y+010750
X+023751Y+009938
X+023439Y+009563
X+023126Y+009188
X+023064Y+008688
X+023939Y+008375
X+023750Y+007687
X+023312Y+007687
X+022564Y+007312
X+021688Y+007312
X+020688Y+007812
X+020688Y+008813
X+021626Y+008938
X+021626Y+010375
X+019688Y+008813
X+019688Y+007875
X+018688Y+008062
X+018376Y+010438
X+016812Y+014625
X+016437Y+014812
X+016062Y+015000
X+015687Y+015187
X+015312Y+015375
X+014937Y+015562
X+014562Y+015750
X+014187Y+015937
X+013812Y+016125
X+013437Y+016312
X+013062Y+016500
X+012812Y+015438
X+012812Y+014438
X+013562Y+012875
X+014062Y+012750
X+012750Y+012563
X+010000Y+016063
X+009437Y+017126
X+009437Y+018251
X+009187Y+018814
X+008500Y+020876
X+008687Y+022564
X+011250Y+022564
X+013000Y+022564
X+014375Y+021439
X+014500Y+019937
X+014187Y+019687
X+013875Y+019937
X+013562Y+019687
X+012750Y+019189
X+014812Y+019687
X+015125Y+019937
X+015437Y+019687
X+015750Y+019937
X+016062Y+019687
X+016562Y+019687
X+016938Y+019689
X+017313Y+019689
X+018313Y+019939
X+019251Y+019751
X+019626Y+019689
X+020001Y+019564
X+020376Y+019564
X+020751Y+019439
X+021063Y+019189
X+020751Y+018939
X+021063Y+018689
X+020751Y+018439
X+021063Y+018189
X+020750Y+017687
X+020438Y+017938
X+020437Y+017437
X+019813Y+018126
X+018563Y+018251
X+017188Y+016188
X+018001Y+015688
X+018563Y+015376
X+017188Y+015001
X+020250Y+015062
X+023001Y+013501
X+023001Y+012813
X+024564Y+012188
X+024751Y+011188
X+026251Y+012188
X+026665Y+013056
X+027564Y+013501
X+026689Y+014188
X+026705Y+015555
X+026689Y+016501
X+027001Y+017376
X+027627Y+016626
X+028252Y+015001
X+029127Y+015126
X+029752Y+014438
X+029789Y+013478
X+029375Y+013187
X+029375Y+012562
X+028627Y+012563
X+028752Y+013501
X+030314Y+012625
X+030939Y+012625
X+031502Y+012625
X+031449Y+013030
X+031250Y+013312
X+031564Y+014501
X+032750Y+013687
X+033252Y+013563
X+033565Y+013250
X+033877Y+012938
X+034190Y+012625
X+033565Y+012313
X+034565Y+011438
X+035065Y+010500
X+035502Y+010500
X+035502Y+009375
X+034940Y+008813
X+035125Y+007437
X+036000Y+007437
X+036812Y+007437
X+037687Y+007437
X+038187Y+007437
X+038628Y+007250
X+039128Y+008750
X+038253Y+009875
X+037065Y+009875
X+035815Y+012063
X+035190Y+013063
X+034625Y+013937
X+035000Y+014187
X+035315Y+014501
X+035000Y+014750
X+034625Y+014500
X+034625Y+015062
X+035000Y+015312
X+034625Y+015625
X+035000Y+015875
X+034625Y+016187
X+035000Y+016437
X+035690Y+017813
X+033687Y+017375
X+033279Y+017743
X+031940Y+017813
X+031314Y+016938
X+030383Y+017055
X+029939Y+016751
X+029810Y+016021
X+028812Y+018687
X+028377Y+018626
X+027437Y+019187
X+026126Y+017813
X+025314Y+018501
X+024439Y+018689
X+023251Y+019376
X+021876Y+021814
X+024876Y+022126
X+028189Y+021439
X+029814Y+019751
X+030627Y+019439
X+031564Y+019439
X+031564Y+020439
X+030627Y+020439
X+032627Y+020376
X+033190Y+019564
X+034377Y+019814
X+036252Y+019876
X+037565Y+022126
X+038878Y+022439
X+040753Y+020501
X+040003Y+019689
X+038565Y+017688
X+040315Y+016438
X+041941Y+014313
X+041315Y+012188
X+042941Y+012188
X+042941Y+010250
X+042941Y+008750
X+041315Y+010313
X+039128Y+011938
X+037128Y+013188
X+033690Y+010500
X+033250Y+010000
X+033250Y+009375
X+033190Y+007937
X+031062Y+009375
X+031062Y+010000
X+030377Y+010625
X+030189Y+011000
X+030752Y+011000
X+031350Y+011000
X+031627Y+011250
X+032565Y+011000
X+029627Y+010188
X+028812Y+011062
X+028187Y+010500
X+028502Y+008813
X+029627Y+008562
X+029187Y+007312
X+028312Y+007312
X+027189Y+007250
X+026625Y+007687
X+025750Y+007687
X+025189Y+008562
X+024251Y+007250
X+026187Y+009937
X+030375Y+007062
X+034002Y+022126
X+042566Y+018626
X+042941Y+017001
X+011125Y+020626
X+006624Y+020626
X+006874Y+018751
X+004562Y+018376
T02
X+008312Y+010937
X+007312Y+010937
T03
X+042687Y+017812
X+034616Y+017812
X+033125Y+021000
X+032125Y+021000
X+031125Y+021000
X+030125Y+021000
X+029125Y+021000
T00
M30
