G04 DipTrace 2.4.0.2*
%INTop.gbr*%
%MOIN*%
%ADD13C,0.0157*%
%ADD14C,0.0118*%
%ADD16C,0.0059*%
%ADD17C,0.025*%
%ADD19R,0.0748X0.0748*%
%ADD20C,0.0748*%
%ADD21R,0.0354X0.0276*%
%ADD22R,0.063X0.063*%
%ADD23C,0.063*%
%ADD24R,0.0276X0.0354*%
%ADD25R,0.063X0.0709*%
%ADD26R,0.0709X0.2559*%
%ADD27R,0.0669X0.0669*%
%ADD28C,0.0669*%
%ADD30R,0.0118X0.063*%
%ADD31R,0.063X0.0118*%
%ADD32R,0.1181X0.0118*%
%ADD35R,0.0374X0.0846*%
%ADD36R,0.128X0.0846*%
%ADD37R,0.0709X0.0157*%
%ADD38R,0.0157X0.0709*%
%ADD39C,0.0276*%
%FSLAX44Y44*%
G04*
G70*
G90*
G75*
G01*
%LNTop*%
%LPD*%
X7843Y16375D2*
D13*
Y11407D1*
X8312Y10937D1*
X16721Y11765D2*
D14*
Y11371D1*
D13*
Y10596D1*
X16687Y10562D1*
X14556Y11765D2*
D14*
Y11371D1*
D13*
Y10568D1*
X14562Y10562D1*
X33221Y11765D2*
D14*
Y11184D1*
D13*
Y10028D1*
X33250Y10000D1*
X31056Y11765D2*
D14*
Y11184D1*
D13*
Y10006D1*
X31062Y10000D1*
X19434Y15190D2*
D14*
X20103D1*
D13*
X20121D1*
X20250Y15062D1*
X19434Y12435D2*
D14*
X20103D1*
D13*
X20372D1*
X20437Y12500D1*
X21000D1*
X11875Y15190D2*
D14*
X11002D1*
X10562Y14750D1*
Y12750D1*
D13*
X8750Y10937D1*
X8312D1*
X31000Y15572D2*
D14*
X30606D1*
D13*
X30375D1*
Y17031D1*
X30718Y17375D1*
X30937D1*
X33687D1*
X31000Y15178D2*
D14*
X30606D1*
D13*
X30375D1*
Y15572D1*
X30383Y17055D2*
X30375Y17031D1*
X30312Y16374D2*
X30375D1*
Y15572D1*
X20580Y12505D2*
X20994D1*
X21000Y12500D1*
X21251Y13501D2*
Y13659D1*
X21280Y13688D1*
X21813D1*
Y13944D1*
X21280D1*
X21876Y21814D2*
Y13944D1*
X21280D1*
X35815Y12063D2*
Y11594D1*
X35924Y11485D1*
X36180D1*
X8074Y19500D2*
X8750D1*
Y17313D1*
Y16876D1*
X8812D1*
Y16311D1*
X9186Y15937D1*
X8748Y16375D1*
X8750Y17313D2*
X6499D1*
Y16251D1*
X16721Y8812D2*
D14*
Y9206D1*
D13*
Y9903D1*
X16687Y9937D1*
X14556Y8812D2*
D14*
Y9206D1*
D13*
Y9931D1*
X14562Y9937D1*
X33221Y8812D2*
D14*
Y9346D1*
D13*
X33250Y9375D1*
X31056Y8812D2*
D14*
X31062Y9375D1*
X38187Y7437D2*
D13*
Y5400D1*
X38186Y5399D1*
X9186Y15937D2*
Y12251D1*
X9312Y12125D1*
X24876Y22126D2*
Y14188D1*
X24376Y13688D1*
X23564D1*
X35502Y9375D2*
X35750D1*
X35924Y9201D1*
X24501Y13688D2*
X24376D1*
X9437Y18251D2*
Y17126D1*
X26186Y5399D2*
D16*
Y7249D1*
X26625Y7687D1*
X16918Y11765D2*
Y12230D1*
X17250Y12563D1*
X17875D1*
X18001Y12688D1*
Y15687D1*
Y16750D1*
X19418D1*
X19434Y16765D1*
X18001Y15688D2*
Y15687D1*
Y16750D2*
Y18189D1*
X18313Y18501D1*
X19876D1*
X20188Y18189D1*
X21063D1*
X21186Y5399D2*
Y6938D1*
X20625Y7500D1*
X17062D1*
X16937Y7625D1*
Y8793D1*
X16918Y8812D1*
X14162Y11765D2*
Y12275D1*
X14062Y12375D1*
Y12750D1*
X11875Y16175D2*
X12762D1*
X12875Y16062D1*
X13750D1*
X13812Y16125D1*
X13937D1*
X17313Y19500D1*
Y19689D1*
X11186Y5399D2*
Y7186D1*
X11312Y7312D1*
X13812D1*
X14187Y7687D1*
Y8787D1*
X14162Y8812D1*
X13768Y11765D2*
Y12481D1*
X13562Y12687D1*
Y12875D1*
X11875Y16372D2*
X12752D1*
X12875Y16250D1*
X13375D1*
X13437Y16312D1*
Y16375D1*
X16405Y19343D1*
X16655D1*
X16938Y19625D1*
Y19689D1*
X10186Y5399D2*
Y7061D1*
X10562Y7437D1*
X13625D1*
X13750Y7562D1*
Y8793D1*
X13768Y8812D1*
X13571Y11765D2*
Y12250D1*
X13063D1*
X12750Y12563D1*
X11875Y16568D2*
X12993D1*
X13062Y16500D1*
Y16625D1*
X13500D1*
X16562Y19687D1*
X27437Y19187D2*
X28312D1*
X28812Y18687D1*
X11250Y7749D2*
X11375D1*
X11562Y7562D1*
X13500D1*
X13562Y7625D1*
Y8803D1*
X13571Y8812D1*
X16524Y11765D2*
Y12149D1*
X16631Y12256D1*
X16756D1*
X17250Y12750D1*
X17625D1*
X17750Y12875D1*
X18500Y12812D2*
X19417D1*
X19434Y12828D1*
X17750Y12875D2*
Y18187D1*
X18189Y18626D1*
X20001D1*
X20188Y18439D1*
X20751D1*
X18438Y9563D2*
X22812D1*
X23439D1*
X11875Y16765D2*
X13453D1*
X16062Y19375D1*
Y19687D1*
X18188Y9250D2*
X23126D1*
Y9188D1*
X11875Y16962D2*
X13462D1*
X15812Y19312D1*
Y19875D1*
X15750Y19937D1*
X11875Y17159D2*
X13471D1*
X15437Y19124D1*
Y19687D1*
X20186Y5399D2*
Y7188D1*
X20000Y7375D1*
X16687D1*
X16500Y7562D1*
Y8787D1*
X16524Y8812D1*
X11875Y17356D2*
X13481D1*
X15125Y19000D1*
Y19937D1*
X19434Y17356D2*
X20293D1*
X20374Y17437D1*
X20437D1*
X11875Y14206D2*
X11206D1*
X11000Y14000D1*
Y12000D1*
X11312Y11687D1*
X12250D1*
X12437Y11500D1*
X19625Y11062D2*
X21000D1*
X21750Y11812D1*
X23437D1*
X23500Y11750D1*
X11875Y14403D2*
X11153D1*
X10875Y14125D1*
Y11813D1*
X11501Y11187D1*
X12750D1*
X19312Y10750D2*
X20875D1*
X21625Y11500D1*
X23875D1*
X11875Y15781D2*
X11218D1*
X11125Y15875D1*
Y17875D1*
X11250Y18000D1*
X13562D1*
X14187Y18625D1*
Y19687D1*
X11875Y15584D2*
X11227D1*
X11000Y15812D1*
Y17937D1*
X11187Y18125D1*
X13500D1*
X13875Y18500D1*
Y19937D1*
X11875Y14994D2*
X11181D1*
X10750Y14562D1*
Y11625D1*
X11500Y10875D1*
X13062D1*
X19000Y10437D2*
X20750D1*
X21562Y11250D1*
X23500D1*
X16327Y11765D2*
Y12140D1*
X16625Y12437D1*
Y12750D1*
X11875Y12828D2*
X12766D1*
X14500Y14562D1*
X16812D1*
Y14625D1*
Y17500D1*
X18064Y18751D1*
X20126D1*
X20188Y18689D1*
X21063D1*
X11875Y17553D2*
X13490D1*
X14812Y18875D1*
Y19687D1*
X11875Y17750D2*
X13500D1*
X14500Y18750D1*
Y19937D1*
X19434Y17750D2*
X20124D1*
X20313Y17938D1*
X20438D1*
X19186Y5399D2*
Y7125D1*
X19062Y7250D1*
X16500D1*
X16312Y7437D1*
Y8797D1*
X16327Y8812D1*
X19434Y17553D2*
X20178D1*
X20312Y17687D1*
X20750D1*
X15934Y11765D2*
Y12121D1*
X16312Y12500D1*
X11875Y13025D2*
X12775D1*
X14500Y14750D1*
X16437D1*
Y14812D1*
Y17312D1*
X18001Y18876D1*
X20688D1*
X20751Y18939D1*
X18186Y5399D2*
Y7063D1*
X18125Y7125D1*
X16062D1*
X15937Y7250D1*
Y8809D1*
X15934Y8812D1*
X15737Y11765D2*
Y12112D1*
X15875Y12250D1*
Y12875D1*
X11875Y13222D2*
X12784D1*
X14500Y14937D1*
X16062D1*
Y15000D1*
Y17125D1*
X17939Y19001D1*
X20438D1*
X20626Y19189D1*
X21063D1*
X17186Y5399D2*
Y6875D1*
X17062Y7000D1*
X15937D1*
X15750Y7187D1*
Y8799D1*
X15737Y8812D1*
X15540Y11765D2*
Y12352D1*
X15625Y12437D1*
X11875Y13419D2*
X12794D1*
X14437Y15062D1*
X15687D1*
Y15187D1*
Y16937D1*
X17876Y19126D1*
X20313D1*
X20626Y19439D1*
X20751D1*
X16186Y5399D2*
Y5756D1*
X16067Y5875D1*
X16187D1*
Y6562D1*
X15540Y7209D1*
Y8812D1*
X15343Y11765D2*
Y12718D1*
X15312Y12750D1*
X11875Y13616D2*
X12803D1*
X14375Y15187D1*
X15312D1*
Y15375D1*
Y16750D1*
X17814Y19251D1*
X20063D1*
X20376Y19564D1*
X15186Y5399D2*
Y5999D1*
X15343Y6155D1*
Y8812D1*
X14949Y11765D2*
Y12387D1*
X15000Y12437D1*
X11875Y13812D2*
X12813D1*
X14327Y15327D1*
X14702D1*
X14937Y15562D1*
Y16562D1*
X17751Y19376D1*
X19813D1*
X20001Y19564D1*
X14186Y5399D2*
Y6936D1*
X14937Y7687D1*
Y8800D1*
X14949Y8812D1*
X14752Y11765D2*
Y12684D1*
X14687Y12750D1*
X11875Y14009D2*
X12822D1*
X14562Y15750D1*
Y16375D1*
X17689Y19501D1*
X19501D1*
X19626Y19626D1*
Y19689D1*
X13186Y5399D2*
Y6874D1*
X13375Y7062D1*
X14062D1*
X14750Y7749D1*
Y8809D1*
X14752Y8812D1*
X14359Y11765D2*
Y12421D1*
X14375Y12437D1*
X11875Y15978D2*
X12771D1*
X12875Y15875D1*
X14125D1*
X14187Y15937D1*
Y16187D1*
X17626Y19626D1*
X19251D1*
Y19751D1*
X12186Y5399D2*
Y6874D1*
X12500Y7187D1*
X13937D1*
X14375Y7624D1*
Y8796D1*
X14359Y8812D1*
X19434Y13616D2*
X20053D1*
X20438Y14001D1*
Y14126D1*
X20751Y14438D1*
X21263D1*
X21280Y14456D1*
X23564Y14200D2*
X24114D1*
X24189Y14126D1*
X23564Y14200D2*
X23013D1*
X22814Y14001D1*
Y13878D1*
X22560Y13625D1*
X19434Y14009D2*
X20135D1*
X20313Y14188D1*
Y14313D1*
X20688Y14688D1*
X21257D1*
X21280Y14712D1*
X23564Y14456D2*
X23921D1*
X24001Y14376D1*
X24501D1*
X23564Y14456D2*
X23017D1*
X22560Y14000D1*
X19434Y14403D2*
X20153D1*
X20688Y14938D1*
X21251D1*
X21280Y14968D1*
X23564Y14712D2*
X24103D1*
X24189Y14626D1*
X23564Y14712D2*
X22898D1*
X22560Y14375D1*
X19434Y14797D2*
X20359D1*
X20751Y15188D1*
X21245D1*
X21280Y15223D1*
X23564Y14968D2*
X23972D1*
X24064Y14876D1*
X24501D1*
X23564Y14968D2*
X22778D1*
X22560Y14750D1*
X19434Y15387D2*
X20575D1*
X20688Y15501D1*
X21259D1*
X21280Y15479D1*
X23564Y15223D2*
X24091D1*
X24189Y15126D1*
X23564Y15223D2*
X22659D1*
X22560Y15125D1*
X19434Y15781D2*
X20596D1*
X20626Y15751D1*
X21265D1*
X21280Y15735D1*
X23564Y15479D2*
X23960D1*
X24064Y15376D1*
X24501D1*
X23564Y15479D2*
X22581D1*
X22560Y15500D1*
X19434Y16175D2*
X20514D1*
X20688Y16001D1*
X21271D1*
X21280Y15991D1*
X23564Y15735D2*
X24079D1*
X24189Y15626D1*
X23564Y15735D2*
X22700D1*
X22560Y15875D1*
X19434Y16568D2*
X20371D1*
X20688Y16251D1*
X21276D1*
X21280Y16247D1*
X23564Y15991D2*
X24179D1*
X24189Y16001D1*
X23564Y15991D2*
X22819D1*
X22560Y16250D1*
X22186Y5399D2*
Y6561D1*
X23312Y7687D1*
X28187Y10500D2*
X28250D1*
X28812Y11062D1*
X19434Y13419D2*
X20169D1*
X20312Y13562D1*
X20375D1*
X20955Y12880D2*
X23001D1*
Y12813D1*
Y13501D2*
Y13876D1*
X23064Y13938D1*
X23558D1*
X23564Y13944D1*
X11875Y15387D2*
X11237D1*
X10875Y15750D1*
Y18000D1*
X11125Y18250D1*
X13437D1*
X13562Y18375D1*
Y19687D1*
X17902Y11765D2*
D14*
Y10250D1*
Y8812D1*
X7562Y19500D2*
D13*
X6998D1*
X6029Y18531D1*
Y13501D1*
Y11038D1*
X6817Y10250D1*
X8875D1*
X9186D1*
Y5399D1*
X17902Y10250D2*
X17312D1*
X17063D1*
X16130D1*
X15146D1*
X13993D1*
X13375D1*
X9186D1*
X16130Y11765D2*
D14*
Y10250D1*
X15146Y11765D2*
Y10250D1*
Y8812D2*
Y10250D1*
X13965Y11765D2*
Y8812D1*
X13375Y11765D2*
Y10250D1*
Y8812D2*
Y10250D1*
X6937Y16375D2*
D13*
Y11038D1*
X6029D1*
X6937Y16375D2*
Y11312D1*
X7312Y10937D1*
X34402Y11765D2*
D14*
Y11184D1*
D13*
Y10875D1*
Y9687D1*
Y9018D1*
D14*
Y8812D1*
X24186Y5399D2*
D13*
Y7250D1*
Y9390D1*
Y10364D1*
Y11436D1*
Y13186D1*
X24001D1*
X22188D1*
X20751D1*
X20688D1*
X20580D1*
X20753D1*
X20717Y13222D1*
D14*
X19434D1*
X34402Y9687D2*
D13*
X33812D1*
X32630D1*
X31646D1*
X30465D1*
X29875D1*
Y9390D1*
X24186D1*
X30465Y11765D2*
D14*
Y10625D1*
D13*
Y9687D1*
X29875Y11765D2*
D14*
Y9687D1*
Y8812D2*
Y9390D1*
X30465Y8812D2*
Y9687D1*
X31646Y8812D2*
Y9687D1*
X32630Y8812D2*
Y9687D1*
X33812Y8812D2*
Y9687D1*
X19434Y17159D2*
X21409D1*
X21212Y16962D1*
X19434D1*
X17115Y8812D2*
D16*
X17312D1*
X17508D2*
X17312D1*
X17705D2*
X17508D1*
X33615D2*
X33812D1*
X33418D2*
X33615D1*
X34008D2*
X33812D1*
X34205D2*
X34402D1*
X32827D2*
X32630D1*
X33024D2*
X32827D1*
X31646Y11765D2*
D14*
Y11250D1*
Y9687D1*
X6998Y19500D2*
D13*
X10185Y22687D1*
X13000D1*
X21501D1*
X22313D1*
X25187D1*
Y21000D1*
Y18501D1*
Y17812D1*
Y15557D1*
Y13688D1*
Y13186D1*
X24186D1*
X38657Y14981D2*
D14*
X38263D1*
D13*
X36590D1*
D14*
X36196D1*
X38657Y16162D2*
X38263D1*
D13*
X36590D1*
D14*
X36196D1*
X33812Y11765D2*
Y10500D1*
Y9687D1*
X36196Y16162D2*
X35625D1*
Y14981D1*
X36196D1*
X16130Y8812D2*
Y10250D1*
X17312Y8812D2*
Y10250D1*
X32630Y11765D2*
Y11000D1*
Y9687D1*
X17312Y11765D2*
Y10250D1*
X19434Y13222D2*
X20187D1*
Y13025D1*
X19434D1*
X22188Y13186D2*
D13*
Y16251D1*
Y16501D1*
X22313Y16626D1*
Y17126D1*
X23189D1*
X23564Y16751D1*
Y16503D1*
X24913Y10364D2*
X24186D1*
X24924Y11436D2*
X24186D1*
X21409Y17159D2*
X21501D1*
Y22687D1*
X29125Y21000D2*
X25187D1*
X34616Y17812D2*
X33279D1*
X31940D1*
X29796D1*
Y17313D1*
X28587D1*
Y17812D1*
X26126D1*
X25187D1*
Y15557D2*
X26703D1*
X26705Y15555D1*
X24186Y13186D2*
X26535D1*
X26665Y13056D1*
X29796Y17313D2*
Y16014D1*
Y14438D1*
Y13478D1*
Y12983D1*
X29375Y12562D1*
X29810Y16021D2*
X29796Y16014D1*
X29789Y13478D2*
X29796D1*
X29800Y16374D2*
X29796Y16014D1*
X20580Y13017D2*
Y13186D1*
X38657Y16162D2*
D14*
X39051D1*
D13*
X39251D1*
X39544Y16455D1*
Y16955D1*
X38731Y17768D1*
X38565D1*
X35690D1*
X34660D1*
X34616Y17812D1*
X13965Y11765D2*
D14*
Y10813D1*
D13*
Y10278D1*
X13993Y10250D1*
X21501Y17159D2*
Y16724D1*
X21280Y16503D1*
Y14200D2*
X20825D1*
X20688Y14063D1*
Y13186D1*
X23564Y16247D2*
Y16503D1*
X34402Y10875D2*
X36436D1*
X38483D1*
X38753D1*
Y11471D1*
X38739Y11485D1*
X36436D2*
Y10875D1*
X38483Y9201D2*
Y10875D1*
X38753D2*
Y9215D1*
X38739Y9201D1*
X17312Y11765D2*
D14*
Y12158D1*
D13*
X17313D1*
Y12250D1*
X20251Y12938D2*
D14*
Y13025D1*
X20187D1*
X22188Y16251D2*
D13*
D3*
X19434Y13222D2*
D14*
X18592D1*
D13*
X18501Y13313D1*
Y15313D1*
X18563Y15376D1*
X18626Y12500D2*
X18188D1*
Y15001D1*
X18563Y15376D1*
X26126Y17813D2*
Y17812D1*
X31940Y17813D2*
Y17812D1*
X33690Y10500D2*
X33812D1*
Y11765D2*
D14*
Y12158D1*
D13*
Y12254D1*
X33752Y12313D1*
X33565D1*
X29752Y14438D2*
X29796D1*
X24001Y13188D2*
Y13186D1*
X31250Y13312D2*
X31313D1*
X31940Y13938D1*
X17063Y10313D2*
Y10250D1*
X13000Y22564D2*
Y22687D1*
X25314Y18501D2*
X25187D1*
X5937Y13501D2*
X6029D1*
X24251Y7250D2*
X24186D1*
X8875Y10125D2*
Y10250D1*
X30377Y10625D2*
X30465D1*
X35690Y17813D2*
Y17768D1*
X38565Y17688D2*
Y17768D1*
X19434Y16962D2*
D14*
X18626D1*
Y17159D1*
X19434D1*
X20751Y13375D2*
D13*
Y13186D1*
X33279Y17743D2*
Y17812D1*
X25013Y13688D2*
X25187D1*
X22313Y17126D2*
Y22687D1*
X19434Y13025D2*
D14*
X18788D1*
X18592Y13222D1*
X32630Y11765D2*
Y12129D1*
X32815Y12313D1*
D13*
X33565D1*
X34815D1*
Y12688D1*
X35190Y13063D1*
X32565Y11000D2*
D14*
X32630D1*
X31627Y11250D2*
X31646D1*
X23186Y5399D2*
D16*
Y7124D1*
X23750Y7687D1*
X18876Y9938D2*
X22686D1*
X23751D1*
X26187Y9937D2*
X26449D1*
X27439Y10927D1*
X27427Y10938D1*
X25186Y5399D2*
Y7124D1*
X25750Y7687D1*
X38657Y16556D2*
X36196D1*
X35119D1*
X35000Y16437D1*
X35502Y10500D2*
X35690D1*
X36190Y10000D1*
Y9211D1*
X36180Y9201D1*
X31000Y15769D2*
X32918D1*
X33937Y14750D1*
X35000D1*
X32434Y11765D2*
Y12246D1*
X32813Y12625D1*
X33502D1*
X34375D1*
X35375Y13625D1*
X36175D1*
X36196Y13603D1*
X38657D1*
X34190Y12625D2*
X33502D1*
X32237Y11765D2*
Y12237D1*
X32938Y12938D1*
X33815D1*
X34500D1*
X35375Y13812D1*
X36185D1*
X36196Y13800D1*
X38657D1*
X33877Y12938D2*
X33815D1*
X32040Y11765D2*
Y12227D1*
X33063Y13250D1*
X34065D1*
X34625D1*
X35372Y13997D1*
X36196D1*
X38657D1*
X33565Y13250D2*
X34065D1*
X31843Y11765D2*
Y12218D1*
X33188Y13563D1*
X34440D1*
X34751D1*
X35381Y14194D1*
X36196D1*
X38657D1*
X33252Y13563D2*
X34440D1*
X31252Y11765D2*
Y12684D1*
X30562Y13375D1*
Y13812D1*
X30988D1*
X31000Y13800D1*
X31252Y11765D2*
Y11097D1*
X31350Y11000D1*
X30662Y11765D2*
Y12900D1*
X30312Y13250D1*
Y14000D1*
X30500Y14187D1*
X30993D1*
X31000Y14194D1*
X30662Y11765D2*
Y11090D1*
X30752Y11000D1*
X30071Y11765D2*
X30062D1*
Y14125D1*
X30500Y14562D1*
X30974D1*
X31000Y14588D1*
X30071Y11765D2*
Y11118D1*
X30189Y11000D1*
X30268Y11765D2*
Y12625D1*
Y13106D1*
X30187Y13187D1*
Y14062D1*
X30500Y14375D1*
X30983D1*
X31000Y14391D1*
X30314Y12625D2*
X30268D1*
X30859Y11765D2*
Y12625D1*
Y12890D1*
X30437Y13312D1*
Y13937D1*
X30500Y14000D1*
X30997D1*
X31000Y13997D1*
X30939Y12625D2*
X30859D1*
X31449Y11765D2*
Y12625D1*
Y12675D1*
X31000Y13125D1*
Y13603D1*
X31502Y12625D2*
X31449D1*
X33186Y5399D2*
Y7191D1*
X32434Y7943D1*
Y8812D1*
X38657Y16359D2*
X36196D1*
X35484D1*
X35000Y15875D1*
X31000Y16556D2*
X32880D1*
X33250Y16187D1*
X34625D1*
X31000Y16359D2*
X32890D1*
X33625Y15625D1*
X34625D1*
X31000Y16162D2*
X32899D1*
X33687Y15375D1*
X35000D1*
Y15312D1*
X31000Y15966D2*
X32909D1*
X33812Y15062D1*
X34625D1*
X31000Y15375D2*
X32937D1*
X33875Y14437D1*
X34562D1*
X34625Y14500D1*
X32186Y5399D2*
X32250D1*
Y8799D1*
X32237Y8812D1*
X31000Y14784D2*
X32902D1*
X33812Y13875D1*
X34562D1*
X34625Y13937D1*
X31000Y14981D2*
X32893D1*
X33687Y14187D1*
X35000D1*
X31186Y5399D2*
Y7061D1*
X32062Y7937D1*
Y8790D1*
X32040Y8812D1*
X30186Y5399D2*
Y6749D1*
X30250Y6812D1*
X30625D1*
X31812Y7999D1*
Y8781D1*
X31843Y8812D1*
X29186Y5399D2*
Y6811D1*
X29437Y7062D1*
X30000D1*
X31250Y8312D1*
Y8562D1*
X31270Y8583D1*
Y8794D1*
X31252Y8812D1*
X28186Y5399D2*
Y6749D1*
X29125Y7687D1*
X29937D1*
X30687Y8437D1*
Y8812D1*
X30662D1*
X27186Y5399D2*
Y6686D1*
X28687Y8187D1*
X29875D1*
X30062Y8375D1*
Y8803D1*
X30071Y8812D1*
X28312Y7312D2*
X29000Y8000D1*
X29937D1*
X30250Y8312D1*
Y8812D1*
X30268D1*
X29187Y7312D2*
X29750D1*
X30870Y8433D1*
Y8801D1*
X30859Y8812D1*
X31449D2*
X31437D1*
Y8125D1*
X30375Y7062D1*
X38657Y14391D2*
X36196D1*
X38657D2*
X39050D1*
X39128Y14313D1*
Y13501D1*
X39003Y13375D1*
X37878D1*
X36690Y12188D1*
Y11486D1*
X36692Y11485D1*
X34186Y5399D2*
Y6934D1*
X34940Y7687D1*
X35377D1*
X36427Y8737D1*
Y9210D1*
X36436Y9201D1*
X38657Y14784D2*
X36196D1*
X38657D2*
X39031D1*
X39378Y14438D1*
Y13375D1*
X39128Y13125D1*
X38253D1*
X37204Y12077D1*
Y11485D1*
X35186Y5399D2*
Y6996D1*
X36940Y8750D1*
Y9193D1*
X36948Y9201D1*
X38657Y15375D2*
X36196D1*
X38657D2*
X39066D1*
X39628Y14813D1*
Y13250D1*
X39253Y12875D1*
X38565D1*
X37716Y12026D1*
Y11485D1*
X36186Y5399D2*
Y7183D1*
X37455Y8453D1*
Y9197D1*
X37460Y9201D1*
X38657Y15769D2*
X36196D1*
X38657D2*
X39047D1*
X39878Y14938D1*
Y13125D1*
X39378Y12625D1*
X38815D1*
X38253Y12063D1*
Y11510D1*
X38227Y11485D1*
X37186Y5399D2*
Y7308D1*
X37971Y8094D1*
Y9201D1*
X38657Y15966D2*
X36196D1*
X38657D2*
X39038D1*
X40003Y15001D1*
Y13063D1*
X39440Y12500D1*
X38940D1*
X38503Y12063D1*
Y11504D1*
X38483Y11485D1*
X37687Y7437D2*
Y7497D1*
X38227Y8037D1*
Y9201D1*
X38657Y15572D2*
X36196D1*
X38657D2*
X39057D1*
X39753Y14876D1*
Y13188D1*
X39315Y12750D1*
X38690D1*
X37965Y12025D1*
Y11491D1*
X37971Y11485D1*
X36812Y7437D2*
X36940D1*
X37716Y8213D1*
Y9201D1*
X38657Y15178D2*
X36196D1*
X38657D2*
X39075D1*
X39503Y14751D1*
Y13313D1*
X39190Y13000D1*
X38440D1*
X37440Y12000D1*
Y11504D1*
X37460Y11485D1*
X36000Y7437D2*
X37211Y8649D1*
Y9208D1*
X37204Y9201D1*
X38657Y14588D2*
X36196D1*
X38657D2*
X39041D1*
X39253Y14376D1*
Y13438D1*
X39065Y13250D1*
X38065D1*
X36940Y12125D1*
Y11492D1*
X36948Y11485D1*
X35125Y7437D2*
X35377D1*
X36690Y8750D1*
Y9199D1*
X36692Y9201D1*
X25425Y10364D2*
X25751D1*
X26325Y10938D1*
X25435Y11436D2*
X25827D1*
X26325Y10938D1*
Y11200D1*
X28312Y13187D1*
X29375D1*
X31449Y13030D2*
X32092D1*
X32750Y13687D1*
X20812Y12125D2*
X21500D1*
X21937Y12562D1*
X23812D1*
X23875Y12500D1*
X20437Y11812D2*
X21375D1*
X21812Y12250D1*
X23500D1*
X20062Y11500D2*
X21250D1*
X21750Y12000D1*
X23875D1*
D39*
X11250Y7749D3*
X38187Y7437D3*
X6499Y16251D3*
X14562Y10562D3*
X16687D3*
X14562Y9937D3*
X16687D3*
X31062Y9375D3*
Y10000D3*
X33250D3*
Y9375D3*
X28312Y7312D3*
X29187D3*
X30375Y7062D3*
X22560Y16250D3*
Y15875D3*
Y15500D3*
Y15125D3*
Y14750D3*
Y14375D3*
Y14000D3*
Y13625D3*
X24876Y22126D3*
X21876Y21814D3*
X21000Y12500D3*
X20250Y15062D3*
X18313Y19939D3*
X8750Y7312D3*
X21251Y13501D3*
X28812Y11062D3*
X17750Y12875D3*
X18500Y12812D3*
X13437Y16312D3*
X13812Y16125D3*
X14187Y15937D3*
X14562Y15750D3*
X14937Y15562D3*
X15312Y15375D3*
X15687Y15187D3*
X16062Y15000D3*
X16437Y14812D3*
X16812Y14625D3*
X9750Y12375D3*
X13062Y16500D3*
X18001Y15688D3*
X12750Y12563D3*
X13562Y12875D3*
X14062Y12750D3*
X14375Y12437D3*
X14687Y12750D3*
X15000Y12437D3*
X15312Y12750D3*
X15625Y12437D3*
X15875Y12875D3*
X16312Y12500D3*
X16625Y12750D3*
X12812Y14438D3*
X35502Y9375D3*
X35125Y7437D3*
X36000D3*
X36812D3*
X37687D3*
X24189Y16001D3*
Y15626D3*
X24501Y15376D3*
X24189Y15126D3*
X33252Y13563D3*
X24501Y14876D3*
X24189Y14626D3*
X24501Y14376D3*
X24189Y14126D3*
X9437Y18251D3*
Y17126D3*
X16938Y19689D3*
X17313D3*
X19251Y19751D3*
X19626Y19689D3*
X20001Y19564D3*
X20376D3*
X20751Y19439D3*
X21063Y19189D3*
X20751Y18939D3*
X21063Y18689D3*
X16562Y19687D3*
X20751Y18439D3*
X21063Y18189D3*
X20812Y12125D3*
X20437Y11812D3*
X20062Y11500D3*
X19625Y11062D3*
X19312Y10750D3*
X19000Y10437D3*
X12437Y11500D3*
X12750Y11187D3*
X13062Y10875D3*
X23875Y12500D3*
X23500Y12250D3*
X23875Y12000D3*
X23500Y11750D3*
X23875Y11500D3*
X23500Y11250D3*
X18876Y9938D3*
X18438Y9563D3*
X18188Y9250D3*
X15125Y19937D3*
X15437Y19687D3*
X15750Y19937D3*
X16062Y19687D3*
X14812D3*
X14500Y19937D3*
X23751Y9938D3*
X23439Y9563D3*
X23126Y9188D3*
X13875Y19937D3*
X14187Y19687D3*
X13562D3*
X9312Y12125D3*
X33565Y13250D3*
X35815Y12063D3*
X33877Y12938D3*
X34190Y12625D3*
X23001Y13501D3*
X28187Y10500D3*
X20375Y13562D3*
X20955Y12880D3*
X23312Y7687D3*
X23750D3*
X25750D3*
X26625D3*
X23001Y12813D3*
X27437Y19187D3*
X28812Y18687D3*
X26187Y9937D3*
X34625Y13937D3*
X35000Y14187D3*
X34625Y14500D3*
X35000Y14750D3*
X34625Y15062D3*
X35000Y15312D3*
X34625Y15625D3*
X35000Y15875D3*
X34625Y16187D3*
X35000Y16437D3*
X35502Y10500D3*
X12812Y15438D3*
X17313Y12250D3*
X18626Y12500D3*
X20251Y12938D3*
X20750Y17687D3*
X20437Y17437D3*
X20438Y17938D3*
X32750Y13687D3*
X10000Y13563D3*
Y16063D3*
X12750Y19189D3*
X14375Y21439D3*
X29375Y13187D3*
X31449Y13030D3*
X33687Y17375D3*
X30383Y17055D3*
X33279Y17743D3*
X26705Y15555D3*
X26665Y13056D3*
X29375Y12562D3*
X31250Y13312D3*
X29810Y16021D3*
X29789Y13478D3*
X30314Y12625D3*
X30939D3*
X31502D3*
X30189Y11000D3*
X30752D3*
X31350D3*
X8562Y15001D3*
X8625Y11875D3*
X7249Y15626D3*
Y12438D3*
X17063Y12938D3*
X17188Y16188D3*
Y15001D3*
X18563Y15376D3*
X22188Y16251D3*
X19813Y18126D3*
X23251Y19376D3*
X26126Y17813D3*
X28189Y21439D3*
X30627Y20439D3*
X31564D3*
X32627Y20376D3*
X33190Y19564D3*
X31940Y17813D3*
X38878Y22439D3*
X42566Y18626D3*
X33190Y7937D3*
X38628Y7250D3*
X33690Y10500D3*
X35065D3*
X35190Y13063D3*
X33565Y12313D3*
X29752Y14438D3*
X31314Y16938D3*
X24001Y13188D3*
X34940Y8813D3*
X10687Y7750D3*
X28377Y18626D3*
X35315Y14501D3*
X28252Y15001D3*
X31564Y14501D3*
X28627Y12563D3*
X26251Y12188D3*
X24751Y11188D3*
X17063Y10313D3*
X18376Y10438D3*
X12938Y9500D3*
X13188Y8250D3*
X9750Y7312D3*
X8312Y8750D3*
X23939Y8375D3*
X25189Y8562D3*
X23376Y10750D3*
X4562Y18376D3*
X8687Y22564D3*
X37128Y13188D3*
X13000Y22564D3*
X9187Y18814D3*
X11125Y20626D3*
X8500Y20876D3*
X24439Y18689D3*
X25314Y18501D3*
X26689Y14188D3*
X27189Y7250D3*
X29627Y10188D3*
Y8562D3*
X18688Y8062D3*
X19688Y7875D3*
Y8813D3*
X20688Y7812D3*
Y8813D3*
X24564Y12188D3*
X34565Y11438D3*
X4562Y8813D3*
Y10188D3*
Y12250D3*
Y15313D3*
X5937Y13501D3*
X5874Y16813D3*
X11250Y22564D3*
X11687Y12125D3*
X10875Y10875D3*
X11000Y9438D3*
X24251Y7250D3*
X22564Y7312D3*
X8875Y10125D3*
X30377Y10625D3*
X39128Y8750D3*
X42941D3*
Y10250D3*
X41315Y10313D3*
Y12188D3*
X42941D3*
Y17001D3*
X39128Y11938D3*
X40753Y20501D3*
X40315Y16438D3*
X41941Y14313D3*
X35690Y17813D3*
X34002Y22126D3*
X37565D3*
X34377Y19814D3*
X36252Y19876D3*
X38565Y17688D3*
X40003Y19689D3*
X6624Y20626D3*
X37065Y9875D3*
X38253D3*
X26689Y16501D3*
X27001Y17376D3*
X30627Y19439D3*
X31564D3*
X21626Y10375D3*
X28502Y8813D3*
X20751Y13375D3*
X17751Y9625D3*
X32565Y11000D3*
X29814Y19751D3*
X18563Y18251D3*
X21688Y7312D3*
X23064Y8688D3*
X21626Y8938D3*
X29939Y16751D3*
X27627Y16626D3*
X27564Y13501D3*
X6874Y18751D3*
X28752Y13501D3*
X29127Y15126D3*
X31627Y11250D3*
X8327Y22440D2*
D17*
X24601D1*
X25155D2*
X39050D1*
X8077Y22192D2*
X21710D1*
X22042D2*
X24453D1*
X25299D2*
X39300D1*
X7831Y21943D2*
X21468D1*
X22284D2*
X24492D1*
X25260D2*
X39546D1*
X7581Y21694D2*
X21468D1*
X22284D2*
X24507D1*
X25245D2*
X39796D1*
X7335Y21446D2*
X21507D1*
X22245D2*
X24507D1*
X25245D2*
X29699D1*
X30549D2*
X30699D1*
X31549D2*
X31699D1*
X32549D2*
X32699D1*
X33549D2*
X40042D1*
X7085Y21197D2*
X21507D1*
X22245D2*
X24507D1*
X25245D2*
X29535D1*
X33717D2*
X40292D1*
X6835Y20948D2*
X21507D1*
X22245D2*
X24507D1*
X25245D2*
X29503D1*
X33749D2*
X40542D1*
X6589Y20699D2*
X21507D1*
X22245D2*
X24507D1*
X25245D2*
X29582D1*
X33667D2*
X40789D1*
X6339Y20451D2*
X21507D1*
X22245D2*
X24507D1*
X25245D2*
X29859D1*
X30389D2*
X30859D1*
X31389D2*
X31859D1*
X32389D2*
X32859D1*
X33389D2*
X41039D1*
X6089Y20202D2*
X13546D1*
X16077D2*
X21507D1*
X22245D2*
X24507D1*
X25245D2*
X41289D1*
X5842Y19953D2*
X13234D1*
X17639D2*
X18878D1*
X20503D2*
X21507D1*
X22245D2*
X24507D1*
X25245D2*
X41535D1*
X5592Y19705D2*
X7605D1*
X9049D2*
X13136D1*
X21077D2*
X21507D1*
X22245D2*
X24507D1*
X25245D2*
X41785D1*
X5342Y19456D2*
X7605D1*
X9120D2*
X13207D1*
X22245D2*
X24507D1*
X25245D2*
X27113D1*
X28456D2*
X42035D1*
X5096Y19207D2*
X6914D1*
X9120D2*
X13242D1*
X22245D2*
X24507D1*
X25245D2*
X27011D1*
X28733D2*
X42281D1*
X4846Y18959D2*
X6914D1*
X9120D2*
X13242D1*
X22245D2*
X24507D1*
X25245D2*
X27082D1*
X29135D2*
X42531D1*
X4596Y18710D2*
X6914D1*
X9120D2*
X13242D1*
X22245D2*
X24507D1*
X25245D2*
X28347D1*
X29241D2*
X42781D1*
X4350Y18461D2*
X6914D1*
X9807D2*
X10894D1*
X22245D2*
X24507D1*
X25245D2*
X28453D1*
X29171D2*
X43027D1*
X4337Y18213D2*
X6914D1*
X9862D2*
X10648D1*
X22245D2*
X24507D1*
X25245D2*
X42023D1*
X4337Y17964D2*
X8382D1*
X9807D2*
X10554D1*
X18319D2*
X18554D1*
X22245D2*
X24507D1*
X25245D2*
X42023D1*
X4337Y17715D2*
X8382D1*
X9807D2*
X10554D1*
X18319D2*
X18554D1*
X21174D2*
X21507D1*
X22245D2*
X24507D1*
X25245D2*
X30648D1*
X33924D2*
X42023D1*
X4337Y17467D2*
X6167D1*
X9807D2*
X10554D1*
X17221D2*
X17429D1*
X18319D2*
X18554D1*
X21112D2*
X21507D1*
X22245D2*
X24507D1*
X25245D2*
X30300D1*
X34104D2*
X42023D1*
X4337Y17218D2*
X6132D1*
X9854D2*
X10554D1*
X17132D2*
X17429D1*
X18319D2*
X18554D1*
X20799D2*
X21507D1*
X22245D2*
X24507D1*
X25245D2*
X29992D1*
X34085D2*
X42023D1*
X4337Y16969D2*
X6132D1*
X6870D2*
X7367D1*
X9835D2*
X10554D1*
X17132D2*
X17429D1*
X20315D2*
X21507D1*
X22245D2*
X24507D1*
X25245D2*
X29964D1*
X30823D2*
X43042D1*
X4337Y16720D2*
X6132D1*
X6870D2*
X7367D1*
X9225D2*
X10554D1*
X17132D2*
X17429D1*
X20659D2*
X21507D1*
X22245D2*
X24507D1*
X25245D2*
X29843D1*
X33159D2*
X34687D1*
X39260D2*
X43042D1*
X4337Y16472D2*
X6132D1*
X6870D2*
X7367D1*
X9225D2*
X10554D1*
X17132D2*
X17429D1*
X22921D2*
X24507D1*
X25245D2*
X29843D1*
X39260D2*
X43042D1*
X4337Y16223D2*
X6074D1*
X6924D2*
X7367D1*
X9409D2*
X10554D1*
X17132D2*
X17429D1*
X18319D2*
X18554D1*
X25245D2*
X29843D1*
X39260D2*
X43042D1*
X4337Y15974D2*
X6183D1*
X6819D2*
X7367D1*
X9553D2*
X10554D1*
X17132D2*
X17429D1*
X18319D2*
X18554D1*
X25245D2*
X29843D1*
X39471D2*
X43042D1*
X4337Y15726D2*
X7367D1*
X9553D2*
X10558D1*
X17132D2*
X17429D1*
X18424D2*
X18554D1*
X25245D2*
X30007D1*
X35397D2*
X35593D1*
X39717D2*
X43042D1*
X4337Y15477D2*
X7472D1*
X8210D2*
X8816D1*
X9553D2*
X10707D1*
X12757D2*
X13847D1*
X17132D2*
X17429D1*
X18370D2*
X18554D1*
X25245D2*
X30007D1*
X35393D2*
X35593D1*
X39967D2*
X43042D1*
X4337Y15228D2*
X7472D1*
X8210D2*
X8816D1*
X9553D2*
X10558D1*
X12757D2*
X13601D1*
X17132D2*
X17429D1*
X18319D2*
X18554D1*
X25245D2*
X30007D1*
X35417D2*
X35593D1*
X40217D2*
X43042D1*
X4337Y14980D2*
X7472D1*
X8210D2*
X8816D1*
X9553D2*
X10308D1*
X12757D2*
X13351D1*
X17132D2*
X17429D1*
X18319D2*
X18554D1*
X25245D2*
X30070D1*
X35354D2*
X35593D1*
X40323D2*
X43042D1*
X4337Y14731D2*
X7472D1*
X8210D2*
X8816D1*
X9553D2*
X10214D1*
X12757D2*
X13101D1*
X17225D2*
X17429D1*
X18319D2*
X18554D1*
X25245D2*
X30226D1*
X35428D2*
X35593D1*
X40323D2*
X43042D1*
X4337Y14482D2*
X7472D1*
X8210D2*
X8816D1*
X9553D2*
X10214D1*
X17214D2*
X17429D1*
X18319D2*
X18554D1*
X25245D2*
X29980D1*
X31604D2*
X32761D1*
X40323D2*
X43042D1*
X4337Y14234D2*
X7472D1*
X8210D2*
X8816D1*
X9553D2*
X10214D1*
X14612D2*
X16691D1*
X16931D2*
X17429D1*
X18319D2*
X18554D1*
X25245D2*
X29765D1*
X31604D2*
X33011D1*
X40323D2*
X43042D1*
X4337Y13985D2*
X7472D1*
X8210D2*
X8816D1*
X9553D2*
X10214D1*
X14362D2*
X17429D1*
X18319D2*
X18554D1*
X25178D2*
X29742D1*
X31604D2*
X32453D1*
X33046D2*
X33261D1*
X40323D2*
X43042D1*
X4337Y13736D2*
X7472D1*
X8210D2*
X8816D1*
X9553D2*
X10214D1*
X14116D2*
X17429D1*
X18319D2*
X18554D1*
X24967D2*
X29742D1*
X31604D2*
X32324D1*
X40323D2*
X43042D1*
X4337Y13488D2*
X7472D1*
X8210D2*
X8816D1*
X9553D2*
X10214D1*
X13866D2*
X17429D1*
X18319D2*
X18554D1*
X24967D2*
X29082D1*
X31604D2*
X32109D1*
X40323D2*
X43042D1*
X4337Y13239D2*
X7472D1*
X8210D2*
X8816D1*
X9553D2*
X10214D1*
X13757D2*
X15679D1*
X16069D2*
X17429D1*
X18319D2*
X18554D1*
X23331D2*
X27921D1*
X35428D2*
X37300D1*
X40323D2*
X43042D1*
X4337Y12990D2*
X7472D1*
X8210D2*
X8816D1*
X9553D2*
X10214D1*
X20315D2*
X20542D1*
X23389D2*
X27675D1*
X35182D2*
X37050D1*
X40311D2*
X43042D1*
X4337Y12741D2*
X7472D1*
X8210D2*
X8816D1*
X9553D2*
X10042D1*
X24221D2*
X27425D1*
X28307D2*
X29742D1*
X34932D2*
X36804D1*
X40124D2*
X43042D1*
X4337Y12493D2*
X7472D1*
X8210D2*
X8816D1*
X9553D2*
X9796D1*
X24303D2*
X27175D1*
X28057D2*
X29742D1*
X34682D2*
X36554D1*
X39874D2*
X43042D1*
X4337Y12244D2*
X7472D1*
X8210D2*
X8816D1*
X18053D2*
X18554D1*
X24217D2*
X26929D1*
X27811D2*
X29722D1*
X34553D2*
X35429D1*
X36198D2*
X36374D1*
X39608D2*
X43042D1*
X5885Y11995D2*
X7472D1*
X8210D2*
X8906D1*
X11444D2*
X12890D1*
X18053D2*
X20054D1*
X24303D2*
X26679D1*
X27561D2*
X29722D1*
X34553D2*
X35394D1*
X38878D2*
X41480D1*
X5901Y11747D2*
X7472D1*
X8210D2*
X9050D1*
X10069D2*
X10429D1*
X12780D2*
X13222D1*
X18053D2*
X19718D1*
X24217D2*
X24968D1*
X25901D2*
X26429D1*
X27311D2*
X29722D1*
X34553D2*
X35445D1*
X38850D2*
X41480D1*
X5901Y11498D2*
X7472D1*
X9823D2*
X10460D1*
X13030D2*
X13222D1*
X18053D2*
X19636D1*
X24303D2*
X24968D1*
X28034D2*
X29722D1*
X34553D2*
X35460D1*
X38850D2*
X41480D1*
X5901Y11249D2*
X7511D1*
X9573D2*
X10683D1*
X18053D2*
X19242D1*
X24214D2*
X24968D1*
X28034D2*
X28429D1*
X29194D2*
X29722D1*
X34553D2*
X35554D1*
X38850D2*
X41480D1*
X5901Y11001D2*
X7707D1*
X9323D2*
X10933D1*
X13471D2*
X14187D1*
X14924D2*
X16351D1*
X17089D2*
X18972D1*
X23842D2*
X25718D1*
X28034D2*
X28308D1*
X29233D2*
X29761D1*
X31776D2*
X32851D1*
X33589D2*
X35554D1*
X38850D2*
X41480D1*
X5901Y10752D2*
X7707D1*
X9077D2*
X11179D1*
X13471D2*
X14183D1*
X14940D2*
X16308D1*
X17089D2*
X18722D1*
X21507D2*
X24957D1*
X29092D2*
X29847D1*
X31690D2*
X32851D1*
X33589D2*
X35164D1*
X35866D2*
X41480D1*
X5901Y10503D2*
X7707D1*
X8917D2*
X12882D1*
X13245D2*
X14140D1*
X14987D2*
X16265D1*
X17112D2*
X18578D1*
X21257D2*
X24957D1*
X28694D2*
X30687D1*
X31424D2*
X32851D1*
X33589D2*
X35074D1*
X36128D2*
X41480D1*
X4337Y10255D2*
X14277D1*
X14846D2*
X16402D1*
X16971D2*
X18601D1*
X21007D2*
X23476D1*
X24026D2*
X24957D1*
X27206D2*
X27843D1*
X28530D2*
X30687D1*
X31424D2*
X32851D1*
X33589D2*
X35160D1*
X36378D2*
X43042D1*
X4337Y10006D2*
X14140D1*
X14983D2*
X16265D1*
X17108D2*
X18453D1*
X24174D2*
X24957D1*
X26960D2*
X30636D1*
X31491D2*
X32824D1*
X33678D2*
X35742D1*
X36510D2*
X43042D1*
X4337Y9757D2*
X14175D1*
X14948D2*
X16300D1*
X17089D2*
X18062D1*
X24135D2*
X25800D1*
X26710D2*
X30714D1*
X31409D2*
X32902D1*
X33596D2*
X35351D1*
X38596D2*
X43042D1*
X4337Y9509D2*
X14187D1*
X14924D2*
X16351D1*
X17089D2*
X17855D1*
X23862D2*
X30656D1*
X31467D2*
X32843D1*
X33655D2*
X35097D1*
X38596D2*
X43042D1*
X4337Y9260D2*
X13222D1*
X17268D2*
X17761D1*
X23729D2*
X29722D1*
X33659D2*
X35093D1*
X38596D2*
X43042D1*
X4337Y9011D2*
X13222D1*
X17268D2*
X17839D1*
X23514D2*
X29722D1*
X33569D2*
X35304D1*
X38596D2*
X43042D1*
X4337Y8762D2*
X13222D1*
X17268D2*
X29722D1*
X33569D2*
X35554D1*
X38596D2*
X43042D1*
X8714Y8514D2*
X13222D1*
X17268D2*
X29722D1*
X33569D2*
X35761D1*
X8714Y8265D2*
X13222D1*
X17268D2*
X28324D1*
X33569D2*
X35515D1*
X8714Y8016D2*
X10921D1*
X11577D2*
X13242D1*
X17257D2*
X23054D1*
X24007D2*
X25492D1*
X26007D2*
X26367D1*
X26882D2*
X28074D1*
X32803D2*
X35265D1*
X8714Y7768D2*
X10824D1*
X20772D2*
X22894D1*
X24171D2*
X25332D1*
X27046D2*
X27828D1*
X33049D2*
X34578D1*
X38440D2*
X38664D1*
X8714Y7519D2*
X10203D1*
X21046D2*
X22703D1*
X24139D2*
X25140D1*
X27014D2*
X27578D1*
X33299D2*
X34332D1*
X8714Y7270D2*
X9953D1*
X21296D2*
X22453D1*
X23776D2*
X24906D1*
X26651D2*
X27328D1*
X33495D2*
X34082D1*
X42173Y18451D2*
X43068D1*
X41953Y19562D1*
X38827Y22688D1*
X8554Y22689D1*
X4312Y18450D1*
Y12063D1*
X5749D1*
X5855Y12002D1*
X5874Y11938D1*
Y10500D1*
X5813Y10395D1*
X5749Y10375D1*
X4312D1*
Y8625D1*
X8562D1*
X8667Y8564D1*
X8687Y8500D1*
Y7250D1*
X9957Y7247D1*
X10354Y7645D1*
X10462Y7713D1*
X10562Y7731D1*
X10847Y7734D1*
X10862Y7858D1*
X10913Y7971D1*
X10997Y8063D1*
X11105Y8125D1*
X11227Y8152D1*
X11351Y8139D1*
X11465Y8090D1*
X11559Y8008D1*
X11597Y7944D1*
X11687Y7856D1*
X13269D1*
X13268Y8230D1*
X13247Y8232D1*
Y9392D1*
X13895Y9388D1*
X14092Y9392D1*
X14211D1*
X14212Y9741D1*
X14183Y9800D1*
X14160Y9922D1*
X14174Y10045D1*
X14226Y10159D1*
X14307Y10248D1*
X14243Y10316D1*
X14183Y10425D1*
X14160Y10547D1*
X14174Y10670D1*
X14211Y10752D1*
X14212Y11182D1*
X14035Y11185D1*
X13838D1*
X13444D1*
X13321D1*
X13371Y11133D1*
X13435Y11026D1*
X13465Y10875D1*
X13446Y10751D1*
X13390Y10640D1*
X13303Y10551D1*
X13192Y10493D1*
X13070Y10472D1*
X12946Y10489D1*
X12834Y10543D1*
X12792Y10583D1*
X11500Y10580D1*
X11375Y10608D1*
X11291Y10666D1*
X10541Y11416D1*
X10473Y11524D1*
X10455Y11625D1*
X10451Y12153D1*
X8942Y10652D1*
X8892Y10517D1*
Y10357D1*
X7732D1*
Y11033D1*
X7600Y11164D1*
X7529Y11266D1*
X7499Y11407D1*
Y15684D1*
X7391Y15687D1*
Y16972D1*
X6839Y16970D1*
X6843Y16563D1*
Y16458D1*
X6872Y16402D1*
X6902Y16251D1*
X6883Y16128D1*
X6827Y16017D1*
X6740Y15928D1*
X6630Y15870D1*
X6507Y15848D1*
X6384Y15865D1*
X6271Y15919D1*
X6181Y16004D1*
X6121Y16113D1*
X6097Y16236D1*
X6111Y16359D1*
X6155Y16455D1*
X6156Y17313D1*
X6178Y17436D1*
X6243Y17542D1*
X6341Y17618D1*
X6463Y17655D1*
X7499Y17657D1*
X8409D1*
X8406Y17974D1*
X7872Y17970D1*
X6938D1*
Y19347D1*
X7632D1*
Y19903D1*
X8516D1*
Y19844D1*
X8750D1*
X8872Y19821D1*
X8978Y19757D1*
X9054Y19658D1*
X9091Y19536D1*
X9093Y18457D1*
X9185Y18565D1*
X9293Y18627D1*
X9414Y18653D1*
X9538Y18641D1*
X9653Y18591D1*
X9746Y18509D1*
X9810Y18403D1*
X9840Y18251D1*
X9821Y18128D1*
X9780Y18048D1*
X9781Y17333D1*
X9810Y17277D1*
X9840Y17126D1*
X9821Y17003D1*
X9765Y16892D1*
X9678Y16803D1*
X9567Y16745D1*
X9445Y16723D1*
X9321Y16740D1*
X9201Y16802D1*
X9200Y16411D1*
X9429Y16180D1*
X9499Y16078D1*
X9529Y15953D1*
X9530Y12464D1*
X9621Y12383D1*
X9655Y12326D1*
X10238Y12912D1*
Y14750D1*
X10262Y14872D1*
X10333Y14979D1*
X10776Y15422D1*
X10666Y15541D1*
X10598Y15649D1*
X10580Y15750D1*
Y18000D1*
X10609Y18124D1*
X10666Y18208D1*
X10916Y18458D1*
X11024Y18526D1*
X11125Y18544D1*
X13269D1*
X13268Y19410D1*
X13183Y19550D1*
X13160Y19672D1*
X13174Y19795D1*
X13226Y19909D1*
X13310Y20001D1*
X13418Y20063D1*
X13497Y20080D1*
X13538Y20159D1*
X13622Y20251D1*
X13730Y20313D1*
X13852Y20339D1*
X13976Y20327D1*
X14090Y20277D1*
X14186Y20192D1*
X14247Y20251D1*
X14355Y20313D1*
X14477Y20339D1*
X14601Y20327D1*
X14715Y20277D1*
X14811Y20192D1*
X14872Y20251D1*
X14980Y20313D1*
X15102Y20339D1*
X15226Y20327D1*
X15340Y20277D1*
X15436Y20192D1*
X15497Y20251D1*
X15605Y20313D1*
X15727Y20339D1*
X15851Y20327D1*
X15965Y20277D1*
X16059Y20195D1*
X16124Y20085D1*
X16163Y20077D1*
X16277Y20027D1*
X16310Y19999D1*
X16418Y20063D1*
X16539Y20089D1*
X16663Y20077D1*
X16745Y20041D1*
X16793Y20065D1*
X16915Y20091D1*
X17039Y20078D1*
X17121Y20043D1*
X17169Y20065D1*
X17290Y20091D1*
X17414Y20078D1*
X17528Y20029D1*
X17622Y19947D1*
X17636Y19924D1*
X18888Y19921D1*
X18915Y19973D1*
X18998Y20065D1*
X19106Y20127D1*
X19228Y20153D1*
X19352Y20141D1*
X19466Y20091D1*
X19492Y20068D1*
X19603Y20091D1*
X19727Y20078D1*
X19841Y20029D1*
X19920Y19960D1*
X19978Y19966D1*
X20102Y19953D1*
X20184Y19918D1*
X20231Y19940D1*
X20353Y19966D1*
X20477Y19953D1*
X20591Y19904D1*
X20670Y19835D1*
X20728Y19841D1*
X20852Y19828D1*
X20966Y19779D1*
X21060Y19697D1*
X21125Y19586D1*
X21165Y19578D1*
X21279Y19529D1*
X21372Y19447D1*
X21436Y19340D1*
X21466Y19189D1*
X21447Y19066D1*
X21377Y18940D1*
X21436Y18840D1*
X21466Y18689D1*
X21447Y18566D1*
X21377Y18440D1*
X21436Y18340D1*
X21466Y18189D1*
X21447Y18066D1*
X21391Y17954D1*
X21304Y17865D1*
X21194Y17807D1*
X21136Y17797D1*
X21152Y17687D1*
X21133Y17564D1*
X21077Y17453D1*
X20990Y17364D1*
X20880Y17306D1*
X20815Y17294D1*
X20765Y17203D1*
X20677Y17114D1*
X20567Y17056D1*
X20445Y17034D1*
X20321Y17051D1*
X20297Y17063D1*
X20289Y17032D1*
Y16867D1*
X20371Y16863D1*
X20495Y16834D1*
X20579Y16777D1*
X20764Y16592D1*
X21532Y16591D1*
Y21604D1*
X21497Y21677D1*
X21474Y21799D1*
X21488Y21922D1*
X21540Y22036D1*
X21624Y22128D1*
X21731Y22190D1*
X21853Y22216D1*
X21977Y22204D1*
X22091Y22154D1*
X22185Y22072D1*
X22249Y21965D1*
X22279Y21814D1*
X22259Y21691D1*
X22219Y21611D1*
X22224Y16471D1*
X22308Y16563D1*
X22416Y16625D1*
X22538Y16652D1*
X22662Y16639D1*
X22776Y16590D1*
X22869Y16508D1*
X22934Y16401D1*
X22949Y16337D1*
X23964Y16335D1*
X24044Y16377D1*
X24166Y16403D1*
X24290Y16391D1*
X24404Y16341D1*
X24498Y16259D1*
X24532Y16202D1*
X24533Y21919D1*
X24498Y21989D1*
X24474Y22111D1*
X24488Y22235D1*
X24540Y22348D1*
X24624Y22440D1*
X24732Y22502D1*
X24854Y22528D1*
X24977Y22516D1*
X25092Y22467D1*
X25185Y22385D1*
X25249Y22278D1*
X25279Y22126D1*
X25260Y22003D1*
X25220Y21923D1*
Y14188D1*
X25197Y14066D1*
X25119Y13945D1*
X24945Y13771D1*
X24943Y13285D1*
X24059D1*
X24058Y13344D1*
X23374D1*
X23329Y13266D1*
X23241Y13177D1*
X23204Y13157D1*
X23310Y13071D1*
X23374Y12964D1*
X23400Y12855D1*
X23691Y12856D1*
X23730Y12875D1*
X23852Y12902D1*
X23976Y12889D1*
X24090Y12840D1*
X24184Y12758D1*
X24248Y12651D1*
X24277Y12500D1*
X24258Y12376D1*
X24188Y12251D1*
X24248Y12151D1*
X24277Y12000D1*
X24258Y11876D1*
X24188Y11751D1*
X24248Y11651D1*
X24277Y11500D1*
X24258Y11376D1*
X24202Y11265D1*
X24115Y11176D1*
X24005Y11118D1*
X23871Y11098D1*
X23827Y11015D1*
X23740Y10926D1*
X23630Y10868D1*
X23507Y10847D1*
X23384Y10864D1*
X23271Y10918D1*
X23229Y10958D1*
X21683Y10955D1*
X20960Y10231D1*
X23479Y10232D1*
X23607Y10314D1*
X23728Y10340D1*
X23852Y10327D1*
X23967Y10278D1*
X24060Y10196D1*
X24124Y10089D1*
X24154Y9938D1*
X24135Y9815D1*
X24079Y9703D1*
X23992Y9615D1*
X23881Y9557D1*
X23839Y9549D1*
X23822Y9440D1*
X23766Y9328D1*
X23679Y9239D1*
X23569Y9182D1*
X23527Y9174D1*
X23510Y9065D1*
X23454Y8953D1*
X23366Y8864D1*
X23256Y8806D1*
X23134Y8785D1*
X23010Y8802D1*
X22898Y8856D1*
X22798Y8958D1*
X21626Y8956D1*
X18466D1*
X18318Y8869D1*
X18196Y8847D1*
X18072Y8864D1*
X17960Y8918D1*
X17870Y9004D1*
X17809Y9113D1*
X17786Y9235D1*
X17800Y9359D1*
X17852Y9472D1*
X17936Y9564D1*
X18040Y9624D1*
X18050Y9671D1*
X18102Y9784D1*
X18186Y9876D1*
X18294Y9939D1*
X18415Y9965D1*
X18473Y9959D1*
X18488Y10046D1*
X18539Y10159D1*
X18640Y10261D1*
X18621Y10300D1*
X18597Y10422D1*
X18612Y10545D1*
X18663Y10659D1*
X18747Y10751D1*
X18855Y10813D1*
X18920Y10827D1*
X18924Y10858D1*
X18976Y10971D1*
X19060Y11063D1*
X19168Y11125D1*
X19232Y11139D1*
X19237Y11170D1*
X19288Y11284D1*
X19372Y11376D1*
X19480Y11438D1*
X19602Y11464D1*
X19660Y11458D1*
X19674Y11608D1*
X19726Y11721D1*
X19810Y11813D1*
X19918Y11875D1*
X20043Y11901D1*
X20101Y12034D1*
X20151Y12088D1*
X19992Y12111D1*
X18578D1*
Y12419D1*
X18507Y12409D1*
X18384Y12426D1*
X18271Y12480D1*
X18235Y12515D1*
X18125Y12396D1*
X18037Y12318D1*
X18029Y12095D1*
Y11185D1*
X17381Y11189D1*
X17184Y11185D1*
X17066D1*
X17065Y10703D1*
X17090Y10562D1*
X17070Y10439D1*
X17015Y10328D1*
X16941Y10253D1*
X16996Y10195D1*
X17060Y10089D1*
X17090Y9937D1*
X17065Y9804D1*
Y9391D1*
X17242Y9392D1*
Y8232D1*
X17230D1*
X17231Y7797D1*
X18562Y7794D1*
X20625D1*
X20749Y7766D1*
X20833Y7708D1*
X21316Y7224D1*
X22433Y7221D1*
X22909Y7700D1*
X22924Y7795D1*
X22976Y7909D1*
X23060Y8001D1*
X23168Y8063D1*
X23289Y8089D1*
X23413Y8077D1*
X23530Y8025D1*
X23605Y8063D1*
X23727Y8089D1*
X23851Y8077D1*
X23965Y8027D1*
X24059Y7945D1*
X24123Y7839D1*
X24152Y7687D1*
X24133Y7564D1*
X24077Y7453D1*
X23990Y7364D1*
X23880Y7306D1*
X23761Y7285D1*
X23812Y7218D1*
X24910Y7216D1*
X24946Y7294D1*
X25243Y7597D1*
X25345Y7699D1*
X25362Y7795D1*
X25413Y7909D1*
X25497Y8001D1*
X25605Y8063D1*
X25727Y8089D1*
X25851Y8077D1*
X25965Y8027D1*
X26059Y7945D1*
X26123Y7839D1*
X26152Y7687D1*
X26142Y7622D1*
X26224Y7703D1*
X26237Y7795D1*
X26288Y7909D1*
X26372Y8001D1*
X26480Y8063D1*
X26602Y8089D1*
X26726Y8077D1*
X26840Y8027D1*
X26934Y7945D1*
X26998Y7839D1*
X27027Y7687D1*
X27008Y7564D1*
X26952Y7453D1*
X26865Y7364D1*
X26755Y7306D1*
X26636Y7285D1*
X26687Y7212D1*
X27293Y7211D1*
X28479Y8395D1*
X28587Y8463D1*
X28687Y8481D1*
X29747Y8482D1*
Y9392D1*
X30395Y9388D1*
X30592Y9392D1*
X30664D1*
X30674Y9483D1*
X30726Y9596D1*
X30807Y9685D1*
X30743Y9753D1*
X30683Y9862D1*
X30660Y9984D1*
X30674Y10108D1*
X30711Y10189D1*
X30712Y10596D1*
X30636Y10615D1*
X30524Y10668D1*
X30476Y10714D1*
X30430Y10677D1*
X30320Y10619D1*
X30197Y10598D1*
X30074Y10615D1*
X29961Y10668D1*
X29871Y10754D1*
X29811Y10863D1*
X29787Y10985D1*
X29792Y11028D1*
X29777Y11118D1*
Y11185D1*
X29747D1*
Y12345D1*
X29767D1*
X29768Y13097D1*
X29702Y12953D1*
X29615Y12864D1*
X29505Y12806D1*
X29382Y12784D1*
X29259Y12801D1*
X29146Y12855D1*
X29104Y12895D1*
X28432Y12890D1*
X27098Y11556D1*
X28007Y11557D1*
Y10858D1*
X28043Y10875D1*
X28164Y10902D1*
X28230Y10895D1*
X28409Y11075D1*
X28424Y11170D1*
X28476Y11284D1*
X28560Y11376D1*
X28668Y11438D1*
X28789Y11464D1*
X28913Y11452D1*
X29027Y11402D1*
X29121Y11320D1*
X29185Y11214D1*
X29215Y11062D1*
X29195Y10939D1*
X29140Y10828D1*
X29052Y10739D1*
X28942Y10681D1*
X28823Y10660D1*
X28581Y10415D1*
X28515Y10265D1*
X28427Y10176D1*
X28317Y10118D1*
X28195Y10097D1*
X28071Y10114D1*
X27959Y10168D1*
X27868Y10253D1*
X27833Y10318D1*
X27245Y10319D1*
X26657Y9729D1*
X26549Y9661D1*
X26427Y9614D1*
X26317Y9556D1*
X26195Y9534D1*
X26071Y9551D1*
X25959Y9605D1*
X25868Y9691D1*
X25808Y9800D1*
X25785Y9922D1*
X25790Y9964D1*
X25117Y9961D1*
X24982D1*
Y10767D1*
X25736D1*
X25745Y10944D1*
Y11034D1*
X24993D1*
Y11839D1*
X25878D1*
X25883Y11725D1*
X25997Y11677D1*
X26120Y11559D1*
X26265Y11557D1*
X28104Y13395D1*
X28212Y13463D1*
X28312Y13481D1*
X29097D1*
X29230Y13563D1*
X29352Y13589D1*
X29476Y13577D1*
X29590Y13527D1*
X29684Y13445D1*
X29748Y13339D1*
X29768Y13251D1*
Y14125D1*
X29796Y14249D1*
X29854Y14333D1*
X30335Y14806D1*
X30375Y14834D1*
X30252Y14857D1*
X30146Y14921D1*
X30070Y15020D1*
X30033Y15142D1*
X30031Y15697D1*
Y15974D1*
X29870Y15972D1*
Y16777D1*
X30030D1*
X30031Y16857D1*
X30005Y16918D1*
X29981Y17040D1*
X29995Y17164D1*
X30047Y17277D1*
X30131Y17369D1*
X30239Y17431D1*
X30303Y17445D1*
X30475Y17618D1*
X30578Y17688D1*
X30718Y17718D1*
X33480D1*
X33543Y17750D1*
X33664Y17777D1*
X33788Y17764D1*
X33902Y17715D1*
X33996Y17633D1*
X34060Y17526D1*
X34090Y17375D1*
X34070Y17251D1*
X34015Y17140D1*
X33927Y17051D1*
X33817Y16993D1*
X33695Y16972D1*
X33571Y16989D1*
X33484Y17031D1*
X30863D1*
X30767Y16932D1*
X30740Y16880D1*
X31579D1*
Y16853D1*
X32880Y16851D1*
X33005Y16822D1*
X33089Y16764D1*
X33375Y16481D1*
X34347D1*
X34480Y16563D1*
X34602Y16589D1*
X34629Y16586D1*
X34663Y16659D1*
X34747Y16751D1*
X34855Y16813D1*
X34977Y16839D1*
X35019Y16835D1*
X35119Y16851D1*
X35615D1*
X35616Y16880D1*
X36776D1*
Y16853D1*
X38075Y16851D1*
X38077Y16880D1*
X39237D1*
X39233Y16232D1*
X39237Y16179D1*
X39777Y15643D1*
X40211Y15209D1*
X40279Y15101D1*
X40297Y15001D1*
Y13063D1*
X40269Y12939D1*
X40211Y12855D1*
X39648Y12292D1*
X39540Y12224D1*
X39440Y12206D1*
X39060Y12204D1*
X38825Y11969D1*
X38827Y10865D1*
X38140Y10869D1*
X38190Y10865D1*
X37628Y10869D1*
X37678Y10865D1*
X37116Y10869D1*
X37167Y10865D1*
X36604Y10869D1*
X36661Y10865D1*
X36348Y10869D1*
X36399Y10865D1*
X35836Y10869D1*
X35893Y10865D1*
X35670D1*
X35718Y10840D1*
X35814Y10766D1*
X35898Y10708D1*
X36398Y10208D1*
X36466Y10100D1*
X36484Y10000D1*
Y9817D1*
X36592Y9820D1*
X36780Y9816D1*
X36729Y9820D1*
X37292Y9816D1*
X37241Y9820D1*
X37803Y9816D1*
X37753Y9820D1*
X38315Y9816D1*
X38259Y9820D1*
X38571D1*
Y8582D1*
X38522Y8576D1*
Y8037D1*
X38493Y7913D1*
X38436Y7829D1*
X38389Y7782D1*
X38496Y7695D1*
X38560Y7589D1*
X38590Y7437D1*
X38570Y7314D1*
X38530Y7234D1*
X38562Y7188D1*
X38691D1*
X38690Y8500D1*
X38751Y8605D1*
X38815Y8625D1*
X43066D1*
Y10375D1*
X41628D1*
X41523Y10436D1*
X41503Y10500D1*
Y11938D1*
X41564Y12043D1*
X41628Y12063D1*
X43066D1*
Y17176D1*
X42048Y17173D1*
Y18451D1*
X42173D1*
X8220Y11517D2*
X8845D1*
X9106Y11779D1*
X8993Y11878D1*
X8933Y11987D1*
X8925Y12029D1*
X8901Y12058D1*
X8851Y12172D1*
X8842Y12376D1*
Y15684D1*
X8296Y15687D1*
X8294Y15938D1*
Y15687D1*
X8189D1*
X8186Y14625D1*
Y11551D1*
X20291Y12947D2*
X20556D1*
X20619Y13102D1*
X20703Y13194D1*
X20811Y13256D1*
X20913Y13278D1*
X20774Y13344D1*
X20714D1*
X20615Y13239D1*
X20505Y13181D1*
X20382Y13159D1*
X20324Y13167D1*
X20289Y13118D1*
X20285Y13095D1*
X20289Y12944D1*
X30624Y20672D2*
X30528Y20556D1*
X30427Y20482D1*
X30313Y20430D1*
X30191Y20404D1*
X30067Y20403D1*
X29944Y20428D1*
X29830Y20478D1*
X29728Y20550D1*
X29644Y20642D1*
X29580Y20749D1*
X29540Y20867D1*
X29525Y20991D1*
X29536Y21115D1*
X29573Y21235D1*
X29634Y21344D1*
X29715Y21438D1*
X29815Y21513D1*
X29928Y21566D1*
X30049Y21594D1*
X30174Y21597D1*
X30297Y21574D1*
X30412Y21526D1*
X30515Y21455D1*
X30600Y21364D1*
X30623Y21328D1*
X30715Y21438D1*
X30815Y21513D1*
X30928Y21566D1*
X31049Y21594D1*
X31174Y21597D1*
X31297Y21574D1*
X31412Y21526D1*
X31515Y21455D1*
X31600Y21364D1*
X31623Y21328D1*
X31715Y21438D1*
X31815Y21513D1*
X31928Y21566D1*
X32049Y21594D1*
X32174Y21597D1*
X32297Y21574D1*
X32412Y21526D1*
X32515Y21455D1*
X32600Y21364D1*
X32623Y21328D1*
X32715Y21438D1*
X32815Y21513D1*
X32928Y21566D1*
X33049Y21594D1*
X33174Y21597D1*
X33297Y21574D1*
X33412Y21526D1*
X33515Y21455D1*
X33600Y21364D1*
X33666Y21258D1*
X33707Y21140D1*
X33724Y21000D1*
X33711Y20876D1*
X33673Y20757D1*
X33611Y20649D1*
X33528Y20556D1*
X33427Y20482D1*
X33313Y20430D1*
X33191Y20404D1*
X33067Y20403D1*
X32944Y20428D1*
X32830Y20478D1*
X32728Y20550D1*
X32626Y20672D1*
X32528Y20556D1*
X32427Y20482D1*
X32313Y20430D1*
X32191Y20404D1*
X32067Y20403D1*
X31944Y20428D1*
X31830Y20478D1*
X31728Y20550D1*
X31626Y20672D1*
X31528Y20556D1*
X31427Y20482D1*
X31313Y20430D1*
X31191Y20404D1*
X31067Y20403D1*
X30944Y20428D1*
X30830Y20478D1*
X30728Y20550D1*
X30626Y20672D1*
X14945Y10439D2*
X14890Y10328D1*
X14816Y10253D1*
X14871Y10195D1*
X14935Y10089D1*
X14965Y9937D1*
X14945Y9814D1*
X14898Y9720D1*
X14899Y9395D1*
X15076Y9392D1*
X15273D1*
X15667D1*
X16061D1*
X16258D1*
X16376D1*
X16377Y9678D1*
X16308Y9800D1*
X16285Y9922D1*
X16299Y10045D1*
X16351Y10159D1*
X16432Y10248D1*
X16368Y10316D1*
X16308Y10425D1*
X16285Y10547D1*
X16299Y10670D1*
X16351Y10784D1*
X16380Y10815D1*
X16377Y11186D1*
X16200Y11189D1*
X16003Y11185D1*
X15610D1*
X15216D1*
X15019D1*
X14901D1*
X14899Y10781D1*
X14935Y10714D1*
X14965Y10562D1*
X14945Y10439D1*
X31310Y9687D2*
X31371Y9633D1*
X31435Y9526D1*
X31464Y9393D1*
X31773Y9388D1*
X32019Y9392D1*
X32167Y9388D1*
X32413Y9392D1*
X32561Y9388D1*
X32758Y9392D1*
Y8232D1*
X32730D1*
Y8063D1*
X33394Y7399D1*
X33462Y7291D1*
X33476Y7239D1*
X33562Y7198D1*
X34035Y7197D1*
X34732Y7896D1*
X34840Y7963D1*
X34940Y7982D1*
X35258Y7984D1*
X35857Y8583D1*
X35836Y8586D1*
X35581Y8582D1*
Y8976D1*
X35510Y8972D1*
X35387Y8989D1*
X35274Y9043D1*
X35184Y9129D1*
X35124Y9238D1*
X35100Y9360D1*
X35115Y9484D1*
X35166Y9597D1*
X35250Y9689D1*
X35358Y9751D1*
X35480Y9777D1*
X35584Y9767D1*
X35581Y9820D1*
X35897D1*
X35893Y9880D1*
X35648Y10126D1*
X35510Y10098D1*
X35387Y10114D1*
X35274Y10168D1*
X35184Y10254D1*
X35124Y10363D1*
X35100Y10485D1*
X35115Y10609D1*
X35166Y10722D1*
X35250Y10814D1*
X35358Y10876D1*
X35480Y10902D1*
X35584Y10892D1*
X35581Y11346D1*
X35511Y11434D1*
X35480Y11515D1*
X35471Y11719D1*
Y11856D1*
X35436Y11926D1*
X35412Y12048D1*
X35427Y12171D1*
X35479Y12285D1*
X35563Y12377D1*
X35670Y12439D1*
X35792Y12465D1*
X35916Y12453D1*
X36030Y12403D1*
X36124Y12321D1*
X36188Y12214D1*
X36214Y12105D1*
X36268Y12100D1*
X36395Y12104D1*
X36396Y12188D1*
X36424Y12312D1*
X36482Y12396D1*
X37396Y13310D1*
X36778Y13309D1*
X36776Y13279D1*
X35616D1*
Y13330D1*
X35494Y13328D1*
X34540Y12381D1*
X34529Y12345D1*
Y11185D1*
X33881Y11189D1*
X33684Y11185D1*
X33565Y11184D1*
Y10250D1*
X33623Y10151D1*
X33652Y10000D1*
X33633Y9876D1*
X33577Y9765D1*
X33504Y9690D1*
X33559Y9633D1*
X33623Y9526D1*
X33652Y9375D1*
X33633Y9251D1*
X33577Y9140D1*
X33547Y9110D1*
X33545Y8517D1*
Y8232D1*
X32897D1*
Y9181D1*
X32871Y9237D1*
X32847Y9359D1*
X32862Y9483D1*
X32913Y9596D1*
X32995Y9685D1*
X32931Y9753D1*
X32871Y9862D1*
X32847Y9984D1*
X32862Y10108D1*
X32877Y10153D1*
X32878Y11187D1*
X32700Y11185D1*
X32503D1*
X32110D1*
X31716D1*
X31751Y11031D1*
X31733Y10877D1*
X31677Y10766D1*
X31590Y10677D1*
X31480Y10619D1*
X31399Y10605D1*
Y10219D1*
X31435Y10151D1*
X31465Y10000D1*
X31445Y9876D1*
X31390Y9765D1*
X31316Y9690D1*
X17389Y13043D2*
X17413Y13096D1*
X17453Y13139D1*
X17455Y15250D1*
Y17730D1*
X17106Y17375D1*
Y14902D1*
X17185Y14776D1*
X17215Y14625D1*
X17195Y14501D1*
X17140Y14390D1*
X17052Y14301D1*
X16942Y14243D1*
X16820Y14222D1*
X16696Y14239D1*
X16637Y14267D1*
X14619Y14265D1*
X13628Y13274D1*
X13777Y13215D1*
X13871Y13133D1*
X13885Y13109D1*
X13918Y13125D1*
X14039Y13152D1*
X14163Y13139D1*
X14277Y13090D1*
X14373Y13004D1*
X14435Y13063D1*
X14543Y13125D1*
X14664Y13152D1*
X14788Y13139D1*
X14902Y13090D1*
X14998Y13004D1*
X15060Y13063D1*
X15168Y13125D1*
X15289Y13152D1*
X15413Y13139D1*
X15530Y13087D1*
X15622Y13188D1*
X15730Y13250D1*
X15852Y13277D1*
X15976Y13264D1*
X16090Y13215D1*
X16184Y13133D1*
X16248Y13026D1*
X16268Y12939D1*
X16372Y13063D1*
X16480Y13125D1*
X16602Y13152D1*
X16726Y13139D1*
X16840Y13090D1*
X16934Y13008D1*
X16992Y12911D1*
X17041Y12958D1*
X17149Y13026D1*
X17250Y13044D1*
X17386D1*
X18298Y13155D2*
X18355Y13188D1*
X18477Y13214D1*
X18581Y13204D1*
X18578Y13720D1*
X18582Y13743D1*
X18578Y13989D1*
X18582Y14136D1*
X18578Y14382D1*
X18582Y14530D1*
X18578Y14776D1*
X18582Y14924D1*
X18578Y15170D1*
X18582Y15318D1*
X18578Y15563D1*
X18582Y15711D1*
X18578Y15957D1*
X18582Y16105D1*
X18578Y16351D1*
Y16458D1*
X18297Y16455D1*
X18295Y15964D1*
X18374Y15840D1*
X18403Y15688D1*
X18384Y15565D1*
X18328Y15454D1*
X18293Y15418D1*
X18295Y13160D1*
X33077Y13921D2*
X33108Y13939D1*
X33229Y13965D1*
X33311Y13957D1*
X32777Y14490D1*
X31578D1*
X31575Y14460D1*
X31579Y14215D1*
X31575Y14067D1*
X31579Y13821D1*
X31575Y13673D1*
X31579Y13427D1*
X31575Y13476D1*
X31665Y13370D1*
X31714Y13326D1*
X31972D1*
X32345Y13699D1*
X32362Y13795D1*
X32413Y13909D1*
X32497Y14001D1*
X32605Y14063D1*
X32727Y14089D1*
X32851Y14077D1*
X32965Y14027D1*
X33059Y13945D1*
X33073Y13922D1*
X12457Y11897D2*
X12538Y11889D1*
X12652Y11840D1*
X12746Y11758D1*
X12810Y11651D1*
X12827Y11579D1*
X12965Y11527D1*
X13059Y11445D1*
X13123Y11339D1*
X13140Y11267D1*
X13245Y11229D1*
X13247Y11954D1*
X13063Y11955D1*
X12939Y11983D1*
X12855Y12041D1*
X12736Y12160D1*
X12730Y12111D1*
X11304D1*
X11437Y11981D1*
X12250D1*
X12374Y11953D1*
X12421Y11926D1*
X27707Y18894D2*
X27677Y18864D1*
X27567Y18806D1*
X27445Y18784D1*
X27321Y18801D1*
X27209Y18855D1*
X27118Y18941D1*
X27058Y19050D1*
X27035Y19172D1*
X27049Y19295D1*
X27101Y19409D1*
X27185Y19501D1*
X27293Y19563D1*
X27414Y19589D1*
X27538Y19577D1*
X27652Y19527D1*
X27702Y19484D1*
X28312Y19481D1*
X28436Y19453D1*
X28520Y19395D1*
X28827Y19089D1*
X28913Y19077D1*
X29027Y19027D1*
X29121Y18945D1*
X29185Y18839D1*
X29215Y18687D1*
X29195Y18564D1*
X29140Y18453D1*
X29052Y18364D1*
X28942Y18306D1*
X28820Y18284D1*
X28696Y18301D1*
X28584Y18355D1*
X28493Y18441D1*
X28433Y18550D1*
X28410Y18676D1*
X28187Y18893D1*
X27714D1*
X35383Y14626D2*
X35327Y14515D1*
X35286Y14474D1*
X35381Y14488D1*
X35620D1*
X35616Y14518D1*
Y14912D1*
Y15108D1*
Y15502D1*
Y15896D1*
Y16067D1*
X35516Y15974D1*
X35402Y15861D1*
X35383Y15751D1*
X35327Y15640D1*
X35286Y15599D1*
X35373Y15464D1*
X35402Y15312D1*
X35383Y15189D1*
X35327Y15078D1*
X35286Y15036D1*
X35373Y14901D1*
X35402Y14750D1*
X35383Y14626D1*
X12730Y15617D2*
X12726Y15457D1*
X12730Y15211D1*
X12726Y15063D1*
X12730Y14818D1*
X12726Y14670D1*
X12730Y14424D1*
Y14331D1*
X13975Y15579D1*
X12875Y15580D1*
X12750Y15608D1*
X12730Y15586D1*
Y15461D1*
X18578Y17047D2*
X18582Y17089D1*
X18578Y17680D1*
Y18073D1*
X19887D1*
X19751Y18207D1*
X18433Y18204D1*
X18295Y18064D1*
Y17044D1*
X18575D1*
X18578Y17877D1*
X18582D1*
D19*
X42687Y17812D3*
D20*
X34616D3*
D21*
X8074Y19500D3*
X7562D3*
D22*
X8312Y10937D3*
D23*
X7312D3*
D24*
X20580Y12505D3*
Y13017D3*
D21*
X24501Y13688D3*
X25013D3*
X30312Y16374D3*
X29800D3*
X24913Y10364D3*
X25425D3*
D25*
X26325Y10938D3*
X27427D3*
D26*
X9186Y5399D3*
X10186D3*
X11186D3*
X12186D3*
X13186D3*
X14186D3*
X15186D3*
X16186D3*
X17186D3*
X18186D3*
X19186D3*
X20186D3*
X21186D3*
X22186D3*
X23186D3*
X24186D3*
X25186D3*
X26186D3*
X27186D3*
X28186D3*
X29186D3*
X30186D3*
X31186D3*
X32186D3*
X33186D3*
X34186D3*
X35186D3*
X36186D3*
X37186D3*
X38186D3*
D27*
X29125Y21000D3*
D28*
X30125D3*
X31125D3*
X32125D3*
X33125D3*
D21*
X24924Y11436D3*
X25435D3*
D32*
X11875Y17750D3*
Y17553D3*
Y17356D3*
Y17159D3*
Y16962D3*
Y16765D3*
Y16568D3*
Y16372D3*
Y16175D3*
Y15978D3*
Y15781D3*
Y15584D3*
Y15387D3*
Y15190D3*
Y14994D3*
Y14797D3*
Y14600D3*
Y14403D3*
Y14206D3*
Y14009D3*
Y13812D3*
Y13616D3*
Y13419D3*
Y13222D3*
Y13025D3*
Y12828D3*
Y12631D3*
Y12435D3*
X19434D3*
Y12631D3*
Y12828D3*
Y13025D3*
Y13222D3*
Y13419D3*
Y13616D3*
Y13812D3*
Y14009D3*
Y14206D3*
Y14403D3*
Y14600D3*
Y14797D3*
Y14994D3*
Y15190D3*
Y15387D3*
Y15584D3*
Y15781D3*
Y15978D3*
Y16175D3*
Y16372D3*
Y16568D3*
Y16765D3*
Y16962D3*
Y17159D3*
Y17356D3*
Y17553D3*
Y17750D3*
D30*
X13375Y8812D3*
X13571D3*
X13768D3*
X13965D3*
X14162D3*
X14359D3*
X14556D3*
X14752D3*
X14949D3*
X15146D3*
X15343D3*
X15540D3*
X15737D3*
X15934D3*
X16130D3*
X16327D3*
X16524D3*
X16721D3*
X16918D3*
X17115D3*
X17312D3*
X17508D3*
X17705D3*
X17902D3*
Y11765D3*
X17705D3*
X17508D3*
X17312D3*
X17115D3*
X16918D3*
X16721D3*
X16524D3*
X16327D3*
X16130D3*
X15934D3*
X15737D3*
X15540D3*
X15343D3*
X15146D3*
X14949D3*
X14752D3*
X14556D3*
X14359D3*
X14162D3*
X13965D3*
X13768D3*
X13571D3*
X13375D3*
D31*
X31000Y16556D3*
Y16359D3*
Y16162D3*
Y15966D3*
Y15769D3*
Y15572D3*
Y15375D3*
Y15178D3*
Y14981D3*
Y14784D3*
Y14588D3*
Y14391D3*
Y14194D3*
Y13997D3*
Y13800D3*
Y13603D3*
X36196D3*
Y13800D3*
Y13997D3*
Y14194D3*
Y14391D3*
Y14588D3*
Y14784D3*
Y14981D3*
Y15178D3*
Y15375D3*
Y15572D3*
Y15769D3*
Y15966D3*
Y16162D3*
Y16359D3*
Y16556D3*
X38657Y13603D3*
Y13800D3*
Y13997D3*
Y14194D3*
Y14391D3*
Y14588D3*
Y14784D3*
Y14981D3*
Y15178D3*
Y15375D3*
Y15572D3*
Y15769D3*
Y15966D3*
Y16162D3*
Y16359D3*
Y16556D3*
D35*
X6937Y16375D3*
X7843D3*
X8748D3*
D36*
X7843Y18658D3*
D30*
X29875Y8812D3*
X30071D3*
X30268D3*
X30465D3*
X30662D3*
X30859D3*
X31056D3*
X31252D3*
X31449D3*
X31646D3*
X31843D3*
X32040D3*
X32237D3*
X32434D3*
X32630D3*
X32827D3*
X33024D3*
X33221D3*
X33418D3*
X33615D3*
X33812D3*
X34008D3*
X34205D3*
X34402D3*
Y11765D3*
X34205D3*
X34008D3*
X33812D3*
X33615D3*
X33418D3*
X33221D3*
X33024D3*
X32827D3*
X32630D3*
X32434D3*
X32237D3*
X32040D3*
X31843D3*
X31646D3*
X31449D3*
X31252D3*
X31056D3*
X30859D3*
X30662D3*
X30465D3*
X30268D3*
X30071D3*
X29875D3*
D37*
X23564Y13688D3*
Y13944D3*
Y14200D3*
Y14456D3*
Y14712D3*
Y14968D3*
Y15223D3*
Y15479D3*
Y15735D3*
Y15991D3*
Y16247D3*
Y16503D3*
X21280D3*
Y16247D3*
Y15991D3*
Y15735D3*
Y15479D3*
Y15223D3*
Y14968D3*
Y14712D3*
Y14456D3*
Y14200D3*
Y13944D3*
Y13688D3*
D38*
X35924Y9201D3*
X36180D3*
X36436D3*
X36692D3*
X36948D3*
X37204D3*
X37460D3*
X37716D3*
X37971D3*
X38227D3*
X38483D3*
X38739D3*
Y11485D3*
X38483D3*
X38227D3*
X37971D3*
X37716D3*
X37460D3*
X37204D3*
X36948D3*
X36692D3*
X36436D3*
X36180D3*
X35924D3*
M02*
