G04 DipTrace 2.4.0.2*
%INTopMask.gbr*%
%MOIN*%
%ADD19R,0.0748X0.0748*%
%ADD20C,0.0748*%
%ADD44R,0.0236X0.0787*%
%ADD46R,0.0787X0.0236*%
%ADD48R,0.1358X0.0925*%
%ADD50R,0.0453X0.0925*%
%ADD54R,0.126X0.0197*%
%ADD56R,0.0709X0.0197*%
%ADD58R,0.0197X0.0709*%
%ADD62R,0.0787X0.2638*%
%ADD64R,0.0709X0.0787*%
%ADD66R,0.0354X0.0433*%
%ADD68C,0.0709*%
%ADD70R,0.0709X0.0709*%
%ADD72R,0.0433X0.0354*%
%ADD74C,0.0827*%
%ADD75R,0.0827X0.0827*%
%FSLAX44Y44*%
G04*
G70*
G90*
G75*
G01*
%LNTopMask*%
%LPD*%
D75*
X42687Y17812D3*
D74*
X34616D3*
D72*
X8074Y19500D3*
X7562D3*
D70*
X8312Y10937D3*
D68*
X7312D3*
D66*
X20580Y12505D3*
Y13017D3*
D72*
X24501Y13688D3*
X25013D3*
X30312Y16374D3*
X29800D3*
X24913Y10364D3*
X25425D3*
D64*
X26325Y10938D3*
X27427D3*
D62*
X9186Y5399D3*
X10186D3*
X11186D3*
X12186D3*
X13186D3*
X14186D3*
X15186D3*
X16186D3*
X17186D3*
X18186D3*
X19186D3*
X20186D3*
X21186D3*
X22186D3*
X23186D3*
X24186D3*
X25186D3*
X26186D3*
X27186D3*
X28186D3*
X29186D3*
X30186D3*
X31186D3*
X32186D3*
X33186D3*
X34186D3*
X35186D3*
X36186D3*
X37186D3*
X38186D3*
D19*
X29125Y21000D3*
D20*
X30125D3*
X31125D3*
X32125D3*
X33125D3*
D72*
X24924Y11436D3*
X25435D3*
D54*
X11875Y17750D3*
Y17553D3*
Y17356D3*
Y17159D3*
Y16962D3*
Y16765D3*
Y16568D3*
Y16372D3*
Y16175D3*
Y15978D3*
Y15781D3*
Y15584D3*
Y15387D3*
Y15190D3*
Y14994D3*
Y14797D3*
Y14600D3*
Y14403D3*
Y14206D3*
Y14009D3*
Y13812D3*
Y13616D3*
Y13419D3*
Y13222D3*
Y13025D3*
Y12828D3*
Y12631D3*
Y12435D3*
X19434D3*
Y12631D3*
Y12828D3*
Y13025D3*
Y13222D3*
Y13419D3*
Y13616D3*
Y13812D3*
Y14009D3*
Y14206D3*
Y14403D3*
Y14600D3*
Y14797D3*
Y14994D3*
Y15190D3*
Y15387D3*
Y15584D3*
Y15781D3*
Y15978D3*
Y16175D3*
Y16372D3*
Y16568D3*
Y16765D3*
Y16962D3*
Y17159D3*
Y17356D3*
Y17553D3*
Y17750D3*
D58*
X13375Y8812D3*
X13571D3*
X13768D3*
X13965D3*
X14162D3*
X14359D3*
X14556D3*
X14752D3*
X14949D3*
X15146D3*
X15343D3*
X15540D3*
X15737D3*
X15934D3*
X16130D3*
X16327D3*
X16524D3*
X16721D3*
X16918D3*
X17115D3*
X17312D3*
X17508D3*
X17705D3*
X17902D3*
Y11765D3*
X17705D3*
X17508D3*
X17312D3*
X17115D3*
X16918D3*
X16721D3*
X16524D3*
X16327D3*
X16130D3*
X15934D3*
X15737D3*
X15540D3*
X15343D3*
X15146D3*
X14949D3*
X14752D3*
X14556D3*
X14359D3*
X14162D3*
X13965D3*
X13768D3*
X13571D3*
X13375D3*
D56*
X31000Y16556D3*
Y16359D3*
Y16162D3*
Y15966D3*
Y15769D3*
Y15572D3*
Y15375D3*
Y15178D3*
Y14981D3*
Y14784D3*
Y14588D3*
Y14391D3*
Y14194D3*
Y13997D3*
Y13800D3*
Y13603D3*
X36196D3*
Y13800D3*
Y13997D3*
Y14194D3*
Y14391D3*
Y14588D3*
Y14784D3*
Y14981D3*
Y15178D3*
Y15375D3*
Y15572D3*
Y15769D3*
Y15966D3*
Y16162D3*
Y16359D3*
Y16556D3*
X38657Y13603D3*
Y13800D3*
Y13997D3*
Y14194D3*
Y14391D3*
Y14588D3*
Y14784D3*
Y14981D3*
Y15178D3*
Y15375D3*
Y15572D3*
Y15769D3*
Y15966D3*
Y16162D3*
Y16359D3*
Y16556D3*
D50*
X6937Y16375D3*
X7843D3*
X8748D3*
D48*
X7843Y18658D3*
D58*
X29875Y8812D3*
X30071D3*
X30268D3*
X30465D3*
X30662D3*
X30859D3*
X31056D3*
X31252D3*
X31449D3*
X31646D3*
X31843D3*
X32040D3*
X32237D3*
X32434D3*
X32630D3*
X32827D3*
X33024D3*
X33221D3*
X33418D3*
X33615D3*
X33812D3*
X34008D3*
X34205D3*
X34402D3*
Y11765D3*
X34205D3*
X34008D3*
X33812D3*
X33615D3*
X33418D3*
X33221D3*
X33024D3*
X32827D3*
X32630D3*
X32434D3*
X32237D3*
X32040D3*
X31843D3*
X31646D3*
X31449D3*
X31252D3*
X31056D3*
X30859D3*
X30662D3*
X30465D3*
X30268D3*
X30071D3*
X29875D3*
D46*
X23564Y13688D3*
Y13944D3*
Y14200D3*
Y14456D3*
Y14712D3*
Y14968D3*
Y15223D3*
Y15479D3*
Y15735D3*
Y15991D3*
Y16247D3*
Y16503D3*
X21280D3*
Y16247D3*
Y15991D3*
Y15735D3*
Y15479D3*
Y15223D3*
Y14968D3*
Y14712D3*
Y14456D3*
Y14200D3*
Y13944D3*
Y13688D3*
D44*
X35924Y9201D3*
X36180D3*
X36436D3*
X36692D3*
X36948D3*
X37204D3*
X37460D3*
X37716D3*
X37971D3*
X38227D3*
X38483D3*
X38739D3*
Y11485D3*
X38483D3*
X38227D3*
X37971D3*
X37716D3*
X37460D3*
X37204D3*
X36948D3*
X36692D3*
X36436D3*
X36180D3*
X35924D3*
M02*
