G04 DipTrace 4.0.0.5*
G04 TopPaste.gbr*
%MOIN*%
G04 #@! TF.FileFunction,Paste,Top*
G04 #@! TF.Part,Single*
%AMOUTLINE2*
4,1,4,
0.019487,-0.002784,
0.002784,-0.019487,
-0.019487,0.002784,
-0.002784,0.019487,
0.019487,-0.002784,
0*%
%AMOUTLINE5*
4,1,4,
0.002784,0.019487,
0.019487,0.002784,
-0.002784,-0.019487,
-0.019487,-0.002784,
0.002784,0.019487,
0*%
%AMOUTLINE8*
4,1,4,
-0.019487,0.002784,
-0.002784,0.019487,
0.019487,-0.002784,
0.002784,-0.019487,
-0.019487,0.002784,
0*%
%AMOUTLINE11*
4,1,28,
-0.010107,0.032283,
0.010107,0.032283,
0.01227,0.031999,
0.014165,0.031214,
0.015792,0.029965,
0.017041,0.028338,
0.017826,0.026443,
0.01811,0.02428,
0.01811,-0.02428,
0.017826,-0.026443,
0.017041,-0.028338,
0.015792,-0.029965,
0.014165,-0.031214,
0.01227,-0.031999,
0.010107,-0.032283,
-0.010107,-0.032283,
-0.01227,-0.031999,
-0.014165,-0.031214,
-0.015792,-0.029965,
-0.017041,-0.028338,
-0.017826,-0.026443,
-0.01811,-0.02428,
-0.01811,0.02428,
-0.017826,0.026443,
-0.017041,0.028338,
-0.015792,0.029965,
-0.014165,0.031214,
-0.01227,0.031999,
-0.010107,0.032283,
0*%
%AMOUTLINE14*
4,1,28,
0.010107,-0.032283,
-0.010107,-0.032283,
-0.01227,-0.031999,
-0.014165,-0.031214,
-0.015792,-0.029965,
-0.017041,-0.028338,
-0.017826,-0.026443,
-0.01811,-0.02428,
-0.01811,0.02428,
-0.017826,0.026443,
-0.017041,0.028338,
-0.015792,0.029965,
-0.014165,0.031214,
-0.01227,0.031999,
-0.010107,0.032283,
0.010107,0.032283,
0.01227,0.031999,
0.014165,0.031214,
0.015792,0.029965,
0.017041,0.028338,
0.017826,0.026443,
0.01811,0.02428,
0.01811,-0.02428,
0.017826,-0.026443,
0.017041,-0.028338,
0.015792,-0.029965,
0.014165,-0.031214,
0.01227,-0.031999,
0.010107,-0.032283,
0*%
%AMOUTLINE17*
4,1,4,
0.018095,0.023663,
0.023663,0.018095,
-0.018095,-0.023663,
-0.023663,-0.018095,
0.018095,0.023663,
0*%
%AMOUTLINE20*
4,1,4,
0.023663,-0.018095,
0.018095,-0.023663,
-0.023663,0.018095,
-0.018095,0.023663,
0.023663,-0.018095,
0*%
%ADD24C,0.029606*%
%ADD46R,0.011811X0.066929*%
%ADD48R,0.007874X0.059055*%
%ADD50R,0.059055X0.007874*%
%ADD56R,0.124016X0.080709*%
%ADD58R,0.033465X0.080709*%
%ADD60R,0.007874X0.015748*%
%ADD62R,0.011811X0.015748*%
%ADD74R,0.031496X0.023622*%
%ADD76R,0.023622X0.031496*%
%ADD78R,0.03937X0.035433*%
%ADD85OUTLINE2*%
%ADD88OUTLINE5*%
%ADD91OUTLINE8*%
%ADD94OUTLINE11*%
%ADD97OUTLINE14*%
%ADD100OUTLINE17*%
%ADD103OUTLINE20*%
%FSLAX26Y26*%
G04*
G70*
G90*
G75*
G01*
G04 TopPaste*
%LPD*%
D78*
X727165Y1574950D3*
X660236D3*
X545916D3*
X478987D3*
D76*
X949951Y1077088D3*
Y1128269D3*
Y1422812D3*
Y1371631D3*
X1599951Y1077882D3*
Y1129063D3*
Y1425541D3*
Y1374360D3*
X2899950Y1077992D3*
Y1129173D3*
Y1372978D3*
Y1424159D3*
X3543699Y1077000D3*
Y1128181D3*
Y1374360D3*
Y1425541D3*
D74*
X1096318Y2500306D3*
X1147499D3*
X2075542Y1086276D3*
X2024361D3*
X3556791Y956201D3*
X3505610D3*
D76*
X3495262Y2175923D3*
Y2227104D3*
X3056201Y1956791D3*
Y1905610D3*
D74*
X1825541Y2212450D3*
X1774360D3*
X1919291Y2346825D3*
X1868110D3*
D85*
X2127721Y2434254D3*
X2091531Y2470444D3*
D88*
X1880547Y1718047D3*
X1844356Y1681856D3*
D76*
X2012450Y1563041D3*
Y1511860D3*
D88*
X2127421Y1471171D3*
X2091230Y1434981D3*
D74*
X2664986Y2387451D3*
X2716167D3*
X2746235Y2321825D3*
X2797416D3*
X2889986Y2193701D3*
X2941167D3*
D91*
X2585214Y1457267D3*
X2621405Y1421077D3*
X2725606Y1599296D3*
X2761796Y1563106D3*
X2859981Y1727421D3*
X2896171Y1691230D3*
D74*
X3896890Y2175865D3*
X3948071D3*
D94*
X2024606Y993701D3*
D97*
X2162795D3*
D24*
X481202Y2528076D3*
X4234325D3*
X481199Y918701D3*
D76*
X3358123Y2227104D3*
Y2175923D3*
X3427024D3*
Y2227104D3*
D74*
X2075542Y1161276D3*
X2024361D3*
D62*
X1052992Y976220D3*
D60*
X1074646D3*
X1094331D3*
D62*
X1115984D3*
X1052992Y948661D3*
D60*
X1074646D3*
X1094331D3*
D62*
X1115984D3*
X1165472Y976220D3*
D60*
X1187126D3*
X1206811D3*
D62*
X1228465D3*
X1165472Y948661D3*
D60*
X1187126D3*
X1206811D3*
D62*
X1228465D3*
X1277992Y976220D3*
D60*
X1299646D3*
X1319331D3*
D62*
X1340984D3*
X1277992Y948661D3*
D60*
X1299646D3*
X1319331D3*
D62*
X1340984D3*
X1390472Y976220D3*
D60*
X1412126D3*
X1431811D3*
D62*
X1453465D3*
X1390472Y948661D3*
D60*
X1412126D3*
X1431811D3*
D62*
X1453465D3*
X1730945Y976220D3*
D60*
X1752598D3*
X1772283D3*
D62*
X1793937D3*
X1730945Y948661D3*
D60*
X1752598D3*
X1772283D3*
D62*
X1793937D3*
X1855945Y976220D3*
D60*
X1877598D3*
X1897283D3*
D62*
X1918937D3*
X1855945Y948661D3*
D60*
X1877598D3*
X1897283D3*
D62*
X1918937D3*
X2993465Y976220D3*
D60*
X3015118D3*
X3034803D3*
D62*
X3056457D3*
X2993465Y948661D3*
D60*
X3015118D3*
X3034803D3*
D62*
X3056457D3*
X3105954Y976231D3*
D60*
X3127608D3*
X3147293D3*
D62*
X3168946D3*
X3105954Y948672D3*
D60*
X3127608D3*
X3147293D3*
D62*
X3168946D3*
X3218454Y976230D3*
D60*
X3240108D3*
X3259793D3*
D62*
X3281446D3*
X3218454Y948671D3*
D60*
X3240108D3*
X3259793D3*
D62*
X3281446D3*
X3330955Y976231D3*
D60*
X3352609D3*
X3372294D3*
D62*
X3393948D3*
X3330955Y948672D3*
D60*
X3352609D3*
X3372294D3*
D62*
X3393948D3*
X3674706Y976230D3*
D60*
X3696360D3*
X3716045D3*
D62*
X3737698D3*
X3674706Y948671D3*
D60*
X3696360D3*
X3716045D3*
D62*
X3737698D3*
X3787205Y976230D3*
D60*
X3808858D3*
X3828543D3*
D62*
X3850197D3*
X3787205Y948671D3*
D60*
X3808858D3*
X3828543D3*
D62*
X3850197D3*
X2356457Y948661D3*
D60*
X2334803D3*
X2315118D3*
D62*
X2293465D3*
X2356457Y976220D3*
D60*
X2334803D3*
X2315118D3*
D62*
X2293465D3*
X2531457Y948661D3*
D60*
X2509803D3*
X2490118D3*
D62*
X2468465D3*
X2531457Y976220D3*
D60*
X2509803D3*
X2490118D3*
D62*
X2468465D3*
D100*
X2903917Y2026111D3*
X2889998Y2040031D3*
X2876078Y2053950D3*
X2862159Y2067869D3*
X2848239Y2081789D3*
X2834320Y2095708D3*
X2820401Y2109628D3*
X2806481Y2123547D3*
X2792562Y2137467D3*
X2778642Y2151386D3*
X2764723Y2165305D3*
X2750803Y2179225D3*
X2736884Y2193144D3*
X2722965Y2207064D3*
X2709045Y2220983D3*
X2695126Y2234903D3*
X2681206Y2248822D3*
X2667287Y2262741D3*
X2653367Y2276661D3*
X2639448Y2290580D3*
X2625529Y2304500D3*
X2611609Y2318419D3*
X2597690Y2332339D3*
X2583770Y2346258D3*
X2569851Y2360177D3*
X2555931Y2374097D3*
X2542012Y2388016D3*
X2528093Y2401936D3*
X2514173Y2415855D3*
X2500254Y2429775D3*
X2486334Y2443694D3*
X2472415Y2457613D3*
X2458495Y2471533D3*
X2444576Y2485452D3*
X2430657Y2499372D3*
X2416737Y2513291D3*
D103*
X2308166D3*
X2294246Y2499372D3*
X2280327Y2485452D3*
X2266407Y2471533D3*
X2252488Y2457613D3*
X2238569Y2443694D3*
X2224649Y2429775D3*
X2210730Y2415855D3*
X2196810Y2401936D3*
X2182891Y2388016D3*
X2168971Y2374097D3*
X2155052Y2360177D3*
X2141133Y2346258D3*
X2127213Y2332339D3*
X2113294Y2318419D3*
X2099374Y2304500D3*
X2085455Y2290580D3*
X2071535Y2276661D3*
X2057616Y2262741D3*
X2043697Y2248822D3*
X2029777Y2234903D3*
X2015858Y2220983D3*
X2001938Y2207064D3*
X1988019Y2193144D3*
X1974099Y2179225D3*
X1960180Y2165305D3*
X1946261Y2151386D3*
X1932341Y2137467D3*
X1918422Y2123547D3*
X1904502Y2109628D3*
X1890583Y2095708D3*
X1876664Y2081789D3*
X1862744Y2067869D3*
X1848825Y2053950D3*
X1834905Y2040031D3*
X1820986Y2026111D3*
D100*
Y1917540D3*
X1834905Y1903620D3*
X1848825Y1889701D3*
X1862744Y1875781D3*
X1876664Y1861862D3*
X1890583Y1847943D3*
X1904502Y1834023D3*
X1918422Y1820104D3*
X1932341Y1806184D3*
X1946261Y1792265D3*
X1960180Y1778345D3*
X1974099Y1764426D3*
X1988019Y1750507D3*
X2001938Y1736587D3*
X2015858Y1722668D3*
X2029777Y1708748D3*
X2043697Y1694829D3*
X2057616Y1680909D3*
X2071535Y1666990D3*
X2085455Y1653071D3*
X2099374Y1639151D3*
X2113294Y1625232D3*
X2127213Y1611312D3*
X2141133Y1597393D3*
X2155052Y1583474D3*
X2168971Y1569554D3*
X2182891Y1555635D3*
X2196810Y1541715D3*
X2210730Y1527796D3*
X2224649Y1513876D3*
X2238569Y1499957D3*
X2252488Y1486038D3*
X2266407Y1472118D3*
X2280327Y1458199D3*
X2294246Y1444279D3*
X2308166Y1430360D3*
D103*
X2416737D3*
X2430657Y1444279D3*
X2444576Y1458199D3*
X2458495Y1472118D3*
X2472415Y1486038D3*
X2486334Y1499957D3*
X2500254Y1513876D3*
X2514173Y1527796D3*
X2528093Y1541715D3*
X2542012Y1555635D3*
X2555931Y1569554D3*
X2569851Y1583474D3*
X2583770Y1597393D3*
X2597690Y1611312D3*
X2611609Y1625232D3*
X2625529Y1639151D3*
X2639448Y1653071D3*
X2653367Y1666990D3*
X2667287Y1680909D3*
X2681206Y1694829D3*
X2695126Y1708748D3*
X2709045Y1722668D3*
X2722965Y1736587D3*
X2736884Y1750507D3*
X2750803Y1764426D3*
X2764723Y1778345D3*
X2778642Y1792265D3*
X2792562Y1806184D3*
X2806481Y1820104D3*
X2820401Y1834023D3*
X2834320Y1847943D3*
X2848239Y1861862D3*
X2862159Y1875781D3*
X2876078Y1889701D3*
X2889998Y1903620D3*
X2903917Y1917540D3*
D58*
X509400Y1754528D3*
X599951D3*
X690503D3*
D56*
X599951Y1982874D3*
D50*
X3229136Y2066211D3*
Y2046526D3*
Y2026841D3*
Y2007156D3*
Y1987471D3*
Y1967786D3*
Y1948101D3*
Y1928416D3*
Y1908731D3*
Y1889046D3*
Y1869361D3*
Y1849676D3*
Y1829991D3*
Y1810306D3*
Y1790621D3*
Y1770936D3*
X3994885D3*
Y1790621D3*
Y1810306D3*
Y1829991D3*
Y1849676D3*
Y1869361D3*
Y1889046D3*
Y1908731D3*
Y1928416D3*
Y1948101D3*
Y1967786D3*
Y1987471D3*
Y2007156D3*
Y2026841D3*
Y2046526D3*
Y2066211D3*
D48*
X1025556Y1106778D3*
X1045241D3*
X1064927D3*
X1084612D3*
X1104297D3*
X1123982D3*
X1143667D3*
X1163352D3*
X1183037D3*
X1202722D3*
X1222407D3*
X1242092D3*
X1261777D3*
X1281462D3*
X1301147D3*
X1320832D3*
X1340517D3*
X1360202D3*
X1379887D3*
X1399572D3*
X1419257D3*
X1438942D3*
X1458627D3*
X1478312D3*
Y1402054D3*
X1458627D3*
X1438942D3*
X1419257D3*
X1399572D3*
X1379887D3*
X1360202D3*
X1340517D3*
X1320832D3*
X1301147D3*
X1281462D3*
X1261777D3*
X1242092D3*
X1222407D3*
X1202722D3*
X1183037D3*
X1163352D3*
X1143667D3*
X1123982D3*
X1104297D3*
X1084612D3*
X1064927D3*
X1045241D3*
X1025556D3*
X2967323Y1102314D3*
X2987008D3*
X3006693D3*
X3026378D3*
X3046063D3*
X3065748D3*
X3085433D3*
X3105118D3*
X3124803D3*
X3144488D3*
X3164173D3*
X3183858D3*
X3203543D3*
X3223228D3*
X3242913D3*
X3262598D3*
X3282283D3*
X3301969D3*
X3321654D3*
X3341339D3*
X3361024D3*
X3380709D3*
X3400394D3*
X3420079D3*
Y1397589D3*
X3400394D3*
X3380709D3*
X3361024D3*
X3341339D3*
X3321654D3*
X3301969D3*
X3282283D3*
X3262598D3*
X3242913D3*
X3223228D3*
X3203543D3*
X3183858D3*
X3164173D3*
X3144488D3*
X3124803D3*
X3105118D3*
X3085433D3*
X3065748D3*
X3046063D3*
X3026378D3*
X3006693D3*
X2987008D3*
X2967323D3*
D46*
X1676050Y1147432D3*
X1701640D3*
X1727231D3*
X1752822D3*
X1778412D3*
X1804003D3*
X1829593D3*
X1855184D3*
X1880774D3*
X1906365D3*
X1931955D3*
X1957546D3*
Y1375786D3*
X1931955Y1375778D3*
X1906365D3*
X1880774D3*
X1855184D3*
X1829593D3*
X1804003D3*
X1778412D3*
X1752822D3*
X1727231D3*
X1701640D3*
X1676050D3*
X3615453Y1142024D3*
X3641043D3*
X3666634D3*
X3692224D3*
X3717815D3*
X3743406D3*
X3768996D3*
X3794587D3*
X3820177D3*
X3845768D3*
X3871358D3*
X3896949D3*
Y1370378D3*
X3871358Y1370370D3*
X3845768D3*
X3820177D3*
X3794587D3*
X3768996D3*
X3743406D3*
X3717815D3*
X3692224D3*
X3666634D3*
X3641043D3*
X3615453D3*
M02*
