G04 DipTrace 2.4.0.2*
%INTopSilk.gbr*%
%MOIN*%
%ADD10C,0.0098*%
%ADD34C,0.0154*%
%ADD76C,0.0077*%
%ADD77C,0.0124*%
%ADD78C,0.0062*%
%FSLAX44Y44*%
G04*
G70*
G90*
G75*
G01*
%LNTopSilk*%
%LPD*%
X9111Y11055D2*
D10*
Y10819D1*
X9229Y10937D2*
X8993D1*
X6812D2*
G02X6812Y10937I1000J0D01*
G01*
X26758Y11253D2*
X26994D1*
X26758Y10623D2*
X26994D1*
X26832D2*
Y11253D1*
X26758Y10623D2*
Y11253D1*
X28624Y21500D2*
X33625D1*
Y20500D1*
X28624D1*
Y21500D1*
X12348Y17848D2*
Y12336D1*
X18960D1*
Y17848D1*
X15890D1*
X12348D2*
X15418D1*
G03X15890Y17848I236J0D01*
G01*
X13158Y9304D2*
X18119D1*
Y11273D1*
X13158D1*
Y10485D1*
Y9304D2*
Y10092D1*
G03X13158Y10485I0J197D01*
G01*
X35728Y13303D2*
X35724Y16851D1*
X33834D1*
X33362D2*
G03X33834Y16851I236J-56D01*
G01*
X31492D2*
X31491Y13333D1*
X31492Y13308D2*
X38185D1*
X38187Y13336D2*
X38185Y16851D1*
X35193D1*
X34483D2*
X31492D1*
X34483D2*
G03X35193Y16851I355J0D01*
G01*
D34*
X6554Y16073D3*
X6543Y16965D2*
D10*
X9142D1*
X6543Y18068D2*
X9142D1*
Y16965D2*
Y18068D1*
X6543Y16965D2*
Y18068D1*
X29658Y9304D2*
X34619D1*
Y11273D1*
X29658D1*
Y10485D1*
Y9304D2*
Y10092D1*
G03X29658Y10485I0J197D01*
G01*
X23052Y13560D2*
Y16631D1*
X21792Y13560D2*
Y16631D1*
X23052D2*
X21792D1*
X23052Y13560D2*
X22619D1*
X22225D2*
X21792D1*
X22619D2*
G03X22225Y13560I-197J0D01*
G01*
X35796Y9713D2*
X38867D1*
X35796Y10973D2*
X38867D1*
Y9713D2*
Y10973D1*
X35796Y9713D2*
Y10146D1*
Y10540D2*
Y10973D1*
Y10146D2*
G03X35796Y10540I0J197D01*
G01*
X6848Y19640D2*
D76*
X6824Y19688D1*
X6776Y19736D1*
X6728Y19760D1*
X6633D1*
X6584Y19736D1*
X6537Y19688D1*
X6513Y19640D1*
X6489Y19569D1*
Y19449D1*
X6513Y19377D1*
X6537Y19329D1*
X6584Y19282D1*
X6633Y19257D1*
X6728D1*
X6776Y19282D1*
X6824Y19329D1*
X6848Y19377D1*
X7002Y19664D2*
X7050Y19688D1*
X7122Y19759D1*
Y19257D1*
X9227Y11706D2*
X9204Y11754D1*
X9156Y11802D1*
X9108Y11825D1*
X9012D1*
X8964Y11802D1*
X8917Y11754D1*
X8893Y11706D1*
X8869Y11634D1*
Y11514D1*
X8893Y11443D1*
X8917Y11395D1*
X8964Y11347D1*
X9012Y11323D1*
X9108D1*
X9156Y11347D1*
X9204Y11395D1*
X9227Y11443D1*
X9406Y11705D2*
Y11729D1*
X9430Y11777D1*
X9454Y11801D1*
X9502Y11825D1*
X9597D1*
X9645Y11801D1*
X9669Y11777D1*
X9693Y11729D1*
Y11682D1*
X9669Y11634D1*
X9621Y11562D1*
X9382Y11323D1*
X9717D1*
X20389Y11775D2*
X20341Y11751D1*
X20293Y11703D1*
X20270Y11656D1*
Y11560D1*
X20293Y11512D1*
X20341Y11464D1*
X20389Y11440D1*
X20461Y11416D1*
X20581D1*
X20652Y11440D1*
X20700Y11464D1*
X20748Y11512D1*
X20772Y11560D1*
Y11656D1*
X20748Y11703D1*
X20700Y11751D1*
X20652Y11775D1*
X20341Y12216D2*
X20294Y12192D1*
X20270Y12121D1*
Y12073D1*
X20294Y12001D1*
X20366Y11953D1*
X20485Y11929D1*
X20605D1*
X20700Y11953D1*
X20748Y12001D1*
X20772Y12073D1*
Y12097D1*
X20748Y12168D1*
X20700Y12216D1*
X20628Y12240D1*
X20605D1*
X20533Y12216D1*
X20485Y12168D1*
X20461Y12097D1*
Y12073D1*
X20485Y12001D1*
X20533Y11953D1*
X20605Y11929D1*
X24692Y14439D2*
X24668Y14486D1*
X24620Y14534D1*
X24573Y14558D1*
X24477D1*
X24429Y14534D1*
X24381Y14486D1*
X24357Y14439D1*
X24333Y14367D1*
Y14247D1*
X24357Y14176D1*
X24381Y14128D1*
X24429Y14080D1*
X24477Y14056D1*
X24573D1*
X24620Y14080D1*
X24668Y14128D1*
X24692Y14176D1*
X24942Y14056D2*
X25181Y14558D1*
X24846D1*
X29991Y17125D2*
X29967Y17173D1*
X29919Y17221D1*
X29872Y17244D1*
X29776D1*
X29728Y17221D1*
X29680Y17173D1*
X29656Y17125D1*
X29632Y17053D1*
Y16933D1*
X29656Y16862D1*
X29680Y16814D1*
X29728Y16766D1*
X29776Y16742D1*
X29872D1*
X29919Y16766D1*
X29967Y16814D1*
X29991Y16862D1*
X30265Y17244D2*
X30194Y17220D1*
X30169Y17173D1*
Y17125D1*
X30194Y17077D1*
X30241Y17053D1*
X30337Y17029D1*
X30409Y17005D1*
X30456Y16957D1*
X30480Y16910D1*
Y16838D1*
X30456Y16790D1*
X30432Y16766D1*
X30360Y16742D1*
X30265D1*
X30194Y16766D1*
X30169Y16790D1*
X30145Y16838D1*
Y16910D1*
X30169Y16957D1*
X30217Y17005D1*
X30289Y17029D1*
X30384Y17053D1*
X30432Y17077D1*
X30456Y17125D1*
Y17173D1*
X30432Y17220D1*
X30360Y17244D1*
X30265D1*
X25074Y9957D2*
X25050Y10004D1*
X25002Y10052D1*
X24954Y10076D1*
X24859D1*
X24811Y10052D1*
X24763Y10004D1*
X24739Y9957D1*
X24715Y9885D1*
Y9765D1*
X24739Y9694D1*
X24763Y9646D1*
X24811Y9598D1*
X24859Y9574D1*
X24954D1*
X25002Y9598D1*
X25050Y9646D1*
X25074Y9694D1*
X25228Y9980D2*
X25276Y10004D1*
X25348Y10076D1*
Y9574D1*
X25502Y9980D2*
X25550Y10004D1*
X25622Y10076D1*
Y9574D1*
X26464Y12025D2*
Y11522D1*
X26631D1*
X26703Y11547D1*
X26751Y11594D1*
X26775Y11642D1*
X26799Y11713D1*
Y11833D1*
X26775Y11905D1*
X26751Y11953D1*
X26703Y12001D1*
X26631Y12025D1*
X26464D1*
X27001Y12024D2*
X27264D1*
X27121Y11833D1*
X27193D1*
X27240Y11809D1*
X27264Y11785D1*
X27288Y11713D1*
Y11666D1*
X27264Y11594D1*
X27216Y11546D1*
X27145Y11522D1*
X27073D1*
X27001Y11546D1*
X26978Y11570D1*
X26953Y11618D1*
X34099Y21218D2*
Y20836D1*
X34076Y20764D1*
X34051Y20740D1*
X34004Y20716D1*
X33956D1*
X33908Y20740D1*
X33884Y20764D1*
X33860Y20836D1*
Y20884D1*
X34421Y21218D2*
Y20716D1*
X34254Y21218D2*
X34589D1*
X35126Y20716D2*
X34934Y21218D1*
X34743Y20716D1*
X34815Y20884D2*
X35054D1*
X35639Y21099D2*
X35615Y21147D1*
X35567Y21195D1*
X35520Y21218D1*
X35424D1*
X35376Y21195D1*
X35329Y21147D1*
X35304Y21099D1*
X35281Y21027D1*
Y20907D1*
X35304Y20836D1*
X35329Y20788D1*
X35376Y20740D1*
X35424Y20716D1*
X35520D1*
X35567Y20740D1*
X35615Y20788D1*
X35639Y20836D1*
Y20907D1*
X35520D1*
X24767Y12067D2*
X24982D1*
X25054Y12091D1*
X25079Y12115D1*
X25102Y12163D1*
Y12211D1*
X25079Y12258D1*
X25054Y12283D1*
X24982Y12306D1*
X24767D1*
Y11804D1*
X24935Y12067D2*
X25102Y11804D1*
X25305Y12306D2*
X25567D1*
X25424Y12115D1*
X25496D1*
X25544Y12091D1*
X25567Y12067D1*
X25592Y11995D1*
Y11948D1*
X25567Y11876D1*
X25520Y11828D1*
X25448Y11804D1*
X25376D1*
X25305Y11828D1*
X25281Y11852D1*
X25257Y11900D1*
X15242Y18580D2*
Y18222D1*
X15266Y18150D1*
X15314Y18102D1*
X15386Y18078D1*
X15433D1*
X15505Y18102D1*
X15553Y18150D1*
X15577Y18222D1*
Y18580D1*
X15756Y18460D2*
Y18484D1*
X15779Y18532D1*
X15803Y18556D1*
X15851Y18580D1*
X15947D1*
X15994Y18556D1*
X16018Y18532D1*
X16042Y18484D1*
Y18437D1*
X16018Y18389D1*
X15971Y18317D1*
X15731Y18078D1*
X16066D1*
X12101Y10499D2*
Y10141D1*
X12125Y10069D1*
X12173Y10021D1*
X12245Y9997D1*
X12292D1*
X12364Y10021D1*
X12412Y10069D1*
X12436Y10141D1*
Y10499D1*
X12639D2*
X12901D1*
X12758Y10308D1*
X12830D1*
X12877Y10284D1*
X12901Y10260D1*
X12925Y10188D1*
Y10141D1*
X12901Y10069D1*
X12854Y10021D1*
X12782Y9997D1*
X12710D1*
X12639Y10021D1*
X12615Y10045D1*
X12590Y10093D1*
X32506Y17573D2*
Y17214D1*
X32530Y17142D1*
X32578Y17095D1*
X32650Y17071D1*
X32698D1*
X32769Y17095D1*
X32818Y17142D1*
X32841Y17214D1*
Y17573D1*
X33283Y17572D2*
X33044D1*
X33020Y17357D1*
X33044Y17381D1*
X33116Y17406D1*
X33187D1*
X33259Y17381D1*
X33307Y17334D1*
X33331Y17262D1*
Y17214D1*
X33307Y17142D1*
X33259Y17094D1*
X33187Y17071D1*
X33116D1*
X33044Y17094D1*
X33020Y17119D1*
X32996Y17166D1*
X9331Y17763D2*
Y17404D1*
X9354Y17332D1*
X9402Y17285D1*
X9474Y17260D1*
X9522D1*
X9594Y17285D1*
X9642Y17332D1*
X9665Y17404D1*
Y17763D1*
X10107Y17691D2*
X10083Y17738D1*
X10011Y17762D1*
X9964D1*
X9892Y17738D1*
X9844Y17667D1*
X9820Y17547D1*
Y17428D1*
X9844Y17332D1*
X9892Y17284D1*
X9964Y17260D1*
X9987D1*
X10059Y17284D1*
X10107Y17332D1*
X10130Y17404D1*
Y17428D1*
X10107Y17500D1*
X10059Y17547D1*
X9987Y17571D1*
X9964D1*
X9892Y17547D1*
X9844Y17500D1*
X9820Y17428D1*
X28722Y10505D2*
Y10147D1*
X28746Y10075D1*
X28794Y10027D1*
X28866Y10003D1*
X28913D1*
X28985Y10027D1*
X29033Y10075D1*
X29057Y10147D1*
Y10505D1*
X29307Y10003D2*
X29546Y10505D1*
X29211D1*
X22010Y17363D2*
Y17005D1*
X22034Y16933D1*
X22082Y16885D1*
X22154Y16861D1*
X22201D1*
X22273Y16885D1*
X22321Y16933D1*
X22345Y17005D1*
Y17363D1*
X22619D2*
X22547Y17339D1*
X22523Y17291D1*
Y17243D1*
X22547Y17196D1*
X22595Y17172D1*
X22691Y17148D1*
X22762Y17124D1*
X22810Y17076D1*
X22834Y17028D1*
Y16957D1*
X22810Y16909D1*
X22786Y16885D1*
X22714Y16861D1*
X22619D1*
X22547Y16885D1*
X22523Y16909D1*
X22499Y16957D1*
Y17028D1*
X22523Y17076D1*
X22571Y17124D1*
X22642Y17148D1*
X22738Y17172D1*
X22786Y17196D1*
X22810Y17243D1*
Y17291D1*
X22786Y17339D1*
X22714Y17363D1*
X22619D1*
X36931Y12571D2*
Y12212D1*
X36955Y12141D1*
X37003Y12093D1*
X37075Y12069D1*
X37123D1*
X37195Y12093D1*
X37243Y12141D1*
X37266Y12212D1*
Y12571D1*
X37732Y12404D2*
X37708Y12332D1*
X37660Y12284D1*
X37588Y12260D1*
X37564D1*
X37493Y12284D1*
X37445Y12332D1*
X37421Y12404D1*
Y12427D1*
X37445Y12499D1*
X37493Y12547D1*
X37564Y12571D1*
X37588D1*
X37660Y12547D1*
X37708Y12499D1*
X37732Y12404D1*
Y12284D1*
X37708Y12164D1*
X37660Y12093D1*
X37588Y12069D1*
X37541D1*
X37469Y12093D1*
X37445Y12141D1*
X18089Y22396D2*
D77*
X18051Y22472D1*
X17974Y22549D1*
X17898Y22587D1*
X17745D1*
X17668Y22549D1*
X17592Y22472D1*
X17553Y22396D1*
X17515Y22281D1*
Y22089D1*
X17553Y21975D1*
X17592Y21898D1*
X17668Y21822D1*
X17745Y21783D1*
X17898D1*
X17974Y21822D1*
X18051Y21898D1*
X18089Y21975D1*
X18566Y22587D2*
X18489Y22549D1*
X18413Y22472D1*
X18374Y22396D1*
X18336Y22281D1*
Y22089D1*
X18374Y21975D1*
X18413Y21898D1*
X18489Y21822D1*
X18566Y21783D1*
X18719D1*
X18795Y21822D1*
X18872Y21898D1*
X18910Y21975D1*
X18948Y22089D1*
Y22281D1*
X18910Y22396D1*
X18872Y22472D1*
X18795Y22549D1*
X18719Y22587D1*
X18566D1*
X19425D2*
X19348Y22549D1*
X19272Y22472D1*
X19233Y22396D1*
X19195Y22281D1*
Y22089D1*
X19233Y21975D1*
X19272Y21898D1*
X19348Y21822D1*
X19425Y21783D1*
X19578D1*
X19654Y21822D1*
X19731Y21898D1*
X19769Y21975D1*
X19807Y22089D1*
Y22281D1*
X19769Y22396D1*
X19731Y22472D1*
X19654Y22549D1*
X19578Y22587D1*
X19425D1*
X20054D2*
Y21783D1*
X20513D1*
X21334Y22396D2*
X21296Y22472D1*
X21219Y22549D1*
X21143Y22587D1*
X20990D1*
X20913Y22549D1*
X20837Y22472D1*
X20798Y22396D1*
X20760Y22281D1*
Y22089D1*
X20798Y21975D1*
X20837Y21898D1*
X20913Y21822D1*
X20990Y21783D1*
X21143D1*
X21219Y21822D1*
X21296Y21898D1*
X21334Y21975D1*
Y22089D1*
X21143D1*
X21581Y22587D2*
Y21783D1*
X21828Y22204D2*
X22172D1*
X22287Y22243D1*
X22326Y22281D1*
X22364Y22357D1*
Y22434D1*
X22326Y22510D1*
X22287Y22549D1*
X22172Y22587D1*
X21828D1*
Y21783D1*
X22096Y22204D2*
X22364Y21783D1*
X22611Y22587D2*
Y21783D1*
X23070D1*
X24706D2*
Y22587D1*
X24400Y21783D1*
X24094Y22587D1*
Y21783D1*
X24953Y22587D2*
Y22013D1*
X24991Y21898D1*
X25068Y21822D1*
X25183Y21783D1*
X25259D1*
X25374Y21822D1*
X25451Y21898D1*
X25489Y22013D1*
Y22587D1*
X25736D2*
Y21783D1*
X26195D1*
X26710Y22587D2*
Y21783D1*
X26442Y22587D2*
X26978D1*
X27225D2*
Y21783D1*
X28046Y22396D2*
X28008Y22472D1*
X27931Y22549D1*
X27855Y22587D1*
X27702D1*
X27625Y22549D1*
X27549Y22472D1*
X27510Y22396D1*
X27472Y22281D1*
Y22089D1*
X27510Y21975D1*
X27549Y21898D1*
X27625Y21822D1*
X27702Y21783D1*
X27855D1*
X27931Y21822D1*
X28008Y21898D1*
X28046Y21975D1*
X28906Y21783D2*
X28599Y22587D1*
X28293Y21783D1*
X28408Y22051D2*
X28791D1*
X29153Y22204D2*
X29497D1*
X29612Y22243D1*
X29651Y22281D1*
X29689Y22357D1*
Y22434D1*
X29651Y22510D1*
X29612Y22549D1*
X29497Y22587D1*
X29153D1*
Y21783D1*
X29421Y22204D2*
X29689Y21783D1*
X29936Y22587D2*
Y21783D1*
X30204D1*
X30319Y21822D1*
X30396Y21898D1*
X30434Y21975D1*
X30472Y22089D1*
Y22281D1*
X30434Y22396D1*
X30396Y22472D1*
X30319Y22549D1*
X30204Y22587D1*
X29936D1*
X7390Y20632D2*
Y20096D1*
Y20402D2*
X7429Y20517D1*
X7505Y20594D1*
X7582Y20632D1*
X7697D1*
X7944Y20402D2*
X8403D1*
Y20479D1*
X8365Y20556D1*
X8327Y20594D1*
X8250Y20632D1*
X8135D1*
X8059Y20594D1*
X7982Y20517D1*
X7944Y20402D1*
Y20326D1*
X7982Y20211D1*
X8059Y20135D1*
X8135Y20096D1*
X8250D1*
X8327Y20135D1*
X8403Y20211D1*
X8650Y20632D2*
X8880Y20096D1*
X9109Y20632D1*
X9394Y20173D2*
X9356Y20134D1*
X9394Y20096D1*
X9433Y20134D1*
X9394Y20173D1*
X10457Y20746D2*
X10534Y20785D1*
X10649Y20899D1*
Y20096D1*
X10934Y20173D2*
X10896Y20134D1*
X10934Y20096D1*
X10973Y20134D1*
X10934Y20173D1*
X11259Y20708D2*
Y20746D1*
X11297Y20823D1*
X11335Y20861D1*
X11412Y20899D1*
X11565D1*
X11641Y20861D1*
X11679Y20823D1*
X11718Y20746D1*
Y20670D1*
X11679Y20593D1*
X11603Y20479D1*
X11220Y20096D1*
X11756D1*
X9665Y6821D2*
D78*
Y7223D1*
X9512Y6821D1*
X9359Y7223D1*
Y6821D1*
X10095D2*
X9942Y7223D1*
X9789Y6821D1*
X9846Y6955D2*
X10038D1*
X10219Y7223D2*
Y6821D1*
X10353D1*
X10410Y6840D1*
X10448Y6878D1*
X10467Y6917D1*
X10486Y6974D1*
Y7070D1*
X10467Y7127D1*
X10448Y7165D1*
X10410Y7204D1*
X10353Y7223D1*
X10219D1*
X10858D2*
X10610D1*
Y6821D1*
X10858D1*
X10610Y7031D2*
X10763D1*
X11371Y7223D2*
Y6821D1*
X11762Y7223D2*
Y6821D1*
X11494Y7223D1*
Y6821D1*
X12275Y7031D2*
X12447D1*
X12504Y7051D1*
X12524Y7070D1*
X12543Y7108D1*
Y7146D1*
X12524Y7184D1*
X12504Y7204D1*
X12447Y7223D1*
X12275D1*
Y6821D1*
X12409Y7031D2*
X12543Y6821D1*
X12666Y7223D2*
Y6936D1*
X12685Y6878D1*
X12724Y6840D1*
X12781Y6821D1*
X12819D1*
X12877Y6840D1*
X12915Y6878D1*
X12934Y6936D1*
Y7223D1*
X13325Y7165D2*
X13287Y7204D1*
X13230Y7223D1*
X13153D1*
X13096Y7204D1*
X13058Y7165D1*
Y7127D1*
X13077Y7089D1*
X13096Y7070D1*
X13134Y7051D1*
X13249Y7012D1*
X13287Y6993D1*
X13306Y6974D1*
X13325Y6936D1*
Y6878D1*
X13287Y6840D1*
X13230Y6821D1*
X13153D1*
X13096Y6840D1*
X13058Y6878D1*
X13717Y7165D2*
X13679Y7204D1*
X13621Y7223D1*
X13545D1*
X13487Y7204D1*
X13449Y7165D1*
Y7127D1*
X13468Y7089D1*
X13487Y7070D1*
X13525Y7051D1*
X13640Y7012D1*
X13679Y6993D1*
X13698Y6974D1*
X13717Y6936D1*
Y6878D1*
X13679Y6840D1*
X13621Y6821D1*
X13545D1*
X13487Y6840D1*
X13449Y6878D1*
X13840Y7223D2*
Y6821D1*
X14270D2*
X14117Y7223D1*
X13964Y6821D1*
X14021Y6955D2*
X14213D1*
X22248Y8207D2*
X22000D1*
Y7805D1*
Y8016D2*
X22153D1*
X22372D2*
X22544D1*
X22601Y8035D1*
X22621Y8054D1*
X22640Y8092D1*
Y8131D1*
X22621Y8169D1*
X22601Y8188D1*
X22544Y8207D1*
X22372D1*
Y7805D1*
X22506Y8016D2*
X22640Y7805D1*
X22878Y8207D2*
X22840Y8188D1*
X22802Y8150D1*
X22782Y8112D1*
X22763Y8054D1*
Y7958D1*
X22782Y7901D1*
X22802Y7863D1*
X22840Y7825D1*
X22878Y7805D1*
X22955D1*
X22993Y7825D1*
X23031Y7863D1*
X23050Y7901D1*
X23069Y7958D1*
Y8054D1*
X23050Y8112D1*
X23031Y8150D1*
X22993Y8188D1*
X22955Y8207D1*
X22878D1*
X23461D2*
Y7805D1*
X23193Y8207D1*
Y7805D1*
X23718Y8207D2*
Y7805D1*
X23584Y8207D2*
X23852D1*
X24633Y8150D2*
X24595Y8188D1*
X24537Y8207D1*
X24461D1*
X24403Y8188D1*
X24365Y8150D1*
Y8112D1*
X24384Y8073D1*
X24403Y8054D1*
X24441Y8035D1*
X24556Y7997D1*
X24595Y7978D1*
X24614Y7958D1*
X24633Y7920D1*
Y7863D1*
X24595Y7825D1*
X24537Y7805D1*
X24461D1*
X24403Y7825D1*
X24365Y7863D1*
X24756Y8207D2*
Y7805D1*
X24880Y8207D2*
Y7805D1*
X25014D1*
X25071Y7825D1*
X25110Y7863D1*
X25129Y7901D1*
X25148Y7958D1*
Y8054D1*
X25129Y8112D1*
X25110Y8150D1*
X25071Y8188D1*
X25014Y8207D1*
X24880D1*
X25520D2*
X25271D1*
Y7805D1*
X25520D1*
X25271Y8016D2*
X25424D1*
X29030Y19547D2*
X28992Y19528D1*
X28953Y19489D1*
X28934Y19451D1*
Y19375D1*
X28953Y19336D1*
X28992Y19298D1*
X29030Y19279D1*
X29087Y19260D1*
X29183D1*
X29240Y19279D1*
X29279Y19298D1*
X29317Y19336D1*
X29336Y19375D1*
Y19451D1*
X29317Y19489D1*
X29279Y19528D1*
X29240Y19547D1*
X29183D1*
Y19451D1*
X28934Y19938D2*
X29336D1*
X28934Y19670D1*
X29336D1*
X28934Y20062D2*
X29336D1*
Y20196D1*
X29317Y20253D1*
X29279Y20292D1*
X29240Y20311D1*
X29183Y20330D1*
X29087D1*
X29030Y20311D1*
X28992Y20292D1*
X28953Y20253D1*
X28934Y20196D1*
Y20062D1*
X29934Y19394D2*
X30336D1*
X29934Y19260D2*
Y19528D1*
X30336Y19957D2*
X29934D1*
X30336Y19804D1*
X29934Y19651D1*
X30336D1*
X29992Y20349D2*
X29953Y20311D1*
X29934Y20253D1*
Y20177D1*
X29953Y20119D1*
X29992Y20081D1*
X30030D1*
X30068Y20100D1*
X30087Y20119D1*
X30106Y20157D1*
X30145Y20272D1*
X30164Y20311D1*
X30183Y20330D1*
X30221Y20349D1*
X30279D1*
X30317Y20311D1*
X30336Y20253D1*
Y20177D1*
X30317Y20119D1*
X30279Y20081D1*
X30934Y19394D2*
X31336D1*
X30934Y19260D2*
Y19528D1*
Y19651D2*
X31336D1*
Y19785D1*
X31317Y19843D1*
X31279Y19881D1*
X31240Y19900D1*
X31183Y19919D1*
X31087D1*
X31030Y19900D1*
X30992Y19881D1*
X30953Y19843D1*
X30934Y19785D1*
Y19651D1*
Y20043D2*
X31336D1*
X31934Y19394D2*
X32336D1*
X31934Y19260D2*
Y19528D1*
X32030Y19938D2*
X31992Y19919D1*
X31953Y19881D1*
X31934Y19843D1*
Y19766D1*
X31953Y19728D1*
X31992Y19690D1*
X32030Y19670D1*
X32087Y19651D1*
X32183D1*
X32240Y19670D1*
X32279Y19690D1*
X32317Y19728D1*
X32336Y19766D1*
Y19843D1*
X32317Y19881D1*
X32279Y19919D1*
X32240Y19938D1*
X31934Y20062D2*
X32336D1*
X31934Y20330D2*
X32202Y20062D1*
X32106Y20157D2*
X32336Y20330D1*
X32934Y19394D2*
X33336D1*
X32934Y19260D2*
Y19528D1*
Y19651D2*
X33336D1*
Y19785D1*
X33317Y19843D1*
X33279Y19881D1*
X33240Y19900D1*
X33183Y19919D1*
X33087D1*
X33030Y19900D1*
X32992Y19881D1*
X32953Y19843D1*
X32934Y19785D1*
Y19651D1*
Y20158D2*
X32953Y20119D1*
X32992Y20081D1*
X33030Y20062D1*
X33087Y20043D1*
X33183D1*
X33240Y20062D1*
X33279Y20081D1*
X33317Y20119D1*
X33336Y20158D1*
Y20234D1*
X33317Y20272D1*
X33279Y20311D1*
X33240Y20330D1*
X33183Y20349D1*
X33087D1*
X33030Y20330D1*
X32992Y20311D1*
X32953Y20272D1*
X32934Y20234D1*
Y20158D1*
X33521Y7127D2*
X33502Y7165D1*
X33464Y7204D1*
X33426Y7223D1*
X33349D1*
X33311Y7204D1*
X33273Y7165D1*
X33253Y7127D1*
X33234Y7070D1*
Y6974D1*
X33253Y6917D1*
X33273Y6878D1*
X33311Y6840D1*
X33349Y6821D1*
X33426D1*
X33464Y6840D1*
X33502Y6878D1*
X33521Y6917D1*
X33645Y7223D2*
Y6821D1*
X33874D1*
X33998Y7223D2*
Y6936D1*
X34017Y6878D1*
X34055Y6840D1*
X34113Y6821D1*
X34151D1*
X34208Y6840D1*
X34246Y6878D1*
X34265Y6936D1*
Y7223D1*
X34657Y7165D2*
X34619Y7204D1*
X34561Y7223D1*
X34485D1*
X34427Y7204D1*
X34389Y7165D1*
Y7127D1*
X34408Y7089D1*
X34427Y7070D1*
X34466Y7051D1*
X34580Y7012D1*
X34619Y6993D1*
X34638Y6974D1*
X34657Y6936D1*
Y6878D1*
X34619Y6840D1*
X34561Y6821D1*
X34485D1*
X34427Y6840D1*
X34389Y6878D1*
X34914Y7223D2*
Y6821D1*
X34780Y7223D2*
X35048D1*
X35420D2*
X35172D1*
Y6821D1*
X35420D1*
X35172Y7031D2*
X35325D1*
X35544D2*
X35716D1*
X35773Y7051D1*
X35793Y7070D1*
X35812Y7108D1*
Y7146D1*
X35793Y7184D1*
X35773Y7204D1*
X35716Y7223D1*
X35544D1*
Y6821D1*
X35678Y7031D2*
X35812Y6821D1*
X35935Y7031D2*
X36107D1*
X36165Y7051D1*
X36184Y7070D1*
X36203Y7108D1*
Y7146D1*
X36184Y7184D1*
X36165Y7204D1*
X36107Y7223D1*
X35935D1*
Y6821D1*
X36069Y7031D2*
X36203Y6821D1*
X36327Y7031D2*
X36499D1*
X36556Y7051D1*
X36576Y7070D1*
X36595Y7108D1*
Y7146D1*
X36576Y7184D1*
X36556Y7204D1*
X36499Y7223D1*
X36327D1*
Y6821D1*
X36461Y7031D2*
X36595Y6821D1*
X36737Y6859D2*
X36718Y6840D1*
X36737Y6821D1*
X36757Y6840D1*
X36737Y6859D1*
X37167Y7127D2*
X37148Y7165D1*
X37110Y7204D1*
X37072Y7223D1*
X36995D1*
X36957Y7204D1*
X36919Y7165D1*
X36899Y7127D1*
X36880Y7070D1*
Y6974D1*
X36899Y6917D1*
X36919Y6878D1*
X36957Y6840D1*
X36995Y6821D1*
X37072D1*
X37110Y6840D1*
X37148Y6878D1*
X37167Y6917D1*
X37406Y7223D2*
X37367Y7204D1*
X37329Y7165D1*
X37310Y7127D1*
X37291Y7070D1*
Y6974D1*
X37310Y6917D1*
X37329Y6878D1*
X37367Y6840D1*
X37406Y6821D1*
X37482D1*
X37520Y6840D1*
X37559Y6878D1*
X37578Y6917D1*
X37597Y6974D1*
Y7070D1*
X37578Y7127D1*
X37559Y7165D1*
X37520Y7204D1*
X37482Y7223D1*
X37406D1*
X38026Y6821D2*
Y7223D1*
X37873Y6821D1*
X37720Y7223D1*
Y6821D1*
X38394Y19481D2*
X38375Y19500D1*
X38394Y19519D1*
X38413Y19500D1*
Y19462D1*
X38394Y19424D1*
X38375Y19404D1*
X38470Y19481D2*
X38451Y19500D1*
X38470Y19519D1*
X38489Y19500D1*
Y19462D1*
X38470Y19424D1*
X38451Y19404D1*
X38900Y19424D2*
X38881Y19462D1*
X38842Y19501D1*
X38804Y19520D1*
X38728D1*
X38689Y19501D1*
X38651Y19462D1*
X38632Y19424D1*
X38613Y19367D1*
Y19271D1*
X38632Y19214D1*
X38651Y19175D1*
X38689Y19137D1*
X38728Y19118D1*
X38804D1*
X38842Y19137D1*
X38881Y19175D1*
X38900Y19214D1*
X39023Y19520D2*
Y19118D1*
X39253D1*
X39376Y19520D2*
Y19233D1*
X39395Y19175D1*
X39434Y19137D1*
X39491Y19118D1*
X39529D1*
X39587Y19137D1*
X39625Y19175D1*
X39644Y19233D1*
Y19520D1*
X40036Y19462D2*
X39998Y19501D1*
X39940Y19520D1*
X39864D1*
X39806Y19501D1*
X39768Y19462D1*
Y19424D1*
X39787Y19386D1*
X39806Y19367D1*
X39844Y19348D1*
X39959Y19309D1*
X39998Y19290D1*
X40017Y19271D1*
X40036Y19233D1*
Y19175D1*
X39998Y19137D1*
X39940Y19118D1*
X39864D1*
X39806Y19137D1*
X39768Y19175D1*
X40293Y19520D2*
Y19118D1*
X40159Y19520D2*
X40427D1*
X40799D2*
X40551D1*
Y19118D1*
X40799D1*
X40551Y19328D2*
X40704D1*
X40923D2*
X41095D1*
X41152Y19348D1*
X41172Y19367D1*
X41191Y19405D1*
Y19443D1*
X41172Y19481D1*
X41152Y19501D1*
X41095Y19520D1*
X40923D1*
Y19118D1*
X41057Y19328D2*
X41191Y19118D1*
X41334Y19481D2*
X41314Y19500D1*
X41334Y19519D1*
X41353Y19500D1*
Y19462D1*
X41334Y19424D1*
X41314Y19404D1*
X41410Y19481D2*
X41391Y19500D1*
X41410Y19519D1*
X41429Y19500D1*
Y19462D1*
X41410Y19424D1*
X41391Y19404D1*
X39056Y18430D2*
X38903Y18832D1*
X38750Y18430D1*
X38807Y18564D2*
X38998D1*
X39179Y18832D2*
X39332Y18430D1*
X39485Y18832D1*
X39609D2*
Y18430D1*
X39743D1*
X39800Y18450D1*
X39839Y18488D1*
X39858Y18526D1*
X39877Y18583D1*
Y18679D1*
X39858Y18737D1*
X39839Y18775D1*
X39800Y18813D1*
X39743Y18832D1*
X39609D1*
X40000D2*
X40153Y18641D1*
Y18430D1*
X40306Y18832D2*
X40153Y18641D1*
X40430Y18832D2*
Y18545D1*
X40449Y18488D1*
X40487Y18450D1*
X40545Y18430D1*
X40583D1*
X40640Y18450D1*
X40679Y18488D1*
X40698Y18545D1*
Y18832D1*
X40821D2*
Y18430D1*
X41089Y18832D2*
X40821Y18564D1*
X40917Y18660D2*
X41089Y18430D1*
X41213Y18832D2*
Y18430D1*
X41481Y18832D2*
Y18430D1*
X41213Y18641D2*
X41481D1*
X41604Y18832D2*
Y18430D1*
X41996Y18832D2*
Y18430D1*
X41728Y18832D1*
Y18430D1*
X37500Y20207D2*
Y19805D1*
X37672D1*
X37729Y19825D1*
X37748Y19844D1*
X37767Y19882D1*
Y19939D1*
X37748Y19978D1*
X37729Y19997D1*
X37672Y20016D1*
X37729Y20035D1*
X37748Y20054D1*
X37767Y20092D1*
Y20131D1*
X37748Y20169D1*
X37729Y20188D1*
X37672Y20207D1*
X37500D1*
Y20016D2*
X37672D1*
X37891Y20207D2*
X38044Y20016D1*
Y19805D1*
X38197Y20207D2*
X38044Y20016D1*
X39016Y19805D2*
X38862Y20207D1*
X38709Y19805D1*
X38767Y19939D2*
X38958D1*
X39139Y20207D2*
Y19805D1*
X39369D1*
X39741Y20207D2*
X39492D1*
Y19805D1*
X39741D1*
X39492Y20016D2*
X39645D1*
X39864Y20207D2*
X40132Y19805D1*
Y20207D2*
X39864Y19805D1*
X40504Y20207D2*
X40256D1*
Y19805D1*
X40504D1*
X40256Y20016D2*
X40409D1*
X40628Y20207D2*
X40781Y20016D1*
Y19805D1*
X40934Y20207D2*
X40781Y20016D1*
M02*
