M48
INCH
T01C0.0118
T02C0.0354
T03C0.0433
%
T01
X+011188Y+007937
X+011063Y+008312
X+010438Y+007375
X+009750Y+007375
X+008750Y+007375
X+008750Y+008312
X+009625Y+009375
X+011688Y+009375
X+012313Y+009688
X+012313Y+010313
X+011688Y+010500
X+013375Y+010500
X+014438Y+010313
X+014438Y+009688
X+013375Y+009375
X+013751Y+007750
X+014251Y+007812
X+015001Y+008062
X+015376Y+008062
X+015938Y+007937
X+015938Y+008375
X+015688Y+009375
X+016063Y+010313
X+015251Y+010500
X+017063Y+010563
X+017876Y+010375
X+018001Y+010750
X+018001Y+010000
X+017751Y+009625
X+017126Y+009125
X+017938Y+008437
X+018001Y+007937
X+018376Y+007937
X+018751Y+007937
X+019126Y+008000
X+019501Y+008125
X+019876Y+008250
X+020251Y+008375
X+020626Y+008500
X+020251Y+009750
X+020814Y+010438
X+020501Y+010750
X+021376Y+010813
X+021876Y+010125
X+023627Y+010375
X+024627Y+011675
X+025689Y+012438
X+026314Y+011688
X+026877Y+010500
X+027127Y+009813
X+027752Y+009500
X+027752Y+010125
X+028940Y+010938
X+029252Y+011125
X+029627Y+010938
X+030190Y+010625
X+030627Y+010500
X+030815Y+011000
X+031315Y+011438
X+031614Y+011661
X+031002Y+012375
X+030752Y+012625
X+030502Y+012875
X+030440Y+013375
X+029940Y+013000
X+028815Y+013125
X+028190Y+013250
X+027627Y+013876
X+027940Y+014126
X+027627Y+014376
X+028002Y+014626
X+027564Y+015188
X+027877Y+015438
X+027564Y+015688
X+027877Y+015938
X+027502Y+016188
X+027752Y+016438
X+027439Y+016688
X+027314Y+017313
X+027002Y+017563
X+028127Y+016876
X+028752Y+017751
X+030065Y+017876
X+030315Y+018126
X+030315Y+018564
X+030315Y+019001
X+029752Y+019376
X+029002Y+019376
X+030440Y+019751
X+030752Y+016813
X+030065Y+016813
X+031690Y+016251
X+031690Y+014938
X+031752Y+012688
X+032002Y+010125
X+032002Y+009500
X+032753Y+009938
X+031287Y+008834
X+031065Y+007375
X+032065Y+007375
X+033003Y+007375
X+032725Y+008090
X+034565Y+007500
X+035440Y+007500
X+036315Y+007500
X+037316Y+007937
X+037566Y+007500
X+038187Y+007437
X+038628Y+007250
X+035190Y+008875
X+036565Y+012563
X+038128Y+012563
X+040316Y+012875
X+043004Y+013313
X+043004Y+012125
X+043004Y+010313
X+043004Y+008688
X+034753Y+013375
X+029877Y+010125
X+029877Y+009500
X+029690Y+007375
X+028940Y+007375
X+028190Y+007375
X+027439Y+007375
X+026752Y+007375
X+026503Y+008033
X+025877Y+007375
X+025377Y+007375
X+024439Y+007375
X+023689Y+007375
X+023189Y+007375
X+022814Y+007375
X+021939Y+007625
X+021376Y+007250
X+019501Y+010875
X+019564Y+011438
X+020001Y+012063
X+019689Y+012313
X+019439Y+012563
X+019189Y+013250
X+019189Y+013876
X+018439Y+014188
X+018753Y+014642
X+018439Y+015063
X+018439Y+015501
X+018376Y+015938
X+018814Y+016438
X+018376Y+016813
X+019939Y+017063
X+021564Y+016876
X+021876Y+018001
X+022126Y+018314
X+022376Y+018001
X+022626Y+018314
X+022876Y+018001
X+023127Y+018314
X+023377Y+018001
X+023627Y+018314
X+023877Y+018001
X+024127Y+018314
X+024439Y+018001
X+024689Y+018314
X+024939Y+018001
X+025189Y+018314
X+025689Y+018376
X+023189Y+020064
X+021626Y+018314
X+021564Y+015563
X+022626Y+015188
X+022876Y+012188
X+025803Y+009919
X+018501Y+012563
X+018439Y+013438
X+016688Y+013688
X+016376Y+014126
X+015751Y+013375
X+014938Y+013063
X+014626Y+013313
X+014376Y+013000
X+013938Y+012938
X+013438Y+012938
X+013125Y+012688
X+012813Y+012938
X+012500Y+012688
X+012188Y+012938
X+011875Y+012688
X+011500Y+012813
X+011125Y+012688
X+009750Y+012125
X+008250Y+012813
X+007187Y+013375
X+006750Y+015126
X+006562Y+016688
X+007937Y+018063
X+008312Y+017876
X+008688Y+016313
X+011313Y+016876
X+011688Y+017001
X+012063Y+017001
X+012438Y+017001
X+013438Y+018939
X+014688Y+018939
X+011438Y+019501
X+010375Y+018439
X+012000Y+014376
X+012313Y+014188
X+012625Y+014001
X+012938Y+013813
X+013751Y+013563
X+014313Y+014501
X+014751Y+014501
X+015001Y+014188
X+017001Y+007625
X+016376Y+007437
X+006500Y+008688
X+004375Y+008688
X+004375Y+010313
X+004375Y+012125
X+004375Y+014563
T02
X+008062Y+009875
X+007062Y+009875
T03
X+041378Y+013063
X+033308Y+013063
X+030002Y+020439
X+029002Y+020439
X+028002Y+020439
X+027002Y+020439
X+026002Y+020439
T00
M30
