G04 DipTrace 4.0.0.5*
G04 BottomPaste.gbr*
%MOIN*%
G04 #@! TF.FileFunction,Paste,Bot*
G04 #@! TF.Part,Single*
%ADD24C,0.029606*%
%ADD52R,0.019685X0.114173*%
%ADD70R,0.066929X0.251969*%
%FSLAX26Y26*%
G04*
G70*
G90*
G75*
G01*
G04 BotPaste*
%LPD*%
D24*
X481202Y2606201D3*
X4234325D3*
X481199Y996825D3*
D70*
X912450Y578076D3*
X1012450D3*
X1112450D3*
X1212450D3*
X1312450D3*
X1412450D3*
X1512450D3*
X1612450D3*
X1712450D3*
X1812450D3*
X1912450D3*
X2012450D3*
X2112450D3*
X2212450D3*
X2312450D3*
X2412450D3*
X2512450D3*
X2612450D3*
X2712450D3*
X2812450D3*
X2912450D3*
X3012450D3*
X3112450D3*
X3212450D3*
X3312450D3*
X3412450D3*
X3512450D3*
X3612450D3*
X3712450D3*
X3812450D3*
D52*
X3896825Y1736786D3*
X3846825D3*
X3796825D3*
X3746825D3*
X3696825D3*
X3646825D3*
X3596825D3*
X3546825D3*
X3496825D3*
X3446825D3*
X3396825D3*
X3346825D3*
X3296825D3*
X3246825D3*
Y2106865D3*
X3296825D3*
X3346825D3*
X3396825D3*
X3446825D3*
X3496825D3*
X3546825D3*
X3596825D3*
X3646825D3*
X3696825D3*
X3746825D3*
X3796825D3*
X3846825D3*
X3896825D3*
M02*
