G04 DipTrace 4.0.0.5*
G04 BottomSilk.gbr*
%MOIN*%
G04 #@! TF.FileFunction,Legend,Bot*
G04 #@! TF.Part,Single*
%ADD10C,0.009843*%
%ADD79C,0.00772*%
%ADD82C,0.006176*%
%FSLAX26Y26*%
G04*
G70*
G90*
G75*
G01*
G04 BotSilk*
%LPD*%
X2643728Y2696828D2*
D10*
Y2596825D1*
X3243673D1*
Y2696828D1*
X2643728D1*
X3930073Y1795824D2*
X3213577D1*
X3930073Y2047827D2*
X3213577D1*
Y1795824D2*
Y2047827D1*
X3930073Y1795824D2*
Y1890337D1*
Y1953314D2*
Y2047827D1*
Y1890337D2*
G02X3930073Y1953314I34J31488D01*
G01*
X2669768Y2570404D2*
D82*
X2709960D1*
X2669768Y2583801D2*
Y2557007D1*
Y2544655D2*
X2709960D1*
Y2531258D1*
X2708014Y2525510D1*
X2704212Y2521663D1*
X2700365Y2519762D1*
X2694661Y2517861D1*
X2685066D1*
X2679318Y2519762D1*
X2675516Y2521663D1*
X2671669Y2525510D1*
X2669768Y2531258D1*
Y2544655D1*
Y2494013D2*
X2671669Y2497860D1*
X2675516Y2501662D1*
X2679318Y2503608D1*
X2685066Y2505509D1*
X2694661D1*
X2700365Y2503608D1*
X2704212Y2501662D1*
X2708014Y2497860D1*
X2709960Y2494013D1*
Y2486364D1*
X2708014Y2482561D1*
X2704212Y2478715D1*
X2700365Y2476813D1*
X2694661Y2474912D1*
X2685066D1*
X2679318Y2476813D1*
X2675516Y2478715D1*
X2671669Y2482561D1*
X2669768Y2486364D1*
Y2494013D1*
X2769074Y2568503D2*
X2809266D1*
X2769074Y2581900D2*
Y2555105D1*
X2778625Y2514058D2*
X2774822Y2515959D1*
X2770975Y2519806D1*
X2769074Y2523609D1*
Y2531258D1*
X2770975Y2535105D1*
X2774822Y2538907D1*
X2778625Y2540853D1*
X2784373Y2542754D1*
X2793967D1*
X2799671Y2540853D1*
X2803518Y2538907D1*
X2807321Y2535105D1*
X2809266Y2531258D1*
Y2523609D1*
X2807321Y2519806D1*
X2803518Y2515959D1*
X2799671Y2514058D1*
X2769074Y2501707D2*
X2809266D1*
X2769074Y2474912D2*
X2795869Y2501707D1*
X2786274Y2492156D2*
X2809266Y2474912D1*
X2868380Y2539807D2*
X2908572D1*
X2868380Y2553204D2*
Y2526409D1*
Y2514058D2*
X2908572D1*
Y2500661D1*
X2906627Y2494913D1*
X2902824Y2491066D1*
X2898978Y2489165D1*
X2893274Y2487263D1*
X2883679D1*
X2877931Y2489165D1*
X2874128Y2491066D1*
X2870282Y2494913D1*
X2868380Y2500661D1*
Y2514058D1*
Y2474912D2*
X2908572D1*
X2967687Y2570404D2*
X3007879D1*
X2967687Y2583801D2*
Y2557007D1*
X3007879Y2514058D2*
X2967687D1*
X3007879Y2529357D1*
X2967687Y2544655D1*
X3007879D1*
X2973435Y2474912D2*
X2969588Y2478715D1*
X2967687Y2484463D1*
Y2492112D1*
X2969588Y2497860D1*
X2973435Y2501707D1*
X2977237D1*
X2981084Y2499761D1*
X2982985Y2497860D1*
X2984887Y2494057D1*
X2988733Y2482561D1*
X2990635Y2478715D1*
X2992580Y2476813D1*
X2996383Y2474912D1*
X3002131D1*
X3005933Y2478715D1*
X3007879Y2484463D1*
Y2492112D1*
X3005933Y2497860D1*
X3002131Y2501707D1*
X3076544Y2553204D2*
X3072741Y2555105D1*
X3068894Y2558952D1*
X3066993Y2562755D1*
Y2570404D1*
X3068894Y2574251D1*
X3072741Y2578053D1*
X3076544Y2579999D1*
X3082292Y2581900D1*
X3091886D1*
X3097590Y2579999D1*
X3101437Y2578053D1*
X3105240Y2574251D1*
X3107185Y2570404D1*
Y2562755D1*
X3105240Y2558952D1*
X3101437Y2555105D1*
X3097590Y2553204D1*
X3091886D1*
Y2562755D1*
X3066993Y2514058D2*
X3107185D1*
X3066993Y2540853D1*
X3107185D1*
X3066993Y2501707D2*
X3107185D1*
Y2488309D1*
X3105240Y2482561D1*
X3101437Y2478715D1*
X3097590Y2476813D1*
X3091886Y2474912D1*
X3082292D1*
X3076544Y2476813D1*
X3072741Y2478715D1*
X3068894Y2482561D1*
X3066993Y2488309D1*
Y2501707D1*
X3166299Y2583801D2*
X3206491Y2568503D1*
X3166299Y2553204D1*
Y2540853D2*
X3206491D1*
Y2527455D1*
X3204546Y2521707D1*
X3200743Y2517861D1*
X3196897Y2515959D1*
X3191193Y2514058D1*
X3181598D1*
X3175850Y2515959D1*
X3172047Y2517861D1*
X3168201Y2521707D1*
X3166299Y2527455D1*
Y2540853D1*
Y2501707D2*
X3206491D1*
Y2488309D1*
X3204546Y2482561D1*
X3200743Y2478715D1*
X3196897Y2476813D1*
X3191193Y2474912D1*
X3181598D1*
X3175850Y2476813D1*
X3172047Y2478715D1*
X3168201Y2482561D1*
X3166299Y2488309D1*
Y2501707D1*
X4003297Y1879424D2*
D79*
X3967427D1*
X3960242Y1881801D1*
X3955488Y1886609D1*
X3953057Y1893794D1*
Y1898547D1*
X3955488Y1905733D1*
X3960242Y1910541D1*
X3967427Y1912918D1*
X4003297D1*
X3953057Y1952288D2*
X4003241D1*
X3969803Y1928357D1*
Y1964227D1*
M02*
