M48
INCH
T01C0.0079
T02C0.0433
T03C0.0454
T04C0.1969
%
T01
X+009500Y+014093
X+008937Y+014218
X+007812Y+013906
X+007812Y+012781
X+007250Y+012593
X+007250Y+012343
X+007250Y+012093
X+007250Y+011843
X+007250Y+011593
X+007250Y+011353
X+006750Y+011156
X+006875Y+010656
X+007250Y+010281
X+006875Y+009906
X+007250Y+009531
X+007625Y+009906
X+008000Y+009531
X+008687Y+009281
X+008687Y+008531
X+008687Y+007781
X+009812Y+008031
X+010343Y+008250
X+010530Y+008476
X+010687Y+007781
X+011562Y+007781
X+012562Y+007781
X+013562Y+007781
X+014625Y+007781
X+015250Y+008218
X+015625Y+008468
X+015625Y+007781
X+016625Y+007781
X+016812Y+008593
X+017562Y+008656
X+017625Y+007781
X+018625Y+007781
X+019625Y+007781
X+020625Y+007781
X+020812Y+008468
X+021375Y+008218
X+021875Y+008218
X+021625Y+007781
X+022625Y+007781
X+022843Y+008625
X+022750Y+009218
X+022562Y+009718
X+022000Y+009406
X+022000Y+008781
X+021062Y+009218
X+019937Y+009406
X+019812Y+009937
X+020312Y+010093
X+019562Y+010781
X+019562Y+011718
X+018812Y+012968
X+018812Y+013562
X+017437Y+013562
X+017437Y+012968
X+016281Y+012718
X+015625Y+012156
X+015630Y+011339
X+015443Y+011339
X+015255Y+011339
X+014750Y+010906
X+015187Y+010218
X+014875Y+009781
X+015500Y+009531
X+016187Y+009531
X+016562Y+009906
X+017000Y+010218
X+017062Y+009593
X+017724Y+009880
X+018125Y+009531
X+018500Y+009906
X+018875Y+009531
X+019406Y+009531
X+019375Y+008968
X+018437Y+008843
X+018250Y+010906
X+016875Y+010906
X+015812Y+010906
X+016000Y+010218
X+014187Y+009781
X+013656Y+009718
X+013653Y+010751
X+013599Y+011324
X+012541Y+010750
X+012531Y+009718
X+012937Y+008843
X+011407Y+008822
X+011403Y+009760
X+011401Y+010749
X+011437Y+011327
X+010187Y+010406
X+009812Y+010781
X+009437Y+010406
X+009062Y+010781
X+008687Y+010406
X+008312Y+010781
X+008625Y+011343
X+008812Y+011343
X+009000Y+011343
X+007812Y+011781
X+006750Y+011906
X+006750Y+012656
X+006437Y+013218
X+005937Y+012656
X+005937Y+011906
X+005937Y+011156
X+006125Y+010656
X+006500Y+010281
X+006125Y+009906
X+006500Y+009531
X+005750Y+009531
X+005750Y+010281
X+005375Y+010656
X+004750Y+010656
X+004343Y+011125
X+004341Y+009437
X+004437Y+013218
X+005437Y+014218
X+005750Y+015531
X+005750Y+015781
X+006000Y+015781
X+006250Y+015781
X+006250Y+015531
X+006000Y+015531
X+006000Y+016031
X+006000Y+016281
X+006000Y+016531
X+006000Y+016781
X+006000Y+017031
X+006000Y+017281
X+006000Y+017531
X+005750Y+017531
X+005750Y+017281
X+005750Y+017031
X+006250Y+017031
X+006250Y+017281
X+006250Y+017531
X+006250Y+016031
X+005750Y+016031
X+006437Y+015218
X+007812Y+015218
X+008437Y+015968
X+009250Y+015968
X+009312Y+015375
X+009125Y+015375
X+009500Y+015375
X+010625Y+014250
X+011125Y+014093
X+010875Y+013156
X+009687Y+012781
X+008750Y+012781
X+009062Y+010031
X+009437Y+009656
X+009812Y+010031
X+010187Y+009656
X+009812Y+009281
X+009812Y+008656
X+012625Y+013156
X+012625Y+014093
X+014062Y+014093
X+014593Y+014270
X+015437Y+014156
X+015437Y+013437
X+014375Y+013156
X+014750Y+015343
X+015312Y+015343
X+015500Y+015343
X+015687Y+015343
X+015750Y+015656
X+016343Y+016312
X+017000Y+015656
X+017528Y+015125
X+018040Y+015125
X+018552Y+015125
X+019064Y+015125
X+019625Y+015093
X+019906Y+014781
X+020125Y+015281
X+020125Y+015468
X+020875Y+015968
X+021125Y+016218
X+020625Y+016468
X+019593Y+016750
X+019312Y+016281
X+018812Y+016093
X+018281Y+015875
X+017781Y+015656
X+016406Y+014718
X+015062Y+016656
X+015531Y+017125
X+013968Y+016656
X+013968Y+015937
X+013812Y+015781
X+014062Y+015718
X+013968Y+017687
X+013968Y+018375
X+015281Y+019843
X+015906Y+019218
X+016500Y+018625
X+017250Y+019375
X+017593Y+019718
X+017888Y+019078
X+016656Y+019968
X+017000Y+020312
X+016406Y+020968
X+016031Y+020593
X+017250Y+021593
X+017656Y+021968
X+018312Y+022062
X+017687Y+021250
X+018187Y+020625
X+018906Y+020375
X+019468Y+020187
X+019968Y+019875
X+020000Y+019187
X+019875Y+019062
X+020187Y+019187
X+020968Y+019937
X+021531Y+019937
X+021812Y+019968
X+022437Y+019937
X+022437Y+019437
X+022437Y+018937
X+022437Y+018437
X+023062Y+018187
X+023062Y+018687
X+023062Y+019187
X+023062Y+019687
X+023437Y+019937
X+024312Y+019937
X+025187Y+019937
X+025750Y+019937
X+026875Y+019937
X+028000Y+019937
X+029187Y+020468
X+029562Y+020875
X+029875Y+020343
X+030062Y+020343
X+030250Y+020343
X+030156Y+019968
X+029562Y+019968
X+030500Y+020875
X+030343Y+022718
X+029812Y+022718
X+029312Y+023031
X+029125Y+023031
X+028937Y+023031
X+028937Y+023281
X+028875Y+024156
X+029125Y+024593
X+030187Y+024156
X+030437Y+024593
X+031500Y+024156
X+031750Y+024593
X+032812Y+024156
X+033062Y+024593
X+033375Y+024218
X+033687Y+024656
X+034322Y+024160
X+035062Y+024656
X+035625Y+024156
X+036312Y+023781
X+037000Y+024343
X+037689Y+023189
X+038187Y+023218
X+038218Y+022500
X+038031Y+022062
X+038468Y+021906
X+038968Y+021843
X+038968Y+022031
X+038968Y+022218
X+040000Y+023281
X+039000Y+024343
X+038000Y+025406
X+037000Y+026468
X+036000Y+025406
X+035000Y+026468
X+034000Y+025750
X+033000Y+026468
X+031000Y+023281
X+032125Y+021906
X+033437Y+021906
X+034125Y+021906
X+034963Y+021812
X+035500Y+022437
X+035937Y+021812
X+035468Y+020250
X+035968Y+019812
X+036468Y+019500
X+035906Y+019093
X+035343Y+019343
X+034687Y+019656
X+034687Y+018812
X+033937Y+018468
X+033750Y+019187
X+035750Y+018468
X+036468Y+020250
X+036843Y+016468
X+035781Y+016468
X+034718Y+016468
X+033625Y+015343
X+033187Y+015250
X+032593Y+015281
X+032375Y+014218
X+031750Y+014031
X+031437Y+014218
X+031187Y+013843
X+030250Y+014218
X+029687Y+014218
X+029000Y+014093
X+028750Y+014093
X+028500Y+014093
X+028468Y+013625
X+027593Y+013843
X+027031Y+014218
X+026406Y+015406
X+026281Y+015531
X+026156Y+015656
X+026218Y+016312
X+027031Y+016531
X+027156Y+016406
X+027281Y+016281
X+027187Y+017281
X+027437Y+017593
X+027968Y+018031
X+028375Y+017812
X+028500Y+017687
X+028625Y+017562
X+029187Y+016562
X+030000Y+015812
X+029000Y+015468
X+030875Y+016656
X+030312Y+017468
X+031687Y+017468
X+031468Y+015281
X+033562Y+014218
X+034187Y+014218
X+034687Y+013968
X+034937Y+013968
X+035187Y+013968
X+034937Y+013218
X+035875Y+013218
X+036687Y+013718
X+037000Y+012906
X+037937Y+013718
X+038812Y+012906
X+039500Y+013718
X+040437Y+012718
X+041437Y+013718
X+042000Y+012875
X+041437Y+011718
X+042437Y+010718
X+041437Y+009718
X+040437Y+010718
X+039437Y+009718
X+038281Y+009343
X+037812Y+008843
X+037812Y+008656
X+037812Y+008468
X+037812Y+008281
X+037812Y+008093
X+037406Y+007906
X+037406Y+008531
X+037375Y+008843
X+037375Y+009156
X+037375Y+009468
X+036906Y+009218
X+036906Y+008468
X+036343Y+008656
X+035718Y+009062
X+035625Y+009937
X+036250Y+010843
X+035812Y+011906
X+034937Y+011343
X+034750Y+011343
X+034562Y+011343
X+034187Y+010843
X+034562Y+010343
X+033937Y+009531
X+033937Y+009031
X+033625Y+008593
X+033375Y+009031
X+033335Y+009695
X+033062Y+009968
X+032600Y+009282
X+032185Y+009718
X+031937Y+009968
X+031471Y+009279
X+031060Y+009716
X+030812Y+009968
X+030812Y+010843
X+030857Y+011335
X+031937Y+010843
X+033062Y+010843
X+033023Y+011333
X+033562Y+012718
X+033937Y+013218
X+034750Y+012031
X+032437Y+012718
X+031437Y+012718
X+030250Y+012718
X+028937Y+012718
X+027500Y+012718
X+027500Y+011781
X+028033Y+011348
X+028220Y+011348
X+028404Y+011350
X+028937Y+010718
X+028843Y+009531
X+029250Y+009468
X+029625Y+009093
X+029125Y+008593
X+028750Y+008937
X+028250Y+008437
X+027875Y+009093
X+027750Y+009625
X+028312Y+009531
X+027062Y+009625
X+026531Y+009093
X+026125Y+009437
X+025906Y+008843
X+025875Y+008250
X+025625Y+007781
X+025375Y+008531
X+024625Y+008781
X+024375Y+008781
X+024125Y+008781
X+024125Y+009031
X+024125Y+009281
X+024125Y+009531
X+024125Y+009781
X+024125Y+010031
X+024125Y+010281
X+024125Y+010531
X+024125Y+010781
X+023562Y+010781
X+022500Y+010968
X+022500Y+010437
X+022000Y+010093
X+023468Y+009218
X+023625Y+008781
X+023875Y+008781
X+024625Y+009281
X+024909Y+009878
X+025437Y+009625
X+025750Y+010062
X+026125Y+010437
X+025750Y+010812
X+025250Y+011750
X+025843Y+012250
X+025843Y+013312
X+024812Y+014218
X+025343Y+015406
X+024593Y+016531
X+025093Y+017031
X+025593Y+017531
X+026093Y+018000
X+026437Y+018250
X+026656Y+018468
X+025593Y+018437
X+025093Y+018000
X+024593Y+018437
X+024093Y+018000
X+024593Y+017531
X+024093Y+017031
X+023593Y+016531
X+024093Y+016031
X+023625Y+015531
X+023625Y+015000
X+023093Y+016031
X+022419Y+016642
X+022544Y+016767
X+022669Y+016892
X+023093Y+017031
X+023593Y+017531
X+022593Y+017531
X+022093Y+017031
X+021562Y+017906
X+021375Y+017906
X+021187Y+017906
X+019256Y+018211
X+018250Y+017281
X+020125Y+014218
X+020437Y+013781
X+020937Y+013562
X+020937Y+012968
X+020437Y+013125
X+021218Y+014437
X+022437Y+014218
X+021812Y+015531
X+023250Y+012250
X+024218Y+011750
X+024625Y+012625
X+026937Y+010718
X+026875Y+008562
X+027437Y+008593
X+027625Y+007781
X+026625Y+007781
X+028625Y+007781
X+029625Y+007781
X+030125Y+008468
X+030406Y+009093
X+030625Y+007781
X+031625Y+007781
X+031875Y+008531
X+032656Y+008593
X+032625Y+007781
X+033625Y+007781
X+034625Y+007781
X+035625Y+007781
X+036625Y+007781
X+038281Y+008656
X+038502Y+008375
X+038687Y+007375
X+039437Y+011718
X+040437Y+014718
X+039687Y+015843
X+039656Y+016531
X+040437Y+016562
X+041062Y+016093
X+042000Y+017125
X+042937Y+016093
X+042000Y+015000
X+042937Y+013968
X+039000Y+015062
X+038968Y+015875
X+039906Y+018187
X+040468Y+019875
X+040468Y+021062
X+041000Y+022218
X+042000Y+021156
X+042937Y+022218
X+041999Y+023281
X+042937Y+024343
X+042000Y+025406
X+042937Y+026468
X+041000Y+026468
X+040000Y+025406
X+039000Y+026468
X+041000Y+024343
X+042937Y+020093
X+042937Y+018218
X+036437Y+015156
X+034562Y+009031
X+024625Y+007781
X+023625Y+007781
X+020250Y+020843
X+019843Y+021156
X+019937Y+021812
X+019750Y+021812
X+020125Y+021812
X+020375Y+021593
X+020500Y+022250
X+020937Y+022781
X+021062Y+022656
X+021187Y+022531
X+021281Y+023000
X+021625Y+023375
X+022125Y+022875
X+022281Y+022281
X+022625Y+022468
X+023125Y+022875
X+023625Y+022468
X+024125Y+022875
X+024625Y+022468
X+025125Y+022875
X+025687Y+022500
X+025625Y+023375
X+024624Y+023375
X+024125Y+023875
X+023625Y+023375
X+023125Y+023875
X+022562Y+023906
X+022437Y+024031
X+022312Y+024156
X+022156Y+023906
X+022656Y+024406
X+023156Y+024906
X+023656Y+024406
X+024156Y+024906
X+024656Y+024406
X+023625Y+025468
X+023875Y+026093
X+023312Y+026093
X+022750Y+026593
X+022187Y+026593
X+020375Y+025687
X+020187Y+025687
X+020000Y+025687
X+019500Y+024500
X+019640Y+023507
X+018312Y+024250
X+018125Y+024250
X+017937Y+024250
X+018187Y+025687
X+016156Y+025687
X+015531Y+025781
X+014500Y+025781
X+014000Y+025468
X+013875Y+025343
X+013750Y+025218
X+014062Y+025062
X+014750Y+025031
X+014000Y+024218
X+013531Y+023718
X+013093Y+023281
X+012781Y+023718
X+012538Y+023181
X+012125Y+023750
X+011751Y+023375
X+011343Y+023750
X+010767Y+023386
X+010373Y+023750
X+009979Y+023380
X+009593Y+023062
X+009586Y+023750
X+008437Y+022718
X+007437Y+021718
X+006812Y+021093
X+006656Y+021281
X+006468Y+021281
X+006281Y+021281
X+006093Y+021281
X+005906Y+021281
X+005718Y+021281
X+005531Y+021281
X+005343Y+021281
X+005187Y+021093
X+005000Y+020906
X+005000Y+020718
X+005000Y+020531
X+005000Y+020343
X+004437Y+020718
X+004875Y+019468
X+006000Y+019468
X+007125Y+019468
X+007000Y+020343
X+007000Y+020531
X+007000Y+020718
X+007000Y+020906
X+008437Y+020718
X+009437Y+019718
X+008500Y+018781
X+007812Y+017156
X+011125Y+016031
X+011312Y+015843
X+010437Y+020718
X+009437Y+021718
X+007437Y+023718
X+006437Y+022718
X+005437Y+021718
X+004437Y+022718
X+005437Y+023718
X+004437Y+024718
X+005437Y+025718
X+004437Y+026581
X+006437Y+026581
X+007437Y+025718
X+008437Y+026581
X+009625Y+025343
X+010375Y+025343
X+010437Y+025781
X+010625Y+025781
X+010250Y+025781
X+011250Y+025343
X+011875Y+025343
X+012500Y+025343
X+012000Y+025968
X+013125Y+025968
X+016437Y+024250
X+016906Y+022906
X+017093Y+022906
X+017281Y+022906
X+021156Y+021593
X+021375Y+022062
X+022156Y+021593
X+023156Y+021593
X+024156Y+021593
X+025156Y+021593
X+025750Y+021593
X+026593Y+021593
X+027468Y+021593
X+026625Y+022500
X+027562Y+023531
X+027031Y+024281
X+026843Y+024281
X+026656Y+024281
X+026125Y+026593
X+025562Y+026593
X+025000Y+026593
X+024437Y+026593
X+022625Y+023375
X+006437Y+024718
X+004312Y+018093
X+004437Y+015218
T02
X+031937Y+026468
X+030937Y+026468
X+029937Y+026468
X+028937Y+026468
X+027937Y+026468
X+026937Y+026468
T00
M30
